%TF.GenerationSoftware,KiCad,Pcbnew,8.0.8*%
%TF.CreationDate,2025-02-03T10:15:12-05:00*%
%TF.ProjectId,Balanced Polarimeter,42616c61-6e63-4656-9420-506f6c617269,rev?*%
%TF.SameCoordinates,Original*%
%TF.FileFunction,Paste,Top*%
%TF.FilePolarity,Positive*%
%FSLAX46Y46*%
G04 Gerber Fmt 4.6, Leading zero omitted, Abs format (unit mm)*
G04 Created by KiCad (PCBNEW 8.0.8) date 2025-02-03 10:15:12*
%MOMM*%
%LPD*%
G01*
G04 APERTURE LIST*
G04 Aperture macros list*
%AMRoundRect*
0 Rectangle with rounded corners*
0 $1 Rounding radius*
0 $2 $3 $4 $5 $6 $7 $8 $9 X,Y pos of 4 corners*
0 Add a 4 corners polygon primitive as box body*
4,1,4,$2,$3,$4,$5,$6,$7,$8,$9,$2,$3,0*
0 Add four circle primitives for the rounded corners*
1,1,$1+$1,$2,$3*
1,1,$1+$1,$4,$5*
1,1,$1+$1,$6,$7*
1,1,$1+$1,$8,$9*
0 Add four rect primitives between the rounded corners*
20,1,$1+$1,$2,$3,$4,$5,0*
20,1,$1+$1,$4,$5,$6,$7,0*
20,1,$1+$1,$6,$7,$8,$9,0*
20,1,$1+$1,$8,$9,$2,$3,0*%
G04 Aperture macros list end*
%ADD10RoundRect,0.230000X-0.230000X-0.375000X0.230000X-0.375000X0.230000X0.375000X-0.230000X0.375000X0*%
%ADD11RoundRect,0.150000X-0.825000X-0.150000X0.825000X-0.150000X0.825000X0.150000X-0.825000X0.150000X0*%
%ADD12R,1.550000X0.650000*%
G04 APERTURE END LIST*
D10*
%TO.C,U1*%
X152360000Y-72171300D03*
X152360000Y-73671300D03*
X153500000Y-72171300D03*
X153500000Y-73671300D03*
D11*
X150455000Y-71016300D03*
X150455000Y-72286300D03*
X150455000Y-73556300D03*
X150455000Y-74826300D03*
X155405000Y-74826300D03*
X155405000Y-73556300D03*
X155405000Y-72286300D03*
X155405000Y-71016300D03*
%TD*%
D12*
%TO.C,Q1*%
X138500000Y-66631300D03*
X138500000Y-67901300D03*
X138500000Y-69171300D03*
X138500000Y-70441300D03*
X138500000Y-71711300D03*
X138500000Y-72981300D03*
X138500000Y-74251300D03*
X138500000Y-75521300D03*
X143950000Y-75521300D03*
X143950000Y-74251300D03*
X143950000Y-72981300D03*
X143950000Y-71711300D03*
X143950000Y-70441300D03*
X143950000Y-69171300D03*
X143950000Y-67901300D03*
X143950000Y-66631300D03*
%TD*%
%TO.C,Q2*%
X138550000Y-94226300D03*
X138550000Y-95496300D03*
X138550000Y-96766300D03*
X138550000Y-98036300D03*
X138550000Y-99306300D03*
X138550000Y-100576300D03*
X138550000Y-101846300D03*
X138550000Y-103116300D03*
X144000000Y-103116300D03*
X144000000Y-101846300D03*
X144000000Y-100576300D03*
X144000000Y-99306300D03*
X144000000Y-98036300D03*
X144000000Y-96766300D03*
X144000000Y-95496300D03*
X144000000Y-94226300D03*
%TD*%
D10*
%TO.C,U2*%
X152430000Y-97171300D03*
X152430000Y-98671300D03*
X153570000Y-97171300D03*
X153570000Y-98671300D03*
D11*
X150525000Y-96016300D03*
X150525000Y-97286300D03*
X150525000Y-98556300D03*
X150525000Y-99826300D03*
X155475000Y-99826300D03*
X155475000Y-98556300D03*
X155475000Y-97286300D03*
X155475000Y-96016300D03*
%TD*%
M02*
