%TF.GenerationSoftware,KiCad,Pcbnew,8.0.8*%
%TF.CreationDate,2025-02-03T10:15:12-05:00*%
%TF.ProjectId,Balanced Polarimeter,42616c61-6e63-4656-9420-506f6c617269,rev?*%
%TF.SameCoordinates,Original*%
%TF.FileFunction,Legend,Top*%
%TF.FilePolarity,Positive*%
%FSLAX46Y46*%
G04 Gerber Fmt 4.6, Leading zero omitted, Abs format (unit mm)*
G04 Created by KiCad (PCBNEW 8.0.8) date 2025-02-03 10:15:12*
%MOMM*%
%LPD*%
G01*
G04 APERTURE LIST*
%ADD10C,0.200000*%
%ADD11C,0.150000*%
%ADD12C,0.254000*%
%ADD13C,0.120000*%
%ADD14C,0.152400*%
G04 APERTURE END LIST*
D10*
X151750002Y-104358767D02*
X152000002Y-104442101D01*
X152000002Y-104442101D02*
X152083335Y-104525434D01*
X152083335Y-104525434D02*
X152166668Y-104692101D01*
X152166668Y-104692101D02*
X152166668Y-104942101D01*
X152166668Y-104942101D02*
X152083335Y-105108767D01*
X152083335Y-105108767D02*
X152000002Y-105192101D01*
X152000002Y-105192101D02*
X151833335Y-105275434D01*
X151833335Y-105275434D02*
X151166668Y-105275434D01*
X151166668Y-105275434D02*
X151166668Y-103525434D01*
X151166668Y-103525434D02*
X151750002Y-103525434D01*
X151750002Y-103525434D02*
X151916668Y-103608767D01*
X151916668Y-103608767D02*
X152000002Y-103692101D01*
X152000002Y-103692101D02*
X152083335Y-103858767D01*
X152083335Y-103858767D02*
X152083335Y-104025434D01*
X152083335Y-104025434D02*
X152000002Y-104192101D01*
X152000002Y-104192101D02*
X151916668Y-104275434D01*
X151916668Y-104275434D02*
X151750002Y-104358767D01*
X151750002Y-104358767D02*
X151166668Y-104358767D01*
X153666668Y-105275434D02*
X153666668Y-104358767D01*
X153666668Y-104358767D02*
X153583335Y-104192101D01*
X153583335Y-104192101D02*
X153416668Y-104108767D01*
X153416668Y-104108767D02*
X153083335Y-104108767D01*
X153083335Y-104108767D02*
X152916668Y-104192101D01*
X153666668Y-105192101D02*
X153500002Y-105275434D01*
X153500002Y-105275434D02*
X153083335Y-105275434D01*
X153083335Y-105275434D02*
X152916668Y-105192101D01*
X152916668Y-105192101D02*
X152833335Y-105025434D01*
X152833335Y-105025434D02*
X152833335Y-104858767D01*
X152833335Y-104858767D02*
X152916668Y-104692101D01*
X152916668Y-104692101D02*
X153083335Y-104608767D01*
X153083335Y-104608767D02*
X153500002Y-104608767D01*
X153500002Y-104608767D02*
X153666668Y-104525434D01*
X154750001Y-105275434D02*
X154583335Y-105192101D01*
X154583335Y-105192101D02*
X154500001Y-105025434D01*
X154500001Y-105025434D02*
X154500001Y-103525434D01*
X156166668Y-105275434D02*
X156166668Y-104358767D01*
X156166668Y-104358767D02*
X156083335Y-104192101D01*
X156083335Y-104192101D02*
X155916668Y-104108767D01*
X155916668Y-104108767D02*
X155583335Y-104108767D01*
X155583335Y-104108767D02*
X155416668Y-104192101D01*
X156166668Y-105192101D02*
X156000002Y-105275434D01*
X156000002Y-105275434D02*
X155583335Y-105275434D01*
X155583335Y-105275434D02*
X155416668Y-105192101D01*
X155416668Y-105192101D02*
X155333335Y-105025434D01*
X155333335Y-105025434D02*
X155333335Y-104858767D01*
X155333335Y-104858767D02*
X155416668Y-104692101D01*
X155416668Y-104692101D02*
X155583335Y-104608767D01*
X155583335Y-104608767D02*
X156000002Y-104608767D01*
X156000002Y-104608767D02*
X156166668Y-104525434D01*
X157000001Y-104108767D02*
X157000001Y-105275434D01*
X157000001Y-104275434D02*
X157083335Y-104192101D01*
X157083335Y-104192101D02*
X157250001Y-104108767D01*
X157250001Y-104108767D02*
X157500001Y-104108767D01*
X157500001Y-104108767D02*
X157666668Y-104192101D01*
X157666668Y-104192101D02*
X157750001Y-104358767D01*
X157750001Y-104358767D02*
X157750001Y-105275434D01*
X159333334Y-105192101D02*
X159166668Y-105275434D01*
X159166668Y-105275434D02*
X158833334Y-105275434D01*
X158833334Y-105275434D02*
X158666668Y-105192101D01*
X158666668Y-105192101D02*
X158583334Y-105108767D01*
X158583334Y-105108767D02*
X158500001Y-104942101D01*
X158500001Y-104942101D02*
X158500001Y-104442101D01*
X158500001Y-104442101D02*
X158583334Y-104275434D01*
X158583334Y-104275434D02*
X158666668Y-104192101D01*
X158666668Y-104192101D02*
X158833334Y-104108767D01*
X158833334Y-104108767D02*
X159166668Y-104108767D01*
X159166668Y-104108767D02*
X159333334Y-104192101D01*
X160750001Y-105192101D02*
X160583334Y-105275434D01*
X160583334Y-105275434D02*
X160250001Y-105275434D01*
X160250001Y-105275434D02*
X160083334Y-105192101D01*
X160083334Y-105192101D02*
X160000001Y-105025434D01*
X160000001Y-105025434D02*
X160000001Y-104358767D01*
X160000001Y-104358767D02*
X160083334Y-104192101D01*
X160083334Y-104192101D02*
X160250001Y-104108767D01*
X160250001Y-104108767D02*
X160583334Y-104108767D01*
X160583334Y-104108767D02*
X160750001Y-104192101D01*
X160750001Y-104192101D02*
X160833334Y-104358767D01*
X160833334Y-104358767D02*
X160833334Y-104525434D01*
X160833334Y-104525434D02*
X160000001Y-104692101D01*
X162333334Y-105275434D02*
X162333334Y-103525434D01*
X162333334Y-105192101D02*
X162166668Y-105275434D01*
X162166668Y-105275434D02*
X161833334Y-105275434D01*
X161833334Y-105275434D02*
X161666668Y-105192101D01*
X161666668Y-105192101D02*
X161583334Y-105108767D01*
X161583334Y-105108767D02*
X161500001Y-104942101D01*
X161500001Y-104942101D02*
X161500001Y-104442101D01*
X161500001Y-104442101D02*
X161583334Y-104275434D01*
X161583334Y-104275434D02*
X161666668Y-104192101D01*
X161666668Y-104192101D02*
X161833334Y-104108767D01*
X161833334Y-104108767D02*
X162166668Y-104108767D01*
X162166668Y-104108767D02*
X162333334Y-104192101D01*
X164500000Y-105275434D02*
X164500000Y-103525434D01*
X164500000Y-103525434D02*
X165166667Y-103525434D01*
X165166667Y-103525434D02*
X165333334Y-103608767D01*
X165333334Y-103608767D02*
X165416667Y-103692101D01*
X165416667Y-103692101D02*
X165500000Y-103858767D01*
X165500000Y-103858767D02*
X165500000Y-104108767D01*
X165500000Y-104108767D02*
X165416667Y-104275434D01*
X165416667Y-104275434D02*
X165333334Y-104358767D01*
X165333334Y-104358767D02*
X165166667Y-104442101D01*
X165166667Y-104442101D02*
X164500000Y-104442101D01*
X166500000Y-105275434D02*
X166333334Y-105192101D01*
X166333334Y-105192101D02*
X166250000Y-105108767D01*
X166250000Y-105108767D02*
X166166667Y-104942101D01*
X166166667Y-104942101D02*
X166166667Y-104442101D01*
X166166667Y-104442101D02*
X166250000Y-104275434D01*
X166250000Y-104275434D02*
X166333334Y-104192101D01*
X166333334Y-104192101D02*
X166500000Y-104108767D01*
X166500000Y-104108767D02*
X166750000Y-104108767D01*
X166750000Y-104108767D02*
X166916667Y-104192101D01*
X166916667Y-104192101D02*
X167000000Y-104275434D01*
X167000000Y-104275434D02*
X167083334Y-104442101D01*
X167083334Y-104442101D02*
X167083334Y-104942101D01*
X167083334Y-104942101D02*
X167000000Y-105108767D01*
X167000000Y-105108767D02*
X166916667Y-105192101D01*
X166916667Y-105192101D02*
X166750000Y-105275434D01*
X166750000Y-105275434D02*
X166500000Y-105275434D01*
X168083333Y-105275434D02*
X167916667Y-105192101D01*
X167916667Y-105192101D02*
X167833333Y-105025434D01*
X167833333Y-105025434D02*
X167833333Y-103525434D01*
X169500000Y-105275434D02*
X169500000Y-104358767D01*
X169500000Y-104358767D02*
X169416667Y-104192101D01*
X169416667Y-104192101D02*
X169250000Y-104108767D01*
X169250000Y-104108767D02*
X168916667Y-104108767D01*
X168916667Y-104108767D02*
X168750000Y-104192101D01*
X169500000Y-105192101D02*
X169333334Y-105275434D01*
X169333334Y-105275434D02*
X168916667Y-105275434D01*
X168916667Y-105275434D02*
X168750000Y-105192101D01*
X168750000Y-105192101D02*
X168666667Y-105025434D01*
X168666667Y-105025434D02*
X168666667Y-104858767D01*
X168666667Y-104858767D02*
X168750000Y-104692101D01*
X168750000Y-104692101D02*
X168916667Y-104608767D01*
X168916667Y-104608767D02*
X169333334Y-104608767D01*
X169333334Y-104608767D02*
X169500000Y-104525434D01*
X170333333Y-105275434D02*
X170333333Y-104108767D01*
X170333333Y-104442101D02*
X170416667Y-104275434D01*
X170416667Y-104275434D02*
X170500000Y-104192101D01*
X170500000Y-104192101D02*
X170666667Y-104108767D01*
X170666667Y-104108767D02*
X170833333Y-104108767D01*
X171416666Y-105275434D02*
X171416666Y-104108767D01*
X171416666Y-103525434D02*
X171333333Y-103608767D01*
X171333333Y-103608767D02*
X171416666Y-103692101D01*
X171416666Y-103692101D02*
X171500000Y-103608767D01*
X171500000Y-103608767D02*
X171416666Y-103525434D01*
X171416666Y-103525434D02*
X171416666Y-103692101D01*
X172249999Y-105275434D02*
X172249999Y-104108767D01*
X172249999Y-104275434D02*
X172333333Y-104192101D01*
X172333333Y-104192101D02*
X172499999Y-104108767D01*
X172499999Y-104108767D02*
X172749999Y-104108767D01*
X172749999Y-104108767D02*
X172916666Y-104192101D01*
X172916666Y-104192101D02*
X172999999Y-104358767D01*
X172999999Y-104358767D02*
X172999999Y-105275434D01*
X172999999Y-104358767D02*
X173083333Y-104192101D01*
X173083333Y-104192101D02*
X173249999Y-104108767D01*
X173249999Y-104108767D02*
X173499999Y-104108767D01*
X173499999Y-104108767D02*
X173666666Y-104192101D01*
X173666666Y-104192101D02*
X173749999Y-104358767D01*
X173749999Y-104358767D02*
X173749999Y-105275434D01*
X175249999Y-105192101D02*
X175083332Y-105275434D01*
X175083332Y-105275434D02*
X174749999Y-105275434D01*
X174749999Y-105275434D02*
X174583332Y-105192101D01*
X174583332Y-105192101D02*
X174499999Y-105025434D01*
X174499999Y-105025434D02*
X174499999Y-104358767D01*
X174499999Y-104358767D02*
X174583332Y-104192101D01*
X174583332Y-104192101D02*
X174749999Y-104108767D01*
X174749999Y-104108767D02*
X175083332Y-104108767D01*
X175083332Y-104108767D02*
X175249999Y-104192101D01*
X175249999Y-104192101D02*
X175333332Y-104358767D01*
X175333332Y-104358767D02*
X175333332Y-104525434D01*
X175333332Y-104525434D02*
X174499999Y-104692101D01*
X175833332Y-104108767D02*
X176499999Y-104108767D01*
X176083332Y-103525434D02*
X176083332Y-105025434D01*
X176083332Y-105025434D02*
X176166666Y-105192101D01*
X176166666Y-105192101D02*
X176333332Y-105275434D01*
X176333332Y-105275434D02*
X176499999Y-105275434D01*
X177749999Y-105192101D02*
X177583332Y-105275434D01*
X177583332Y-105275434D02*
X177249999Y-105275434D01*
X177249999Y-105275434D02*
X177083332Y-105192101D01*
X177083332Y-105192101D02*
X176999999Y-105025434D01*
X176999999Y-105025434D02*
X176999999Y-104358767D01*
X176999999Y-104358767D02*
X177083332Y-104192101D01*
X177083332Y-104192101D02*
X177249999Y-104108767D01*
X177249999Y-104108767D02*
X177583332Y-104108767D01*
X177583332Y-104108767D02*
X177749999Y-104192101D01*
X177749999Y-104192101D02*
X177833332Y-104358767D01*
X177833332Y-104358767D02*
X177833332Y-104525434D01*
X177833332Y-104525434D02*
X176999999Y-104692101D01*
X178583332Y-105275434D02*
X178583332Y-104108767D01*
X178583332Y-104442101D02*
X178666666Y-104275434D01*
X178666666Y-104275434D02*
X178749999Y-104192101D01*
X178749999Y-104192101D02*
X178916666Y-104108767D01*
X178916666Y-104108767D02*
X179083332Y-104108767D01*
X174214286Y-86986266D02*
X174976191Y-86986266D01*
X175928571Y-86367219D02*
X175452381Y-86367219D01*
X175452381Y-86367219D02*
X175404762Y-86843409D01*
X175404762Y-86843409D02*
X175452381Y-86795790D01*
X175452381Y-86795790D02*
X175547619Y-86748171D01*
X175547619Y-86748171D02*
X175785714Y-86748171D01*
X175785714Y-86748171D02*
X175880952Y-86795790D01*
X175880952Y-86795790D02*
X175928571Y-86843409D01*
X175928571Y-86843409D02*
X175976190Y-86938647D01*
X175976190Y-86938647D02*
X175976190Y-87176742D01*
X175976190Y-87176742D02*
X175928571Y-87271980D01*
X175928571Y-87271980D02*
X175880952Y-87319600D01*
X175880952Y-87319600D02*
X175785714Y-87367219D01*
X175785714Y-87367219D02*
X175547619Y-87367219D01*
X175547619Y-87367219D02*
X175452381Y-87319600D01*
X175452381Y-87319600D02*
X175404762Y-87271980D01*
X176261905Y-86367219D02*
X176595238Y-87367219D01*
X176595238Y-87367219D02*
X176928571Y-86367219D01*
X174214286Y-85486266D02*
X174976191Y-85486266D01*
X174595238Y-85867219D02*
X174595238Y-85105314D01*
X175928571Y-84867219D02*
X175452381Y-84867219D01*
X175452381Y-84867219D02*
X175404762Y-85343409D01*
X175404762Y-85343409D02*
X175452381Y-85295790D01*
X175452381Y-85295790D02*
X175547619Y-85248171D01*
X175547619Y-85248171D02*
X175785714Y-85248171D01*
X175785714Y-85248171D02*
X175880952Y-85295790D01*
X175880952Y-85295790D02*
X175928571Y-85343409D01*
X175928571Y-85343409D02*
X175976190Y-85438647D01*
X175976190Y-85438647D02*
X175976190Y-85676742D01*
X175976190Y-85676742D02*
X175928571Y-85771980D01*
X175928571Y-85771980D02*
X175880952Y-85819600D01*
X175880952Y-85819600D02*
X175785714Y-85867219D01*
X175785714Y-85867219D02*
X175547619Y-85867219D01*
X175547619Y-85867219D02*
X175452381Y-85819600D01*
X175452381Y-85819600D02*
X175404762Y-85771980D01*
X176261905Y-84867219D02*
X176595238Y-85867219D01*
X176595238Y-85867219D02*
X176928571Y-84867219D01*
D11*
X168584819Y-76666666D02*
X168108628Y-76999999D01*
X168584819Y-77238094D02*
X167584819Y-77238094D01*
X167584819Y-77238094D02*
X167584819Y-76857142D01*
X167584819Y-76857142D02*
X167632438Y-76761904D01*
X167632438Y-76761904D02*
X167680057Y-76714285D01*
X167680057Y-76714285D02*
X167775295Y-76666666D01*
X167775295Y-76666666D02*
X167918152Y-76666666D01*
X167918152Y-76666666D02*
X168013390Y-76714285D01*
X168013390Y-76714285D02*
X168061009Y-76761904D01*
X168061009Y-76761904D02*
X168108628Y-76857142D01*
X168108628Y-76857142D02*
X168108628Y-77238094D01*
X168013390Y-76095237D02*
X167965771Y-76190475D01*
X167965771Y-76190475D02*
X167918152Y-76238094D01*
X167918152Y-76238094D02*
X167822914Y-76285713D01*
X167822914Y-76285713D02*
X167775295Y-76285713D01*
X167775295Y-76285713D02*
X167680057Y-76238094D01*
X167680057Y-76238094D02*
X167632438Y-76190475D01*
X167632438Y-76190475D02*
X167584819Y-76095237D01*
X167584819Y-76095237D02*
X167584819Y-75904761D01*
X167584819Y-75904761D02*
X167632438Y-75809523D01*
X167632438Y-75809523D02*
X167680057Y-75761904D01*
X167680057Y-75761904D02*
X167775295Y-75714285D01*
X167775295Y-75714285D02*
X167822914Y-75714285D01*
X167822914Y-75714285D02*
X167918152Y-75761904D01*
X167918152Y-75761904D02*
X167965771Y-75809523D01*
X167965771Y-75809523D02*
X168013390Y-75904761D01*
X168013390Y-75904761D02*
X168013390Y-76095237D01*
X168013390Y-76095237D02*
X168061009Y-76190475D01*
X168061009Y-76190475D02*
X168108628Y-76238094D01*
X168108628Y-76238094D02*
X168203866Y-76285713D01*
X168203866Y-76285713D02*
X168394342Y-76285713D01*
X168394342Y-76285713D02*
X168489580Y-76238094D01*
X168489580Y-76238094D02*
X168537200Y-76190475D01*
X168537200Y-76190475D02*
X168584819Y-76095237D01*
X168584819Y-76095237D02*
X168584819Y-75904761D01*
X168584819Y-75904761D02*
X168537200Y-75809523D01*
X168537200Y-75809523D02*
X168489580Y-75761904D01*
X168489580Y-75761904D02*
X168394342Y-75714285D01*
X168394342Y-75714285D02*
X168203866Y-75714285D01*
X168203866Y-75714285D02*
X168108628Y-75761904D01*
X168108628Y-75761904D02*
X168061009Y-75809523D01*
X168061009Y-75809523D02*
X168013390Y-75904761D01*
X161584819Y-76837966D02*
X161108628Y-77171299D01*
X161584819Y-77409394D02*
X160584819Y-77409394D01*
X160584819Y-77409394D02*
X160584819Y-77028442D01*
X160584819Y-77028442D02*
X160632438Y-76933204D01*
X160632438Y-76933204D02*
X160680057Y-76885585D01*
X160680057Y-76885585D02*
X160775295Y-76837966D01*
X160775295Y-76837966D02*
X160918152Y-76837966D01*
X160918152Y-76837966D02*
X161013390Y-76885585D01*
X161013390Y-76885585D02*
X161061009Y-76933204D01*
X161061009Y-76933204D02*
X161108628Y-77028442D01*
X161108628Y-77028442D02*
X161108628Y-77409394D01*
X160584819Y-76504632D02*
X160584819Y-75885585D01*
X160584819Y-75885585D02*
X160965771Y-76218918D01*
X160965771Y-76218918D02*
X160965771Y-76076061D01*
X160965771Y-76076061D02*
X161013390Y-75980823D01*
X161013390Y-75980823D02*
X161061009Y-75933204D01*
X161061009Y-75933204D02*
X161156247Y-75885585D01*
X161156247Y-75885585D02*
X161394342Y-75885585D01*
X161394342Y-75885585D02*
X161489580Y-75933204D01*
X161489580Y-75933204D02*
X161537200Y-75980823D01*
X161537200Y-75980823D02*
X161584819Y-76076061D01*
X161584819Y-76076061D02*
X161584819Y-76361775D01*
X161584819Y-76361775D02*
X161537200Y-76457013D01*
X161537200Y-76457013D02*
X161489580Y-76504632D01*
X166324819Y-93337966D02*
X165848628Y-93671299D01*
X166324819Y-93909394D02*
X165324819Y-93909394D01*
X165324819Y-93909394D02*
X165324819Y-93528442D01*
X165324819Y-93528442D02*
X165372438Y-93433204D01*
X165372438Y-93433204D02*
X165420057Y-93385585D01*
X165420057Y-93385585D02*
X165515295Y-93337966D01*
X165515295Y-93337966D02*
X165658152Y-93337966D01*
X165658152Y-93337966D02*
X165753390Y-93385585D01*
X165753390Y-93385585D02*
X165801009Y-93433204D01*
X165801009Y-93433204D02*
X165848628Y-93528442D01*
X165848628Y-93528442D02*
X165848628Y-93909394D01*
X165324819Y-93004632D02*
X165324819Y-92337966D01*
X165324819Y-92337966D02*
X166324819Y-92766537D01*
X152168095Y-68976119D02*
X152168095Y-69785642D01*
X152168095Y-69785642D02*
X152215714Y-69880880D01*
X152215714Y-69880880D02*
X152263333Y-69928500D01*
X152263333Y-69928500D02*
X152358571Y-69976119D01*
X152358571Y-69976119D02*
X152549047Y-69976119D01*
X152549047Y-69976119D02*
X152644285Y-69928500D01*
X152644285Y-69928500D02*
X152691904Y-69880880D01*
X152691904Y-69880880D02*
X152739523Y-69785642D01*
X152739523Y-69785642D02*
X152739523Y-68976119D01*
X153739523Y-69976119D02*
X153168095Y-69976119D01*
X153453809Y-69976119D02*
X153453809Y-68976119D01*
X153453809Y-68976119D02*
X153358571Y-69118976D01*
X153358571Y-69118976D02*
X153263333Y-69214214D01*
X153263333Y-69214214D02*
X153168095Y-69261833D01*
X146858571Y-76840404D02*
X147334761Y-76840404D01*
X146763333Y-77126119D02*
X147096666Y-76126119D01*
X147096666Y-76126119D02*
X147429999Y-77126119D01*
X147763333Y-77126119D02*
X147763333Y-76126119D01*
X147763333Y-76126119D02*
X148001428Y-76126119D01*
X148001428Y-76126119D02*
X148144285Y-76173738D01*
X148144285Y-76173738D02*
X148239523Y-76268976D01*
X148239523Y-76268976D02*
X148287142Y-76364214D01*
X148287142Y-76364214D02*
X148334761Y-76554690D01*
X148334761Y-76554690D02*
X148334761Y-76697547D01*
X148334761Y-76697547D02*
X148287142Y-76888023D01*
X148287142Y-76888023D02*
X148239523Y-76983261D01*
X148239523Y-76983261D02*
X148144285Y-77078500D01*
X148144285Y-77078500D02*
X148001428Y-77126119D01*
X148001428Y-77126119D02*
X147763333Y-77126119D01*
X148715714Y-76840404D02*
X149191904Y-76840404D01*
X148620476Y-77126119D02*
X148953809Y-76126119D01*
X148953809Y-76126119D02*
X149287142Y-77126119D01*
X150049047Y-76459452D02*
X150049047Y-77126119D01*
X149810952Y-76078500D02*
X149572857Y-76792785D01*
X149572857Y-76792785D02*
X150191904Y-76792785D01*
X150715714Y-76554690D02*
X150620476Y-76507071D01*
X150620476Y-76507071D02*
X150572857Y-76459452D01*
X150572857Y-76459452D02*
X150525238Y-76364214D01*
X150525238Y-76364214D02*
X150525238Y-76316595D01*
X150525238Y-76316595D02*
X150572857Y-76221357D01*
X150572857Y-76221357D02*
X150620476Y-76173738D01*
X150620476Y-76173738D02*
X150715714Y-76126119D01*
X150715714Y-76126119D02*
X150906190Y-76126119D01*
X150906190Y-76126119D02*
X151001428Y-76173738D01*
X151001428Y-76173738D02*
X151049047Y-76221357D01*
X151049047Y-76221357D02*
X151096666Y-76316595D01*
X151096666Y-76316595D02*
X151096666Y-76364214D01*
X151096666Y-76364214D02*
X151049047Y-76459452D01*
X151049047Y-76459452D02*
X151001428Y-76507071D01*
X151001428Y-76507071D02*
X150906190Y-76554690D01*
X150906190Y-76554690D02*
X150715714Y-76554690D01*
X150715714Y-76554690D02*
X150620476Y-76602309D01*
X150620476Y-76602309D02*
X150572857Y-76649928D01*
X150572857Y-76649928D02*
X150525238Y-76745166D01*
X150525238Y-76745166D02*
X150525238Y-76935642D01*
X150525238Y-76935642D02*
X150572857Y-77030880D01*
X150572857Y-77030880D02*
X150620476Y-77078500D01*
X150620476Y-77078500D02*
X150715714Y-77126119D01*
X150715714Y-77126119D02*
X150906190Y-77126119D01*
X150906190Y-77126119D02*
X151001428Y-77078500D01*
X151001428Y-77078500D02*
X151049047Y-77030880D01*
X151049047Y-77030880D02*
X151096666Y-76935642D01*
X151096666Y-76935642D02*
X151096666Y-76745166D01*
X151096666Y-76745166D02*
X151049047Y-76649928D01*
X151049047Y-76649928D02*
X151001428Y-76602309D01*
X151001428Y-76602309D02*
X150906190Y-76554690D01*
X151572857Y-77126119D02*
X151763333Y-77126119D01*
X151763333Y-77126119D02*
X151858571Y-77078500D01*
X151858571Y-77078500D02*
X151906190Y-77030880D01*
X151906190Y-77030880D02*
X152001428Y-76888023D01*
X152001428Y-76888023D02*
X152049047Y-76697547D01*
X152049047Y-76697547D02*
X152049047Y-76316595D01*
X152049047Y-76316595D02*
X152001428Y-76221357D01*
X152001428Y-76221357D02*
X151953809Y-76173738D01*
X151953809Y-76173738D02*
X151858571Y-76126119D01*
X151858571Y-76126119D02*
X151668095Y-76126119D01*
X151668095Y-76126119D02*
X151572857Y-76173738D01*
X151572857Y-76173738D02*
X151525238Y-76221357D01*
X151525238Y-76221357D02*
X151477619Y-76316595D01*
X151477619Y-76316595D02*
X151477619Y-76554690D01*
X151477619Y-76554690D02*
X151525238Y-76649928D01*
X151525238Y-76649928D02*
X151572857Y-76697547D01*
X151572857Y-76697547D02*
X151668095Y-76745166D01*
X151668095Y-76745166D02*
X151858571Y-76745166D01*
X151858571Y-76745166D02*
X151953809Y-76697547D01*
X151953809Y-76697547D02*
X152001428Y-76649928D01*
X152001428Y-76649928D02*
X152049047Y-76554690D01*
X152620476Y-76554690D02*
X152525238Y-76507071D01*
X152525238Y-76507071D02*
X152477619Y-76459452D01*
X152477619Y-76459452D02*
X152430000Y-76364214D01*
X152430000Y-76364214D02*
X152430000Y-76316595D01*
X152430000Y-76316595D02*
X152477619Y-76221357D01*
X152477619Y-76221357D02*
X152525238Y-76173738D01*
X152525238Y-76173738D02*
X152620476Y-76126119D01*
X152620476Y-76126119D02*
X152810952Y-76126119D01*
X152810952Y-76126119D02*
X152906190Y-76173738D01*
X152906190Y-76173738D02*
X152953809Y-76221357D01*
X152953809Y-76221357D02*
X153001428Y-76316595D01*
X153001428Y-76316595D02*
X153001428Y-76364214D01*
X153001428Y-76364214D02*
X152953809Y-76459452D01*
X152953809Y-76459452D02*
X152906190Y-76507071D01*
X152906190Y-76507071D02*
X152810952Y-76554690D01*
X152810952Y-76554690D02*
X152620476Y-76554690D01*
X152620476Y-76554690D02*
X152525238Y-76602309D01*
X152525238Y-76602309D02*
X152477619Y-76649928D01*
X152477619Y-76649928D02*
X152430000Y-76745166D01*
X152430000Y-76745166D02*
X152430000Y-76935642D01*
X152430000Y-76935642D02*
X152477619Y-77030880D01*
X152477619Y-77030880D02*
X152525238Y-77078500D01*
X152525238Y-77078500D02*
X152620476Y-77126119D01*
X152620476Y-77126119D02*
X152810952Y-77126119D01*
X152810952Y-77126119D02*
X152906190Y-77078500D01*
X152906190Y-77078500D02*
X152953809Y-77030880D01*
X152953809Y-77030880D02*
X153001428Y-76935642D01*
X153001428Y-76935642D02*
X153001428Y-76745166D01*
X153001428Y-76745166D02*
X152953809Y-76649928D01*
X152953809Y-76649928D02*
X152906190Y-76602309D01*
X152906190Y-76602309D02*
X152810952Y-76554690D01*
X153430000Y-76745166D02*
X154191905Y-76745166D01*
X155191904Y-77126119D02*
X154620476Y-77126119D01*
X154906190Y-77126119D02*
X154906190Y-76126119D01*
X154906190Y-76126119D02*
X154810952Y-76268976D01*
X154810952Y-76268976D02*
X154715714Y-76364214D01*
X154715714Y-76364214D02*
X154620476Y-76411833D01*
X155810952Y-76649928D02*
X155810952Y-77126119D01*
X155477619Y-76126119D02*
X155810952Y-76649928D01*
X155810952Y-76649928D02*
X156144285Y-76126119D01*
X157049047Y-77126119D02*
X156715714Y-76649928D01*
X156477619Y-77126119D02*
X156477619Y-76126119D01*
X156477619Y-76126119D02*
X156858571Y-76126119D01*
X156858571Y-76126119D02*
X156953809Y-76173738D01*
X156953809Y-76173738D02*
X157001428Y-76221357D01*
X157001428Y-76221357D02*
X157049047Y-76316595D01*
X157049047Y-76316595D02*
X157049047Y-76459452D01*
X157049047Y-76459452D02*
X157001428Y-76554690D01*
X157001428Y-76554690D02*
X156953809Y-76602309D01*
X156953809Y-76602309D02*
X156858571Y-76649928D01*
X156858571Y-76649928D02*
X156477619Y-76649928D01*
X157477619Y-77126119D02*
X157477619Y-76126119D01*
X157477619Y-76126119D02*
X157715714Y-76126119D01*
X157715714Y-76126119D02*
X157858571Y-76173738D01*
X157858571Y-76173738D02*
X157953809Y-76268976D01*
X157953809Y-76268976D02*
X158001428Y-76364214D01*
X158001428Y-76364214D02*
X158049047Y-76554690D01*
X158049047Y-76554690D02*
X158049047Y-76697547D01*
X158049047Y-76697547D02*
X158001428Y-76888023D01*
X158001428Y-76888023D02*
X157953809Y-76983261D01*
X157953809Y-76983261D02*
X157858571Y-77078500D01*
X157858571Y-77078500D02*
X157715714Y-77126119D01*
X157715714Y-77126119D02*
X157477619Y-77126119D01*
X158382381Y-76126119D02*
X159049047Y-76126119D01*
X159049047Y-76126119D02*
X158382381Y-77126119D01*
X158382381Y-77126119D02*
X159049047Y-77126119D01*
X130084819Y-85166666D02*
X129608628Y-85499999D01*
X130084819Y-85738094D02*
X129084819Y-85738094D01*
X129084819Y-85738094D02*
X129084819Y-85357142D01*
X129084819Y-85357142D02*
X129132438Y-85261904D01*
X129132438Y-85261904D02*
X129180057Y-85214285D01*
X129180057Y-85214285D02*
X129275295Y-85166666D01*
X129275295Y-85166666D02*
X129418152Y-85166666D01*
X129418152Y-85166666D02*
X129513390Y-85214285D01*
X129513390Y-85214285D02*
X129561009Y-85261904D01*
X129561009Y-85261904D02*
X129608628Y-85357142D01*
X129608628Y-85357142D02*
X129608628Y-85738094D01*
X129180057Y-84785713D02*
X129132438Y-84738094D01*
X129132438Y-84738094D02*
X129084819Y-84642856D01*
X129084819Y-84642856D02*
X129084819Y-84404761D01*
X129084819Y-84404761D02*
X129132438Y-84309523D01*
X129132438Y-84309523D02*
X129180057Y-84261904D01*
X129180057Y-84261904D02*
X129275295Y-84214285D01*
X129275295Y-84214285D02*
X129370533Y-84214285D01*
X129370533Y-84214285D02*
X129513390Y-84261904D01*
X129513390Y-84261904D02*
X130084819Y-84833332D01*
X130084819Y-84833332D02*
X130084819Y-84214285D01*
X154833333Y-79584819D02*
X154500000Y-79108628D01*
X154261905Y-79584819D02*
X154261905Y-78584819D01*
X154261905Y-78584819D02*
X154642857Y-78584819D01*
X154642857Y-78584819D02*
X154738095Y-78632438D01*
X154738095Y-78632438D02*
X154785714Y-78680057D01*
X154785714Y-78680057D02*
X154833333Y-78775295D01*
X154833333Y-78775295D02*
X154833333Y-78918152D01*
X154833333Y-78918152D02*
X154785714Y-79013390D01*
X154785714Y-79013390D02*
X154738095Y-79061009D01*
X154738095Y-79061009D02*
X154642857Y-79108628D01*
X154642857Y-79108628D02*
X154261905Y-79108628D01*
X155738095Y-78584819D02*
X155261905Y-78584819D01*
X155261905Y-78584819D02*
X155214286Y-79061009D01*
X155214286Y-79061009D02*
X155261905Y-79013390D01*
X155261905Y-79013390D02*
X155357143Y-78965771D01*
X155357143Y-78965771D02*
X155595238Y-78965771D01*
X155595238Y-78965771D02*
X155690476Y-79013390D01*
X155690476Y-79013390D02*
X155738095Y-79061009D01*
X155738095Y-79061009D02*
X155785714Y-79156247D01*
X155785714Y-79156247D02*
X155785714Y-79394342D01*
X155785714Y-79394342D02*
X155738095Y-79489580D01*
X155738095Y-79489580D02*
X155690476Y-79537200D01*
X155690476Y-79537200D02*
X155595238Y-79584819D01*
X155595238Y-79584819D02*
X155357143Y-79584819D01*
X155357143Y-79584819D02*
X155261905Y-79537200D01*
X155261905Y-79537200D02*
X155214286Y-79489580D01*
X172666766Y-83894819D02*
X172666766Y-84609104D01*
X172666766Y-84609104D02*
X172619147Y-84751961D01*
X172619147Y-84751961D02*
X172523909Y-84847200D01*
X172523909Y-84847200D02*
X172381052Y-84894819D01*
X172381052Y-84894819D02*
X172285814Y-84894819D01*
X173095338Y-83990057D02*
X173142957Y-83942438D01*
X173142957Y-83942438D02*
X173238195Y-83894819D01*
X173238195Y-83894819D02*
X173476290Y-83894819D01*
X173476290Y-83894819D02*
X173571528Y-83942438D01*
X173571528Y-83942438D02*
X173619147Y-83990057D01*
X173619147Y-83990057D02*
X173666766Y-84085295D01*
X173666766Y-84085295D02*
X173666766Y-84180533D01*
X173666766Y-84180533D02*
X173619147Y-84323390D01*
X173619147Y-84323390D02*
X173047719Y-84894819D01*
X173047719Y-84894819D02*
X173666766Y-84894819D01*
X167690575Y-88919580D02*
X167642956Y-88967200D01*
X167642956Y-88967200D02*
X167500099Y-89014819D01*
X167500099Y-89014819D02*
X167404861Y-89014819D01*
X167404861Y-89014819D02*
X167262004Y-88967200D01*
X167262004Y-88967200D02*
X167166766Y-88871961D01*
X167166766Y-88871961D02*
X167119147Y-88776723D01*
X167119147Y-88776723D02*
X167071528Y-88586247D01*
X167071528Y-88586247D02*
X167071528Y-88443390D01*
X167071528Y-88443390D02*
X167119147Y-88252914D01*
X167119147Y-88252914D02*
X167166766Y-88157676D01*
X167166766Y-88157676D02*
X167262004Y-88062438D01*
X167262004Y-88062438D02*
X167404861Y-88014819D01*
X167404861Y-88014819D02*
X167500099Y-88014819D01*
X167500099Y-88014819D02*
X167642956Y-88062438D01*
X167642956Y-88062438D02*
X167690575Y-88110057D01*
X168262004Y-89014819D02*
X168166766Y-88967200D01*
X168166766Y-88967200D02*
X168119147Y-88919580D01*
X168119147Y-88919580D02*
X168071528Y-88824342D01*
X168071528Y-88824342D02*
X168071528Y-88538628D01*
X168071528Y-88538628D02*
X168119147Y-88443390D01*
X168119147Y-88443390D02*
X168166766Y-88395771D01*
X168166766Y-88395771D02*
X168262004Y-88348152D01*
X168262004Y-88348152D02*
X168404861Y-88348152D01*
X168404861Y-88348152D02*
X168500099Y-88395771D01*
X168500099Y-88395771D02*
X168547718Y-88443390D01*
X168547718Y-88443390D02*
X168595337Y-88538628D01*
X168595337Y-88538628D02*
X168595337Y-88824342D01*
X168595337Y-88824342D02*
X168547718Y-88919580D01*
X168547718Y-88919580D02*
X168500099Y-88967200D01*
X168500099Y-88967200D02*
X168404861Y-89014819D01*
X168404861Y-89014819D02*
X168262004Y-89014819D01*
X169023909Y-88348152D02*
X169023909Y-89014819D01*
X169023909Y-88443390D02*
X169071528Y-88395771D01*
X169071528Y-88395771D02*
X169166766Y-88348152D01*
X169166766Y-88348152D02*
X169309623Y-88348152D01*
X169309623Y-88348152D02*
X169404861Y-88395771D01*
X169404861Y-88395771D02*
X169452480Y-88491009D01*
X169452480Y-88491009D02*
X169452480Y-89014819D01*
X169928671Y-88348152D02*
X169928671Y-89014819D01*
X169928671Y-88443390D02*
X169976290Y-88395771D01*
X169976290Y-88395771D02*
X170071528Y-88348152D01*
X170071528Y-88348152D02*
X170214385Y-88348152D01*
X170214385Y-88348152D02*
X170309623Y-88395771D01*
X170309623Y-88395771D02*
X170357242Y-88491009D01*
X170357242Y-88491009D02*
X170357242Y-89014819D01*
X170595338Y-89110057D02*
X171357242Y-89110057D01*
X171785814Y-88014819D02*
X171881052Y-88014819D01*
X171881052Y-88014819D02*
X171976290Y-88062438D01*
X171976290Y-88062438D02*
X172023909Y-88110057D01*
X172023909Y-88110057D02*
X172071528Y-88205295D01*
X172071528Y-88205295D02*
X172119147Y-88395771D01*
X172119147Y-88395771D02*
X172119147Y-88633866D01*
X172119147Y-88633866D02*
X172071528Y-88824342D01*
X172071528Y-88824342D02*
X172023909Y-88919580D01*
X172023909Y-88919580D02*
X171976290Y-88967200D01*
X171976290Y-88967200D02*
X171881052Y-89014819D01*
X171881052Y-89014819D02*
X171785814Y-89014819D01*
X171785814Y-89014819D02*
X171690576Y-88967200D01*
X171690576Y-88967200D02*
X171642957Y-88919580D01*
X171642957Y-88919580D02*
X171595338Y-88824342D01*
X171595338Y-88824342D02*
X171547719Y-88633866D01*
X171547719Y-88633866D02*
X171547719Y-88395771D01*
X171547719Y-88395771D02*
X171595338Y-88205295D01*
X171595338Y-88205295D02*
X171642957Y-88110057D01*
X171642957Y-88110057D02*
X171690576Y-88062438D01*
X171690576Y-88062438D02*
X171785814Y-88014819D01*
X173071528Y-89014819D02*
X172500100Y-89014819D01*
X172785814Y-89014819D02*
X172785814Y-88014819D01*
X172785814Y-88014819D02*
X172690576Y-88157676D01*
X172690576Y-88157676D02*
X172595338Y-88252914D01*
X172595338Y-88252914D02*
X172500100Y-88300533D01*
X173404862Y-89014819D02*
X173928671Y-88348152D01*
X173404862Y-88348152D02*
X173928671Y-89014819D01*
X174500100Y-88014819D02*
X174595338Y-88014819D01*
X174595338Y-88014819D02*
X174690576Y-88062438D01*
X174690576Y-88062438D02*
X174738195Y-88110057D01*
X174738195Y-88110057D02*
X174785814Y-88205295D01*
X174785814Y-88205295D02*
X174833433Y-88395771D01*
X174833433Y-88395771D02*
X174833433Y-88633866D01*
X174833433Y-88633866D02*
X174785814Y-88824342D01*
X174785814Y-88824342D02*
X174738195Y-88919580D01*
X174738195Y-88919580D02*
X174690576Y-88967200D01*
X174690576Y-88967200D02*
X174595338Y-89014819D01*
X174595338Y-89014819D02*
X174500100Y-89014819D01*
X174500100Y-89014819D02*
X174404862Y-88967200D01*
X174404862Y-88967200D02*
X174357243Y-88919580D01*
X174357243Y-88919580D02*
X174309624Y-88824342D01*
X174309624Y-88824342D02*
X174262005Y-88633866D01*
X174262005Y-88633866D02*
X174262005Y-88395771D01*
X174262005Y-88395771D02*
X174309624Y-88205295D01*
X174309624Y-88205295D02*
X174357243Y-88110057D01*
X174357243Y-88110057D02*
X174404862Y-88062438D01*
X174404862Y-88062438D02*
X174500100Y-88014819D01*
X175214386Y-88110057D02*
X175262005Y-88062438D01*
X175262005Y-88062438D02*
X175357243Y-88014819D01*
X175357243Y-88014819D02*
X175595338Y-88014819D01*
X175595338Y-88014819D02*
X175690576Y-88062438D01*
X175690576Y-88062438D02*
X175738195Y-88110057D01*
X175738195Y-88110057D02*
X175785814Y-88205295D01*
X175785814Y-88205295D02*
X175785814Y-88300533D01*
X175785814Y-88300533D02*
X175738195Y-88443390D01*
X175738195Y-88443390D02*
X175166767Y-89014819D01*
X175166767Y-89014819D02*
X175785814Y-89014819D01*
X175976291Y-89110057D02*
X176738195Y-89110057D01*
X176976291Y-89014819D02*
X176976291Y-88014819D01*
X176976291Y-88014819D02*
X177357243Y-88014819D01*
X177357243Y-88014819D02*
X177452481Y-88062438D01*
X177452481Y-88062438D02*
X177500100Y-88110057D01*
X177500100Y-88110057D02*
X177547719Y-88205295D01*
X177547719Y-88205295D02*
X177547719Y-88348152D01*
X177547719Y-88348152D02*
X177500100Y-88443390D01*
X177500100Y-88443390D02*
X177452481Y-88491009D01*
X177452481Y-88491009D02*
X177357243Y-88538628D01*
X177357243Y-88538628D02*
X176976291Y-88538628D01*
X177976291Y-89014819D02*
X177976291Y-88348152D01*
X177976291Y-88014819D02*
X177928672Y-88062438D01*
X177928672Y-88062438D02*
X177976291Y-88110057D01*
X177976291Y-88110057D02*
X178023910Y-88062438D01*
X178023910Y-88062438D02*
X177976291Y-88014819D01*
X177976291Y-88014819D02*
X177976291Y-88110057D01*
X178452481Y-88348152D02*
X178452481Y-89014819D01*
X178452481Y-88443390D02*
X178500100Y-88395771D01*
X178500100Y-88395771D02*
X178595338Y-88348152D01*
X178595338Y-88348152D02*
X178738195Y-88348152D01*
X178738195Y-88348152D02*
X178833433Y-88395771D01*
X178833433Y-88395771D02*
X178881052Y-88491009D01*
X178881052Y-88491009D02*
X178881052Y-89014819D01*
D12*
X183304318Y-76923332D02*
X184211461Y-76923332D01*
X184211461Y-76923332D02*
X184392889Y-76983809D01*
X184392889Y-76983809D02*
X184513842Y-77104761D01*
X184513842Y-77104761D02*
X184574318Y-77286190D01*
X184574318Y-77286190D02*
X184574318Y-77407142D01*
X184574318Y-75653332D02*
X184574318Y-76379047D01*
X184574318Y-76016190D02*
X183304318Y-76016190D01*
X183304318Y-76016190D02*
X183485746Y-76137142D01*
X183485746Y-76137142D02*
X183606699Y-76258094D01*
X183606699Y-76258094D02*
X183667175Y-76379047D01*
D11*
X126934819Y-97679394D02*
X125934819Y-97679394D01*
X125934819Y-97679394D02*
X125934819Y-97441299D01*
X125934819Y-97441299D02*
X125982438Y-97298442D01*
X125982438Y-97298442D02*
X126077676Y-97203204D01*
X126077676Y-97203204D02*
X126172914Y-97155585D01*
X126172914Y-97155585D02*
X126363390Y-97107966D01*
X126363390Y-97107966D02*
X126506247Y-97107966D01*
X126506247Y-97107966D02*
X126696723Y-97155585D01*
X126696723Y-97155585D02*
X126791961Y-97203204D01*
X126791961Y-97203204D02*
X126887200Y-97298442D01*
X126887200Y-97298442D02*
X126934819Y-97441299D01*
X126934819Y-97441299D02*
X126934819Y-97679394D01*
X126934819Y-96155585D02*
X126934819Y-96727013D01*
X126934819Y-96441299D02*
X125934819Y-96441299D01*
X125934819Y-96441299D02*
X126077676Y-96536537D01*
X126077676Y-96536537D02*
X126172914Y-96631775D01*
X126172914Y-96631775D02*
X126220533Y-96727013D01*
X134927200Y-99131775D02*
X134974819Y-98988918D01*
X134974819Y-98988918D02*
X134974819Y-98750823D01*
X134974819Y-98750823D02*
X134927200Y-98655585D01*
X134927200Y-98655585D02*
X134879580Y-98607966D01*
X134879580Y-98607966D02*
X134784342Y-98560347D01*
X134784342Y-98560347D02*
X134689104Y-98560347D01*
X134689104Y-98560347D02*
X134593866Y-98607966D01*
X134593866Y-98607966D02*
X134546247Y-98655585D01*
X134546247Y-98655585D02*
X134498628Y-98750823D01*
X134498628Y-98750823D02*
X134451009Y-98941299D01*
X134451009Y-98941299D02*
X134403390Y-99036537D01*
X134403390Y-99036537D02*
X134355771Y-99084156D01*
X134355771Y-99084156D02*
X134260533Y-99131775D01*
X134260533Y-99131775D02*
X134165295Y-99131775D01*
X134165295Y-99131775D02*
X134070057Y-99084156D01*
X134070057Y-99084156D02*
X134022438Y-99036537D01*
X134022438Y-99036537D02*
X133974819Y-98941299D01*
X133974819Y-98941299D02*
X133974819Y-98703204D01*
X133974819Y-98703204D02*
X134022438Y-98560347D01*
X133974819Y-97655585D02*
X133974819Y-98131775D01*
X133974819Y-98131775D02*
X134451009Y-98179394D01*
X134451009Y-98179394D02*
X134403390Y-98131775D01*
X134403390Y-98131775D02*
X134355771Y-98036537D01*
X134355771Y-98036537D02*
X134355771Y-97798442D01*
X134355771Y-97798442D02*
X134403390Y-97703204D01*
X134403390Y-97703204D02*
X134451009Y-97655585D01*
X134451009Y-97655585D02*
X134546247Y-97607966D01*
X134546247Y-97607966D02*
X134784342Y-97607966D01*
X134784342Y-97607966D02*
X134879580Y-97655585D01*
X134879580Y-97655585D02*
X134927200Y-97703204D01*
X134927200Y-97703204D02*
X134974819Y-97798442D01*
X134974819Y-97798442D02*
X134974819Y-98036537D01*
X134974819Y-98036537D02*
X134927200Y-98131775D01*
X134927200Y-98131775D02*
X134879580Y-98179394D01*
X134974819Y-97131775D02*
X134974819Y-96941299D01*
X134974819Y-96941299D02*
X134927200Y-96846061D01*
X134927200Y-96846061D02*
X134879580Y-96798442D01*
X134879580Y-96798442D02*
X134736723Y-96703204D01*
X134736723Y-96703204D02*
X134546247Y-96655585D01*
X134546247Y-96655585D02*
X134165295Y-96655585D01*
X134165295Y-96655585D02*
X134070057Y-96703204D01*
X134070057Y-96703204D02*
X134022438Y-96750823D01*
X134022438Y-96750823D02*
X133974819Y-96846061D01*
X133974819Y-96846061D02*
X133974819Y-97036537D01*
X133974819Y-97036537D02*
X134022438Y-97131775D01*
X134022438Y-97131775D02*
X134070057Y-97179394D01*
X134070057Y-97179394D02*
X134165295Y-97227013D01*
X134165295Y-97227013D02*
X134403390Y-97227013D01*
X134403390Y-97227013D02*
X134498628Y-97179394D01*
X134498628Y-97179394D02*
X134546247Y-97131775D01*
X134546247Y-97131775D02*
X134593866Y-97036537D01*
X134593866Y-97036537D02*
X134593866Y-96846061D01*
X134593866Y-96846061D02*
X134546247Y-96750823D01*
X134546247Y-96750823D02*
X134498628Y-96703204D01*
X134498628Y-96703204D02*
X134403390Y-96655585D01*
X133974819Y-96322251D02*
X133974819Y-95655585D01*
X133974819Y-95655585D02*
X134974819Y-96084156D01*
X134974819Y-94750823D02*
X134974819Y-95322251D01*
X134974819Y-95036537D02*
X133974819Y-95036537D01*
X133974819Y-95036537D02*
X134117676Y-95131775D01*
X134117676Y-95131775D02*
X134212914Y-95227013D01*
X134212914Y-95227013D02*
X134260533Y-95322251D01*
X126934819Y-97679394D02*
X125934819Y-97679394D01*
X125934819Y-97679394D02*
X125934819Y-97441299D01*
X125934819Y-97441299D02*
X125982438Y-97298442D01*
X125982438Y-97298442D02*
X126077676Y-97203204D01*
X126077676Y-97203204D02*
X126172914Y-97155585D01*
X126172914Y-97155585D02*
X126363390Y-97107966D01*
X126363390Y-97107966D02*
X126506247Y-97107966D01*
X126506247Y-97107966D02*
X126696723Y-97155585D01*
X126696723Y-97155585D02*
X126791961Y-97203204D01*
X126791961Y-97203204D02*
X126887200Y-97298442D01*
X126887200Y-97298442D02*
X126934819Y-97441299D01*
X126934819Y-97441299D02*
X126934819Y-97679394D01*
X126934819Y-96155585D02*
X126934819Y-96727013D01*
X126934819Y-96441299D02*
X125934819Y-96441299D01*
X125934819Y-96441299D02*
X126077676Y-96536537D01*
X126077676Y-96536537D02*
X126172914Y-96631775D01*
X126172914Y-96631775D02*
X126220533Y-96727013D01*
X128738095Y-65454819D02*
X128738095Y-64454819D01*
X128738095Y-64931009D02*
X129309523Y-64931009D01*
X129309523Y-65454819D02*
X129309523Y-64454819D01*
X130309523Y-65454819D02*
X129738095Y-65454819D01*
X130023809Y-65454819D02*
X130023809Y-64454819D01*
X130023809Y-64454819D02*
X129928571Y-64597676D01*
X129928571Y-64597676D02*
X129833333Y-64692914D01*
X129833333Y-64692914D02*
X129738095Y-64740533D01*
D12*
X141104047Y-71771570D02*
X140983095Y-71711094D01*
X140983095Y-71711094D02*
X140862142Y-71590142D01*
X140862142Y-71590142D02*
X140680714Y-71408713D01*
X140680714Y-71408713D02*
X140559761Y-71348237D01*
X140559761Y-71348237D02*
X140438809Y-71348237D01*
X140499285Y-71650618D02*
X140378333Y-71590142D01*
X140378333Y-71590142D02*
X140257380Y-71469189D01*
X140257380Y-71469189D02*
X140196904Y-71227284D01*
X140196904Y-71227284D02*
X140196904Y-70803951D01*
X140196904Y-70803951D02*
X140257380Y-70562046D01*
X140257380Y-70562046D02*
X140378333Y-70441094D01*
X140378333Y-70441094D02*
X140499285Y-70380618D01*
X140499285Y-70380618D02*
X140741190Y-70380618D01*
X140741190Y-70380618D02*
X140862142Y-70441094D01*
X140862142Y-70441094D02*
X140983095Y-70562046D01*
X140983095Y-70562046D02*
X141043571Y-70803951D01*
X141043571Y-70803951D02*
X141043571Y-71227284D01*
X141043571Y-71227284D02*
X140983095Y-71469189D01*
X140983095Y-71469189D02*
X140862142Y-71590142D01*
X140862142Y-71590142D02*
X140741190Y-71650618D01*
X140741190Y-71650618D02*
X140499285Y-71650618D01*
X142253095Y-71650618D02*
X141527380Y-71650618D01*
X141890237Y-71650618D02*
X141890237Y-70380618D01*
X141890237Y-70380618D02*
X141769285Y-70562046D01*
X141769285Y-70562046D02*
X141648333Y-70682999D01*
X141648333Y-70682999D02*
X141527380Y-70743475D01*
X141104047Y-71771570D02*
X140983095Y-71711094D01*
X140983095Y-71711094D02*
X140862142Y-71590142D01*
X140862142Y-71590142D02*
X140680714Y-71408713D01*
X140680714Y-71408713D02*
X140559761Y-71348237D01*
X140559761Y-71348237D02*
X140438809Y-71348237D01*
X140499285Y-71650618D02*
X140378333Y-71590142D01*
X140378333Y-71590142D02*
X140257380Y-71469189D01*
X140257380Y-71469189D02*
X140196904Y-71227284D01*
X140196904Y-71227284D02*
X140196904Y-70803951D01*
X140196904Y-70803951D02*
X140257380Y-70562046D01*
X140257380Y-70562046D02*
X140378333Y-70441094D01*
X140378333Y-70441094D02*
X140499285Y-70380618D01*
X140499285Y-70380618D02*
X140741190Y-70380618D01*
X140741190Y-70380618D02*
X140862142Y-70441094D01*
X140862142Y-70441094D02*
X140983095Y-70562046D01*
X140983095Y-70562046D02*
X141043571Y-70803951D01*
X141043571Y-70803951D02*
X141043571Y-71227284D01*
X141043571Y-71227284D02*
X140983095Y-71469189D01*
X140983095Y-71469189D02*
X140862142Y-71590142D01*
X140862142Y-71590142D02*
X140741190Y-71650618D01*
X140741190Y-71650618D02*
X140499285Y-71650618D01*
X142253095Y-71650618D02*
X141527380Y-71650618D01*
X141890237Y-71650618D02*
X141890237Y-70380618D01*
X141890237Y-70380618D02*
X141769285Y-70562046D01*
X141769285Y-70562046D02*
X141648333Y-70682999D01*
X141648333Y-70682999D02*
X141527380Y-70743475D01*
D11*
X183238095Y-101454819D02*
X183238095Y-100454819D01*
X183238095Y-100931009D02*
X183809523Y-100931009D01*
X183809523Y-101454819D02*
X183809523Y-100454819D01*
X184714285Y-100788152D02*
X184714285Y-101454819D01*
X184476190Y-100407200D02*
X184238095Y-101121485D01*
X184238095Y-101121485D02*
X184857142Y-101121485D01*
D12*
X141154047Y-99366570D02*
X141033095Y-99306094D01*
X141033095Y-99306094D02*
X140912142Y-99185142D01*
X140912142Y-99185142D02*
X140730714Y-99003713D01*
X140730714Y-99003713D02*
X140609761Y-98943237D01*
X140609761Y-98943237D02*
X140488809Y-98943237D01*
X140549285Y-99245618D02*
X140428333Y-99185142D01*
X140428333Y-99185142D02*
X140307380Y-99064189D01*
X140307380Y-99064189D02*
X140246904Y-98822284D01*
X140246904Y-98822284D02*
X140246904Y-98398951D01*
X140246904Y-98398951D02*
X140307380Y-98157046D01*
X140307380Y-98157046D02*
X140428333Y-98036094D01*
X140428333Y-98036094D02*
X140549285Y-97975618D01*
X140549285Y-97975618D02*
X140791190Y-97975618D01*
X140791190Y-97975618D02*
X140912142Y-98036094D01*
X140912142Y-98036094D02*
X141033095Y-98157046D01*
X141033095Y-98157046D02*
X141093571Y-98398951D01*
X141093571Y-98398951D02*
X141093571Y-98822284D01*
X141093571Y-98822284D02*
X141033095Y-99064189D01*
X141033095Y-99064189D02*
X140912142Y-99185142D01*
X140912142Y-99185142D02*
X140791190Y-99245618D01*
X140791190Y-99245618D02*
X140549285Y-99245618D01*
X141577380Y-98096570D02*
X141637856Y-98036094D01*
X141637856Y-98036094D02*
X141758809Y-97975618D01*
X141758809Y-97975618D02*
X142061190Y-97975618D01*
X142061190Y-97975618D02*
X142182142Y-98036094D01*
X142182142Y-98036094D02*
X142242618Y-98096570D01*
X142242618Y-98096570D02*
X142303095Y-98217522D01*
X142303095Y-98217522D02*
X142303095Y-98338475D01*
X142303095Y-98338475D02*
X142242618Y-98519903D01*
X142242618Y-98519903D02*
X141516904Y-99245618D01*
X141516904Y-99245618D02*
X142303095Y-99245618D01*
X141154047Y-99366570D02*
X141033095Y-99306094D01*
X141033095Y-99306094D02*
X140912142Y-99185142D01*
X140912142Y-99185142D02*
X140730714Y-99003713D01*
X140730714Y-99003713D02*
X140609761Y-98943237D01*
X140609761Y-98943237D02*
X140488809Y-98943237D01*
X140549285Y-99245618D02*
X140428333Y-99185142D01*
X140428333Y-99185142D02*
X140307380Y-99064189D01*
X140307380Y-99064189D02*
X140246904Y-98822284D01*
X140246904Y-98822284D02*
X140246904Y-98398951D01*
X140246904Y-98398951D02*
X140307380Y-98157046D01*
X140307380Y-98157046D02*
X140428333Y-98036094D01*
X140428333Y-98036094D02*
X140549285Y-97975618D01*
X140549285Y-97975618D02*
X140791190Y-97975618D01*
X140791190Y-97975618D02*
X140912142Y-98036094D01*
X140912142Y-98036094D02*
X141033095Y-98157046D01*
X141033095Y-98157046D02*
X141093571Y-98398951D01*
X141093571Y-98398951D02*
X141093571Y-98822284D01*
X141093571Y-98822284D02*
X141033095Y-99064189D01*
X141033095Y-99064189D02*
X140912142Y-99185142D01*
X140912142Y-99185142D02*
X140791190Y-99245618D01*
X140791190Y-99245618D02*
X140549285Y-99245618D01*
X141577380Y-98096570D02*
X141637856Y-98036094D01*
X141637856Y-98036094D02*
X141758809Y-97975618D01*
X141758809Y-97975618D02*
X142061190Y-97975618D01*
X142061190Y-97975618D02*
X142182142Y-98036094D01*
X142182142Y-98036094D02*
X142242618Y-98096570D01*
X142242618Y-98096570D02*
X142303095Y-98217522D01*
X142303095Y-98217522D02*
X142303095Y-98338475D01*
X142303095Y-98338475D02*
X142242618Y-98519903D01*
X142242618Y-98519903D02*
X141516904Y-99245618D01*
X141516904Y-99245618D02*
X142303095Y-99245618D01*
D11*
X128738095Y-104954819D02*
X128738095Y-103954819D01*
X128738095Y-104431009D02*
X129309523Y-104431009D01*
X129309523Y-104954819D02*
X129309523Y-103954819D01*
X129690476Y-103954819D02*
X130309523Y-103954819D01*
X130309523Y-103954819D02*
X129976190Y-104335771D01*
X129976190Y-104335771D02*
X130119047Y-104335771D01*
X130119047Y-104335771D02*
X130214285Y-104383390D01*
X130214285Y-104383390D02*
X130261904Y-104431009D01*
X130261904Y-104431009D02*
X130309523Y-104526247D01*
X130309523Y-104526247D02*
X130309523Y-104764342D01*
X130309523Y-104764342D02*
X130261904Y-104859580D01*
X130261904Y-104859580D02*
X130214285Y-104907200D01*
X130214285Y-104907200D02*
X130119047Y-104954819D01*
X130119047Y-104954819D02*
X129833333Y-104954819D01*
X129833333Y-104954819D02*
X129738095Y-104907200D01*
X129738095Y-104907200D02*
X129690476Y-104859580D01*
X179238095Y-64954819D02*
X179238095Y-63954819D01*
X179238095Y-64431009D02*
X179809523Y-64431009D01*
X179809523Y-64954819D02*
X179809523Y-63954819D01*
X180238095Y-64050057D02*
X180285714Y-64002438D01*
X180285714Y-64002438D02*
X180380952Y-63954819D01*
X180380952Y-63954819D02*
X180619047Y-63954819D01*
X180619047Y-63954819D02*
X180714285Y-64002438D01*
X180714285Y-64002438D02*
X180761904Y-64050057D01*
X180761904Y-64050057D02*
X180809523Y-64145295D01*
X180809523Y-64145295D02*
X180809523Y-64240533D01*
X180809523Y-64240533D02*
X180761904Y-64383390D01*
X180761904Y-64383390D02*
X180190476Y-64954819D01*
X180190476Y-64954819D02*
X180809523Y-64954819D01*
X178129610Y-96208819D02*
X178129610Y-95208819D01*
X179177228Y-96113580D02*
X179129609Y-96161200D01*
X179129609Y-96161200D02*
X178986752Y-96208819D01*
X178986752Y-96208819D02*
X178891514Y-96208819D01*
X178891514Y-96208819D02*
X178748657Y-96161200D01*
X178748657Y-96161200D02*
X178653419Y-96065961D01*
X178653419Y-96065961D02*
X178605800Y-95970723D01*
X178605800Y-95970723D02*
X178558181Y-95780247D01*
X178558181Y-95780247D02*
X178558181Y-95637390D01*
X178558181Y-95637390D02*
X178605800Y-95446914D01*
X178605800Y-95446914D02*
X178653419Y-95351676D01*
X178653419Y-95351676D02*
X178748657Y-95256438D01*
X178748657Y-95256438D02*
X178891514Y-95208819D01*
X178891514Y-95208819D02*
X178986752Y-95208819D01*
X178986752Y-95208819D02*
X179129609Y-95256438D01*
X179129609Y-95256438D02*
X179177228Y-95304057D01*
X180129609Y-96208819D02*
X179558181Y-96208819D01*
X179843895Y-96208819D02*
X179843895Y-95208819D01*
X179843895Y-95208819D02*
X179748657Y-95351676D01*
X179748657Y-95351676D02*
X179653419Y-95446914D01*
X179653419Y-95446914D02*
X179558181Y-95494533D01*
X171970181Y-94954819D02*
X172160657Y-94954819D01*
X172160657Y-94954819D02*
X172255895Y-95002438D01*
X172255895Y-95002438D02*
X172351133Y-95097676D01*
X172351133Y-95097676D02*
X172398752Y-95288152D01*
X172398752Y-95288152D02*
X172398752Y-95621485D01*
X172398752Y-95621485D02*
X172351133Y-95811961D01*
X172351133Y-95811961D02*
X172255895Y-95907200D01*
X172255895Y-95907200D02*
X172160657Y-95954819D01*
X172160657Y-95954819D02*
X171970181Y-95954819D01*
X171970181Y-95954819D02*
X171874943Y-95907200D01*
X171874943Y-95907200D02*
X171779705Y-95811961D01*
X171779705Y-95811961D02*
X171732086Y-95621485D01*
X171732086Y-95621485D02*
X171732086Y-95288152D01*
X171732086Y-95288152D02*
X171779705Y-95097676D01*
X171779705Y-95097676D02*
X171874943Y-95002438D01*
X171874943Y-95002438D02*
X171970181Y-94954819D01*
X172827324Y-95954819D02*
X172827324Y-94954819D01*
X172827324Y-94954819D02*
X173208276Y-94954819D01*
X173208276Y-94954819D02*
X173303514Y-95002438D01*
X173303514Y-95002438D02*
X173351133Y-95050057D01*
X173351133Y-95050057D02*
X173398752Y-95145295D01*
X173398752Y-95145295D02*
X173398752Y-95288152D01*
X173398752Y-95288152D02*
X173351133Y-95383390D01*
X173351133Y-95383390D02*
X173303514Y-95431009D01*
X173303514Y-95431009D02*
X173208276Y-95478628D01*
X173208276Y-95478628D02*
X172827324Y-95478628D01*
X173779705Y-95050057D02*
X173827324Y-95002438D01*
X173827324Y-95002438D02*
X173922562Y-94954819D01*
X173922562Y-94954819D02*
X174160657Y-94954819D01*
X174160657Y-94954819D02*
X174255895Y-95002438D01*
X174255895Y-95002438D02*
X174303514Y-95050057D01*
X174303514Y-95050057D02*
X174351133Y-95145295D01*
X174351133Y-95145295D02*
X174351133Y-95240533D01*
X174351133Y-95240533D02*
X174303514Y-95383390D01*
X174303514Y-95383390D02*
X173732086Y-95954819D01*
X173732086Y-95954819D02*
X174351133Y-95954819D01*
X174684467Y-94954819D02*
X175351133Y-94954819D01*
X175351133Y-94954819D02*
X174922562Y-95954819D01*
X134790119Y-73594094D02*
X133790119Y-73594094D01*
X133790119Y-73594094D02*
X133790119Y-73355999D01*
X133790119Y-73355999D02*
X133837738Y-73213142D01*
X133837738Y-73213142D02*
X133932976Y-73117904D01*
X133932976Y-73117904D02*
X134028214Y-73070285D01*
X134028214Y-73070285D02*
X134218690Y-73022666D01*
X134218690Y-73022666D02*
X134361547Y-73022666D01*
X134361547Y-73022666D02*
X134552023Y-73070285D01*
X134552023Y-73070285D02*
X134647261Y-73117904D01*
X134647261Y-73117904D02*
X134742500Y-73213142D01*
X134742500Y-73213142D02*
X134790119Y-73355999D01*
X134790119Y-73355999D02*
X134790119Y-73594094D01*
X133885357Y-72641713D02*
X133837738Y-72594094D01*
X133837738Y-72594094D02*
X133790119Y-72498856D01*
X133790119Y-72498856D02*
X133790119Y-72260761D01*
X133790119Y-72260761D02*
X133837738Y-72165523D01*
X133837738Y-72165523D02*
X133885357Y-72117904D01*
X133885357Y-72117904D02*
X133980595Y-72070285D01*
X133980595Y-72070285D02*
X134075833Y-72070285D01*
X134075833Y-72070285D02*
X134218690Y-72117904D01*
X134218690Y-72117904D02*
X134790119Y-72689332D01*
X134790119Y-72689332D02*
X134790119Y-72070285D01*
X126702500Y-75046475D02*
X126750119Y-74903618D01*
X126750119Y-74903618D02*
X126750119Y-74665523D01*
X126750119Y-74665523D02*
X126702500Y-74570285D01*
X126702500Y-74570285D02*
X126654880Y-74522666D01*
X126654880Y-74522666D02*
X126559642Y-74475047D01*
X126559642Y-74475047D02*
X126464404Y-74475047D01*
X126464404Y-74475047D02*
X126369166Y-74522666D01*
X126369166Y-74522666D02*
X126321547Y-74570285D01*
X126321547Y-74570285D02*
X126273928Y-74665523D01*
X126273928Y-74665523D02*
X126226309Y-74855999D01*
X126226309Y-74855999D02*
X126178690Y-74951237D01*
X126178690Y-74951237D02*
X126131071Y-74998856D01*
X126131071Y-74998856D02*
X126035833Y-75046475D01*
X126035833Y-75046475D02*
X125940595Y-75046475D01*
X125940595Y-75046475D02*
X125845357Y-74998856D01*
X125845357Y-74998856D02*
X125797738Y-74951237D01*
X125797738Y-74951237D02*
X125750119Y-74855999D01*
X125750119Y-74855999D02*
X125750119Y-74617904D01*
X125750119Y-74617904D02*
X125797738Y-74475047D01*
X125750119Y-73570285D02*
X125750119Y-74046475D01*
X125750119Y-74046475D02*
X126226309Y-74094094D01*
X126226309Y-74094094D02*
X126178690Y-74046475D01*
X126178690Y-74046475D02*
X126131071Y-73951237D01*
X126131071Y-73951237D02*
X126131071Y-73713142D01*
X126131071Y-73713142D02*
X126178690Y-73617904D01*
X126178690Y-73617904D02*
X126226309Y-73570285D01*
X126226309Y-73570285D02*
X126321547Y-73522666D01*
X126321547Y-73522666D02*
X126559642Y-73522666D01*
X126559642Y-73522666D02*
X126654880Y-73570285D01*
X126654880Y-73570285D02*
X126702500Y-73617904D01*
X126702500Y-73617904D02*
X126750119Y-73713142D01*
X126750119Y-73713142D02*
X126750119Y-73951237D01*
X126750119Y-73951237D02*
X126702500Y-74046475D01*
X126702500Y-74046475D02*
X126654880Y-74094094D01*
X126750119Y-73046475D02*
X126750119Y-72855999D01*
X126750119Y-72855999D02*
X126702500Y-72760761D01*
X126702500Y-72760761D02*
X126654880Y-72713142D01*
X126654880Y-72713142D02*
X126512023Y-72617904D01*
X126512023Y-72617904D02*
X126321547Y-72570285D01*
X126321547Y-72570285D02*
X125940595Y-72570285D01*
X125940595Y-72570285D02*
X125845357Y-72617904D01*
X125845357Y-72617904D02*
X125797738Y-72665523D01*
X125797738Y-72665523D02*
X125750119Y-72760761D01*
X125750119Y-72760761D02*
X125750119Y-72951237D01*
X125750119Y-72951237D02*
X125797738Y-73046475D01*
X125797738Y-73046475D02*
X125845357Y-73094094D01*
X125845357Y-73094094D02*
X125940595Y-73141713D01*
X125940595Y-73141713D02*
X126178690Y-73141713D01*
X126178690Y-73141713D02*
X126273928Y-73094094D01*
X126273928Y-73094094D02*
X126321547Y-73046475D01*
X126321547Y-73046475D02*
X126369166Y-72951237D01*
X126369166Y-72951237D02*
X126369166Y-72760761D01*
X126369166Y-72760761D02*
X126321547Y-72665523D01*
X126321547Y-72665523D02*
X126273928Y-72617904D01*
X126273928Y-72617904D02*
X126178690Y-72570285D01*
X125750119Y-72236951D02*
X125750119Y-71570285D01*
X125750119Y-71570285D02*
X126750119Y-71998856D01*
X126750119Y-70665523D02*
X126750119Y-71236951D01*
X126750119Y-70951237D02*
X125750119Y-70951237D01*
X125750119Y-70951237D02*
X125892976Y-71046475D01*
X125892976Y-71046475D02*
X125988214Y-71141713D01*
X125988214Y-71141713D02*
X126035833Y-71236951D01*
X134790119Y-73594094D02*
X133790119Y-73594094D01*
X133790119Y-73594094D02*
X133790119Y-73355999D01*
X133790119Y-73355999D02*
X133837738Y-73213142D01*
X133837738Y-73213142D02*
X133932976Y-73117904D01*
X133932976Y-73117904D02*
X134028214Y-73070285D01*
X134028214Y-73070285D02*
X134218690Y-73022666D01*
X134218690Y-73022666D02*
X134361547Y-73022666D01*
X134361547Y-73022666D02*
X134552023Y-73070285D01*
X134552023Y-73070285D02*
X134647261Y-73117904D01*
X134647261Y-73117904D02*
X134742500Y-73213142D01*
X134742500Y-73213142D02*
X134790119Y-73355999D01*
X134790119Y-73355999D02*
X134790119Y-73594094D01*
X133885357Y-72641713D02*
X133837738Y-72594094D01*
X133837738Y-72594094D02*
X133790119Y-72498856D01*
X133790119Y-72498856D02*
X133790119Y-72260761D01*
X133790119Y-72260761D02*
X133837738Y-72165523D01*
X133837738Y-72165523D02*
X133885357Y-72117904D01*
X133885357Y-72117904D02*
X133980595Y-72070285D01*
X133980595Y-72070285D02*
X134075833Y-72070285D01*
X134075833Y-72070285D02*
X134218690Y-72117904D01*
X134218690Y-72117904D02*
X134790119Y-72689332D01*
X134790119Y-72689332D02*
X134790119Y-72070285D01*
X154753333Y-91324819D02*
X154420000Y-90848628D01*
X154181905Y-91324819D02*
X154181905Y-90324819D01*
X154181905Y-90324819D02*
X154562857Y-90324819D01*
X154562857Y-90324819D02*
X154658095Y-90372438D01*
X154658095Y-90372438D02*
X154705714Y-90420057D01*
X154705714Y-90420057D02*
X154753333Y-90515295D01*
X154753333Y-90515295D02*
X154753333Y-90658152D01*
X154753333Y-90658152D02*
X154705714Y-90753390D01*
X154705714Y-90753390D02*
X154658095Y-90801009D01*
X154658095Y-90801009D02*
X154562857Y-90848628D01*
X154562857Y-90848628D02*
X154181905Y-90848628D01*
X155610476Y-90658152D02*
X155610476Y-91324819D01*
X155372381Y-90277200D02*
X155134286Y-90991485D01*
X155134286Y-90991485D02*
X155753333Y-90991485D01*
X141833333Y-86584819D02*
X141500000Y-86108628D01*
X141261905Y-86584819D02*
X141261905Y-85584819D01*
X141261905Y-85584819D02*
X141642857Y-85584819D01*
X141642857Y-85584819D02*
X141738095Y-85632438D01*
X141738095Y-85632438D02*
X141785714Y-85680057D01*
X141785714Y-85680057D02*
X141833333Y-85775295D01*
X141833333Y-85775295D02*
X141833333Y-85918152D01*
X141833333Y-85918152D02*
X141785714Y-86013390D01*
X141785714Y-86013390D02*
X141738095Y-86061009D01*
X141738095Y-86061009D02*
X141642857Y-86108628D01*
X141642857Y-86108628D02*
X141261905Y-86108628D01*
X142690476Y-85584819D02*
X142500000Y-85584819D01*
X142500000Y-85584819D02*
X142404762Y-85632438D01*
X142404762Y-85632438D02*
X142357143Y-85680057D01*
X142357143Y-85680057D02*
X142261905Y-85822914D01*
X142261905Y-85822914D02*
X142214286Y-86013390D01*
X142214286Y-86013390D02*
X142214286Y-86394342D01*
X142214286Y-86394342D02*
X142261905Y-86489580D01*
X142261905Y-86489580D02*
X142309524Y-86537200D01*
X142309524Y-86537200D02*
X142404762Y-86584819D01*
X142404762Y-86584819D02*
X142595238Y-86584819D01*
X142595238Y-86584819D02*
X142690476Y-86537200D01*
X142690476Y-86537200D02*
X142738095Y-86489580D01*
X142738095Y-86489580D02*
X142785714Y-86394342D01*
X142785714Y-86394342D02*
X142785714Y-86156247D01*
X142785714Y-86156247D02*
X142738095Y-86061009D01*
X142738095Y-86061009D02*
X142690476Y-86013390D01*
X142690476Y-86013390D02*
X142595238Y-85965771D01*
X142595238Y-85965771D02*
X142404762Y-85965771D01*
X142404762Y-85965771D02*
X142309524Y-86013390D01*
X142309524Y-86013390D02*
X142261905Y-86061009D01*
X142261905Y-86061009D02*
X142214286Y-86156247D01*
X152238095Y-93976119D02*
X152238095Y-94785642D01*
X152238095Y-94785642D02*
X152285714Y-94880880D01*
X152285714Y-94880880D02*
X152333333Y-94928500D01*
X152333333Y-94928500D02*
X152428571Y-94976119D01*
X152428571Y-94976119D02*
X152619047Y-94976119D01*
X152619047Y-94976119D02*
X152714285Y-94928500D01*
X152714285Y-94928500D02*
X152761904Y-94880880D01*
X152761904Y-94880880D02*
X152809523Y-94785642D01*
X152809523Y-94785642D02*
X152809523Y-93976119D01*
X153238095Y-94071357D02*
X153285714Y-94023738D01*
X153285714Y-94023738D02*
X153380952Y-93976119D01*
X153380952Y-93976119D02*
X153619047Y-93976119D01*
X153619047Y-93976119D02*
X153714285Y-94023738D01*
X153714285Y-94023738D02*
X153761904Y-94071357D01*
X153761904Y-94071357D02*
X153809523Y-94166595D01*
X153809523Y-94166595D02*
X153809523Y-94261833D01*
X153809523Y-94261833D02*
X153761904Y-94404690D01*
X153761904Y-94404690D02*
X153190476Y-94976119D01*
X153190476Y-94976119D02*
X153809523Y-94976119D01*
X146928571Y-101840404D02*
X147404761Y-101840404D01*
X146833333Y-102126119D02*
X147166666Y-101126119D01*
X147166666Y-101126119D02*
X147499999Y-102126119D01*
X147833333Y-102126119D02*
X147833333Y-101126119D01*
X147833333Y-101126119D02*
X148071428Y-101126119D01*
X148071428Y-101126119D02*
X148214285Y-101173738D01*
X148214285Y-101173738D02*
X148309523Y-101268976D01*
X148309523Y-101268976D02*
X148357142Y-101364214D01*
X148357142Y-101364214D02*
X148404761Y-101554690D01*
X148404761Y-101554690D02*
X148404761Y-101697547D01*
X148404761Y-101697547D02*
X148357142Y-101888023D01*
X148357142Y-101888023D02*
X148309523Y-101983261D01*
X148309523Y-101983261D02*
X148214285Y-102078500D01*
X148214285Y-102078500D02*
X148071428Y-102126119D01*
X148071428Y-102126119D02*
X147833333Y-102126119D01*
X148785714Y-101840404D02*
X149261904Y-101840404D01*
X148690476Y-102126119D02*
X149023809Y-101126119D01*
X149023809Y-101126119D02*
X149357142Y-102126119D01*
X150119047Y-101459452D02*
X150119047Y-102126119D01*
X149880952Y-101078500D02*
X149642857Y-101792785D01*
X149642857Y-101792785D02*
X150261904Y-101792785D01*
X150785714Y-101554690D02*
X150690476Y-101507071D01*
X150690476Y-101507071D02*
X150642857Y-101459452D01*
X150642857Y-101459452D02*
X150595238Y-101364214D01*
X150595238Y-101364214D02*
X150595238Y-101316595D01*
X150595238Y-101316595D02*
X150642857Y-101221357D01*
X150642857Y-101221357D02*
X150690476Y-101173738D01*
X150690476Y-101173738D02*
X150785714Y-101126119D01*
X150785714Y-101126119D02*
X150976190Y-101126119D01*
X150976190Y-101126119D02*
X151071428Y-101173738D01*
X151071428Y-101173738D02*
X151119047Y-101221357D01*
X151119047Y-101221357D02*
X151166666Y-101316595D01*
X151166666Y-101316595D02*
X151166666Y-101364214D01*
X151166666Y-101364214D02*
X151119047Y-101459452D01*
X151119047Y-101459452D02*
X151071428Y-101507071D01*
X151071428Y-101507071D02*
X150976190Y-101554690D01*
X150976190Y-101554690D02*
X150785714Y-101554690D01*
X150785714Y-101554690D02*
X150690476Y-101602309D01*
X150690476Y-101602309D02*
X150642857Y-101649928D01*
X150642857Y-101649928D02*
X150595238Y-101745166D01*
X150595238Y-101745166D02*
X150595238Y-101935642D01*
X150595238Y-101935642D02*
X150642857Y-102030880D01*
X150642857Y-102030880D02*
X150690476Y-102078500D01*
X150690476Y-102078500D02*
X150785714Y-102126119D01*
X150785714Y-102126119D02*
X150976190Y-102126119D01*
X150976190Y-102126119D02*
X151071428Y-102078500D01*
X151071428Y-102078500D02*
X151119047Y-102030880D01*
X151119047Y-102030880D02*
X151166666Y-101935642D01*
X151166666Y-101935642D02*
X151166666Y-101745166D01*
X151166666Y-101745166D02*
X151119047Y-101649928D01*
X151119047Y-101649928D02*
X151071428Y-101602309D01*
X151071428Y-101602309D02*
X150976190Y-101554690D01*
X151642857Y-102126119D02*
X151833333Y-102126119D01*
X151833333Y-102126119D02*
X151928571Y-102078500D01*
X151928571Y-102078500D02*
X151976190Y-102030880D01*
X151976190Y-102030880D02*
X152071428Y-101888023D01*
X152071428Y-101888023D02*
X152119047Y-101697547D01*
X152119047Y-101697547D02*
X152119047Y-101316595D01*
X152119047Y-101316595D02*
X152071428Y-101221357D01*
X152071428Y-101221357D02*
X152023809Y-101173738D01*
X152023809Y-101173738D02*
X151928571Y-101126119D01*
X151928571Y-101126119D02*
X151738095Y-101126119D01*
X151738095Y-101126119D02*
X151642857Y-101173738D01*
X151642857Y-101173738D02*
X151595238Y-101221357D01*
X151595238Y-101221357D02*
X151547619Y-101316595D01*
X151547619Y-101316595D02*
X151547619Y-101554690D01*
X151547619Y-101554690D02*
X151595238Y-101649928D01*
X151595238Y-101649928D02*
X151642857Y-101697547D01*
X151642857Y-101697547D02*
X151738095Y-101745166D01*
X151738095Y-101745166D02*
X151928571Y-101745166D01*
X151928571Y-101745166D02*
X152023809Y-101697547D01*
X152023809Y-101697547D02*
X152071428Y-101649928D01*
X152071428Y-101649928D02*
X152119047Y-101554690D01*
X152690476Y-101554690D02*
X152595238Y-101507071D01*
X152595238Y-101507071D02*
X152547619Y-101459452D01*
X152547619Y-101459452D02*
X152500000Y-101364214D01*
X152500000Y-101364214D02*
X152500000Y-101316595D01*
X152500000Y-101316595D02*
X152547619Y-101221357D01*
X152547619Y-101221357D02*
X152595238Y-101173738D01*
X152595238Y-101173738D02*
X152690476Y-101126119D01*
X152690476Y-101126119D02*
X152880952Y-101126119D01*
X152880952Y-101126119D02*
X152976190Y-101173738D01*
X152976190Y-101173738D02*
X153023809Y-101221357D01*
X153023809Y-101221357D02*
X153071428Y-101316595D01*
X153071428Y-101316595D02*
X153071428Y-101364214D01*
X153071428Y-101364214D02*
X153023809Y-101459452D01*
X153023809Y-101459452D02*
X152976190Y-101507071D01*
X152976190Y-101507071D02*
X152880952Y-101554690D01*
X152880952Y-101554690D02*
X152690476Y-101554690D01*
X152690476Y-101554690D02*
X152595238Y-101602309D01*
X152595238Y-101602309D02*
X152547619Y-101649928D01*
X152547619Y-101649928D02*
X152500000Y-101745166D01*
X152500000Y-101745166D02*
X152500000Y-101935642D01*
X152500000Y-101935642D02*
X152547619Y-102030880D01*
X152547619Y-102030880D02*
X152595238Y-102078500D01*
X152595238Y-102078500D02*
X152690476Y-102126119D01*
X152690476Y-102126119D02*
X152880952Y-102126119D01*
X152880952Y-102126119D02*
X152976190Y-102078500D01*
X152976190Y-102078500D02*
X153023809Y-102030880D01*
X153023809Y-102030880D02*
X153071428Y-101935642D01*
X153071428Y-101935642D02*
X153071428Y-101745166D01*
X153071428Y-101745166D02*
X153023809Y-101649928D01*
X153023809Y-101649928D02*
X152976190Y-101602309D01*
X152976190Y-101602309D02*
X152880952Y-101554690D01*
X153500000Y-101745166D02*
X154261905Y-101745166D01*
X155261904Y-102126119D02*
X154690476Y-102126119D01*
X154976190Y-102126119D02*
X154976190Y-101126119D01*
X154976190Y-101126119D02*
X154880952Y-101268976D01*
X154880952Y-101268976D02*
X154785714Y-101364214D01*
X154785714Y-101364214D02*
X154690476Y-101411833D01*
X155880952Y-101649928D02*
X155880952Y-102126119D01*
X155547619Y-101126119D02*
X155880952Y-101649928D01*
X155880952Y-101649928D02*
X156214285Y-101126119D01*
X157119047Y-102126119D02*
X156785714Y-101649928D01*
X156547619Y-102126119D02*
X156547619Y-101126119D01*
X156547619Y-101126119D02*
X156928571Y-101126119D01*
X156928571Y-101126119D02*
X157023809Y-101173738D01*
X157023809Y-101173738D02*
X157071428Y-101221357D01*
X157071428Y-101221357D02*
X157119047Y-101316595D01*
X157119047Y-101316595D02*
X157119047Y-101459452D01*
X157119047Y-101459452D02*
X157071428Y-101554690D01*
X157071428Y-101554690D02*
X157023809Y-101602309D01*
X157023809Y-101602309D02*
X156928571Y-101649928D01*
X156928571Y-101649928D02*
X156547619Y-101649928D01*
X157547619Y-102126119D02*
X157547619Y-101126119D01*
X157547619Y-101126119D02*
X157785714Y-101126119D01*
X157785714Y-101126119D02*
X157928571Y-101173738D01*
X157928571Y-101173738D02*
X158023809Y-101268976D01*
X158023809Y-101268976D02*
X158071428Y-101364214D01*
X158071428Y-101364214D02*
X158119047Y-101554690D01*
X158119047Y-101554690D02*
X158119047Y-101697547D01*
X158119047Y-101697547D02*
X158071428Y-101888023D01*
X158071428Y-101888023D02*
X158023809Y-101983261D01*
X158023809Y-101983261D02*
X157928571Y-102078500D01*
X157928571Y-102078500D02*
X157785714Y-102126119D01*
X157785714Y-102126119D02*
X157547619Y-102126119D01*
X158452381Y-101126119D02*
X159119047Y-101126119D01*
X159119047Y-101126119D02*
X158452381Y-102126119D01*
X158452381Y-102126119D02*
X159119047Y-102126119D01*
X141802133Y-84324819D02*
X141468800Y-83848628D01*
X141230705Y-84324819D02*
X141230705Y-83324819D01*
X141230705Y-83324819D02*
X141611657Y-83324819D01*
X141611657Y-83324819D02*
X141706895Y-83372438D01*
X141706895Y-83372438D02*
X141754514Y-83420057D01*
X141754514Y-83420057D02*
X141802133Y-83515295D01*
X141802133Y-83515295D02*
X141802133Y-83658152D01*
X141802133Y-83658152D02*
X141754514Y-83753390D01*
X141754514Y-83753390D02*
X141706895Y-83801009D01*
X141706895Y-83801009D02*
X141611657Y-83848628D01*
X141611657Y-83848628D02*
X141230705Y-83848628D01*
X142754514Y-84324819D02*
X142183086Y-84324819D01*
X142468800Y-84324819D02*
X142468800Y-83324819D01*
X142468800Y-83324819D02*
X142373562Y-83467676D01*
X142373562Y-83467676D02*
X142278324Y-83562914D01*
X142278324Y-83562914D02*
X142183086Y-83610533D01*
X140802133Y-78680057D02*
X140849752Y-78632438D01*
X140849752Y-78632438D02*
X140944990Y-78584819D01*
X140944990Y-78584819D02*
X141183085Y-78584819D01*
X141183085Y-78584819D02*
X141278323Y-78632438D01*
X141278323Y-78632438D02*
X141325942Y-78680057D01*
X141325942Y-78680057D02*
X141373561Y-78775295D01*
X141373561Y-78775295D02*
X141373561Y-78870533D01*
X141373561Y-78870533D02*
X141325942Y-79013390D01*
X141325942Y-79013390D02*
X140754514Y-79584819D01*
X140754514Y-79584819D02*
X141373561Y-79584819D01*
X141992609Y-78584819D02*
X142087847Y-78584819D01*
X142087847Y-78584819D02*
X142183085Y-78632438D01*
X142183085Y-78632438D02*
X142230704Y-78680057D01*
X142230704Y-78680057D02*
X142278323Y-78775295D01*
X142278323Y-78775295D02*
X142325942Y-78965771D01*
X142325942Y-78965771D02*
X142325942Y-79203866D01*
X142325942Y-79203866D02*
X142278323Y-79394342D01*
X142278323Y-79394342D02*
X142230704Y-79489580D01*
X142230704Y-79489580D02*
X142183085Y-79537200D01*
X142183085Y-79537200D02*
X142087847Y-79584819D01*
X142087847Y-79584819D02*
X141992609Y-79584819D01*
X141992609Y-79584819D02*
X141897371Y-79537200D01*
X141897371Y-79537200D02*
X141849752Y-79489580D01*
X141849752Y-79489580D02*
X141802133Y-79394342D01*
X141802133Y-79394342D02*
X141754514Y-79203866D01*
X141754514Y-79203866D02*
X141754514Y-78965771D01*
X141754514Y-78965771D02*
X141802133Y-78775295D01*
X141802133Y-78775295D02*
X141849752Y-78680057D01*
X141849752Y-78680057D02*
X141897371Y-78632438D01*
X141897371Y-78632438D02*
X141992609Y-78584819D01*
X142754514Y-79584819D02*
X142754514Y-78584819D01*
X142849752Y-79203866D02*
X143135466Y-79584819D01*
X143135466Y-78918152D02*
X142754514Y-79299104D01*
D13*
%TO.C,R8*%
X169130000Y-73230000D02*
X169130000Y-79770000D01*
X169130000Y-79770000D02*
X171870000Y-79770000D01*
X170500000Y-72460000D02*
X170500000Y-73230000D01*
X170500000Y-80540000D02*
X170500000Y-79770000D01*
X171870000Y-73230000D02*
X169130000Y-73230000D01*
X171870000Y-79770000D02*
X171870000Y-73230000D01*
%TO.C,R3*%
X162130000Y-73401300D02*
X162130000Y-79941300D01*
X162130000Y-79941300D02*
X164870000Y-79941300D01*
X163500000Y-72631300D02*
X163500000Y-73401300D01*
X163500000Y-80711300D02*
X163500000Y-79941300D01*
X164870000Y-73401300D02*
X162130000Y-73401300D01*
X164870000Y-79941300D02*
X164870000Y-73401300D01*
%TO.C,R7*%
X162130000Y-89901300D02*
X162130000Y-96441300D01*
X162130000Y-96441300D02*
X164870000Y-96441300D01*
X163500000Y-89131300D02*
X163500000Y-89901300D01*
X163500000Y-97211300D02*
X163500000Y-96441300D01*
X164870000Y-89901300D02*
X162130000Y-89901300D01*
X164870000Y-96441300D02*
X164870000Y-89901300D01*
%TO.C,U1*%
X152930000Y-70361300D02*
X150980000Y-70361300D01*
X152930000Y-70361300D02*
X154880000Y-70361300D01*
X152930000Y-75481300D02*
X150980000Y-75481300D01*
X152930000Y-75481300D02*
X154880000Y-75481300D01*
X150230000Y-70456300D02*
X149990000Y-70126300D01*
X150470000Y-70126300D01*
X150230000Y-70456300D01*
G36*
X150230000Y-70456300D02*
G01*
X149990000Y-70126300D01*
X150470000Y-70126300D01*
X150230000Y-70456300D01*
G37*
%TO.C,R2*%
X130630000Y-81730000D02*
X130630000Y-88270000D01*
X130630000Y-88270000D02*
X133370000Y-88270000D01*
X132000000Y-80960000D02*
X132000000Y-81730000D01*
X132000000Y-89040000D02*
X132000000Y-88270000D01*
X133370000Y-81730000D02*
X130630000Y-81730000D01*
X133370000Y-88270000D02*
X133370000Y-81730000D01*
%TO.C,R5*%
X150960000Y-81500000D02*
X151730000Y-81500000D01*
X151730000Y-80130000D02*
X151730000Y-82870000D01*
X151730000Y-82870000D02*
X158270000Y-82870000D01*
X158270000Y-80130000D02*
X151730000Y-80130000D01*
X158270000Y-82870000D02*
X158270000Y-80130000D01*
X159040000Y-81500000D02*
X158270000Y-81500000D01*
%TO.C,J2*%
X172305100Y-85315000D02*
X173000100Y-85315000D01*
X172305100Y-86000000D02*
X172305100Y-85315000D01*
X172305100Y-86685000D02*
X172305100Y-87560000D01*
X172305100Y-86685000D02*
X172391824Y-86685000D01*
X172305100Y-87560000D02*
X172605607Y-87560000D01*
X173394593Y-87560000D02*
X173695100Y-87560000D01*
X173608376Y-86685000D02*
X173695100Y-86685000D01*
X173695100Y-86685000D02*
X173695100Y-87560000D01*
D12*
%TO.C,J1*%
X178662500Y-81325000D02*
X178662500Y-71675000D01*
X200462500Y-71675000D02*
X184712500Y-71675000D01*
X200462500Y-81325000D02*
X184712500Y-81325000D01*
X200462500Y-81325000D02*
X200462500Y-71675000D01*
D13*
%TO.C,D1*%
X127015552Y-99435799D02*
X128005501Y-100425748D01*
X127927719Y-98523631D02*
X127015552Y-99435799D01*
X128005501Y-100425748D02*
X128917669Y-99513581D01*
X127927719Y-98523631D02*
G75*
G02*
X128917669Y-99513581I2572281J1582331D01*
G01*
D10*
%TO.C,Q1*%
X137725000Y-65956300D02*
X139275000Y-65956300D01*
X139625000Y-66126300D02*
X142825000Y-66126300D01*
X139625000Y-76026300D02*
X139625000Y-66126300D01*
X142825000Y-66126300D02*
X142825000Y-76026300D01*
X142825000Y-76026300D02*
X139625000Y-76026300D01*
%TO.C,Q2*%
X137775000Y-93551300D02*
X139325000Y-93551300D01*
X139675000Y-93721300D02*
X142875000Y-93721300D01*
X139675000Y-103621300D02*
X139675000Y-93721300D01*
X142875000Y-93721300D02*
X142875000Y-103621300D01*
X142875000Y-103621300D02*
X139675000Y-103621300D01*
D14*
%TO.C,IC1*%
X168056800Y-98421000D02*
X168056800Y-92579000D01*
X168056800Y-98421000D02*
X178216800Y-98421000D01*
X178216800Y-92579000D02*
X168056800Y-92579000D01*
X178216800Y-92579000D02*
X178216800Y-94484000D01*
X178216800Y-98421000D02*
X178216800Y-96516000D01*
X178216800Y-96516000D02*
G75*
G02*
X178216800Y-94484000I0J1016000D01*
G01*
D13*
%TO.C,D2*%
X132809799Y-69371552D02*
X131897631Y-70283719D01*
X132887581Y-71273669D02*
X133799748Y-70361501D01*
X133799748Y-70361501D02*
X132809799Y-69371552D01*
X132887581Y-71273669D02*
G75*
G02*
X131897631Y-70283719I-2572281J-1582331D01*
G01*
%TO.C,R4*%
X150880000Y-88500000D02*
X151650000Y-88500000D01*
X151650000Y-87130000D02*
X151650000Y-89870000D01*
X151650000Y-89870000D02*
X158190000Y-89870000D01*
X158190000Y-87130000D02*
X151650000Y-87130000D01*
X158190000Y-89870000D02*
X158190000Y-87130000D01*
X158960000Y-88500000D02*
X158190000Y-88500000D01*
%TO.C,R6*%
X137960000Y-88500000D02*
X138730000Y-88500000D01*
X138730000Y-87130000D02*
X138730000Y-89870000D01*
X138730000Y-89870000D02*
X145270000Y-89870000D01*
X145270000Y-87130000D02*
X138730000Y-87130000D01*
X145270000Y-89870000D02*
X145270000Y-87130000D01*
X146040000Y-88500000D02*
X145270000Y-88500000D01*
%TO.C,U2*%
X153000000Y-95361300D02*
X151050000Y-95361300D01*
X153000000Y-95361300D02*
X154950000Y-95361300D01*
X153000000Y-100481300D02*
X151050000Y-100481300D01*
X153000000Y-100481300D02*
X154950000Y-100481300D01*
X150300000Y-95456300D02*
X150060000Y-95126300D01*
X150540000Y-95126300D01*
X150300000Y-95456300D01*
G36*
X150300000Y-95456300D02*
G01*
X150060000Y-95126300D01*
X150540000Y-95126300D01*
X150300000Y-95456300D01*
G37*
%TO.C,R1*%
X137928800Y-81500000D02*
X138698800Y-81500000D01*
X138698800Y-80130000D02*
X138698800Y-82870000D01*
X138698800Y-82870000D02*
X145238800Y-82870000D01*
X145238800Y-80130000D02*
X138698800Y-80130000D01*
X145238800Y-82870000D02*
X145238800Y-80130000D01*
X146008800Y-81500000D02*
X145238800Y-81500000D01*
%TD*%
M02*
