%TF.GenerationSoftware,KiCad,Pcbnew,8.0.8*%
%TF.CreationDate,2025-02-03T10:15:12-05:00*%
%TF.ProjectId,Balanced Polarimeter,42616c61-6e63-4656-9420-506f6c617269,rev?*%
%TF.SameCoordinates,Original*%
%TF.FileFunction,Copper,L2,Bot*%
%TF.FilePolarity,Positive*%
%FSLAX46Y46*%
G04 Gerber Fmt 4.6, Leading zero omitted, Abs format (unit mm)*
G04 Created by KiCad (PCBNEW 8.0.8) date 2025-02-03 10:15:12*
%MOMM*%
%LPD*%
G01*
G04 APERTURE LIST*
%TA.AperFunction,ComponentPad*%
%ADD10C,1.600000*%
%TD*%
%TA.AperFunction,ComponentPad*%
%ADD11O,1.600000X1.600000*%
%TD*%
%TA.AperFunction,ComponentPad*%
%ADD12R,0.850000X0.850000*%
%TD*%
%TA.AperFunction,ComponentPad*%
%ADD13O,0.850000X0.850000*%
%TD*%
%TA.AperFunction,ComponentPad*%
%ADD14C,2.800000*%
%TD*%
%TA.AperFunction,ComponentPad*%
%ADD15C,1.550000*%
%TD*%
%TA.AperFunction,ComponentPad*%
%ADD16O,1.200000X1.600000*%
%TD*%
%TA.AperFunction,ComponentPad*%
%ADD17C,1.200000*%
%TD*%
%TA.AperFunction,ComponentPad*%
%ADD18O,1.320800X2.641600*%
%TD*%
%TA.AperFunction,ViaPad*%
%ADD19C,0.600000*%
%TD*%
%TA.AperFunction,Conductor*%
%ADD20C,0.200000*%
%TD*%
G04 APERTURE END LIST*
D10*
%TO.P,R8,1*%
%TO.N,V_out*%
X170500000Y-81580000D03*
D11*
%TO.P,R8,2*%
%TO.N,Net-(IC1-Pad2)*%
X170500000Y-71420000D03*
%TD*%
D10*
%TO.P,R3,1*%
%TO.N,Net-(R3-Pad1)*%
X163500000Y-81751300D03*
D11*
%TO.P,R3,2*%
%TO.N,Net-(U1--)*%
X163500000Y-71591300D03*
%TD*%
D10*
%TO.P,R7,1*%
%TO.N,Net-(R4-Pad1)*%
X163500000Y-88091300D03*
D11*
%TO.P,R7,2*%
%TO.N,Net-(IC1-Pad2)*%
X163500000Y-98251300D03*
%TD*%
D10*
%TO.P,R2,1*%
%TO.N,Net-(Q2-COLLECTOR_#4_1)*%
X132000000Y-90080000D03*
D11*
%TO.P,R2,2*%
%TO.N,GND*%
X132000000Y-79920000D03*
%TD*%
D10*
%TO.P,R5,1*%
%TO.N,Net-(IC1-Pad3)*%
X149920000Y-81500000D03*
D11*
%TO.P,R5,2*%
%TO.N,Net-(R3-Pad1)*%
X160080000Y-81500000D03*
%TD*%
D12*
%TO.P,J2,1,Pin_1*%
%TO.N,+5V*%
X173000100Y-86000000D03*
D13*
%TO.P,J2,2,Pin_2*%
%TO.N,-5V*%
X173000100Y-87000000D03*
%TD*%
D14*
%TO.P,J1,1,1*%
%TO.N,unconnected-(J1-Pad1)*%
X182862500Y-80300000D03*
%TO.P,J1,2,2*%
%TO.N,unconnected-(J1-Pad2)*%
X182862500Y-72700000D03*
D15*
%TO.P,J1,3,3*%
%TO.N,V_out*%
X175062500Y-76500000D03*
%TD*%
D16*
%TO.P,D1,1,K*%
%TO.N,Net-(D1-K)*%
X130500000Y-98211300D03*
D17*
%TO.P,D1,2,C*%
%TO.N,GND*%
X131770000Y-96941300D03*
%TO.P,D1,3,A*%
%TO.N,+5V*%
X130500000Y-95671300D03*
%TD*%
D18*
%TO.P,IC1,1*%
%TO.N,unconnected-(IC1-Pad1)*%
X176946800Y-91690000D03*
%TO.P,IC1,2*%
%TO.N,Net-(IC1-Pad2)*%
X174406800Y-91690000D03*
%TO.P,IC1,3*%
%TO.N,Net-(IC1-Pad3)*%
X171866800Y-91690000D03*
%TO.P,IC1,4*%
%TO.N,-5V*%
X169326800Y-91690000D03*
%TO.P,IC1,5*%
%TO.N,unconnected-(IC1-Pad5)*%
X169326800Y-99310000D03*
%TO.P,IC1,6*%
%TO.N,V_out*%
X171866800Y-99310000D03*
%TO.P,IC1,7*%
%TO.N,+5V*%
X174406800Y-99310000D03*
%TO.P,IC1,8*%
%TO.N,N/C*%
X176946800Y-99310000D03*
%TD*%
D16*
%TO.P,D2,1,K*%
%TO.N,Net-(D2-K)*%
X130315300Y-71586000D03*
D17*
%TO.P,D2,2,C*%
%TO.N,GND*%
X129045300Y-72856000D03*
%TO.P,D2,3,A*%
%TO.N,+5V*%
X130315300Y-74126000D03*
%TD*%
D10*
%TO.P,R4,1*%
%TO.N,Net-(R4-Pad1)*%
X160000000Y-88500000D03*
D11*
%TO.P,R4,2*%
%TO.N,Net-(U2--)*%
X149840000Y-88500000D03*
%TD*%
D10*
%TO.P,R6,1*%
%TO.N,GND*%
X136920000Y-88500000D03*
D11*
%TO.P,R6,2*%
%TO.N,Net-(IC1-Pad3)*%
X147080000Y-88500000D03*
%TD*%
D10*
%TO.P,R1,1*%
%TO.N,Net-(Q1-COLLECTOR_#4_1)*%
X147048800Y-81500000D03*
D11*
%TO.P,R1,2*%
%TO.N,GND*%
X136888800Y-81500000D03*
%TD*%
D19*
%TO.N,+5V*%
X155982600Y-94610800D03*
X156922500Y-72195600D03*
X155982600Y-90377300D03*
%TO.N,-5V*%
X169859600Y-88817900D03*
%TO.N,Net-(Q1-COLLECTOR_#3_1)*%
X143722000Y-80700100D03*
X147091500Y-71615000D03*
%TO.N,Net-(Q2-BASE_#1)*%
X144127800Y-92046600D03*
X141164100Y-100803000D03*
%TO.N,Net-(Q2-COLLECTOR_#4_1)*%
X135236700Y-100803000D03*
%TO.N,Net-(Q2-COLLECTOR_#3_1)*%
X142621300Y-100023300D03*
X147260900Y-97791600D03*
%TO.N,Net-(R4-Pad1)*%
X158946300Y-98281300D03*
%TO.N,Net-(U2--)*%
X153018200Y-95691300D03*
%TD*%
D20*
%TO.N,+5V*%
X173444600Y-96725300D02*
X173444600Y-87706300D01*
X174406800Y-97687500D02*
X173444600Y-96725300D01*
X130315300Y-74126000D02*
X130315300Y-95486600D01*
X173726800Y-87424100D02*
X173726800Y-86000000D01*
X173000100Y-86000000D02*
X173726800Y-86000000D01*
X130315300Y-95486600D02*
X130500000Y-95671300D01*
X155982600Y-90377300D02*
X155982600Y-94610800D01*
X173444600Y-87706300D02*
X173726800Y-87424100D01*
X155982600Y-73135500D02*
X156922500Y-72195600D01*
X155982600Y-90377300D02*
X155982600Y-73135500D01*
X174406800Y-99310000D02*
X174406800Y-97687500D01*
%TO.N,Net-(IC1-Pad2)*%
X174406800Y-83883400D02*
X170964400Y-80441000D01*
X170500000Y-71420000D02*
X170500000Y-72521700D01*
X167586700Y-82899000D02*
X167586700Y-93062900D01*
X167586700Y-93062900D02*
X163500000Y-97149600D01*
X170500000Y-80441000D02*
X170044700Y-80441000D01*
X170044700Y-80441000D02*
X167586700Y-82899000D01*
X174406800Y-91690000D02*
X174406800Y-83883400D01*
X170500000Y-80441000D02*
X170500000Y-72521700D01*
X170964400Y-80441000D02*
X170500000Y-80441000D01*
X163500000Y-98251300D02*
X163500000Y-97149600D01*
%TO.N,-5V*%
X169326800Y-90067500D02*
X169859600Y-89534700D01*
X169859600Y-89534700D02*
X169859600Y-88817900D01*
X169326800Y-91690000D02*
X169326800Y-90067500D01*
%TO.N,V_out*%
X171866800Y-99310000D02*
X171866800Y-97687500D01*
X171866800Y-97687500D02*
X170500000Y-96320700D01*
X170500000Y-96320700D02*
X170500000Y-81580000D01*
%TO.N,Net-(IC1-Pad3)*%
X147080000Y-88500000D02*
X147080000Y-84340000D01*
X147080000Y-84340000D02*
X149920000Y-81500000D01*
%TO.N,Net-(Q1-COLLECTOR_#3_1)*%
X143722000Y-74984500D02*
X147091500Y-71615000D01*
X143722000Y-80700100D02*
X143722000Y-74984500D01*
%TO.N,Net-(Q2-BASE_#1)*%
X144127800Y-92046600D02*
X141164100Y-95010300D01*
X141164100Y-95010300D02*
X141164100Y-100803000D01*
%TO.N,Net-(Q2-COLLECTOR_#4_1)*%
X132000000Y-90080000D02*
X135236700Y-93316700D01*
X135236700Y-93316700D02*
X135236700Y-100803000D01*
%TO.N,Net-(Q2-COLLECTOR_#3_1)*%
X144853000Y-97791600D02*
X142621300Y-100023300D01*
X147260900Y-97791600D02*
X144853000Y-97791600D01*
%TO.N,Net-(R4-Pad1)*%
X158946300Y-89553700D02*
X160000000Y-88500000D01*
X158946300Y-98281300D02*
X158946300Y-89553700D01*
%TO.N,Net-(U2--)*%
X149840000Y-92513100D02*
X149840000Y-88500000D01*
X153018200Y-95691300D02*
X149840000Y-92513100D01*
%TD*%
%TA.AperFunction,Conductor*%
%TO.N,GND*%
G36*
X186442539Y-62020185D02*
G01*
X186488294Y-62072989D01*
X186499500Y-62124500D01*
X186499500Y-107375500D01*
X186479815Y-107442539D01*
X186427011Y-107488294D01*
X186375500Y-107499500D01*
X122624500Y-107499500D01*
X122557461Y-107479815D01*
X122511706Y-107427011D01*
X122500500Y-107375500D01*
X122500500Y-104397648D01*
X124199500Y-104397648D01*
X124199500Y-104602351D01*
X124231522Y-104804534D01*
X124294781Y-104999223D01*
X124387715Y-105181613D01*
X124508028Y-105347213D01*
X124652786Y-105491971D01*
X124807749Y-105604556D01*
X124818390Y-105612287D01*
X124934607Y-105671503D01*
X125000776Y-105705218D01*
X125000778Y-105705218D01*
X125000781Y-105705220D01*
X125105137Y-105739127D01*
X125195465Y-105768477D01*
X125296557Y-105784488D01*
X125397648Y-105800500D01*
X125397649Y-105800500D01*
X125602351Y-105800500D01*
X125602352Y-105800500D01*
X125804534Y-105768477D01*
X125999219Y-105705220D01*
X126181610Y-105612287D01*
X126274590Y-105544732D01*
X126347213Y-105491971D01*
X126347215Y-105491968D01*
X126347219Y-105491966D01*
X126491966Y-105347219D01*
X126491968Y-105347215D01*
X126491971Y-105347213D01*
X126544732Y-105274590D01*
X126612287Y-105181610D01*
X126705220Y-104999219D01*
X126768477Y-104804534D01*
X126800500Y-104602352D01*
X126800500Y-104397648D01*
X182699500Y-104397648D01*
X182699500Y-104602351D01*
X182731522Y-104804534D01*
X182794781Y-104999223D01*
X182887715Y-105181613D01*
X183008028Y-105347213D01*
X183152786Y-105491971D01*
X183307749Y-105604556D01*
X183318390Y-105612287D01*
X183434607Y-105671503D01*
X183500776Y-105705218D01*
X183500778Y-105705218D01*
X183500781Y-105705220D01*
X183605137Y-105739127D01*
X183695465Y-105768477D01*
X183796557Y-105784488D01*
X183897648Y-105800500D01*
X183897649Y-105800500D01*
X184102351Y-105800500D01*
X184102352Y-105800500D01*
X184304534Y-105768477D01*
X184499219Y-105705220D01*
X184681610Y-105612287D01*
X184774590Y-105544732D01*
X184847213Y-105491971D01*
X184847215Y-105491968D01*
X184847219Y-105491966D01*
X184991966Y-105347219D01*
X184991968Y-105347215D01*
X184991971Y-105347213D01*
X185044732Y-105274590D01*
X185112287Y-105181610D01*
X185205220Y-104999219D01*
X185268477Y-104804534D01*
X185300500Y-104602352D01*
X185300500Y-104397648D01*
X185268477Y-104195466D01*
X185205220Y-104000781D01*
X185205218Y-104000778D01*
X185205218Y-104000776D01*
X185171503Y-103934607D01*
X185112287Y-103818390D01*
X185104556Y-103807749D01*
X184991971Y-103652786D01*
X184847213Y-103508028D01*
X184681613Y-103387715D01*
X184681612Y-103387714D01*
X184681610Y-103387713D01*
X184624653Y-103358691D01*
X184499223Y-103294781D01*
X184304534Y-103231522D01*
X184129995Y-103203878D01*
X184102352Y-103199500D01*
X183897648Y-103199500D01*
X183873329Y-103203351D01*
X183695465Y-103231522D01*
X183500776Y-103294781D01*
X183318386Y-103387715D01*
X183152786Y-103508028D01*
X183008028Y-103652786D01*
X182887715Y-103818386D01*
X182794781Y-104000776D01*
X182731522Y-104195465D01*
X182699500Y-104397648D01*
X126800500Y-104397648D01*
X126768477Y-104195466D01*
X126705220Y-104000781D01*
X126705218Y-104000778D01*
X126705218Y-104000776D01*
X126671503Y-103934607D01*
X126612287Y-103818390D01*
X126604556Y-103807749D01*
X126491971Y-103652786D01*
X126347213Y-103508028D01*
X126181613Y-103387715D01*
X126181612Y-103387714D01*
X126181610Y-103387713D01*
X126124653Y-103358691D01*
X125999223Y-103294781D01*
X125804534Y-103231522D01*
X125629995Y-103203878D01*
X125602352Y-103199500D01*
X125397648Y-103199500D01*
X125373329Y-103203351D01*
X125195465Y-103231522D01*
X125000776Y-103294781D01*
X124818386Y-103387715D01*
X124652786Y-103508028D01*
X124508028Y-103652786D01*
X124387715Y-103818386D01*
X124294781Y-104000776D01*
X124231522Y-104195465D01*
X124199500Y-104397648D01*
X122500500Y-104397648D01*
X122500500Y-72855999D01*
X127940587Y-72855999D01*
X127940587Y-72856000D01*
X127959396Y-73058989D01*
X127959397Y-73058992D01*
X128015183Y-73255063D01*
X128015186Y-73255069D01*
X128106051Y-73437551D01*
X128107833Y-73439911D01*
X128691746Y-72856000D01*
X128107833Y-72272087D01*
X128106055Y-72274442D01*
X128106054Y-72274443D01*
X128015186Y-72456930D01*
X128015183Y-72456936D01*
X127959397Y-72653007D01*
X127959396Y-72653010D01*
X127940587Y-72855999D01*
X122500500Y-72855999D01*
X122500500Y-71921758D01*
X128464611Y-71921758D01*
X129048853Y-72506000D01*
X128999222Y-72506000D01*
X128910205Y-72529852D01*
X128830395Y-72575930D01*
X128765230Y-72641095D01*
X128719152Y-72720905D01*
X128695300Y-72809922D01*
X128695300Y-72902078D01*
X128719152Y-72991095D01*
X128765230Y-73070905D01*
X128830395Y-73136070D01*
X128910205Y-73182148D01*
X128999222Y-73206000D01*
X129048852Y-73206000D01*
X128464611Y-73790240D01*
X128552885Y-73844897D01*
X128742978Y-73918539D01*
X128943372Y-73956000D01*
X129089816Y-73956000D01*
X129156855Y-73975685D01*
X129202610Y-74028489D01*
X129213287Y-74091440D01*
X129210085Y-74125997D01*
X129210085Y-74126000D01*
X129228902Y-74329082D01*
X129284717Y-74525247D01*
X129284722Y-74525260D01*
X129375627Y-74707821D01*
X129498537Y-74870581D01*
X129649256Y-75007979D01*
X129649258Y-75007980D01*
X129649259Y-75007981D01*
X129656072Y-75012199D01*
X129702710Y-75064223D01*
X129714800Y-75117629D01*
X129714800Y-94844058D01*
X129695115Y-94911097D01*
X129686649Y-94922116D01*
X129686690Y-94922147D01*
X129560327Y-95089478D01*
X129469422Y-95272039D01*
X129469417Y-95272052D01*
X129413602Y-95468217D01*
X129394785Y-95671299D01*
X129394785Y-95671300D01*
X129413602Y-95874382D01*
X129469417Y-96070547D01*
X129469422Y-96070560D01*
X129560327Y-96253121D01*
X129683237Y-96415881D01*
X129833958Y-96553280D01*
X129833960Y-96553282D01*
X129895362Y-96591300D01*
X130007363Y-96660648D01*
X130178820Y-96727070D01*
X130234221Y-96769643D01*
X130257812Y-96835410D01*
X130242101Y-96903490D01*
X130192077Y-96952269D01*
X130172348Y-96960626D01*
X130077555Y-96991427D01*
X130077552Y-96991428D01*
X130077550Y-96991429D01*
X129923211Y-97070068D01*
X129876111Y-97104289D01*
X129783072Y-97171886D01*
X129783070Y-97171888D01*
X129783069Y-97171888D01*
X129660588Y-97294369D01*
X129660588Y-97294370D01*
X129660586Y-97294372D01*
X129627167Y-97340369D01*
X129558768Y-97434511D01*
X129480128Y-97588852D01*
X129426597Y-97753602D01*
X129399500Y-97924689D01*
X129399500Y-98497910D01*
X129412021Y-98576969D01*
X129426598Y-98669001D01*
X129480127Y-98833745D01*
X129558768Y-98988088D01*
X129660586Y-99128228D01*
X129783072Y-99250714D01*
X129923212Y-99352532D01*
X130077555Y-99431173D01*
X130242299Y-99484702D01*
X130413389Y-99511800D01*
X130413390Y-99511800D01*
X130586610Y-99511800D01*
X130586611Y-99511800D01*
X130757701Y-99484702D01*
X130922445Y-99431173D01*
X131076788Y-99352532D01*
X131216928Y-99250714D01*
X131339414Y-99128228D01*
X131441232Y-98988088D01*
X131519873Y-98833745D01*
X131573402Y-98669001D01*
X131600500Y-98497911D01*
X131600500Y-98165300D01*
X131620185Y-98098261D01*
X131672989Y-98052506D01*
X131724500Y-98041300D01*
X131871928Y-98041300D01*
X132072322Y-98003839D01*
X132262412Y-97930199D01*
X132262416Y-97930197D01*
X132350686Y-97875541D01*
X132350686Y-97875540D01*
X131766446Y-97291300D01*
X131816078Y-97291300D01*
X131905095Y-97267448D01*
X131984905Y-97221370D01*
X132050070Y-97156205D01*
X132096148Y-97076395D01*
X132120000Y-96987378D01*
X132120000Y-96941300D01*
X132123553Y-96941300D01*
X132707465Y-97525212D01*
X132709247Y-97522853D01*
X132709248Y-97522851D01*
X132800113Y-97340369D01*
X132800116Y-97340363D01*
X132855902Y-97144292D01*
X132855903Y-97144289D01*
X132874713Y-96941300D01*
X132874713Y-96941299D01*
X132855903Y-96738310D01*
X132855902Y-96738307D01*
X132800116Y-96542236D01*
X132800113Y-96542230D01*
X132709249Y-96359749D01*
X132709247Y-96359747D01*
X132707465Y-96357387D01*
X132123553Y-96941300D01*
X132120000Y-96941300D01*
X132120000Y-96895222D01*
X132096148Y-96806205D01*
X132050070Y-96726395D01*
X131984905Y-96661230D01*
X131905095Y-96615152D01*
X131816078Y-96591300D01*
X131766446Y-96591300D01*
X132350687Y-96007058D01*
X132262413Y-95952401D01*
X132262411Y-95952400D01*
X132072321Y-95878760D01*
X131871928Y-95841300D01*
X131725484Y-95841300D01*
X131658445Y-95821615D01*
X131612690Y-95768811D01*
X131602013Y-95705860D01*
X131605215Y-95671302D01*
X131605215Y-95671299D01*
X131586397Y-95468217D01*
X131565897Y-95396168D01*
X131530582Y-95272050D01*
X131524101Y-95259035D01*
X131486272Y-95183064D01*
X131439673Y-95089479D01*
X131342138Y-94960322D01*
X131316762Y-94926718D01*
X131166041Y-94789319D01*
X131166039Y-94789317D01*
X130992640Y-94681953D01*
X130987500Y-94679394D01*
X130988323Y-94677740D01*
X130939589Y-94640275D01*
X130916013Y-94574504D01*
X130915800Y-94567242D01*
X130915800Y-91134349D01*
X130935485Y-91067310D01*
X130988289Y-91021555D01*
X131057447Y-91011611D01*
X131121003Y-91040636D01*
X131127481Y-91046668D01*
X131160858Y-91080045D01*
X131160861Y-91080047D01*
X131347266Y-91210568D01*
X131553504Y-91306739D01*
X131773308Y-91365635D01*
X131935230Y-91379801D01*
X131999998Y-91385468D01*
X132000000Y-91385468D01*
X132000002Y-91385468D01*
X132056673Y-91380509D01*
X132226692Y-91365635D01*
X132322932Y-91339847D01*
X132392781Y-91341510D01*
X132442706Y-91371941D01*
X134599881Y-93529116D01*
X134633366Y-93590439D01*
X134636200Y-93616797D01*
X134636200Y-100220587D01*
X134616515Y-100287626D01*
X134609150Y-100297896D01*
X134606886Y-100300734D01*
X134510911Y-100453476D01*
X134451331Y-100623745D01*
X134451330Y-100623750D01*
X134431135Y-100802996D01*
X134431135Y-100803003D01*
X134451330Y-100982249D01*
X134451331Y-100982254D01*
X134510911Y-101152523D01*
X134606884Y-101305262D01*
X134734438Y-101432816D01*
X134887178Y-101528789D01*
X135057445Y-101588368D01*
X135057450Y-101588369D01*
X135236696Y-101608565D01*
X135236700Y-101608565D01*
X135236704Y-101608565D01*
X135415949Y-101588369D01*
X135415952Y-101588368D01*
X135415955Y-101588368D01*
X135586222Y-101528789D01*
X135738962Y-101432816D01*
X135866516Y-101305262D01*
X135962489Y-101152522D01*
X136022068Y-100982255D01*
X136024205Y-100963290D01*
X136042265Y-100803003D01*
X136042265Y-100802996D01*
X140358535Y-100802996D01*
X140358535Y-100803003D01*
X140378730Y-100982249D01*
X140378731Y-100982254D01*
X140438311Y-101152523D01*
X140534284Y-101305262D01*
X140661838Y-101432816D01*
X140814578Y-101528789D01*
X140984845Y-101588368D01*
X140984850Y-101588369D01*
X141164096Y-101608565D01*
X141164100Y-101608565D01*
X141164104Y-101608565D01*
X141343349Y-101588369D01*
X141343352Y-101588368D01*
X141343355Y-101588368D01*
X141513622Y-101528789D01*
X141666362Y-101432816D01*
X141793916Y-101305262D01*
X141889889Y-101152522D01*
X141949468Y-100982255D01*
X141951605Y-100963290D01*
X141969665Y-100803003D01*
X141969665Y-100803001D01*
X141969665Y-100803000D01*
X141968939Y-100796558D01*
X141980992Y-100727738D01*
X142028340Y-100676357D01*
X142095950Y-100658731D01*
X142158130Y-100677679D01*
X142194298Y-100700405D01*
X142271775Y-100749088D01*
X142442045Y-100808668D01*
X142442050Y-100808669D01*
X142621296Y-100828865D01*
X142621300Y-100828865D01*
X142621304Y-100828865D01*
X142800549Y-100808669D01*
X142800552Y-100808668D01*
X142800555Y-100808668D01*
X142970822Y-100749089D01*
X143123562Y-100653116D01*
X143251116Y-100525562D01*
X143347089Y-100372822D01*
X143406668Y-100202555D01*
X143416461Y-100115629D01*
X143443526Y-100051218D01*
X143451990Y-100041843D01*
X145065416Y-98428419D01*
X145126739Y-98394934D01*
X145153097Y-98392100D01*
X146678488Y-98392100D01*
X146745527Y-98411785D01*
X146755803Y-98419155D01*
X146758636Y-98421414D01*
X146758638Y-98421416D01*
X146911378Y-98517389D01*
X146967229Y-98536932D01*
X147081645Y-98576968D01*
X147081650Y-98576969D01*
X147260896Y-98597165D01*
X147260900Y-98597165D01*
X147260904Y-98597165D01*
X147440149Y-98576969D01*
X147440152Y-98576968D01*
X147440155Y-98576968D01*
X147610422Y-98517389D01*
X147763162Y-98421416D01*
X147890716Y-98293862D01*
X147898612Y-98281296D01*
X158140735Y-98281296D01*
X158140735Y-98281303D01*
X158160930Y-98460549D01*
X158160931Y-98460554D01*
X158220511Y-98630823D01*
X158262594Y-98697797D01*
X158316484Y-98783562D01*
X158444038Y-98911116D01*
X158596778Y-99007089D01*
X158767045Y-99066668D01*
X158767050Y-99066669D01*
X158946296Y-99086865D01*
X158946300Y-99086865D01*
X158946304Y-99086865D01*
X159125549Y-99066669D01*
X159125552Y-99066668D01*
X159125555Y-99066668D01*
X159295822Y-99007089D01*
X159448562Y-98911116D01*
X159576116Y-98783562D01*
X159672089Y-98630822D01*
X159731668Y-98460555D01*
X159740997Y-98377758D01*
X159751865Y-98281303D01*
X159751865Y-98281296D01*
X159748485Y-98251298D01*
X162194532Y-98251298D01*
X162194532Y-98251301D01*
X162214364Y-98477986D01*
X162214366Y-98477997D01*
X162273258Y-98697788D01*
X162273261Y-98697797D01*
X162369431Y-98904032D01*
X162369432Y-98904034D01*
X162499954Y-99090441D01*
X162660858Y-99251345D01*
X162660861Y-99251347D01*
X162847266Y-99381868D01*
X163053504Y-99478039D01*
X163273308Y-99536935D01*
X163435230Y-99551101D01*
X163499998Y-99556768D01*
X163500000Y-99556768D01*
X163500002Y-99556768D01*
X163556673Y-99551809D01*
X163726692Y-99536935D01*
X163946496Y-99478039D01*
X164152734Y-99381868D01*
X164339139Y-99251347D01*
X164500047Y-99090439D01*
X164630568Y-98904034D01*
X164726739Y-98697796D01*
X164785635Y-98477992D01*
X164805468Y-98251300D01*
X164785635Y-98024608D01*
X164726739Y-97804804D01*
X164630568Y-97598566D01*
X164515697Y-97434512D01*
X164500045Y-97412158D01*
X164381041Y-97293154D01*
X164347556Y-97231831D01*
X164352540Y-97162139D01*
X164381039Y-97117794D01*
X168067220Y-93431616D01*
X168146277Y-93294684D01*
X168187201Y-93141957D01*
X168187201Y-93138550D01*
X168188014Y-93135781D01*
X168188262Y-93133898D01*
X168188555Y-93133936D01*
X168206886Y-93071511D01*
X168259690Y-93025756D01*
X168328848Y-93015812D01*
X168392404Y-93044837D01*
X168411518Y-93065664D01*
X168441315Y-93106676D01*
X168570524Y-93235885D01*
X168718356Y-93343291D01*
X168881169Y-93426248D01*
X169054955Y-93482715D01*
X169122635Y-93493434D01*
X169235430Y-93511300D01*
X169235435Y-93511300D01*
X169418170Y-93511300D01*
X169500201Y-93498306D01*
X169598645Y-93482715D01*
X169737186Y-93437699D01*
X169807022Y-93435705D01*
X169866855Y-93471785D01*
X169897684Y-93534485D01*
X169899500Y-93555631D01*
X169899500Y-96234030D01*
X169899499Y-96234048D01*
X169899499Y-96399754D01*
X169899498Y-96399754D01*
X169937676Y-96542236D01*
X169940423Y-96552485D01*
X169940852Y-96553228D01*
X169940869Y-96553289D01*
X169940883Y-96553282D01*
X170019475Y-96689409D01*
X170019481Y-96689417D01*
X170138349Y-96808285D01*
X170138355Y-96808290D01*
X171014671Y-97684606D01*
X171048156Y-97745929D01*
X171043172Y-97815621D01*
X171014671Y-97859968D01*
X170981317Y-97893321D01*
X170873909Y-98041155D01*
X170790953Y-98203966D01*
X170734484Y-98377758D01*
X170719273Y-98473797D01*
X170689344Y-98536932D01*
X170630032Y-98573863D01*
X170560169Y-98572865D01*
X170501937Y-98534255D01*
X170474327Y-98473797D01*
X170459115Y-98377758D01*
X170459115Y-98377755D01*
X170402648Y-98203969D01*
X170319691Y-98041156D01*
X170212285Y-97893324D01*
X170083076Y-97764115D01*
X169935244Y-97656709D01*
X169772431Y-97573752D01*
X169598645Y-97517285D01*
X169598643Y-97517284D01*
X169598641Y-97517284D01*
X169418170Y-97488700D01*
X169418165Y-97488700D01*
X169235435Y-97488700D01*
X169235430Y-97488700D01*
X169054958Y-97517284D01*
X168881166Y-97573753D01*
X168718355Y-97656709D01*
X168570521Y-97764117D01*
X168441317Y-97893321D01*
X168333909Y-98041155D01*
X168250953Y-98203966D01*
X168194484Y-98377758D01*
X168165900Y-98558229D01*
X168165900Y-100061770D01*
X168194484Y-100242241D01*
X168194485Y-100242245D01*
X168250952Y-100416031D01*
X168333909Y-100578844D01*
X168441315Y-100726676D01*
X168570524Y-100855885D01*
X168718356Y-100963291D01*
X168881169Y-101046248D01*
X169054955Y-101102715D01*
X169122635Y-101113434D01*
X169235430Y-101131300D01*
X169235435Y-101131300D01*
X169418170Y-101131300D01*
X169518431Y-101115419D01*
X169598645Y-101102715D01*
X169772431Y-101046248D01*
X169935244Y-100963291D01*
X170083076Y-100855885D01*
X170212285Y-100726676D01*
X170319691Y-100578844D01*
X170402648Y-100416031D01*
X170459115Y-100242245D01*
X170474327Y-100146202D01*
X170504256Y-100083067D01*
X170563568Y-100046136D01*
X170633430Y-100047134D01*
X170691663Y-100085744D01*
X170719273Y-100146202D01*
X170734484Y-100242241D01*
X170734485Y-100242245D01*
X170790952Y-100416031D01*
X170873909Y-100578844D01*
X170981315Y-100726676D01*
X171110524Y-100855885D01*
X171258356Y-100963291D01*
X171421169Y-101046248D01*
X171594955Y-101102715D01*
X171662635Y-101113434D01*
X171775430Y-101131300D01*
X171775435Y-101131300D01*
X171958170Y-101131300D01*
X172058431Y-101115419D01*
X172138645Y-101102715D01*
X172312431Y-101046248D01*
X172475244Y-100963291D01*
X172623076Y-100855885D01*
X172752285Y-100726676D01*
X172859691Y-100578844D01*
X172942648Y-100416031D01*
X172999115Y-100242245D01*
X173014327Y-100146202D01*
X173044256Y-100083067D01*
X173103568Y-100046136D01*
X173173430Y-100047134D01*
X173231663Y-100085744D01*
X173259273Y-100146202D01*
X173274484Y-100242241D01*
X173274485Y-100242245D01*
X173330952Y-100416031D01*
X173413909Y-100578844D01*
X173521315Y-100726676D01*
X173650524Y-100855885D01*
X173798356Y-100963291D01*
X173961169Y-101046248D01*
X174134955Y-101102715D01*
X174202635Y-101113434D01*
X174315430Y-101131300D01*
X174315435Y-101131300D01*
X174498170Y-101131300D01*
X174598431Y-101115419D01*
X174678645Y-101102715D01*
X174852431Y-101046248D01*
X175015244Y-100963291D01*
X175163076Y-100855885D01*
X175292285Y-100726676D01*
X175399691Y-100578844D01*
X175482648Y-100416031D01*
X175539115Y-100242245D01*
X175554327Y-100146202D01*
X175584256Y-100083067D01*
X175643568Y-100046136D01*
X175713430Y-100047134D01*
X175771663Y-100085744D01*
X175799273Y-100146202D01*
X175814484Y-100242241D01*
X175814485Y-100242245D01*
X175870952Y-100416031D01*
X175953909Y-100578844D01*
X176061315Y-100726676D01*
X176190524Y-100855885D01*
X176338356Y-100963291D01*
X176501169Y-101046248D01*
X176674955Y-101102715D01*
X176742635Y-101113434D01*
X176855430Y-101131300D01*
X176855435Y-101131300D01*
X177038170Y-101131300D01*
X177138431Y-101115419D01*
X177218645Y-101102715D01*
X177392431Y-101046248D01*
X177555244Y-100963291D01*
X177703076Y-100855885D01*
X177832285Y-100726676D01*
X177939691Y-100578844D01*
X178022648Y-100416031D01*
X178079115Y-100242245D01*
X178094327Y-100146202D01*
X178107700Y-100061770D01*
X178107700Y-98558229D01*
X178079115Y-98377758D01*
X178079115Y-98377755D01*
X178022648Y-98203969D01*
X177939691Y-98041156D01*
X177832285Y-97893324D01*
X177703076Y-97764115D01*
X177555244Y-97656709D01*
X177392431Y-97573752D01*
X177218645Y-97517285D01*
X177218643Y-97517284D01*
X177218641Y-97517284D01*
X177038170Y-97488700D01*
X177038165Y-97488700D01*
X176855435Y-97488700D01*
X176855430Y-97488700D01*
X176674958Y-97517284D01*
X176501166Y-97573753D01*
X176338355Y-97656709D01*
X176190521Y-97764117D01*
X176061317Y-97893321D01*
X175953909Y-98041155D01*
X175870953Y-98203966D01*
X175814484Y-98377758D01*
X175799273Y-98473797D01*
X175769344Y-98536932D01*
X175710032Y-98573863D01*
X175640169Y-98572865D01*
X175581937Y-98534255D01*
X175554327Y-98473797D01*
X175539115Y-98377758D01*
X175539115Y-98377755D01*
X175482648Y-98203969D01*
X175399691Y-98041156D01*
X175292285Y-97893324D01*
X175163076Y-97764115D01*
X175056584Y-97686744D01*
X175013920Y-97631415D01*
X175010000Y-97616127D01*
X175009401Y-97616288D01*
X175004652Y-97598558D01*
X175004652Y-97598557D01*
X174996253Y-97567214D01*
X174966377Y-97455715D01*
X174923462Y-97381385D01*
X174923462Y-97381383D01*
X174887324Y-97318790D01*
X174887321Y-97318786D01*
X174887320Y-97318784D01*
X174775516Y-97206980D01*
X174775515Y-97206979D01*
X174771185Y-97202649D01*
X174771174Y-97202639D01*
X174081419Y-96512884D01*
X174047934Y-96451561D01*
X174045100Y-96425203D01*
X174045100Y-93613668D01*
X174064785Y-93546629D01*
X174117589Y-93500874D01*
X174186747Y-93490930D01*
X174188433Y-93491185D01*
X174242565Y-93499758D01*
X174315431Y-93511300D01*
X174315435Y-93511300D01*
X174498170Y-93511300D01*
X174598431Y-93495419D01*
X174678645Y-93482715D01*
X174852431Y-93426248D01*
X175015244Y-93343291D01*
X175163076Y-93235885D01*
X175292285Y-93106676D01*
X175399691Y-92958844D01*
X175482648Y-92796031D01*
X175539115Y-92622245D01*
X175554327Y-92526202D01*
X175584256Y-92463067D01*
X175643568Y-92426136D01*
X175713430Y-92427134D01*
X175771663Y-92465744D01*
X175799273Y-92526202D01*
X175814484Y-92622241D01*
X175814485Y-92622245D01*
X175870952Y-92796031D01*
X175953909Y-92958844D01*
X176061315Y-93106676D01*
X176190524Y-93235885D01*
X176338356Y-93343291D01*
X176501169Y-93426248D01*
X176674955Y-93482715D01*
X176742635Y-93493434D01*
X176855430Y-93511300D01*
X176855435Y-93511300D01*
X177038170Y-93511300D01*
X177138431Y-93495419D01*
X177218645Y-93482715D01*
X177392431Y-93426248D01*
X177555244Y-93343291D01*
X177703076Y-93235885D01*
X177832285Y-93106676D01*
X177939691Y-92958844D01*
X178022648Y-92796031D01*
X178079115Y-92622245D01*
X178094327Y-92526202D01*
X178107700Y-92441770D01*
X178107700Y-90938229D01*
X178079115Y-90757758D01*
X178079115Y-90757755D01*
X178022648Y-90583969D01*
X177939691Y-90421156D01*
X177832285Y-90273324D01*
X177703076Y-90144115D01*
X177555244Y-90036709D01*
X177392431Y-89953752D01*
X177218645Y-89897285D01*
X177218643Y-89897284D01*
X177218641Y-89897284D01*
X177038170Y-89868700D01*
X177038165Y-89868700D01*
X176855435Y-89868700D01*
X176855430Y-89868700D01*
X176674958Y-89897284D01*
X176501166Y-89953753D01*
X176338355Y-90036709D01*
X176190521Y-90144117D01*
X176061317Y-90273321D01*
X175953909Y-90421155D01*
X175870953Y-90583966D01*
X175814484Y-90757758D01*
X175799273Y-90853797D01*
X175769344Y-90916932D01*
X175710032Y-90953863D01*
X175640169Y-90952865D01*
X175581937Y-90914255D01*
X175554327Y-90853797D01*
X175539115Y-90757758D01*
X175539115Y-90757755D01*
X175482648Y-90583969D01*
X175399691Y-90421156D01*
X175292285Y-90273324D01*
X175163076Y-90144115D01*
X175058413Y-90068073D01*
X175015749Y-90012744D01*
X175007300Y-89967756D01*
X175007300Y-83972460D01*
X175007301Y-83972447D01*
X175007301Y-83804344D01*
X174966376Y-83651614D01*
X174966373Y-83651609D01*
X174887324Y-83514690D01*
X174887318Y-83514682D01*
X171672633Y-80299998D01*
X180957145Y-80299998D01*
X180957145Y-80300001D01*
X180976539Y-80571160D01*
X180976540Y-80571167D01*
X181017361Y-80758820D01*
X181034325Y-80836801D01*
X181110830Y-81041920D01*
X181129330Y-81091519D01*
X181259609Y-81330107D01*
X181259610Y-81330108D01*
X181259613Y-81330113D01*
X181422529Y-81547742D01*
X181422533Y-81547746D01*
X181422538Y-81547752D01*
X181614747Y-81739961D01*
X181614753Y-81739966D01*
X181614758Y-81739971D01*
X181832387Y-81902887D01*
X181832391Y-81902889D01*
X181832392Y-81902890D01*
X182070981Y-82033169D01*
X182070980Y-82033169D01*
X182070984Y-82033170D01*
X182070987Y-82033172D01*
X182325699Y-82128175D01*
X182591340Y-82185961D01*
X182843105Y-82203967D01*
X182862499Y-82205355D01*
X182862500Y-82205355D01*
X182862501Y-82205355D01*
X182880600Y-82204060D01*
X183133660Y-82185961D01*
X183399301Y-82128175D01*
X183654013Y-82033172D01*
X183654017Y-82033169D01*
X183654019Y-82033169D01*
X183813060Y-81946326D01*
X183892613Y-81902887D01*
X184110242Y-81739971D01*
X184302471Y-81547742D01*
X184465387Y-81330113D01*
X184591821Y-81098566D01*
X184595669Y-81091519D01*
X184595669Y-81091517D01*
X184595672Y-81091513D01*
X184690675Y-80836801D01*
X184748461Y-80571160D01*
X184767855Y-80300000D01*
X184748461Y-80028840D01*
X184690675Y-79763199D01*
X184595672Y-79508487D01*
X184595670Y-79508484D01*
X184595669Y-79508480D01*
X184465390Y-79269892D01*
X184465389Y-79269891D01*
X184465387Y-79269887D01*
X184302471Y-79052258D01*
X184302466Y-79052253D01*
X184302461Y-79052247D01*
X184110252Y-78860038D01*
X184110246Y-78860033D01*
X184110242Y-78860029D01*
X183892613Y-78697113D01*
X183892608Y-78697110D01*
X183892607Y-78697109D01*
X183654018Y-78566830D01*
X183654019Y-78566830D01*
X183604420Y-78548330D01*
X183399301Y-78471825D01*
X183399294Y-78471823D01*
X183399293Y-78471823D01*
X183133667Y-78414040D01*
X183133660Y-78414039D01*
X182862501Y-78394645D01*
X182862499Y-78394645D01*
X182591339Y-78414039D01*
X182591332Y-78414040D01*
X182325706Y-78471823D01*
X182325702Y-78471824D01*
X182325699Y-78471825D01*
X182198343Y-78519326D01*
X182070980Y-78566830D01*
X181832392Y-78697109D01*
X181832391Y-78697110D01*
X181614759Y-78860028D01*
X181614747Y-78860038D01*
X181422538Y-79052247D01*
X181422528Y-79052259D01*
X181259610Y-79269891D01*
X181259609Y-79269892D01*
X181129330Y-79508480D01*
X181095225Y-79599920D01*
X181034325Y-79763199D01*
X181034324Y-79763202D01*
X181034323Y-79763206D01*
X180976540Y-80028832D01*
X180976539Y-80028839D01*
X180957145Y-80299998D01*
X171672633Y-80299998D01*
X171451990Y-80079355D01*
X171451988Y-80079352D01*
X171333117Y-79960481D01*
X171333116Y-79960480D01*
X171218896Y-79894535D01*
X171218896Y-79894534D01*
X171218891Y-79894533D01*
X171196185Y-79881423D01*
X171196183Y-79881422D01*
X171192399Y-79880408D01*
X171189566Y-79878681D01*
X171188675Y-79878312D01*
X171188732Y-79878172D01*
X171132741Y-79844039D01*
X171102216Y-79781191D01*
X171100500Y-79760635D01*
X171100500Y-76499999D01*
X173782128Y-76499999D01*
X173782128Y-76500000D01*
X173801579Y-76722329D01*
X173801581Y-76722339D01*
X173859341Y-76937905D01*
X173859343Y-76937909D01*
X173859344Y-76937913D01*
X173953665Y-77140186D01*
X174081678Y-77323007D01*
X174239493Y-77480822D01*
X174422314Y-77608835D01*
X174624587Y-77703156D01*
X174840166Y-77760920D01*
X175018033Y-77776481D01*
X175062499Y-77780372D01*
X175062500Y-77780372D01*
X175062501Y-77780372D01*
X175099555Y-77777130D01*
X175284834Y-77760920D01*
X175500413Y-77703156D01*
X175702686Y-77608835D01*
X175885507Y-77480822D01*
X176043322Y-77323007D01*
X176171335Y-77140186D01*
X176265656Y-76937913D01*
X176323420Y-76722334D01*
X176342872Y-76500000D01*
X176323420Y-76277666D01*
X176265656Y-76062087D01*
X176171335Y-75859814D01*
X176043322Y-75676993D01*
X175885507Y-75519178D01*
X175702686Y-75391165D01*
X175500413Y-75296844D01*
X175500409Y-75296843D01*
X175500405Y-75296841D01*
X175284839Y-75239081D01*
X175284829Y-75239079D01*
X175062501Y-75219628D01*
X175062499Y-75219628D01*
X174840170Y-75239079D01*
X174840160Y-75239081D01*
X174624594Y-75296841D01*
X174624587Y-75296843D01*
X174624587Y-75296844D01*
X174422314Y-75391165D01*
X174239493Y-75519178D01*
X174239491Y-75519179D01*
X174239488Y-75519182D01*
X174081682Y-75676988D01*
X173953665Y-75859814D01*
X173859345Y-76062085D01*
X173859341Y-76062094D01*
X173801581Y-76277660D01*
X173801579Y-76277670D01*
X173782128Y-76499999D01*
X171100500Y-76499999D01*
X171100500Y-72699998D01*
X180957145Y-72699998D01*
X180957145Y-72700001D01*
X180976539Y-72971160D01*
X180976540Y-72971167D01*
X181029486Y-73214557D01*
X181034325Y-73236801D01*
X181108472Y-73435596D01*
X181129330Y-73491519D01*
X181259609Y-73730107D01*
X181259610Y-73730108D01*
X181259613Y-73730113D01*
X181422529Y-73947742D01*
X181422533Y-73947746D01*
X181422538Y-73947752D01*
X181614747Y-74139961D01*
X181614753Y-74139966D01*
X181614758Y-74139971D01*
X181832387Y-74302887D01*
X181832391Y-74302889D01*
X181832392Y-74302890D01*
X182070981Y-74433169D01*
X182070980Y-74433169D01*
X182070984Y-74433170D01*
X182070987Y-74433172D01*
X182325699Y-74528175D01*
X182591340Y-74585961D01*
X182843105Y-74603967D01*
X182862499Y-74605355D01*
X182862500Y-74605355D01*
X182862501Y-74605355D01*
X182880600Y-74604060D01*
X183133660Y-74585961D01*
X183399301Y-74528175D01*
X183654013Y-74433172D01*
X183654017Y-74433169D01*
X183654019Y-74433169D01*
X183844640Y-74329082D01*
X183892613Y-74302887D01*
X184110242Y-74139971D01*
X184302471Y-73947742D01*
X184465387Y-73730113D01*
X184595672Y-73491513D01*
X184690675Y-73236801D01*
X184748461Y-72971160D01*
X184767855Y-72700000D01*
X184748461Y-72428840D01*
X184690675Y-72163199D01*
X184595672Y-71908487D01*
X184595670Y-71908484D01*
X184595669Y-71908480D01*
X184465390Y-71669892D01*
X184465389Y-71669891D01*
X184465387Y-71669887D01*
X184302471Y-71452258D01*
X184302466Y-71452253D01*
X184302461Y-71452247D01*
X184110252Y-71260038D01*
X184110246Y-71260033D01*
X184110242Y-71260029D01*
X183892613Y-71097113D01*
X183892608Y-71097110D01*
X183892607Y-71097109D01*
X183654018Y-70966830D01*
X183654019Y-70966830D01*
X183604420Y-70948330D01*
X183399301Y-70871825D01*
X183399294Y-70871823D01*
X183399293Y-70871823D01*
X183133667Y-70814040D01*
X183133660Y-70814039D01*
X182862501Y-70794645D01*
X182862499Y-70794645D01*
X182591339Y-70814039D01*
X182591332Y-70814040D01*
X182325706Y-70871823D01*
X182325702Y-70871824D01*
X182325699Y-70871825D01*
X182198343Y-70919326D01*
X182070980Y-70966830D01*
X181832392Y-71097109D01*
X181832391Y-71097110D01*
X181614759Y-71260028D01*
X181614747Y-71260038D01*
X181422538Y-71452247D01*
X181422528Y-71452259D01*
X181259610Y-71669891D01*
X181259609Y-71669892D01*
X181129330Y-71908480D01*
X181089099Y-72016345D01*
X181034325Y-72163199D01*
X181034324Y-72163202D01*
X181034323Y-72163206D01*
X180976540Y-72428832D01*
X180976539Y-72428839D01*
X180957145Y-72699998D01*
X171100500Y-72699998D01*
X171100500Y-72651692D01*
X171120185Y-72584653D01*
X171153374Y-72550119D01*
X171339139Y-72420047D01*
X171500047Y-72259139D01*
X171630568Y-72072734D01*
X171726739Y-71866496D01*
X171785635Y-71646692D01*
X171804090Y-71435750D01*
X171805468Y-71420001D01*
X171805468Y-71419998D01*
X171785635Y-71193313D01*
X171785635Y-71193308D01*
X171726739Y-70973504D01*
X171630568Y-70767266D01*
X171507324Y-70591254D01*
X171500045Y-70580858D01*
X171339141Y-70419954D01*
X171152734Y-70289432D01*
X171152732Y-70289431D01*
X170946497Y-70193261D01*
X170946488Y-70193258D01*
X170726697Y-70134366D01*
X170726693Y-70134365D01*
X170726692Y-70134365D01*
X170726691Y-70134364D01*
X170726686Y-70134364D01*
X170500002Y-70114532D01*
X170499998Y-70114532D01*
X170273313Y-70134364D01*
X170273302Y-70134366D01*
X170053511Y-70193258D01*
X170053502Y-70193261D01*
X169847267Y-70289431D01*
X169847265Y-70289432D01*
X169660858Y-70419954D01*
X169499954Y-70580858D01*
X169369432Y-70767265D01*
X169369431Y-70767267D01*
X169273261Y-70973502D01*
X169273258Y-70973511D01*
X169214366Y-71193302D01*
X169214364Y-71193313D01*
X169194532Y-71419998D01*
X169194532Y-71420001D01*
X169214364Y-71646686D01*
X169214366Y-71646697D01*
X169273258Y-71866488D01*
X169273261Y-71866497D01*
X169369431Y-72072732D01*
X169369432Y-72072734D01*
X169499954Y-72259141D01*
X169660858Y-72420045D01*
X169660861Y-72420047D01*
X169846624Y-72550118D01*
X169890248Y-72604693D01*
X169899500Y-72651692D01*
X169899500Y-79763074D01*
X169879815Y-79830113D01*
X169827011Y-79875868D01*
X169820397Y-79878245D01*
X169820425Y-79878312D01*
X169812916Y-79881422D01*
X169796292Y-79891020D01*
X169790205Y-79894535D01*
X169733094Y-79927507D01*
X169675985Y-79960479D01*
X169675982Y-79960481D01*
X168437593Y-81198871D01*
X167217986Y-82418478D01*
X167217984Y-82418480D01*
X167162082Y-82474381D01*
X167106181Y-82530282D01*
X167106180Y-82530284D01*
X167095194Y-82549313D01*
X167027123Y-82667215D01*
X166986199Y-82819943D01*
X166986199Y-82819945D01*
X166986199Y-82988046D01*
X166986200Y-82988059D01*
X166986200Y-92762802D01*
X166966515Y-92829841D01*
X166949881Y-92850483D01*
X163019481Y-96780882D01*
X163019479Y-96780885D01*
X162969361Y-96867694D01*
X162969359Y-96867696D01*
X162940425Y-96917809D01*
X162940424Y-96917810D01*
X162906443Y-97044629D01*
X162870077Y-97104289D01*
X162848680Y-97119915D01*
X162847272Y-97120727D01*
X162660858Y-97251254D01*
X162499954Y-97412158D01*
X162369432Y-97598565D01*
X162369431Y-97598567D01*
X162273261Y-97804802D01*
X162273258Y-97804811D01*
X162214366Y-98024602D01*
X162214364Y-98024613D01*
X162194532Y-98251298D01*
X159748485Y-98251298D01*
X159731669Y-98102050D01*
X159731668Y-98102045D01*
X159730344Y-98098261D01*
X159672089Y-97931778D01*
X159576116Y-97779038D01*
X159576114Y-97779036D01*
X159576113Y-97779034D01*
X159573850Y-97776196D01*
X159572959Y-97774015D01*
X159572411Y-97773142D01*
X159572564Y-97773045D01*
X159547444Y-97711509D01*
X159546800Y-97698887D01*
X159546800Y-89886542D01*
X159566485Y-89819503D01*
X159619289Y-89773748D01*
X159688447Y-89763804D01*
X159702886Y-89766765D01*
X159773308Y-89785635D01*
X159935230Y-89799801D01*
X159999998Y-89805468D01*
X160000000Y-89805468D01*
X160000002Y-89805468D01*
X160056673Y-89800509D01*
X160226692Y-89785635D01*
X160446496Y-89726739D01*
X160652734Y-89630568D01*
X160839139Y-89500047D01*
X161000047Y-89339139D01*
X161130568Y-89152734D01*
X161226739Y-88946496D01*
X161285635Y-88726692D01*
X161305468Y-88500000D01*
X161302701Y-88468378D01*
X161291960Y-88345606D01*
X161285635Y-88273308D01*
X161236866Y-88091298D01*
X162194532Y-88091298D01*
X162194532Y-88091301D01*
X162214364Y-88317986D01*
X162214366Y-88317997D01*
X162273258Y-88537788D01*
X162273261Y-88537797D01*
X162369431Y-88744032D01*
X162369432Y-88744034D01*
X162499954Y-88930441D01*
X162660858Y-89091345D01*
X162660861Y-89091347D01*
X162847266Y-89221868D01*
X163053504Y-89318039D01*
X163053509Y-89318040D01*
X163053511Y-89318041D01*
X163106415Y-89332216D01*
X163273308Y-89376935D01*
X163435230Y-89391101D01*
X163499998Y-89396768D01*
X163500000Y-89396768D01*
X163500002Y-89396768D01*
X163556673Y-89391809D01*
X163726692Y-89376935D01*
X163946496Y-89318039D01*
X164152734Y-89221868D01*
X164339139Y-89091347D01*
X164500047Y-88930439D01*
X164630568Y-88744034D01*
X164726739Y-88537796D01*
X164785635Y-88317992D01*
X164805468Y-88091300D01*
X164785635Y-87864608D01*
X164739268Y-87691564D01*
X164726741Y-87644811D01*
X164726738Y-87644802D01*
X164630568Y-87438567D01*
X164630567Y-87438565D01*
X164582465Y-87369868D01*
X164500047Y-87252161D01*
X164500045Y-87252158D01*
X164339141Y-87091254D01*
X164152734Y-86960732D01*
X164152732Y-86960731D01*
X163946497Y-86864561D01*
X163946488Y-86864558D01*
X163726697Y-86805666D01*
X163726693Y-86805665D01*
X163726692Y-86805665D01*
X163726691Y-86805664D01*
X163726686Y-86805664D01*
X163500002Y-86785832D01*
X163499998Y-86785832D01*
X163273313Y-86805664D01*
X163273302Y-86805666D01*
X163053511Y-86864558D01*
X163053502Y-86864561D01*
X162847267Y-86960731D01*
X162847265Y-86960732D01*
X162660858Y-87091254D01*
X162499954Y-87252158D01*
X162369432Y-87438565D01*
X162369431Y-87438567D01*
X162273261Y-87644802D01*
X162273258Y-87644811D01*
X162214366Y-87864602D01*
X162214364Y-87864613D01*
X162194532Y-88091298D01*
X161236866Y-88091298D01*
X161226739Y-88053504D01*
X161130568Y-87847266D01*
X161000047Y-87660861D01*
X161000045Y-87660858D01*
X160839141Y-87499954D01*
X160652734Y-87369432D01*
X160652732Y-87369431D01*
X160446497Y-87273261D01*
X160446488Y-87273258D01*
X160226697Y-87214366D01*
X160226693Y-87214365D01*
X160226692Y-87214365D01*
X160226691Y-87214364D01*
X160226686Y-87214364D01*
X160000002Y-87194532D01*
X159999998Y-87194532D01*
X159773313Y-87214364D01*
X159773302Y-87214366D01*
X159553511Y-87273258D01*
X159553502Y-87273261D01*
X159347267Y-87369431D01*
X159347265Y-87369432D01*
X159160858Y-87499954D01*
X158999954Y-87660858D01*
X158869432Y-87847265D01*
X158869431Y-87847267D01*
X158773261Y-88053502D01*
X158773258Y-88053511D01*
X158714366Y-88273302D01*
X158714364Y-88273313D01*
X158694532Y-88499998D01*
X158694532Y-88500001D01*
X158714364Y-88726686D01*
X158714366Y-88726697D01*
X158740152Y-88822931D01*
X158738489Y-88892781D01*
X158708059Y-88942705D01*
X158577586Y-89073178D01*
X158465781Y-89184982D01*
X158465779Y-89184985D01*
X158415661Y-89271794D01*
X158415659Y-89271796D01*
X158386725Y-89321909D01*
X158386724Y-89321910D01*
X158386723Y-89321915D01*
X158345799Y-89474643D01*
X158345799Y-89474645D01*
X158345799Y-89642746D01*
X158345800Y-89642759D01*
X158345800Y-97698887D01*
X158326115Y-97765926D01*
X158318750Y-97776196D01*
X158316486Y-97779034D01*
X158220511Y-97931776D01*
X158160931Y-98102045D01*
X158160930Y-98102050D01*
X158140735Y-98281296D01*
X147898612Y-98281296D01*
X147986689Y-98141122D01*
X148046268Y-97970855D01*
X148055004Y-97893321D01*
X148066465Y-97791603D01*
X148066465Y-97791596D01*
X148046269Y-97612350D01*
X148046268Y-97612345D01*
X148041447Y-97598567D01*
X147986689Y-97442078D01*
X147981934Y-97434511D01*
X147893879Y-97294372D01*
X147890716Y-97289338D01*
X147763162Y-97161784D01*
X147735319Y-97144289D01*
X147610423Y-97065811D01*
X147440154Y-97006231D01*
X147440149Y-97006230D01*
X147260904Y-96986035D01*
X147260896Y-96986035D01*
X147081650Y-97006230D01*
X147081645Y-97006231D01*
X146911376Y-97065811D01*
X146758636Y-97161785D01*
X146755803Y-97164045D01*
X146753624Y-97164934D01*
X146752742Y-97165489D01*
X146752644Y-97165334D01*
X146691117Y-97190455D01*
X146678488Y-97191100D01*
X144773940Y-97191100D01*
X144733019Y-97202064D01*
X144733019Y-97202065D01*
X144695751Y-97212051D01*
X144621214Y-97232023D01*
X144621209Y-97232026D01*
X144484290Y-97311075D01*
X144484282Y-97311081D01*
X144372478Y-97422886D01*
X142602765Y-99192598D01*
X142541442Y-99226083D01*
X142528968Y-99228137D01*
X142442050Y-99237930D01*
X142271778Y-99297510D01*
X142119037Y-99393484D01*
X141991484Y-99521037D01*
X141987141Y-99526484D01*
X141985301Y-99525017D01*
X141941251Y-99563975D01*
X141872196Y-99574618D01*
X141808350Y-99546238D01*
X141769983Y-99487846D01*
X141764600Y-99451708D01*
X141764600Y-95310397D01*
X141784285Y-95243358D01*
X141800919Y-95222716D01*
X142944413Y-94079222D01*
X144146336Y-92877298D01*
X144207657Y-92843815D01*
X144220110Y-92841763D01*
X144307055Y-92831968D01*
X144477322Y-92772389D01*
X144630062Y-92676416D01*
X144757616Y-92548862D01*
X144853589Y-92396122D01*
X144913168Y-92225855D01*
X144933365Y-92046600D01*
X144930219Y-92018681D01*
X144913169Y-91867350D01*
X144913168Y-91867345D01*
X144853588Y-91697076D01*
X144757615Y-91544337D01*
X144630062Y-91416784D01*
X144477323Y-91320811D01*
X144307054Y-91261231D01*
X144307049Y-91261230D01*
X144127804Y-91241035D01*
X144127796Y-91241035D01*
X143948550Y-91261230D01*
X143948545Y-91261231D01*
X143778276Y-91320811D01*
X143625537Y-91416784D01*
X143497984Y-91544337D01*
X143402010Y-91697078D01*
X143342430Y-91867350D01*
X143332637Y-91954267D01*
X143305570Y-92018681D01*
X143297098Y-92028064D01*
X140795386Y-94529778D01*
X140683581Y-94641582D01*
X140683579Y-94641584D01*
X140667198Y-94669958D01*
X140660274Y-94681952D01*
X140604523Y-94778515D01*
X140563599Y-94931243D01*
X140563599Y-94931245D01*
X140563599Y-95099346D01*
X140563600Y-95099359D01*
X140563600Y-100220587D01*
X140543915Y-100287626D01*
X140536550Y-100297896D01*
X140534286Y-100300734D01*
X140438311Y-100453476D01*
X140378731Y-100623745D01*
X140378730Y-100623750D01*
X140358535Y-100802996D01*
X136042265Y-100802996D01*
X136022069Y-100623750D01*
X136022068Y-100623745D01*
X135962488Y-100453476D01*
X135866513Y-100300734D01*
X135864250Y-100297896D01*
X135863359Y-100295715D01*
X135862811Y-100294842D01*
X135862964Y-100294745D01*
X135837844Y-100233209D01*
X135837200Y-100220587D01*
X135837200Y-93405759D01*
X135837201Y-93405746D01*
X135837201Y-93237645D01*
X135837201Y-93237643D01*
X135796277Y-93084915D01*
X135767339Y-93034795D01*
X135717220Y-92947984D01*
X135605416Y-92836180D01*
X135605415Y-92836179D01*
X135601085Y-92831849D01*
X135601074Y-92831839D01*
X133291941Y-90522706D01*
X133258456Y-90461383D01*
X133259847Y-90402931D01*
X133260714Y-90399696D01*
X133285635Y-90306692D01*
X133305468Y-90080000D01*
X133304308Y-90066746D01*
X133289482Y-89897284D01*
X133285635Y-89853308D01*
X133226739Y-89633504D01*
X133130568Y-89427266D01*
X133000047Y-89240861D01*
X133000045Y-89240858D01*
X132839141Y-89079954D01*
X132652734Y-88949432D01*
X132652732Y-88949431D01*
X132446497Y-88853261D01*
X132446488Y-88853258D01*
X132226697Y-88794366D01*
X132226693Y-88794365D01*
X132226692Y-88794365D01*
X132226691Y-88794364D01*
X132226686Y-88794364D01*
X132000002Y-88774532D01*
X131999998Y-88774532D01*
X131773313Y-88794364D01*
X131773302Y-88794366D01*
X131553511Y-88853258D01*
X131553502Y-88853261D01*
X131347267Y-88949431D01*
X131347265Y-88949432D01*
X131160858Y-89079954D01*
X131127481Y-89113332D01*
X131066158Y-89146817D01*
X130996466Y-89141833D01*
X130940533Y-89099961D01*
X130916116Y-89034497D01*
X130915800Y-89025651D01*
X130915800Y-88499997D01*
X135615034Y-88499997D01*
X135615034Y-88500002D01*
X135634858Y-88726599D01*
X135634860Y-88726610D01*
X135693730Y-88946317D01*
X135693734Y-88946327D01*
X135789863Y-89152478D01*
X135840974Y-89225472D01*
X136520000Y-88546446D01*
X136520000Y-88552661D01*
X136547259Y-88654394D01*
X136599920Y-88745606D01*
X136674394Y-88820080D01*
X136765606Y-88872741D01*
X136867339Y-88900000D01*
X136873553Y-88900000D01*
X136194526Y-89579025D01*
X136267513Y-89630132D01*
X136267521Y-89630136D01*
X136473668Y-89726264D01*
X136473682Y-89726269D01*
X136693389Y-89785139D01*
X136693400Y-89785141D01*
X136919998Y-89804966D01*
X136920002Y-89804966D01*
X137146599Y-89785141D01*
X137146610Y-89785139D01*
X137366317Y-89726269D01*
X137366331Y-89726264D01*
X137572478Y-89630136D01*
X137645471Y-89579024D01*
X136966447Y-88900000D01*
X136972661Y-88900000D01*
X137074394Y-88872741D01*
X137165606Y-88820080D01*
X137240080Y-88745606D01*
X137292741Y-88654394D01*
X137320000Y-88552661D01*
X137320000Y-88546447D01*
X137999024Y-89225471D01*
X138050136Y-89152478D01*
X138146266Y-88946327D01*
X138146269Y-88946317D01*
X138205139Y-88726610D01*
X138205141Y-88726599D01*
X138224966Y-88500002D01*
X138224966Y-88499997D01*
X138205141Y-88273400D01*
X138205139Y-88273389D01*
X138146269Y-88053682D01*
X138146264Y-88053668D01*
X138050136Y-87847521D01*
X138050132Y-87847513D01*
X137999025Y-87774526D01*
X137320000Y-88453551D01*
X137320000Y-88447339D01*
X137292741Y-88345606D01*
X137240080Y-88254394D01*
X137165606Y-88179920D01*
X137074394Y-88127259D01*
X136972661Y-88100000D01*
X136966445Y-88100000D01*
X137645472Y-87420974D01*
X137572478Y-87369863D01*
X137366331Y-87273735D01*
X137366317Y-87273730D01*
X137146610Y-87214860D01*
X137146599Y-87214858D01*
X136920002Y-87195034D01*
X136919998Y-87195034D01*
X136693400Y-87214858D01*
X136693389Y-87214860D01*
X136473682Y-87273730D01*
X136473673Y-87273734D01*
X136267516Y-87369866D01*
X136267512Y-87369868D01*
X136194526Y-87420973D01*
X136194526Y-87420974D01*
X136873553Y-88100000D01*
X136867339Y-88100000D01*
X136765606Y-88127259D01*
X136674394Y-88179920D01*
X136599920Y-88254394D01*
X136547259Y-88345606D01*
X136520000Y-88447339D01*
X136520000Y-88453552D01*
X135840974Y-87774526D01*
X135840973Y-87774526D01*
X135789868Y-87847512D01*
X135789866Y-87847516D01*
X135693734Y-88053673D01*
X135693730Y-88053682D01*
X135634860Y-88273389D01*
X135634858Y-88273400D01*
X135615034Y-88499997D01*
X130915800Y-88499997D01*
X130915800Y-81249999D01*
X135609927Y-81249999D01*
X135609928Y-81250000D01*
X136573114Y-81250000D01*
X136568720Y-81254394D01*
X136516059Y-81345606D01*
X136488800Y-81447339D01*
X136488800Y-81552661D01*
X136516059Y-81654394D01*
X136568720Y-81745606D01*
X136573114Y-81750000D01*
X135609928Y-81750000D01*
X135662530Y-81946317D01*
X135662534Y-81946326D01*
X135758665Y-82152482D01*
X135889142Y-82338820D01*
X136049979Y-82499657D01*
X136236317Y-82630134D01*
X136442473Y-82726265D01*
X136442482Y-82726269D01*
X136638799Y-82778872D01*
X136638800Y-82778871D01*
X136638800Y-81815686D01*
X136643194Y-81820080D01*
X136734406Y-81872741D01*
X136836139Y-81900000D01*
X136941461Y-81900000D01*
X137043194Y-81872741D01*
X137134406Y-81820080D01*
X137138800Y-81815686D01*
X137138800Y-82778872D01*
X137335117Y-82726269D01*
X137335126Y-82726265D01*
X137541282Y-82630134D01*
X137727620Y-82499657D01*
X137888457Y-82338820D01*
X138018934Y-82152482D01*
X138115065Y-81946326D01*
X138115069Y-81946317D01*
X138167672Y-81750000D01*
X137204486Y-81750000D01*
X137208880Y-81745606D01*
X137261541Y-81654394D01*
X137288800Y-81552661D01*
X137288800Y-81447339D01*
X137261541Y-81345606D01*
X137208880Y-81254394D01*
X137204486Y-81250000D01*
X138167672Y-81250000D01*
X138167672Y-81249999D01*
X138115069Y-81053682D01*
X138115065Y-81053673D01*
X138018934Y-80847517D01*
X137915707Y-80700096D01*
X142916435Y-80700096D01*
X142916435Y-80700103D01*
X142936630Y-80879349D01*
X142936631Y-80879354D01*
X142996211Y-81049623D01*
X143056936Y-81146265D01*
X143092184Y-81202362D01*
X143219738Y-81329916D01*
X143372478Y-81425889D01*
X143433779Y-81447339D01*
X143542745Y-81485468D01*
X143542750Y-81485469D01*
X143721996Y-81505665D01*
X143722000Y-81505665D01*
X143722004Y-81505665D01*
X143772300Y-81499998D01*
X145743332Y-81499998D01*
X145743332Y-81500001D01*
X145763164Y-81726686D01*
X145763166Y-81726697D01*
X145822058Y-81946488D01*
X145822061Y-81946497D01*
X145918231Y-82152732D01*
X145918232Y-82152734D01*
X146048754Y-82339141D01*
X146209658Y-82500045D01*
X146209661Y-82500047D01*
X146396066Y-82630568D01*
X146602304Y-82726739D01*
X146602309Y-82726740D01*
X146602311Y-82726741D01*
X146655215Y-82740916D01*
X146822108Y-82785635D01*
X146984030Y-82799801D01*
X147048798Y-82805468D01*
X147048800Y-82805468D01*
X147048802Y-82805468D01*
X147105473Y-82800509D01*
X147275492Y-82785635D01*
X147495296Y-82726739D01*
X147511372Y-82719242D01*
X147580446Y-82708748D01*
X147644231Y-82737266D01*
X147682473Y-82795741D01*
X147683030Y-82865608D01*
X147651459Y-82919304D01*
X146711286Y-83859478D01*
X146599481Y-83971282D01*
X146599479Y-83971285D01*
X146549361Y-84058094D01*
X146549359Y-84058096D01*
X146520425Y-84108209D01*
X146520424Y-84108210D01*
X146507314Y-84157139D01*
X146479499Y-84260943D01*
X146479499Y-84260945D01*
X146479499Y-84429046D01*
X146479500Y-84429059D01*
X146479500Y-87268306D01*
X146459815Y-87335345D01*
X146426623Y-87369881D01*
X146240859Y-87499953D01*
X146079954Y-87660858D01*
X145949432Y-87847265D01*
X145949431Y-87847267D01*
X145853261Y-88053502D01*
X145853258Y-88053511D01*
X145794366Y-88273302D01*
X145794364Y-88273313D01*
X145774532Y-88499998D01*
X145774532Y-88500001D01*
X145794364Y-88726686D01*
X145794366Y-88726697D01*
X145853258Y-88946488D01*
X145853261Y-88946497D01*
X145949431Y-89152732D01*
X145949432Y-89152734D01*
X146079954Y-89339141D01*
X146240858Y-89500045D01*
X146240861Y-89500047D01*
X146427266Y-89630568D01*
X146633504Y-89726739D01*
X146853308Y-89785635D01*
X147015230Y-89799801D01*
X147079998Y-89805468D01*
X147080000Y-89805468D01*
X147080002Y-89805468D01*
X147136673Y-89800509D01*
X147306692Y-89785635D01*
X147526496Y-89726739D01*
X147732734Y-89630568D01*
X147919139Y-89500047D01*
X148080047Y-89339139D01*
X148210568Y-89152734D01*
X148306739Y-88946496D01*
X148340225Y-88821524D01*
X148376590Y-88761863D01*
X148439437Y-88731334D01*
X148508812Y-88739629D01*
X148562690Y-88784114D01*
X148579775Y-88821524D01*
X148613258Y-88946488D01*
X148613261Y-88946497D01*
X148709431Y-89152732D01*
X148709432Y-89152734D01*
X148839954Y-89339141D01*
X149000858Y-89500045D01*
X149000861Y-89500047D01*
X149186624Y-89630118D01*
X149230248Y-89684693D01*
X149239500Y-89731692D01*
X149239500Y-92426430D01*
X149239499Y-92426448D01*
X149239499Y-92592154D01*
X149239498Y-92592154D01*
X149280423Y-92744887D01*
X149287488Y-92757123D01*
X149287490Y-92757125D01*
X149359477Y-92881812D01*
X149359481Y-92881817D01*
X149478349Y-93000685D01*
X149478355Y-93000690D01*
X152187498Y-95709834D01*
X152220983Y-95771157D01*
X152223037Y-95783631D01*
X152232830Y-95870549D01*
X152232831Y-95870554D01*
X152232832Y-95870555D01*
X152235703Y-95878760D01*
X152292410Y-96040821D01*
X152311979Y-96071965D01*
X152388384Y-96193562D01*
X152515938Y-96321116D01*
X152573663Y-96357387D01*
X152641089Y-96399754D01*
X152668678Y-96417089D01*
X152838651Y-96476565D01*
X152838945Y-96476668D01*
X152838950Y-96476669D01*
X153018196Y-96496865D01*
X153018200Y-96496865D01*
X153018204Y-96496865D01*
X153197449Y-96476669D01*
X153197452Y-96476668D01*
X153197455Y-96476668D01*
X153367722Y-96417089D01*
X153520462Y-96321116D01*
X153648016Y-96193562D01*
X153743989Y-96040822D01*
X153803568Y-95870555D01*
X153803569Y-95870549D01*
X153823765Y-95691303D01*
X153823765Y-95691296D01*
X153803569Y-95512050D01*
X153803568Y-95512045D01*
X153743988Y-95341776D01*
X153691998Y-95259035D01*
X153648016Y-95189038D01*
X153520462Y-95061484D01*
X153367721Y-94965510D01*
X153197449Y-94905930D01*
X153110531Y-94896137D01*
X153046117Y-94869070D01*
X153036734Y-94860598D01*
X150476819Y-92300683D01*
X150443334Y-92239360D01*
X150440500Y-92213002D01*
X150440500Y-90377296D01*
X155177035Y-90377296D01*
X155177035Y-90377303D01*
X155197230Y-90556549D01*
X155197231Y-90556554D01*
X155256811Y-90726823D01*
X155352785Y-90879563D01*
X155355045Y-90882397D01*
X155355934Y-90884575D01*
X155356489Y-90885458D01*
X155356334Y-90885555D01*
X155381455Y-90947083D01*
X155382100Y-90959712D01*
X155382100Y-94028387D01*
X155362415Y-94095426D01*
X155355050Y-94105696D01*
X155352786Y-94108534D01*
X155256811Y-94261276D01*
X155197231Y-94431545D01*
X155197230Y-94431550D01*
X155177035Y-94610796D01*
X155177035Y-94610803D01*
X155197230Y-94790049D01*
X155197231Y-94790054D01*
X155256811Y-94960323D01*
X155260071Y-94965511D01*
X155352784Y-95113062D01*
X155480338Y-95240616D01*
X155633078Y-95336589D01*
X155803345Y-95396168D01*
X155803350Y-95396169D01*
X155982596Y-95416365D01*
X155982600Y-95416365D01*
X155982604Y-95416365D01*
X156161849Y-95396169D01*
X156161852Y-95396168D01*
X156161855Y-95396168D01*
X156332122Y-95336589D01*
X156484862Y-95240616D01*
X156612416Y-95113062D01*
X156708389Y-94960322D01*
X156767968Y-94790055D01*
X156768051Y-94789317D01*
X156788165Y-94610803D01*
X156788165Y-94610796D01*
X156767969Y-94431550D01*
X156767968Y-94431545D01*
X156708388Y-94261276D01*
X156612413Y-94108534D01*
X156610150Y-94105696D01*
X156609259Y-94103515D01*
X156608711Y-94102642D01*
X156608864Y-94102545D01*
X156583744Y-94041009D01*
X156583100Y-94028387D01*
X156583100Y-90959712D01*
X156602785Y-90892673D01*
X156610155Y-90882397D01*
X156612410Y-90879567D01*
X156612416Y-90879562D01*
X156708389Y-90726822D01*
X156767968Y-90556555D01*
X156777486Y-90472083D01*
X156788165Y-90377303D01*
X156788165Y-90377296D01*
X156767969Y-90198050D01*
X156767968Y-90198045D01*
X156745143Y-90132816D01*
X156708389Y-90027778D01*
X156706816Y-90025275D01*
X156662526Y-89954788D01*
X156612416Y-89875038D01*
X156612414Y-89875036D01*
X156612413Y-89875034D01*
X156610150Y-89872196D01*
X156609259Y-89870015D01*
X156608711Y-89869142D01*
X156608864Y-89869045D01*
X156583744Y-89807509D01*
X156583100Y-89794887D01*
X156583100Y-81499998D01*
X158774532Y-81499998D01*
X158774532Y-81500001D01*
X158794364Y-81726686D01*
X158794366Y-81726697D01*
X158853258Y-81946488D01*
X158853261Y-81946497D01*
X158949431Y-82152732D01*
X158949432Y-82152734D01*
X159079954Y-82339141D01*
X159240858Y-82500045D01*
X159240861Y-82500047D01*
X159427266Y-82630568D01*
X159633504Y-82726739D01*
X159633509Y-82726740D01*
X159633511Y-82726741D01*
X159686415Y-82740916D01*
X159853308Y-82785635D01*
X160015230Y-82799801D01*
X160079998Y-82805468D01*
X160080000Y-82805468D01*
X160080002Y-82805468D01*
X160136673Y-82800509D01*
X160306692Y-82785635D01*
X160526496Y-82726739D01*
X160732734Y-82630568D01*
X160919139Y-82500047D01*
X161080047Y-82339139D01*
X161210568Y-82152734D01*
X161306739Y-81946496D01*
X161359042Y-81751298D01*
X162194532Y-81751298D01*
X162194532Y-81751301D01*
X162214364Y-81977986D01*
X162214366Y-81977997D01*
X162273258Y-82197788D01*
X162273261Y-82197797D01*
X162369431Y-82404032D01*
X162369432Y-82404034D01*
X162499954Y-82590441D01*
X162660858Y-82751345D01*
X162660861Y-82751347D01*
X162847266Y-82881868D01*
X163053504Y-82978039D01*
X163273308Y-83036935D01*
X163435230Y-83051101D01*
X163499998Y-83056768D01*
X163500000Y-83056768D01*
X163500002Y-83056768D01*
X163556673Y-83051809D01*
X163726692Y-83036935D01*
X163946496Y-82978039D01*
X164152734Y-82881868D01*
X164339139Y-82751347D01*
X164500047Y-82590439D01*
X164630568Y-82404034D01*
X164726739Y-82197796D01*
X164785635Y-81977992D01*
X164805468Y-81751300D01*
X164785635Y-81524608D01*
X164737672Y-81345606D01*
X164726741Y-81304811D01*
X164726738Y-81304802D01*
X164678969Y-81202362D01*
X164630568Y-81098566D01*
X164500047Y-80912161D01*
X164500045Y-80912158D01*
X164339141Y-80751254D01*
X164152734Y-80620732D01*
X164152732Y-80620731D01*
X163946497Y-80524561D01*
X163946488Y-80524558D01*
X163726697Y-80465666D01*
X163726693Y-80465665D01*
X163726692Y-80465665D01*
X163726691Y-80465664D01*
X163726686Y-80465664D01*
X163500002Y-80445832D01*
X163499998Y-80445832D01*
X163273313Y-80465664D01*
X163273302Y-80465666D01*
X163053511Y-80524558D01*
X163053502Y-80524561D01*
X162847267Y-80620731D01*
X162847265Y-80620732D01*
X162660858Y-80751254D01*
X162499954Y-80912158D01*
X162369432Y-81098565D01*
X162369431Y-81098567D01*
X162273261Y-81304802D01*
X162273258Y-81304811D01*
X162214366Y-81524602D01*
X162214364Y-81524613D01*
X162194532Y-81751298D01*
X161359042Y-81751298D01*
X161365635Y-81726692D01*
X161385468Y-81500000D01*
X161365635Y-81273308D01*
X161306739Y-81053504D01*
X161210568Y-80847266D01*
X161080047Y-80660861D01*
X161080045Y-80660858D01*
X160919141Y-80499954D01*
X160732734Y-80369432D01*
X160732732Y-80369431D01*
X160526497Y-80273261D01*
X160526488Y-80273258D01*
X160306697Y-80214366D01*
X160306693Y-80214365D01*
X160306692Y-80214365D01*
X160306691Y-80214364D01*
X160306686Y-80214364D01*
X160080002Y-80194532D01*
X160079998Y-80194532D01*
X159853313Y-80214364D01*
X159853302Y-80214366D01*
X159633511Y-80273258D01*
X159633502Y-80273261D01*
X159427267Y-80369431D01*
X159427265Y-80369432D01*
X159240858Y-80499954D01*
X159079954Y-80660858D01*
X158949432Y-80847265D01*
X158949431Y-80847267D01*
X158853261Y-81053502D01*
X158853258Y-81053511D01*
X158794366Y-81273302D01*
X158794364Y-81273313D01*
X158774532Y-81499998D01*
X156583100Y-81499998D01*
X156583100Y-73435596D01*
X156602785Y-73368557D01*
X156619415Y-73347919D01*
X156941035Y-73026298D01*
X157002356Y-72992815D01*
X157014811Y-72990763D01*
X157101755Y-72980968D01*
X157272022Y-72921389D01*
X157424762Y-72825416D01*
X157552316Y-72697862D01*
X157648289Y-72545122D01*
X157707868Y-72374855D01*
X157709228Y-72362788D01*
X157728065Y-72195603D01*
X157728065Y-72195596D01*
X157707869Y-72016350D01*
X157707868Y-72016345D01*
X157689734Y-71964522D01*
X157648289Y-71846078D01*
X157630641Y-71817992D01*
X157552315Y-71693337D01*
X157450276Y-71591298D01*
X162194532Y-71591298D01*
X162194532Y-71591301D01*
X162214364Y-71817986D01*
X162214366Y-71817997D01*
X162273258Y-72037788D01*
X162273261Y-72037797D01*
X162369431Y-72244032D01*
X162369432Y-72244034D01*
X162499954Y-72430441D01*
X162660858Y-72591345D01*
X162660861Y-72591347D01*
X162847266Y-72721868D01*
X163053504Y-72818039D01*
X163273308Y-72876935D01*
X163435230Y-72891101D01*
X163499998Y-72896768D01*
X163500000Y-72896768D01*
X163500002Y-72896768D01*
X163556673Y-72891809D01*
X163726692Y-72876935D01*
X163946496Y-72818039D01*
X164152734Y-72721868D01*
X164339139Y-72591347D01*
X164500047Y-72430439D01*
X164630568Y-72244034D01*
X164726739Y-72037796D01*
X164785635Y-71817992D01*
X164805468Y-71591300D01*
X164785635Y-71364608D01*
X164726739Y-71144804D01*
X164630568Y-70938566D01*
X164500047Y-70752161D01*
X164500045Y-70752158D01*
X164339141Y-70591254D01*
X164152734Y-70460732D01*
X164152732Y-70460731D01*
X163946497Y-70364561D01*
X163946488Y-70364558D01*
X163726697Y-70305666D01*
X163726693Y-70305665D01*
X163726692Y-70305665D01*
X163726691Y-70305664D01*
X163726686Y-70305664D01*
X163500002Y-70285832D01*
X163499998Y-70285832D01*
X163273313Y-70305664D01*
X163273302Y-70305666D01*
X163053511Y-70364558D01*
X163053502Y-70364561D01*
X162847267Y-70460731D01*
X162847265Y-70460732D01*
X162660858Y-70591254D01*
X162499954Y-70752158D01*
X162369432Y-70938565D01*
X162369431Y-70938567D01*
X162273261Y-71144802D01*
X162273258Y-71144811D01*
X162214366Y-71364602D01*
X162214364Y-71364613D01*
X162194532Y-71591298D01*
X157450276Y-71591298D01*
X157424762Y-71565784D01*
X157272023Y-71469811D01*
X157101754Y-71410231D01*
X157101749Y-71410230D01*
X156922504Y-71390035D01*
X156922496Y-71390035D01*
X156743250Y-71410230D01*
X156743245Y-71410231D01*
X156572976Y-71469811D01*
X156420237Y-71565784D01*
X156292684Y-71693337D01*
X156196710Y-71846078D01*
X156137130Y-72016350D01*
X156127337Y-72103268D01*
X156100270Y-72167682D01*
X156091798Y-72177065D01*
X155613886Y-72654978D01*
X155502081Y-72766782D01*
X155502079Y-72766785D01*
X155485154Y-72796100D01*
X155468229Y-72825416D01*
X155423023Y-72903715D01*
X155382099Y-73056443D01*
X155382099Y-73056445D01*
X155382099Y-73224546D01*
X155382100Y-73224559D01*
X155382100Y-89794887D01*
X155362415Y-89861926D01*
X155355050Y-89872196D01*
X155352786Y-89875034D01*
X155256811Y-90027776D01*
X155197231Y-90198045D01*
X155197230Y-90198050D01*
X155177035Y-90377296D01*
X150440500Y-90377296D01*
X150440500Y-89731692D01*
X150460185Y-89664653D01*
X150493374Y-89630119D01*
X150679139Y-89500047D01*
X150840047Y-89339139D01*
X150970568Y-89152734D01*
X151066739Y-88946496D01*
X151125635Y-88726692D01*
X151145468Y-88500000D01*
X151142701Y-88468378D01*
X151131960Y-88345606D01*
X151125635Y-88273308D01*
X151066739Y-88053504D01*
X150970568Y-87847266D01*
X150840047Y-87660861D01*
X150840045Y-87660858D01*
X150679141Y-87499954D01*
X150492734Y-87369432D01*
X150492732Y-87369431D01*
X150286497Y-87273261D01*
X150286488Y-87273258D01*
X150066697Y-87214366D01*
X150066693Y-87214365D01*
X150066692Y-87214365D01*
X150066691Y-87214364D01*
X150066686Y-87214364D01*
X149840002Y-87194532D01*
X149839998Y-87194532D01*
X149613313Y-87214364D01*
X149613302Y-87214366D01*
X149393511Y-87273258D01*
X149393502Y-87273261D01*
X149187267Y-87369431D01*
X149187265Y-87369432D01*
X149000858Y-87499954D01*
X148839954Y-87660858D01*
X148709432Y-87847265D01*
X148709431Y-87847267D01*
X148613261Y-88053502D01*
X148613258Y-88053511D01*
X148579775Y-88178475D01*
X148543410Y-88238136D01*
X148480563Y-88268665D01*
X148411188Y-88260370D01*
X148357310Y-88215885D01*
X148340225Y-88178475D01*
X148306741Y-88053511D01*
X148306738Y-88053502D01*
X148210568Y-87847266D01*
X148080047Y-87660861D01*
X148080045Y-87660858D01*
X147919140Y-87499953D01*
X147733377Y-87369881D01*
X147689752Y-87315304D01*
X147680500Y-87268306D01*
X147680500Y-84640096D01*
X147700185Y-84573057D01*
X147716814Y-84552420D01*
X149477294Y-82791939D01*
X149538615Y-82758456D01*
X149597066Y-82759847D01*
X149615152Y-82764693D01*
X149693308Y-82785635D01*
X149855230Y-82799801D01*
X149919998Y-82805468D01*
X149920000Y-82805468D01*
X149920002Y-82805468D01*
X149976673Y-82800509D01*
X150146692Y-82785635D01*
X150366496Y-82726739D01*
X150572734Y-82630568D01*
X150759139Y-82500047D01*
X150920047Y-82339139D01*
X151050568Y-82152734D01*
X151146739Y-81946496D01*
X151205635Y-81726692D01*
X151225468Y-81500000D01*
X151205635Y-81273308D01*
X151146739Y-81053504D01*
X151050568Y-80847266D01*
X150920047Y-80660861D01*
X150920045Y-80660858D01*
X150759141Y-80499954D01*
X150572734Y-80369432D01*
X150572732Y-80369431D01*
X150366497Y-80273261D01*
X150366488Y-80273258D01*
X150146697Y-80214366D01*
X150146693Y-80214365D01*
X150146692Y-80214365D01*
X150146691Y-80214364D01*
X150146686Y-80214364D01*
X149920002Y-80194532D01*
X149919998Y-80194532D01*
X149693313Y-80214364D01*
X149693302Y-80214366D01*
X149473511Y-80273258D01*
X149473502Y-80273261D01*
X149267267Y-80369431D01*
X149267265Y-80369432D01*
X149080858Y-80499954D01*
X148919954Y-80660858D01*
X148789432Y-80847265D01*
X148789431Y-80847267D01*
X148693261Y-81053502D01*
X148693258Y-81053511D01*
X148634366Y-81273302D01*
X148634364Y-81273313D01*
X148614532Y-81499998D01*
X148614532Y-81500001D01*
X148634364Y-81726686D01*
X148634366Y-81726697D01*
X148660152Y-81822931D01*
X148658489Y-81892781D01*
X148628058Y-81942705D01*
X148468104Y-82102659D01*
X148406781Y-82136144D01*
X148337089Y-82131160D01*
X148281156Y-82089288D01*
X148256739Y-82023824D01*
X148268042Y-81962572D01*
X148275539Y-81946496D01*
X148334435Y-81726692D01*
X148354268Y-81500000D01*
X148334435Y-81273308D01*
X148275539Y-81053504D01*
X148179368Y-80847266D01*
X148048847Y-80660861D01*
X148048845Y-80660858D01*
X147887941Y-80499954D01*
X147701534Y-80369432D01*
X147701532Y-80369431D01*
X147495297Y-80273261D01*
X147495288Y-80273258D01*
X147275497Y-80214366D01*
X147275493Y-80214365D01*
X147275492Y-80214365D01*
X147275491Y-80214364D01*
X147275486Y-80214364D01*
X147048802Y-80194532D01*
X147048798Y-80194532D01*
X146822113Y-80214364D01*
X146822102Y-80214366D01*
X146602311Y-80273258D01*
X146602302Y-80273261D01*
X146396067Y-80369431D01*
X146396065Y-80369432D01*
X146209658Y-80499954D01*
X146048754Y-80660858D01*
X145918232Y-80847265D01*
X145918231Y-80847267D01*
X145822061Y-81053502D01*
X145822058Y-81053511D01*
X145763166Y-81273302D01*
X145763164Y-81273313D01*
X145743332Y-81499998D01*
X143772300Y-81499998D01*
X143901249Y-81485469D01*
X143901252Y-81485468D01*
X143901255Y-81485468D01*
X144071522Y-81425889D01*
X144224262Y-81329916D01*
X144351816Y-81202362D01*
X144447789Y-81049622D01*
X144507368Y-80879355D01*
X144507369Y-80879349D01*
X144527565Y-80700103D01*
X144527565Y-80700096D01*
X144507369Y-80520850D01*
X144507368Y-80520845D01*
X144447788Y-80350576D01*
X144399207Y-80273261D01*
X144351816Y-80197838D01*
X144351814Y-80197836D01*
X144351813Y-80197834D01*
X144349550Y-80194996D01*
X144348659Y-80192815D01*
X144348111Y-80191942D01*
X144348264Y-80191845D01*
X144323144Y-80130309D01*
X144322500Y-80117687D01*
X144322500Y-75284597D01*
X144342185Y-75217558D01*
X144358819Y-75196916D01*
X145710838Y-73844897D01*
X147110036Y-72445698D01*
X147171357Y-72412215D01*
X147183810Y-72410163D01*
X147270755Y-72400368D01*
X147441022Y-72340789D01*
X147593762Y-72244816D01*
X147721316Y-72117262D01*
X147817289Y-71964522D01*
X147876868Y-71794255D01*
X147876958Y-71793460D01*
X147897065Y-71615003D01*
X147897065Y-71614996D01*
X147876869Y-71435750D01*
X147876868Y-71435745D01*
X147817288Y-71265476D01*
X147771945Y-71193313D01*
X147721316Y-71112738D01*
X147593762Y-70985184D01*
X147575185Y-70973511D01*
X147441023Y-70889211D01*
X147270754Y-70829631D01*
X147270749Y-70829630D01*
X147091504Y-70809435D01*
X147091496Y-70809435D01*
X146912250Y-70829630D01*
X146912245Y-70829631D01*
X146741976Y-70889211D01*
X146589237Y-70985184D01*
X146461684Y-71112737D01*
X146365710Y-71265478D01*
X146306130Y-71435750D01*
X146296337Y-71522667D01*
X146269270Y-71587081D01*
X146260798Y-71596464D01*
X143353286Y-74503978D01*
X143241481Y-74615782D01*
X143241479Y-74615784D01*
X143220224Y-74652600D01*
X143211240Y-74668162D01*
X143162423Y-74752715D01*
X143121499Y-74905443D01*
X143121499Y-74905445D01*
X143121499Y-75073546D01*
X143121500Y-75073559D01*
X143121500Y-80117687D01*
X143101815Y-80184726D01*
X143094450Y-80194996D01*
X143092186Y-80197834D01*
X142996211Y-80350576D01*
X142936631Y-80520845D01*
X142936630Y-80520850D01*
X142916435Y-80700096D01*
X137915707Y-80700096D01*
X137888457Y-80661179D01*
X137727620Y-80500342D01*
X137541282Y-80369865D01*
X137335128Y-80273734D01*
X137138800Y-80221127D01*
X137138800Y-81184314D01*
X137134406Y-81179920D01*
X137043194Y-81127259D01*
X136941461Y-81100000D01*
X136836139Y-81100000D01*
X136734406Y-81127259D01*
X136643194Y-81179920D01*
X136638800Y-81184314D01*
X136638800Y-80221127D01*
X136442471Y-80273734D01*
X136236317Y-80369865D01*
X136049979Y-80500342D01*
X135889142Y-80661179D01*
X135758665Y-80847517D01*
X135662534Y-81053673D01*
X135662530Y-81053682D01*
X135609927Y-81249999D01*
X130915800Y-81249999D01*
X130915800Y-80973640D01*
X130935485Y-80906601D01*
X130988289Y-80860846D01*
X131057447Y-80850902D01*
X131121003Y-80879927D01*
X131127481Y-80885959D01*
X131161179Y-80919657D01*
X131347517Y-81050134D01*
X131553673Y-81146265D01*
X131553682Y-81146269D01*
X131749999Y-81198872D01*
X131750000Y-81198871D01*
X131750000Y-80235686D01*
X131754394Y-80240080D01*
X131845606Y-80292741D01*
X131947339Y-80320000D01*
X132052661Y-80320000D01*
X132154394Y-80292741D01*
X132245606Y-80240080D01*
X132250000Y-80235686D01*
X132250000Y-81198872D01*
X132446317Y-81146269D01*
X132446326Y-81146265D01*
X132652482Y-81050134D01*
X132838820Y-80919657D01*
X132999657Y-80758820D01*
X133130134Y-80572482D01*
X133226265Y-80366326D01*
X133226269Y-80366317D01*
X133278872Y-80170000D01*
X132315686Y-80170000D01*
X132320080Y-80165606D01*
X132372741Y-80074394D01*
X132400000Y-79972661D01*
X132400000Y-79867339D01*
X132372741Y-79765606D01*
X132320080Y-79674394D01*
X132315686Y-79670000D01*
X133278872Y-79670000D01*
X133278872Y-79669999D01*
X133226269Y-79473682D01*
X133226265Y-79473673D01*
X133130134Y-79267517D01*
X132999657Y-79081179D01*
X132838820Y-78920342D01*
X132652482Y-78789865D01*
X132446328Y-78693734D01*
X132250000Y-78641127D01*
X132250000Y-79604314D01*
X132245606Y-79599920D01*
X132154394Y-79547259D01*
X132052661Y-79520000D01*
X131947339Y-79520000D01*
X131845606Y-79547259D01*
X131754394Y-79599920D01*
X131750000Y-79604314D01*
X131750000Y-78641127D01*
X131553671Y-78693734D01*
X131347517Y-78789865D01*
X131161179Y-78920342D01*
X131127481Y-78954041D01*
X131066158Y-78987526D01*
X130996466Y-78982542D01*
X130940533Y-78940670D01*
X130916116Y-78875206D01*
X130915800Y-78866360D01*
X130915800Y-75117629D01*
X130935485Y-75050590D01*
X130974526Y-75012200D01*
X130981341Y-75007981D01*
X131132064Y-74870579D01*
X131254973Y-74707821D01*
X131345882Y-74525250D01*
X131401697Y-74329083D01*
X131420515Y-74126000D01*
X131411479Y-74028489D01*
X131401697Y-73922917D01*
X131379498Y-73844897D01*
X131345882Y-73726750D01*
X131254973Y-73544179D01*
X131132064Y-73381421D01*
X131132062Y-73381418D01*
X130981341Y-73244019D01*
X130981339Y-73244017D01*
X130807942Y-73136655D01*
X130807935Y-73136651D01*
X130636479Y-73070229D01*
X130581077Y-73027656D01*
X130557487Y-72961889D01*
X130573198Y-72893809D01*
X130623222Y-72845030D01*
X130642945Y-72836675D01*
X130737745Y-72805873D01*
X130892088Y-72727232D01*
X131032228Y-72625414D01*
X131154714Y-72502928D01*
X131256532Y-72362788D01*
X131335173Y-72208445D01*
X131388702Y-72043701D01*
X131415800Y-71872611D01*
X131415800Y-71299389D01*
X131388702Y-71128299D01*
X131335173Y-70963555D01*
X131256532Y-70809212D01*
X131154714Y-70669072D01*
X131032228Y-70546586D01*
X130892088Y-70444768D01*
X130737745Y-70366127D01*
X130573001Y-70312598D01*
X130572999Y-70312597D01*
X130572998Y-70312597D01*
X130441571Y-70291781D01*
X130401911Y-70285500D01*
X130228689Y-70285500D01*
X130189028Y-70291781D01*
X130057602Y-70312597D01*
X129892852Y-70366128D01*
X129738511Y-70444768D01*
X129658556Y-70502859D01*
X129598372Y-70546586D01*
X129598370Y-70546588D01*
X129598369Y-70546588D01*
X129475888Y-70669069D01*
X129475888Y-70669070D01*
X129475886Y-70669072D01*
X129432159Y-70729256D01*
X129374068Y-70809211D01*
X129295428Y-70963552D01*
X129241897Y-71128302D01*
X129214800Y-71299389D01*
X129214800Y-71632000D01*
X129195115Y-71699039D01*
X129142311Y-71744794D01*
X129090800Y-71756000D01*
X128943372Y-71756000D01*
X128742978Y-71793460D01*
X128552888Y-71867100D01*
X128552881Y-71867104D01*
X128464612Y-71921757D01*
X128464611Y-71921758D01*
X122500500Y-71921758D01*
X122500500Y-64897648D01*
X124199500Y-64897648D01*
X124199500Y-65102351D01*
X124231522Y-65304534D01*
X124294781Y-65499223D01*
X124387715Y-65681613D01*
X124508028Y-65847213D01*
X124652786Y-65991971D01*
X124807749Y-66104556D01*
X124818390Y-66112287D01*
X124934607Y-66171503D01*
X125000776Y-66205218D01*
X125000778Y-66205218D01*
X125000781Y-66205220D01*
X125105137Y-66239127D01*
X125195465Y-66268477D01*
X125296557Y-66284488D01*
X125397648Y-66300500D01*
X125397649Y-66300500D01*
X125602351Y-66300500D01*
X125602352Y-66300500D01*
X125804534Y-66268477D01*
X125999219Y-66205220D01*
X126181610Y-66112287D01*
X126274590Y-66044732D01*
X126347213Y-65991971D01*
X126347215Y-65991968D01*
X126347219Y-65991966D01*
X126491966Y-65847219D01*
X126491968Y-65847215D01*
X126491971Y-65847213D01*
X126595133Y-65705220D01*
X126612287Y-65681610D01*
X126705220Y-65499219D01*
X126768477Y-65304534D01*
X126800500Y-65102352D01*
X126800500Y-64897648D01*
X126768477Y-64695466D01*
X126705220Y-64500781D01*
X126705218Y-64500778D01*
X126705218Y-64500776D01*
X126652671Y-64397648D01*
X182699500Y-64397648D01*
X182699500Y-64602351D01*
X182731522Y-64804534D01*
X182794781Y-64999223D01*
X182887715Y-65181613D01*
X183008028Y-65347213D01*
X183152786Y-65491971D01*
X183307749Y-65604556D01*
X183318390Y-65612287D01*
X183434607Y-65671503D01*
X183500776Y-65705218D01*
X183500778Y-65705218D01*
X183500781Y-65705220D01*
X183605137Y-65739127D01*
X183695465Y-65768477D01*
X183796557Y-65784488D01*
X183897648Y-65800500D01*
X183897649Y-65800500D01*
X184102351Y-65800500D01*
X184102352Y-65800500D01*
X184304534Y-65768477D01*
X184499219Y-65705220D01*
X184681610Y-65612287D01*
X184837231Y-65499223D01*
X184847213Y-65491971D01*
X184847215Y-65491968D01*
X184847219Y-65491966D01*
X184991966Y-65347219D01*
X184991968Y-65347215D01*
X184991971Y-65347213D01*
X185044732Y-65274590D01*
X185112287Y-65181610D01*
X185205220Y-64999219D01*
X185268477Y-64804534D01*
X185300500Y-64602352D01*
X185300500Y-64397648D01*
X185268477Y-64195466D01*
X185254609Y-64152786D01*
X185239127Y-64105137D01*
X185205220Y-64000781D01*
X185205218Y-64000778D01*
X185205218Y-64000776D01*
X185147610Y-63887715D01*
X185112287Y-63818390D01*
X185095134Y-63794781D01*
X184991971Y-63652786D01*
X184847213Y-63508028D01*
X184681613Y-63387715D01*
X184681612Y-63387714D01*
X184681610Y-63387713D01*
X184624653Y-63358691D01*
X184499223Y-63294781D01*
X184304534Y-63231522D01*
X184129995Y-63203878D01*
X184102352Y-63199500D01*
X183897648Y-63199500D01*
X183873329Y-63203351D01*
X183695465Y-63231522D01*
X183500776Y-63294781D01*
X183318386Y-63387715D01*
X183152786Y-63508028D01*
X183008028Y-63652786D01*
X182887715Y-63818386D01*
X182794781Y-64000776D01*
X182731522Y-64195465D01*
X182699500Y-64397648D01*
X126652671Y-64397648D01*
X126612287Y-64318390D01*
X126604556Y-64307749D01*
X126491971Y-64152786D01*
X126347213Y-64008028D01*
X126181613Y-63887715D01*
X126181612Y-63887714D01*
X126181610Y-63887713D01*
X126124653Y-63858691D01*
X125999223Y-63794781D01*
X125804534Y-63731522D01*
X125629995Y-63703878D01*
X125602352Y-63699500D01*
X125397648Y-63699500D01*
X125373329Y-63703351D01*
X125195465Y-63731522D01*
X125000776Y-63794781D01*
X124818386Y-63887715D01*
X124652786Y-64008028D01*
X124508028Y-64152786D01*
X124387715Y-64318386D01*
X124294781Y-64500776D01*
X124231522Y-64695465D01*
X124199500Y-64897648D01*
X122500500Y-64897648D01*
X122500500Y-62124500D01*
X122520185Y-62057461D01*
X122572989Y-62011706D01*
X122624500Y-62000500D01*
X186375500Y-62000500D01*
X186442539Y-62020185D01*
G37*
%TD.AperFunction*%
%TD*%
M02*
