%TF.GenerationSoftware,KiCad,Pcbnew,8.0.8*%
%TF.CreationDate,2025-02-03T11:26:52-05:00*%
%TF.ProjectId,Power_Supply_Board,506f7765-725f-4537-9570-706c795f426f,rev?*%
%TF.SameCoordinates,Original*%
%TF.FileFunction,Copper,L2,Bot*%
%TF.FilePolarity,Positive*%
%FSLAX46Y46*%
G04 Gerber Fmt 4.6, Leading zero omitted, Abs format (unit mm)*
G04 Created by KiCad (PCBNEW 8.0.8) date 2025-02-03 11:26:52*
%MOMM*%
%LPD*%
G01*
G04 APERTURE LIST*
%TA.AperFunction,ComponentPad*%
%ADD10R,1.700000X1.700000*%
%TD*%
%TA.AperFunction,ComponentPad*%
%ADD11O,1.700000X1.700000*%
%TD*%
%TA.AperFunction,ComponentPad*%
%ADD12R,1.160000X1.160000*%
%TD*%
%TA.AperFunction,ComponentPad*%
%ADD13C,1.160000*%
%TD*%
%TA.AperFunction,ComponentPad*%
%ADD14C,1.600000*%
%TD*%
%TA.AperFunction,ComponentPad*%
%ADD15O,1.600000X1.600000*%
%TD*%
%TA.AperFunction,ComponentPad*%
%ADD16C,2.200000*%
%TD*%
%TA.AperFunction,ViaPad*%
%ADD17C,0.600000*%
%TD*%
%TA.AperFunction,Conductor*%
%ADD18C,0.200000*%
%TD*%
G04 APERTURE END LIST*
D10*
%TO.P,J1,1,Pin_1*%
%TO.N,Net-(IC1-V+)*%
X190500000Y-84000000D03*
D11*
%TO.P,J1,2,Pin_2*%
%TO.N,Net-(J1-Pin_2)*%
X190500000Y-86540000D03*
%TD*%
D12*
%TO.P,IC1,1,BOOST*%
%TO.N,unconnected-(IC1-BOOST-Pad1)*%
X187380000Y-100000000D03*
D13*
%TO.P,IC1,2,CAP+*%
%TO.N,Net-(IC1-CAP+)*%
X187380000Y-102540000D03*
%TO.P,IC1,3,GND*%
%TO.N,Earth*%
X187380000Y-105080000D03*
%TO.P,IC1,4,CAP-*%
%TO.N,Net-(IC1-CAP-)*%
X187380000Y-107620000D03*
%TO.P,IC1,5,VOUT*%
%TO.N,Net-(IC1-VOUT)*%
X195000000Y-107620000D03*
%TO.P,IC1,6,LOW_VOLTAGE_(LV)*%
%TO.N,unconnected-(IC1-LOW_VOLTAGE_(LV)-Pad6)*%
X195000000Y-105080000D03*
%TO.P,IC1,7,OSC*%
%TO.N,unconnected-(IC1-OSC-Pad7)*%
X195000000Y-102540000D03*
%TO.P,IC1,8,V+*%
%TO.N,Net-(IC1-V+)*%
X195000000Y-100000000D03*
%TD*%
D14*
%TO.P,R1,1*%
%TO.N,Net-(IC1-VOUT)*%
X185420000Y-68500000D03*
D15*
%TO.P,R1,2*%
%TO.N,Net-(J1-Pin_2)*%
X195580000Y-68500000D03*
%TD*%
D16*
%TO.P,C3,1*%
%TO.N,Net-(J1-Pin_2)*%
X162025000Y-104000000D03*
%TO.P,C3,2*%
%TO.N,Earth*%
X177025000Y-104000000D03*
%TD*%
%TO.P,C1,1*%
%TO.N,Net-(IC1-CAP+)*%
X162000000Y-68000000D03*
%TO.P,C1,2*%
%TO.N,Net-(IC1-CAP-)*%
X177000000Y-68000000D03*
%TD*%
%TO.P,C2,1*%
%TO.N,Net-(IC1-VOUT)*%
X162025000Y-85810000D03*
%TO.P,C2,2*%
%TO.N,Earth*%
X177025000Y-85810000D03*
%TD*%
D17*
%TO.N,Net-(IC1-CAP+)*%
X163482000Y-102540000D03*
%TD*%
D18*
%TO.N,Net-(IC1-CAP+)*%
X187380000Y-102540000D02*
X163482000Y-102540000D01*
%TO.N,Earth*%
X186300000Y-104000000D02*
X187380000Y-105080000D01*
X177025000Y-104000000D02*
X186300000Y-104000000D01*
%TO.N,Net-(IC1-VOUT)*%
X162025000Y-85810000D02*
X179335000Y-68500000D01*
X179335000Y-68500000D02*
X185420000Y-68500000D01*
%TO.N,Net-(J1-Pin_2)*%
X162025000Y-104000000D02*
X162025000Y-103093000D01*
X178578000Y-86540000D02*
X190500000Y-86540000D01*
X162025000Y-103093000D02*
X178578000Y-86540000D01*
%TD*%
%TA.AperFunction,Conductor*%
%TO.N,Earth*%
G36*
X199942539Y-58770185D02*
G01*
X199988294Y-58822989D01*
X199999500Y-58874500D01*
X199999500Y-114125500D01*
X199979815Y-114192539D01*
X199927011Y-114238294D01*
X199875500Y-114249500D01*
X158624500Y-114249500D01*
X158557461Y-114229815D01*
X158511706Y-114177011D01*
X158500500Y-114125500D01*
X158500500Y-107619999D01*
X186294871Y-107619999D01*
X186294871Y-107620000D01*
X186313346Y-107819391D01*
X186313347Y-107819393D01*
X186368145Y-108011989D01*
X186368151Y-108012004D01*
X186457401Y-108191241D01*
X186457406Y-108191249D01*
X186578081Y-108351049D01*
X186705386Y-108467102D01*
X186726064Y-108485952D01*
X186896316Y-108591368D01*
X187083040Y-108663705D01*
X187279877Y-108700500D01*
X187279879Y-108700500D01*
X187480121Y-108700500D01*
X187480123Y-108700500D01*
X187676960Y-108663705D01*
X187863684Y-108591368D01*
X188033936Y-108485952D01*
X188181920Y-108351047D01*
X188302595Y-108191247D01*
X188391853Y-108011994D01*
X188446653Y-107819392D01*
X188465129Y-107620000D01*
X188465129Y-107619999D01*
X193914871Y-107619999D01*
X193914871Y-107620000D01*
X193933346Y-107819391D01*
X193933347Y-107819393D01*
X193988145Y-108011989D01*
X193988151Y-108012004D01*
X194077401Y-108191241D01*
X194077406Y-108191249D01*
X194198081Y-108351049D01*
X194325386Y-108467102D01*
X194346064Y-108485952D01*
X194516316Y-108591368D01*
X194703040Y-108663705D01*
X194899877Y-108700500D01*
X194899879Y-108700500D01*
X195100121Y-108700500D01*
X195100123Y-108700500D01*
X195296960Y-108663705D01*
X195483684Y-108591368D01*
X195653936Y-108485952D01*
X195801920Y-108351047D01*
X195922595Y-108191247D01*
X196011853Y-108011994D01*
X196066653Y-107819392D01*
X196085129Y-107620000D01*
X196066653Y-107420608D01*
X196011853Y-107228006D01*
X196011848Y-107227995D01*
X195922598Y-107048758D01*
X195922593Y-107048750D01*
X195801918Y-106888950D01*
X195653937Y-106754049D01*
X195653936Y-106754048D01*
X195589101Y-106713903D01*
X195483685Y-106648632D01*
X195483683Y-106648631D01*
X195347152Y-106595739D01*
X195296960Y-106576295D01*
X195100123Y-106539500D01*
X194899877Y-106539500D01*
X194703040Y-106576295D01*
X194703037Y-106576295D01*
X194703037Y-106576296D01*
X194516316Y-106648631D01*
X194516314Y-106648632D01*
X194346062Y-106754049D01*
X194198081Y-106888950D01*
X194077406Y-107048750D01*
X194077401Y-107048758D01*
X193988151Y-107227995D01*
X193988145Y-107228010D01*
X193933347Y-107420606D01*
X193933346Y-107420608D01*
X193914871Y-107619999D01*
X188465129Y-107619999D01*
X188446653Y-107420608D01*
X188391853Y-107228006D01*
X188391848Y-107227995D01*
X188302598Y-107048758D01*
X188302593Y-107048750D01*
X188181918Y-106888950D01*
X188033937Y-106754049D01*
X188033936Y-106754048D01*
X187969101Y-106713903D01*
X187863685Y-106648632D01*
X187863683Y-106648631D01*
X187727152Y-106595739D01*
X187676960Y-106576295D01*
X187480123Y-106539500D01*
X187279877Y-106539500D01*
X187083040Y-106576295D01*
X187083037Y-106576295D01*
X187083037Y-106576296D01*
X186896316Y-106648631D01*
X186896314Y-106648632D01*
X186726062Y-106754049D01*
X186578081Y-106888950D01*
X186457406Y-107048750D01*
X186457401Y-107048758D01*
X186368151Y-107227995D01*
X186368145Y-107228010D01*
X186313347Y-107420606D01*
X186313346Y-107420608D01*
X186294871Y-107619999D01*
X158500500Y-107619999D01*
X158500500Y-104000000D01*
X160419551Y-104000000D01*
X160439317Y-104251151D01*
X160498126Y-104496110D01*
X160594533Y-104728859D01*
X160726160Y-104943653D01*
X160726161Y-104943656D01*
X160726164Y-104943659D01*
X160889776Y-105135224D01*
X161038066Y-105261875D01*
X161081343Y-105298838D01*
X161081346Y-105298839D01*
X161296140Y-105430466D01*
X161527737Y-105526396D01*
X161528889Y-105526873D01*
X161773852Y-105585683D01*
X162025000Y-105605449D01*
X162276148Y-105585683D01*
X162521111Y-105526873D01*
X162753859Y-105430466D01*
X162968659Y-105298836D01*
X163160224Y-105135224D01*
X163323836Y-104943659D01*
X163455466Y-104728859D01*
X163551873Y-104496111D01*
X163610683Y-104251148D01*
X163630449Y-104000000D01*
X163610683Y-103748852D01*
X163551873Y-103503889D01*
X163549155Y-103497327D01*
X163541686Y-103427858D01*
X163572961Y-103365379D01*
X163633050Y-103329727D01*
X163649830Y-103326655D01*
X163661255Y-103325368D01*
X163831522Y-103265789D01*
X163984262Y-103169816D01*
X163984267Y-103169810D01*
X163987097Y-103167555D01*
X163989275Y-103166665D01*
X163990158Y-103166111D01*
X163990255Y-103166265D01*
X164051783Y-103141145D01*
X164064412Y-103140500D01*
X175463609Y-103140500D01*
X175530648Y-103160185D01*
X175576403Y-103212989D01*
X175586347Y-103282147D01*
X175578170Y-103311953D01*
X175498603Y-103504043D01*
X175439812Y-103748927D01*
X175420052Y-104000000D01*
X175439812Y-104251072D01*
X175498603Y-104495956D01*
X175594980Y-104728631D01*
X175726568Y-104943362D01*
X175727266Y-104944179D01*
X176501212Y-104170233D01*
X176512482Y-104212292D01*
X176584890Y-104337708D01*
X176687292Y-104440110D01*
X176812708Y-104512518D01*
X176854765Y-104523787D01*
X176080819Y-105297732D01*
X176080819Y-105297733D01*
X176081634Y-105298429D01*
X176296368Y-105430019D01*
X176529043Y-105526396D01*
X176773927Y-105585187D01*
X177025000Y-105604947D01*
X177276072Y-105585187D01*
X177520956Y-105526396D01*
X177753631Y-105430019D01*
X177968361Y-105298432D01*
X177968363Y-105298430D01*
X177969180Y-105297732D01*
X177751447Y-105079999D01*
X186295373Y-105079999D01*
X186295373Y-105080000D01*
X186313840Y-105279295D01*
X186368616Y-105471815D01*
X186457044Y-105649402D01*
X187000000Y-105106446D01*
X187000000Y-105130028D01*
X187025896Y-105226675D01*
X187075924Y-105313325D01*
X187146675Y-105384076D01*
X187233325Y-105434104D01*
X187329972Y-105460000D01*
X187353553Y-105460000D01*
X186813839Y-105999711D01*
X186896539Y-106050917D01*
X186896540Y-106050918D01*
X187083175Y-106123220D01*
X187279925Y-106160000D01*
X187480075Y-106160000D01*
X187676824Y-106123220D01*
X187863459Y-106050918D01*
X187863463Y-106050916D01*
X187946158Y-105999712D01*
X187946158Y-105999711D01*
X187406448Y-105460000D01*
X187430028Y-105460000D01*
X187526675Y-105434104D01*
X187613325Y-105384076D01*
X187684076Y-105313325D01*
X187734104Y-105226675D01*
X187760000Y-105130028D01*
X187760000Y-105106447D01*
X188302954Y-105649401D01*
X188302955Y-105649401D01*
X188391383Y-105471815D01*
X188446159Y-105279295D01*
X188464627Y-105080000D01*
X188464627Y-105079999D01*
X193914871Y-105079999D01*
X193914871Y-105080000D01*
X193933346Y-105279391D01*
X193933347Y-105279393D01*
X193988145Y-105471989D01*
X193988151Y-105472004D01*
X194077401Y-105651241D01*
X194077406Y-105651249D01*
X194198081Y-105811049D01*
X194325386Y-105927102D01*
X194346064Y-105945952D01*
X194432889Y-105999712D01*
X194515587Y-106050917D01*
X194516316Y-106051368D01*
X194703040Y-106123705D01*
X194899877Y-106160500D01*
X194899879Y-106160500D01*
X195100121Y-106160500D01*
X195100123Y-106160500D01*
X195296960Y-106123705D01*
X195483684Y-106051368D01*
X195653936Y-105945952D01*
X195801920Y-105811047D01*
X195922595Y-105651247D01*
X196011853Y-105471994D01*
X196066653Y-105279392D01*
X196085129Y-105080000D01*
X196066653Y-104880608D01*
X196011853Y-104688006D01*
X195923513Y-104510596D01*
X195922598Y-104508758D01*
X195922593Y-104508750D01*
X195801918Y-104348950D01*
X195653937Y-104214049D01*
X195653936Y-104214048D01*
X195589101Y-104173903D01*
X195483685Y-104108632D01*
X195483683Y-104108631D01*
X195298209Y-104036779D01*
X195296960Y-104036295D01*
X195100123Y-103999500D01*
X194899877Y-103999500D01*
X194703040Y-104036295D01*
X194703037Y-104036295D01*
X194703037Y-104036296D01*
X194516316Y-104108631D01*
X194516314Y-104108632D01*
X194346062Y-104214049D01*
X194198081Y-104348950D01*
X194077406Y-104508750D01*
X194077401Y-104508758D01*
X193988151Y-104687995D01*
X193988145Y-104688010D01*
X193933347Y-104880606D01*
X193933346Y-104880608D01*
X193914871Y-105079999D01*
X188464627Y-105079999D01*
X188446159Y-104880704D01*
X188391383Y-104688184D01*
X188302955Y-104510596D01*
X187760000Y-105053551D01*
X187760000Y-105029972D01*
X187734104Y-104933325D01*
X187684076Y-104846675D01*
X187613325Y-104775924D01*
X187526675Y-104725896D01*
X187430028Y-104700000D01*
X187406447Y-104700000D01*
X187946159Y-104160287D01*
X187863458Y-104109081D01*
X187863457Y-104109080D01*
X187676824Y-104036779D01*
X187480075Y-104000000D01*
X187279925Y-104000000D01*
X187083175Y-104036779D01*
X186896543Y-104109080D01*
X186813839Y-104160287D01*
X187353554Y-104700000D01*
X187329972Y-104700000D01*
X187233325Y-104725896D01*
X187146675Y-104775924D01*
X187075924Y-104846675D01*
X187025896Y-104933325D01*
X187000000Y-105029972D01*
X187000000Y-105053552D01*
X186457044Y-104510596D01*
X186457043Y-104510596D01*
X186368618Y-104688179D01*
X186368614Y-104688189D01*
X186313840Y-104880704D01*
X186295373Y-105079999D01*
X177751447Y-105079999D01*
X177195234Y-104523787D01*
X177237292Y-104512518D01*
X177362708Y-104440110D01*
X177465110Y-104337708D01*
X177537518Y-104212292D01*
X177548787Y-104170234D01*
X178322732Y-104944180D01*
X178323430Y-104943363D01*
X178323432Y-104943361D01*
X178455019Y-104728631D01*
X178551396Y-104495956D01*
X178610187Y-104251072D01*
X178629947Y-104000000D01*
X178610187Y-103748927D01*
X178551396Y-103504043D01*
X178471830Y-103311953D01*
X178464361Y-103242483D01*
X178495636Y-103180004D01*
X178555725Y-103144352D01*
X178586391Y-103140500D01*
X186417752Y-103140500D01*
X186484791Y-103160185D01*
X186516705Y-103189773D01*
X186578080Y-103271047D01*
X186578083Y-103271049D01*
X186578085Y-103271052D01*
X186681557Y-103365379D01*
X186726064Y-103405952D01*
X186797204Y-103450000D01*
X186884485Y-103504043D01*
X186896316Y-103511368D01*
X187083040Y-103583705D01*
X187279877Y-103620500D01*
X187279879Y-103620500D01*
X187480121Y-103620500D01*
X187480123Y-103620500D01*
X187676960Y-103583705D01*
X187863684Y-103511368D01*
X188033936Y-103405952D01*
X188181920Y-103271047D01*
X188302595Y-103111247D01*
X188391853Y-102931994D01*
X188446653Y-102739392D01*
X188465129Y-102540000D01*
X188465129Y-102539999D01*
X193914871Y-102539999D01*
X193914871Y-102540000D01*
X193933346Y-102739391D01*
X193933347Y-102739393D01*
X193988145Y-102931989D01*
X193988151Y-102932004D01*
X194077401Y-103111241D01*
X194077406Y-103111249D01*
X194198081Y-103271049D01*
X194301557Y-103365379D01*
X194346064Y-103405952D01*
X194417204Y-103450000D01*
X194504485Y-103504043D01*
X194516316Y-103511368D01*
X194703040Y-103583705D01*
X194899877Y-103620500D01*
X194899879Y-103620500D01*
X195100121Y-103620500D01*
X195100123Y-103620500D01*
X195296960Y-103583705D01*
X195483684Y-103511368D01*
X195653936Y-103405952D01*
X195801920Y-103271047D01*
X195922595Y-103111247D01*
X196011853Y-102931994D01*
X196066653Y-102739392D01*
X196085129Y-102540000D01*
X196066653Y-102340608D01*
X196011853Y-102148006D01*
X196011848Y-102147995D01*
X195922598Y-101968758D01*
X195922593Y-101968750D01*
X195801918Y-101808950D01*
X195653937Y-101674049D01*
X195653936Y-101674048D01*
X195589101Y-101633903D01*
X195483685Y-101568632D01*
X195483683Y-101568631D01*
X195347152Y-101515739D01*
X195296960Y-101496295D01*
X195100123Y-101459500D01*
X194899877Y-101459500D01*
X194703040Y-101496295D01*
X194703037Y-101496295D01*
X194703037Y-101496296D01*
X194516316Y-101568631D01*
X194516314Y-101568632D01*
X194346062Y-101674049D01*
X194198081Y-101808950D01*
X194077406Y-101968750D01*
X194077401Y-101968758D01*
X193988151Y-102147995D01*
X193988145Y-102148010D01*
X193933347Y-102340606D01*
X193933346Y-102340608D01*
X193914871Y-102539999D01*
X188465129Y-102539999D01*
X188446653Y-102340608D01*
X188391853Y-102148006D01*
X188391848Y-102147995D01*
X188302598Y-101968758D01*
X188302593Y-101968750D01*
X188181918Y-101808950D01*
X188033937Y-101674049D01*
X188033936Y-101674048D01*
X187969101Y-101633903D01*
X187863685Y-101568632D01*
X187863683Y-101568631D01*
X187727152Y-101515739D01*
X187676960Y-101496295D01*
X187480123Y-101459500D01*
X187279877Y-101459500D01*
X187083040Y-101496295D01*
X187083037Y-101496295D01*
X187083037Y-101496296D01*
X186896316Y-101568631D01*
X186896314Y-101568632D01*
X186726062Y-101674049D01*
X186578085Y-101808947D01*
X186578078Y-101808955D01*
X186516706Y-101890226D01*
X186460598Y-101931863D01*
X186417752Y-101939500D01*
X164327097Y-101939500D01*
X164260058Y-101919815D01*
X164214303Y-101867011D01*
X164204359Y-101797853D01*
X164233384Y-101734297D01*
X164239416Y-101727819D01*
X166595100Y-99372135D01*
X186299500Y-99372135D01*
X186299500Y-100627870D01*
X186299501Y-100627876D01*
X186305908Y-100687483D01*
X186356202Y-100822328D01*
X186356206Y-100822335D01*
X186442452Y-100937544D01*
X186442455Y-100937547D01*
X186557664Y-101023793D01*
X186557671Y-101023797D01*
X186692517Y-101074091D01*
X186692516Y-101074091D01*
X186699444Y-101074835D01*
X186752127Y-101080500D01*
X188007872Y-101080499D01*
X188067483Y-101074091D01*
X188202331Y-101023796D01*
X188317546Y-100937546D01*
X188403796Y-100822331D01*
X188454091Y-100687483D01*
X188460500Y-100627873D01*
X188460499Y-99999999D01*
X193914871Y-99999999D01*
X193914871Y-100000000D01*
X193933346Y-100199391D01*
X193933347Y-100199393D01*
X193988145Y-100391989D01*
X193988151Y-100392004D01*
X194077401Y-100571241D01*
X194077406Y-100571249D01*
X194198081Y-100731049D01*
X194298214Y-100822331D01*
X194346064Y-100865952D01*
X194516316Y-100971368D01*
X194703040Y-101043705D01*
X194899877Y-101080500D01*
X194899879Y-101080500D01*
X195100121Y-101080500D01*
X195100123Y-101080500D01*
X195296960Y-101043705D01*
X195483684Y-100971368D01*
X195653936Y-100865952D01*
X195801920Y-100731047D01*
X195922595Y-100571247D01*
X196011853Y-100391994D01*
X196066653Y-100199392D01*
X196085129Y-100000000D01*
X196066653Y-99800608D01*
X196011853Y-99608006D01*
X196011848Y-99607995D01*
X195922598Y-99428758D01*
X195922593Y-99428750D01*
X195801918Y-99268950D01*
X195653937Y-99134049D01*
X195653936Y-99134048D01*
X195538310Y-99062455D01*
X195483685Y-99028632D01*
X195483683Y-99028631D01*
X195347152Y-98975739D01*
X195296960Y-98956295D01*
X195100123Y-98919500D01*
X194899877Y-98919500D01*
X194703040Y-98956295D01*
X194703037Y-98956295D01*
X194703037Y-98956296D01*
X194516316Y-99028631D01*
X194516314Y-99028632D01*
X194346062Y-99134049D01*
X194198081Y-99268950D01*
X194077406Y-99428750D01*
X194077401Y-99428758D01*
X193988151Y-99607995D01*
X193988145Y-99608010D01*
X193933347Y-99800606D01*
X193933346Y-99800608D01*
X193914871Y-99999999D01*
X188460499Y-99999999D01*
X188460499Y-99372128D01*
X188454091Y-99312517D01*
X188403796Y-99177669D01*
X188403795Y-99177668D01*
X188403793Y-99177664D01*
X188317547Y-99062455D01*
X188317544Y-99062452D01*
X188202335Y-98976206D01*
X188202328Y-98976202D01*
X188067482Y-98925908D01*
X188067483Y-98925908D01*
X188007883Y-98919501D01*
X188007881Y-98919500D01*
X188007873Y-98919500D01*
X188007864Y-98919500D01*
X186752129Y-98919500D01*
X186752123Y-98919501D01*
X186692516Y-98925908D01*
X186557671Y-98976202D01*
X186557664Y-98976206D01*
X186442455Y-99062452D01*
X186442452Y-99062455D01*
X186356206Y-99177664D01*
X186356202Y-99177671D01*
X186305908Y-99312517D01*
X186299501Y-99372116D01*
X186299501Y-99372123D01*
X186299500Y-99372135D01*
X166595100Y-99372135D01*
X178790416Y-87176819D01*
X178851739Y-87143334D01*
X178878097Y-87140500D01*
X189210909Y-87140500D01*
X189277948Y-87160185D01*
X189323292Y-87212097D01*
X189325965Y-87217830D01*
X189461505Y-87411401D01*
X189628599Y-87578495D01*
X189725384Y-87646265D01*
X189822165Y-87714032D01*
X189822167Y-87714033D01*
X189822170Y-87714035D01*
X190036337Y-87813903D01*
X190264592Y-87875063D01*
X190452918Y-87891539D01*
X190499999Y-87895659D01*
X190500000Y-87895659D01*
X190500001Y-87895659D01*
X190539234Y-87892226D01*
X190735408Y-87875063D01*
X190963663Y-87813903D01*
X191177830Y-87714035D01*
X191371401Y-87578495D01*
X191538495Y-87411401D01*
X191674035Y-87217830D01*
X191773903Y-87003663D01*
X191835063Y-86775408D01*
X191855659Y-86540000D01*
X191835063Y-86304592D01*
X191773903Y-86076337D01*
X191674035Y-85862171D01*
X191674034Y-85862169D01*
X191538496Y-85668600D01*
X191538495Y-85668599D01*
X191416567Y-85546671D01*
X191383084Y-85485351D01*
X191388068Y-85415659D01*
X191429939Y-85359725D01*
X191460915Y-85342810D01*
X191592331Y-85293796D01*
X191707546Y-85207546D01*
X191793796Y-85092331D01*
X191844091Y-84957483D01*
X191850500Y-84897873D01*
X191850499Y-83102128D01*
X191844091Y-83042517D01*
X191793796Y-82907669D01*
X191793795Y-82907668D01*
X191793793Y-82907664D01*
X191707547Y-82792455D01*
X191707544Y-82792452D01*
X191592335Y-82706206D01*
X191592328Y-82706202D01*
X191457482Y-82655908D01*
X191457483Y-82655908D01*
X191397883Y-82649501D01*
X191397881Y-82649500D01*
X191397873Y-82649500D01*
X191397864Y-82649500D01*
X189602129Y-82649500D01*
X189602123Y-82649501D01*
X189542516Y-82655908D01*
X189407671Y-82706202D01*
X189407664Y-82706206D01*
X189292455Y-82792452D01*
X189292452Y-82792455D01*
X189206206Y-82907664D01*
X189206202Y-82907671D01*
X189155908Y-83042517D01*
X189149501Y-83102116D01*
X189149501Y-83102123D01*
X189149500Y-83102135D01*
X189149500Y-84897870D01*
X189149501Y-84897876D01*
X189155908Y-84957483D01*
X189206202Y-85092328D01*
X189206206Y-85092335D01*
X189292452Y-85207544D01*
X189292455Y-85207547D01*
X189407664Y-85293793D01*
X189407671Y-85293797D01*
X189539081Y-85342810D01*
X189595015Y-85384681D01*
X189619432Y-85450145D01*
X189604580Y-85518418D01*
X189583430Y-85546673D01*
X189461503Y-85668600D01*
X189325965Y-85862170D01*
X189325962Y-85862175D01*
X189323289Y-85867909D01*
X189277115Y-85920346D01*
X189210909Y-85939500D01*
X178753899Y-85939500D01*
X178686860Y-85919815D01*
X178641105Y-85867011D01*
X178631872Y-85814872D01*
X178629948Y-85814872D01*
X178629948Y-85810003D01*
X178610187Y-85558927D01*
X178551396Y-85314043D01*
X178455019Y-85081368D01*
X178323429Y-84866634D01*
X178322733Y-84865819D01*
X178322732Y-84865819D01*
X177548787Y-85639765D01*
X177537518Y-85597708D01*
X177465110Y-85472292D01*
X177362708Y-85369890D01*
X177237292Y-85297482D01*
X177195232Y-85286212D01*
X177969179Y-84512266D01*
X177968362Y-84511568D01*
X177753631Y-84379980D01*
X177520956Y-84283603D01*
X177276072Y-84224812D01*
X177025000Y-84205052D01*
X176773927Y-84224812D01*
X176529043Y-84283603D01*
X176296368Y-84379980D01*
X176081637Y-84511567D01*
X176080818Y-84512266D01*
X176854765Y-85286212D01*
X176812708Y-85297482D01*
X176687292Y-85369890D01*
X176584890Y-85472292D01*
X176512482Y-85597708D01*
X176501212Y-85639765D01*
X175727266Y-84865818D01*
X175726567Y-84866637D01*
X175594980Y-85081368D01*
X175498603Y-85314043D01*
X175439812Y-85558927D01*
X175420052Y-85810000D01*
X175439812Y-86061072D01*
X175498603Y-86305956D01*
X175594980Y-86538631D01*
X175726568Y-86753362D01*
X175727266Y-86754179D01*
X176501212Y-85980233D01*
X176512482Y-86022292D01*
X176584890Y-86147708D01*
X176687292Y-86250110D01*
X176812708Y-86322518D01*
X176854765Y-86333787D01*
X176080819Y-87107732D01*
X176080819Y-87107733D01*
X176081634Y-87108429D01*
X176296368Y-87240019D01*
X176529043Y-87336396D01*
X176638983Y-87362790D01*
X176699575Y-87397580D01*
X176731739Y-87459607D01*
X176725263Y-87529176D01*
X176697717Y-87571045D01*
X161893679Y-102375084D01*
X161832356Y-102408569D01*
X161815730Y-102411021D01*
X161813079Y-102411229D01*
X161773852Y-102414317D01*
X161773848Y-102414318D01*
X161528889Y-102473126D01*
X161296140Y-102569533D01*
X161081346Y-102701160D01*
X161081343Y-102701161D01*
X160889776Y-102864776D01*
X160726161Y-103056343D01*
X160726160Y-103056346D01*
X160594533Y-103271140D01*
X160498126Y-103503889D01*
X160439317Y-103748848D01*
X160419551Y-104000000D01*
X158500500Y-104000000D01*
X158500500Y-85810000D01*
X160419551Y-85810000D01*
X160439317Y-86061151D01*
X160498126Y-86306110D01*
X160594533Y-86538859D01*
X160726160Y-86753653D01*
X160726161Y-86753656D01*
X160781604Y-86818571D01*
X160889776Y-86945224D01*
X161038066Y-87071875D01*
X161081343Y-87108838D01*
X161081346Y-87108839D01*
X161296140Y-87240466D01*
X161527737Y-87336396D01*
X161528889Y-87336873D01*
X161773852Y-87395683D01*
X162025000Y-87415449D01*
X162276148Y-87395683D01*
X162521111Y-87336873D01*
X162753859Y-87240466D01*
X162968659Y-87108836D01*
X163160224Y-86945224D01*
X163323836Y-86753659D01*
X163455466Y-86538859D01*
X163551873Y-86306111D01*
X163610683Y-86061148D01*
X163630449Y-85810000D01*
X163610683Y-85558852D01*
X163551873Y-85313889D01*
X163530410Y-85262073D01*
X163522942Y-85192607D01*
X163554216Y-85130128D01*
X163557263Y-85126970D01*
X179547417Y-69136819D01*
X179608740Y-69103334D01*
X179635098Y-69100500D01*
X184188308Y-69100500D01*
X184255347Y-69120185D01*
X184289880Y-69153374D01*
X184375480Y-69275624D01*
X184419954Y-69339141D01*
X184580858Y-69500045D01*
X184580861Y-69500047D01*
X184767266Y-69630568D01*
X184973504Y-69726739D01*
X185193308Y-69785635D01*
X185355230Y-69799801D01*
X185419998Y-69805468D01*
X185420000Y-69805468D01*
X185420002Y-69805468D01*
X185476673Y-69800509D01*
X185646692Y-69785635D01*
X185866496Y-69726739D01*
X186072734Y-69630568D01*
X186259139Y-69500047D01*
X186420047Y-69339139D01*
X186550568Y-69152734D01*
X186646739Y-68946496D01*
X186705635Y-68726692D01*
X186725468Y-68500000D01*
X186725468Y-68499998D01*
X194274532Y-68499998D01*
X194274532Y-68500001D01*
X194294364Y-68726686D01*
X194294366Y-68726697D01*
X194353258Y-68946488D01*
X194353261Y-68946497D01*
X194449431Y-69152732D01*
X194449432Y-69152734D01*
X194579954Y-69339141D01*
X194740858Y-69500045D01*
X194740861Y-69500047D01*
X194927266Y-69630568D01*
X195133504Y-69726739D01*
X195353308Y-69785635D01*
X195515230Y-69799801D01*
X195579998Y-69805468D01*
X195580000Y-69805468D01*
X195580002Y-69805468D01*
X195636673Y-69800509D01*
X195806692Y-69785635D01*
X196026496Y-69726739D01*
X196232734Y-69630568D01*
X196419139Y-69500047D01*
X196580047Y-69339139D01*
X196710568Y-69152734D01*
X196806739Y-68946496D01*
X196865635Y-68726692D01*
X196885468Y-68500000D01*
X196865635Y-68273308D01*
X196806739Y-68053504D01*
X196710568Y-67847266D01*
X196580047Y-67660861D01*
X196580045Y-67660858D01*
X196419141Y-67499954D01*
X196232734Y-67369432D01*
X196232732Y-67369431D01*
X196026497Y-67273261D01*
X196026488Y-67273258D01*
X195806697Y-67214366D01*
X195806693Y-67214365D01*
X195806692Y-67214365D01*
X195806691Y-67214364D01*
X195806686Y-67214364D01*
X195580002Y-67194532D01*
X195579998Y-67194532D01*
X195353313Y-67214364D01*
X195353302Y-67214366D01*
X195133511Y-67273258D01*
X195133502Y-67273261D01*
X194927267Y-67369431D01*
X194927265Y-67369432D01*
X194740858Y-67499954D01*
X194579954Y-67660858D01*
X194449432Y-67847265D01*
X194449431Y-67847267D01*
X194353261Y-68053502D01*
X194353258Y-68053511D01*
X194294366Y-68273302D01*
X194294364Y-68273313D01*
X194274532Y-68499998D01*
X186725468Y-68499998D01*
X186705635Y-68273308D01*
X186646739Y-68053504D01*
X186550568Y-67847266D01*
X186420047Y-67660861D01*
X186420045Y-67660858D01*
X186259141Y-67499954D01*
X186072734Y-67369432D01*
X186072732Y-67369431D01*
X185866497Y-67273261D01*
X185866488Y-67273258D01*
X185646697Y-67214366D01*
X185646693Y-67214365D01*
X185646692Y-67214365D01*
X185646691Y-67214364D01*
X185646686Y-67214364D01*
X185420002Y-67194532D01*
X185419998Y-67194532D01*
X185193313Y-67214364D01*
X185193302Y-67214366D01*
X184973511Y-67273258D01*
X184973502Y-67273261D01*
X184767267Y-67369431D01*
X184767265Y-67369432D01*
X184580858Y-67499954D01*
X184419954Y-67660858D01*
X184343450Y-67770118D01*
X184289881Y-67846624D01*
X184235307Y-67890248D01*
X184188308Y-67899500D01*
X179421670Y-67899500D01*
X179421654Y-67899499D01*
X179414058Y-67899499D01*
X179255943Y-67899499D01*
X179179579Y-67919961D01*
X179103214Y-67940423D01*
X179103209Y-67940426D01*
X178966290Y-68019475D01*
X178966286Y-68019478D01*
X178810630Y-68175134D01*
X178749307Y-68208618D01*
X178679615Y-68203634D01*
X178623682Y-68161762D01*
X178599265Y-68096298D01*
X178599330Y-68077736D01*
X178605449Y-68000000D01*
X178585683Y-67748852D01*
X178526873Y-67503889D01*
X178525243Y-67499953D01*
X178430466Y-67271140D01*
X178298839Y-67056346D01*
X178298838Y-67056343D01*
X178261875Y-67013066D01*
X178135224Y-66864776D01*
X178008571Y-66756604D01*
X177943656Y-66701161D01*
X177943653Y-66701160D01*
X177728859Y-66569533D01*
X177496110Y-66473126D01*
X177251151Y-66414317D01*
X177000000Y-66394551D01*
X176748848Y-66414317D01*
X176503889Y-66473126D01*
X176271140Y-66569533D01*
X176056346Y-66701160D01*
X176056343Y-66701161D01*
X175864776Y-66864776D01*
X175701161Y-67056343D01*
X175701160Y-67056346D01*
X175569533Y-67271140D01*
X175473126Y-67503889D01*
X175414317Y-67748848D01*
X175394551Y-68000000D01*
X175414317Y-68251151D01*
X175473126Y-68496110D01*
X175569533Y-68728859D01*
X175701160Y-68943653D01*
X175701161Y-68943656D01*
X175756604Y-69008571D01*
X175864776Y-69135224D01*
X176013066Y-69261875D01*
X176056343Y-69298838D01*
X176056346Y-69298839D01*
X176271140Y-69430466D01*
X176439120Y-69500045D01*
X176503889Y-69526873D01*
X176748852Y-69585683D01*
X177000000Y-69605449D01*
X177077725Y-69599331D01*
X177146098Y-69613695D01*
X177195855Y-69662745D01*
X177211195Y-69730910D01*
X177187247Y-69796548D01*
X177175132Y-69810630D01*
X162708056Y-84277707D01*
X162646733Y-84311192D01*
X162577041Y-84306208D01*
X162572923Y-84304587D01*
X162521113Y-84283127D01*
X162276151Y-84224317D01*
X162025000Y-84204551D01*
X161773848Y-84224317D01*
X161528889Y-84283126D01*
X161296140Y-84379533D01*
X161081346Y-84511160D01*
X161081343Y-84511161D01*
X160889776Y-84674776D01*
X160726161Y-84866343D01*
X160726160Y-84866346D01*
X160594533Y-85081140D01*
X160498126Y-85313889D01*
X160439317Y-85558848D01*
X160419551Y-85810000D01*
X158500500Y-85810000D01*
X158500500Y-68000000D01*
X160394551Y-68000000D01*
X160414317Y-68251151D01*
X160473126Y-68496110D01*
X160569533Y-68728859D01*
X160701160Y-68943653D01*
X160701161Y-68943656D01*
X160756604Y-69008571D01*
X160864776Y-69135224D01*
X161013066Y-69261875D01*
X161056343Y-69298838D01*
X161056346Y-69298839D01*
X161271140Y-69430466D01*
X161439120Y-69500045D01*
X161503889Y-69526873D01*
X161748852Y-69585683D01*
X162000000Y-69605449D01*
X162251148Y-69585683D01*
X162496111Y-69526873D01*
X162728859Y-69430466D01*
X162943659Y-69298836D01*
X163135224Y-69135224D01*
X163298836Y-68943659D01*
X163430466Y-68728859D01*
X163526873Y-68496111D01*
X163585683Y-68251148D01*
X163605449Y-68000000D01*
X163585683Y-67748852D01*
X163526873Y-67503889D01*
X163525243Y-67499953D01*
X163430466Y-67271140D01*
X163298839Y-67056346D01*
X163298838Y-67056343D01*
X163261875Y-67013066D01*
X163135224Y-66864776D01*
X163008571Y-66756604D01*
X162943656Y-66701161D01*
X162943653Y-66701160D01*
X162728859Y-66569533D01*
X162496110Y-66473126D01*
X162251151Y-66414317D01*
X162000000Y-66394551D01*
X161748848Y-66414317D01*
X161503889Y-66473126D01*
X161271140Y-66569533D01*
X161056346Y-66701160D01*
X161056343Y-66701161D01*
X160864776Y-66864776D01*
X160701161Y-67056343D01*
X160701160Y-67056346D01*
X160569533Y-67271140D01*
X160473126Y-67503889D01*
X160414317Y-67748848D01*
X160394551Y-68000000D01*
X158500500Y-68000000D01*
X158500500Y-58874500D01*
X158520185Y-58807461D01*
X158572989Y-58761706D01*
X158624500Y-58750500D01*
X199875500Y-58750500D01*
X199942539Y-58770185D01*
G37*
%TD.AperFunction*%
%TD*%
M02*
