%TF.GenerationSoftware,KiCad,Pcbnew,8.0.8*%
%TF.CreationDate,2025-02-03T11:26:52-05:00*%
%TF.ProjectId,Power_Supply_Board,506f7765-725f-4537-9570-706c795f426f,rev?*%
%TF.SameCoordinates,Original*%
%TF.FileFunction,Legend,Top*%
%TF.FilePolarity,Positive*%
%FSLAX46Y46*%
G04 Gerber Fmt 4.6, Leading zero omitted, Abs format (unit mm)*
G04 Created by KiCad (PCBNEW 8.0.8) date 2025-02-03 11:26:52*
%MOMM*%
%LPD*%
G01*
G04 APERTURE LIST*
%ADD10C,0.150000*%
%ADD11C,0.254000*%
%ADD12C,0.120000*%
%ADD13C,0.200000*%
G04 APERTURE END LIST*
D10*
X190166666Y-81124819D02*
X190166666Y-81839104D01*
X190166666Y-81839104D02*
X190119047Y-81981961D01*
X190119047Y-81981961D02*
X190023809Y-82077200D01*
X190023809Y-82077200D02*
X189880952Y-82124819D01*
X189880952Y-82124819D02*
X189785714Y-82124819D01*
X191166666Y-82124819D02*
X190595238Y-82124819D01*
X190880952Y-82124819D02*
X190880952Y-81124819D01*
X190880952Y-81124819D02*
X190785714Y-81267676D01*
X190785714Y-81267676D02*
X190690476Y-81362914D01*
X190690476Y-81362914D02*
X190595238Y-81410533D01*
D11*
X189950237Y-104384318D02*
X189950237Y-103114318D01*
X191280714Y-104263365D02*
X191220238Y-104323842D01*
X191220238Y-104323842D02*
X191038809Y-104384318D01*
X191038809Y-104384318D02*
X190917857Y-104384318D01*
X190917857Y-104384318D02*
X190736428Y-104323842D01*
X190736428Y-104323842D02*
X190615476Y-104202889D01*
X190615476Y-104202889D02*
X190554999Y-104081937D01*
X190554999Y-104081937D02*
X190494523Y-103840032D01*
X190494523Y-103840032D02*
X190494523Y-103658603D01*
X190494523Y-103658603D02*
X190554999Y-103416699D01*
X190554999Y-103416699D02*
X190615476Y-103295746D01*
X190615476Y-103295746D02*
X190736428Y-103174794D01*
X190736428Y-103174794D02*
X190917857Y-103114318D01*
X190917857Y-103114318D02*
X191038809Y-103114318D01*
X191038809Y-103114318D02*
X191220238Y-103174794D01*
X191220238Y-103174794D02*
X191280714Y-103235270D01*
X192490238Y-104384318D02*
X191764523Y-104384318D01*
X192127380Y-104384318D02*
X192127380Y-103114318D01*
X192127380Y-103114318D02*
X192006428Y-103295746D01*
X192006428Y-103295746D02*
X191885476Y-103416699D01*
X191885476Y-103416699D02*
X191764523Y-103477175D01*
D10*
X190333333Y-66584819D02*
X190000000Y-66108628D01*
X189761905Y-66584819D02*
X189761905Y-65584819D01*
X189761905Y-65584819D02*
X190142857Y-65584819D01*
X190142857Y-65584819D02*
X190238095Y-65632438D01*
X190238095Y-65632438D02*
X190285714Y-65680057D01*
X190285714Y-65680057D02*
X190333333Y-65775295D01*
X190333333Y-65775295D02*
X190333333Y-65918152D01*
X190333333Y-65918152D02*
X190285714Y-66013390D01*
X190285714Y-66013390D02*
X190238095Y-66061009D01*
X190238095Y-66061009D02*
X190142857Y-66108628D01*
X190142857Y-66108628D02*
X189761905Y-66108628D01*
X191285714Y-66584819D02*
X190714286Y-66584819D01*
X191000000Y-66584819D02*
X191000000Y-65584819D01*
X191000000Y-65584819D02*
X190904762Y-65727676D01*
X190904762Y-65727676D02*
X190809524Y-65822914D01*
X190809524Y-65822914D02*
X190714286Y-65870533D01*
X169358333Y-97209580D02*
X169310714Y-97257200D01*
X169310714Y-97257200D02*
X169167857Y-97304819D01*
X169167857Y-97304819D02*
X169072619Y-97304819D01*
X169072619Y-97304819D02*
X168929762Y-97257200D01*
X168929762Y-97257200D02*
X168834524Y-97161961D01*
X168834524Y-97161961D02*
X168786905Y-97066723D01*
X168786905Y-97066723D02*
X168739286Y-96876247D01*
X168739286Y-96876247D02*
X168739286Y-96733390D01*
X168739286Y-96733390D02*
X168786905Y-96542914D01*
X168786905Y-96542914D02*
X168834524Y-96447676D01*
X168834524Y-96447676D02*
X168929762Y-96352438D01*
X168929762Y-96352438D02*
X169072619Y-96304819D01*
X169072619Y-96304819D02*
X169167857Y-96304819D01*
X169167857Y-96304819D02*
X169310714Y-96352438D01*
X169310714Y-96352438D02*
X169358333Y-96400057D01*
X169691667Y-96304819D02*
X170310714Y-96304819D01*
X170310714Y-96304819D02*
X169977381Y-96685771D01*
X169977381Y-96685771D02*
X170120238Y-96685771D01*
X170120238Y-96685771D02*
X170215476Y-96733390D01*
X170215476Y-96733390D02*
X170263095Y-96781009D01*
X170263095Y-96781009D02*
X170310714Y-96876247D01*
X170310714Y-96876247D02*
X170310714Y-97114342D01*
X170310714Y-97114342D02*
X170263095Y-97209580D01*
X170263095Y-97209580D02*
X170215476Y-97257200D01*
X170215476Y-97257200D02*
X170120238Y-97304819D01*
X170120238Y-97304819D02*
X169834524Y-97304819D01*
X169834524Y-97304819D02*
X169739286Y-97257200D01*
X169739286Y-97257200D02*
X169691667Y-97209580D01*
X169333333Y-61209580D02*
X169285714Y-61257200D01*
X169285714Y-61257200D02*
X169142857Y-61304819D01*
X169142857Y-61304819D02*
X169047619Y-61304819D01*
X169047619Y-61304819D02*
X168904762Y-61257200D01*
X168904762Y-61257200D02*
X168809524Y-61161961D01*
X168809524Y-61161961D02*
X168761905Y-61066723D01*
X168761905Y-61066723D02*
X168714286Y-60876247D01*
X168714286Y-60876247D02*
X168714286Y-60733390D01*
X168714286Y-60733390D02*
X168761905Y-60542914D01*
X168761905Y-60542914D02*
X168809524Y-60447676D01*
X168809524Y-60447676D02*
X168904762Y-60352438D01*
X168904762Y-60352438D02*
X169047619Y-60304819D01*
X169047619Y-60304819D02*
X169142857Y-60304819D01*
X169142857Y-60304819D02*
X169285714Y-60352438D01*
X169285714Y-60352438D02*
X169333333Y-60400057D01*
X170285714Y-61304819D02*
X169714286Y-61304819D01*
X170000000Y-61304819D02*
X170000000Y-60304819D01*
X170000000Y-60304819D02*
X169904762Y-60447676D01*
X169904762Y-60447676D02*
X169809524Y-60542914D01*
X169809524Y-60542914D02*
X169714286Y-60590533D01*
X169358333Y-79019580D02*
X169310714Y-79067200D01*
X169310714Y-79067200D02*
X169167857Y-79114819D01*
X169167857Y-79114819D02*
X169072619Y-79114819D01*
X169072619Y-79114819D02*
X168929762Y-79067200D01*
X168929762Y-79067200D02*
X168834524Y-78971961D01*
X168834524Y-78971961D02*
X168786905Y-78876723D01*
X168786905Y-78876723D02*
X168739286Y-78686247D01*
X168739286Y-78686247D02*
X168739286Y-78543390D01*
X168739286Y-78543390D02*
X168786905Y-78352914D01*
X168786905Y-78352914D02*
X168834524Y-78257676D01*
X168834524Y-78257676D02*
X168929762Y-78162438D01*
X168929762Y-78162438D02*
X169072619Y-78114819D01*
X169072619Y-78114819D02*
X169167857Y-78114819D01*
X169167857Y-78114819D02*
X169310714Y-78162438D01*
X169310714Y-78162438D02*
X169358333Y-78210057D01*
X169739286Y-78210057D02*
X169786905Y-78162438D01*
X169786905Y-78162438D02*
X169882143Y-78114819D01*
X169882143Y-78114819D02*
X170120238Y-78114819D01*
X170120238Y-78114819D02*
X170215476Y-78162438D01*
X170215476Y-78162438D02*
X170263095Y-78210057D01*
X170263095Y-78210057D02*
X170310714Y-78305295D01*
X170310714Y-78305295D02*
X170310714Y-78400533D01*
X170310714Y-78400533D02*
X170263095Y-78543390D01*
X170263095Y-78543390D02*
X169691667Y-79114819D01*
X169691667Y-79114819D02*
X170310714Y-79114819D01*
D12*
%TO.C,J1*%
X189170000Y-82670000D02*
X190500000Y-82670000D01*
X189170000Y-84000000D02*
X189170000Y-82670000D01*
X189170000Y-85270000D02*
X189170000Y-87870000D01*
X189170000Y-85270000D02*
X191830000Y-85270000D01*
X189170000Y-87870000D02*
X191830000Y-87870000D01*
X191830000Y-85270000D02*
X191830000Y-87870000D01*
D13*
%TO.C,IC1*%
X186800000Y-98730000D02*
X194490000Y-98730000D01*
X187890000Y-108890000D02*
X194490000Y-108890000D01*
D12*
%TO.C,R1*%
X186460000Y-68500000D02*
X187230000Y-68500000D01*
X187230000Y-67130000D02*
X187230000Y-69870000D01*
X187230000Y-69870000D02*
X193770000Y-69870000D01*
X193770000Y-67130000D02*
X187230000Y-67130000D01*
X193770000Y-69870000D02*
X193770000Y-67130000D01*
X194540000Y-68500000D02*
X193770000Y-68500000D01*
%TO.C,C3*%
X161155000Y-97980000D02*
X161155000Y-102896000D01*
X161155000Y-97980000D02*
X177895000Y-97980000D01*
X161155000Y-105104000D02*
X161155000Y-110020000D01*
X161155000Y-110020000D02*
X177895000Y-110020000D01*
X177895000Y-97980000D02*
X177895000Y-102896000D01*
X177895000Y-105104000D02*
X177895000Y-110020000D01*
%TO.C,C1*%
X161130000Y-61980000D02*
X161130000Y-66896000D01*
X161130000Y-61980000D02*
X177870000Y-61980000D01*
X161130000Y-69104000D02*
X161130000Y-74020000D01*
X161130000Y-74020000D02*
X177870000Y-74020000D01*
X177870000Y-61980000D02*
X177870000Y-66896000D01*
X177870000Y-69104000D02*
X177870000Y-74020000D01*
%TO.C,C2*%
X161155000Y-79790000D02*
X161155000Y-84706000D01*
X161155000Y-79790000D02*
X177895000Y-79790000D01*
X161155000Y-86914000D02*
X161155000Y-91830000D01*
X161155000Y-91830000D02*
X177895000Y-91830000D01*
X177895000Y-79790000D02*
X177895000Y-84706000D01*
X177895000Y-86914000D02*
X177895000Y-91830000D01*
%TD*%
M02*
