%TF.GenerationSoftware,KiCad,Pcbnew,8.0.8*%
%TF.CreationDate,2025-02-03T11:26:52-05:00*%
%TF.ProjectId,Power_Supply_Board,506f7765-725f-4537-9570-706c795f426f,rev?*%
%TF.SameCoordinates,Original*%
%TF.FileFunction,Copper,L1,Top*%
%TF.FilePolarity,Positive*%
%FSLAX46Y46*%
G04 Gerber Fmt 4.6, Leading zero omitted, Abs format (unit mm)*
G04 Created by KiCad (PCBNEW 8.0.8) date 2025-02-03 11:26:52*
%MOMM*%
%LPD*%
G01*
G04 APERTURE LIST*
%TA.AperFunction,ComponentPad*%
%ADD10R,1.700000X1.700000*%
%TD*%
%TA.AperFunction,ComponentPad*%
%ADD11O,1.700000X1.700000*%
%TD*%
%TA.AperFunction,ComponentPad*%
%ADD12R,1.160000X1.160000*%
%TD*%
%TA.AperFunction,ComponentPad*%
%ADD13C,1.160000*%
%TD*%
%TA.AperFunction,ComponentPad*%
%ADD14C,1.600000*%
%TD*%
%TA.AperFunction,ComponentPad*%
%ADD15O,1.600000X1.600000*%
%TD*%
%TA.AperFunction,ComponentPad*%
%ADD16C,2.200000*%
%TD*%
%TA.AperFunction,ViaPad*%
%ADD17C,0.600000*%
%TD*%
%TA.AperFunction,Conductor*%
%ADD18C,0.200000*%
%TD*%
G04 APERTURE END LIST*
D10*
%TO.P,J1,1,Pin_1*%
%TO.N,Net-(IC1-V+)*%
X190500000Y-84000000D03*
D11*
%TO.P,J1,2,Pin_2*%
%TO.N,Net-(J1-Pin_2)*%
X190500000Y-86540000D03*
%TD*%
D12*
%TO.P,IC1,1,BOOST*%
%TO.N,unconnected-(IC1-BOOST-Pad1)*%
X187380000Y-100000000D03*
D13*
%TO.P,IC1,2,CAP+*%
%TO.N,Net-(IC1-CAP+)*%
X187380000Y-102540000D03*
%TO.P,IC1,3,GND*%
%TO.N,Earth*%
X187380000Y-105080000D03*
%TO.P,IC1,4,CAP-*%
%TO.N,Net-(IC1-CAP-)*%
X187380000Y-107620000D03*
%TO.P,IC1,5,VOUT*%
%TO.N,Net-(IC1-VOUT)*%
X195000000Y-107620000D03*
%TO.P,IC1,6,LOW_VOLTAGE_(LV)*%
%TO.N,unconnected-(IC1-LOW_VOLTAGE_(LV)-Pad6)*%
X195000000Y-105080000D03*
%TO.P,IC1,7,OSC*%
%TO.N,unconnected-(IC1-OSC-Pad7)*%
X195000000Y-102540000D03*
%TO.P,IC1,8,V+*%
%TO.N,Net-(IC1-V+)*%
X195000000Y-100000000D03*
%TD*%
D14*
%TO.P,R1,1*%
%TO.N,Net-(IC1-VOUT)*%
X185420000Y-68500000D03*
D15*
%TO.P,R1,2*%
%TO.N,Net-(J1-Pin_2)*%
X195580000Y-68500000D03*
%TD*%
D16*
%TO.P,C3,1*%
%TO.N,Net-(J1-Pin_2)*%
X162025000Y-104000000D03*
%TO.P,C3,2*%
%TO.N,Earth*%
X177025000Y-104000000D03*
%TD*%
%TO.P,C1,1*%
%TO.N,Net-(IC1-CAP+)*%
X162000000Y-68000000D03*
%TO.P,C1,2*%
%TO.N,Net-(IC1-CAP-)*%
X177000000Y-68000000D03*
%TD*%
%TO.P,C2,1*%
%TO.N,Net-(IC1-VOUT)*%
X162025000Y-85810000D03*
%TO.P,C2,2*%
%TO.N,Earth*%
X177025000Y-85810000D03*
%TD*%
D17*
%TO.N,Net-(IC1-CAP+)*%
X163482000Y-102540000D03*
%TD*%
D18*
%TO.N,Net-(IC1-CAP+)*%
X162000000Y-68000000D02*
X163482000Y-69481900D01*
X163482000Y-69481900D02*
X163482000Y-102540000D01*
%TO.N,Net-(IC1-CAP-)*%
X185720000Y-76720200D02*
X185720000Y-105960000D01*
X185720000Y-105960000D02*
X187380000Y-107620000D01*
X177000000Y-68000000D02*
X185720000Y-76720200D01*
%TO.N,Earth*%
X177025000Y-85810000D02*
X177025000Y-104000000D01*
%TO.N,Net-(IC1-VOUT)*%
X188866000Y-71946400D02*
X188866000Y-101486000D01*
X185420000Y-68500000D02*
X188866000Y-71946400D01*
X188866000Y-101486000D02*
X195000000Y-107620000D01*
%TO.N,Net-(J1-Pin_2)*%
X190500000Y-86180100D02*
X195580000Y-81100100D01*
X190500000Y-86540000D02*
X190500000Y-86180100D01*
X195580000Y-81100100D02*
X195580000Y-68500000D01*
%TO.N,Net-(IC1-V+)*%
X190500000Y-84000000D02*
X189345000Y-85154900D01*
X189345000Y-85154900D02*
X189345000Y-94345100D01*
X189345000Y-94345100D02*
X195000000Y-100000000D01*
%TD*%
%TA.AperFunction,Conductor*%
%TO.N,Earth*%
G36*
X199942539Y-58770185D02*
G01*
X199988294Y-58822989D01*
X199999500Y-58874500D01*
X199999500Y-114125500D01*
X199979815Y-114192539D01*
X199927011Y-114238294D01*
X199875500Y-114249500D01*
X158624500Y-114249500D01*
X158557461Y-114229815D01*
X158511706Y-114177011D01*
X158500500Y-114125500D01*
X158500500Y-68000000D01*
X160394551Y-68000000D01*
X160414317Y-68251151D01*
X160473126Y-68496110D01*
X160569533Y-68728859D01*
X160701160Y-68943653D01*
X160701161Y-68943656D01*
X160746352Y-68996567D01*
X160864776Y-69135224D01*
X161056341Y-69298836D01*
X161056346Y-69298839D01*
X161271140Y-69430466D01*
X161375546Y-69473712D01*
X161503889Y-69526873D01*
X161748852Y-69585683D01*
X162000000Y-69605449D01*
X162251148Y-69585683D01*
X162496111Y-69526873D01*
X162547975Y-69505389D01*
X162617441Y-69497920D01*
X162679921Y-69529193D01*
X162683105Y-69532266D01*
X162845178Y-69694328D01*
X162878665Y-69755648D01*
X162881500Y-69782011D01*
X162881500Y-84246825D01*
X162861815Y-84313864D01*
X162809011Y-84359619D01*
X162739853Y-84369563D01*
X162710048Y-84361386D01*
X162521113Y-84283127D01*
X162276151Y-84224317D01*
X162025000Y-84204551D01*
X161773848Y-84224317D01*
X161528889Y-84283126D01*
X161296140Y-84379533D01*
X161081346Y-84511160D01*
X161081343Y-84511161D01*
X160889776Y-84674776D01*
X160726161Y-84866343D01*
X160726160Y-84866346D01*
X160594533Y-85081140D01*
X160498126Y-85313889D01*
X160439317Y-85558848D01*
X160419551Y-85810000D01*
X160439317Y-86061151D01*
X160498126Y-86306110D01*
X160594533Y-86538859D01*
X160726160Y-86753653D01*
X160726161Y-86753656D01*
X160781604Y-86818571D01*
X160889776Y-86945224D01*
X161038066Y-87071875D01*
X161081343Y-87108838D01*
X161081346Y-87108839D01*
X161296140Y-87240466D01*
X161527737Y-87336396D01*
X161528889Y-87336873D01*
X161773852Y-87395683D01*
X162025000Y-87415449D01*
X162276148Y-87395683D01*
X162521111Y-87336873D01*
X162710048Y-87258612D01*
X162779516Y-87251144D01*
X162841996Y-87282419D01*
X162877648Y-87342508D01*
X162881500Y-87373174D01*
X162881500Y-101957587D01*
X162861815Y-102024626D01*
X162854450Y-102034896D01*
X162852186Y-102037734D01*
X162756210Y-102190478D01*
X162696630Y-102360750D01*
X162695155Y-102373847D01*
X162668088Y-102438260D01*
X162610493Y-102477815D01*
X162540656Y-102479952D01*
X162524491Y-102474527D01*
X162521114Y-102473128D01*
X162521101Y-102473124D01*
X162276151Y-102414317D01*
X162025000Y-102394551D01*
X161773848Y-102414317D01*
X161528889Y-102473126D01*
X161296140Y-102569533D01*
X161081346Y-102701160D01*
X161081343Y-102701161D01*
X160889776Y-102864776D01*
X160726161Y-103056343D01*
X160726160Y-103056346D01*
X160594533Y-103271140D01*
X160498126Y-103503889D01*
X160439317Y-103748848D01*
X160419551Y-104000000D01*
X160439317Y-104251151D01*
X160498126Y-104496110D01*
X160594533Y-104728859D01*
X160726160Y-104943653D01*
X160726161Y-104943656D01*
X160726164Y-104943659D01*
X160889776Y-105135224D01*
X161032096Y-105256777D01*
X161081343Y-105298838D01*
X161081346Y-105298839D01*
X161296140Y-105430466D01*
X161527737Y-105526396D01*
X161528889Y-105526873D01*
X161773852Y-105585683D01*
X162025000Y-105605449D01*
X162276148Y-105585683D01*
X162521111Y-105526873D01*
X162753859Y-105430466D01*
X162968659Y-105298836D01*
X163160224Y-105135224D01*
X163323836Y-104943659D01*
X163455466Y-104728859D01*
X163551873Y-104496111D01*
X163610683Y-104251148D01*
X163630449Y-104000000D01*
X175420052Y-104000000D01*
X175439812Y-104251072D01*
X175498603Y-104495956D01*
X175594980Y-104728631D01*
X175726568Y-104943362D01*
X175727266Y-104944179D01*
X176501212Y-104170233D01*
X176512482Y-104212292D01*
X176584890Y-104337708D01*
X176687292Y-104440110D01*
X176812708Y-104512518D01*
X176854765Y-104523787D01*
X176080819Y-105297732D01*
X176080819Y-105297733D01*
X176081634Y-105298429D01*
X176296368Y-105430019D01*
X176529043Y-105526396D01*
X176773927Y-105585187D01*
X177025000Y-105604947D01*
X177276072Y-105585187D01*
X177520956Y-105526396D01*
X177753631Y-105430019D01*
X177968361Y-105298432D01*
X177968363Y-105298430D01*
X177969180Y-105297732D01*
X177195234Y-104523787D01*
X177237292Y-104512518D01*
X177362708Y-104440110D01*
X177465110Y-104337708D01*
X177537518Y-104212292D01*
X177548787Y-104170235D01*
X178322732Y-104944180D01*
X178323430Y-104943363D01*
X178323432Y-104943361D01*
X178455019Y-104728631D01*
X178551396Y-104495956D01*
X178610187Y-104251072D01*
X178629947Y-104000000D01*
X178610187Y-103748927D01*
X178551396Y-103504043D01*
X178455019Y-103271368D01*
X178323429Y-103056634D01*
X178322733Y-103055819D01*
X178322732Y-103055819D01*
X177548787Y-103829764D01*
X177537518Y-103787708D01*
X177465110Y-103662292D01*
X177362708Y-103559890D01*
X177237292Y-103487482D01*
X177195232Y-103476212D01*
X177969179Y-102702266D01*
X177968362Y-102701568D01*
X177753631Y-102569980D01*
X177520956Y-102473603D01*
X177276072Y-102414812D01*
X177025000Y-102395052D01*
X176773927Y-102414812D01*
X176529043Y-102473603D01*
X176296368Y-102569980D01*
X176081637Y-102701567D01*
X176080818Y-102702266D01*
X176854765Y-103476212D01*
X176812708Y-103487482D01*
X176687292Y-103559890D01*
X176584890Y-103662292D01*
X176512482Y-103787708D01*
X176501212Y-103829765D01*
X175727266Y-103055818D01*
X175726567Y-103056637D01*
X175594980Y-103271368D01*
X175498603Y-103504043D01*
X175439812Y-103748927D01*
X175420052Y-104000000D01*
X163630449Y-104000000D01*
X163610683Y-103748852D01*
X163551873Y-103503889D01*
X163549155Y-103497327D01*
X163541686Y-103427858D01*
X163572961Y-103365379D01*
X163633050Y-103329727D01*
X163649830Y-103326655D01*
X163661255Y-103325368D01*
X163831522Y-103265789D01*
X163984262Y-103169816D01*
X164111816Y-103042262D01*
X164207789Y-102889522D01*
X164267368Y-102719255D01*
X164267369Y-102719249D01*
X164287565Y-102540003D01*
X164287565Y-102539996D01*
X164267369Y-102360750D01*
X164267368Y-102360745D01*
X164260321Y-102340606D01*
X164207789Y-102190478D01*
X164111816Y-102037738D01*
X164111814Y-102037736D01*
X164111813Y-102037734D01*
X164109550Y-102034896D01*
X164108659Y-102032715D01*
X164108111Y-102031842D01*
X164108264Y-102031745D01*
X164083144Y-101970209D01*
X164082500Y-101957587D01*
X164082500Y-85810000D01*
X175420052Y-85810000D01*
X175439812Y-86061072D01*
X175498603Y-86305956D01*
X175594980Y-86538631D01*
X175726568Y-86753362D01*
X175727266Y-86754179D01*
X176501212Y-85980233D01*
X176512482Y-86022292D01*
X176584890Y-86147708D01*
X176687292Y-86250110D01*
X176812708Y-86322518D01*
X176854765Y-86333787D01*
X176080819Y-87107732D01*
X176080819Y-87107733D01*
X176081634Y-87108429D01*
X176296368Y-87240019D01*
X176529043Y-87336396D01*
X176773927Y-87395187D01*
X177025000Y-87414947D01*
X177276072Y-87395187D01*
X177520956Y-87336396D01*
X177753631Y-87240019D01*
X177968361Y-87108432D01*
X177968363Y-87108430D01*
X177969180Y-87107732D01*
X177195234Y-86333787D01*
X177237292Y-86322518D01*
X177362708Y-86250110D01*
X177465110Y-86147708D01*
X177537518Y-86022292D01*
X177548787Y-85980235D01*
X178322732Y-86754180D01*
X178323430Y-86753363D01*
X178323432Y-86753361D01*
X178455019Y-86538631D01*
X178551396Y-86305956D01*
X178610187Y-86061072D01*
X178629947Y-85810000D01*
X178610187Y-85558927D01*
X178551396Y-85314043D01*
X178455019Y-85081368D01*
X178323429Y-84866634D01*
X178322733Y-84865819D01*
X178322732Y-84865819D01*
X177548787Y-85639764D01*
X177537518Y-85597708D01*
X177465110Y-85472292D01*
X177362708Y-85369890D01*
X177237292Y-85297482D01*
X177195232Y-85286212D01*
X177969179Y-84512266D01*
X177968362Y-84511568D01*
X177753631Y-84379980D01*
X177520956Y-84283603D01*
X177276072Y-84224812D01*
X177025000Y-84205052D01*
X176773927Y-84224812D01*
X176529043Y-84283603D01*
X176296368Y-84379980D01*
X176081637Y-84511567D01*
X176080818Y-84512266D01*
X176854765Y-85286212D01*
X176812708Y-85297482D01*
X176687292Y-85369890D01*
X176584890Y-85472292D01*
X176512482Y-85597708D01*
X176501212Y-85639765D01*
X175727266Y-84865818D01*
X175726567Y-84866637D01*
X175594980Y-85081368D01*
X175498603Y-85314043D01*
X175439812Y-85558927D01*
X175420052Y-85810000D01*
X164082500Y-85810000D01*
X164082500Y-69569222D01*
X164082502Y-69569177D01*
X164082501Y-69560941D01*
X164082503Y-69560937D01*
X164082500Y-69466068D01*
X164082500Y-69402843D01*
X164082500Y-69402830D01*
X164054631Y-69298835D01*
X164054629Y-69298830D01*
X164042245Y-69252610D01*
X164041676Y-69250287D01*
X164041646Y-69250214D01*
X164041149Y-69249370D01*
X164006694Y-69189696D01*
X163962520Y-69113184D01*
X163962519Y-69113183D01*
X163962517Y-69113180D01*
X163962512Y-69113173D01*
X163962507Y-69113168D01*
X163917820Y-69068484D01*
X163850716Y-69001380D01*
X163845941Y-68996605D01*
X163845899Y-68996567D01*
X163532316Y-68683006D01*
X163498829Y-68621684D01*
X163503811Y-68551993D01*
X163505412Y-68547920D01*
X163526873Y-68496111D01*
X163585683Y-68251148D01*
X163605449Y-68000000D01*
X175394551Y-68000000D01*
X175414317Y-68251151D01*
X175473126Y-68496110D01*
X175569533Y-68728859D01*
X175701160Y-68943653D01*
X175701161Y-68943656D01*
X175746352Y-68996567D01*
X175864776Y-69135224D01*
X176056341Y-69298836D01*
X176056346Y-69298839D01*
X176271140Y-69430466D01*
X176375546Y-69473712D01*
X176503889Y-69526873D01*
X176748852Y-69585683D01*
X177000000Y-69605449D01*
X177251148Y-69585683D01*
X177473506Y-69532300D01*
X177496103Y-69526875D01*
X177496103Y-69526874D01*
X177496111Y-69526873D01*
X177547906Y-69505418D01*
X177617371Y-69497950D01*
X177679851Y-69529224D01*
X177683038Y-69532300D01*
X180397149Y-72246472D01*
X184791727Y-76641150D01*
X185083182Y-76932611D01*
X185116667Y-76993934D01*
X185119500Y-77020291D01*
X185119500Y-105873330D01*
X185119499Y-105873348D01*
X185119499Y-106039054D01*
X185119498Y-106039054D01*
X185160423Y-106191785D01*
X185189358Y-106241900D01*
X185189359Y-106241904D01*
X185189360Y-106241904D01*
X185239479Y-106328714D01*
X185239481Y-106328717D01*
X185358349Y-106447585D01*
X185358355Y-106447590D01*
X186273714Y-107362950D01*
X186307199Y-107424273D01*
X186309504Y-107462071D01*
X186294871Y-107619997D01*
X186294871Y-107620000D01*
X186313346Y-107819391D01*
X186313347Y-107819393D01*
X186368145Y-108011989D01*
X186368151Y-108012004D01*
X186457401Y-108191241D01*
X186457406Y-108191249D01*
X186578081Y-108351049D01*
X186705386Y-108467102D01*
X186726064Y-108485952D01*
X186896316Y-108591368D01*
X187083040Y-108663705D01*
X187279877Y-108700500D01*
X187279879Y-108700500D01*
X187480121Y-108700500D01*
X187480123Y-108700500D01*
X187676960Y-108663705D01*
X187863684Y-108591368D01*
X188033936Y-108485952D01*
X188181920Y-108351047D01*
X188302595Y-108191247D01*
X188391853Y-108011994D01*
X188446653Y-107819392D01*
X188465129Y-107620000D01*
X188446653Y-107420608D01*
X188391853Y-107228006D01*
X188391848Y-107227995D01*
X188302598Y-107048758D01*
X188302593Y-107048750D01*
X188181918Y-106888950D01*
X188033937Y-106754049D01*
X188033936Y-106754048D01*
X187969101Y-106713903D01*
X187863685Y-106648632D01*
X187863683Y-106648631D01*
X187727152Y-106595739D01*
X187676960Y-106576295D01*
X187480123Y-106539500D01*
X187279877Y-106539500D01*
X187279873Y-106539500D01*
X187233634Y-106548143D01*
X187164119Y-106541111D01*
X187123171Y-106513935D01*
X186926319Y-106317083D01*
X186892834Y-106255760D01*
X186897818Y-106186068D01*
X186939690Y-106130135D01*
X187005154Y-106105718D01*
X187058796Y-106113776D01*
X187083174Y-106123220D01*
X187279925Y-106160000D01*
X187480075Y-106160000D01*
X187676824Y-106123220D01*
X187863459Y-106050918D01*
X187863463Y-106050916D01*
X187946158Y-105999712D01*
X187946158Y-105999711D01*
X187406446Y-105460000D01*
X187430028Y-105460000D01*
X187526675Y-105434104D01*
X187613325Y-105384076D01*
X187684076Y-105313325D01*
X187734104Y-105226675D01*
X187760000Y-105130028D01*
X187760000Y-105106447D01*
X188302954Y-105649401D01*
X188302955Y-105649401D01*
X188391383Y-105471815D01*
X188446159Y-105279295D01*
X188464627Y-105080000D01*
X188464627Y-105079999D01*
X188446159Y-104880704D01*
X188391383Y-104688184D01*
X188302955Y-104510596D01*
X187760000Y-105053551D01*
X187760000Y-105029972D01*
X187734104Y-104933325D01*
X187684076Y-104846675D01*
X187613325Y-104775924D01*
X187526675Y-104725896D01*
X187430028Y-104700000D01*
X187406447Y-104700000D01*
X187946159Y-104160287D01*
X187863458Y-104109081D01*
X187863457Y-104109080D01*
X187676824Y-104036779D01*
X187480075Y-104000000D01*
X187279925Y-104000000D01*
X187083175Y-104036779D01*
X186896543Y-104109080D01*
X186813839Y-104160287D01*
X187353554Y-104700000D01*
X187329972Y-104700000D01*
X187233325Y-104725896D01*
X187146675Y-104775924D01*
X187075924Y-104846675D01*
X187025896Y-104933325D01*
X187000000Y-105029972D01*
X187000000Y-105053553D01*
X186454606Y-104508158D01*
X186395130Y-104500752D01*
X186341470Y-104456003D01*
X186320522Y-104389348D01*
X186320500Y-104387004D01*
X186320500Y-103299921D01*
X186340185Y-103232882D01*
X186392989Y-103187127D01*
X186462147Y-103177183D01*
X186525703Y-103206208D01*
X186543451Y-103225190D01*
X186578080Y-103271047D01*
X186726064Y-103405952D01*
X186797204Y-103450000D01*
X186884485Y-103504043D01*
X186896316Y-103511368D01*
X187083040Y-103583705D01*
X187279877Y-103620500D01*
X187279879Y-103620500D01*
X187480121Y-103620500D01*
X187480123Y-103620500D01*
X187676960Y-103583705D01*
X187863684Y-103511368D01*
X188033936Y-103405952D01*
X188181920Y-103271047D01*
X188302595Y-103111247D01*
X188391853Y-102931994D01*
X188446653Y-102739392D01*
X188465129Y-102540000D01*
X188464904Y-102537577D01*
X188446653Y-102340608D01*
X188439500Y-102315467D01*
X188408413Y-102206208D01*
X188408999Y-102136343D01*
X188447266Y-102077885D01*
X188511063Y-102049394D01*
X188580136Y-102059918D01*
X188615360Y-102084595D01*
X193893715Y-107362950D01*
X193927200Y-107424273D01*
X193929505Y-107462072D01*
X193914871Y-107619999D01*
X193914871Y-107620000D01*
X193933346Y-107819391D01*
X193933347Y-107819393D01*
X193988145Y-108011989D01*
X193988151Y-108012004D01*
X194077401Y-108191241D01*
X194077406Y-108191249D01*
X194198081Y-108351049D01*
X194325386Y-108467102D01*
X194346064Y-108485952D01*
X194516316Y-108591368D01*
X194703040Y-108663705D01*
X194899877Y-108700500D01*
X194899879Y-108700500D01*
X195100121Y-108700500D01*
X195100123Y-108700500D01*
X195296960Y-108663705D01*
X195483684Y-108591368D01*
X195653936Y-108485952D01*
X195801920Y-108351047D01*
X195922595Y-108191247D01*
X196011853Y-108011994D01*
X196066653Y-107819392D01*
X196085129Y-107620000D01*
X196066653Y-107420608D01*
X196011853Y-107228006D01*
X196011848Y-107227995D01*
X195922598Y-107048758D01*
X195922593Y-107048750D01*
X195801918Y-106888950D01*
X195653937Y-106754049D01*
X195653936Y-106754048D01*
X195589101Y-106713903D01*
X195483685Y-106648632D01*
X195483683Y-106648631D01*
X195347152Y-106595739D01*
X195296960Y-106576295D01*
X195100123Y-106539500D01*
X194899877Y-106539500D01*
X194899873Y-106539500D01*
X194853633Y-106548143D01*
X194784118Y-106541110D01*
X194743170Y-106513935D01*
X194547194Y-106317959D01*
X194513709Y-106256636D01*
X194518693Y-106186944D01*
X194560565Y-106131011D01*
X194626029Y-106106594D01*
X194679668Y-106114650D01*
X194703040Y-106123705D01*
X194899877Y-106160500D01*
X194899879Y-106160500D01*
X195100121Y-106160500D01*
X195100123Y-106160500D01*
X195296960Y-106123705D01*
X195483684Y-106051368D01*
X195653936Y-105945952D01*
X195801920Y-105811047D01*
X195922595Y-105651247D01*
X196011853Y-105471994D01*
X196066653Y-105279392D01*
X196085129Y-105080000D01*
X196066653Y-104880608D01*
X196011853Y-104688006D01*
X195923513Y-104510596D01*
X195922598Y-104508758D01*
X195922593Y-104508750D01*
X195801918Y-104348950D01*
X195653937Y-104214049D01*
X195653936Y-104214048D01*
X195589101Y-104173903D01*
X195483685Y-104108632D01*
X195483683Y-104108631D01*
X195298209Y-104036779D01*
X195296960Y-104036295D01*
X195100123Y-103999500D01*
X194899877Y-103999500D01*
X194703040Y-104036295D01*
X194703037Y-104036295D01*
X194703037Y-104036296D01*
X194516316Y-104108631D01*
X194516314Y-104108632D01*
X194346062Y-104214049D01*
X194198081Y-104348950D01*
X194077406Y-104508750D01*
X194077401Y-104508758D01*
X193988151Y-104687995D01*
X193988145Y-104688010D01*
X193933347Y-104880606D01*
X193933346Y-104880608D01*
X193914871Y-105079999D01*
X193914871Y-105080000D01*
X193933346Y-105279391D01*
X193933347Y-105279394D01*
X193971586Y-105413789D01*
X193970999Y-105483656D01*
X193932733Y-105542115D01*
X193868935Y-105570605D01*
X193799863Y-105560081D01*
X193764639Y-105535404D01*
X190769234Y-102539999D01*
X193914871Y-102539999D01*
X193914871Y-102540000D01*
X193933346Y-102739391D01*
X193933347Y-102739393D01*
X193988145Y-102931989D01*
X193988151Y-102932004D01*
X194077401Y-103111241D01*
X194077406Y-103111249D01*
X194198081Y-103271049D01*
X194301557Y-103365379D01*
X194346064Y-103405952D01*
X194417204Y-103450000D01*
X194504485Y-103504043D01*
X194516316Y-103511368D01*
X194703040Y-103583705D01*
X194899877Y-103620500D01*
X194899879Y-103620500D01*
X195100121Y-103620500D01*
X195100123Y-103620500D01*
X195296960Y-103583705D01*
X195483684Y-103511368D01*
X195653936Y-103405952D01*
X195801920Y-103271047D01*
X195922595Y-103111247D01*
X196011853Y-102931994D01*
X196066653Y-102739392D01*
X196085129Y-102540000D01*
X196084904Y-102537577D01*
X196066653Y-102340608D01*
X196066652Y-102340606D01*
X196059499Y-102315467D01*
X196011853Y-102148006D01*
X196011848Y-102147995D01*
X195922598Y-101968758D01*
X195922593Y-101968750D01*
X195801918Y-101808950D01*
X195653937Y-101674049D01*
X195653936Y-101674048D01*
X195589101Y-101633903D01*
X195483685Y-101568632D01*
X195483683Y-101568631D01*
X195347152Y-101515739D01*
X195296960Y-101496295D01*
X195100123Y-101459500D01*
X194899877Y-101459500D01*
X194703040Y-101496295D01*
X194703037Y-101496295D01*
X194703037Y-101496296D01*
X194516316Y-101568631D01*
X194516314Y-101568632D01*
X194346062Y-101674049D01*
X194198081Y-101808950D01*
X194077406Y-101968750D01*
X194077401Y-101968758D01*
X193988151Y-102147995D01*
X193988145Y-102148010D01*
X193933347Y-102340606D01*
X193933346Y-102340608D01*
X193914871Y-102539999D01*
X190769234Y-102539999D01*
X189502819Y-101273584D01*
X189469334Y-101212261D01*
X189466500Y-101185903D01*
X189466500Y-95615183D01*
X189486185Y-95548144D01*
X189538989Y-95502389D01*
X189608147Y-95492445D01*
X189671703Y-95521470D01*
X189678175Y-95527496D01*
X192048701Y-97897981D01*
X193893712Y-99742960D01*
X193927198Y-99804283D01*
X193929503Y-99842082D01*
X193914871Y-99999997D01*
X193914871Y-100000000D01*
X193933346Y-100199391D01*
X193933347Y-100199393D01*
X193988145Y-100391989D01*
X193988151Y-100392004D01*
X194077401Y-100571241D01*
X194077406Y-100571249D01*
X194198081Y-100731049D01*
X194298214Y-100822331D01*
X194346064Y-100865952D01*
X194516316Y-100971368D01*
X194703040Y-101043705D01*
X194899877Y-101080500D01*
X194899879Y-101080500D01*
X195100121Y-101080500D01*
X195100123Y-101080500D01*
X195296960Y-101043705D01*
X195483684Y-100971368D01*
X195653936Y-100865952D01*
X195801920Y-100731047D01*
X195922595Y-100571247D01*
X196011853Y-100391994D01*
X196066653Y-100199392D01*
X196085129Y-100000000D01*
X196066653Y-99800608D01*
X196011853Y-99608006D01*
X196011848Y-99607995D01*
X195922598Y-99428758D01*
X195922593Y-99428750D01*
X195801918Y-99268950D01*
X195653937Y-99134049D01*
X195653936Y-99134048D01*
X195589101Y-99093903D01*
X195483685Y-99028632D01*
X195483683Y-99028631D01*
X195347152Y-98975739D01*
X195296960Y-98956295D01*
X195100123Y-98919500D01*
X194899877Y-98919500D01*
X194899873Y-98919500D01*
X194853623Y-98928145D01*
X194784108Y-98921113D01*
X194743161Y-98893938D01*
X189981820Y-94132679D01*
X189948334Y-94071356D01*
X189945500Y-94044997D01*
X189945500Y-87951163D01*
X189965185Y-87884124D01*
X190017989Y-87838369D01*
X190087147Y-87828425D01*
X190101591Y-87831387D01*
X190264592Y-87875063D01*
X190452918Y-87891539D01*
X190499999Y-87895659D01*
X190500000Y-87895659D01*
X190500001Y-87895659D01*
X190539234Y-87892226D01*
X190735408Y-87875063D01*
X190963663Y-87813903D01*
X191177830Y-87714035D01*
X191371401Y-87578495D01*
X191538495Y-87411401D01*
X191674035Y-87217830D01*
X191773903Y-87003663D01*
X191835063Y-86775408D01*
X191855659Y-86540000D01*
X191835063Y-86304592D01*
X191773903Y-86076337D01*
X191708542Y-85936172D01*
X191698051Y-85867098D01*
X191726570Y-85803314D01*
X191733231Y-85796102D01*
X195948713Y-81580621D01*
X195948716Y-81580620D01*
X196060520Y-81468816D01*
X196110639Y-81382004D01*
X196139577Y-81331885D01*
X196180501Y-81179157D01*
X196180501Y-81021043D01*
X196180501Y-81013448D01*
X196180500Y-81013430D01*
X196180500Y-69731692D01*
X196200185Y-69664653D01*
X196233374Y-69630119D01*
X196419139Y-69500047D01*
X196580047Y-69339139D01*
X196710568Y-69152734D01*
X196806739Y-68946496D01*
X196865635Y-68726692D01*
X196885468Y-68500000D01*
X196865635Y-68273308D01*
X196806739Y-68053504D01*
X196710568Y-67847266D01*
X196580047Y-67660861D01*
X196580045Y-67660858D01*
X196419141Y-67499954D01*
X196232734Y-67369432D01*
X196232732Y-67369431D01*
X196026497Y-67273261D01*
X196026488Y-67273258D01*
X195806697Y-67214366D01*
X195806693Y-67214365D01*
X195806692Y-67214365D01*
X195806691Y-67214364D01*
X195806686Y-67214364D01*
X195580002Y-67194532D01*
X195579998Y-67194532D01*
X195353313Y-67214364D01*
X195353302Y-67214366D01*
X195133511Y-67273258D01*
X195133502Y-67273261D01*
X194927267Y-67369431D01*
X194927265Y-67369432D01*
X194740858Y-67499954D01*
X194579954Y-67660858D01*
X194449432Y-67847265D01*
X194449431Y-67847267D01*
X194353261Y-68053502D01*
X194353258Y-68053511D01*
X194294366Y-68273302D01*
X194294364Y-68273313D01*
X194274532Y-68499998D01*
X194274532Y-68500001D01*
X194294364Y-68726686D01*
X194294366Y-68726697D01*
X194353258Y-68946488D01*
X194353261Y-68946497D01*
X194449431Y-69152732D01*
X194449432Y-69152734D01*
X194579954Y-69339141D01*
X194740858Y-69500045D01*
X194740861Y-69500047D01*
X194926624Y-69630118D01*
X194970248Y-69684693D01*
X194979500Y-69731692D01*
X194979500Y-80800002D01*
X194959815Y-80867041D01*
X194943181Y-80887683D01*
X192062180Y-83768684D01*
X192000857Y-83802169D01*
X191931165Y-83797185D01*
X191875232Y-83755313D01*
X191850815Y-83689849D01*
X191850499Y-83681003D01*
X191850499Y-83102129D01*
X191850498Y-83102123D01*
X191844091Y-83042516D01*
X191793797Y-82907671D01*
X191793793Y-82907664D01*
X191707547Y-82792455D01*
X191707544Y-82792452D01*
X191592335Y-82706206D01*
X191592328Y-82706202D01*
X191457482Y-82655908D01*
X191457483Y-82655908D01*
X191397883Y-82649501D01*
X191397881Y-82649500D01*
X191397873Y-82649500D01*
X191397864Y-82649500D01*
X189602129Y-82649500D01*
X189598805Y-82649679D01*
X189598737Y-82648423D01*
X189534983Y-82636914D01*
X189483851Y-82589298D01*
X189466500Y-82526036D01*
X189466500Y-71955220D01*
X189466500Y-71955215D01*
X189466505Y-71867378D01*
X189466503Y-71867371D01*
X189466500Y-71867346D01*
X189466500Y-71867343D01*
X189446157Y-71791424D01*
X189426035Y-71716309D01*
X189425630Y-71714702D01*
X189425621Y-71714680D01*
X189425208Y-71713977D01*
X189383609Y-71641923D01*
X189383607Y-71641920D01*
X189373803Y-71624938D01*
X189346597Y-71577809D01*
X189346541Y-71577711D01*
X189346523Y-71577687D01*
X189286234Y-71517398D01*
X187561003Y-69791967D01*
X186711913Y-68942779D01*
X186678432Y-68881455D01*
X186679825Y-68823011D01*
X186705635Y-68726692D01*
X186725468Y-68500000D01*
X186705635Y-68273308D01*
X186646739Y-68053504D01*
X186550568Y-67847266D01*
X186420047Y-67660861D01*
X186420045Y-67660858D01*
X186259141Y-67499954D01*
X186072734Y-67369432D01*
X186072732Y-67369431D01*
X185866497Y-67273261D01*
X185866488Y-67273258D01*
X185646697Y-67214366D01*
X185646693Y-67214365D01*
X185646692Y-67214365D01*
X185646691Y-67214364D01*
X185646686Y-67214364D01*
X185420002Y-67194532D01*
X185419998Y-67194532D01*
X185193313Y-67214364D01*
X185193302Y-67214366D01*
X184973511Y-67273258D01*
X184973502Y-67273261D01*
X184767267Y-67369431D01*
X184767265Y-67369432D01*
X184580858Y-67499954D01*
X184419954Y-67660858D01*
X184289432Y-67847265D01*
X184289431Y-67847267D01*
X184193261Y-68053502D01*
X184193258Y-68053511D01*
X184134366Y-68273302D01*
X184134364Y-68273313D01*
X184114532Y-68499998D01*
X184114532Y-68500001D01*
X184134364Y-68726686D01*
X184134366Y-68726697D01*
X184193258Y-68946488D01*
X184193261Y-68946497D01*
X184289431Y-69152732D01*
X184289432Y-69152734D01*
X184419954Y-69339141D01*
X184580858Y-69500045D01*
X184580861Y-69500047D01*
X184767266Y-69630568D01*
X184973504Y-69726739D01*
X185193308Y-69785635D01*
X185355230Y-69799801D01*
X185419998Y-69805468D01*
X185420000Y-69805468D01*
X185420002Y-69805468D01*
X185476673Y-69800509D01*
X185646692Y-69785635D01*
X185742853Y-69759868D01*
X185812700Y-69761531D01*
X185862631Y-69791967D01*
X186176617Y-70105990D01*
X188229186Y-72158797D01*
X188262668Y-72220121D01*
X188265500Y-72246472D01*
X188265500Y-98821171D01*
X188245815Y-98888210D01*
X188193011Y-98933965D01*
X188123853Y-98943909D01*
X188098167Y-98937353D01*
X188067482Y-98925908D01*
X188067483Y-98925908D01*
X188007883Y-98919501D01*
X188007881Y-98919500D01*
X188007873Y-98919500D01*
X188007864Y-98919500D01*
X186752129Y-98919500D01*
X186752123Y-98919501D01*
X186692516Y-98925908D01*
X186557671Y-98976202D01*
X186557668Y-98976204D01*
X186518811Y-99005293D01*
X186453347Y-99029710D01*
X186385074Y-99014858D01*
X186335668Y-98965453D01*
X186320500Y-98906026D01*
X186320500Y-76799265D01*
X186320500Y-76799263D01*
X186320502Y-76641150D01*
X186279580Y-76488422D01*
X186236387Y-76413607D01*
X186202374Y-76354693D01*
X186200889Y-76351934D01*
X186200655Y-76351619D01*
X186113079Y-76264043D01*
X182095600Y-72246472D01*
X178532282Y-68683072D01*
X178498798Y-68621751D01*
X178503784Y-68552059D01*
X178505405Y-68547940D01*
X178526871Y-68496116D01*
X178526871Y-68496115D01*
X178526873Y-68496111D01*
X178585683Y-68251148D01*
X178605449Y-68000000D01*
X178585683Y-67748852D01*
X178526873Y-67503889D01*
X178525243Y-67499953D01*
X178430466Y-67271140D01*
X178298839Y-67056346D01*
X178298838Y-67056343D01*
X178261875Y-67013066D01*
X178135224Y-66864776D01*
X178008571Y-66756604D01*
X177943656Y-66701161D01*
X177943653Y-66701160D01*
X177728859Y-66569533D01*
X177496110Y-66473126D01*
X177251151Y-66414317D01*
X177000000Y-66394551D01*
X176748848Y-66414317D01*
X176503889Y-66473126D01*
X176271140Y-66569533D01*
X176056346Y-66701160D01*
X176056343Y-66701161D01*
X175864776Y-66864776D01*
X175701161Y-67056343D01*
X175701160Y-67056346D01*
X175569533Y-67271140D01*
X175473126Y-67503889D01*
X175414317Y-67748848D01*
X175394551Y-68000000D01*
X163605449Y-68000000D01*
X163585683Y-67748852D01*
X163526873Y-67503889D01*
X163525243Y-67499953D01*
X163430466Y-67271140D01*
X163298839Y-67056346D01*
X163298838Y-67056343D01*
X163261875Y-67013066D01*
X163135224Y-66864776D01*
X163008571Y-66756604D01*
X162943656Y-66701161D01*
X162943653Y-66701160D01*
X162728859Y-66569533D01*
X162496110Y-66473126D01*
X162251151Y-66414317D01*
X162000000Y-66394551D01*
X161748848Y-66414317D01*
X161503889Y-66473126D01*
X161271140Y-66569533D01*
X161056346Y-66701160D01*
X161056343Y-66701161D01*
X160864776Y-66864776D01*
X160701161Y-67056343D01*
X160701160Y-67056346D01*
X160569533Y-67271140D01*
X160473126Y-67503889D01*
X160414317Y-67748848D01*
X160394551Y-68000000D01*
X158500500Y-68000000D01*
X158500500Y-58874500D01*
X158520185Y-58807461D01*
X158572989Y-58761706D01*
X158624500Y-58750500D01*
X199875500Y-58750500D01*
X199942539Y-58770185D01*
G37*
%TD.AperFunction*%
%TD*%
M02*
