M48
; DRILL file {KiCad 8.0.8} date 2025-02-03T10:46:46-0500
; FORMAT={-:-/ absolute / inch / decimal}
; #@! TF.CreationDate,2025-02-03T10:46:46-05:00
; #@! TF.GenerationSoftware,Kicad,Pcbnew,8.0.8
; #@! TF.FileFunction,Plated,1,2,PTH
FMAT,2
INCH
; #@! TA.AperFunction,Plated,PTH,ComponentDrill
T1C0.0287
; #@! TA.AperFunction,Plated,PTH,ComponentDrill
T2C0.0315
; #@! TA.AperFunction,Plated,PTH,ComponentDrill
T3C0.0394
%
G90
G05
T1
X5.4748Y-3.5827
X5.4748Y-3.6827
X5.4748Y-3.7827
X5.4748Y-3.8827
X5.7874Y-3.5827
X5.7874Y-3.6827
X5.7874Y-3.7827
X5.7874Y-3.8827
T2
X5.4496Y-2.874
X5.4496Y-3.1299
X5.4496Y-3.3858
X5.8496Y-2.874
X5.8496Y-3.1299
X5.8496Y-3.3858
T3
X6.3189Y-2.8543
X6.3189Y-2.9543
X6.3189Y-3.2087
X6.3189Y-3.3087
X6.3189Y-3.4087
X6.3189Y-3.6614
X6.3189Y-3.7614
X6.3189Y-3.8614
M30
