%TF.GenerationSoftware,KiCad,Pcbnew,8.0.8*%
%TF.CreationDate,2025-02-03T10:46:48-05:00*%
%TF.ProjectId,CurrentDriverBoard,43757272-656e-4744-9472-69766572426f,rev?*%
%TF.SameCoordinates,Original*%
%TF.FileFunction,Copper,L2,Bot*%
%TF.FilePolarity,Positive*%
%FSLAX46Y46*%
G04 Gerber Fmt 4.6, Leading zero omitted, Abs format (unit mm)*
G04 Created by KiCad (PCBNEW 8.0.8) date 2025-02-03 10:46:48*
%MOMM*%
%LPD*%
G01*
G04 APERTURE LIST*
%TA.AperFunction,ComponentPad*%
%ADD10R,1.700000X1.700000*%
%TD*%
%TA.AperFunction,ComponentPad*%
%ADD11O,1.700000X1.700000*%
%TD*%
%TA.AperFunction,ComponentPad*%
%ADD12C,1.600000*%
%TD*%
%TA.AperFunction,ComponentPad*%
%ADD13O,1.600000X1.600000*%
%TD*%
%TA.AperFunction,ComponentPad*%
%ADD14R,1.130000X1.130000*%
%TD*%
%TA.AperFunction,ComponentPad*%
%ADD15C,1.130000*%
%TD*%
%TA.AperFunction,Conductor*%
%ADD16C,0.200000*%
%TD*%
G04 APERTURE END LIST*
D10*
%TO.P,J1,1,Pin_1*%
%TO.N,Net-(J1-Pin_1)*%
X160500000Y-93000000D03*
D11*
%TO.P,J1,2,Pin_2*%
%TO.N,Earth*%
X160500000Y-95540000D03*
%TO.P,J1,3,Pin_3*%
%TO.N,Net-(J1-Pin_3)*%
X160500000Y-98080000D03*
%TD*%
D12*
%TO.P,R3,1*%
%TO.N,Net-(R1-Pad1)*%
X138420000Y-86000000D03*
D13*
%TO.P,R3,2*%
%TO.N,Net-(U1-+)*%
X148580000Y-86000000D03*
%TD*%
D12*
%TO.P,R2,1*%
%TO.N,Net-(J2-Pin_3)*%
X138420000Y-79500000D03*
D13*
%TO.P,R2,2*%
%TO.N,Earth*%
X148580000Y-79500000D03*
%TD*%
D10*
%TO.P,J2,1,Pin_1*%
%TO.N,Net-(J1-Pin_3)*%
X160500000Y-81500000D03*
D11*
%TO.P,J2,2,Pin_2*%
%TO.N,Earth*%
X160500000Y-84040000D03*
%TO.P,J2,3,Pin_3*%
%TO.N,Net-(J2-Pin_3)*%
X160500000Y-86580000D03*
%TD*%
D12*
%TO.P,R1,1*%
%TO.N,Net-(R1-Pad1)*%
X138420000Y-73000000D03*
D13*
%TO.P,R1,2*%
%TO.N,Net-(J3-Pin_1)*%
X148580000Y-73000000D03*
%TD*%
D10*
%TO.P,J3,1,Pin_1*%
%TO.N,Net-(J3-Pin_1)*%
X160500000Y-72500000D03*
D11*
%TO.P,J3,2,Pin_2*%
%TO.N,Earth*%
X160500000Y-75040000D03*
%TD*%
D14*
%TO.P,U1,1,NULL*%
%TO.N,unconnected-(U1-NULL-Pad1)*%
X139060000Y-91000000D03*
D15*
%TO.P,U1,2,-*%
%TO.N,Net-(J1-Pin_3)*%
X139060000Y-93540000D03*
%TO.P,U1,3,+*%
%TO.N,Net-(U1-+)*%
X139060000Y-96080000D03*
%TO.P,U1,4,V-*%
%TO.N,unconnected-(U1-V--Pad4)*%
X139060000Y-98620000D03*
%TO.P,U1,5,NULL*%
%TO.N,unconnected-(U1-NULL-Pad5)*%
X147000000Y-98620000D03*
%TO.P,U1,6*%
%TO.N,Net-(J1-Pin_1)*%
X147000000Y-96080000D03*
%TO.P,U1,7,V+*%
%TO.N,Net-(U1-+)*%
X147000000Y-93540000D03*
%TO.P,U1,8,NC*%
%TO.N,unconnected-(U1-NC-Pad8)*%
X147000000Y-91000000D03*
%TD*%
D16*
%TO.N,Net-(J1-Pin_3)*%
X143233000Y-93540000D02*
X147773000Y-98080000D01*
X139060000Y-93540000D02*
X143233000Y-93540000D01*
X147773000Y-98080000D02*
X160500000Y-98080000D01*
%TO.N,Earth*%
X154142000Y-75040000D02*
X160500000Y-75040000D01*
X148580000Y-79500000D02*
X149682000Y-79500000D01*
X149682000Y-79500000D02*
X154142000Y-75040000D01*
%TO.N,Net-(J1-Pin_1)*%
X160500000Y-93000000D02*
X159348000Y-93000000D01*
X159348000Y-93000000D02*
X156268000Y-96080000D01*
X156268000Y-96080000D02*
X147000000Y-96080000D01*
%TO.N,Net-(J2-Pin_3)*%
X155518000Y-82750000D02*
X141670000Y-82750000D01*
X160500000Y-86580000D02*
X159348000Y-86580000D01*
X141670000Y-82750000D02*
X138420000Y-79500000D01*
X159348000Y-86580000D02*
X155518000Y-82750000D01*
%TO.N,Net-(J3-Pin_1)*%
X150182000Y-72500000D02*
X160500000Y-72500000D01*
X148580000Y-73000000D02*
X149682000Y-73000000D01*
X149682000Y-73000000D02*
X150182000Y-72500000D01*
%TO.N,Net-(U1-+)*%
X146121000Y-92661100D02*
X138640000Y-92661100D01*
X138170000Y-93131700D02*
X138170000Y-95189500D01*
X147000000Y-93540000D02*
X146121000Y-92661100D01*
X138170000Y-95189500D02*
X139060000Y-96080000D01*
X138640000Y-92661100D02*
X138170000Y-93131700D01*
%TD*%
%TA.AperFunction,Conductor*%
%TO.N,Earth*%
G36*
X159192662Y-94107086D02*
G01*
X159248593Y-94148955D01*
X159292454Y-94207546D01*
X159338643Y-94242123D01*
X159407664Y-94293793D01*
X159407671Y-94293797D01*
X159469902Y-94317007D01*
X159539598Y-94343002D01*
X159595531Y-94384873D01*
X159619949Y-94450337D01*
X159605098Y-94518610D01*
X159583947Y-94546865D01*
X159461886Y-94668926D01*
X159326400Y-94862420D01*
X159326399Y-94862422D01*
X159226570Y-95076507D01*
X159226567Y-95076513D01*
X159169364Y-95289999D01*
X159169364Y-95290000D01*
X160066988Y-95290000D01*
X160034075Y-95347007D01*
X160000000Y-95474174D01*
X160000000Y-95605826D01*
X160034075Y-95732993D01*
X160066988Y-95790000D01*
X159169364Y-95790000D01*
X159226567Y-96003486D01*
X159226570Y-96003492D01*
X159326399Y-96217578D01*
X159461894Y-96411082D01*
X159628917Y-96578105D01*
X159814595Y-96708119D01*
X159858219Y-96762696D01*
X159865412Y-96832195D01*
X159833890Y-96894549D01*
X159814595Y-96911269D01*
X159628594Y-97041508D01*
X159461506Y-97208596D01*
X159325965Y-97402170D01*
X159325962Y-97402175D01*
X159323289Y-97407909D01*
X159277115Y-97460346D01*
X159210909Y-97479500D01*
X148073098Y-97479500D01*
X148006059Y-97459815D01*
X147985417Y-97443181D01*
X147646323Y-97104087D01*
X147612838Y-97042764D01*
X147617822Y-96973072D01*
X147655339Y-96920553D01*
X147757067Y-96837067D01*
X147848353Y-96725834D01*
X147906098Y-96686501D01*
X147944206Y-96680500D01*
X156181331Y-96680500D01*
X156181347Y-96680501D01*
X156188943Y-96680501D01*
X156347054Y-96680501D01*
X156347057Y-96680501D01*
X156499785Y-96639577D01*
X156549904Y-96610639D01*
X156636716Y-96560520D01*
X156748520Y-96448716D01*
X156748520Y-96448714D01*
X156758728Y-96438507D01*
X156758729Y-96438504D01*
X159061649Y-94135585D01*
X159122970Y-94102102D01*
X159192662Y-94107086D01*
G37*
%TD.AperFunction*%
%TA.AperFunction,Conductor*%
G36*
X167442539Y-68020185D02*
G01*
X167488294Y-68072989D01*
X167499500Y-68124500D01*
X167499500Y-102875500D01*
X167479815Y-102942539D01*
X167427011Y-102988294D01*
X167375500Y-102999500D01*
X135124500Y-102999500D01*
X135057461Y-102979815D01*
X135011706Y-102927011D01*
X135000500Y-102875500D01*
X135000500Y-98620000D01*
X137989345Y-98620000D01*
X138009917Y-98828876D01*
X138070844Y-99029723D01*
X138169779Y-99214818D01*
X138169783Y-99214825D01*
X138302932Y-99377067D01*
X138465174Y-99510216D01*
X138465181Y-99510220D01*
X138650276Y-99609155D01*
X138650278Y-99609156D01*
X138851126Y-99670083D01*
X139060000Y-99690655D01*
X139268874Y-99670083D01*
X139469722Y-99609156D01*
X139654824Y-99510217D01*
X139817067Y-99377067D01*
X139950217Y-99214824D01*
X140049156Y-99029722D01*
X140110083Y-98828874D01*
X140130655Y-98620000D01*
X140110083Y-98411126D01*
X140049156Y-98210278D01*
X139979521Y-98080000D01*
X139950220Y-98025181D01*
X139950216Y-98025174D01*
X139817067Y-97862932D01*
X139654825Y-97729783D01*
X139654818Y-97729779D01*
X139469723Y-97630844D01*
X139268876Y-97569917D01*
X139060000Y-97549345D01*
X138851123Y-97569917D01*
X138650276Y-97630844D01*
X138465181Y-97729779D01*
X138465174Y-97729783D01*
X138302932Y-97862932D01*
X138169783Y-98025174D01*
X138169779Y-98025181D01*
X138070844Y-98210276D01*
X138009917Y-98411123D01*
X137989345Y-98620000D01*
X135000500Y-98620000D01*
X135000500Y-93053018D01*
X137569449Y-93053018D01*
X137569500Y-93132865D01*
X137569500Y-95187609D01*
X137569477Y-95268400D01*
X137569495Y-95268540D01*
X137589381Y-95342757D01*
X137589389Y-95342788D01*
X137610359Y-95421134D01*
X137610388Y-95421204D01*
X137610416Y-95421272D01*
X137649873Y-95489614D01*
X137649890Y-95489644D01*
X137689377Y-95558082D01*
X137689479Y-95558214D01*
X137689480Y-95558216D01*
X137746292Y-95615028D01*
X137746309Y-95615058D01*
X137746316Y-95615052D01*
X137967785Y-95836646D01*
X138001253Y-95897978D01*
X138003482Y-95936455D01*
X137989345Y-96079999D01*
X138009917Y-96288876D01*
X138070844Y-96489723D01*
X138169779Y-96674818D01*
X138169783Y-96674825D01*
X138302932Y-96837067D01*
X138465174Y-96970216D01*
X138465181Y-96970220D01*
X138598548Y-97041506D01*
X138650278Y-97069156D01*
X138851126Y-97130083D01*
X139060000Y-97150655D01*
X139268874Y-97130083D01*
X139469722Y-97069156D01*
X139654824Y-96970217D01*
X139817067Y-96837067D01*
X139950217Y-96674824D01*
X140049156Y-96489722D01*
X140110083Y-96288874D01*
X140130655Y-96080000D01*
X140110083Y-95871126D01*
X140049156Y-95670278D01*
X139978909Y-95538855D01*
X139950220Y-95485181D01*
X139950216Y-95485174D01*
X139817067Y-95322932D01*
X139654825Y-95189783D01*
X139654818Y-95189779D01*
X139469723Y-95090844D01*
X139268876Y-95029917D01*
X139060000Y-95009345D01*
X138917138Y-95023414D01*
X138848492Y-95010394D01*
X138817279Y-94987667D01*
X138806794Y-94977176D01*
X138773326Y-94915843D01*
X138770500Y-94889520D01*
X138770500Y-94718955D01*
X138790185Y-94651916D01*
X138842989Y-94606161D01*
X138906654Y-94595552D01*
X139060000Y-94610655D01*
X139268874Y-94590083D01*
X139469722Y-94529156D01*
X139654824Y-94430217D01*
X139817067Y-94297067D01*
X139908353Y-94185834D01*
X139966098Y-94146501D01*
X140004206Y-94140500D01*
X142932903Y-94140500D01*
X142999942Y-94160185D01*
X143020584Y-94176819D01*
X146400912Y-97557147D01*
X146434397Y-97618470D01*
X146429413Y-97688162D01*
X146391896Y-97740681D01*
X146242932Y-97862932D01*
X146109783Y-98025174D01*
X146109779Y-98025181D01*
X146010844Y-98210276D01*
X145949917Y-98411123D01*
X145929345Y-98620000D01*
X145949917Y-98828876D01*
X146010844Y-99029723D01*
X146109779Y-99214818D01*
X146109783Y-99214825D01*
X146242932Y-99377067D01*
X146405174Y-99510216D01*
X146405181Y-99510220D01*
X146590276Y-99609155D01*
X146590278Y-99609156D01*
X146791126Y-99670083D01*
X147000000Y-99690655D01*
X147208874Y-99670083D01*
X147409722Y-99609156D01*
X147594824Y-99510217D01*
X147757067Y-99377067D01*
X147890217Y-99214824D01*
X147989156Y-99029722D01*
X148050083Y-98828874D01*
X148053681Y-98792345D01*
X148079842Y-98727558D01*
X148136877Y-98687200D01*
X148177084Y-98680500D01*
X159210909Y-98680500D01*
X159277948Y-98700185D01*
X159323292Y-98752097D01*
X159325965Y-98757830D01*
X159461505Y-98951401D01*
X159628599Y-99118495D01*
X159725384Y-99186265D01*
X159822165Y-99254032D01*
X159822167Y-99254033D01*
X159822170Y-99254035D01*
X160036337Y-99353903D01*
X160264592Y-99415063D01*
X160452918Y-99431539D01*
X160499999Y-99435659D01*
X160500000Y-99435659D01*
X160500001Y-99435659D01*
X160539234Y-99432226D01*
X160735408Y-99415063D01*
X160963663Y-99353903D01*
X161177830Y-99254035D01*
X161371401Y-99118495D01*
X161538495Y-98951401D01*
X161674035Y-98757830D01*
X161773903Y-98543663D01*
X161835063Y-98315408D01*
X161855659Y-98080000D01*
X161835063Y-97844592D01*
X161773903Y-97616337D01*
X161674035Y-97402171D01*
X161674034Y-97402169D01*
X161538494Y-97208597D01*
X161371402Y-97041506D01*
X161371401Y-97041505D01*
X161185405Y-96911269D01*
X161141781Y-96856692D01*
X161134588Y-96787193D01*
X161166110Y-96724839D01*
X161185405Y-96708119D01*
X161371082Y-96578105D01*
X161538105Y-96411082D01*
X161673600Y-96217578D01*
X161773429Y-96003492D01*
X161773432Y-96003486D01*
X161830636Y-95790000D01*
X160933012Y-95790000D01*
X160965925Y-95732993D01*
X161000000Y-95605826D01*
X161000000Y-95474174D01*
X160965925Y-95347007D01*
X160933012Y-95290000D01*
X161830636Y-95290000D01*
X161830635Y-95289999D01*
X161773432Y-95076513D01*
X161773429Y-95076507D01*
X161673600Y-94862422D01*
X161673599Y-94862420D01*
X161538113Y-94668926D01*
X161538108Y-94668920D01*
X161416053Y-94546865D01*
X161382568Y-94485542D01*
X161387552Y-94415850D01*
X161429424Y-94359917D01*
X161460400Y-94343002D01*
X161592331Y-94293796D01*
X161707546Y-94207546D01*
X161793796Y-94092331D01*
X161844091Y-93957483D01*
X161850500Y-93897873D01*
X161850499Y-92102128D01*
X161844091Y-92042517D01*
X161843493Y-92040915D01*
X161793797Y-91907671D01*
X161793793Y-91907664D01*
X161707547Y-91792455D01*
X161707544Y-91792452D01*
X161592335Y-91706206D01*
X161592328Y-91706202D01*
X161457482Y-91655908D01*
X161457483Y-91655908D01*
X161397883Y-91649501D01*
X161397881Y-91649500D01*
X161397873Y-91649500D01*
X161397864Y-91649500D01*
X159602129Y-91649500D01*
X159602123Y-91649501D01*
X159542516Y-91655908D01*
X159407671Y-91706202D01*
X159407664Y-91706206D01*
X159292455Y-91792452D01*
X159292452Y-91792455D01*
X159206206Y-91907664D01*
X159206202Y-91907671D01*
X159155908Y-92042517D01*
X159149549Y-92101671D01*
X159149501Y-92102123D01*
X159149500Y-92102135D01*
X159149500Y-92349614D01*
X159129815Y-92416653D01*
X159087500Y-92457001D01*
X158979287Y-92519477D01*
X158979282Y-92519481D01*
X156055584Y-95443181D01*
X155994261Y-95476666D01*
X155967903Y-95479500D01*
X147944206Y-95479500D01*
X147877167Y-95459815D01*
X147848353Y-95434165D01*
X147840553Y-95424661D01*
X147823911Y-95404383D01*
X147757067Y-95322932D01*
X147594825Y-95189783D01*
X147594818Y-95189779D01*
X147409723Y-95090844D01*
X147208876Y-95029917D01*
X147000000Y-95009345D01*
X146791123Y-95029917D01*
X146590276Y-95090844D01*
X146405181Y-95189779D01*
X146405174Y-95189783D01*
X146242932Y-95322932D01*
X146159446Y-95424661D01*
X146101700Y-95463995D01*
X146031856Y-95465866D01*
X145975912Y-95433677D01*
X144015516Y-93473281D01*
X143982031Y-93411958D01*
X143987015Y-93342266D01*
X144028887Y-93286333D01*
X144094351Y-93261916D01*
X144103197Y-93261600D01*
X145819952Y-93261600D01*
X145886991Y-93281285D01*
X145932746Y-93334089D01*
X145943355Y-93397754D01*
X145929345Y-93540000D01*
X145949917Y-93748876D01*
X146010844Y-93949723D01*
X146109779Y-94134818D01*
X146109783Y-94134825D01*
X146242932Y-94297067D01*
X146405174Y-94430216D01*
X146405181Y-94430220D01*
X146508682Y-94485542D01*
X146590278Y-94529156D01*
X146791126Y-94590083D01*
X147000000Y-94610655D01*
X147208874Y-94590083D01*
X147409722Y-94529156D01*
X147594824Y-94430217D01*
X147757067Y-94297067D01*
X147890217Y-94134824D01*
X147989156Y-93949722D01*
X148050083Y-93748874D01*
X148070655Y-93540000D01*
X148050083Y-93331126D01*
X147989156Y-93130278D01*
X147907034Y-92976638D01*
X147890220Y-92945181D01*
X147890216Y-92945174D01*
X147757067Y-92782932D01*
X147594825Y-92649783D01*
X147594818Y-92649779D01*
X147409723Y-92550844D01*
X147208876Y-92489917D01*
X147000000Y-92469345D01*
X146856726Y-92483455D01*
X146788080Y-92470436D01*
X146756897Y-92447738D01*
X146551614Y-92242478D01*
X146521194Y-92212058D01*
X146487709Y-92150735D01*
X146492693Y-92081043D01*
X146534565Y-92025110D01*
X146600029Y-92000693D01*
X146644871Y-92005717D01*
X146755456Y-92039262D01*
X146791126Y-92050083D01*
X147000000Y-92070655D01*
X147208874Y-92050083D01*
X147409722Y-91989156D01*
X147594824Y-91890217D01*
X147757067Y-91757067D01*
X147890217Y-91594824D01*
X147989156Y-91409722D01*
X148050083Y-91208874D01*
X148070655Y-91000000D01*
X148050083Y-90791126D01*
X147989156Y-90590278D01*
X147890217Y-90405176D01*
X147890216Y-90405174D01*
X147757067Y-90242932D01*
X147594825Y-90109783D01*
X147594818Y-90109779D01*
X147409723Y-90010844D01*
X147208876Y-89949917D01*
X147000000Y-89929345D01*
X146791123Y-89949917D01*
X146590276Y-90010844D01*
X146405181Y-90109779D01*
X146405174Y-90109783D01*
X146242932Y-90242932D01*
X146109783Y-90405174D01*
X146109779Y-90405181D01*
X146010844Y-90590276D01*
X145949917Y-90791123D01*
X145929345Y-91000000D01*
X145949917Y-91208876D01*
X146010844Y-91409723D01*
X146109779Y-91594818D01*
X146109783Y-91594825D01*
X146242932Y-91757067D01*
X146369061Y-91860578D01*
X146408395Y-91918323D01*
X146410266Y-91988168D01*
X146374079Y-92047936D01*
X146311323Y-92078652D01*
X146258305Y-92076206D01*
X146200053Y-92060598D01*
X146200027Y-92060595D01*
X146200023Y-92060595D01*
X146129749Y-92060599D01*
X146112180Y-92060600D01*
X140126921Y-92060600D01*
X140059882Y-92040915D01*
X140014127Y-91988111D01*
X140004183Y-91918953D01*
X140027655Y-91862289D01*
X140068793Y-91807335D01*
X140068792Y-91807335D01*
X140068796Y-91807331D01*
X140119091Y-91672483D01*
X140125500Y-91612873D01*
X140125499Y-90387128D01*
X140119091Y-90327517D01*
X140087543Y-90242933D01*
X140068797Y-90192671D01*
X140068793Y-90192664D01*
X139982547Y-90077455D01*
X139982544Y-90077452D01*
X139867335Y-89991206D01*
X139867328Y-89991202D01*
X139732482Y-89940908D01*
X139732483Y-89940908D01*
X139672883Y-89934501D01*
X139672881Y-89934500D01*
X139672873Y-89934500D01*
X139672864Y-89934500D01*
X138447129Y-89934500D01*
X138447123Y-89934501D01*
X138387516Y-89940908D01*
X138252671Y-89991202D01*
X138252664Y-89991206D01*
X138137455Y-90077452D01*
X138137452Y-90077455D01*
X138051206Y-90192664D01*
X138051202Y-90192671D01*
X138000908Y-90327517D01*
X137994501Y-90387116D01*
X137994501Y-90387123D01*
X137994500Y-90387135D01*
X137994500Y-91612870D01*
X137994501Y-91612876D01*
X138000908Y-91672483D01*
X138051202Y-91807328D01*
X138051206Y-91807335D01*
X138113252Y-91890216D01*
X138137454Y-91922546D01*
X138246963Y-92004525D01*
X138288834Y-92060458D01*
X138293818Y-92130150D01*
X138260391Y-92191415D01*
X138239775Y-92212058D01*
X138216171Y-92235692D01*
X138159480Y-92292384D01*
X138154207Y-92297657D01*
X138153646Y-92298296D01*
X137746401Y-92706062D01*
X137689480Y-92762984D01*
X137689472Y-92762992D01*
X137689361Y-92763138D01*
X137689254Y-92763275D01*
X137650408Y-92830658D01*
X137650370Y-92830723D01*
X137610418Y-92899922D01*
X137610286Y-92900243D01*
X137610280Y-92900255D01*
X137589885Y-92976564D01*
X137589865Y-92976637D01*
X137569496Y-93052655D01*
X137569449Y-93053018D01*
X135000500Y-93053018D01*
X135000500Y-85999998D01*
X137114532Y-85999998D01*
X137114532Y-86000001D01*
X137134364Y-86226686D01*
X137134366Y-86226697D01*
X137193258Y-86446488D01*
X137193261Y-86446497D01*
X137289431Y-86652732D01*
X137289432Y-86652734D01*
X137419954Y-86839141D01*
X137580858Y-87000045D01*
X137580861Y-87000047D01*
X137767266Y-87130568D01*
X137973504Y-87226739D01*
X138193308Y-87285635D01*
X138355230Y-87299801D01*
X138419998Y-87305468D01*
X138420000Y-87305468D01*
X138420002Y-87305468D01*
X138476673Y-87300509D01*
X138646692Y-87285635D01*
X138866496Y-87226739D01*
X139072734Y-87130568D01*
X139259139Y-87000047D01*
X139420047Y-86839139D01*
X139550568Y-86652734D01*
X139646739Y-86446496D01*
X139705635Y-86226692D01*
X139725468Y-86000000D01*
X139725468Y-85999998D01*
X147274532Y-85999998D01*
X147274532Y-86000001D01*
X147294364Y-86226686D01*
X147294366Y-86226697D01*
X147353258Y-86446488D01*
X147353261Y-86446497D01*
X147449431Y-86652732D01*
X147449432Y-86652734D01*
X147579954Y-86839141D01*
X147740858Y-87000045D01*
X147740861Y-87000047D01*
X147927266Y-87130568D01*
X148133504Y-87226739D01*
X148353308Y-87285635D01*
X148515230Y-87299801D01*
X148579998Y-87305468D01*
X148580000Y-87305468D01*
X148580002Y-87305468D01*
X148636673Y-87300509D01*
X148806692Y-87285635D01*
X149026496Y-87226739D01*
X149232734Y-87130568D01*
X149419139Y-87000047D01*
X149580047Y-86839139D01*
X149710568Y-86652734D01*
X149806739Y-86446496D01*
X149865635Y-86226692D01*
X149885468Y-86000000D01*
X149865635Y-85773308D01*
X149806739Y-85553504D01*
X149710568Y-85347266D01*
X149580047Y-85160861D01*
X149580045Y-85160858D01*
X149419141Y-84999954D01*
X149232734Y-84869432D01*
X149232732Y-84869431D01*
X149026497Y-84773261D01*
X149026488Y-84773258D01*
X148806697Y-84714366D01*
X148806693Y-84714365D01*
X148806692Y-84714365D01*
X148806691Y-84714364D01*
X148806686Y-84714364D01*
X148580002Y-84694532D01*
X148579998Y-84694532D01*
X148353313Y-84714364D01*
X148353302Y-84714366D01*
X148133511Y-84773258D01*
X148133502Y-84773261D01*
X147927267Y-84869431D01*
X147927265Y-84869432D01*
X147740858Y-84999954D01*
X147579954Y-85160858D01*
X147449432Y-85347265D01*
X147449431Y-85347267D01*
X147353261Y-85553502D01*
X147353258Y-85553511D01*
X147294366Y-85773302D01*
X147294364Y-85773313D01*
X147274532Y-85999998D01*
X139725468Y-85999998D01*
X139705635Y-85773308D01*
X139646739Y-85553504D01*
X139550568Y-85347266D01*
X139420047Y-85160861D01*
X139420045Y-85160858D01*
X139259141Y-84999954D01*
X139072734Y-84869432D01*
X139072732Y-84869431D01*
X138866497Y-84773261D01*
X138866488Y-84773258D01*
X138646697Y-84714366D01*
X138646693Y-84714365D01*
X138646692Y-84714365D01*
X138646691Y-84714364D01*
X138646686Y-84714364D01*
X138420002Y-84694532D01*
X138419998Y-84694532D01*
X138193313Y-84714364D01*
X138193302Y-84714366D01*
X137973511Y-84773258D01*
X137973502Y-84773261D01*
X137767267Y-84869431D01*
X137767265Y-84869432D01*
X137580858Y-84999954D01*
X137419954Y-85160858D01*
X137289432Y-85347265D01*
X137289431Y-85347267D01*
X137193261Y-85553502D01*
X137193258Y-85553511D01*
X137134366Y-85773302D01*
X137134364Y-85773313D01*
X137114532Y-85999998D01*
X135000500Y-85999998D01*
X135000500Y-79499998D01*
X137114532Y-79499998D01*
X137114532Y-79500001D01*
X137134364Y-79726686D01*
X137134366Y-79726697D01*
X137193258Y-79946488D01*
X137193261Y-79946497D01*
X137289431Y-80152732D01*
X137289432Y-80152734D01*
X137419954Y-80339141D01*
X137580858Y-80500045D01*
X137580861Y-80500047D01*
X137767266Y-80630568D01*
X137973504Y-80726739D01*
X138193308Y-80785635D01*
X138355230Y-80799801D01*
X138419998Y-80805468D01*
X138420000Y-80805468D01*
X138420002Y-80805468D01*
X138476673Y-80800509D01*
X138646692Y-80785635D01*
X138742932Y-80759847D01*
X138812781Y-80761510D01*
X138862706Y-80791941D01*
X141185139Y-83114374D01*
X141185149Y-83114385D01*
X141189479Y-83118715D01*
X141189480Y-83118716D01*
X141301284Y-83230520D01*
X141388095Y-83280639D01*
X141388097Y-83280641D01*
X141426151Y-83302611D01*
X141438215Y-83309577D01*
X141590943Y-83350500D01*
X141749057Y-83350500D01*
X155217903Y-83350500D01*
X155284942Y-83370185D01*
X155305584Y-83386819D01*
X158863139Y-86944374D01*
X158863149Y-86944385D01*
X158867479Y-86948715D01*
X158867480Y-86948716D01*
X158979284Y-87060520D01*
X159066095Y-87110639D01*
X159066097Y-87110641D01*
X159116213Y-87139576D01*
X159116215Y-87139577D01*
X159237049Y-87171954D01*
X159296707Y-87208318D01*
X159317333Y-87239320D01*
X159325965Y-87257830D01*
X159325966Y-87257832D01*
X159325967Y-87257833D01*
X159325967Y-87257834D01*
X159434281Y-87412521D01*
X159461505Y-87451401D01*
X159628599Y-87618495D01*
X159725384Y-87686265D01*
X159822165Y-87754032D01*
X159822167Y-87754033D01*
X159822170Y-87754035D01*
X160036337Y-87853903D01*
X160264592Y-87915063D01*
X160452918Y-87931539D01*
X160499999Y-87935659D01*
X160500000Y-87935659D01*
X160500001Y-87935659D01*
X160539234Y-87932226D01*
X160735408Y-87915063D01*
X160963663Y-87853903D01*
X161177830Y-87754035D01*
X161371401Y-87618495D01*
X161538495Y-87451401D01*
X161674035Y-87257830D01*
X161773903Y-87043663D01*
X161835063Y-86815408D01*
X161855659Y-86580000D01*
X161835063Y-86344592D01*
X161773903Y-86116337D01*
X161674035Y-85902171D01*
X161583801Y-85773302D01*
X161538494Y-85708597D01*
X161371402Y-85541506D01*
X161371401Y-85541505D01*
X161185405Y-85411269D01*
X161141781Y-85356692D01*
X161134588Y-85287193D01*
X161166110Y-85224839D01*
X161185405Y-85208119D01*
X161371082Y-85078105D01*
X161538105Y-84911082D01*
X161673600Y-84717578D01*
X161773429Y-84503492D01*
X161773432Y-84503486D01*
X161830636Y-84290000D01*
X160933012Y-84290000D01*
X160965925Y-84232993D01*
X161000000Y-84105826D01*
X161000000Y-83974174D01*
X160965925Y-83847007D01*
X160933012Y-83790000D01*
X161830636Y-83790000D01*
X161830635Y-83789999D01*
X161773432Y-83576513D01*
X161773429Y-83576507D01*
X161673600Y-83362422D01*
X161673599Y-83362420D01*
X161538113Y-83168926D01*
X161538108Y-83168920D01*
X161416053Y-83046865D01*
X161382568Y-82985542D01*
X161387552Y-82915850D01*
X161429424Y-82859917D01*
X161460400Y-82843002D01*
X161592331Y-82793796D01*
X161707546Y-82707546D01*
X161793796Y-82592331D01*
X161844091Y-82457483D01*
X161850500Y-82397873D01*
X161850499Y-80602128D01*
X161844091Y-80542517D01*
X161828105Y-80499657D01*
X161793797Y-80407671D01*
X161793793Y-80407664D01*
X161707547Y-80292455D01*
X161707544Y-80292452D01*
X161592335Y-80206206D01*
X161592328Y-80206202D01*
X161457482Y-80155908D01*
X161457483Y-80155908D01*
X161397883Y-80149501D01*
X161397881Y-80149500D01*
X161397873Y-80149500D01*
X161397864Y-80149500D01*
X159602129Y-80149500D01*
X159602123Y-80149501D01*
X159542516Y-80155908D01*
X159407671Y-80206202D01*
X159407664Y-80206206D01*
X159292455Y-80292452D01*
X159292452Y-80292455D01*
X159206206Y-80407664D01*
X159206202Y-80407671D01*
X159155908Y-80542517D01*
X159149501Y-80602116D01*
X159149501Y-80602123D01*
X159149500Y-80602135D01*
X159149500Y-82397870D01*
X159149501Y-82397876D01*
X159155908Y-82457483D01*
X159206202Y-82592328D01*
X159206206Y-82592335D01*
X159292452Y-82707544D01*
X159292455Y-82707547D01*
X159407664Y-82793793D01*
X159407671Y-82793797D01*
X159407674Y-82793798D01*
X159539598Y-82843002D01*
X159595531Y-82884873D01*
X159619949Y-82950337D01*
X159605098Y-83018610D01*
X159583947Y-83046865D01*
X159461886Y-83168926D01*
X159326400Y-83362420D01*
X159326399Y-83362422D01*
X159226570Y-83576507D01*
X159226567Y-83576513D01*
X159169364Y-83789999D01*
X159169364Y-83790000D01*
X160066988Y-83790000D01*
X160034075Y-83847007D01*
X160000000Y-83974174D01*
X160000000Y-84105826D01*
X160034075Y-84232993D01*
X160066988Y-84290000D01*
X159169364Y-84290000D01*
X159226567Y-84503486D01*
X159226570Y-84503492D01*
X159326399Y-84717578D01*
X159461894Y-84911082D01*
X159628917Y-85078105D01*
X159814595Y-85208119D01*
X159858219Y-85262696D01*
X159865412Y-85332195D01*
X159833890Y-85394549D01*
X159814595Y-85411269D01*
X159628594Y-85541508D01*
X159481350Y-85688753D01*
X159420027Y-85722238D01*
X159350335Y-85717254D01*
X159305988Y-85688753D01*
X156005590Y-82388355D01*
X156005588Y-82388352D01*
X155886717Y-82269481D01*
X155886716Y-82269480D01*
X155799904Y-82219360D01*
X155799904Y-82219359D01*
X155799900Y-82219358D01*
X155749785Y-82190423D01*
X155597057Y-82149499D01*
X155438943Y-82149499D01*
X155431347Y-82149499D01*
X155431331Y-82149500D01*
X141970097Y-82149500D01*
X141903058Y-82129815D01*
X141882416Y-82113181D01*
X139711941Y-79942706D01*
X139678456Y-79881383D01*
X139679847Y-79822931D01*
X139680611Y-79820080D01*
X139705635Y-79726692D01*
X139725468Y-79500000D01*
X139705635Y-79273308D01*
X139699389Y-79249999D01*
X147301127Y-79249999D01*
X147301128Y-79250000D01*
X148264314Y-79250000D01*
X148259920Y-79254394D01*
X148207259Y-79345606D01*
X148180000Y-79447339D01*
X148180000Y-79552661D01*
X148207259Y-79654394D01*
X148259920Y-79745606D01*
X148264314Y-79750000D01*
X147301128Y-79750000D01*
X147353730Y-79946317D01*
X147353734Y-79946326D01*
X147449865Y-80152482D01*
X147580342Y-80338820D01*
X147741179Y-80499657D01*
X147927517Y-80630134D01*
X148133673Y-80726265D01*
X148133682Y-80726269D01*
X148329999Y-80778872D01*
X148330000Y-80778871D01*
X148330000Y-79815686D01*
X148334394Y-79820080D01*
X148425606Y-79872741D01*
X148527339Y-79900000D01*
X148632661Y-79900000D01*
X148734394Y-79872741D01*
X148825606Y-79820080D01*
X148830000Y-79815686D01*
X148830000Y-80778872D01*
X149026317Y-80726269D01*
X149026326Y-80726265D01*
X149232482Y-80630134D01*
X149418820Y-80499657D01*
X149579657Y-80338820D01*
X149710134Y-80152482D01*
X149806265Y-79946326D01*
X149806269Y-79946317D01*
X149858872Y-79750000D01*
X148895686Y-79750000D01*
X148900080Y-79745606D01*
X148952741Y-79654394D01*
X148980000Y-79552661D01*
X148980000Y-79447339D01*
X148952741Y-79345606D01*
X148900080Y-79254394D01*
X148895686Y-79250000D01*
X149858872Y-79250000D01*
X149858872Y-79249999D01*
X149806269Y-79053682D01*
X149806265Y-79053673D01*
X149710134Y-78847517D01*
X149579657Y-78661179D01*
X149418820Y-78500342D01*
X149232482Y-78369865D01*
X149026328Y-78273734D01*
X148830000Y-78221127D01*
X148830000Y-79184314D01*
X148825606Y-79179920D01*
X148734394Y-79127259D01*
X148632661Y-79100000D01*
X148527339Y-79100000D01*
X148425606Y-79127259D01*
X148334394Y-79179920D01*
X148330000Y-79184314D01*
X148330000Y-78221127D01*
X148133671Y-78273734D01*
X147927517Y-78369865D01*
X147741179Y-78500342D01*
X147580342Y-78661179D01*
X147449865Y-78847517D01*
X147353734Y-79053673D01*
X147353730Y-79053682D01*
X147301127Y-79249999D01*
X139699389Y-79249999D01*
X139646739Y-79053504D01*
X139550568Y-78847266D01*
X139420047Y-78660861D01*
X139420045Y-78660858D01*
X139259141Y-78499954D01*
X139072734Y-78369432D01*
X139072732Y-78369431D01*
X138866497Y-78273261D01*
X138866488Y-78273258D01*
X138646697Y-78214366D01*
X138646693Y-78214365D01*
X138646692Y-78214365D01*
X138646691Y-78214364D01*
X138646686Y-78214364D01*
X138420002Y-78194532D01*
X138419998Y-78194532D01*
X138193313Y-78214364D01*
X138193302Y-78214366D01*
X137973511Y-78273258D01*
X137973502Y-78273261D01*
X137767267Y-78369431D01*
X137767265Y-78369432D01*
X137580858Y-78499954D01*
X137419954Y-78660858D01*
X137289432Y-78847265D01*
X137289431Y-78847267D01*
X137193261Y-79053502D01*
X137193258Y-79053511D01*
X137134366Y-79273302D01*
X137134364Y-79273313D01*
X137114532Y-79499998D01*
X135000500Y-79499998D01*
X135000500Y-72999998D01*
X137114532Y-72999998D01*
X137114532Y-73000001D01*
X137134364Y-73226686D01*
X137134366Y-73226697D01*
X137193258Y-73446488D01*
X137193261Y-73446497D01*
X137289431Y-73652732D01*
X137289432Y-73652734D01*
X137419954Y-73839141D01*
X137580858Y-74000045D01*
X137580861Y-74000047D01*
X137767266Y-74130568D01*
X137973504Y-74226739D01*
X138193308Y-74285635D01*
X138355230Y-74299801D01*
X138419998Y-74305468D01*
X138420000Y-74305468D01*
X138420002Y-74305468D01*
X138476673Y-74300509D01*
X138646692Y-74285635D01*
X138866496Y-74226739D01*
X139072734Y-74130568D01*
X139259139Y-74000047D01*
X139420047Y-73839139D01*
X139550568Y-73652734D01*
X139646739Y-73446496D01*
X139705635Y-73226692D01*
X139725468Y-73000000D01*
X139725468Y-72999998D01*
X147274532Y-72999998D01*
X147274532Y-73000001D01*
X147294364Y-73226686D01*
X147294366Y-73226697D01*
X147353258Y-73446488D01*
X147353261Y-73446497D01*
X147449431Y-73652732D01*
X147449432Y-73652734D01*
X147579954Y-73839141D01*
X147740858Y-74000045D01*
X147740861Y-74000047D01*
X147927266Y-74130568D01*
X148133504Y-74226739D01*
X148353308Y-74285635D01*
X148515230Y-74299801D01*
X148579998Y-74305468D01*
X148580000Y-74305468D01*
X148580002Y-74305468D01*
X148636673Y-74300509D01*
X148806692Y-74285635D01*
X149026496Y-74226739D01*
X149232734Y-74130568D01*
X149419139Y-74000047D01*
X149580047Y-73839139D01*
X149710568Y-73652734D01*
X149710571Y-73652726D01*
X149711316Y-73651437D01*
X149711796Y-73650978D01*
X149713673Y-73648299D01*
X149714211Y-73648675D01*
X149761878Y-73603216D01*
X149786604Y-73593655D01*
X149913785Y-73559577D01*
X149963904Y-73530639D01*
X150050716Y-73480520D01*
X150162520Y-73368716D01*
X150162521Y-73368714D01*
X150394418Y-73136816D01*
X150455740Y-73103334D01*
X150482098Y-73100500D01*
X159025501Y-73100500D01*
X159092540Y-73120185D01*
X159138295Y-73172989D01*
X159149501Y-73224500D01*
X159149501Y-73397876D01*
X159155908Y-73457483D01*
X159206202Y-73592328D01*
X159206206Y-73592335D01*
X159292452Y-73707544D01*
X159292455Y-73707547D01*
X159407664Y-73793793D01*
X159407671Y-73793797D01*
X159407674Y-73793798D01*
X159539598Y-73843002D01*
X159595531Y-73884873D01*
X159619949Y-73950337D01*
X159605098Y-74018610D01*
X159583947Y-74046865D01*
X159461886Y-74168926D01*
X159326400Y-74362420D01*
X159326399Y-74362422D01*
X159226570Y-74576507D01*
X159226567Y-74576513D01*
X159169364Y-74789999D01*
X159169364Y-74790000D01*
X160066988Y-74790000D01*
X160034075Y-74847007D01*
X160000000Y-74974174D01*
X160000000Y-75105826D01*
X160034075Y-75232993D01*
X160066988Y-75290000D01*
X159169364Y-75290000D01*
X159226567Y-75503486D01*
X159226570Y-75503492D01*
X159326399Y-75717578D01*
X159461894Y-75911082D01*
X159628917Y-76078105D01*
X159822421Y-76213600D01*
X160036507Y-76313429D01*
X160036516Y-76313433D01*
X160250000Y-76370634D01*
X160250000Y-75473012D01*
X160307007Y-75505925D01*
X160434174Y-75540000D01*
X160565826Y-75540000D01*
X160692993Y-75505925D01*
X160750000Y-75473012D01*
X160750000Y-76370633D01*
X160963483Y-76313433D01*
X160963492Y-76313429D01*
X161177578Y-76213600D01*
X161371082Y-76078105D01*
X161538105Y-75911082D01*
X161673600Y-75717578D01*
X161773429Y-75503492D01*
X161773432Y-75503486D01*
X161830636Y-75290000D01*
X160933012Y-75290000D01*
X160965925Y-75232993D01*
X161000000Y-75105826D01*
X161000000Y-74974174D01*
X160965925Y-74847007D01*
X160933012Y-74790000D01*
X161830636Y-74790000D01*
X161830635Y-74789999D01*
X161773432Y-74576513D01*
X161773429Y-74576507D01*
X161673600Y-74362422D01*
X161673599Y-74362420D01*
X161538113Y-74168926D01*
X161538108Y-74168920D01*
X161416053Y-74046865D01*
X161382568Y-73985542D01*
X161387552Y-73915850D01*
X161429424Y-73859917D01*
X161460400Y-73843002D01*
X161592331Y-73793796D01*
X161707546Y-73707546D01*
X161793796Y-73592331D01*
X161844091Y-73457483D01*
X161850500Y-73397873D01*
X161850499Y-71602128D01*
X161844091Y-71542517D01*
X161793796Y-71407669D01*
X161793795Y-71407668D01*
X161793793Y-71407664D01*
X161707547Y-71292455D01*
X161707544Y-71292452D01*
X161592335Y-71206206D01*
X161592328Y-71206202D01*
X161457482Y-71155908D01*
X161457483Y-71155908D01*
X161397883Y-71149501D01*
X161397881Y-71149500D01*
X161397873Y-71149500D01*
X161397864Y-71149500D01*
X159602129Y-71149500D01*
X159602123Y-71149501D01*
X159542516Y-71155908D01*
X159407671Y-71206202D01*
X159407664Y-71206206D01*
X159292455Y-71292452D01*
X159292452Y-71292455D01*
X159206206Y-71407664D01*
X159206202Y-71407671D01*
X159155908Y-71542517D01*
X159149501Y-71602116D01*
X159149501Y-71602123D01*
X159149500Y-71602135D01*
X159149500Y-71775500D01*
X159129815Y-71842539D01*
X159077011Y-71888294D01*
X159025500Y-71899500D01*
X150268670Y-71899500D01*
X150268654Y-71899499D01*
X150261058Y-71899499D01*
X150102943Y-71899499D01*
X150026579Y-71919961D01*
X149950214Y-71940423D01*
X149950209Y-71940426D01*
X149813290Y-72019475D01*
X149813286Y-72019478D01*
X149813284Y-72019480D01*
X149713654Y-72119108D01*
X149652333Y-72152592D01*
X149582641Y-72147608D01*
X149538294Y-72119107D01*
X149419141Y-71999954D01*
X149232734Y-71869432D01*
X149232732Y-71869431D01*
X149026497Y-71773261D01*
X149026488Y-71773258D01*
X148806697Y-71714366D01*
X148806693Y-71714365D01*
X148806692Y-71714365D01*
X148806691Y-71714364D01*
X148806686Y-71714364D01*
X148580002Y-71694532D01*
X148579998Y-71694532D01*
X148353313Y-71714364D01*
X148353302Y-71714366D01*
X148133511Y-71773258D01*
X148133502Y-71773261D01*
X147927267Y-71869431D01*
X147927265Y-71869432D01*
X147740858Y-71999954D01*
X147579954Y-72160858D01*
X147449432Y-72347265D01*
X147449431Y-72347267D01*
X147353261Y-72553502D01*
X147353258Y-72553511D01*
X147294366Y-72773302D01*
X147294364Y-72773313D01*
X147274532Y-72999998D01*
X139725468Y-72999998D01*
X139705635Y-72773308D01*
X139646739Y-72553504D01*
X139550568Y-72347266D01*
X139420047Y-72160861D01*
X139420045Y-72160858D01*
X139259141Y-71999954D01*
X139072734Y-71869432D01*
X139072732Y-71869431D01*
X138866497Y-71773261D01*
X138866488Y-71773258D01*
X138646697Y-71714366D01*
X138646693Y-71714365D01*
X138646692Y-71714365D01*
X138646691Y-71714364D01*
X138646686Y-71714364D01*
X138420002Y-71694532D01*
X138419998Y-71694532D01*
X138193313Y-71714364D01*
X138193302Y-71714366D01*
X137973511Y-71773258D01*
X137973502Y-71773261D01*
X137767267Y-71869431D01*
X137767265Y-71869432D01*
X137580858Y-71999954D01*
X137419954Y-72160858D01*
X137289432Y-72347265D01*
X137289431Y-72347267D01*
X137193261Y-72553502D01*
X137193258Y-72553511D01*
X137134366Y-72773302D01*
X137134364Y-72773313D01*
X137114532Y-72999998D01*
X135000500Y-72999998D01*
X135000500Y-68124500D01*
X135020185Y-68057461D01*
X135072989Y-68011706D01*
X135124500Y-68000500D01*
X167375500Y-68000500D01*
X167442539Y-68020185D01*
G37*
%TD.AperFunction*%
%TD*%
M02*
