%TF.GenerationSoftware,KiCad,Pcbnew,8.0.8*%
%TF.CreationDate,2025-02-03T10:46:48-05:00*%
%TF.ProjectId,CurrentDriverBoard,43757272-656e-4744-9472-69766572426f,rev?*%
%TF.SameCoordinates,Original*%
%TF.FileFunction,Copper,L1,Top*%
%TF.FilePolarity,Positive*%
%FSLAX46Y46*%
G04 Gerber Fmt 4.6, Leading zero omitted, Abs format (unit mm)*
G04 Created by KiCad (PCBNEW 8.0.8) date 2025-02-03 10:46:48*
%MOMM*%
%LPD*%
G01*
G04 APERTURE LIST*
%TA.AperFunction,ComponentPad*%
%ADD10R,1.700000X1.700000*%
%TD*%
%TA.AperFunction,ComponentPad*%
%ADD11O,1.700000X1.700000*%
%TD*%
%TA.AperFunction,ComponentPad*%
%ADD12C,1.600000*%
%TD*%
%TA.AperFunction,ComponentPad*%
%ADD13O,1.600000X1.600000*%
%TD*%
%TA.AperFunction,ComponentPad*%
%ADD14R,1.130000X1.130000*%
%TD*%
%TA.AperFunction,ComponentPad*%
%ADD15C,1.130000*%
%TD*%
%TA.AperFunction,Conductor*%
%ADD16C,0.200000*%
%TD*%
G04 APERTURE END LIST*
D10*
%TO.P,J1,1,Pin_1*%
%TO.N,Net-(J1-Pin_1)*%
X160500000Y-93000000D03*
D11*
%TO.P,J1,2,Pin_2*%
%TO.N,Earth*%
X160500000Y-95540000D03*
%TO.P,J1,3,Pin_3*%
%TO.N,Net-(J1-Pin_3)*%
X160500000Y-98080000D03*
%TD*%
D12*
%TO.P,R3,1*%
%TO.N,Net-(R1-Pad1)*%
X138420000Y-86000000D03*
D13*
%TO.P,R3,2*%
%TO.N,Net-(U1-+)*%
X148580000Y-86000000D03*
%TD*%
D12*
%TO.P,R2,1*%
%TO.N,Net-(J2-Pin_3)*%
X138420000Y-79500000D03*
D13*
%TO.P,R2,2*%
%TO.N,Earth*%
X148580000Y-79500000D03*
%TD*%
D10*
%TO.P,J2,1,Pin_1*%
%TO.N,Net-(J1-Pin_3)*%
X160500000Y-81500000D03*
D11*
%TO.P,J2,2,Pin_2*%
%TO.N,Earth*%
X160500000Y-84040000D03*
%TO.P,J2,3,Pin_3*%
%TO.N,Net-(J2-Pin_3)*%
X160500000Y-86580000D03*
%TD*%
D12*
%TO.P,R1,1*%
%TO.N,Net-(R1-Pad1)*%
X138420000Y-73000000D03*
D13*
%TO.P,R1,2*%
%TO.N,Net-(J3-Pin_1)*%
X148580000Y-73000000D03*
%TD*%
D10*
%TO.P,J3,1,Pin_1*%
%TO.N,Net-(J3-Pin_1)*%
X160500000Y-72500000D03*
D11*
%TO.P,J3,2,Pin_2*%
%TO.N,Earth*%
X160500000Y-75040000D03*
%TD*%
D14*
%TO.P,U1,1,NULL*%
%TO.N,unconnected-(U1-NULL-Pad1)*%
X139060000Y-91000000D03*
D15*
%TO.P,U1,2,-*%
%TO.N,Net-(J1-Pin_3)*%
X139060000Y-93540000D03*
%TO.P,U1,3,+*%
%TO.N,Net-(U1-+)*%
X139060000Y-96080000D03*
%TO.P,U1,4,V-*%
%TO.N,unconnected-(U1-V--Pad4)*%
X139060000Y-98620000D03*
%TO.P,U1,5,NULL*%
%TO.N,unconnected-(U1-NULL-Pad5)*%
X147000000Y-98620000D03*
%TO.P,U1,6*%
%TO.N,Net-(J1-Pin_1)*%
X147000000Y-96080000D03*
%TO.P,U1,7,V+*%
%TO.N,Net-(U1-+)*%
X147000000Y-93540000D03*
%TO.P,U1,8,NC*%
%TO.N,unconnected-(U1-NC-Pad8)*%
X147000000Y-91000000D03*
%TD*%
D16*
%TO.N,Net-(J1-Pin_3)*%
X160788000Y-96928300D02*
X162053000Y-95662800D01*
X162053000Y-83917100D02*
X160788000Y-82651700D01*
X160500000Y-82651700D02*
X160500000Y-81500000D01*
X162053000Y-95662800D02*
X162053000Y-83917100D01*
X160788000Y-82651700D02*
X160500000Y-82651700D01*
X160500000Y-98080000D02*
X160500000Y-96928300D01*
X160500000Y-96928300D02*
X160788000Y-96928300D01*
%TO.N,Earth*%
X160500000Y-94388300D02*
X160500000Y-95540000D01*
X160500000Y-75040000D02*
X160500000Y-76191700D01*
X160500000Y-76191700D02*
X159335000Y-77356300D01*
X159335000Y-82875400D02*
X160500000Y-84040000D01*
X160768000Y-85191700D02*
X161652000Y-86074900D01*
X160500000Y-84040000D02*
X160500000Y-85191700D01*
X161652000Y-94028400D02*
X161292000Y-94388300D01*
X161292000Y-94388300D02*
X160500000Y-94388300D01*
X160500000Y-85191700D02*
X160768000Y-85191700D01*
X159335000Y-77356300D02*
X159335000Y-82875400D01*
X161652000Y-86074900D02*
X161652000Y-94028400D01*
%TO.N,Net-(R1-Pad1)*%
X137262000Y-84842000D02*
X138420000Y-86000000D01*
X138420000Y-73000000D02*
X137262000Y-74158000D01*
X137262000Y-74158000D02*
X137262000Y-84842000D01*
%TO.N,Net-(U1-+)*%
X148580000Y-91960000D02*
X147000000Y-93540000D01*
X148580000Y-86000000D02*
X148580000Y-91960000D01*
%TD*%
%TA.AperFunction,Conductor*%
%TO.N,Earth*%
G36*
X167442539Y-68020185D02*
G01*
X167488294Y-68072989D01*
X167499500Y-68124500D01*
X167499500Y-102875500D01*
X167479815Y-102942539D01*
X167427011Y-102988294D01*
X167375500Y-102999500D01*
X135124500Y-102999500D01*
X135057461Y-102979815D01*
X135011706Y-102927011D01*
X135000500Y-102875500D01*
X135000500Y-98620000D01*
X137989345Y-98620000D01*
X138009917Y-98828876D01*
X138070844Y-99029723D01*
X138169779Y-99214818D01*
X138169783Y-99214825D01*
X138302932Y-99377067D01*
X138465174Y-99510216D01*
X138465181Y-99510220D01*
X138650276Y-99609155D01*
X138650278Y-99609156D01*
X138851126Y-99670083D01*
X139060000Y-99690655D01*
X139268874Y-99670083D01*
X139469722Y-99609156D01*
X139654824Y-99510217D01*
X139817067Y-99377067D01*
X139950217Y-99214824D01*
X140049156Y-99029722D01*
X140110083Y-98828874D01*
X140130655Y-98620000D01*
X145929345Y-98620000D01*
X145949917Y-98828876D01*
X146010844Y-99029723D01*
X146109779Y-99214818D01*
X146109783Y-99214825D01*
X146242932Y-99377067D01*
X146405174Y-99510216D01*
X146405181Y-99510220D01*
X146590276Y-99609155D01*
X146590278Y-99609156D01*
X146791126Y-99670083D01*
X147000000Y-99690655D01*
X147208874Y-99670083D01*
X147409722Y-99609156D01*
X147594824Y-99510217D01*
X147757067Y-99377067D01*
X147890217Y-99214824D01*
X147989156Y-99029722D01*
X148050083Y-98828874D01*
X148070655Y-98620000D01*
X148050083Y-98411126D01*
X147989156Y-98210278D01*
X147919521Y-98080000D01*
X147890220Y-98025181D01*
X147890216Y-98025174D01*
X147757067Y-97862932D01*
X147594825Y-97729783D01*
X147594818Y-97729779D01*
X147409723Y-97630844D01*
X147208876Y-97569917D01*
X147000000Y-97549345D01*
X146791123Y-97569917D01*
X146590276Y-97630844D01*
X146405181Y-97729779D01*
X146405174Y-97729783D01*
X146242932Y-97862932D01*
X146109783Y-98025174D01*
X146109779Y-98025181D01*
X146010844Y-98210276D01*
X145949917Y-98411123D01*
X145929345Y-98620000D01*
X140130655Y-98620000D01*
X140110083Y-98411126D01*
X140049156Y-98210278D01*
X139979521Y-98080000D01*
X139950220Y-98025181D01*
X139950216Y-98025174D01*
X139817067Y-97862932D01*
X139654825Y-97729783D01*
X139654818Y-97729779D01*
X139469723Y-97630844D01*
X139268876Y-97569917D01*
X139060000Y-97549345D01*
X138851123Y-97569917D01*
X138650276Y-97630844D01*
X138465181Y-97729779D01*
X138465174Y-97729783D01*
X138302932Y-97862932D01*
X138169783Y-98025174D01*
X138169779Y-98025181D01*
X138070844Y-98210276D01*
X138009917Y-98411123D01*
X137989345Y-98620000D01*
X135000500Y-98620000D01*
X135000500Y-96080000D01*
X137989345Y-96080000D01*
X138009917Y-96288876D01*
X138070844Y-96489723D01*
X138169779Y-96674818D01*
X138169783Y-96674825D01*
X138302932Y-96837067D01*
X138465174Y-96970216D01*
X138465181Y-96970220D01*
X138598552Y-97041508D01*
X138650278Y-97069156D01*
X138851126Y-97130083D01*
X139060000Y-97150655D01*
X139268874Y-97130083D01*
X139469722Y-97069156D01*
X139654824Y-96970217D01*
X139817067Y-96837067D01*
X139950217Y-96674824D01*
X140049156Y-96489722D01*
X140110083Y-96288874D01*
X140130655Y-96080000D01*
X145929345Y-96080000D01*
X145949917Y-96288876D01*
X146010844Y-96489723D01*
X146109779Y-96674818D01*
X146109783Y-96674825D01*
X146242932Y-96837067D01*
X146405174Y-96970216D01*
X146405181Y-96970220D01*
X146538552Y-97041508D01*
X146590278Y-97069156D01*
X146791126Y-97130083D01*
X147000000Y-97150655D01*
X147208874Y-97130083D01*
X147409722Y-97069156D01*
X147594824Y-96970217D01*
X147757067Y-96837067D01*
X147890217Y-96674824D01*
X147989156Y-96489722D01*
X148050083Y-96288874D01*
X148070655Y-96080000D01*
X148050083Y-95871126D01*
X147989156Y-95670278D01*
X147890217Y-95485176D01*
X147890216Y-95485174D01*
X147757067Y-95322932D01*
X147594825Y-95189783D01*
X147594818Y-95189779D01*
X147409723Y-95090844D01*
X147208876Y-95029917D01*
X147000000Y-95009345D01*
X146791123Y-95029917D01*
X146590276Y-95090844D01*
X146405181Y-95189779D01*
X146405174Y-95189783D01*
X146242932Y-95322932D01*
X146109783Y-95485174D01*
X146109779Y-95485181D01*
X146010844Y-95670276D01*
X145949917Y-95871123D01*
X145929345Y-96080000D01*
X140130655Y-96080000D01*
X140110083Y-95871126D01*
X140049156Y-95670278D01*
X139950217Y-95485176D01*
X139950216Y-95485174D01*
X139817067Y-95322932D01*
X139654825Y-95189783D01*
X139654818Y-95189779D01*
X139469723Y-95090844D01*
X139268876Y-95029917D01*
X139060000Y-95009345D01*
X138851123Y-95029917D01*
X138650276Y-95090844D01*
X138465181Y-95189779D01*
X138465174Y-95189783D01*
X138302932Y-95322932D01*
X138169783Y-95485174D01*
X138169779Y-95485181D01*
X138070844Y-95670276D01*
X138009917Y-95871123D01*
X137989345Y-96080000D01*
X135000500Y-96080000D01*
X135000500Y-93540000D01*
X137989345Y-93540000D01*
X138009917Y-93748876D01*
X138070844Y-93949723D01*
X138169779Y-94134818D01*
X138169783Y-94134825D01*
X138302932Y-94297067D01*
X138465174Y-94430216D01*
X138465181Y-94430220D01*
X138630548Y-94518610D01*
X138650278Y-94529156D01*
X138851126Y-94590083D01*
X139060000Y-94610655D01*
X139268874Y-94590083D01*
X139469722Y-94529156D01*
X139654824Y-94430217D01*
X139817067Y-94297067D01*
X139950217Y-94134824D01*
X140049156Y-93949722D01*
X140110083Y-93748874D01*
X140130655Y-93540000D01*
X140110083Y-93331126D01*
X140049156Y-93130278D01*
X139950217Y-92945176D01*
X139950216Y-92945174D01*
X139817067Y-92782932D01*
X139654825Y-92649783D01*
X139654818Y-92649779D01*
X139469723Y-92550844D01*
X139268876Y-92489917D01*
X139060000Y-92469345D01*
X138851123Y-92489917D01*
X138650276Y-92550844D01*
X138465181Y-92649779D01*
X138465174Y-92649783D01*
X138302932Y-92782932D01*
X138169783Y-92945174D01*
X138169779Y-92945181D01*
X138070844Y-93130276D01*
X138009917Y-93331123D01*
X137989345Y-93540000D01*
X135000500Y-93540000D01*
X135000500Y-90387135D01*
X137994500Y-90387135D01*
X137994500Y-91612870D01*
X137994501Y-91612876D01*
X138000908Y-91672483D01*
X138051202Y-91807328D01*
X138051206Y-91807335D01*
X138137452Y-91922544D01*
X138137455Y-91922547D01*
X138252664Y-92008793D01*
X138252671Y-92008797D01*
X138387517Y-92059091D01*
X138387516Y-92059091D01*
X138394444Y-92059835D01*
X138447127Y-92065500D01*
X139672872Y-92065499D01*
X139732483Y-92059091D01*
X139867331Y-92008796D01*
X139982546Y-91922546D01*
X140068796Y-91807331D01*
X140119091Y-91672483D01*
X140125500Y-91612873D01*
X140125499Y-91000000D01*
X145929345Y-91000000D01*
X145949917Y-91208876D01*
X146010844Y-91409723D01*
X146109779Y-91594818D01*
X146109783Y-91594825D01*
X146242932Y-91757067D01*
X146405174Y-91890216D01*
X146405181Y-91890220D01*
X146465659Y-91922546D01*
X146590278Y-91989156D01*
X146791126Y-92050083D01*
X147000000Y-92070655D01*
X147208874Y-92050083D01*
X147354986Y-92005759D01*
X147424852Y-92005136D01*
X147483965Y-92042383D01*
X147513556Y-92105677D01*
X147504231Y-92174922D01*
X147478662Y-92212101D01*
X147243037Y-92447726D01*
X147181714Y-92481211D01*
X147143203Y-92483448D01*
X147000000Y-92469345D01*
X146791123Y-92489917D01*
X146590276Y-92550844D01*
X146405181Y-92649779D01*
X146405174Y-92649783D01*
X146242932Y-92782932D01*
X146109783Y-92945174D01*
X146109779Y-92945181D01*
X146010844Y-93130276D01*
X145949917Y-93331123D01*
X145929345Y-93540000D01*
X145949917Y-93748876D01*
X146010844Y-93949723D01*
X146109779Y-94134818D01*
X146109783Y-94134825D01*
X146242932Y-94297067D01*
X146405174Y-94430216D01*
X146405181Y-94430220D01*
X146570548Y-94518610D01*
X146590278Y-94529156D01*
X146791126Y-94590083D01*
X147000000Y-94610655D01*
X147208874Y-94590083D01*
X147409722Y-94529156D01*
X147594824Y-94430217D01*
X147757067Y-94297067D01*
X147890217Y-94134824D01*
X147989156Y-93949722D01*
X148050083Y-93748874D01*
X148070655Y-93540000D01*
X148056550Y-93396795D01*
X148069569Y-93328150D01*
X148092269Y-93296964D01*
X148938506Y-92450728D01*
X148938511Y-92450724D01*
X148948714Y-92440520D01*
X148948716Y-92440520D01*
X149060520Y-92328716D01*
X149139577Y-92191784D01*
X149180500Y-92039057D01*
X149180500Y-87231692D01*
X149200185Y-87164653D01*
X149233374Y-87130119D01*
X149419139Y-87000047D01*
X149580047Y-86839139D01*
X149710568Y-86652734D01*
X149744485Y-86579999D01*
X159144341Y-86579999D01*
X159144341Y-86580000D01*
X159164936Y-86815403D01*
X159164938Y-86815413D01*
X159226094Y-87043655D01*
X159226096Y-87043659D01*
X159226097Y-87043663D01*
X159282516Y-87164653D01*
X159325965Y-87257830D01*
X159325967Y-87257834D01*
X159434281Y-87412521D01*
X159461505Y-87451401D01*
X159628599Y-87618495D01*
X159710736Y-87676008D01*
X159822165Y-87754032D01*
X159822167Y-87754033D01*
X159822170Y-87754035D01*
X160036337Y-87853903D01*
X160264592Y-87915063D01*
X160452918Y-87931539D01*
X160499999Y-87935659D01*
X160500000Y-87935659D01*
X160500001Y-87935659D01*
X160539234Y-87932226D01*
X160735408Y-87915063D01*
X160963663Y-87853903D01*
X161177830Y-87754035D01*
X161257376Y-87698335D01*
X161323582Y-87676008D01*
X161391349Y-87693018D01*
X161439163Y-87743965D01*
X161452500Y-87799910D01*
X161452500Y-91525500D01*
X161432815Y-91592539D01*
X161380011Y-91638294D01*
X161328500Y-91649500D01*
X159602129Y-91649500D01*
X159602123Y-91649501D01*
X159542516Y-91655908D01*
X159407671Y-91706202D01*
X159407664Y-91706206D01*
X159292455Y-91792452D01*
X159292452Y-91792455D01*
X159206206Y-91907664D01*
X159206202Y-91907671D01*
X159155908Y-92042517D01*
X159149501Y-92102116D01*
X159149500Y-92102135D01*
X159149500Y-93897870D01*
X159149501Y-93897876D01*
X159155908Y-93957483D01*
X159206202Y-94092328D01*
X159206206Y-94092335D01*
X159292452Y-94207544D01*
X159292455Y-94207547D01*
X159407664Y-94293793D01*
X159407671Y-94293797D01*
X159469902Y-94317007D01*
X159539598Y-94343002D01*
X159595531Y-94384873D01*
X159619949Y-94450337D01*
X159605098Y-94518610D01*
X159583947Y-94546865D01*
X159461886Y-94668926D01*
X159326400Y-94862420D01*
X159326399Y-94862422D01*
X159226570Y-95076507D01*
X159226567Y-95076513D01*
X159169364Y-95289999D01*
X159169364Y-95290000D01*
X160066988Y-95290000D01*
X160034075Y-95347007D01*
X160000000Y-95474174D01*
X160000000Y-95605826D01*
X160034075Y-95732993D01*
X160066988Y-95790000D01*
X159169364Y-95790000D01*
X159226567Y-96003486D01*
X159226570Y-96003492D01*
X159326399Y-96217578D01*
X159461894Y-96411082D01*
X159628917Y-96578105D01*
X159814595Y-96708119D01*
X159858219Y-96762696D01*
X159865412Y-96832195D01*
X159833890Y-96894549D01*
X159814595Y-96911269D01*
X159628594Y-97041508D01*
X159461505Y-97208597D01*
X159325965Y-97402169D01*
X159325964Y-97402171D01*
X159226098Y-97616335D01*
X159226094Y-97616344D01*
X159164938Y-97844586D01*
X159164936Y-97844596D01*
X159144341Y-98079999D01*
X159144341Y-98080000D01*
X159164936Y-98315403D01*
X159164938Y-98315413D01*
X159226094Y-98543655D01*
X159226096Y-98543659D01*
X159226097Y-98543663D01*
X159261694Y-98620000D01*
X159325965Y-98757830D01*
X159325967Y-98757834D01*
X159375712Y-98828876D01*
X159461505Y-98951401D01*
X159628599Y-99118495D01*
X159725384Y-99186265D01*
X159822165Y-99254032D01*
X159822167Y-99254033D01*
X159822170Y-99254035D01*
X160036337Y-99353903D01*
X160264592Y-99415063D01*
X160452918Y-99431539D01*
X160499999Y-99435659D01*
X160500000Y-99435659D01*
X160500001Y-99435659D01*
X160539234Y-99432226D01*
X160735408Y-99415063D01*
X160963663Y-99353903D01*
X161177830Y-99254035D01*
X161371401Y-99118495D01*
X161538495Y-98951401D01*
X161674035Y-98757830D01*
X161773903Y-98543663D01*
X161835063Y-98315408D01*
X161855659Y-98080000D01*
X161835063Y-97844592D01*
X161773903Y-97616337D01*
X161674035Y-97402171D01*
X161538495Y-97208599D01*
X161538494Y-97208597D01*
X161535333Y-97205436D01*
X161501848Y-97144113D01*
X161506832Y-97074421D01*
X161535312Y-97030094D01*
X162475382Y-96089653D01*
X162475385Y-96089656D01*
X162475397Y-96089637D01*
X162533520Y-96031516D01*
X162533522Y-96031511D01*
X162533537Y-96031497D01*
X162533579Y-96031442D01*
X162533589Y-96031422D01*
X162533592Y-96031421D01*
X162555437Y-95993566D01*
X162572689Y-95963672D01*
X162572700Y-95963652D01*
X162586298Y-95940099D01*
X162612577Y-95894584D01*
X162612579Y-95894577D01*
X162612617Y-95894483D01*
X162612623Y-95894474D01*
X162625331Y-95847007D01*
X162633647Y-95815948D01*
X162633652Y-95815949D01*
X162633652Y-95815923D01*
X162653500Y-95741857D01*
X162653500Y-95741847D01*
X162653514Y-95741746D01*
X162653516Y-95741739D01*
X162653500Y-95660131D01*
X162653500Y-83920357D01*
X162653513Y-83838138D01*
X162653510Y-83838128D01*
X162653500Y-83838045D01*
X162653500Y-83838043D01*
X162633034Y-83761664D01*
X162612613Y-83685404D01*
X162612611Y-83685400D01*
X162612605Y-83685378D01*
X162612584Y-83685328D01*
X162572160Y-83615310D01*
X162572150Y-83615294D01*
X162549768Y-83576513D01*
X162533578Y-83548460D01*
X162533574Y-83548456D01*
X162533523Y-83548389D01*
X162533520Y-83548384D01*
X162476607Y-83491471D01*
X161777238Y-82791882D01*
X161743764Y-82730555D01*
X161748759Y-82660864D01*
X161765663Y-82629910D01*
X161793796Y-82592331D01*
X161844091Y-82457483D01*
X161850500Y-82397873D01*
X161850499Y-80602128D01*
X161844091Y-80542517D01*
X161828105Y-80499657D01*
X161793797Y-80407671D01*
X161793793Y-80407664D01*
X161707547Y-80292455D01*
X161707544Y-80292452D01*
X161592335Y-80206206D01*
X161592328Y-80206202D01*
X161457482Y-80155908D01*
X161457483Y-80155908D01*
X161397883Y-80149501D01*
X161397881Y-80149500D01*
X161397873Y-80149500D01*
X161397864Y-80149500D01*
X159602129Y-80149500D01*
X159602123Y-80149501D01*
X159542516Y-80155908D01*
X159407671Y-80206202D01*
X159407664Y-80206206D01*
X159292455Y-80292452D01*
X159292452Y-80292455D01*
X159206206Y-80407664D01*
X159206202Y-80407671D01*
X159155908Y-80542517D01*
X159149501Y-80602116D01*
X159149501Y-80602123D01*
X159149500Y-80602135D01*
X159149500Y-82397870D01*
X159149501Y-82397876D01*
X159155908Y-82457483D01*
X159206202Y-82592328D01*
X159206206Y-82592335D01*
X159292452Y-82707544D01*
X159292455Y-82707547D01*
X159407664Y-82793793D01*
X159407671Y-82793797D01*
X159469902Y-82817007D01*
X159539598Y-82843002D01*
X159595531Y-82884873D01*
X159619949Y-82950337D01*
X159605098Y-83018610D01*
X159583947Y-83046865D01*
X159461886Y-83168926D01*
X159326400Y-83362420D01*
X159326399Y-83362422D01*
X159226570Y-83576507D01*
X159226567Y-83576513D01*
X159169364Y-83789999D01*
X159169364Y-83790000D01*
X160066988Y-83790000D01*
X160034075Y-83847007D01*
X160000000Y-83974174D01*
X160000000Y-84105826D01*
X160034075Y-84232993D01*
X160066988Y-84290000D01*
X159169364Y-84290000D01*
X159226567Y-84503486D01*
X159226570Y-84503492D01*
X159326399Y-84717578D01*
X159461894Y-84911082D01*
X159628917Y-85078105D01*
X159814595Y-85208119D01*
X159858219Y-85262696D01*
X159865412Y-85332195D01*
X159833890Y-85394549D01*
X159814595Y-85411269D01*
X159628594Y-85541508D01*
X159461505Y-85708597D01*
X159325965Y-85902169D01*
X159325964Y-85902171D01*
X159226098Y-86116335D01*
X159226094Y-86116344D01*
X159164938Y-86344586D01*
X159164936Y-86344596D01*
X159144341Y-86579999D01*
X149744485Y-86579999D01*
X149806739Y-86446496D01*
X149865635Y-86226692D01*
X149885468Y-86000000D01*
X149865635Y-85773308D01*
X149806739Y-85553504D01*
X149710568Y-85347266D01*
X149580047Y-85160861D01*
X149580045Y-85160858D01*
X149419141Y-84999954D01*
X149232734Y-84869432D01*
X149232732Y-84869431D01*
X149026497Y-84773261D01*
X149026488Y-84773258D01*
X148806697Y-84714366D01*
X148806693Y-84714365D01*
X148806692Y-84714365D01*
X148806691Y-84714364D01*
X148806686Y-84714364D01*
X148580002Y-84694532D01*
X148579998Y-84694532D01*
X148353313Y-84714364D01*
X148353302Y-84714366D01*
X148133511Y-84773258D01*
X148133502Y-84773261D01*
X147927267Y-84869431D01*
X147927265Y-84869432D01*
X147740858Y-84999954D01*
X147579954Y-85160858D01*
X147449432Y-85347265D01*
X147449431Y-85347267D01*
X147353261Y-85553502D01*
X147353258Y-85553511D01*
X147294366Y-85773302D01*
X147294364Y-85773313D01*
X147274532Y-85999998D01*
X147274532Y-86000001D01*
X147294364Y-86226686D01*
X147294366Y-86226697D01*
X147353258Y-86446488D01*
X147353261Y-86446497D01*
X147449431Y-86652732D01*
X147449432Y-86652734D01*
X147579954Y-86839141D01*
X147740858Y-87000045D01*
X147740861Y-87000047D01*
X147926624Y-87130118D01*
X147970248Y-87184693D01*
X147979500Y-87231692D01*
X147979500Y-90167411D01*
X147959815Y-90234450D01*
X147907011Y-90280205D01*
X147837853Y-90290149D01*
X147774297Y-90261124D01*
X147759647Y-90246076D01*
X147757067Y-90242932D01*
X147594825Y-90109783D01*
X147594818Y-90109779D01*
X147409723Y-90010844D01*
X147208876Y-89949917D01*
X147000000Y-89929345D01*
X146791123Y-89949917D01*
X146590276Y-90010844D01*
X146405181Y-90109779D01*
X146405174Y-90109783D01*
X146242932Y-90242932D01*
X146109783Y-90405174D01*
X146109779Y-90405181D01*
X146010844Y-90590276D01*
X145949917Y-90791123D01*
X145929345Y-91000000D01*
X140125499Y-91000000D01*
X140125499Y-90387128D01*
X140119091Y-90327517D01*
X140087543Y-90242933D01*
X140068797Y-90192671D01*
X140068793Y-90192664D01*
X139982547Y-90077455D01*
X139982544Y-90077452D01*
X139867335Y-89991206D01*
X139867328Y-89991202D01*
X139732482Y-89940908D01*
X139732483Y-89940908D01*
X139672883Y-89934501D01*
X139672881Y-89934500D01*
X139672873Y-89934500D01*
X139672864Y-89934500D01*
X138447129Y-89934500D01*
X138447123Y-89934501D01*
X138387516Y-89940908D01*
X138252671Y-89991202D01*
X138252664Y-89991206D01*
X138137455Y-90077452D01*
X138137452Y-90077455D01*
X138051206Y-90192664D01*
X138051202Y-90192671D01*
X138000908Y-90327517D01*
X137994501Y-90387116D01*
X137994501Y-90387123D01*
X137994500Y-90387135D01*
X135000500Y-90387135D01*
X135000500Y-84921054D01*
X136661498Y-84921054D01*
X136702423Y-85073786D01*
X136717268Y-85099496D01*
X136717269Y-85099501D01*
X136717271Y-85099501D01*
X136779981Y-85208119D01*
X136781479Y-85210714D01*
X136781481Y-85210717D01*
X136900349Y-85329585D01*
X136900355Y-85329590D01*
X137128058Y-85557293D01*
X137161543Y-85618616D01*
X137160152Y-85677067D01*
X137134366Y-85773302D01*
X137134364Y-85773313D01*
X137114532Y-85999998D01*
X137114532Y-86000001D01*
X137134364Y-86226686D01*
X137134366Y-86226697D01*
X137193258Y-86446488D01*
X137193261Y-86446497D01*
X137289431Y-86652732D01*
X137289432Y-86652734D01*
X137419954Y-86839141D01*
X137580858Y-87000045D01*
X137580861Y-87000047D01*
X137767266Y-87130568D01*
X137973504Y-87226739D01*
X138193308Y-87285635D01*
X138355230Y-87299801D01*
X138419998Y-87305468D01*
X138420000Y-87305468D01*
X138420002Y-87305468D01*
X138476673Y-87300509D01*
X138646692Y-87285635D01*
X138866496Y-87226739D01*
X139072734Y-87130568D01*
X139259139Y-87000047D01*
X139420047Y-86839139D01*
X139550568Y-86652734D01*
X139646739Y-86446496D01*
X139705635Y-86226692D01*
X139725468Y-86000000D01*
X139705635Y-85773308D01*
X139646739Y-85553504D01*
X139550568Y-85347266D01*
X139420047Y-85160861D01*
X139420045Y-85160858D01*
X139259141Y-84999954D01*
X139072734Y-84869432D01*
X139072732Y-84869431D01*
X138866497Y-84773261D01*
X138866488Y-84773258D01*
X138646697Y-84714366D01*
X138646693Y-84714365D01*
X138646692Y-84714365D01*
X138646691Y-84714364D01*
X138646686Y-84714364D01*
X138420002Y-84694532D01*
X138419998Y-84694532D01*
X138193313Y-84714364D01*
X138193302Y-84714366D01*
X138097067Y-84740152D01*
X138027217Y-84738489D01*
X137977293Y-84708058D01*
X137898819Y-84629584D01*
X137865334Y-84568261D01*
X137862500Y-84541903D01*
X137862500Y-80858595D01*
X137882185Y-80791556D01*
X137934989Y-80745801D01*
X138004147Y-80735857D01*
X138018581Y-80738817D01*
X138193308Y-80785635D01*
X138355230Y-80799801D01*
X138419998Y-80805468D01*
X138420000Y-80805468D01*
X138420002Y-80805468D01*
X138476673Y-80800509D01*
X138646692Y-80785635D01*
X138866496Y-80726739D01*
X139072734Y-80630568D01*
X139259139Y-80500047D01*
X139420047Y-80339139D01*
X139550568Y-80152734D01*
X139646739Y-79946496D01*
X139705635Y-79726692D01*
X139725468Y-79500000D01*
X139705635Y-79273308D01*
X139699389Y-79249999D01*
X147301127Y-79249999D01*
X147301128Y-79250000D01*
X148264314Y-79250000D01*
X148259920Y-79254394D01*
X148207259Y-79345606D01*
X148180000Y-79447339D01*
X148180000Y-79552661D01*
X148207259Y-79654394D01*
X148259920Y-79745606D01*
X148264314Y-79750000D01*
X147301128Y-79750000D01*
X147353730Y-79946317D01*
X147353734Y-79946326D01*
X147449865Y-80152482D01*
X147580342Y-80338820D01*
X147741179Y-80499657D01*
X147927517Y-80630134D01*
X148133673Y-80726265D01*
X148133682Y-80726269D01*
X148329999Y-80778872D01*
X148330000Y-80778871D01*
X148330000Y-79815686D01*
X148334394Y-79820080D01*
X148425606Y-79872741D01*
X148527339Y-79900000D01*
X148632661Y-79900000D01*
X148734394Y-79872741D01*
X148825606Y-79820080D01*
X148830000Y-79815686D01*
X148830000Y-80778872D01*
X149026317Y-80726269D01*
X149026326Y-80726265D01*
X149232482Y-80630134D01*
X149418820Y-80499657D01*
X149579657Y-80338820D01*
X149710134Y-80152482D01*
X149806265Y-79946326D01*
X149806269Y-79946317D01*
X149858872Y-79750000D01*
X148895686Y-79750000D01*
X148900080Y-79745606D01*
X148952741Y-79654394D01*
X148980000Y-79552661D01*
X148980000Y-79447339D01*
X148952741Y-79345606D01*
X148900080Y-79254394D01*
X148895686Y-79250000D01*
X149858872Y-79250000D01*
X149858872Y-79249999D01*
X149806269Y-79053682D01*
X149806265Y-79053673D01*
X149710134Y-78847517D01*
X149579657Y-78661179D01*
X149418820Y-78500342D01*
X149232482Y-78369865D01*
X149026328Y-78273734D01*
X148830000Y-78221127D01*
X148830000Y-79184314D01*
X148825606Y-79179920D01*
X148734394Y-79127259D01*
X148632661Y-79100000D01*
X148527339Y-79100000D01*
X148425606Y-79127259D01*
X148334394Y-79179920D01*
X148330000Y-79184314D01*
X148330000Y-78221127D01*
X148133671Y-78273734D01*
X147927517Y-78369865D01*
X147741179Y-78500342D01*
X147580342Y-78661179D01*
X147449865Y-78847517D01*
X147353734Y-79053673D01*
X147353730Y-79053682D01*
X147301127Y-79249999D01*
X139699389Y-79249999D01*
X139646739Y-79053504D01*
X139550568Y-78847266D01*
X139420047Y-78660861D01*
X139420045Y-78660858D01*
X139259141Y-78499954D01*
X139072734Y-78369432D01*
X139072732Y-78369431D01*
X138866497Y-78273261D01*
X138866488Y-78273258D01*
X138646697Y-78214366D01*
X138646693Y-78214365D01*
X138646692Y-78214365D01*
X138646691Y-78214364D01*
X138646686Y-78214364D01*
X138420002Y-78194532D01*
X138419998Y-78194532D01*
X138193313Y-78214364D01*
X138193302Y-78214366D01*
X138018593Y-78261179D01*
X137948743Y-78259516D01*
X137890881Y-78220353D01*
X137863377Y-78156125D01*
X137862500Y-78141404D01*
X137862500Y-74458097D01*
X137882185Y-74391058D01*
X137898814Y-74370420D01*
X137977294Y-74291939D01*
X138038615Y-74258456D01*
X138097066Y-74259846D01*
X138193308Y-74285635D01*
X138355230Y-74299801D01*
X138419998Y-74305468D01*
X138420000Y-74305468D01*
X138420002Y-74305468D01*
X138476673Y-74300509D01*
X138646692Y-74285635D01*
X138866496Y-74226739D01*
X139072734Y-74130568D01*
X139259139Y-74000047D01*
X139420047Y-73839139D01*
X139550568Y-73652734D01*
X139646739Y-73446496D01*
X139705635Y-73226692D01*
X139725468Y-73000000D01*
X139725468Y-72999998D01*
X147274532Y-72999998D01*
X147274532Y-73000001D01*
X147294364Y-73226686D01*
X147294366Y-73226697D01*
X147353258Y-73446488D01*
X147353261Y-73446497D01*
X147449431Y-73652732D01*
X147449432Y-73652734D01*
X147579954Y-73839141D01*
X147740858Y-74000045D01*
X147740861Y-74000047D01*
X147927266Y-74130568D01*
X148133504Y-74226739D01*
X148353308Y-74285635D01*
X148515230Y-74299801D01*
X148579998Y-74305468D01*
X148580000Y-74305468D01*
X148580002Y-74305468D01*
X148636673Y-74300509D01*
X148806692Y-74285635D01*
X149026496Y-74226739D01*
X149232734Y-74130568D01*
X149419139Y-74000047D01*
X149580047Y-73839139D01*
X149710568Y-73652734D01*
X149806739Y-73446496D01*
X149865635Y-73226692D01*
X149885468Y-73000000D01*
X149865635Y-72773308D01*
X149806739Y-72553504D01*
X149710568Y-72347266D01*
X149580047Y-72160861D01*
X149580045Y-72160858D01*
X149419141Y-71999954D01*
X149232734Y-71869432D01*
X149232732Y-71869431D01*
X149026497Y-71773261D01*
X149026488Y-71773258D01*
X148806697Y-71714366D01*
X148806693Y-71714365D01*
X148806692Y-71714365D01*
X148806691Y-71714364D01*
X148806686Y-71714364D01*
X148580002Y-71694532D01*
X148579998Y-71694532D01*
X148353313Y-71714364D01*
X148353302Y-71714366D01*
X148133511Y-71773258D01*
X148133502Y-71773261D01*
X147927267Y-71869431D01*
X147927265Y-71869432D01*
X147740858Y-71999954D01*
X147579954Y-72160858D01*
X147449432Y-72347265D01*
X147449431Y-72347267D01*
X147353261Y-72553502D01*
X147353258Y-72553511D01*
X147294366Y-72773302D01*
X147294364Y-72773313D01*
X147274532Y-72999998D01*
X139725468Y-72999998D01*
X139705635Y-72773308D01*
X139646739Y-72553504D01*
X139550568Y-72347266D01*
X139420047Y-72160861D01*
X139420045Y-72160858D01*
X139259141Y-71999954D01*
X139072734Y-71869432D01*
X139072732Y-71869431D01*
X138866497Y-71773261D01*
X138866488Y-71773258D01*
X138646697Y-71714366D01*
X138646693Y-71714365D01*
X138646692Y-71714365D01*
X138646691Y-71714364D01*
X138646686Y-71714364D01*
X138420002Y-71694532D01*
X138419998Y-71694532D01*
X138193313Y-71714364D01*
X138193302Y-71714366D01*
X137973511Y-71773258D01*
X137973502Y-71773261D01*
X137767267Y-71869431D01*
X137767265Y-71869432D01*
X137580858Y-71999954D01*
X137419954Y-72160858D01*
X137289432Y-72347265D01*
X137289431Y-72347267D01*
X137193261Y-72553502D01*
X137193258Y-72553511D01*
X137134366Y-72773302D01*
X137134364Y-72773313D01*
X137114532Y-72999998D01*
X137114532Y-73000001D01*
X137134364Y-73226686D01*
X137134366Y-73226697D01*
X137160152Y-73322931D01*
X137158489Y-73392781D01*
X137128058Y-73442705D01*
X136893286Y-73677478D01*
X136781481Y-73789282D01*
X136781475Y-73789290D01*
X136737250Y-73865892D01*
X136737250Y-73865893D01*
X136702423Y-73926214D01*
X136702423Y-73926215D01*
X136661499Y-74078943D01*
X136661499Y-74078945D01*
X136661499Y-74247046D01*
X136661500Y-74247059D01*
X136661500Y-84755330D01*
X136661499Y-84755348D01*
X136661499Y-84921054D01*
X136661498Y-84921054D01*
X135000500Y-84921054D01*
X135000500Y-71602135D01*
X159149500Y-71602135D01*
X159149500Y-73397870D01*
X159149501Y-73397876D01*
X159155908Y-73457483D01*
X159206202Y-73592328D01*
X159206206Y-73592335D01*
X159292452Y-73707544D01*
X159292455Y-73707547D01*
X159407664Y-73793793D01*
X159407671Y-73793797D01*
X159407674Y-73793798D01*
X159539598Y-73843002D01*
X159595531Y-73884873D01*
X159619949Y-73950337D01*
X159605098Y-74018610D01*
X159583947Y-74046865D01*
X159461886Y-74168926D01*
X159326400Y-74362420D01*
X159326399Y-74362422D01*
X159226570Y-74576507D01*
X159226567Y-74576513D01*
X159169364Y-74789999D01*
X159169364Y-74790000D01*
X160066988Y-74790000D01*
X160034075Y-74847007D01*
X160000000Y-74974174D01*
X160000000Y-75105826D01*
X160034075Y-75232993D01*
X160066988Y-75290000D01*
X159169364Y-75290000D01*
X159226567Y-75503486D01*
X159226570Y-75503492D01*
X159326399Y-75717578D01*
X159461894Y-75911082D01*
X159628917Y-76078105D01*
X159822421Y-76213600D01*
X160036507Y-76313429D01*
X160036516Y-76313433D01*
X160250000Y-76370634D01*
X160250000Y-75473012D01*
X160307007Y-75505925D01*
X160434174Y-75540000D01*
X160565826Y-75540000D01*
X160692993Y-75505925D01*
X160750000Y-75473012D01*
X160750000Y-76370633D01*
X160963483Y-76313433D01*
X160963492Y-76313429D01*
X161177578Y-76213600D01*
X161371082Y-76078105D01*
X161538105Y-75911082D01*
X161673600Y-75717578D01*
X161773429Y-75503492D01*
X161773432Y-75503486D01*
X161830636Y-75290000D01*
X160933012Y-75290000D01*
X160965925Y-75232993D01*
X161000000Y-75105826D01*
X161000000Y-74974174D01*
X160965925Y-74847007D01*
X160933012Y-74790000D01*
X161830636Y-74790000D01*
X161830635Y-74789999D01*
X161773432Y-74576513D01*
X161773429Y-74576507D01*
X161673600Y-74362422D01*
X161673599Y-74362420D01*
X161538113Y-74168926D01*
X161538108Y-74168920D01*
X161416053Y-74046865D01*
X161382568Y-73985542D01*
X161387552Y-73915850D01*
X161429424Y-73859917D01*
X161460400Y-73843002D01*
X161592331Y-73793796D01*
X161707546Y-73707546D01*
X161793796Y-73592331D01*
X161844091Y-73457483D01*
X161850500Y-73397873D01*
X161850499Y-71602128D01*
X161844091Y-71542517D01*
X161793796Y-71407669D01*
X161793795Y-71407668D01*
X161793793Y-71407664D01*
X161707547Y-71292455D01*
X161707544Y-71292452D01*
X161592335Y-71206206D01*
X161592328Y-71206202D01*
X161457482Y-71155908D01*
X161457483Y-71155908D01*
X161397883Y-71149501D01*
X161397881Y-71149500D01*
X161397873Y-71149500D01*
X161397864Y-71149500D01*
X159602129Y-71149500D01*
X159602123Y-71149501D01*
X159542516Y-71155908D01*
X159407671Y-71206202D01*
X159407664Y-71206206D01*
X159292455Y-71292452D01*
X159292452Y-71292455D01*
X159206206Y-71407664D01*
X159206202Y-71407671D01*
X159155908Y-71542517D01*
X159149501Y-71602116D01*
X159149501Y-71602123D01*
X159149500Y-71602135D01*
X135000500Y-71602135D01*
X135000500Y-68124500D01*
X135020185Y-68057461D01*
X135072989Y-68011706D01*
X135124500Y-68000500D01*
X167375500Y-68000500D01*
X167442539Y-68020185D01*
G37*
%TD.AperFunction*%
%TD*%
M02*
