%TF.GenerationSoftware,KiCad,Pcbnew,8.0.8*%
%TF.CreationDate,2025-02-27T22:53:53-05:00*%
%TF.ProjectId,Power_Supply_Board,506f7765-725f-4537-9570-706c795f426f,rev?*%
%TF.SameCoordinates,Original*%
%TF.FileFunction,Copper,L1,Top*%
%TF.FilePolarity,Positive*%
%FSLAX46Y46*%
G04 Gerber Fmt 4.6, Leading zero omitted, Abs format (unit mm)*
G04 Created by KiCad (PCBNEW 8.0.8) date 2025-02-27 22:53:53*
%MOMM*%
%LPD*%
G01*
G04 APERTURE LIST*
%TA.AperFunction,ComponentPad*%
%ADD10C,1.600000*%
%TD*%
%TA.AperFunction,ComponentPad*%
%ADD11O,1.600000X1.600000*%
%TD*%
%TA.AperFunction,ComponentPad*%
%ADD12R,1.160000X1.160000*%
%TD*%
%TA.AperFunction,ComponentPad*%
%ADD13C,1.160000*%
%TD*%
%TA.AperFunction,ComponentPad*%
%ADD14C,2.200000*%
%TD*%
%TA.AperFunction,ComponentPad*%
%ADD15R,1.700000X1.700000*%
%TD*%
%TA.AperFunction,ComponentPad*%
%ADD16O,1.700000X1.700000*%
%TD*%
%TA.AperFunction,SMDPad,CuDef*%
%ADD17R,0.520000X1.000000*%
%TD*%
%TA.AperFunction,SMDPad,CuDef*%
%ADD18R,0.270000X1.000000*%
%TD*%
%TA.AperFunction,SMDPad,CuDef*%
%ADD19R,1.000000X2.000000*%
%TD*%
%TA.AperFunction,ComponentPad*%
%ADD20O,1.158000X2.316000*%
%TD*%
%TA.AperFunction,ComponentPad*%
%ADD21O,1.200000X2.400000*%
%TD*%
%TA.AperFunction,Conductor*%
%ADD22C,0.200000*%
%TD*%
G04 APERTURE END LIST*
D10*
%TO.P,C2,1*%
%TO.N,Net-(IC1-VOUT)*%
X167045000Y-93097200D03*
%TO.P,C2,2*%
%TO.N,Earth*%
X172045000Y-93097200D03*
%TD*%
%TO.P,R1,1*%
%TO.N,Net-(IC1-VOUT)*%
X162102800Y-94970600D03*
D11*
%TO.P,R1,2*%
%TO.N,Net-(J2-Pin_2)*%
X162102800Y-84810600D03*
%TD*%
D12*
%TO.P,IC1,1,BOOST*%
%TO.N,unconnected-(IC1-BOOST-Pad1)*%
X187380000Y-100000000D03*
D13*
%TO.P,IC1,2,CAP+*%
%TO.N,Net-(IC1-CAP+)*%
X187380000Y-102540000D03*
%TO.P,IC1,3,GND*%
%TO.N,Earth*%
X187380000Y-105080000D03*
%TO.P,IC1,4,CAP-*%
%TO.N,Net-(IC1-CAP-)*%
X187380000Y-107620000D03*
%TO.P,IC1,5,VOUT*%
%TO.N,Net-(IC1-VOUT)*%
X195000000Y-107620000D03*
%TO.P,IC1,6,LOW_VOLTAGE_(LV)*%
%TO.N,unconnected-(IC1-LOW_VOLTAGE_(LV)-Pad6)*%
X195000000Y-105080000D03*
%TO.P,IC1,7,OSC*%
%TO.N,unconnected-(IC1-OSC-Pad7)*%
X195000000Y-102540000D03*
%TO.P,IC1,8,V+*%
%TO.N,Net-(IC1-V+)*%
X195000000Y-100000000D03*
%TD*%
D14*
%TO.P,C3,1*%
%TO.N,Net-(J2-Pin_2)*%
X162025000Y-104000000D03*
%TO.P,C3,2*%
%TO.N,Earth*%
X177025000Y-104000000D03*
%TD*%
D15*
%TO.P,J2,1,Pin_1*%
%TO.N,Net-(IC1-V+)*%
X196773800Y-94422200D03*
D16*
%TO.P,J2,2,Pin_2*%
%TO.N,Net-(J2-Pin_2)*%
X196773800Y-91882200D03*
%TO.P,J2,3,Pin_3*%
%TO.N,Earth*%
X196773800Y-89342200D03*
%TD*%
D10*
%TO.P,C1,1*%
%TO.N,Net-(IC1-CAP+)*%
X167045000Y-85547200D03*
%TO.P,C1,2*%
%TO.N,Net-(IC1-CAP-)*%
X172045000Y-85547200D03*
%TD*%
D17*
%TO.P,J1,1,GND*%
%TO.N,Earth*%
X185551200Y-86191200D03*
%TO.P,J1,2,VBUS*%
%TO.N,Net-(IC1-V+)*%
X184801200Y-86191200D03*
D18*
%TO.P,J1,3,CC1*%
%TO.N,unconnected-(J1-CC1-Pad3)*%
X184201200Y-86191200D03*
%TO.P,J1,4,SBU2*%
%TO.N,unconnected-(J1-SBU2-Pad4)*%
X183701200Y-86191200D03*
%TO.P,J1,5,D-*%
%TO.N,Net-(J1-D--Pad5)*%
X183201200Y-86191200D03*
%TO.P,J1,6,D+*%
%TO.N,Net-(J1-D+-Pad6)*%
X182701200Y-86191200D03*
%TO.P,J1,7,D+*%
X182201200Y-86191200D03*
%TO.P,J1,8,D-*%
%TO.N,Net-(J1-D--Pad5)*%
X181701200Y-86191200D03*
%TO.P,J1,9,CC2*%
%TO.N,unconnected-(J1-CC2-Pad9)*%
X181201200Y-86191200D03*
%TO.P,J1,10,SBU1*%
%TO.N,unconnected-(J1-SBU1-Pad10)*%
X180701200Y-86191200D03*
D17*
%TO.P,J1,11,VBUS*%
%TO.N,Net-(IC1-V+)*%
X180101200Y-86191200D03*
%TO.P,J1,12,GND*%
%TO.N,Earth*%
X179351200Y-86191200D03*
D19*
%TO.P,J1,S1,SHIELD*%
X183851200Y-81991200D03*
%TO.P,J1,S2,SHIELD*%
X181051200Y-81991200D03*
D20*
%TO.P,J1,S3,SHIELD*%
X186771200Y-85816200D03*
%TO.P,J1,S4,SHIELD*%
X178131200Y-85816200D03*
D21*
%TO.P,J1,S5,SHIELD*%
X186771200Y-81991200D03*
%TO.P,J1,S6,SHIELD*%
X178131200Y-81991200D03*
%TD*%
D22*
%TO.N,Net-(IC1-CAP+)*%
X187380000Y-102540000D02*
X184037800Y-102540000D01*
X184037800Y-102540000D02*
X167045000Y-85547200D01*
%TO.N,Net-(IC1-VOUT)*%
X167045000Y-102630600D02*
X172914400Y-108500000D01*
X165171600Y-94970600D02*
X167045000Y-93097200D01*
X162102800Y-94970600D02*
X165171600Y-94970600D01*
X172914400Y-108500000D02*
X194120000Y-108500000D01*
X194120000Y-108500000D02*
X195000000Y-107620000D01*
X167045000Y-93097200D02*
X167045000Y-102630600D01*
%TO.N,Net-(IC1-V+)*%
X195000000Y-96196000D02*
X196773800Y-94422200D01*
X196773800Y-94422200D02*
X192332200Y-94422200D01*
X180255800Y-87045800D02*
X180101200Y-86891200D01*
X195000000Y-100000000D02*
X195000000Y-96196000D01*
X192332200Y-94422200D02*
X184801200Y-86891200D01*
X184801200Y-86891200D02*
X184646600Y-87045800D01*
X184646600Y-87045800D02*
X180255800Y-87045800D01*
X184801200Y-86891200D02*
X184801200Y-86191200D01*
X180101200Y-86891200D02*
X180101200Y-86191200D01*
%TO.N,Net-(J2-Pin_2)*%
X196773800Y-91882200D02*
X189249800Y-84358200D01*
X189249800Y-84358200D02*
X162555200Y-84358200D01*
X162555200Y-84358200D02*
X162102800Y-84810600D01*
X160324800Y-103505000D02*
X160819800Y-104000000D01*
X160324800Y-86588600D02*
X160324800Y-103505000D01*
X162102800Y-84810600D02*
X160324800Y-86588600D01*
X160819800Y-104000000D02*
X162025000Y-104000000D01*
%TD*%
%TA.AperFunction,Conductor*%
%TO.N,Earth*%
G36*
X177343142Y-80410985D02*
G01*
X177388897Y-80463789D01*
X177398841Y-80532947D01*
X177369816Y-80596503D01*
X177363784Y-80602981D01*
X177292167Y-80674597D01*
X177190395Y-80814675D01*
X177111791Y-80968942D01*
X177058285Y-81133615D01*
X177031200Y-81304628D01*
X177031200Y-81741200D01*
X177806200Y-81741200D01*
X177806200Y-82241200D01*
X177031200Y-82241200D01*
X177031200Y-82677771D01*
X177058285Y-82848784D01*
X177111791Y-83013457D01*
X177190395Y-83167724D01*
X177292167Y-83307802D01*
X177414597Y-83430232D01*
X177556571Y-83533381D01*
X177599237Y-83588711D01*
X177605216Y-83658324D01*
X177572611Y-83720120D01*
X177511772Y-83754477D01*
X177483686Y-83757700D01*
X162905552Y-83757700D01*
X162838513Y-83738015D01*
X162834443Y-83735284D01*
X162755534Y-83680032D01*
X162755533Y-83680031D01*
X162755531Y-83680030D01*
X162755532Y-83680030D01*
X162618042Y-83615918D01*
X162549296Y-83583861D01*
X162549292Y-83583860D01*
X162549288Y-83583858D01*
X162329497Y-83524966D01*
X162329493Y-83524965D01*
X162329492Y-83524965D01*
X162329491Y-83524964D01*
X162329486Y-83524964D01*
X162102802Y-83505132D01*
X162102798Y-83505132D01*
X161876113Y-83524964D01*
X161876102Y-83524966D01*
X161656311Y-83583858D01*
X161656302Y-83583861D01*
X161450067Y-83680031D01*
X161450065Y-83680032D01*
X161263660Y-83810553D01*
X161102754Y-83971458D01*
X160972232Y-84157865D01*
X160972231Y-84157867D01*
X160876061Y-84364102D01*
X160876058Y-84364111D01*
X160817166Y-84583902D01*
X160817164Y-84583913D01*
X160797332Y-84810598D01*
X160797332Y-84810601D01*
X160817164Y-85037286D01*
X160817166Y-85037297D01*
X160842952Y-85133531D01*
X160841289Y-85203381D01*
X160810858Y-85253305D01*
X159956086Y-86108078D01*
X159844281Y-86219882D01*
X159844277Y-86219887D01*
X159803395Y-86290699D01*
X159803395Y-86290700D01*
X159765223Y-86356814D01*
X159765223Y-86356815D01*
X159724299Y-86509543D01*
X159724299Y-86509545D01*
X159724299Y-86677646D01*
X159724300Y-86677659D01*
X159724300Y-103418330D01*
X159724299Y-103418348D01*
X159724299Y-103584054D01*
X159724298Y-103584054D01*
X159765223Y-103736785D01*
X159772190Y-103748852D01*
X159844277Y-103873712D01*
X159844279Y-103873715D01*
X159844280Y-103873716D01*
X159956084Y-103985520D01*
X159956085Y-103985521D01*
X160451084Y-104480520D01*
X160451085Y-104480521D01*
X160451087Y-104480522D01*
X160467970Y-104490269D01*
X160516186Y-104540835D01*
X160520533Y-104550205D01*
X160594531Y-104728855D01*
X160594533Y-104728858D01*
X160726160Y-104943653D01*
X160726161Y-104943656D01*
X160726164Y-104943659D01*
X160889776Y-105135224D01*
X161038066Y-105261875D01*
X161081343Y-105298838D01*
X161081346Y-105298839D01*
X161296140Y-105430466D01*
X161527737Y-105526396D01*
X161528889Y-105526873D01*
X161773852Y-105585683D01*
X162025000Y-105605449D01*
X162276148Y-105585683D01*
X162521111Y-105526873D01*
X162753859Y-105430466D01*
X162968659Y-105298836D01*
X163160224Y-105135224D01*
X163323836Y-104943659D01*
X163455466Y-104728859D01*
X163551873Y-104496111D01*
X163610683Y-104251148D01*
X163630449Y-104000000D01*
X163610683Y-103748852D01*
X163551873Y-103503889D01*
X163516441Y-103418348D01*
X163455466Y-103271140D01*
X163324017Y-103056637D01*
X163323838Y-103056345D01*
X163323838Y-103056343D01*
X163217642Y-102932004D01*
X163160224Y-102864776D01*
X163033571Y-102756604D01*
X162968656Y-102701161D01*
X162968653Y-102701160D01*
X162753859Y-102569533D01*
X162521110Y-102473126D01*
X162276151Y-102414317D01*
X162025000Y-102394551D01*
X161773848Y-102414317D01*
X161528889Y-102473126D01*
X161296145Y-102569531D01*
X161114090Y-102681095D01*
X161046644Y-102699339D01*
X160980041Y-102678222D01*
X160935428Y-102624451D01*
X160925300Y-102575367D01*
X160925300Y-95931649D01*
X160944985Y-95864610D01*
X160997789Y-95818855D01*
X161066947Y-95808911D01*
X161130503Y-95837936D01*
X161136981Y-95843968D01*
X161263658Y-95970645D01*
X161263661Y-95970647D01*
X161450066Y-96101168D01*
X161656304Y-96197339D01*
X161876108Y-96256235D01*
X162038030Y-96270401D01*
X162102798Y-96276068D01*
X162102800Y-96276068D01*
X162102802Y-96276068D01*
X162159473Y-96271109D01*
X162329492Y-96256235D01*
X162549296Y-96197339D01*
X162755534Y-96101168D01*
X162941939Y-95970647D01*
X163102847Y-95809739D01*
X163232918Y-95623975D01*
X163287493Y-95580352D01*
X163334492Y-95571100D01*
X165084931Y-95571100D01*
X165084947Y-95571101D01*
X165092543Y-95571101D01*
X165250654Y-95571101D01*
X165250657Y-95571101D01*
X165403385Y-95530177D01*
X165453504Y-95501239D01*
X165540316Y-95451120D01*
X165652120Y-95339316D01*
X165652120Y-95339314D01*
X165662328Y-95329107D01*
X165662329Y-95329104D01*
X166232820Y-94758614D01*
X166294142Y-94725130D01*
X166363834Y-94730114D01*
X166419767Y-94771986D01*
X166444184Y-94837450D01*
X166444500Y-94846296D01*
X166444500Y-102543930D01*
X166444499Y-102543948D01*
X166444499Y-102709654D01*
X166444498Y-102709654D01*
X166477933Y-102834435D01*
X166485423Y-102862385D01*
X166509738Y-102904499D01*
X166525612Y-102931994D01*
X166564479Y-102999314D01*
X166564481Y-102999317D01*
X166683349Y-103118185D01*
X166683355Y-103118190D01*
X172429539Y-108864374D01*
X172429549Y-108864385D01*
X172433879Y-108868715D01*
X172433880Y-108868716D01*
X172545684Y-108980520D01*
X172632495Y-109030639D01*
X172632497Y-109030641D01*
X172670551Y-109052611D01*
X172682615Y-109059577D01*
X172835343Y-109100500D01*
X194033331Y-109100500D01*
X194033347Y-109100501D01*
X194040943Y-109100501D01*
X194199054Y-109100501D01*
X194199057Y-109100501D01*
X194351785Y-109059577D01*
X194401904Y-109030639D01*
X194488716Y-108980520D01*
X194600520Y-108868716D01*
X194600520Y-108868714D01*
X194610728Y-108858507D01*
X194610730Y-108858504D01*
X194743172Y-108726061D01*
X194804493Y-108692578D01*
X194853635Y-108691856D01*
X194899877Y-108700500D01*
X194899878Y-108700500D01*
X195100121Y-108700500D01*
X195100123Y-108700500D01*
X195296960Y-108663705D01*
X195483684Y-108591368D01*
X195653936Y-108485952D01*
X195801920Y-108351047D01*
X195922595Y-108191247D01*
X196011853Y-108011994D01*
X196066653Y-107819392D01*
X196085129Y-107620000D01*
X196066653Y-107420608D01*
X196011853Y-107228006D01*
X196011848Y-107227995D01*
X195922598Y-107048758D01*
X195922593Y-107048750D01*
X195801918Y-106888950D01*
X195653937Y-106754049D01*
X195653936Y-106754048D01*
X195589101Y-106713903D01*
X195483685Y-106648632D01*
X195483683Y-106648631D01*
X195347152Y-106595739D01*
X195296960Y-106576295D01*
X195100123Y-106539500D01*
X194899877Y-106539500D01*
X194703040Y-106576295D01*
X194703037Y-106576295D01*
X194703037Y-106576296D01*
X194516316Y-106648631D01*
X194516314Y-106648632D01*
X194346062Y-106754049D01*
X194198081Y-106888950D01*
X194077406Y-107048750D01*
X194077401Y-107048758D01*
X193988151Y-107227995D01*
X193988145Y-107228010D01*
X193933347Y-107420606D01*
X193933346Y-107420608D01*
X193914871Y-107619999D01*
X193914871Y-107620000D01*
X193928220Y-107764059D01*
X193914805Y-107832628D01*
X193866448Y-107883060D01*
X193804749Y-107899500D01*
X188575251Y-107899500D01*
X188508212Y-107879815D01*
X188462457Y-107827011D01*
X188451780Y-107764059D01*
X188465129Y-107620000D01*
X188465129Y-107619999D01*
X188446653Y-107420608D01*
X188446652Y-107420606D01*
X188391854Y-107228010D01*
X188391853Y-107228006D01*
X188391848Y-107227995D01*
X188302598Y-107048758D01*
X188302593Y-107048750D01*
X188181918Y-106888950D01*
X188033937Y-106754049D01*
X188033936Y-106754048D01*
X187969101Y-106713903D01*
X187863685Y-106648632D01*
X187863683Y-106648631D01*
X187727152Y-106595739D01*
X187676960Y-106576295D01*
X187480123Y-106539500D01*
X187279877Y-106539500D01*
X187083040Y-106576295D01*
X187083037Y-106576295D01*
X187083037Y-106576296D01*
X186896316Y-106648631D01*
X186896314Y-106648632D01*
X186726062Y-106754049D01*
X186578081Y-106888950D01*
X186457406Y-107048750D01*
X186457401Y-107048758D01*
X186368151Y-107227995D01*
X186368145Y-107228010D01*
X186313347Y-107420606D01*
X186313346Y-107420608D01*
X186294871Y-107619999D01*
X186294871Y-107620000D01*
X186308220Y-107764059D01*
X186294805Y-107832628D01*
X186246448Y-107883060D01*
X186184749Y-107899500D01*
X173214497Y-107899500D01*
X173147458Y-107879815D01*
X173126816Y-107863181D01*
X169263635Y-104000000D01*
X175420052Y-104000000D01*
X175439812Y-104251072D01*
X175498603Y-104495956D01*
X175594980Y-104728631D01*
X175726568Y-104943362D01*
X175727266Y-104944179D01*
X176501212Y-104170233D01*
X176512482Y-104212292D01*
X176584890Y-104337708D01*
X176687292Y-104440110D01*
X176812708Y-104512518D01*
X176854765Y-104523787D01*
X176080819Y-105297732D01*
X176080819Y-105297733D01*
X176081634Y-105298429D01*
X176296368Y-105430019D01*
X176529043Y-105526396D01*
X176773927Y-105585187D01*
X177025000Y-105604947D01*
X177276072Y-105585187D01*
X177520956Y-105526396D01*
X177753631Y-105430019D01*
X177968361Y-105298432D01*
X177968363Y-105298430D01*
X177969180Y-105297732D01*
X177751447Y-105079999D01*
X186295373Y-105079999D01*
X186295373Y-105080000D01*
X186313840Y-105279295D01*
X186368616Y-105471815D01*
X186457044Y-105649402D01*
X187000000Y-105106446D01*
X187000000Y-105130028D01*
X187025896Y-105226675D01*
X187075924Y-105313325D01*
X187146675Y-105384076D01*
X187233325Y-105434104D01*
X187329972Y-105460000D01*
X187353553Y-105460000D01*
X186813839Y-105999711D01*
X186896539Y-106050917D01*
X186896540Y-106050918D01*
X187083175Y-106123220D01*
X187279925Y-106160000D01*
X187480075Y-106160000D01*
X187676824Y-106123220D01*
X187863459Y-106050918D01*
X187863463Y-106050916D01*
X187946158Y-105999712D01*
X187946158Y-105999711D01*
X187406448Y-105460000D01*
X187430028Y-105460000D01*
X187526675Y-105434104D01*
X187613325Y-105384076D01*
X187684076Y-105313325D01*
X187734104Y-105226675D01*
X187760000Y-105130028D01*
X187760000Y-105106447D01*
X188302954Y-105649401D01*
X188302955Y-105649401D01*
X188391383Y-105471815D01*
X188446159Y-105279295D01*
X188464627Y-105080000D01*
X188464627Y-105079999D01*
X193914871Y-105079999D01*
X193914871Y-105080000D01*
X193933346Y-105279391D01*
X193933347Y-105279393D01*
X193988145Y-105471989D01*
X193988151Y-105472004D01*
X194077401Y-105651241D01*
X194077406Y-105651249D01*
X194198081Y-105811049D01*
X194325386Y-105927102D01*
X194346064Y-105945952D01*
X194432889Y-105999712D01*
X194515587Y-106050917D01*
X194516316Y-106051368D01*
X194703040Y-106123705D01*
X194899877Y-106160500D01*
X194899879Y-106160500D01*
X195100121Y-106160500D01*
X195100123Y-106160500D01*
X195296960Y-106123705D01*
X195483684Y-106051368D01*
X195653936Y-105945952D01*
X195801920Y-105811047D01*
X195922595Y-105651247D01*
X196011853Y-105471994D01*
X196066653Y-105279392D01*
X196085129Y-105080000D01*
X196066653Y-104880608D01*
X196011853Y-104688006D01*
X195943134Y-104550000D01*
X195922598Y-104508758D01*
X195922593Y-104508750D01*
X195801918Y-104348950D01*
X195653937Y-104214049D01*
X195653936Y-104214048D01*
X195589101Y-104173903D01*
X195483685Y-104108632D01*
X195483683Y-104108631D01*
X195298209Y-104036779D01*
X195296960Y-104036295D01*
X195100123Y-103999500D01*
X194899877Y-103999500D01*
X194703040Y-104036295D01*
X194703037Y-104036295D01*
X194703037Y-104036296D01*
X194516316Y-104108631D01*
X194516314Y-104108632D01*
X194346062Y-104214049D01*
X194198081Y-104348950D01*
X194077406Y-104508750D01*
X194077401Y-104508758D01*
X193988151Y-104687995D01*
X193988145Y-104688010D01*
X193933347Y-104880606D01*
X193933346Y-104880608D01*
X193914871Y-105079999D01*
X188464627Y-105079999D01*
X188446159Y-104880704D01*
X188391383Y-104688184D01*
X188302955Y-104510596D01*
X187760000Y-105053551D01*
X187760000Y-105029972D01*
X187734104Y-104933325D01*
X187684076Y-104846675D01*
X187613325Y-104775924D01*
X187526675Y-104725896D01*
X187430028Y-104700000D01*
X187406447Y-104700000D01*
X187946159Y-104160287D01*
X187863458Y-104109081D01*
X187863457Y-104109080D01*
X187676824Y-104036779D01*
X187480075Y-104000000D01*
X187279925Y-104000000D01*
X187083175Y-104036779D01*
X186896543Y-104109080D01*
X186813839Y-104160287D01*
X187353554Y-104700000D01*
X187329972Y-104700000D01*
X187233325Y-104725896D01*
X187146675Y-104775924D01*
X187075924Y-104846675D01*
X187025896Y-104933325D01*
X187000000Y-105029972D01*
X187000000Y-105053552D01*
X186457044Y-104510596D01*
X186457043Y-104510596D01*
X186368618Y-104688179D01*
X186368614Y-104688189D01*
X186313840Y-104880704D01*
X186295373Y-105079999D01*
X177751447Y-105079999D01*
X177195234Y-104523787D01*
X177237292Y-104512518D01*
X177362708Y-104440110D01*
X177465110Y-104337708D01*
X177537518Y-104212292D01*
X177548787Y-104170235D01*
X178322732Y-104944180D01*
X178323430Y-104943363D01*
X178323432Y-104943361D01*
X178455019Y-104728631D01*
X178551396Y-104495956D01*
X178610187Y-104251072D01*
X178629947Y-104000000D01*
X178610187Y-103748927D01*
X178551396Y-103504043D01*
X178455019Y-103271368D01*
X178323429Y-103056634D01*
X178322733Y-103055819D01*
X178322732Y-103055819D01*
X177548787Y-103829764D01*
X177537518Y-103787708D01*
X177465110Y-103662292D01*
X177362708Y-103559890D01*
X177237292Y-103487482D01*
X177195232Y-103476212D01*
X177969179Y-102702266D01*
X177968362Y-102701568D01*
X177753631Y-102569980D01*
X177520956Y-102473603D01*
X177276072Y-102414812D01*
X177025000Y-102395052D01*
X176773927Y-102414812D01*
X176529043Y-102473603D01*
X176296368Y-102569980D01*
X176081637Y-102701567D01*
X176080818Y-102702266D01*
X176854765Y-103476212D01*
X176812708Y-103487482D01*
X176687292Y-103559890D01*
X176584890Y-103662292D01*
X176512482Y-103787708D01*
X176501212Y-103829765D01*
X175727266Y-103055818D01*
X175726567Y-103056637D01*
X175594980Y-103271368D01*
X175498603Y-103504043D01*
X175439812Y-103748927D01*
X175420052Y-104000000D01*
X169263635Y-104000000D01*
X167681819Y-102418184D01*
X167648334Y-102356861D01*
X167645500Y-102330503D01*
X167645500Y-94328892D01*
X167665185Y-94261853D01*
X167698374Y-94227319D01*
X167884139Y-94097247D01*
X168045047Y-93936339D01*
X168175568Y-93749934D01*
X168271739Y-93543696D01*
X168330635Y-93323892D01*
X168350468Y-93097200D01*
X168345246Y-93037518D01*
X168336220Y-92934343D01*
X168330635Y-92870508D01*
X168271739Y-92650704D01*
X168175568Y-92444466D01*
X168045047Y-92258061D01*
X168045045Y-92258058D01*
X167884141Y-92097154D01*
X167697734Y-91966632D01*
X167697732Y-91966631D01*
X167491497Y-91870461D01*
X167491488Y-91870458D01*
X167271697Y-91811566D01*
X167271693Y-91811565D01*
X167271692Y-91811565D01*
X167271691Y-91811564D01*
X167271686Y-91811564D01*
X167045002Y-91791732D01*
X167044998Y-91791732D01*
X166818313Y-91811564D01*
X166818302Y-91811566D01*
X166598511Y-91870458D01*
X166598502Y-91870461D01*
X166392267Y-91966631D01*
X166392265Y-91966632D01*
X166205858Y-92097154D01*
X166044954Y-92258058D01*
X165914432Y-92444465D01*
X165914431Y-92444467D01*
X165818261Y-92650702D01*
X165818258Y-92650711D01*
X165759366Y-92870502D01*
X165759364Y-92870513D01*
X165739532Y-93097198D01*
X165739532Y-93097201D01*
X165759364Y-93323886D01*
X165759366Y-93323897D01*
X165785152Y-93420131D01*
X165783489Y-93489981D01*
X165753058Y-93539905D01*
X164959184Y-94333781D01*
X164897861Y-94367266D01*
X164871503Y-94370100D01*
X163334492Y-94370100D01*
X163267453Y-94350415D01*
X163232919Y-94317225D01*
X163102847Y-94131461D01*
X163102845Y-94131458D01*
X162941941Y-93970554D01*
X162755534Y-93840032D01*
X162755532Y-93840031D01*
X162549297Y-93743861D01*
X162549288Y-93743858D01*
X162329497Y-93684966D01*
X162329493Y-93684965D01*
X162329492Y-93684965D01*
X162329491Y-93684964D01*
X162329486Y-93684964D01*
X162102802Y-93665132D01*
X162102798Y-93665132D01*
X161876113Y-93684964D01*
X161876102Y-93684966D01*
X161656311Y-93743858D01*
X161656302Y-93743861D01*
X161450067Y-93840031D01*
X161450065Y-93840032D01*
X161263658Y-93970554D01*
X161136981Y-94097232D01*
X161075658Y-94130717D01*
X161005966Y-94125733D01*
X160950033Y-94083861D01*
X160925616Y-94018397D01*
X160925300Y-94009551D01*
X160925300Y-86888696D01*
X160944985Y-86821657D01*
X160961615Y-86801019D01*
X161660094Y-86102539D01*
X161721415Y-86069056D01*
X161779866Y-86070447D01*
X161799404Y-86075682D01*
X161876108Y-86096235D01*
X162038030Y-86110401D01*
X162102798Y-86116068D01*
X162102800Y-86116068D01*
X162102802Y-86116068D01*
X162159473Y-86111109D01*
X162329492Y-86096235D01*
X162549296Y-86037339D01*
X162755534Y-85941168D01*
X162941939Y-85810647D01*
X163102847Y-85649739D01*
X163233368Y-85463334D01*
X163329539Y-85257096D01*
X163384867Y-85050606D01*
X163421232Y-84990946D01*
X163484079Y-84960417D01*
X163504642Y-84958700D01*
X165694711Y-84958700D01*
X165761750Y-84978385D01*
X165807505Y-85031189D01*
X165817449Y-85100347D01*
X165814486Y-85114793D01*
X165759366Y-85320502D01*
X165759364Y-85320513D01*
X165739532Y-85547198D01*
X165739532Y-85547201D01*
X165759364Y-85773886D01*
X165759366Y-85773897D01*
X165818258Y-85993688D01*
X165818261Y-85993697D01*
X165914431Y-86199932D01*
X165914432Y-86199934D01*
X166044954Y-86386341D01*
X166205858Y-86547245D01*
X166205861Y-86547247D01*
X166392266Y-86677768D01*
X166598504Y-86773939D01*
X166818308Y-86832835D01*
X166980230Y-86847001D01*
X167044998Y-86852668D01*
X167045000Y-86852668D01*
X167045002Y-86852668D01*
X167101673Y-86847709D01*
X167271692Y-86832835D01*
X167367932Y-86807047D01*
X167437781Y-86808710D01*
X167487706Y-86839141D01*
X172237844Y-91589279D01*
X172271329Y-91650602D01*
X172266345Y-91720294D01*
X172224473Y-91776227D01*
X172159009Y-91800644D01*
X172139357Y-91800488D01*
X172045004Y-91792234D01*
X172044998Y-91792234D01*
X171818400Y-91812058D01*
X171818389Y-91812060D01*
X171598682Y-91870930D01*
X171598673Y-91870934D01*
X171392516Y-91967066D01*
X171392512Y-91967068D01*
X171319526Y-92018173D01*
X171319526Y-92018174D01*
X171998554Y-92697200D01*
X171992339Y-92697200D01*
X171890606Y-92724459D01*
X171799394Y-92777120D01*
X171724920Y-92851594D01*
X171672259Y-92942806D01*
X171645000Y-93044539D01*
X171645000Y-93050752D01*
X170965974Y-92371726D01*
X170965973Y-92371726D01*
X170914868Y-92444712D01*
X170914866Y-92444716D01*
X170818734Y-92650873D01*
X170818730Y-92650882D01*
X170759860Y-92870589D01*
X170759858Y-92870600D01*
X170740034Y-93097197D01*
X170740034Y-93097202D01*
X170759858Y-93323799D01*
X170759860Y-93323810D01*
X170818730Y-93543517D01*
X170818735Y-93543531D01*
X170914863Y-93749678D01*
X170965974Y-93822672D01*
X171645000Y-93143646D01*
X171645000Y-93149861D01*
X171672259Y-93251594D01*
X171724920Y-93342806D01*
X171799394Y-93417280D01*
X171890606Y-93469941D01*
X171992339Y-93497200D01*
X171998553Y-93497200D01*
X171319526Y-94176225D01*
X171392513Y-94227332D01*
X171392521Y-94227336D01*
X171598668Y-94323464D01*
X171598682Y-94323469D01*
X171818389Y-94382339D01*
X171818400Y-94382341D01*
X172044998Y-94402166D01*
X172045002Y-94402166D01*
X172271599Y-94382341D01*
X172271610Y-94382339D01*
X172491317Y-94323469D01*
X172491331Y-94323464D01*
X172697478Y-94227336D01*
X172770471Y-94176224D01*
X172091447Y-93497200D01*
X172097661Y-93497200D01*
X172199394Y-93469941D01*
X172290606Y-93417280D01*
X172365080Y-93342806D01*
X172417741Y-93251594D01*
X172445000Y-93149861D01*
X172445000Y-93143646D01*
X173124024Y-93822671D01*
X173175136Y-93749678D01*
X173271264Y-93543531D01*
X173271269Y-93543517D01*
X173330139Y-93323810D01*
X173330141Y-93323799D01*
X173349966Y-93097202D01*
X173349966Y-93097198D01*
X173341711Y-93002843D01*
X173355478Y-92934343D01*
X173404093Y-92884160D01*
X173472122Y-92868227D01*
X173537965Y-92891602D01*
X173552920Y-92904355D01*
X183552939Y-102904374D01*
X183552949Y-102904385D01*
X183557279Y-102908715D01*
X183557280Y-102908716D01*
X183669084Y-103020520D01*
X183753157Y-103069059D01*
X183806015Y-103099577D01*
X183958742Y-103140500D01*
X183958743Y-103140500D01*
X186417752Y-103140500D01*
X186484791Y-103160185D01*
X186516705Y-103189773D01*
X186578080Y-103271047D01*
X186726064Y-103405952D01*
X186797204Y-103450000D01*
X186884485Y-103504043D01*
X186896316Y-103511368D01*
X187083040Y-103583705D01*
X187279877Y-103620500D01*
X187279879Y-103620500D01*
X187480121Y-103620500D01*
X187480123Y-103620500D01*
X187676960Y-103583705D01*
X187863684Y-103511368D01*
X188033936Y-103405952D01*
X188181920Y-103271047D01*
X188302595Y-103111247D01*
X188391853Y-102931994D01*
X188446653Y-102739392D01*
X188465129Y-102540000D01*
X188465129Y-102539999D01*
X193914871Y-102539999D01*
X193914871Y-102540000D01*
X193933346Y-102739391D01*
X193933347Y-102739393D01*
X193988145Y-102931989D01*
X193988151Y-102932004D01*
X194077401Y-103111241D01*
X194077406Y-103111249D01*
X194198081Y-103271049D01*
X194325386Y-103387102D01*
X194346064Y-103405952D01*
X194417204Y-103450000D01*
X194504485Y-103504043D01*
X194516316Y-103511368D01*
X194703040Y-103583705D01*
X194899877Y-103620500D01*
X194899879Y-103620500D01*
X195100121Y-103620500D01*
X195100123Y-103620500D01*
X195296960Y-103583705D01*
X195483684Y-103511368D01*
X195653936Y-103405952D01*
X195801920Y-103271047D01*
X195922595Y-103111247D01*
X196011853Y-102931994D01*
X196066653Y-102739392D01*
X196085129Y-102540000D01*
X196066653Y-102340608D01*
X196011853Y-102148006D01*
X196011848Y-102147995D01*
X195922598Y-101968758D01*
X195922593Y-101968750D01*
X195801918Y-101808950D01*
X195653937Y-101674049D01*
X195653936Y-101674048D01*
X195589101Y-101633903D01*
X195483685Y-101568632D01*
X195483683Y-101568631D01*
X195347152Y-101515739D01*
X195296960Y-101496295D01*
X195100123Y-101459500D01*
X194899877Y-101459500D01*
X194703040Y-101496295D01*
X194703037Y-101496295D01*
X194703037Y-101496296D01*
X194516316Y-101568631D01*
X194516314Y-101568632D01*
X194346062Y-101674049D01*
X194198081Y-101808950D01*
X194077406Y-101968750D01*
X194077401Y-101968758D01*
X193988151Y-102147995D01*
X193988145Y-102148010D01*
X193933347Y-102340606D01*
X193933346Y-102340608D01*
X193914871Y-102539999D01*
X188465129Y-102539999D01*
X188446653Y-102340608D01*
X188391853Y-102148006D01*
X188391848Y-102147995D01*
X188302598Y-101968758D01*
X188302593Y-101968750D01*
X188181918Y-101808950D01*
X188033937Y-101674049D01*
X188033936Y-101674048D01*
X187969101Y-101633903D01*
X187863685Y-101568632D01*
X187863683Y-101568631D01*
X187727152Y-101515739D01*
X187676960Y-101496295D01*
X187480123Y-101459500D01*
X187279877Y-101459500D01*
X187083040Y-101496295D01*
X187083037Y-101496295D01*
X187083037Y-101496296D01*
X186896316Y-101568631D01*
X186896314Y-101568632D01*
X186726062Y-101674049D01*
X186578085Y-101808947D01*
X186578078Y-101808955D01*
X186516706Y-101890226D01*
X186460598Y-101931863D01*
X186417752Y-101939500D01*
X184337897Y-101939500D01*
X184270858Y-101919815D01*
X184250216Y-101903181D01*
X181719170Y-99372135D01*
X186299500Y-99372135D01*
X186299500Y-100627870D01*
X186299501Y-100627876D01*
X186305908Y-100687483D01*
X186356202Y-100822328D01*
X186356206Y-100822335D01*
X186442452Y-100937544D01*
X186442455Y-100937547D01*
X186557664Y-101023793D01*
X186557671Y-101023797D01*
X186692517Y-101074091D01*
X186692516Y-101074091D01*
X186699444Y-101074835D01*
X186752127Y-101080500D01*
X188007872Y-101080499D01*
X188067483Y-101074091D01*
X188202331Y-101023796D01*
X188317546Y-100937546D01*
X188403796Y-100822331D01*
X188454091Y-100687483D01*
X188460500Y-100627873D01*
X188460499Y-99372128D01*
X188454091Y-99312517D01*
X188403796Y-99177669D01*
X188403795Y-99177668D01*
X188403793Y-99177664D01*
X188317547Y-99062455D01*
X188317544Y-99062452D01*
X188202335Y-98976206D01*
X188202328Y-98976202D01*
X188067482Y-98925908D01*
X188067483Y-98925908D01*
X188007883Y-98919501D01*
X188007881Y-98919500D01*
X188007873Y-98919500D01*
X188007864Y-98919500D01*
X186752129Y-98919500D01*
X186752123Y-98919501D01*
X186692516Y-98925908D01*
X186557671Y-98976202D01*
X186557664Y-98976206D01*
X186442455Y-99062452D01*
X186442452Y-99062455D01*
X186356206Y-99177664D01*
X186356202Y-99177671D01*
X186305908Y-99312517D01*
X186299501Y-99372116D01*
X186299501Y-99372123D01*
X186299500Y-99372135D01*
X181719170Y-99372135D01*
X168336941Y-85989906D01*
X168303456Y-85928583D01*
X168304847Y-85870131D01*
X168330635Y-85773892D01*
X168350468Y-85547200D01*
X168330635Y-85320508D01*
X168275514Y-85114792D01*
X168277177Y-85044944D01*
X168316340Y-84987081D01*
X168380568Y-84959577D01*
X168395289Y-84958700D01*
X170694711Y-84958700D01*
X170761750Y-84978385D01*
X170807505Y-85031189D01*
X170817449Y-85100347D01*
X170814486Y-85114793D01*
X170759366Y-85320502D01*
X170759364Y-85320513D01*
X170739532Y-85547198D01*
X170739532Y-85547201D01*
X170759364Y-85773886D01*
X170759366Y-85773897D01*
X170818258Y-85993688D01*
X170818261Y-85993697D01*
X170914431Y-86199932D01*
X170914432Y-86199934D01*
X171044954Y-86386341D01*
X171205858Y-86547245D01*
X171205861Y-86547247D01*
X171392266Y-86677768D01*
X171598504Y-86773939D01*
X171818308Y-86832835D01*
X171980230Y-86847001D01*
X172044998Y-86852668D01*
X172045000Y-86852668D01*
X172045002Y-86852668D01*
X172101673Y-86847709D01*
X172271692Y-86832835D01*
X172491496Y-86773939D01*
X172697734Y-86677768D01*
X172884139Y-86547247D01*
X173045047Y-86386339D01*
X173175568Y-86199934D01*
X173271739Y-85993696D01*
X173330635Y-85773892D01*
X173350468Y-85547200D01*
X173330635Y-85320508D01*
X173275514Y-85114792D01*
X173277177Y-85044944D01*
X173316340Y-84987081D01*
X173380568Y-84959577D01*
X173395289Y-84958700D01*
X176937675Y-84958700D01*
X177004714Y-84978385D01*
X177050469Y-85031189D01*
X177060413Y-85100347D01*
X177060148Y-85102097D01*
X177052200Y-85152280D01*
X177052200Y-85566200D01*
X177806200Y-85566200D01*
X177806200Y-86066200D01*
X177052200Y-86066200D01*
X177052200Y-86480118D01*
X177078768Y-86647866D01*
X177131253Y-86809396D01*
X177208359Y-86960722D01*
X177308179Y-87098114D01*
X177308183Y-87098119D01*
X177428280Y-87218216D01*
X177428285Y-87218220D01*
X177565677Y-87318040D01*
X177717005Y-87395146D01*
X177878536Y-87447631D01*
X177881200Y-87448053D01*
X177881200Y-86525818D01*
X177931646Y-86576264D01*
X178005755Y-86619051D01*
X178088413Y-86641200D01*
X178173987Y-86641200D01*
X178256645Y-86619051D01*
X178330754Y-86576264D01*
X178381200Y-86525818D01*
X178381200Y-87448053D01*
X178383863Y-87447631D01*
X178545394Y-87395146D01*
X178696722Y-87318040D01*
X178834121Y-87218214D01*
X178834123Y-87218213D01*
X178842771Y-87209564D01*
X178904091Y-87176074D01*
X178973783Y-87181053D01*
X178973795Y-87181057D01*
X178983822Y-87184797D01*
X178983827Y-87184798D01*
X179043355Y-87191199D01*
X179043372Y-87191200D01*
X179101200Y-87191200D01*
X179101200Y-86821984D01*
X179120885Y-86754945D01*
X179173689Y-86709190D01*
X179242847Y-86699246D01*
X179306403Y-86728271D01*
X179344177Y-86787049D01*
X179345877Y-86793469D01*
X179347109Y-86798684D01*
X179397402Y-86933528D01*
X179397406Y-86933535D01*
X179483651Y-87048742D01*
X179483654Y-87048746D01*
X179496104Y-87058066D01*
X179496928Y-87058683D01*
X179538799Y-87114617D01*
X179540972Y-87121415D01*
X179541622Y-87122983D01*
X179542706Y-87124860D01*
X179542709Y-87124866D01*
X179620677Y-87259912D01*
X179620681Y-87259917D01*
X179739549Y-87378785D01*
X179739555Y-87378790D01*
X179770939Y-87410174D01*
X179770949Y-87410185D01*
X179775279Y-87414515D01*
X179775280Y-87414516D01*
X179887084Y-87526320D01*
X179887086Y-87526321D01*
X179887090Y-87526324D01*
X180010386Y-87597508D01*
X180024016Y-87605377D01*
X180135819Y-87635334D01*
X180176742Y-87646300D01*
X180176743Y-87646300D01*
X184559931Y-87646300D01*
X184559947Y-87646301D01*
X184567543Y-87646301D01*
X184655704Y-87646301D01*
X184722743Y-87665986D01*
X184743385Y-87682620D01*
X191847339Y-94786574D01*
X191847349Y-94786585D01*
X191851679Y-94790915D01*
X191851680Y-94790916D01*
X191963484Y-94902720D01*
X191963486Y-94902721D01*
X191963490Y-94902724D01*
X192100409Y-94981773D01*
X192100416Y-94981777D01*
X192212219Y-95011734D01*
X192253142Y-95022700D01*
X192253143Y-95022700D01*
X195024703Y-95022700D01*
X195091742Y-95042385D01*
X195137497Y-95095189D01*
X195147441Y-95164347D01*
X195118416Y-95227903D01*
X195112388Y-95234376D01*
X194845525Y-95501239D01*
X194631286Y-95715478D01*
X194519481Y-95827282D01*
X194519479Y-95827285D01*
X194469361Y-95914094D01*
X194469359Y-95914096D01*
X194440425Y-95964209D01*
X194440424Y-95964210D01*
X194424544Y-96023472D01*
X194399499Y-96116943D01*
X194399499Y-96116945D01*
X194399499Y-96285046D01*
X194399500Y-96285059D01*
X194399500Y-99031950D01*
X194379815Y-99098989D01*
X194350229Y-99130902D01*
X194346065Y-99134046D01*
X194198081Y-99268950D01*
X194077406Y-99428750D01*
X194077401Y-99428758D01*
X193988151Y-99607995D01*
X193988145Y-99608010D01*
X193933347Y-99800606D01*
X193933346Y-99800608D01*
X193914871Y-99999999D01*
X193914871Y-100000000D01*
X193933346Y-100199391D01*
X193933347Y-100199393D01*
X193988145Y-100391989D01*
X193988151Y-100392004D01*
X194077401Y-100571241D01*
X194077406Y-100571249D01*
X194198081Y-100731049D01*
X194298214Y-100822331D01*
X194346064Y-100865952D01*
X194516316Y-100971368D01*
X194703040Y-101043705D01*
X194899877Y-101080500D01*
X194899879Y-101080500D01*
X195100121Y-101080500D01*
X195100123Y-101080500D01*
X195296960Y-101043705D01*
X195483684Y-100971368D01*
X195653936Y-100865952D01*
X195801920Y-100731047D01*
X195922595Y-100571247D01*
X196011853Y-100391994D01*
X196066653Y-100199392D01*
X196085129Y-100000000D01*
X196066653Y-99800608D01*
X196011853Y-99608006D01*
X196011848Y-99607995D01*
X195922598Y-99428758D01*
X195922593Y-99428750D01*
X195801918Y-99268950D01*
X195653934Y-99134046D01*
X195649771Y-99130902D01*
X195608136Y-99074792D01*
X195600500Y-99031950D01*
X195600500Y-96496096D01*
X195620185Y-96429057D01*
X195636815Y-96408419D01*
X196236216Y-95809017D01*
X196297539Y-95775533D01*
X196323897Y-95772699D01*
X197671671Y-95772699D01*
X197671672Y-95772699D01*
X197731283Y-95766291D01*
X197866131Y-95715996D01*
X197981346Y-95629746D01*
X198067596Y-95514531D01*
X198117891Y-95379683D01*
X198124300Y-95320073D01*
X198124299Y-93524328D01*
X198117891Y-93464717D01*
X198067596Y-93329869D01*
X198067595Y-93329868D01*
X198067593Y-93329864D01*
X197981347Y-93214655D01*
X197981344Y-93214652D01*
X197866135Y-93128406D01*
X197866128Y-93128402D01*
X197734717Y-93079389D01*
X197678783Y-93037518D01*
X197654366Y-92972053D01*
X197669218Y-92903780D01*
X197690363Y-92875532D01*
X197812295Y-92753601D01*
X197947835Y-92560030D01*
X198047703Y-92345863D01*
X198108863Y-92117608D01*
X198129459Y-91882200D01*
X198108863Y-91646792D01*
X198047703Y-91418537D01*
X197947835Y-91204371D01*
X197812295Y-91010799D01*
X197812294Y-91010797D01*
X197645202Y-90843706D01*
X197645201Y-90843705D01*
X197459205Y-90713469D01*
X197415581Y-90658892D01*
X197408388Y-90589393D01*
X197439910Y-90527039D01*
X197459205Y-90510319D01*
X197644882Y-90380305D01*
X197811905Y-90213282D01*
X197947400Y-90019778D01*
X198047229Y-89805692D01*
X198047232Y-89805686D01*
X198104436Y-89592200D01*
X197206812Y-89592200D01*
X197239725Y-89535193D01*
X197273800Y-89408026D01*
X197273800Y-89276374D01*
X197239725Y-89149207D01*
X197206812Y-89092200D01*
X198104436Y-89092200D01*
X198104435Y-89092199D01*
X198047232Y-88878713D01*
X198047229Y-88878707D01*
X197947400Y-88664622D01*
X197947399Y-88664620D01*
X197811913Y-88471126D01*
X197811908Y-88471120D01*
X197644882Y-88304094D01*
X197451378Y-88168599D01*
X197237292Y-88068770D01*
X197237286Y-88068767D01*
X197023800Y-88011564D01*
X197023800Y-88909188D01*
X196966793Y-88876275D01*
X196839626Y-88842200D01*
X196707974Y-88842200D01*
X196580807Y-88876275D01*
X196523800Y-88909188D01*
X196523800Y-88011564D01*
X196523799Y-88011564D01*
X196310313Y-88068767D01*
X196310307Y-88068770D01*
X196096222Y-88168599D01*
X196096220Y-88168600D01*
X195902726Y-88304086D01*
X195902720Y-88304091D01*
X195735691Y-88471120D01*
X195735686Y-88471126D01*
X195600200Y-88664620D01*
X195600199Y-88664622D01*
X195500370Y-88878707D01*
X195500367Y-88878713D01*
X195443164Y-89092199D01*
X195443164Y-89092200D01*
X196340788Y-89092200D01*
X196307875Y-89149207D01*
X196273800Y-89276374D01*
X196273800Y-89408026D01*
X196307875Y-89535193D01*
X196340788Y-89592200D01*
X195384397Y-89592200D01*
X195317358Y-89572515D01*
X195296716Y-89555881D01*
X189737390Y-83996555D01*
X189737388Y-83996552D01*
X189618517Y-83877681D01*
X189618512Y-83877677D01*
X189502248Y-83810553D01*
X189502246Y-83810551D01*
X189488472Y-83802599D01*
X189481585Y-83798623D01*
X189328857Y-83757699D01*
X189170743Y-83757699D01*
X189163147Y-83757699D01*
X189163131Y-83757700D01*
X187418714Y-83757700D01*
X187351675Y-83738015D01*
X187305920Y-83685211D01*
X187295976Y-83616053D01*
X187325001Y-83552497D01*
X187345829Y-83533381D01*
X187487802Y-83430232D01*
X187610232Y-83307802D01*
X187712004Y-83167724D01*
X187790608Y-83013457D01*
X187844114Y-82848784D01*
X187871200Y-82677771D01*
X187871200Y-82241200D01*
X187096200Y-82241200D01*
X187096200Y-81741200D01*
X187871200Y-81741200D01*
X187871200Y-81304628D01*
X187844114Y-81133615D01*
X187790608Y-80968942D01*
X187712004Y-80814675D01*
X187610232Y-80674597D01*
X187538616Y-80602981D01*
X187505131Y-80541658D01*
X187510115Y-80471966D01*
X187551987Y-80416033D01*
X187617451Y-80391616D01*
X187626297Y-80391300D01*
X199875500Y-80391300D01*
X199942539Y-80410985D01*
X199988294Y-80463789D01*
X199999500Y-80515300D01*
X199999500Y-114125500D01*
X199979815Y-114192539D01*
X199927011Y-114238294D01*
X199875500Y-114249500D01*
X158624500Y-114249500D01*
X158557461Y-114229815D01*
X158511706Y-114177011D01*
X158500500Y-114125500D01*
X158500500Y-80515300D01*
X158520185Y-80448261D01*
X158572989Y-80402506D01*
X158624500Y-80391300D01*
X177276103Y-80391300D01*
X177343142Y-80410985D01*
G37*
%TD.AperFunction*%
%TA.AperFunction,Conductor*%
G36*
X189016742Y-84978385D02*
G01*
X189037384Y-84995019D01*
X195441033Y-91398668D01*
X195474518Y-91459991D01*
X195473127Y-91518441D01*
X195438739Y-91646783D01*
X195438736Y-91646796D01*
X195418141Y-91882199D01*
X195418141Y-91882200D01*
X195438736Y-92117603D01*
X195438738Y-92117613D01*
X195499894Y-92345855D01*
X195499896Y-92345859D01*
X195499897Y-92345863D01*
X195545877Y-92444467D01*
X195599765Y-92560030D01*
X195599767Y-92560034D01*
X195708081Y-92714721D01*
X195735301Y-92753596D01*
X195735306Y-92753602D01*
X195857230Y-92875526D01*
X195890715Y-92936849D01*
X195885731Y-93006541D01*
X195843859Y-93062474D01*
X195812883Y-93079389D01*
X195681469Y-93128403D01*
X195681464Y-93128406D01*
X195566255Y-93214652D01*
X195566252Y-93214655D01*
X195480006Y-93329864D01*
X195480002Y-93329871D01*
X195429708Y-93464717D01*
X195423301Y-93524316D01*
X195423301Y-93524323D01*
X195423300Y-93524335D01*
X195423300Y-93697700D01*
X195403615Y-93764739D01*
X195350811Y-93810494D01*
X195299300Y-93821700D01*
X192632297Y-93821700D01*
X192565258Y-93802015D01*
X192544616Y-93785381D01*
X186418066Y-87658831D01*
X186384581Y-87597508D01*
X186389565Y-87527816D01*
X186431437Y-87471883D01*
X186496901Y-87447466D01*
X186520694Y-87448484D01*
X186521200Y-87448053D01*
X186521200Y-86525818D01*
X186571646Y-86576264D01*
X186645755Y-86619051D01*
X186728413Y-86641200D01*
X186813987Y-86641200D01*
X186896645Y-86619051D01*
X186970754Y-86576264D01*
X187021200Y-86525818D01*
X187021200Y-87448053D01*
X187023863Y-87447631D01*
X187185394Y-87395146D01*
X187336722Y-87318040D01*
X187474114Y-87218220D01*
X187474119Y-87218216D01*
X187594216Y-87098119D01*
X187594220Y-87098114D01*
X187694040Y-86960722D01*
X187771146Y-86809396D01*
X187823631Y-86647866D01*
X187850200Y-86480118D01*
X187850200Y-86066200D01*
X187096200Y-86066200D01*
X187096200Y-85566200D01*
X187850200Y-85566200D01*
X187850200Y-85152280D01*
X187842252Y-85102097D01*
X187851207Y-85032804D01*
X187896203Y-84979352D01*
X187962955Y-84958713D01*
X187964725Y-84958700D01*
X188949703Y-84958700D01*
X189016742Y-84978385D01*
G37*
%TD.AperFunction*%
%TA.AperFunction,Conductor*%
G36*
X180212713Y-80410985D02*
G01*
X180258468Y-80463789D01*
X180268412Y-80532947D01*
X180239387Y-80596503D01*
X180219986Y-80614566D01*
X180194009Y-80634012D01*
X180107849Y-80749106D01*
X180107845Y-80749113D01*
X180057603Y-80883820D01*
X180057601Y-80883827D01*
X180051200Y-80943355D01*
X180051200Y-81741200D01*
X182051200Y-81741200D01*
X182051200Y-80943372D01*
X182051199Y-80943355D01*
X182044798Y-80883827D01*
X182044796Y-80883820D01*
X181994554Y-80749113D01*
X181994550Y-80749106D01*
X181908390Y-80634012D01*
X181882414Y-80614566D01*
X181840544Y-80558632D01*
X181835560Y-80488940D01*
X181869046Y-80427617D01*
X181930370Y-80394133D01*
X181956726Y-80391300D01*
X182945674Y-80391300D01*
X183012713Y-80410985D01*
X183058468Y-80463789D01*
X183068412Y-80532947D01*
X183039387Y-80596503D01*
X183019986Y-80614566D01*
X182994009Y-80634012D01*
X182907849Y-80749106D01*
X182907845Y-80749113D01*
X182857603Y-80883820D01*
X182857601Y-80883827D01*
X182851200Y-80943355D01*
X182851200Y-81741200D01*
X184851200Y-81741200D01*
X184851200Y-80943372D01*
X184851199Y-80943355D01*
X184844798Y-80883827D01*
X184844796Y-80883820D01*
X184794554Y-80749113D01*
X184794550Y-80749106D01*
X184708390Y-80634012D01*
X184682414Y-80614566D01*
X184640544Y-80558632D01*
X184635560Y-80488940D01*
X184669046Y-80427617D01*
X184730370Y-80394133D01*
X184756726Y-80391300D01*
X185916103Y-80391300D01*
X185983142Y-80410985D01*
X186028897Y-80463789D01*
X186038841Y-80532947D01*
X186009816Y-80596503D01*
X186003784Y-80602981D01*
X185932167Y-80674597D01*
X185830395Y-80814675D01*
X185751791Y-80968942D01*
X185698285Y-81133615D01*
X185671200Y-81304628D01*
X185671200Y-81741200D01*
X186446200Y-81741200D01*
X186446200Y-82241200D01*
X185671200Y-82241200D01*
X185671200Y-82677771D01*
X185698285Y-82848784D01*
X185751791Y-83013457D01*
X185830395Y-83167724D01*
X185932167Y-83307802D01*
X186054597Y-83430232D01*
X186196571Y-83533381D01*
X186239237Y-83588711D01*
X186245216Y-83658324D01*
X186212611Y-83720120D01*
X186151772Y-83754477D01*
X186123686Y-83757700D01*
X178778714Y-83757700D01*
X178711675Y-83738015D01*
X178665920Y-83685211D01*
X178655976Y-83616053D01*
X178685001Y-83552497D01*
X178705829Y-83533381D01*
X178847802Y-83430232D01*
X178970232Y-83307802D01*
X179072004Y-83167724D01*
X179137571Y-83039044D01*
X180051200Y-83039044D01*
X180057601Y-83098572D01*
X180057603Y-83098579D01*
X180107845Y-83233286D01*
X180107849Y-83233293D01*
X180194009Y-83348387D01*
X180194012Y-83348390D01*
X180309106Y-83434550D01*
X180309113Y-83434554D01*
X180443820Y-83484796D01*
X180443827Y-83484798D01*
X180503355Y-83491199D01*
X180503372Y-83491200D01*
X180801200Y-83491200D01*
X181301200Y-83491200D01*
X181599028Y-83491200D01*
X181599044Y-83491199D01*
X181658572Y-83484798D01*
X181658579Y-83484796D01*
X181793286Y-83434554D01*
X181793293Y-83434550D01*
X181908387Y-83348390D01*
X181908390Y-83348387D01*
X181994550Y-83233293D01*
X181994554Y-83233286D01*
X182044796Y-83098579D01*
X182044798Y-83098572D01*
X182051199Y-83039044D01*
X182851200Y-83039044D01*
X182857601Y-83098572D01*
X182857603Y-83098579D01*
X182907845Y-83233286D01*
X182907849Y-83233293D01*
X182994009Y-83348387D01*
X182994012Y-83348390D01*
X183109106Y-83434550D01*
X183109113Y-83434554D01*
X183243820Y-83484796D01*
X183243827Y-83484798D01*
X183303355Y-83491199D01*
X183303372Y-83491200D01*
X183601200Y-83491200D01*
X184101200Y-83491200D01*
X184399028Y-83491200D01*
X184399044Y-83491199D01*
X184458572Y-83484798D01*
X184458579Y-83484796D01*
X184593286Y-83434554D01*
X184593293Y-83434550D01*
X184708387Y-83348390D01*
X184708390Y-83348387D01*
X184794550Y-83233293D01*
X184794554Y-83233286D01*
X184844796Y-83098579D01*
X184844798Y-83098572D01*
X184851199Y-83039044D01*
X184851200Y-83039027D01*
X184851200Y-82241200D01*
X184101200Y-82241200D01*
X184101200Y-83491200D01*
X183601200Y-83491200D01*
X183601200Y-82241200D01*
X182851200Y-82241200D01*
X182851200Y-83039044D01*
X182051199Y-83039044D01*
X182051200Y-83039027D01*
X182051200Y-82241200D01*
X181301200Y-82241200D01*
X181301200Y-83491200D01*
X180801200Y-83491200D01*
X180801200Y-82241200D01*
X180051200Y-82241200D01*
X180051200Y-83039044D01*
X179137571Y-83039044D01*
X179150608Y-83013457D01*
X179204114Y-82848784D01*
X179231200Y-82677771D01*
X179231200Y-82241200D01*
X178456200Y-82241200D01*
X178456200Y-81741200D01*
X179231200Y-81741200D01*
X179231200Y-81304628D01*
X179204114Y-81133615D01*
X179150608Y-80968942D01*
X179072004Y-80814675D01*
X178970232Y-80674597D01*
X178898616Y-80602981D01*
X178865131Y-80541658D01*
X178870115Y-80471966D01*
X178911987Y-80416033D01*
X178977451Y-80391616D01*
X178986297Y-80391300D01*
X180145674Y-80391300D01*
X180212713Y-80410985D01*
G37*
%TD.AperFunction*%
%TD*%
M02*
