%TF.GenerationSoftware,KiCad,Pcbnew,8.0.8*%
%TF.CreationDate,2025-02-27T22:53:53-05:00*%
%TF.ProjectId,Power_Supply_Board,506f7765-725f-4537-9570-706c795f426f,rev?*%
%TF.SameCoordinates,Original*%
%TF.FileFunction,Copper,L2,Bot*%
%TF.FilePolarity,Positive*%
%FSLAX46Y46*%
G04 Gerber Fmt 4.6, Leading zero omitted, Abs format (unit mm)*
G04 Created by KiCad (PCBNEW 8.0.8) date 2025-02-27 22:53:53*
%MOMM*%
%LPD*%
G01*
G04 APERTURE LIST*
%TA.AperFunction,ComponentPad*%
%ADD10C,1.600000*%
%TD*%
%TA.AperFunction,ComponentPad*%
%ADD11O,1.600000X1.600000*%
%TD*%
%TA.AperFunction,ComponentPad*%
%ADD12R,1.160000X1.160000*%
%TD*%
%TA.AperFunction,ComponentPad*%
%ADD13C,1.160000*%
%TD*%
%TA.AperFunction,ComponentPad*%
%ADD14C,2.200000*%
%TD*%
%TA.AperFunction,ComponentPad*%
%ADD15R,1.700000X1.700000*%
%TD*%
%TA.AperFunction,ComponentPad*%
%ADD16O,1.700000X1.700000*%
%TD*%
%TA.AperFunction,ComponentPad*%
%ADD17O,1.158000X2.316000*%
%TD*%
%TA.AperFunction,ComponentPad*%
%ADD18O,1.200000X2.400000*%
%TD*%
%TA.AperFunction,Conductor*%
%ADD19C,0.200000*%
%TD*%
G04 APERTURE END LIST*
D10*
%TO.P,C2,1*%
%TO.N,Net-(IC1-VOUT)*%
X167045000Y-93097200D03*
%TO.P,C2,2*%
%TO.N,Earth*%
X172045000Y-93097200D03*
%TD*%
%TO.P,R1,1*%
%TO.N,Net-(IC1-VOUT)*%
X162102800Y-94970600D03*
D11*
%TO.P,R1,2*%
%TO.N,Net-(J2-Pin_2)*%
X162102800Y-84810600D03*
%TD*%
D12*
%TO.P,IC1,1,BOOST*%
%TO.N,unconnected-(IC1-BOOST-Pad1)*%
X187380000Y-100000000D03*
D13*
%TO.P,IC1,2,CAP+*%
%TO.N,Net-(IC1-CAP+)*%
X187380000Y-102540000D03*
%TO.P,IC1,3,GND*%
%TO.N,Earth*%
X187380000Y-105080000D03*
%TO.P,IC1,4,CAP-*%
%TO.N,Net-(IC1-CAP-)*%
X187380000Y-107620000D03*
%TO.P,IC1,5,VOUT*%
%TO.N,Net-(IC1-VOUT)*%
X195000000Y-107620000D03*
%TO.P,IC1,6,LOW_VOLTAGE_(LV)*%
%TO.N,unconnected-(IC1-LOW_VOLTAGE_(LV)-Pad6)*%
X195000000Y-105080000D03*
%TO.P,IC1,7,OSC*%
%TO.N,unconnected-(IC1-OSC-Pad7)*%
X195000000Y-102540000D03*
%TO.P,IC1,8,V+*%
%TO.N,Net-(IC1-V+)*%
X195000000Y-100000000D03*
%TD*%
D14*
%TO.P,C3,1*%
%TO.N,Net-(J2-Pin_2)*%
X162025000Y-104000000D03*
%TO.P,C3,2*%
%TO.N,Earth*%
X177025000Y-104000000D03*
%TD*%
D15*
%TO.P,J2,1,Pin_1*%
%TO.N,Net-(IC1-V+)*%
X196773800Y-94422200D03*
D16*
%TO.P,J2,2,Pin_2*%
%TO.N,Net-(J2-Pin_2)*%
X196773800Y-91882200D03*
%TO.P,J2,3,Pin_3*%
%TO.N,Earth*%
X196773800Y-89342200D03*
%TD*%
D10*
%TO.P,C1,1*%
%TO.N,Net-(IC1-CAP+)*%
X167045000Y-85547200D03*
%TO.P,C1,2*%
%TO.N,Net-(IC1-CAP-)*%
X172045000Y-85547200D03*
%TD*%
D17*
%TO.P,J1,S3,SHIELD*%
%TO.N,Earth*%
X186771200Y-85816200D03*
%TO.P,J1,S4,SHIELD*%
X178131200Y-85816200D03*
D18*
%TO.P,J1,S5,SHIELD*%
X186771200Y-81991200D03*
%TO.P,J1,S6,SHIELD*%
X178131200Y-81991200D03*
%TD*%
D19*
%TO.N,Net-(IC1-CAP-)*%
X187380000Y-107620000D02*
X187380000Y-106799757D01*
X187380000Y-106799757D02*
X172045000Y-91464757D01*
X172045000Y-91464757D02*
X172045000Y-85547200D01*
%TO.N,Net-(J2-Pin_2)*%
X162025000Y-104000000D02*
X162025000Y-103093000D01*
%TD*%
%TA.AperFunction,Conductor*%
%TO.N,Earth*%
G36*
X177343142Y-80410985D02*
G01*
X177388897Y-80463789D01*
X177398841Y-80532947D01*
X177369816Y-80596503D01*
X177363784Y-80602981D01*
X177292167Y-80674597D01*
X177190395Y-80814675D01*
X177111791Y-80968942D01*
X177058285Y-81133615D01*
X177031200Y-81304628D01*
X177031200Y-81741200D01*
X177806200Y-81741200D01*
X177806200Y-82241200D01*
X177031200Y-82241200D01*
X177031200Y-82677771D01*
X177058285Y-82848784D01*
X177111791Y-83013457D01*
X177190395Y-83167724D01*
X177292167Y-83307802D01*
X177414597Y-83430232D01*
X177554675Y-83532004D01*
X177708944Y-83610608D01*
X177873615Y-83664114D01*
X177873614Y-83664114D01*
X177881199Y-83665315D01*
X177881200Y-83665314D01*
X177881200Y-82850818D01*
X177931646Y-82901264D01*
X178005755Y-82944051D01*
X178088413Y-82966200D01*
X178173987Y-82966200D01*
X178256645Y-82944051D01*
X178330754Y-82901264D01*
X178381200Y-82850818D01*
X178381200Y-83665315D01*
X178388784Y-83664114D01*
X178553455Y-83610608D01*
X178707724Y-83532004D01*
X178847802Y-83430232D01*
X178970232Y-83307802D01*
X179072004Y-83167724D01*
X179150608Y-83013457D01*
X179204114Y-82848784D01*
X179231200Y-82677771D01*
X179231200Y-82241200D01*
X178456200Y-82241200D01*
X178456200Y-81741200D01*
X179231200Y-81741200D01*
X179231200Y-81304628D01*
X179204114Y-81133615D01*
X179150608Y-80968942D01*
X179072004Y-80814675D01*
X178970232Y-80674597D01*
X178898616Y-80602981D01*
X178865131Y-80541658D01*
X178870115Y-80471966D01*
X178911987Y-80416033D01*
X178977451Y-80391616D01*
X178986297Y-80391300D01*
X185916103Y-80391300D01*
X185983142Y-80410985D01*
X186028897Y-80463789D01*
X186038841Y-80532947D01*
X186009816Y-80596503D01*
X186003784Y-80602981D01*
X185932167Y-80674597D01*
X185830395Y-80814675D01*
X185751791Y-80968942D01*
X185698285Y-81133615D01*
X185671200Y-81304628D01*
X185671200Y-81741200D01*
X186446200Y-81741200D01*
X186446200Y-82241200D01*
X185671200Y-82241200D01*
X185671200Y-82677771D01*
X185698285Y-82848784D01*
X185751791Y-83013457D01*
X185830395Y-83167724D01*
X185932167Y-83307802D01*
X186054597Y-83430232D01*
X186194675Y-83532004D01*
X186348944Y-83610608D01*
X186513615Y-83664114D01*
X186513614Y-83664114D01*
X186521199Y-83665315D01*
X186521200Y-83665314D01*
X186521200Y-82850818D01*
X186571646Y-82901264D01*
X186645755Y-82944051D01*
X186728413Y-82966200D01*
X186813987Y-82966200D01*
X186896645Y-82944051D01*
X186970754Y-82901264D01*
X187021200Y-82850818D01*
X187021200Y-83665315D01*
X187028784Y-83664114D01*
X187193455Y-83610608D01*
X187347724Y-83532004D01*
X187487802Y-83430232D01*
X187610232Y-83307802D01*
X187712004Y-83167724D01*
X187790608Y-83013457D01*
X187844114Y-82848784D01*
X187871200Y-82677771D01*
X187871200Y-82241200D01*
X187096200Y-82241200D01*
X187096200Y-81741200D01*
X187871200Y-81741200D01*
X187871200Y-81304628D01*
X187844114Y-81133615D01*
X187790608Y-80968942D01*
X187712004Y-80814675D01*
X187610232Y-80674597D01*
X187538616Y-80602981D01*
X187505131Y-80541658D01*
X187510115Y-80471966D01*
X187551987Y-80416033D01*
X187617451Y-80391616D01*
X187626297Y-80391300D01*
X199875500Y-80391300D01*
X199942539Y-80410985D01*
X199988294Y-80463789D01*
X199999500Y-80515300D01*
X199999500Y-114125500D01*
X199979815Y-114192539D01*
X199927011Y-114238294D01*
X199875500Y-114249500D01*
X158624500Y-114249500D01*
X158557461Y-114229815D01*
X158511706Y-114177011D01*
X158500500Y-114125500D01*
X158500500Y-104000000D01*
X160419551Y-104000000D01*
X160439317Y-104251151D01*
X160498126Y-104496110D01*
X160594533Y-104728859D01*
X160726160Y-104943653D01*
X160726161Y-104943656D01*
X160726164Y-104943659D01*
X160889776Y-105135224D01*
X161032096Y-105256777D01*
X161081343Y-105298838D01*
X161081346Y-105298839D01*
X161296140Y-105430466D01*
X161527737Y-105526396D01*
X161528889Y-105526873D01*
X161773852Y-105585683D01*
X162025000Y-105605449D01*
X162276148Y-105585683D01*
X162521111Y-105526873D01*
X162753859Y-105430466D01*
X162968659Y-105298836D01*
X163160224Y-105135224D01*
X163323836Y-104943659D01*
X163455466Y-104728859D01*
X163551873Y-104496111D01*
X163610683Y-104251148D01*
X163630449Y-104000000D01*
X175420052Y-104000000D01*
X175439812Y-104251072D01*
X175498603Y-104495956D01*
X175594980Y-104728631D01*
X175726568Y-104943362D01*
X175727266Y-104944179D01*
X176501212Y-104170233D01*
X176512482Y-104212292D01*
X176584890Y-104337708D01*
X176687292Y-104440110D01*
X176812708Y-104512518D01*
X176854765Y-104523787D01*
X176080819Y-105297732D01*
X176080819Y-105297733D01*
X176081634Y-105298429D01*
X176296368Y-105430019D01*
X176529043Y-105526396D01*
X176773927Y-105585187D01*
X177025000Y-105604947D01*
X177276072Y-105585187D01*
X177520956Y-105526396D01*
X177753631Y-105430019D01*
X177968361Y-105298432D01*
X177968363Y-105298430D01*
X177969180Y-105297732D01*
X177195234Y-104523787D01*
X177237292Y-104512518D01*
X177362708Y-104440110D01*
X177465110Y-104337708D01*
X177537518Y-104212292D01*
X177548787Y-104170235D01*
X178322732Y-104944180D01*
X178323430Y-104943363D01*
X178323432Y-104943361D01*
X178455019Y-104728631D01*
X178551396Y-104495956D01*
X178610187Y-104251072D01*
X178629947Y-104000000D01*
X178610187Y-103748927D01*
X178551396Y-103504043D01*
X178455019Y-103271368D01*
X178323429Y-103056634D01*
X178322733Y-103055819D01*
X178322732Y-103055819D01*
X177548787Y-103829764D01*
X177537518Y-103787708D01*
X177465110Y-103662292D01*
X177362708Y-103559890D01*
X177237292Y-103487482D01*
X177195232Y-103476212D01*
X177969179Y-102702266D01*
X177968362Y-102701568D01*
X177753631Y-102569980D01*
X177520956Y-102473603D01*
X177276072Y-102414812D01*
X177025000Y-102395052D01*
X176773927Y-102414812D01*
X176529043Y-102473603D01*
X176296368Y-102569980D01*
X176081637Y-102701567D01*
X176080818Y-102702266D01*
X176854765Y-103476212D01*
X176812708Y-103487482D01*
X176687292Y-103559890D01*
X176584890Y-103662292D01*
X176512482Y-103787708D01*
X176501212Y-103829765D01*
X175727266Y-103055818D01*
X175726567Y-103056637D01*
X175594980Y-103271368D01*
X175498603Y-103504043D01*
X175439812Y-103748927D01*
X175420052Y-104000000D01*
X163630449Y-104000000D01*
X163610683Y-103748852D01*
X163551873Y-103503889D01*
X163511306Y-103405952D01*
X163455466Y-103271140D01*
X163324017Y-103056637D01*
X163323838Y-103056345D01*
X163323838Y-103056343D01*
X163217642Y-102932004D01*
X163160224Y-102864776D01*
X163033571Y-102756604D01*
X162968656Y-102701161D01*
X162968653Y-102701160D01*
X162753859Y-102569533D01*
X162521110Y-102473126D01*
X162276151Y-102414317D01*
X162025000Y-102394551D01*
X161773848Y-102414317D01*
X161528889Y-102473126D01*
X161296140Y-102569533D01*
X161081346Y-102701160D01*
X161081343Y-102701161D01*
X160889776Y-102864776D01*
X160726161Y-103056343D01*
X160726160Y-103056346D01*
X160594533Y-103271140D01*
X160498126Y-103503889D01*
X160439317Y-103748848D01*
X160419551Y-104000000D01*
X158500500Y-104000000D01*
X158500500Y-94970598D01*
X160797332Y-94970598D01*
X160797332Y-94970601D01*
X160817164Y-95197286D01*
X160817166Y-95197297D01*
X160876058Y-95417088D01*
X160876061Y-95417097D01*
X160972231Y-95623332D01*
X160972232Y-95623334D01*
X161102754Y-95809741D01*
X161263658Y-95970645D01*
X161263661Y-95970647D01*
X161450066Y-96101168D01*
X161656304Y-96197339D01*
X161876108Y-96256235D01*
X162038030Y-96270401D01*
X162102798Y-96276068D01*
X162102800Y-96276068D01*
X162102802Y-96276068D01*
X162159473Y-96271109D01*
X162329492Y-96256235D01*
X162549296Y-96197339D01*
X162755534Y-96101168D01*
X162941939Y-95970647D01*
X163102847Y-95809739D01*
X163233368Y-95623334D01*
X163329539Y-95417096D01*
X163388435Y-95197292D01*
X163408268Y-94970600D01*
X163388435Y-94743908D01*
X163329539Y-94524104D01*
X163233368Y-94317866D01*
X163102847Y-94131461D01*
X163102845Y-94131458D01*
X162941941Y-93970554D01*
X162755534Y-93840032D01*
X162755532Y-93840031D01*
X162549297Y-93743861D01*
X162549288Y-93743858D01*
X162329497Y-93684966D01*
X162329493Y-93684965D01*
X162329492Y-93684965D01*
X162329491Y-93684964D01*
X162329486Y-93684964D01*
X162102802Y-93665132D01*
X162102798Y-93665132D01*
X161876113Y-93684964D01*
X161876102Y-93684966D01*
X161656311Y-93743858D01*
X161656302Y-93743861D01*
X161450067Y-93840031D01*
X161450065Y-93840032D01*
X161263658Y-93970554D01*
X161102754Y-94131458D01*
X160972232Y-94317865D01*
X160972231Y-94317867D01*
X160876061Y-94524102D01*
X160876058Y-94524111D01*
X160817166Y-94743902D01*
X160817164Y-94743913D01*
X160797332Y-94970598D01*
X158500500Y-94970598D01*
X158500500Y-93097198D01*
X165739532Y-93097198D01*
X165739532Y-93097201D01*
X165759364Y-93323886D01*
X165759366Y-93323897D01*
X165818258Y-93543688D01*
X165818261Y-93543697D01*
X165914431Y-93749932D01*
X165914432Y-93749934D01*
X166044954Y-93936341D01*
X166205858Y-94097245D01*
X166205861Y-94097247D01*
X166392266Y-94227768D01*
X166598504Y-94323939D01*
X166818308Y-94382835D01*
X166980230Y-94397001D01*
X167044998Y-94402668D01*
X167045000Y-94402668D01*
X167045002Y-94402668D01*
X167101673Y-94397709D01*
X167271692Y-94382835D01*
X167491496Y-94323939D01*
X167697734Y-94227768D01*
X167884139Y-94097247D01*
X168045047Y-93936339D01*
X168175568Y-93749934D01*
X168271739Y-93543696D01*
X168330635Y-93323892D01*
X168350468Y-93097200D01*
X168345246Y-93037518D01*
X168336439Y-92936849D01*
X168330635Y-92870508D01*
X168271739Y-92650704D01*
X168175568Y-92444466D01*
X168045047Y-92258061D01*
X168045045Y-92258058D01*
X167884141Y-92097154D01*
X167697734Y-91966632D01*
X167697732Y-91966631D01*
X167491497Y-91870461D01*
X167491488Y-91870458D01*
X167271697Y-91811566D01*
X167271693Y-91811565D01*
X167271692Y-91811565D01*
X167271691Y-91811564D01*
X167271686Y-91811564D01*
X167045002Y-91791732D01*
X167044998Y-91791732D01*
X166818313Y-91811564D01*
X166818302Y-91811566D01*
X166598511Y-91870458D01*
X166598502Y-91870461D01*
X166392267Y-91966631D01*
X166392265Y-91966632D01*
X166205858Y-92097154D01*
X166044954Y-92258058D01*
X165914432Y-92444465D01*
X165914431Y-92444467D01*
X165818261Y-92650702D01*
X165818258Y-92650711D01*
X165759366Y-92870502D01*
X165759364Y-92870513D01*
X165739532Y-93097198D01*
X158500500Y-93097198D01*
X158500500Y-84810598D01*
X160797332Y-84810598D01*
X160797332Y-84810601D01*
X160817164Y-85037286D01*
X160817166Y-85037297D01*
X160876058Y-85257088D01*
X160876061Y-85257097D01*
X160972231Y-85463332D01*
X160972232Y-85463334D01*
X161102754Y-85649741D01*
X161263658Y-85810645D01*
X161263661Y-85810647D01*
X161450066Y-85941168D01*
X161656304Y-86037339D01*
X161876108Y-86096235D01*
X162038030Y-86110401D01*
X162102798Y-86116068D01*
X162102800Y-86116068D01*
X162102802Y-86116068D01*
X162159473Y-86111109D01*
X162329492Y-86096235D01*
X162549296Y-86037339D01*
X162755534Y-85941168D01*
X162941939Y-85810647D01*
X163102847Y-85649739D01*
X163174646Y-85547198D01*
X165739532Y-85547198D01*
X165739532Y-85547201D01*
X165759364Y-85773886D01*
X165759366Y-85773897D01*
X165818258Y-85993688D01*
X165818261Y-85993697D01*
X165914431Y-86199932D01*
X165914432Y-86199934D01*
X166044954Y-86386341D01*
X166205858Y-86547245D01*
X166205861Y-86547247D01*
X166392266Y-86677768D01*
X166598504Y-86773939D01*
X166818308Y-86832835D01*
X166980230Y-86847001D01*
X167044998Y-86852668D01*
X167045000Y-86852668D01*
X167045002Y-86852668D01*
X167101673Y-86847709D01*
X167271692Y-86832835D01*
X167491496Y-86773939D01*
X167697734Y-86677768D01*
X167884139Y-86547247D01*
X168045047Y-86386339D01*
X168175568Y-86199934D01*
X168271739Y-85993696D01*
X168330635Y-85773892D01*
X168350468Y-85547200D01*
X168350468Y-85547198D01*
X170739532Y-85547198D01*
X170739532Y-85547201D01*
X170759364Y-85773886D01*
X170759366Y-85773897D01*
X170818258Y-85993688D01*
X170818261Y-85993697D01*
X170914431Y-86199932D01*
X170914432Y-86199934D01*
X171044954Y-86386341D01*
X171205858Y-86547245D01*
X171205861Y-86547247D01*
X171391624Y-86677318D01*
X171435248Y-86731893D01*
X171444500Y-86778892D01*
X171444500Y-91378087D01*
X171444499Y-91378105D01*
X171444499Y-91543811D01*
X171444498Y-91543811D01*
X171485423Y-91696542D01*
X171514358Y-91746657D01*
X171514359Y-91746662D01*
X171514360Y-91746662D01*
X171521113Y-91758359D01*
X171537584Y-91826259D01*
X171514731Y-91892286D01*
X171466131Y-91932739D01*
X171392513Y-91967068D01*
X171392512Y-91967068D01*
X171319526Y-92018173D01*
X171319526Y-92018174D01*
X171998554Y-92697200D01*
X171992339Y-92697200D01*
X171890606Y-92724459D01*
X171799394Y-92777120D01*
X171724920Y-92851594D01*
X171672259Y-92942806D01*
X171645000Y-93044539D01*
X171645000Y-93050752D01*
X170965974Y-92371726D01*
X170965973Y-92371726D01*
X170914868Y-92444712D01*
X170914866Y-92444716D01*
X170818734Y-92650873D01*
X170818730Y-92650882D01*
X170759860Y-92870589D01*
X170759858Y-92870600D01*
X170740034Y-93097197D01*
X170740034Y-93097202D01*
X170759858Y-93323799D01*
X170759860Y-93323810D01*
X170818730Y-93543517D01*
X170818735Y-93543531D01*
X170914863Y-93749678D01*
X170965974Y-93822672D01*
X171645000Y-93143646D01*
X171645000Y-93149861D01*
X171672259Y-93251594D01*
X171724920Y-93342806D01*
X171799394Y-93417280D01*
X171890606Y-93469941D01*
X171992339Y-93497200D01*
X171998553Y-93497200D01*
X171319526Y-94176225D01*
X171392513Y-94227332D01*
X171392521Y-94227336D01*
X171598668Y-94323464D01*
X171598682Y-94323469D01*
X171818389Y-94382339D01*
X171818400Y-94382341D01*
X172044998Y-94402166D01*
X172045002Y-94402166D01*
X172271599Y-94382341D01*
X172271610Y-94382339D01*
X172491317Y-94323469D01*
X172491331Y-94323464D01*
X172697478Y-94227336D01*
X172770471Y-94176224D01*
X172091447Y-93497200D01*
X172097661Y-93497200D01*
X172199394Y-93469941D01*
X172290606Y-93417280D01*
X172365080Y-93342806D01*
X172417741Y-93251594D01*
X172445000Y-93149861D01*
X172445000Y-93143646D01*
X173124024Y-93822671D01*
X173175135Y-93749680D01*
X173197463Y-93701797D01*
X173243635Y-93649357D01*
X173310828Y-93630204D01*
X173377710Y-93650419D01*
X173397527Y-93666519D01*
X186519800Y-106788792D01*
X186553285Y-106850115D01*
X186548301Y-106919807D01*
X186531073Y-106951199D01*
X186457410Y-107048744D01*
X186457401Y-107048758D01*
X186368151Y-107227995D01*
X186368145Y-107228010D01*
X186313347Y-107420606D01*
X186313346Y-107420608D01*
X186294871Y-107619999D01*
X186294871Y-107620000D01*
X186313346Y-107819391D01*
X186313347Y-107819393D01*
X186368145Y-108011989D01*
X186368151Y-108012004D01*
X186457401Y-108191241D01*
X186457406Y-108191249D01*
X186578081Y-108351049D01*
X186705386Y-108467102D01*
X186726064Y-108485952D01*
X186896316Y-108591368D01*
X187083040Y-108663705D01*
X187279877Y-108700500D01*
X187279879Y-108700500D01*
X187480121Y-108700500D01*
X187480123Y-108700500D01*
X187676960Y-108663705D01*
X187863684Y-108591368D01*
X188033936Y-108485952D01*
X188181920Y-108351047D01*
X188302595Y-108191247D01*
X188391853Y-108011994D01*
X188446653Y-107819392D01*
X188465129Y-107620000D01*
X188465129Y-107619999D01*
X193914871Y-107619999D01*
X193914871Y-107620000D01*
X193933346Y-107819391D01*
X193933347Y-107819393D01*
X193988145Y-108011989D01*
X193988151Y-108012004D01*
X194077401Y-108191241D01*
X194077406Y-108191249D01*
X194198081Y-108351049D01*
X194325386Y-108467102D01*
X194346064Y-108485952D01*
X194516316Y-108591368D01*
X194703040Y-108663705D01*
X194899877Y-108700500D01*
X194899879Y-108700500D01*
X195100121Y-108700500D01*
X195100123Y-108700500D01*
X195296960Y-108663705D01*
X195483684Y-108591368D01*
X195653936Y-108485952D01*
X195801920Y-108351047D01*
X195922595Y-108191247D01*
X196011853Y-108011994D01*
X196066653Y-107819392D01*
X196085129Y-107620000D01*
X196066653Y-107420608D01*
X196011853Y-107228006D01*
X196011848Y-107227995D01*
X195922598Y-107048758D01*
X195922593Y-107048750D01*
X195801918Y-106888950D01*
X195653937Y-106754049D01*
X195653936Y-106754048D01*
X195558332Y-106694852D01*
X195483685Y-106648632D01*
X195483683Y-106648631D01*
X195347152Y-106595739D01*
X195296960Y-106576295D01*
X195100123Y-106539500D01*
X194899877Y-106539500D01*
X194703040Y-106576295D01*
X194703037Y-106576295D01*
X194703037Y-106576296D01*
X194516316Y-106648631D01*
X194516314Y-106648632D01*
X194346062Y-106754049D01*
X194198081Y-106888950D01*
X194077406Y-107048750D01*
X194077401Y-107048758D01*
X193988151Y-107227995D01*
X193988145Y-107228010D01*
X193933347Y-107420606D01*
X193933346Y-107420608D01*
X193914871Y-107619999D01*
X188465129Y-107619999D01*
X188446653Y-107420608D01*
X188391853Y-107228006D01*
X188391848Y-107227995D01*
X188302598Y-107048758D01*
X188302593Y-107048750D01*
X188181918Y-106888950D01*
X188033938Y-106754049D01*
X188022361Y-106746881D01*
X187975727Y-106694852D01*
X187967868Y-106673556D01*
X187939577Y-106567972D01*
X187910639Y-106517852D01*
X187860520Y-106431041D01*
X187748716Y-106319237D01*
X187748715Y-106319236D01*
X187744385Y-106314906D01*
X187744374Y-106314896D01*
X187721921Y-106292443D01*
X187688436Y-106231120D01*
X187693420Y-106161428D01*
X187735292Y-106105495D01*
X187764809Y-106089135D01*
X187863456Y-106050919D01*
X187863463Y-106050916D01*
X187946158Y-105999712D01*
X187946158Y-105999711D01*
X187406446Y-105460000D01*
X187430028Y-105460000D01*
X187526675Y-105434104D01*
X187613325Y-105384076D01*
X187684076Y-105313325D01*
X187734104Y-105226675D01*
X187760000Y-105130028D01*
X187760000Y-105106447D01*
X188302954Y-105649401D01*
X188302955Y-105649401D01*
X188391383Y-105471815D01*
X188446159Y-105279295D01*
X188464627Y-105080000D01*
X188464627Y-105079999D01*
X193914871Y-105079999D01*
X193914871Y-105080000D01*
X193933346Y-105279391D01*
X193933347Y-105279393D01*
X193988145Y-105471989D01*
X193988151Y-105472004D01*
X194077401Y-105651241D01*
X194077406Y-105651249D01*
X194198081Y-105811049D01*
X194325386Y-105927102D01*
X194346064Y-105945952D01*
X194432889Y-105999712D01*
X194515590Y-106050919D01*
X194516316Y-106051368D01*
X194703040Y-106123705D01*
X194899877Y-106160500D01*
X194899879Y-106160500D01*
X195100121Y-106160500D01*
X195100123Y-106160500D01*
X195296960Y-106123705D01*
X195483684Y-106051368D01*
X195653936Y-105945952D01*
X195801920Y-105811047D01*
X195922595Y-105651247D01*
X196011853Y-105471994D01*
X196066653Y-105279392D01*
X196085129Y-105080000D01*
X196066653Y-104880608D01*
X196011853Y-104688006D01*
X195923513Y-104510596D01*
X195922598Y-104508758D01*
X195922593Y-104508750D01*
X195801918Y-104348950D01*
X195653937Y-104214049D01*
X195653936Y-104214048D01*
X195589101Y-104173903D01*
X195483685Y-104108632D01*
X195483683Y-104108631D01*
X195298209Y-104036779D01*
X195296960Y-104036295D01*
X195100123Y-103999500D01*
X194899877Y-103999500D01*
X194703040Y-104036295D01*
X194703037Y-104036295D01*
X194703037Y-104036296D01*
X194516316Y-104108631D01*
X194516314Y-104108632D01*
X194346062Y-104214049D01*
X194198081Y-104348950D01*
X194077406Y-104508750D01*
X194077401Y-104508758D01*
X193988151Y-104687995D01*
X193988145Y-104688010D01*
X193933347Y-104880606D01*
X193933346Y-104880608D01*
X193914871Y-105079999D01*
X188464627Y-105079999D01*
X188446159Y-104880704D01*
X188391383Y-104688184D01*
X188302955Y-104510596D01*
X187760000Y-105053551D01*
X187760000Y-105029972D01*
X187734104Y-104933325D01*
X187684076Y-104846675D01*
X187613325Y-104775924D01*
X187526675Y-104725896D01*
X187430028Y-104700000D01*
X187406447Y-104700000D01*
X187946159Y-104160287D01*
X187863458Y-104109081D01*
X187863457Y-104109080D01*
X187676824Y-104036779D01*
X187480075Y-104000000D01*
X187279925Y-104000000D01*
X187083175Y-104036779D01*
X186896543Y-104109080D01*
X186813839Y-104160287D01*
X187353554Y-104700000D01*
X187329972Y-104700000D01*
X187233325Y-104725896D01*
X187146675Y-104775924D01*
X187075924Y-104846675D01*
X187025896Y-104933325D01*
X187000000Y-105029972D01*
X187000000Y-105053553D01*
X186457044Y-104510596D01*
X186457043Y-104510596D01*
X186368615Y-104688185D01*
X186367282Y-104691627D01*
X186366203Y-104693030D01*
X186366059Y-104693320D01*
X186366002Y-104693291D01*
X186324703Y-104747023D01*
X186258934Y-104770606D01*
X186190855Y-104754888D01*
X186163979Y-104734501D01*
X183969477Y-102539999D01*
X186294871Y-102539999D01*
X186294871Y-102540000D01*
X186313346Y-102739391D01*
X186313347Y-102739393D01*
X186368145Y-102931989D01*
X186368151Y-102932004D01*
X186457401Y-103111241D01*
X186457406Y-103111249D01*
X186578081Y-103271049D01*
X186705386Y-103387102D01*
X186726064Y-103405952D01*
X186797204Y-103450000D01*
X186884485Y-103504043D01*
X186896316Y-103511368D01*
X187083040Y-103583705D01*
X187279877Y-103620500D01*
X187279879Y-103620500D01*
X187480121Y-103620500D01*
X187480123Y-103620500D01*
X187676960Y-103583705D01*
X187863684Y-103511368D01*
X188033936Y-103405952D01*
X188181920Y-103271047D01*
X188302595Y-103111247D01*
X188391853Y-102931994D01*
X188446653Y-102739392D01*
X188465129Y-102540000D01*
X188465129Y-102539999D01*
X193914871Y-102539999D01*
X193914871Y-102540000D01*
X193933346Y-102739391D01*
X193933347Y-102739393D01*
X193988145Y-102931989D01*
X193988151Y-102932004D01*
X194077401Y-103111241D01*
X194077406Y-103111249D01*
X194198081Y-103271049D01*
X194325386Y-103387102D01*
X194346064Y-103405952D01*
X194417204Y-103450000D01*
X194504485Y-103504043D01*
X194516316Y-103511368D01*
X194703040Y-103583705D01*
X194899877Y-103620500D01*
X194899879Y-103620500D01*
X195100121Y-103620500D01*
X195100123Y-103620500D01*
X195296960Y-103583705D01*
X195483684Y-103511368D01*
X195653936Y-103405952D01*
X195801920Y-103271047D01*
X195922595Y-103111247D01*
X196011853Y-102931994D01*
X196066653Y-102739392D01*
X196085129Y-102540000D01*
X196066653Y-102340608D01*
X196011853Y-102148006D01*
X196011848Y-102147995D01*
X195922598Y-101968758D01*
X195922593Y-101968750D01*
X195801918Y-101808950D01*
X195653937Y-101674049D01*
X195653936Y-101674048D01*
X195589101Y-101633903D01*
X195483685Y-101568632D01*
X195483683Y-101568631D01*
X195347152Y-101515739D01*
X195296960Y-101496295D01*
X195100123Y-101459500D01*
X194899877Y-101459500D01*
X194703040Y-101496295D01*
X194703037Y-101496295D01*
X194703037Y-101496296D01*
X194516316Y-101568631D01*
X194516314Y-101568632D01*
X194346062Y-101674049D01*
X194198081Y-101808950D01*
X194077406Y-101968750D01*
X194077401Y-101968758D01*
X193988151Y-102147995D01*
X193988145Y-102148010D01*
X193933347Y-102340606D01*
X193933346Y-102340608D01*
X193914871Y-102539999D01*
X188465129Y-102539999D01*
X188446653Y-102340608D01*
X188391853Y-102148006D01*
X188391848Y-102147995D01*
X188302598Y-101968758D01*
X188302593Y-101968750D01*
X188181918Y-101808950D01*
X188033937Y-101674049D01*
X188033936Y-101674048D01*
X187969101Y-101633903D01*
X187863685Y-101568632D01*
X187863683Y-101568631D01*
X187727152Y-101515739D01*
X187676960Y-101496295D01*
X187480123Y-101459500D01*
X187279877Y-101459500D01*
X187083040Y-101496295D01*
X187083037Y-101496295D01*
X187083037Y-101496296D01*
X186896316Y-101568631D01*
X186896314Y-101568632D01*
X186726062Y-101674049D01*
X186578081Y-101808950D01*
X186457406Y-101968750D01*
X186457401Y-101968758D01*
X186368151Y-102147995D01*
X186368145Y-102148010D01*
X186313347Y-102340606D01*
X186313346Y-102340608D01*
X186294871Y-102539999D01*
X183969477Y-102539999D01*
X180801613Y-99372135D01*
X186299500Y-99372135D01*
X186299500Y-100627870D01*
X186299501Y-100627876D01*
X186305908Y-100687483D01*
X186356202Y-100822328D01*
X186356206Y-100822335D01*
X186442452Y-100937544D01*
X186442455Y-100937547D01*
X186557664Y-101023793D01*
X186557671Y-101023797D01*
X186692517Y-101074091D01*
X186692516Y-101074091D01*
X186699444Y-101074835D01*
X186752127Y-101080500D01*
X188007872Y-101080499D01*
X188067483Y-101074091D01*
X188202331Y-101023796D01*
X188317546Y-100937546D01*
X188403796Y-100822331D01*
X188454091Y-100687483D01*
X188460500Y-100627873D01*
X188460499Y-99999999D01*
X193914871Y-99999999D01*
X193914871Y-100000000D01*
X193933346Y-100199391D01*
X193933347Y-100199393D01*
X193988145Y-100391989D01*
X193988151Y-100392004D01*
X194077401Y-100571241D01*
X194077406Y-100571249D01*
X194198081Y-100731049D01*
X194298214Y-100822331D01*
X194346064Y-100865952D01*
X194516316Y-100971368D01*
X194703040Y-101043705D01*
X194899877Y-101080500D01*
X194899879Y-101080500D01*
X195100121Y-101080500D01*
X195100123Y-101080500D01*
X195296960Y-101043705D01*
X195483684Y-100971368D01*
X195653936Y-100865952D01*
X195801920Y-100731047D01*
X195922595Y-100571247D01*
X196011853Y-100391994D01*
X196066653Y-100199392D01*
X196085129Y-100000000D01*
X196066653Y-99800608D01*
X196011853Y-99608006D01*
X196011848Y-99607995D01*
X195922598Y-99428758D01*
X195922593Y-99428750D01*
X195801918Y-99268950D01*
X195653937Y-99134049D01*
X195653936Y-99134048D01*
X195538310Y-99062455D01*
X195483685Y-99028632D01*
X195483683Y-99028631D01*
X195347152Y-98975739D01*
X195296960Y-98956295D01*
X195100123Y-98919500D01*
X194899877Y-98919500D01*
X194703040Y-98956295D01*
X194703037Y-98956295D01*
X194703037Y-98956296D01*
X194516316Y-99028631D01*
X194516314Y-99028632D01*
X194346062Y-99134049D01*
X194198081Y-99268950D01*
X194077406Y-99428750D01*
X194077401Y-99428758D01*
X193988151Y-99607995D01*
X193988145Y-99608010D01*
X193933347Y-99800606D01*
X193933346Y-99800608D01*
X193914871Y-99999999D01*
X188460499Y-99999999D01*
X188460499Y-99372128D01*
X188454091Y-99312517D01*
X188403796Y-99177669D01*
X188403795Y-99177668D01*
X188403793Y-99177664D01*
X188317547Y-99062455D01*
X188317544Y-99062452D01*
X188202335Y-98976206D01*
X188202328Y-98976202D01*
X188067482Y-98925908D01*
X188067483Y-98925908D01*
X188007883Y-98919501D01*
X188007881Y-98919500D01*
X188007873Y-98919500D01*
X188007864Y-98919500D01*
X186752129Y-98919500D01*
X186752123Y-98919501D01*
X186692516Y-98925908D01*
X186557671Y-98976202D01*
X186557664Y-98976206D01*
X186442455Y-99062452D01*
X186442452Y-99062455D01*
X186356206Y-99177664D01*
X186356202Y-99177671D01*
X186305908Y-99312517D01*
X186299501Y-99372116D01*
X186299501Y-99372123D01*
X186299500Y-99372135D01*
X180801613Y-99372135D01*
X173311677Y-91882199D01*
X195418141Y-91882199D01*
X195418141Y-91882200D01*
X195438736Y-92117603D01*
X195438738Y-92117613D01*
X195499894Y-92345855D01*
X195499896Y-92345859D01*
X195499897Y-92345863D01*
X195545877Y-92444467D01*
X195599765Y-92560030D01*
X195599767Y-92560034D01*
X195708081Y-92714721D01*
X195735301Y-92753596D01*
X195735306Y-92753602D01*
X195857230Y-92875526D01*
X195890715Y-92936849D01*
X195885731Y-93006541D01*
X195843859Y-93062474D01*
X195812883Y-93079389D01*
X195681469Y-93128403D01*
X195681464Y-93128406D01*
X195566255Y-93214652D01*
X195566252Y-93214655D01*
X195480006Y-93329864D01*
X195480002Y-93329871D01*
X195429708Y-93464717D01*
X195423301Y-93524316D01*
X195423301Y-93524323D01*
X195423300Y-93524335D01*
X195423300Y-95320070D01*
X195423301Y-95320076D01*
X195429708Y-95379683D01*
X195480002Y-95514528D01*
X195480006Y-95514535D01*
X195566252Y-95629744D01*
X195566255Y-95629747D01*
X195681464Y-95715993D01*
X195681471Y-95715997D01*
X195816317Y-95766291D01*
X195816316Y-95766291D01*
X195823244Y-95767035D01*
X195875927Y-95772700D01*
X197671672Y-95772699D01*
X197731283Y-95766291D01*
X197866131Y-95715996D01*
X197981346Y-95629746D01*
X198067596Y-95514531D01*
X198117891Y-95379683D01*
X198124300Y-95320073D01*
X198124299Y-93524328D01*
X198117891Y-93464717D01*
X198067596Y-93329869D01*
X198067595Y-93329868D01*
X198067593Y-93329864D01*
X197981347Y-93214655D01*
X197981344Y-93214652D01*
X197866135Y-93128406D01*
X197866128Y-93128402D01*
X197734717Y-93079389D01*
X197678783Y-93037518D01*
X197654366Y-92972053D01*
X197669218Y-92903780D01*
X197690363Y-92875532D01*
X197812295Y-92753601D01*
X197947835Y-92560030D01*
X198047703Y-92345863D01*
X198108863Y-92117608D01*
X198129459Y-91882200D01*
X198108863Y-91646792D01*
X198047703Y-91418537D01*
X197947835Y-91204371D01*
X197938486Y-91191018D01*
X197812294Y-91010797D01*
X197645202Y-90843706D01*
X197645201Y-90843705D01*
X197459205Y-90713469D01*
X197415581Y-90658892D01*
X197408388Y-90589393D01*
X197439910Y-90527039D01*
X197459205Y-90510319D01*
X197644882Y-90380305D01*
X197811905Y-90213282D01*
X197947400Y-90019778D01*
X198047229Y-89805692D01*
X198047232Y-89805686D01*
X198104436Y-89592200D01*
X197206812Y-89592200D01*
X197239725Y-89535193D01*
X197273800Y-89408026D01*
X197273800Y-89276374D01*
X197239725Y-89149207D01*
X197206812Y-89092200D01*
X198104436Y-89092200D01*
X198104435Y-89092199D01*
X198047232Y-88878713D01*
X198047229Y-88878707D01*
X197947400Y-88664622D01*
X197947399Y-88664620D01*
X197811913Y-88471126D01*
X197811908Y-88471120D01*
X197644882Y-88304094D01*
X197451378Y-88168599D01*
X197237292Y-88068770D01*
X197237286Y-88068767D01*
X197023800Y-88011564D01*
X197023800Y-88909188D01*
X196966793Y-88876275D01*
X196839626Y-88842200D01*
X196707974Y-88842200D01*
X196580807Y-88876275D01*
X196523800Y-88909188D01*
X196523800Y-88011564D01*
X196523799Y-88011564D01*
X196310313Y-88068767D01*
X196310307Y-88068770D01*
X196096222Y-88168599D01*
X196096220Y-88168600D01*
X195902726Y-88304086D01*
X195902720Y-88304091D01*
X195735691Y-88471120D01*
X195735686Y-88471126D01*
X195600200Y-88664620D01*
X195600199Y-88664622D01*
X195500370Y-88878707D01*
X195500367Y-88878713D01*
X195443164Y-89092199D01*
X195443164Y-89092200D01*
X196340788Y-89092200D01*
X196307875Y-89149207D01*
X196273800Y-89276374D01*
X196273800Y-89408026D01*
X196307875Y-89535193D01*
X196340788Y-89592200D01*
X195443164Y-89592200D01*
X195500367Y-89805686D01*
X195500370Y-89805692D01*
X195600199Y-90019778D01*
X195735694Y-90213282D01*
X195902717Y-90380305D01*
X196088395Y-90510319D01*
X196132019Y-90564896D01*
X196139212Y-90634395D01*
X196107690Y-90696749D01*
X196088395Y-90713469D01*
X195902394Y-90843708D01*
X195735305Y-91010797D01*
X195599765Y-91204369D01*
X195599764Y-91204371D01*
X195499898Y-91418535D01*
X195499894Y-91418544D01*
X195438738Y-91646786D01*
X195438736Y-91646796D01*
X195418141Y-91882199D01*
X173311677Y-91882199D01*
X172681819Y-91252341D01*
X172648334Y-91191018D01*
X172645500Y-91164660D01*
X172645500Y-86778892D01*
X172665185Y-86711853D01*
X172698374Y-86677319D01*
X172884139Y-86547247D01*
X173045047Y-86386339D01*
X173175568Y-86199934D01*
X173271739Y-85993696D01*
X173330635Y-85773892D01*
X173350468Y-85547200D01*
X173349112Y-85531706D01*
X173340146Y-85429217D01*
X173330635Y-85320508D01*
X173285559Y-85152281D01*
X177052200Y-85152281D01*
X177052200Y-85566200D01*
X177806200Y-85566200D01*
X177806200Y-86066200D01*
X177052200Y-86066200D01*
X177052200Y-86480118D01*
X177078768Y-86647866D01*
X177131253Y-86809396D01*
X177208359Y-86960722D01*
X177308179Y-87098114D01*
X177308183Y-87098119D01*
X177428280Y-87218216D01*
X177428285Y-87218220D01*
X177565677Y-87318040D01*
X177717005Y-87395146D01*
X177878536Y-87447631D01*
X177881200Y-87448053D01*
X177881200Y-86525818D01*
X177931646Y-86576264D01*
X178005755Y-86619051D01*
X178088413Y-86641200D01*
X178173987Y-86641200D01*
X178256645Y-86619051D01*
X178330754Y-86576264D01*
X178381200Y-86525818D01*
X178381200Y-87448053D01*
X178383863Y-87447631D01*
X178545394Y-87395146D01*
X178696722Y-87318040D01*
X178834114Y-87218220D01*
X178834119Y-87218216D01*
X178954216Y-87098119D01*
X178954220Y-87098114D01*
X179054040Y-86960722D01*
X179131146Y-86809396D01*
X179183631Y-86647866D01*
X179210200Y-86480118D01*
X179210200Y-86066200D01*
X178456200Y-86066200D01*
X178456200Y-85566200D01*
X179139699Y-85566200D01*
X179201698Y-85582812D01*
X179238715Y-85604184D01*
X179378725Y-85641700D01*
X179378728Y-85641700D01*
X179523672Y-85641700D01*
X179523675Y-85641700D01*
X179663685Y-85604184D01*
X179789215Y-85531709D01*
X179891709Y-85429215D01*
X179964184Y-85303685D01*
X180001700Y-85163675D01*
X180001700Y-85018725D01*
X180001171Y-85016750D01*
X184885700Y-85016750D01*
X184885700Y-85165650D01*
X184910201Y-85257088D01*
X184924238Y-85309476D01*
X184924239Y-85309477D01*
X184998684Y-85438421D01*
X184998686Y-85438424D01*
X184998687Y-85438425D01*
X185103975Y-85543713D01*
X185103976Y-85543714D01*
X185103978Y-85543715D01*
X185110016Y-85547201D01*
X185232925Y-85618162D01*
X185376750Y-85656700D01*
X185376753Y-85656700D01*
X185525647Y-85656700D01*
X185525650Y-85656700D01*
X185669475Y-85618162D01*
X185730701Y-85582812D01*
X185792701Y-85566200D01*
X186446200Y-85566200D01*
X186446200Y-86066200D01*
X185692200Y-86066200D01*
X185692200Y-86480118D01*
X185718768Y-86647866D01*
X185771253Y-86809396D01*
X185848359Y-86960722D01*
X185948179Y-87098114D01*
X185948183Y-87098119D01*
X186068280Y-87218216D01*
X186068285Y-87218220D01*
X186205677Y-87318040D01*
X186357005Y-87395146D01*
X186518536Y-87447631D01*
X186521200Y-87448053D01*
X186521200Y-86525818D01*
X186571646Y-86576264D01*
X186645755Y-86619051D01*
X186728413Y-86641200D01*
X186813987Y-86641200D01*
X186896645Y-86619051D01*
X186970754Y-86576264D01*
X187021200Y-86525818D01*
X187021200Y-87448052D01*
X187023863Y-87447631D01*
X187185394Y-87395146D01*
X187336722Y-87318040D01*
X187474114Y-87218220D01*
X187474119Y-87218216D01*
X187594216Y-87098119D01*
X187594220Y-87098114D01*
X187694040Y-86960722D01*
X187771146Y-86809396D01*
X187823631Y-86647866D01*
X187850200Y-86480118D01*
X187850200Y-86066200D01*
X187096200Y-86066200D01*
X187096200Y-85566200D01*
X187850200Y-85566200D01*
X187850200Y-85152281D01*
X187823631Y-84984533D01*
X187771146Y-84823003D01*
X187694040Y-84671677D01*
X187594220Y-84534285D01*
X187594216Y-84534280D01*
X187474119Y-84414183D01*
X187474114Y-84414179D01*
X187336722Y-84314359D01*
X187185394Y-84237253D01*
X187023866Y-84184769D01*
X187021200Y-84184345D01*
X187021200Y-85106582D01*
X186970754Y-85056136D01*
X186896645Y-85013349D01*
X186813987Y-84991200D01*
X186728413Y-84991200D01*
X186645755Y-85013349D01*
X186571646Y-85056136D01*
X186521200Y-85106582D01*
X186521200Y-84184345D01*
X186521199Y-84184345D01*
X186518533Y-84184769D01*
X186357005Y-84237253D01*
X186205677Y-84314359D01*
X186068285Y-84414179D01*
X186068280Y-84414183D01*
X185948181Y-84534282D01*
X185916113Y-84578420D01*
X185860782Y-84621085D01*
X185791169Y-84627063D01*
X185753797Y-84612921D01*
X185669475Y-84564238D01*
X185669476Y-84564238D01*
X185633518Y-84554603D01*
X185525650Y-84525700D01*
X185376750Y-84525700D01*
X185296687Y-84547153D01*
X185232923Y-84564238D01*
X185232922Y-84564239D01*
X185103978Y-84638684D01*
X185103973Y-84638688D01*
X184998688Y-84743973D01*
X184998684Y-84743978D01*
X184924239Y-84872922D01*
X184924238Y-84872923D01*
X184904969Y-84944837D01*
X184885700Y-85016750D01*
X180001171Y-85016750D01*
X179964184Y-84878715D01*
X179960839Y-84872922D01*
X179891711Y-84753188D01*
X179891706Y-84753182D01*
X179789217Y-84650693D01*
X179789211Y-84650688D01*
X179663688Y-84578217D01*
X179663689Y-84578217D01*
X179652206Y-84575140D01*
X179523675Y-84540700D01*
X179378725Y-84540700D01*
X179250193Y-84575140D01*
X179238711Y-84578217D01*
X179157468Y-84625123D01*
X179089567Y-84641596D01*
X179023541Y-84618743D01*
X178995149Y-84590620D01*
X178954218Y-84534282D01*
X178834119Y-84414183D01*
X178834114Y-84414179D01*
X178696722Y-84314359D01*
X178545394Y-84237253D01*
X178383866Y-84184769D01*
X178381200Y-84184345D01*
X178381200Y-85106582D01*
X178330754Y-85056136D01*
X178256645Y-85013349D01*
X178173987Y-84991200D01*
X178088413Y-84991200D01*
X178005755Y-85013349D01*
X177931646Y-85056136D01*
X177881200Y-85106582D01*
X177881200Y-84184345D01*
X177881199Y-84184345D01*
X177878533Y-84184769D01*
X177717005Y-84237253D01*
X177565677Y-84314359D01*
X177428285Y-84414179D01*
X177428280Y-84414183D01*
X177308183Y-84534280D01*
X177308179Y-84534285D01*
X177208359Y-84671677D01*
X177131253Y-84823003D01*
X177078768Y-84984533D01*
X177052200Y-85152281D01*
X173285559Y-85152281D01*
X173271739Y-85100704D01*
X173175568Y-84894466D01*
X173045047Y-84708061D01*
X173045045Y-84708058D01*
X172884141Y-84547154D01*
X172697734Y-84416632D01*
X172697732Y-84416631D01*
X172491497Y-84320461D01*
X172491488Y-84320458D01*
X172271697Y-84261566D01*
X172271693Y-84261565D01*
X172271692Y-84261565D01*
X172271691Y-84261564D01*
X172271686Y-84261564D01*
X172045002Y-84241732D01*
X172044998Y-84241732D01*
X171818313Y-84261564D01*
X171818302Y-84261566D01*
X171598511Y-84320458D01*
X171598502Y-84320461D01*
X171392267Y-84416631D01*
X171392265Y-84416632D01*
X171205858Y-84547154D01*
X171044954Y-84708058D01*
X170914432Y-84894465D01*
X170914431Y-84894467D01*
X170818261Y-85100702D01*
X170818258Y-85100711D01*
X170759366Y-85320502D01*
X170759364Y-85320513D01*
X170739532Y-85547198D01*
X168350468Y-85547198D01*
X168349112Y-85531706D01*
X168340146Y-85429217D01*
X168330635Y-85320508D01*
X168271739Y-85100704D01*
X168175568Y-84894466D01*
X168045047Y-84708061D01*
X168045045Y-84708058D01*
X167884141Y-84547154D01*
X167697734Y-84416632D01*
X167697732Y-84416631D01*
X167491497Y-84320461D01*
X167491488Y-84320458D01*
X167271697Y-84261566D01*
X167271693Y-84261565D01*
X167271692Y-84261565D01*
X167271691Y-84261564D01*
X167271686Y-84261564D01*
X167045002Y-84241732D01*
X167044998Y-84241732D01*
X166818313Y-84261564D01*
X166818302Y-84261566D01*
X166598511Y-84320458D01*
X166598502Y-84320461D01*
X166392267Y-84416631D01*
X166392265Y-84416632D01*
X166205858Y-84547154D01*
X166044954Y-84708058D01*
X165914432Y-84894465D01*
X165914431Y-84894467D01*
X165818261Y-85100702D01*
X165818258Y-85100711D01*
X165759366Y-85320502D01*
X165759364Y-85320513D01*
X165739532Y-85547198D01*
X163174646Y-85547198D01*
X163233368Y-85463334D01*
X163329539Y-85257096D01*
X163388435Y-85037292D01*
X163408268Y-84810600D01*
X163388435Y-84583908D01*
X163329539Y-84364104D01*
X163233368Y-84157866D01*
X163102847Y-83971461D01*
X163102845Y-83971458D01*
X162941941Y-83810554D01*
X162755534Y-83680032D01*
X162755532Y-83680031D01*
X162549297Y-83583861D01*
X162549288Y-83583858D01*
X162329497Y-83524966D01*
X162329493Y-83524965D01*
X162329492Y-83524965D01*
X162329491Y-83524964D01*
X162329486Y-83524964D01*
X162102802Y-83505132D01*
X162102798Y-83505132D01*
X161876113Y-83524964D01*
X161876102Y-83524966D01*
X161656311Y-83583858D01*
X161656302Y-83583861D01*
X161450067Y-83680031D01*
X161450065Y-83680032D01*
X161263658Y-83810554D01*
X161102754Y-83971458D01*
X160972232Y-84157865D01*
X160972231Y-84157867D01*
X160876061Y-84364102D01*
X160876058Y-84364111D01*
X160817166Y-84583902D01*
X160817164Y-84583913D01*
X160797332Y-84810598D01*
X158500500Y-84810598D01*
X158500500Y-80515300D01*
X158520185Y-80448261D01*
X158572989Y-80402506D01*
X158624500Y-80391300D01*
X177276103Y-80391300D01*
X177343142Y-80410985D01*
G37*
%TD.AperFunction*%
%TD*%
M02*
