%TF.GenerationSoftware,KiCad,Pcbnew,8.0.8*%
%TF.CreationDate,2025-02-27T22:53:54-05:00*%
%TF.ProjectId,Power_Supply_Board,506f7765-725f-4537-9570-706c795f426f,rev?*%
%TF.SameCoordinates,Original*%
%TF.FileFunction,Legend,Top*%
%TF.FilePolarity,Positive*%
%FSLAX46Y46*%
G04 Gerber Fmt 4.6, Leading zero omitted, Abs format (unit mm)*
G04 Created by KiCad (PCBNEW 8.0.8) date 2025-02-27 22:53:54*
%MOMM*%
%LPD*%
G01*
G04 APERTURE LIST*
%ADD10C,0.150000*%
%ADD11C,0.254000*%
%ADD12C,0.120000*%
%ADD13C,0.200000*%
G04 APERTURE END LIST*
D10*
X169378333Y-93456780D02*
X169330714Y-93504400D01*
X169330714Y-93504400D02*
X169187857Y-93552019D01*
X169187857Y-93552019D02*
X169092619Y-93552019D01*
X169092619Y-93552019D02*
X168949762Y-93504400D01*
X168949762Y-93504400D02*
X168854524Y-93409161D01*
X168854524Y-93409161D02*
X168806905Y-93313923D01*
X168806905Y-93313923D02*
X168759286Y-93123447D01*
X168759286Y-93123447D02*
X168759286Y-92980590D01*
X168759286Y-92980590D02*
X168806905Y-92790114D01*
X168806905Y-92790114D02*
X168854524Y-92694876D01*
X168854524Y-92694876D02*
X168949762Y-92599638D01*
X168949762Y-92599638D02*
X169092619Y-92552019D01*
X169092619Y-92552019D02*
X169187857Y-92552019D01*
X169187857Y-92552019D02*
X169330714Y-92599638D01*
X169330714Y-92599638D02*
X169378333Y-92647257D01*
X169759286Y-92647257D02*
X169806905Y-92599638D01*
X169806905Y-92599638D02*
X169902143Y-92552019D01*
X169902143Y-92552019D02*
X170140238Y-92552019D01*
X170140238Y-92552019D02*
X170235476Y-92599638D01*
X170235476Y-92599638D02*
X170283095Y-92647257D01*
X170283095Y-92647257D02*
X170330714Y-92742495D01*
X170330714Y-92742495D02*
X170330714Y-92837733D01*
X170330714Y-92837733D02*
X170283095Y-92980590D01*
X170283095Y-92980590D02*
X169711667Y-93552019D01*
X169711667Y-93552019D02*
X170330714Y-93552019D01*
X162557619Y-90057266D02*
X162081428Y-90390599D01*
X162557619Y-90628694D02*
X161557619Y-90628694D01*
X161557619Y-90628694D02*
X161557619Y-90247742D01*
X161557619Y-90247742D02*
X161605238Y-90152504D01*
X161605238Y-90152504D02*
X161652857Y-90104885D01*
X161652857Y-90104885D02*
X161748095Y-90057266D01*
X161748095Y-90057266D02*
X161890952Y-90057266D01*
X161890952Y-90057266D02*
X161986190Y-90104885D01*
X161986190Y-90104885D02*
X162033809Y-90152504D01*
X162033809Y-90152504D02*
X162081428Y-90247742D01*
X162081428Y-90247742D02*
X162081428Y-90628694D01*
X162557619Y-89104885D02*
X162557619Y-89676313D01*
X162557619Y-89390599D02*
X161557619Y-89390599D01*
X161557619Y-89390599D02*
X161700476Y-89485837D01*
X161700476Y-89485837D02*
X161795714Y-89581075D01*
X161795714Y-89581075D02*
X161843333Y-89676313D01*
D11*
X189950237Y-104384318D02*
X189950237Y-103114318D01*
X191280714Y-104263365D02*
X191220238Y-104323842D01*
X191220238Y-104323842D02*
X191038809Y-104384318D01*
X191038809Y-104384318D02*
X190917857Y-104384318D01*
X190917857Y-104384318D02*
X190736428Y-104323842D01*
X190736428Y-104323842D02*
X190615476Y-104202889D01*
X190615476Y-104202889D02*
X190554999Y-104081937D01*
X190554999Y-104081937D02*
X190494523Y-103840032D01*
X190494523Y-103840032D02*
X190494523Y-103658603D01*
X190494523Y-103658603D02*
X190554999Y-103416699D01*
X190554999Y-103416699D02*
X190615476Y-103295746D01*
X190615476Y-103295746D02*
X190736428Y-103174794D01*
X190736428Y-103174794D02*
X190917857Y-103114318D01*
X190917857Y-103114318D02*
X191038809Y-103114318D01*
X191038809Y-103114318D02*
X191220238Y-103174794D01*
X191220238Y-103174794D02*
X191280714Y-103235270D01*
X192490238Y-104384318D02*
X191764523Y-104384318D01*
X192127380Y-104384318D02*
X192127380Y-103114318D01*
X192127380Y-103114318D02*
X192006428Y-103295746D01*
X192006428Y-103295746D02*
X191885476Y-103416699D01*
X191885476Y-103416699D02*
X191764523Y-103477175D01*
D10*
X169358333Y-104359580D02*
X169310714Y-104407200D01*
X169310714Y-104407200D02*
X169167857Y-104454819D01*
X169167857Y-104454819D02*
X169072619Y-104454819D01*
X169072619Y-104454819D02*
X168929762Y-104407200D01*
X168929762Y-104407200D02*
X168834524Y-104311961D01*
X168834524Y-104311961D02*
X168786905Y-104216723D01*
X168786905Y-104216723D02*
X168739286Y-104026247D01*
X168739286Y-104026247D02*
X168739286Y-103883390D01*
X168739286Y-103883390D02*
X168786905Y-103692914D01*
X168786905Y-103692914D02*
X168834524Y-103597676D01*
X168834524Y-103597676D02*
X168929762Y-103502438D01*
X168929762Y-103502438D02*
X169072619Y-103454819D01*
X169072619Y-103454819D02*
X169167857Y-103454819D01*
X169167857Y-103454819D02*
X169310714Y-103502438D01*
X169310714Y-103502438D02*
X169358333Y-103550057D01*
X169691667Y-103454819D02*
X170310714Y-103454819D01*
X170310714Y-103454819D02*
X169977381Y-103835771D01*
X169977381Y-103835771D02*
X170120238Y-103835771D01*
X170120238Y-103835771D02*
X170215476Y-103883390D01*
X170215476Y-103883390D02*
X170263095Y-103931009D01*
X170263095Y-103931009D02*
X170310714Y-104026247D01*
X170310714Y-104026247D02*
X170310714Y-104264342D01*
X170310714Y-104264342D02*
X170263095Y-104359580D01*
X170263095Y-104359580D02*
X170215476Y-104407200D01*
X170215476Y-104407200D02*
X170120238Y-104454819D01*
X170120238Y-104454819D02*
X169834524Y-104454819D01*
X169834524Y-104454819D02*
X169739286Y-104407200D01*
X169739286Y-104407200D02*
X169691667Y-104359580D01*
X169378333Y-85906780D02*
X169330714Y-85954400D01*
X169330714Y-85954400D02*
X169187857Y-86002019D01*
X169187857Y-86002019D02*
X169092619Y-86002019D01*
X169092619Y-86002019D02*
X168949762Y-85954400D01*
X168949762Y-85954400D02*
X168854524Y-85859161D01*
X168854524Y-85859161D02*
X168806905Y-85763923D01*
X168806905Y-85763923D02*
X168759286Y-85573447D01*
X168759286Y-85573447D02*
X168759286Y-85430590D01*
X168759286Y-85430590D02*
X168806905Y-85240114D01*
X168806905Y-85240114D02*
X168854524Y-85144876D01*
X168854524Y-85144876D02*
X168949762Y-85049638D01*
X168949762Y-85049638D02*
X169092619Y-85002019D01*
X169092619Y-85002019D02*
X169187857Y-85002019D01*
X169187857Y-85002019D02*
X169330714Y-85049638D01*
X169330714Y-85049638D02*
X169378333Y-85097257D01*
X170330714Y-86002019D02*
X169759286Y-86002019D01*
X170045000Y-86002019D02*
X170045000Y-85002019D01*
X170045000Y-85002019D02*
X169949762Y-85144876D01*
X169949762Y-85144876D02*
X169854524Y-85240114D01*
X169854524Y-85240114D02*
X169759286Y-85287733D01*
D12*
%TO.C,C2*%
X165925000Y-89977200D02*
X165925000Y-96217200D01*
X165925000Y-89977200D02*
X173165000Y-89977200D01*
X165925000Y-96217200D02*
X173165000Y-96217200D01*
X173165000Y-89977200D02*
X173165000Y-96217200D01*
%TO.C,R1*%
X160732800Y-86620600D02*
X160732800Y-93160600D01*
X160732800Y-93160600D02*
X163472800Y-93160600D01*
X162102800Y-85850600D02*
X162102800Y-86620600D01*
X162102800Y-93930600D02*
X162102800Y-93160600D01*
X163472800Y-86620600D02*
X160732800Y-86620600D01*
X163472800Y-93160600D02*
X163472800Y-86620600D01*
D13*
%TO.C,IC1*%
X186800000Y-98730000D02*
X194490000Y-98730000D01*
X187890000Y-108890000D02*
X194490000Y-108890000D01*
D12*
%TO.C,C3*%
X161155000Y-97980000D02*
X161155000Y-102896000D01*
X161155000Y-97980000D02*
X177895000Y-97980000D01*
X161155000Y-105104000D02*
X161155000Y-110020000D01*
X161155000Y-110020000D02*
X177895000Y-110020000D01*
X177895000Y-97980000D02*
X177895000Y-102896000D01*
X177895000Y-105104000D02*
X177895000Y-110020000D01*
%TO.C,J2*%
X195443800Y-93152200D02*
X195443800Y-88012200D01*
X198103800Y-88012200D02*
X195443800Y-88012200D01*
X198103800Y-93152200D02*
X195443800Y-93152200D01*
X198103800Y-93152200D02*
X198103800Y-88012200D01*
X198103800Y-94422200D02*
X198103800Y-95752200D01*
X198103800Y-95752200D02*
X196773800Y-95752200D01*
%TO.C,C1*%
X165925000Y-82427200D02*
X165925000Y-88667200D01*
X165925000Y-82427200D02*
X173165000Y-82427200D01*
X165925000Y-88667200D02*
X173165000Y-88667200D01*
X173165000Y-82427200D02*
X173165000Y-88667200D01*
D13*
%TO.C,J1*%
X186151200Y-87191200D02*
G75*
G02*
X185951200Y-87191200I-100000J0D01*
G01*
X185951200Y-87191200D02*
G75*
G02*
X186151200Y-87191200I100000J0D01*
G01*
%TD*%
M02*
