M48
; DRILL file {KiCad 8.0.8} date 2025-02-27T22:53:50-0500
; FORMAT={-:-/ absolute / inch / decimal}
; #@! TF.CreationDate,2025-02-27T22:53:50-05:00
; #@! TF.GenerationSoftware,Kicad,Pcbnew,8.0.8
; #@! TF.FileFunction,Plated,1,2,PTH
FMAT,2
INCH
; #@! TA.AperFunction,Plated,PTH,ComponentDrill
T1C0.0256
; #@! TA.AperFunction,Plated,PTH,ComponentDrill
T2C0.0299
; #@! TA.AperFunction,Plated,PTH,ComponentDrill
T3C0.0315
; #@! TA.AperFunction,Plated,PTH,ComponentDrill
T4C0.0394
; #@! TA.AperFunction,Plated,PTH,ComponentDrill
T5C0.0433
%
G90
G05
T2
X7.3772Y-3.937
X7.3772Y-4.037
X7.3772Y-4.137
X7.3772Y-4.237
X7.6772Y-3.937
X7.6772Y-4.037
X7.6772Y-4.137
X7.6772Y-4.237
T3
X6.382Y-3.339
X6.382Y-3.739
X6.5766Y-3.368
X6.5766Y-3.6652
X6.7734Y-3.368
X6.7734Y-3.6652
T4
X7.747Y-3.5174
X7.747Y-3.6174
X7.747Y-3.7174
T5
X6.3789Y-4.0945
X6.9695Y-4.0945
T1
G00X7.013Y-3.2536
M15
G01X7.013Y-3.2024
M16
G05
G00X7.013Y-3.3983
M15
G01X7.013Y-3.3589
M16
G05
G00X7.3532Y-3.2536
M15
G01X7.3532Y-3.2024
M16
G05
G00X7.3532Y-3.3983
M15
G01X7.3532Y-3.3589
M16
G05
M30
