%TF.GenerationSoftware,KiCad,Pcbnew,9.0.0-1.fc41*%
%TF.CreationDate,2025-03-24T11:14:24-04:00*%
%TF.ProjectId,Balanced Polarimeter,42616c61-6e63-4656-9420-506f6c617269,rev?*%
%TF.SameCoordinates,Original*%
%TF.FileFunction,Paste,Top*%
%TF.FilePolarity,Positive*%
%FSLAX46Y46*%
G04 Gerber Fmt 4.6, Leading zero omitted, Abs format (unit mm)*
G04 Created by KiCad (PCBNEW 9.0.0-1.fc41) date 2025-03-24 11:14:24*
%MOMM*%
%LPD*%
G01*
G04 APERTURE LIST*
G04 Aperture macros list*
%AMRoundRect*
0 Rectangle with rounded corners*
0 $1 Rounding radius*
0 $2 $3 $4 $5 $6 $7 $8 $9 X,Y pos of 4 corners*
0 Add a 4 corners polygon primitive as box body*
4,1,4,$2,$3,$4,$5,$6,$7,$8,$9,$2,$3,0*
0 Add four circle primitives for the rounded corners*
1,1,$1+$1,$2,$3*
1,1,$1+$1,$4,$5*
1,1,$1+$1,$6,$7*
1,1,$1+$1,$8,$9*
0 Add four rect primitives between the rounded corners*
20,1,$1+$1,$2,$3,$4,$5,0*
20,1,$1+$1,$4,$5,$6,$7,0*
20,1,$1+$1,$6,$7,$8,$9,0*
20,1,$1+$1,$8,$9,$2,$3,0*%
G04 Aperture macros list end*
%ADD10RoundRect,0.230000X-0.230000X-0.375000X0.230000X-0.375000X0.230000X0.375000X-0.230000X0.375000X0*%
%ADD11RoundRect,0.150000X-0.825000X-0.150000X0.825000X-0.150000X0.825000X0.150000X-0.825000X0.150000X0*%
%ADD12R,1.550000X0.650000*%
G04 APERTURE END LIST*
D10*
%TO.C,U1*%
X152000000Y-72500000D03*
X152000000Y-74000000D03*
X153140000Y-72500000D03*
X153140000Y-74000000D03*
D11*
X150095000Y-71345000D03*
X150095000Y-72615000D03*
X150095000Y-73885000D03*
X150095000Y-75155000D03*
X155045000Y-75155000D03*
X155045000Y-73885000D03*
X155045000Y-72615000D03*
X155045000Y-71345000D03*
%TD*%
D12*
%TO.C,Q2*%
X138550000Y-94226300D03*
X138550000Y-95496300D03*
X138550000Y-96766300D03*
X138550000Y-98036300D03*
X138550000Y-99306300D03*
X138550000Y-100576300D03*
X138550000Y-101846300D03*
X138550000Y-103116300D03*
X144000000Y-103116300D03*
X144000000Y-101846300D03*
X144000000Y-100576300D03*
X144000000Y-99306300D03*
X144000000Y-98036300D03*
X144000000Y-96766300D03*
X144000000Y-95496300D03*
X144000000Y-94226300D03*
%TD*%
D10*
%TO.C,U2*%
X152000000Y-95250000D03*
X152000000Y-96750000D03*
X153140000Y-95250000D03*
X153140000Y-96750000D03*
D11*
X150095000Y-94095000D03*
X150095000Y-95365000D03*
X150095000Y-96635000D03*
X150095000Y-97905000D03*
X155045000Y-97905000D03*
X155045000Y-96635000D03*
X155045000Y-95365000D03*
X155045000Y-94095000D03*
%TD*%
D12*
%TO.C,Q1*%
X138500000Y-66631300D03*
X138500000Y-67901300D03*
X138500000Y-69171300D03*
X138500000Y-70441300D03*
X138500000Y-71711300D03*
X138500000Y-72981300D03*
X138500000Y-74251300D03*
X138500000Y-75521300D03*
X143950000Y-75521300D03*
X143950000Y-74251300D03*
X143950000Y-72981300D03*
X143950000Y-71711300D03*
X143950000Y-70441300D03*
X143950000Y-69171300D03*
X143950000Y-67901300D03*
X143950000Y-66631300D03*
%TD*%
M02*
