M48
; DRILL file {KiCad 9.0.0-1.fc41} date 2025-03-24T11:14:22-0400
; FORMAT={-:-/ absolute / metric / decimal}
; #@! TF.CreationDate,2025-03-24T11:14:22-04:00
; #@! TF.GenerationSoftware,Kicad,Pcbnew,9.0.0-1.fc41
; #@! TF.FileFunction,Plated,1,2,PTH
FMAT,2
METRIC
; #@! TA.AperFunction,Plated,PTH,ViaDrill
T1C0.300
; #@! TA.AperFunction,Plated,PTH,ComponentDrill
T2C0.700
; #@! TA.AperFunction,Plated,PTH,ComponentDrill
T3C0.800
; #@! TA.AperFunction,Plated,PTH,ComponentDrill
T4C0.813
; #@! TA.AperFunction,Plated,PTH,ComponentDrill
T5C1.000
; #@! TA.AperFunction,Plated,PTH,ComponentDrill
T6C1.020
; #@! TA.AperFunction,Plated,PTH,ComponentDrill
T7C1.900
%
G90
G05
T1
X132.686Y-98.74
X136.5Y-91.0
X140.5Y-96.5
X143.5Y-92.5
X145.5Y-97.0
X145.82Y-75.624
X146.896Y-67.904
X148.0Y-72.5
X152.0Y-92.5
X153.0Y-76.5
X156.618Y-94.671
X156.743Y-72.316
X158.408Y-77.815
T2
X129.045Y-72.856
X130.315Y-71.586
X130.315Y-74.126
X130.5Y-95.671
X130.5Y-98.211
X131.77Y-96.941
T3
X132.0Y-79.92
X132.0Y-90.08
X136.889Y-81.5
X136.92Y-88.5
X147.049Y-81.5
X147.08Y-88.5
X149.84Y-88.5
X149.92Y-81.5
X160.0Y-88.5
X160.08Y-81.5
X163.5Y-73.42
X163.5Y-83.58
X163.5Y-88.091
X163.5Y-98.251
X168.0Y-67.0
X170.5Y-67.0
X170.5Y-73.249
X170.5Y-83.409
X175.795Y-67.0
X178.295Y-67.0
T4
X169.19Y-89.19
X169.19Y-96.81
X171.73Y-89.19
X171.73Y-96.81
X174.27Y-89.19
X174.27Y-96.81
X176.81Y-89.19
X176.81Y-96.81
T5
X149.96Y-65.0
X151.227Y-104.292
X152.5Y-65.0
X153.767Y-104.292
T6
X157.695Y-65.0
X160.235Y-65.0
X162.775Y-65.0
X175.062Y-76.5
T7
X182.862Y-72.7
X182.862Y-80.3
M30
