M48
; DRILL file {KiCad 8.0.8} date 2025-02-03T10:15:08-0500
; FORMAT={-:-/ absolute / inch / decimal}
; #@! TF.CreationDate,2025-02-03T10:15:08-05:00
; #@! TF.GenerationSoftware,Kicad,Pcbnew,8.0.8
; #@! TF.FileFunction,Plated,1,2,PTH
FMAT,2
INCH
; #@! TA.AperFunction,Plated,PTH,ViaDrill
T1C0.0118
; #@! TA.AperFunction,Plated,PTH,ComponentDrill
T2C0.0197
; #@! TA.AperFunction,Plated,PTH,ComponentDrill
T3C0.0276
; #@! TA.AperFunction,Plated,PTH,ComponentDrill
T4C0.0315
; #@! TA.AperFunction,Plated,PTH,ComponentDrill
T5C0.0320
; #@! TA.AperFunction,Plated,PTH,ComponentDrill
T6C0.0402
; #@! TA.AperFunction,Plated,PTH,ComponentDrill
T7C0.0748
%
G90
G05
T1
X5.3243Y-3.9686
X5.5576Y-3.9686
X5.615Y-3.9379
X5.6583Y-3.1772
X5.6743Y-3.6239
X5.791Y-2.8195
X5.7977Y-3.8501
X6.0243Y-3.7674
X6.141Y-3.5582
X6.141Y-3.7248
X6.1781Y-2.8423
X6.2577Y-3.8693
X6.6874Y-3.4968
T2
X6.811Y-3.3858
X6.811Y-3.4252
T3
X5.0805Y-2.8683
X5.1305Y-2.8183
X5.1305Y-2.9183
X5.1378Y-3.7666
X5.1378Y-3.8666
X5.1878Y-3.8166
T4
X5.1969Y-3.1465
X5.1969Y-3.5465
X5.3893Y-3.2087
X5.3906Y-3.4843
X5.7893Y-3.2087
X5.7906Y-3.4843
X5.8992Y-3.4843
X5.9024Y-3.2087
X6.2992Y-3.4843
X6.3024Y-3.2087
X6.437Y-2.8186
X6.437Y-3.2186
X6.437Y-3.4682
X6.437Y-3.8682
X6.7126Y-2.8118
X6.7126Y-3.2118
T5
X6.6664Y-3.6098
X6.6664Y-3.9098
X6.7664Y-3.6098
X6.7664Y-3.9098
X6.8664Y-3.6098
X6.8664Y-3.9098
X6.9664Y-3.6098
X6.9664Y-3.9098
T6
X6.8922Y-3.0118
T7
X7.1993Y-2.8622
X7.1993Y-3.1614
M30
