%TF.GenerationSoftware,KiCad,Pcbnew,9.0.0-1.fc41*%
%TF.CreationDate,2025-03-24T11:14:24-04:00*%
%TF.ProjectId,Balanced Polarimeter,42616c61-6e63-4656-9420-506f6c617269,rev?*%
%TF.SameCoordinates,Original*%
%TF.FileFunction,Copper,L2,Bot*%
%TF.FilePolarity,Positive*%
%FSLAX46Y46*%
G04 Gerber Fmt 4.6, Leading zero omitted, Abs format (unit mm)*
G04 Created by KiCad (PCBNEW 9.0.0-1.fc41) date 2025-03-24 11:14:24*
%MOMM*%
%LPD*%
G01*
G04 APERTURE LIST*
%TA.AperFunction,ComponentPad*%
%ADD10R,1.600000X1.600000*%
%TD*%
%TA.AperFunction,ComponentPad*%
%ADD11C,1.600000*%
%TD*%
%TA.AperFunction,ComponentPad*%
%ADD12O,1.600000X1.600000*%
%TD*%
%TA.AperFunction,ComponentPad*%
%ADD13R,1.700000X1.700000*%
%TD*%
%TA.AperFunction,ComponentPad*%
%ADD14O,1.700000X1.700000*%
%TD*%
%TA.AperFunction,ComponentPad*%
%ADD15C,2.800000*%
%TD*%
%TA.AperFunction,ComponentPad*%
%ADD16C,1.550000*%
%TD*%
%TA.AperFunction,ComponentPad*%
%ADD17O,1.200000X1.600000*%
%TD*%
%TA.AperFunction,ComponentPad*%
%ADD18C,1.200000*%
%TD*%
%TA.AperFunction,ComponentPad*%
%ADD19O,1.320800X2.641600*%
%TD*%
%TA.AperFunction,ComponentPad*%
%ADD20R,1.730000X2.030000*%
%TD*%
%TA.AperFunction,ComponentPad*%
%ADD21O,1.730000X2.030000*%
%TD*%
%TA.AperFunction,ViaPad*%
%ADD22C,0.600000*%
%TD*%
%TA.AperFunction,Conductor*%
%ADD23C,0.200000*%
%TD*%
G04 APERTURE END LIST*
D10*
%TO.P,C1,1*%
%TO.N,-5V*%
X168000000Y-67000000D03*
D11*
%TO.P,C1,2*%
%TO.N,GND*%
X170500000Y-67000000D03*
%TD*%
%TO.P,R8,1*%
%TO.N,V_out*%
X170500000Y-83408700D03*
D12*
%TO.P,R8,2*%
%TO.N,Net-(IC1-Pad2)*%
X170500000Y-73248700D03*
%TD*%
D11*
%TO.P,R3,1*%
%TO.N,Net-(R3-Pad1)*%
X163500000Y-83580000D03*
D12*
%TO.P,R3,2*%
%TO.N,Net-(Q1-COLLECTOR_#3_1)*%
X163500000Y-73420000D03*
%TD*%
D11*
%TO.P,R7,1*%
%TO.N,Net-(R4-Pad1)*%
X163500000Y-88091300D03*
D12*
%TO.P,R7,2*%
%TO.N,Net-(IC1-Pad2)*%
X163500000Y-98251300D03*
%TD*%
D11*
%TO.P,R2,1*%
%TO.N,Net-(J3-Pin_1)*%
X132000000Y-90080000D03*
D12*
%TO.P,R2,2*%
%TO.N,GND*%
X132000000Y-79920000D03*
%TD*%
D11*
%TO.P,R5,1*%
%TO.N,Net-(IC1-Pad3)*%
X149920000Y-81500000D03*
D12*
%TO.P,R5,2*%
%TO.N,Net-(R3-Pad1)*%
X160080000Y-81500000D03*
%TD*%
D13*
%TO.P,J3,1,Pin_1*%
%TO.N,Net-(J3-Pin_1)*%
X151226600Y-104292400D03*
D14*
%TO.P,J3,2,Pin_2*%
%TO.N,GND*%
X153766600Y-104292400D03*
%TD*%
D15*
%TO.P,J1,1,1*%
%TO.N,GND*%
X182862500Y-80300000D03*
%TO.P,J1,2,2*%
X182862500Y-72700000D03*
D16*
%TO.P,J1,3,3*%
%TO.N,V_out*%
X175062500Y-76500000D03*
%TD*%
D17*
%TO.P,D1,1,K*%
%TO.N,+5V*%
X130500000Y-98211300D03*
D18*
%TO.P,D1,2,C*%
%TO.N,GND*%
X131770000Y-96941300D03*
%TO.P,D1,3,A*%
%TO.N,Net-(D1-A)*%
X130500000Y-95671300D03*
%TD*%
D19*
%TO.P,IC1,1*%
%TO.N,unconnected-(IC1-Pad1)*%
X176810000Y-89190000D03*
%TO.P,IC1,2*%
%TO.N,Net-(IC1-Pad2)*%
X174270000Y-89190000D03*
%TO.P,IC1,3*%
%TO.N,Net-(IC1-Pad3)*%
X171730000Y-89190000D03*
%TO.P,IC1,4*%
%TO.N,-5V*%
X169190000Y-89190000D03*
%TO.P,IC1,5*%
%TO.N,unconnected-(IC1-Pad5)*%
X169190000Y-96810000D03*
%TO.P,IC1,6*%
%TO.N,V_out*%
X171730000Y-96810000D03*
%TO.P,IC1,7*%
%TO.N,+5V*%
X174270000Y-96810000D03*
%TO.P,IC1,8*%
%TO.N,N/C*%
X176810000Y-96810000D03*
%TD*%
D17*
%TO.P,D2,1,K*%
%TO.N,+5V*%
X130315300Y-71586000D03*
D18*
%TO.P,D2,2,C*%
%TO.N,GND*%
X129045300Y-72856000D03*
%TO.P,D2,3,A*%
%TO.N,Net-(D2-A)*%
X130315300Y-74126000D03*
%TD*%
D11*
%TO.P,R4,1*%
%TO.N,Net-(R4-Pad1)*%
X160000000Y-88500000D03*
D12*
%TO.P,R4,2*%
%TO.N,Net-(Q2-COLLECTOR_#3_1)*%
X149840000Y-88500000D03*
%TD*%
D11*
%TO.P,R6,1*%
%TO.N,GND*%
X136920000Y-88500000D03*
D12*
%TO.P,R6,2*%
%TO.N,Net-(IC1-Pad3)*%
X147080000Y-88500000D03*
%TD*%
D13*
%TO.P,J5,1,Pin_1*%
%TO.N,Net-(J5-Pin_1)*%
X149960000Y-65000000D03*
D14*
%TO.P,J5,2,Pin_2*%
%TO.N,GND*%
X152500000Y-65000000D03*
%TD*%
D10*
%TO.P,C2,1*%
%TO.N,+5V*%
X175794900Y-67000000D03*
D11*
%TO.P,C2,2*%
%TO.N,GND*%
X178294900Y-67000000D03*
%TD*%
D20*
%TO.P,J2,1,Pin_1*%
%TO.N,+5V*%
X157695000Y-65000000D03*
D21*
%TO.P,J2,2,Pin_2*%
%TO.N,-5V*%
X160235000Y-65000000D03*
%TO.P,J2,3,Pin_3*%
%TO.N,GND*%
X162775000Y-65000000D03*
%TD*%
D11*
%TO.P,R1,1*%
%TO.N,Net-(J5-Pin_1)*%
X147048800Y-81500000D03*
D12*
%TO.P,R1,2*%
%TO.N,GND*%
X136888800Y-81500000D03*
%TD*%
D22*
%TO.N,-5V*%
X153000000Y-76500000D03*
X148000000Y-72500000D03*
%TO.N,Net-(D1-A)*%
X136500000Y-91000000D03*
%TO.N,Net-(Q2-COLLECTOR_#3_1)*%
X152000000Y-92500000D03*
X143500000Y-92500000D03*
%TO.N,Net-(D1-A)*%
X140500000Y-96500000D03*
X145500000Y-97000000D03*
%TO.N,+5V*%
X156742500Y-72315900D03*
X156617700Y-94671400D03*
%TO.N,-5V*%
X158407800Y-77815100D03*
%TO.N,Net-(Q1-BASE_#1)*%
X145820000Y-75624100D03*
X146895700Y-67904100D03*
%TO.N,Net-(J3-Pin_1)*%
X132686500Y-98739900D03*
%TD*%
D23*
%TO.N,-5V*%
X152000000Y-76500000D02*
X153000000Y-76500000D01*
X148000000Y-72500000D02*
X152000000Y-76500000D01*
%TO.N,Net-(D1-A)*%
X133500000Y-88000000D02*
X136500000Y-91000000D01*
X130500000Y-89000000D02*
X131500000Y-88000000D01*
X130500000Y-95671300D02*
X130500000Y-89000000D01*
X131500000Y-88000000D02*
X133500000Y-88000000D01*
%TO.N,Net-(Q2-COLLECTOR_#3_1)*%
X143500000Y-92500000D02*
X152000000Y-92500000D01*
%TO.N,Net-(D1-A)*%
X141000000Y-97000000D02*
X140500000Y-96500000D01*
X145500000Y-97000000D02*
X141000000Y-97000000D01*
%TO.N,+5V*%
X175794900Y-67000000D02*
X175794900Y-68101700D01*
X156742500Y-67269200D02*
X156742500Y-72315900D01*
X128130300Y-96743300D02*
X128130300Y-72487700D01*
X157695000Y-65000000D02*
X157695000Y-66316700D01*
X174270000Y-96810000D02*
X174270000Y-95187500D01*
X175232200Y-79306000D02*
X173985300Y-78059100D01*
X157695000Y-66316700D02*
X156742500Y-67269200D01*
X129032000Y-71586000D02*
X130315300Y-71586000D01*
X173985300Y-78059100D02*
X173985300Y-69911300D01*
X174270000Y-95187500D02*
X175232200Y-94225300D01*
X173985300Y-69911300D02*
X175794900Y-68101700D01*
X129598300Y-98211300D02*
X128130300Y-96743300D01*
X128130300Y-72487700D02*
X129032000Y-71586000D01*
X156617700Y-72440700D02*
X156617700Y-94671400D01*
X175232200Y-94225300D02*
X175232200Y-79306000D01*
X156742500Y-72315900D02*
X156617700Y-72440700D01*
X130500000Y-98211300D02*
X129598300Y-98211300D01*
%TO.N,Net-(IC1-Pad2)*%
X170500000Y-78821200D02*
X170500000Y-73248700D01*
X174270000Y-82591200D02*
X170500000Y-78821200D01*
X174270000Y-89190000D02*
X174270000Y-82591200D01*
%TO.N,-5V*%
X169190000Y-87567500D02*
X168000000Y-86377500D01*
X169190000Y-89190000D02*
X169190000Y-87567500D01*
X160235000Y-65000000D02*
X160235000Y-75987900D01*
X160235000Y-75987900D02*
X158407800Y-77815100D01*
X168000000Y-86377500D02*
X168000000Y-67000000D01*
%TO.N,V_out*%
X171730000Y-96810000D02*
X171730000Y-95187500D01*
X170500000Y-93957500D02*
X170500000Y-83408700D01*
X171730000Y-95187500D02*
X170500000Y-93957500D01*
%TO.N,Net-(IC1-Pad3)*%
X149920000Y-81500000D02*
X147080000Y-84340000D01*
X147080000Y-84340000D02*
X147080000Y-88500000D01*
%TO.N,Net-(Q1-BASE_#1)*%
X145820000Y-68979800D02*
X145820000Y-75624100D01*
X146895700Y-67904100D02*
X145820000Y-68979800D01*
%TO.N,Net-(J3-Pin_1)*%
X132686500Y-98739900D02*
X132686500Y-90766500D01*
X132686500Y-90766500D02*
X132000000Y-90080000D01*
%TO.N,Net-(J5-Pin_1)*%
X149960000Y-65000000D02*
X149960000Y-66151700D01*
X147048800Y-81500000D02*
X147048800Y-69062900D01*
X147048800Y-69062900D02*
X149960000Y-66151700D01*
%TD*%
%TA.AperFunction,Conductor*%
%TO.N,GND*%
G36*
X186442539Y-62020185D02*
G01*
X186488294Y-62072989D01*
X186499500Y-62124500D01*
X186499500Y-107375500D01*
X186479815Y-107442539D01*
X186427011Y-107488294D01*
X186375500Y-107499500D01*
X122624500Y-107499500D01*
X122557461Y-107479815D01*
X122511706Y-107427011D01*
X122500500Y-107375500D01*
X122500500Y-104397648D01*
X124199500Y-104397648D01*
X124199500Y-104602351D01*
X124231522Y-104804534D01*
X124294781Y-104999223D01*
X124358691Y-105124653D01*
X124382747Y-105171864D01*
X124387715Y-105181613D01*
X124508028Y-105347213D01*
X124652786Y-105491971D01*
X124782480Y-105586197D01*
X124818390Y-105612287D01*
X124934607Y-105671503D01*
X125000776Y-105705218D01*
X125000778Y-105705218D01*
X125000781Y-105705220D01*
X125105137Y-105739127D01*
X125195465Y-105768477D01*
X125296557Y-105784488D01*
X125397648Y-105800500D01*
X125397649Y-105800500D01*
X125602351Y-105800500D01*
X125602352Y-105800500D01*
X125804534Y-105768477D01*
X125999219Y-105705220D01*
X126181610Y-105612287D01*
X126276295Y-105543495D01*
X126347213Y-105491971D01*
X126347215Y-105491968D01*
X126347219Y-105491966D01*
X126491966Y-105347219D01*
X126491968Y-105347215D01*
X126491971Y-105347213D01*
X126562684Y-105249883D01*
X126612287Y-105181610D01*
X126705220Y-104999219D01*
X126768477Y-104804534D01*
X126800500Y-104602352D01*
X126800500Y-104397648D01*
X126768477Y-104195466D01*
X126705220Y-104000781D01*
X126705218Y-104000778D01*
X126705218Y-104000776D01*
X126671503Y-103934607D01*
X126612287Y-103818390D01*
X126593404Y-103792400D01*
X126491971Y-103652786D01*
X126347219Y-103508034D01*
X126324496Y-103491525D01*
X126324494Y-103491522D01*
X126191000Y-103394535D01*
X149876100Y-103394535D01*
X149876100Y-105190270D01*
X149876101Y-105190276D01*
X149882508Y-105249883D01*
X149932802Y-105384728D01*
X149932806Y-105384735D01*
X150019052Y-105499944D01*
X150019055Y-105499947D01*
X150134264Y-105586193D01*
X150134271Y-105586197D01*
X150269117Y-105636491D01*
X150269116Y-105636491D01*
X150276044Y-105637235D01*
X150328727Y-105642900D01*
X152124472Y-105642899D01*
X152184083Y-105636491D01*
X152318931Y-105586196D01*
X152434146Y-105499946D01*
X152520396Y-105384731D01*
X152569602Y-105252801D01*
X152611472Y-105196868D01*
X152676937Y-105172450D01*
X152745210Y-105187301D01*
X152773465Y-105208453D01*
X152887135Y-105322123D01*
X152887140Y-105322127D01*
X153059042Y-105447020D01*
X153248382Y-105543495D01*
X153450471Y-105609157D01*
X153516600Y-105619631D01*
X153516600Y-104725412D01*
X153573607Y-104758325D01*
X153700774Y-104792400D01*
X153832426Y-104792400D01*
X153959593Y-104758325D01*
X154016600Y-104725412D01*
X154016600Y-105619630D01*
X154082726Y-105609157D01*
X154082729Y-105609157D01*
X154284817Y-105543495D01*
X154474157Y-105447020D01*
X154646059Y-105322127D01*
X154646064Y-105322123D01*
X154796323Y-105171864D01*
X154796327Y-105171859D01*
X154921220Y-104999957D01*
X155017695Y-104810617D01*
X155083357Y-104608529D01*
X155083357Y-104608526D01*
X155093831Y-104542400D01*
X154199612Y-104542400D01*
X154232525Y-104485393D01*
X154256037Y-104397648D01*
X182199500Y-104397648D01*
X182199500Y-104602351D01*
X182231522Y-104804534D01*
X182294781Y-104999223D01*
X182358691Y-105124653D01*
X182382747Y-105171864D01*
X182387715Y-105181613D01*
X182508028Y-105347213D01*
X182652786Y-105491971D01*
X182782480Y-105586197D01*
X182818390Y-105612287D01*
X182934607Y-105671503D01*
X183000776Y-105705218D01*
X183000778Y-105705218D01*
X183000781Y-105705220D01*
X183105137Y-105739127D01*
X183195465Y-105768477D01*
X183296557Y-105784488D01*
X183397648Y-105800500D01*
X183397649Y-105800500D01*
X183602351Y-105800500D01*
X183602352Y-105800500D01*
X183804534Y-105768477D01*
X183999219Y-105705220D01*
X184181610Y-105612287D01*
X184276295Y-105543495D01*
X184347213Y-105491971D01*
X184347215Y-105491968D01*
X184347219Y-105491966D01*
X184491966Y-105347219D01*
X184491968Y-105347215D01*
X184491971Y-105347213D01*
X184562684Y-105249883D01*
X184612287Y-105181610D01*
X184705220Y-104999219D01*
X184768477Y-104804534D01*
X184800500Y-104602352D01*
X184800500Y-104397648D01*
X184768477Y-104195466D01*
X184705220Y-104000781D01*
X184705218Y-104000778D01*
X184705218Y-104000776D01*
X184671503Y-103934607D01*
X184612287Y-103818390D01*
X184593404Y-103792400D01*
X184491971Y-103652786D01*
X184347213Y-103508028D01*
X184181613Y-103387715D01*
X184181612Y-103387714D01*
X184181610Y-103387713D01*
X184124653Y-103358691D01*
X183999223Y-103294781D01*
X183804534Y-103231522D01*
X183629995Y-103203878D01*
X183602352Y-103199500D01*
X183397648Y-103199500D01*
X183373329Y-103203351D01*
X183195465Y-103231522D01*
X183000776Y-103294781D01*
X182818386Y-103387715D01*
X182652786Y-103508028D01*
X182508028Y-103652786D01*
X182387715Y-103818386D01*
X182294781Y-104000776D01*
X182231522Y-104195465D01*
X182199500Y-104397648D01*
X154256037Y-104397648D01*
X154266600Y-104358226D01*
X154266600Y-104226574D01*
X154232525Y-104099407D01*
X154199612Y-104042400D01*
X155093831Y-104042400D01*
X155083357Y-103976273D01*
X155083357Y-103976270D01*
X155017695Y-103774182D01*
X154921220Y-103584842D01*
X154796327Y-103412940D01*
X154796323Y-103412935D01*
X154646064Y-103262676D01*
X154646059Y-103262672D01*
X154474157Y-103137779D01*
X154284815Y-103041303D01*
X154082724Y-102975641D01*
X154016600Y-102965168D01*
X154016600Y-103859388D01*
X153959593Y-103826475D01*
X153832426Y-103792400D01*
X153700774Y-103792400D01*
X153573607Y-103826475D01*
X153516600Y-103859388D01*
X153516600Y-102965168D01*
X153516599Y-102965168D01*
X153450475Y-102975641D01*
X153248384Y-103041303D01*
X153059042Y-103137779D01*
X152887141Y-103262671D01*
X152773465Y-103376347D01*
X152712142Y-103409831D01*
X152642450Y-103404847D01*
X152586517Y-103362975D01*
X152569602Y-103331998D01*
X152520397Y-103200071D01*
X152520393Y-103200064D01*
X152434147Y-103084855D01*
X152434144Y-103084852D01*
X152318935Y-102998606D01*
X152318928Y-102998602D01*
X152184082Y-102948308D01*
X152184083Y-102948308D01*
X152124483Y-102941901D01*
X152124481Y-102941900D01*
X152124473Y-102941900D01*
X152124464Y-102941900D01*
X150328729Y-102941900D01*
X150328723Y-102941901D01*
X150269116Y-102948308D01*
X150134271Y-102998602D01*
X150134264Y-102998606D01*
X150019055Y-103084852D01*
X150019052Y-103084855D01*
X149932806Y-103200064D01*
X149932802Y-103200071D01*
X149882508Y-103334917D01*
X149876101Y-103394516D01*
X149876100Y-103394535D01*
X126191000Y-103394535D01*
X126181613Y-103387715D01*
X126181612Y-103387714D01*
X126181610Y-103387713D01*
X126124653Y-103358691D01*
X125999223Y-103294781D01*
X125804534Y-103231522D01*
X125629995Y-103203878D01*
X125602352Y-103199500D01*
X125397648Y-103199500D01*
X125373329Y-103203351D01*
X125195465Y-103231522D01*
X125000776Y-103294781D01*
X124818386Y-103387715D01*
X124652786Y-103508028D01*
X124508028Y-103652786D01*
X124387715Y-103818386D01*
X124294781Y-104000776D01*
X124231522Y-104195465D01*
X124199500Y-104397648D01*
X122500500Y-104397648D01*
X122500500Y-96822354D01*
X127529798Y-96822354D01*
X127570723Y-96975085D01*
X127588154Y-97005276D01*
X127588153Y-97005276D01*
X127588154Y-97005277D01*
X127649775Y-97112009D01*
X127649781Y-97112017D01*
X127768649Y-97230885D01*
X127768654Y-97230889D01*
X129229584Y-98691820D01*
X129229586Y-98691821D01*
X129229590Y-98691824D01*
X129366509Y-98770873D01*
X129366516Y-98770877D01*
X129407666Y-98781903D01*
X129467325Y-98818267D01*
X129486056Y-98845382D01*
X129558768Y-98988088D01*
X129660586Y-99128228D01*
X129783072Y-99250714D01*
X129923212Y-99352532D01*
X130077555Y-99431173D01*
X130242299Y-99484702D01*
X130413389Y-99511800D01*
X130413390Y-99511800D01*
X130586610Y-99511800D01*
X130586611Y-99511800D01*
X130757701Y-99484702D01*
X130922445Y-99431173D01*
X131076788Y-99352532D01*
X131216928Y-99250714D01*
X131339414Y-99128228D01*
X131441232Y-98988088D01*
X131519873Y-98833745D01*
X131573402Y-98669001D01*
X131600500Y-98497911D01*
X131600500Y-98165300D01*
X131602667Y-98157917D01*
X131601407Y-98150326D01*
X131612375Y-98124856D01*
X131620185Y-98098261D01*
X131625998Y-98093223D01*
X131629043Y-98086154D01*
X131652041Y-98070657D01*
X131672989Y-98052506D01*
X131682062Y-98050428D01*
X131686986Y-98047111D01*
X131716554Y-98042530D01*
X131721803Y-98041329D01*
X131877813Y-98037935D01*
X131942602Y-98027674D01*
X132011896Y-98036629D01*
X132065347Y-98081625D01*
X132072573Y-98104994D01*
X132073648Y-98106182D01*
X132074468Y-98111125D01*
X132085987Y-98148376D01*
X132086000Y-98150147D01*
X132086000Y-98160134D01*
X132083832Y-98167516D01*
X132085093Y-98175108D01*
X132074124Y-98200577D01*
X132066315Y-98227173D01*
X132065102Y-98229025D01*
X131977109Y-98360714D01*
X131977102Y-98360727D01*
X131916764Y-98506398D01*
X131916761Y-98506410D01*
X131886000Y-98661053D01*
X131886000Y-98818746D01*
X131916761Y-98973389D01*
X131916764Y-98973401D01*
X131977102Y-99119072D01*
X131977109Y-99119085D01*
X132064710Y-99250188D01*
X132064713Y-99250192D01*
X132176207Y-99361686D01*
X132176211Y-99361689D01*
X132307314Y-99449290D01*
X132307327Y-99449297D01*
X132392804Y-99484702D01*
X132453003Y-99509637D01*
X132607653Y-99540399D01*
X132607656Y-99540400D01*
X132607658Y-99540400D01*
X132765344Y-99540400D01*
X132765345Y-99540399D01*
X132919997Y-99509637D01*
X133065679Y-99449294D01*
X133196789Y-99361689D01*
X133308289Y-99250189D01*
X133395894Y-99119079D01*
X133456237Y-98973397D01*
X133487000Y-98818742D01*
X133487000Y-98661058D01*
X133487000Y-98661055D01*
X133486999Y-98661053D01*
X133475395Y-98602715D01*
X133456237Y-98506403D01*
X133438379Y-98463290D01*
X133395897Y-98360727D01*
X133395890Y-98360714D01*
X133307898Y-98229025D01*
X133302247Y-98210978D01*
X133292023Y-98195069D01*
X133287571Y-98164107D01*
X133287020Y-98162347D01*
X133287000Y-98160134D01*
X133287000Y-98148948D01*
X162199500Y-98148948D01*
X162199500Y-98353651D01*
X162231522Y-98555834D01*
X162294781Y-98750523D01*
X162387715Y-98932913D01*
X162508028Y-99098513D01*
X162652786Y-99243271D01*
X162803173Y-99352531D01*
X162818390Y-99363587D01*
X162934607Y-99422803D01*
X163000776Y-99456518D01*
X163000778Y-99456518D01*
X163000781Y-99456520D01*
X163087516Y-99484702D01*
X163195465Y-99519777D01*
X163296557Y-99535788D01*
X163397648Y-99551800D01*
X163397649Y-99551800D01*
X163602351Y-99551800D01*
X163602352Y-99551800D01*
X163804534Y-99519777D01*
X163999219Y-99456520D01*
X164181610Y-99363587D01*
X164336968Y-99250714D01*
X164347213Y-99243271D01*
X164347215Y-99243268D01*
X164347219Y-99243266D01*
X164491966Y-99098519D01*
X164491968Y-99098515D01*
X164491971Y-99098513D01*
X164572198Y-98988088D01*
X164612287Y-98932910D01*
X164705220Y-98750519D01*
X164768477Y-98555834D01*
X164800500Y-98353652D01*
X164800500Y-98148948D01*
X164768477Y-97946766D01*
X164705220Y-97752081D01*
X164705218Y-97752078D01*
X164705218Y-97752076D01*
X164651272Y-97646202D01*
X164612287Y-97569690D01*
X164595174Y-97546136D01*
X164491971Y-97404086D01*
X164347213Y-97259328D01*
X164181613Y-97139015D01*
X164181612Y-97139014D01*
X164181610Y-97139013D01*
X164124653Y-97109991D01*
X163999223Y-97046081D01*
X163804534Y-96982822D01*
X163629995Y-96955178D01*
X163602352Y-96950800D01*
X163397648Y-96950800D01*
X163373329Y-96954651D01*
X163195465Y-96982822D01*
X163000776Y-97046081D01*
X162818386Y-97139015D01*
X162652786Y-97259328D01*
X162508028Y-97404086D01*
X162387715Y-97569686D01*
X162294781Y-97752076D01*
X162231522Y-97946765D01*
X162199500Y-98148948D01*
X133287000Y-98148948D01*
X133287000Y-96421153D01*
X139699500Y-96421153D01*
X139699500Y-96578846D01*
X139730261Y-96733489D01*
X139730264Y-96733501D01*
X139790602Y-96879172D01*
X139790609Y-96879185D01*
X139878210Y-97010288D01*
X139878213Y-97010292D01*
X139989707Y-97121786D01*
X139989711Y-97121789D01*
X140120814Y-97209390D01*
X140120827Y-97209397D01*
X140260977Y-97267448D01*
X140266503Y-97269737D01*
X140421158Y-97300500D01*
X140421847Y-97300637D01*
X140483758Y-97333022D01*
X140485337Y-97334573D01*
X140631284Y-97480520D01*
X140631286Y-97480521D01*
X140631290Y-97480524D01*
X140744935Y-97546136D01*
X140768216Y-97559577D01*
X140920943Y-97600501D01*
X140920945Y-97600501D01*
X141086654Y-97600501D01*
X141086670Y-97600500D01*
X144920234Y-97600500D01*
X144987273Y-97620185D01*
X144989125Y-97621398D01*
X145120814Y-97709390D01*
X145120827Y-97709397D01*
X145223865Y-97752076D01*
X145266503Y-97769737D01*
X145421153Y-97800499D01*
X145421156Y-97800500D01*
X145421158Y-97800500D01*
X145578844Y-97800500D01*
X145578845Y-97800499D01*
X145733497Y-97769737D01*
X145879179Y-97709394D01*
X146010289Y-97621789D01*
X146121789Y-97510289D01*
X146209394Y-97379179D01*
X146269737Y-97233497D01*
X146300500Y-97078842D01*
X146300500Y-96921158D01*
X146300500Y-96921155D01*
X146300499Y-96921153D01*
X146292148Y-96879172D01*
X146269737Y-96766503D01*
X146253124Y-96726395D01*
X146209397Y-96620827D01*
X146209390Y-96620814D01*
X146121789Y-96489711D01*
X146121786Y-96489707D01*
X146010292Y-96378213D01*
X146010288Y-96378210D01*
X145879185Y-96290609D01*
X145879172Y-96290602D01*
X145733501Y-96230264D01*
X145733489Y-96230261D01*
X145578845Y-96199500D01*
X145578842Y-96199500D01*
X145421158Y-96199500D01*
X145421155Y-96199500D01*
X145266510Y-96230261D01*
X145266498Y-96230264D01*
X145120827Y-96290602D01*
X145120814Y-96290609D01*
X144989125Y-96378602D01*
X144922447Y-96399480D01*
X144920234Y-96399500D01*
X141397956Y-96399500D01*
X141330917Y-96379815D01*
X141285162Y-96327011D01*
X141276339Y-96299691D01*
X141269738Y-96266510D01*
X141269737Y-96266503D01*
X141262109Y-96248088D01*
X141209397Y-96120827D01*
X141209390Y-96120814D01*
X141121789Y-95989711D01*
X141121786Y-95989707D01*
X141010292Y-95878213D01*
X141010288Y-95878210D01*
X140879185Y-95790609D01*
X140879172Y-95790602D01*
X140733501Y-95730264D01*
X140733489Y-95730261D01*
X140578845Y-95699500D01*
X140578842Y-95699500D01*
X140421158Y-95699500D01*
X140421155Y-95699500D01*
X140266510Y-95730261D01*
X140266498Y-95730264D01*
X140120827Y-95790602D01*
X140120814Y-95790609D01*
X139989711Y-95878210D01*
X139989707Y-95878213D01*
X139878213Y-95989707D01*
X139878210Y-95989711D01*
X139790609Y-96120814D01*
X139790602Y-96120827D01*
X139730264Y-96266498D01*
X139730261Y-96266510D01*
X139699500Y-96421153D01*
X133287000Y-96421153D01*
X133287000Y-94592553D01*
X155817200Y-94592553D01*
X155817200Y-94750246D01*
X155847961Y-94904889D01*
X155847964Y-94904901D01*
X155908302Y-95050572D01*
X155908309Y-95050585D01*
X155995910Y-95181688D01*
X155995913Y-95181692D01*
X156107407Y-95293186D01*
X156107411Y-95293189D01*
X156238514Y-95380790D01*
X156238527Y-95380797D01*
X156384198Y-95441135D01*
X156384203Y-95441137D01*
X156538853Y-95471899D01*
X156538856Y-95471900D01*
X156538858Y-95471900D01*
X156696544Y-95471900D01*
X156696545Y-95471899D01*
X156851197Y-95441137D01*
X156996879Y-95380794D01*
X157127989Y-95293189D01*
X157239489Y-95181689D01*
X157327094Y-95050579D01*
X157387437Y-94904897D01*
X157418200Y-94750242D01*
X157418200Y-94592558D01*
X157418200Y-94592555D01*
X157418199Y-94592553D01*
X157401220Y-94507195D01*
X157387437Y-94437903D01*
X157387435Y-94437898D01*
X157327097Y-94292227D01*
X157327090Y-94292214D01*
X157239098Y-94160525D01*
X157218220Y-94093847D01*
X157218200Y-94091634D01*
X157218200Y-88397648D01*
X158699500Y-88397648D01*
X158699500Y-88602351D01*
X158731522Y-88804534D01*
X158794781Y-88999223D01*
X158887715Y-89181613D01*
X159008028Y-89347213D01*
X159152786Y-89491971D01*
X159273226Y-89579474D01*
X159318390Y-89612287D01*
X159423327Y-89665755D01*
X159500776Y-89705218D01*
X159500778Y-89705218D01*
X159500781Y-89705220D01*
X159605137Y-89739127D01*
X159695465Y-89768477D01*
X159739592Y-89775466D01*
X159897648Y-89800500D01*
X159897649Y-89800500D01*
X160102351Y-89800500D01*
X160102352Y-89800500D01*
X160304534Y-89768477D01*
X160499219Y-89705220D01*
X160681610Y-89612287D01*
X160774590Y-89544732D01*
X160847213Y-89491971D01*
X160847215Y-89491968D01*
X160847219Y-89491966D01*
X160991966Y-89347219D01*
X160991968Y-89347215D01*
X160991971Y-89347213D01*
X161044732Y-89274590D01*
X161112287Y-89181610D01*
X161205220Y-88999219D01*
X161268477Y-88804534D01*
X161300500Y-88602352D01*
X161300500Y-88397648D01*
X161278343Y-88257755D01*
X161268477Y-88195465D01*
X161232248Y-88083966D01*
X161205220Y-88000781D01*
X161199191Y-87988948D01*
X162199500Y-87988948D01*
X162199500Y-88193651D01*
X162231522Y-88395834D01*
X162294781Y-88590523D01*
X162358691Y-88715953D01*
X162384488Y-88766581D01*
X162387715Y-88772913D01*
X162508028Y-88938513D01*
X162652786Y-89083271D01*
X162807749Y-89195856D01*
X162818390Y-89203587D01*
X162934607Y-89262803D01*
X163000776Y-89296518D01*
X163000778Y-89296518D01*
X163000781Y-89296520D01*
X163105137Y-89330427D01*
X163195465Y-89359777D01*
X163296557Y-89375788D01*
X163397648Y-89391800D01*
X163397649Y-89391800D01*
X163602351Y-89391800D01*
X163602352Y-89391800D01*
X163804534Y-89359777D01*
X163999219Y-89296520D01*
X164181610Y-89203587D01*
X164339246Y-89089059D01*
X164347213Y-89083271D01*
X164347215Y-89083268D01*
X164347219Y-89083266D01*
X164491966Y-88938519D01*
X164491968Y-88938515D01*
X164491971Y-88938513D01*
X164584233Y-88811523D01*
X164612287Y-88772910D01*
X164705220Y-88590519D01*
X164768477Y-88395834D01*
X164800500Y-88193652D01*
X164800500Y-87988948D01*
X164789763Y-87921156D01*
X164768477Y-87786765D01*
X164734423Y-87681959D01*
X164705220Y-87592081D01*
X164705218Y-87592078D01*
X164705218Y-87592076D01*
X164662393Y-87508028D01*
X164612287Y-87409690D01*
X164591355Y-87380879D01*
X164491971Y-87244086D01*
X164347213Y-87099328D01*
X164181613Y-86979015D01*
X164181612Y-86979014D01*
X164181610Y-86979013D01*
X164124653Y-86949991D01*
X163999223Y-86886081D01*
X163804534Y-86822822D01*
X163629995Y-86795178D01*
X163602352Y-86790800D01*
X163397648Y-86790800D01*
X163373329Y-86794651D01*
X163195465Y-86822822D01*
X163000776Y-86886081D01*
X162818386Y-86979015D01*
X162652786Y-87099328D01*
X162508028Y-87244086D01*
X162387715Y-87409686D01*
X162294781Y-87592076D01*
X162231522Y-87786765D01*
X162199500Y-87988948D01*
X161199191Y-87988948D01*
X161112287Y-87818390D01*
X161080092Y-87774077D01*
X160991971Y-87652786D01*
X160847213Y-87508028D01*
X160681613Y-87387715D01*
X160681612Y-87387714D01*
X160681610Y-87387713D01*
X160624653Y-87358691D01*
X160499223Y-87294781D01*
X160304534Y-87231522D01*
X160129995Y-87203878D01*
X160102352Y-87199500D01*
X159897648Y-87199500D01*
X159873329Y-87203351D01*
X159695465Y-87231522D01*
X159500776Y-87294781D01*
X159318386Y-87387715D01*
X159152786Y-87508028D01*
X159008028Y-87652786D01*
X158887715Y-87818386D01*
X158794781Y-88000776D01*
X158731522Y-88195465D01*
X158699500Y-88397648D01*
X157218200Y-88397648D01*
X157218200Y-83477648D01*
X162199500Y-83477648D01*
X162199500Y-83682351D01*
X162231522Y-83884534D01*
X162294781Y-84079223D01*
X162358691Y-84204653D01*
X162387374Y-84260945D01*
X162387715Y-84261613D01*
X162508028Y-84427213D01*
X162652786Y-84571971D01*
X162807749Y-84684556D01*
X162818390Y-84692287D01*
X162934607Y-84751503D01*
X163000776Y-84785218D01*
X163000778Y-84785218D01*
X163000781Y-84785220D01*
X163105137Y-84819127D01*
X163195465Y-84848477D01*
X163296557Y-84864488D01*
X163397648Y-84880500D01*
X163397649Y-84880500D01*
X163602351Y-84880500D01*
X163602352Y-84880500D01*
X163804534Y-84848477D01*
X163999219Y-84785220D01*
X164181610Y-84692287D01*
X164274590Y-84624732D01*
X164347213Y-84571971D01*
X164347215Y-84571968D01*
X164347219Y-84571966D01*
X164491966Y-84427219D01*
X164491968Y-84427215D01*
X164491971Y-84427213D01*
X164544732Y-84354590D01*
X164612287Y-84261610D01*
X164705220Y-84079219D01*
X164768477Y-83884534D01*
X164800500Y-83682352D01*
X164800500Y-83477648D01*
X164768477Y-83275466D01*
X164705220Y-83080781D01*
X164705218Y-83080778D01*
X164705218Y-83080776D01*
X164671503Y-83014607D01*
X164612287Y-82898390D01*
X164587984Y-82864939D01*
X164491971Y-82732786D01*
X164347213Y-82588028D01*
X164181613Y-82467715D01*
X164181612Y-82467714D01*
X164181610Y-82467713D01*
X164124653Y-82438691D01*
X163999223Y-82374781D01*
X163804534Y-82311522D01*
X163629995Y-82283878D01*
X163602352Y-82279500D01*
X163397648Y-82279500D01*
X163373329Y-82283351D01*
X163195465Y-82311522D01*
X163000776Y-82374781D01*
X162818386Y-82467715D01*
X162652786Y-82588028D01*
X162508028Y-82732786D01*
X162387715Y-82898386D01*
X162294781Y-83080776D01*
X162231522Y-83275465D01*
X162199500Y-83477648D01*
X157218200Y-83477648D01*
X157218200Y-81397648D01*
X158779500Y-81397648D01*
X158779500Y-81602351D01*
X158811522Y-81804534D01*
X158874781Y-81999223D01*
X158967715Y-82181613D01*
X159088028Y-82347213D01*
X159232786Y-82491971D01*
X159365000Y-82588028D01*
X159398390Y-82612287D01*
X159514607Y-82671503D01*
X159580776Y-82705218D01*
X159580778Y-82705218D01*
X159580781Y-82705220D01*
X159685137Y-82739127D01*
X159775465Y-82768477D01*
X159876557Y-82784488D01*
X159977648Y-82800500D01*
X159977649Y-82800500D01*
X160182351Y-82800500D01*
X160182352Y-82800500D01*
X160384534Y-82768477D01*
X160579219Y-82705220D01*
X160761610Y-82612287D01*
X160854590Y-82544732D01*
X160927213Y-82491971D01*
X160927215Y-82491968D01*
X160927219Y-82491966D01*
X161071966Y-82347219D01*
X161071968Y-82347215D01*
X161071971Y-82347213D01*
X161124732Y-82274590D01*
X161192287Y-82181610D01*
X161285220Y-81999219D01*
X161348477Y-81804534D01*
X161380500Y-81602352D01*
X161380500Y-81397648D01*
X161372257Y-81345606D01*
X161348477Y-81195465D01*
X161285218Y-81000776D01*
X161239771Y-80911582D01*
X161192287Y-80818390D01*
X161154874Y-80766895D01*
X161071971Y-80652786D01*
X160927213Y-80508028D01*
X160761613Y-80387715D01*
X160761612Y-80387714D01*
X160761610Y-80387713D01*
X160704653Y-80358691D01*
X160579223Y-80294781D01*
X160384534Y-80231522D01*
X160209995Y-80203878D01*
X160182352Y-80199500D01*
X159977648Y-80199500D01*
X159953329Y-80203351D01*
X159775465Y-80231522D01*
X159580776Y-80294781D01*
X159398386Y-80387715D01*
X159232786Y-80508028D01*
X159088028Y-80652786D01*
X158967715Y-80818386D01*
X158874781Y-81000776D01*
X158811522Y-81195465D01*
X158779500Y-81397648D01*
X157218200Y-81397648D01*
X157218200Y-73023640D01*
X157237885Y-72956601D01*
X157254514Y-72935963D01*
X157364289Y-72826189D01*
X157451894Y-72695079D01*
X157512237Y-72549397D01*
X157543000Y-72394742D01*
X157543000Y-72237058D01*
X157543000Y-72237055D01*
X157542999Y-72237053D01*
X157525986Y-72151523D01*
X157512237Y-72082403D01*
X157473843Y-71989711D01*
X157451897Y-71936727D01*
X157451890Y-71936714D01*
X157363898Y-71805025D01*
X157343020Y-71738347D01*
X157343000Y-71736134D01*
X157343000Y-67569296D01*
X157362685Y-67502257D01*
X157379315Y-67481619D01*
X158053506Y-66807427D01*
X158053511Y-66807424D01*
X158063714Y-66797220D01*
X158063716Y-66797220D01*
X158175520Y-66685416D01*
X158237825Y-66577498D01*
X158288391Y-66529284D01*
X158345212Y-66515499D01*
X158607871Y-66515499D01*
X158607872Y-66515499D01*
X158667483Y-66509091D01*
X158802331Y-66458796D01*
X158917546Y-66372546D01*
X159003796Y-66257331D01*
X159047048Y-66141365D01*
X159088917Y-66085433D01*
X159154381Y-66061015D01*
X159222654Y-66075866D01*
X159250910Y-66097018D01*
X159345437Y-66191545D01*
X159475850Y-66286296D01*
X159519323Y-66317881D01*
X159566794Y-66342068D01*
X159617590Y-66390042D01*
X159634500Y-66452553D01*
X159634500Y-75687803D01*
X159614815Y-75754842D01*
X159598181Y-75775484D01*
X158393139Y-76980525D01*
X158331816Y-77014010D01*
X158329650Y-77014461D01*
X158174308Y-77045361D01*
X158174298Y-77045364D01*
X158028627Y-77105702D01*
X158028614Y-77105709D01*
X157897511Y-77193310D01*
X157897507Y-77193313D01*
X157786013Y-77304807D01*
X157786010Y-77304811D01*
X157698409Y-77435914D01*
X157698402Y-77435927D01*
X157638064Y-77581598D01*
X157638061Y-77581610D01*
X157607300Y-77736253D01*
X157607300Y-77893946D01*
X157638061Y-78048589D01*
X157638064Y-78048601D01*
X157698402Y-78194272D01*
X157698409Y-78194285D01*
X157786010Y-78325388D01*
X157786013Y-78325392D01*
X157897507Y-78436886D01*
X157897511Y-78436889D01*
X158028614Y-78524490D01*
X158028627Y-78524497D01*
X158144434Y-78572465D01*
X158174303Y-78584837D01*
X158294692Y-78608784D01*
X158328953Y-78615599D01*
X158328956Y-78615600D01*
X158328958Y-78615600D01*
X158486644Y-78615600D01*
X158486645Y-78615599D01*
X158641297Y-78584837D01*
X158786979Y-78524494D01*
X158918089Y-78436889D01*
X159029589Y-78325389D01*
X159117194Y-78194279D01*
X159177537Y-78048597D01*
X159205772Y-77906650D01*
X159208438Y-77893250D01*
X159240823Y-77831339D01*
X159242319Y-77829815D01*
X160593506Y-76478627D01*
X160593511Y-76478624D01*
X160603714Y-76468420D01*
X160603716Y-76468420D01*
X160715520Y-76356616D01*
X160751944Y-76293528D01*
X160791739Y-76224601D01*
X160791741Y-76224595D01*
X160794577Y-76219685D01*
X160835501Y-76066957D01*
X160835501Y-75908843D01*
X160835501Y-75901248D01*
X160835500Y-75901230D01*
X160835500Y-73317648D01*
X162199500Y-73317648D01*
X162199500Y-73522351D01*
X162231522Y-73724534D01*
X162294781Y-73919223D01*
X162358691Y-74044653D01*
X162384813Y-74095919D01*
X162387715Y-74101613D01*
X162508028Y-74267213D01*
X162652786Y-74411971D01*
X162778115Y-74503026D01*
X162818390Y-74532287D01*
X162887482Y-74567491D01*
X163000776Y-74625218D01*
X163000778Y-74625218D01*
X163000781Y-74625220D01*
X163105137Y-74659127D01*
X163195465Y-74688477D01*
X163285821Y-74702788D01*
X163397648Y-74720500D01*
X163397649Y-74720500D01*
X163602351Y-74720500D01*
X163602352Y-74720500D01*
X163804534Y-74688477D01*
X163999219Y-74625220D01*
X164181610Y-74532287D01*
X164274590Y-74464732D01*
X164347213Y-74411971D01*
X164347215Y-74411968D01*
X164347219Y-74411966D01*
X164491966Y-74267219D01*
X164491968Y-74267215D01*
X164491971Y-74267213D01*
X164544732Y-74194590D01*
X164612287Y-74101610D01*
X164705220Y-73919219D01*
X164768477Y-73724534D01*
X164800500Y-73522352D01*
X164800500Y-73317648D01*
X164796796Y-73294260D01*
X164768477Y-73115465D01*
X164718223Y-72960800D01*
X164705220Y-72920781D01*
X164705218Y-72920778D01*
X164705218Y-72920776D01*
X164640401Y-72793567D01*
X164612287Y-72738390D01*
X164584396Y-72700001D01*
X164491971Y-72572786D01*
X164347213Y-72428028D01*
X164181613Y-72307715D01*
X164181612Y-72307714D01*
X164181610Y-72307713D01*
X164100731Y-72266503D01*
X163999223Y-72214781D01*
X163804534Y-72151522D01*
X163610692Y-72120821D01*
X163602352Y-72119500D01*
X163397648Y-72119500D01*
X163389308Y-72120821D01*
X163195465Y-72151522D01*
X163000776Y-72214781D01*
X162818386Y-72307715D01*
X162652786Y-72428028D01*
X162508028Y-72572786D01*
X162387715Y-72738386D01*
X162294781Y-72920776D01*
X162231522Y-73115465D01*
X162199500Y-73317648D01*
X160835500Y-73317648D01*
X160835500Y-66452553D01*
X160855185Y-66385514D01*
X160903206Y-66342068D01*
X160932326Y-66327231D01*
X160950678Y-66317880D01*
X161124563Y-66191545D01*
X161276545Y-66039563D01*
X161402880Y-65865678D01*
X161402881Y-65865675D01*
X161404990Y-65862773D01*
X161460320Y-65820107D01*
X161529933Y-65814128D01*
X161591728Y-65846734D01*
X161605626Y-65862772D01*
X161733838Y-66039239D01*
X161733838Y-66039240D01*
X161885759Y-66191161D01*
X162059583Y-66317452D01*
X162251024Y-66414996D01*
X162455359Y-66481388D01*
X162524999Y-66492418D01*
X162525000Y-66492418D01*
X162525000Y-65444560D01*
X162578147Y-65475245D01*
X162707857Y-65510000D01*
X162842143Y-65510000D01*
X162971853Y-65475245D01*
X163025000Y-65444560D01*
X163025000Y-66492418D01*
X163094638Y-66481388D01*
X163094641Y-66481388D01*
X163298975Y-66414996D01*
X163490416Y-66317452D01*
X163664240Y-66191161D01*
X163703266Y-66152135D01*
X166699500Y-66152135D01*
X166699500Y-67847870D01*
X166699501Y-67847876D01*
X166705908Y-67907483D01*
X166756202Y-68042328D01*
X166756206Y-68042335D01*
X166842452Y-68157544D01*
X166842455Y-68157547D01*
X166957664Y-68243793D01*
X166957671Y-68243797D01*
X167002618Y-68260561D01*
X167092517Y-68294091D01*
X167152127Y-68300500D01*
X167275500Y-68300499D01*
X167342539Y-68320183D01*
X167388294Y-68372987D01*
X167399500Y-68424499D01*
X167399500Y-86290830D01*
X167399499Y-86290848D01*
X167399499Y-86456554D01*
X167399498Y-86456554D01*
X167440423Y-86609285D01*
X167469358Y-86659400D01*
X167469359Y-86659404D01*
X167469360Y-86659404D01*
X167519479Y-86746214D01*
X167519481Y-86746217D01*
X167638349Y-86865085D01*
X167638355Y-86865090D01*
X168337871Y-87564606D01*
X168371356Y-87625929D01*
X168366372Y-87695621D01*
X168337871Y-87739968D01*
X168304517Y-87773321D01*
X168197109Y-87921155D01*
X168114153Y-88083966D01*
X168057684Y-88257758D01*
X168029100Y-88438229D01*
X168029100Y-89941770D01*
X168034783Y-89977648D01*
X168057685Y-90122245D01*
X168114152Y-90296031D01*
X168197109Y-90458844D01*
X168304515Y-90606676D01*
X168433724Y-90735885D01*
X168581556Y-90843291D01*
X168744369Y-90926248D01*
X168918155Y-90982715D01*
X168985835Y-90993434D01*
X169098630Y-91011300D01*
X169098635Y-91011300D01*
X169281370Y-91011300D01*
X169381631Y-90995419D01*
X169461845Y-90982715D01*
X169635631Y-90926248D01*
X169719205Y-90883664D01*
X169787874Y-90870769D01*
X169852615Y-90897045D01*
X169892872Y-90954152D01*
X169899500Y-90994150D01*
X169899500Y-93870830D01*
X169899499Y-93870848D01*
X169899499Y-94036554D01*
X169899498Y-94036554D01*
X169940423Y-94189285D01*
X169969358Y-94239400D01*
X169969359Y-94239404D01*
X169969360Y-94239404D01*
X170019479Y-94326214D01*
X170019481Y-94326217D01*
X170138349Y-94445085D01*
X170138355Y-94445090D01*
X170877869Y-95184605D01*
X170911354Y-95245928D01*
X170906370Y-95315620D01*
X170877872Y-95359965D01*
X170844512Y-95393326D01*
X170844511Y-95393327D01*
X170737111Y-95541152D01*
X170654153Y-95703966D01*
X170654152Y-95703968D01*
X170654152Y-95703969D01*
X170645608Y-95730264D01*
X170597684Y-95877758D01*
X170582473Y-95973797D01*
X170552544Y-96036932D01*
X170493232Y-96073863D01*
X170423369Y-96072865D01*
X170365137Y-96034255D01*
X170337527Y-95973797D01*
X170329293Y-95921812D01*
X170322315Y-95877755D01*
X170265848Y-95703969D01*
X170182891Y-95541156D01*
X170075485Y-95393324D01*
X169946276Y-95264115D01*
X169798444Y-95156709D01*
X169635631Y-95073752D01*
X169461845Y-95017285D01*
X169461843Y-95017284D01*
X169461841Y-95017284D01*
X169281370Y-94988700D01*
X169281365Y-94988700D01*
X169098635Y-94988700D01*
X169098630Y-94988700D01*
X168918158Y-95017284D01*
X168744366Y-95073753D01*
X168581555Y-95156709D01*
X168433721Y-95264117D01*
X168304517Y-95393321D01*
X168197109Y-95541155D01*
X168114153Y-95703966D01*
X168114152Y-95703968D01*
X168114152Y-95703969D01*
X168105608Y-95730264D01*
X168057684Y-95877758D01*
X168029100Y-96058229D01*
X168029100Y-97561770D01*
X168042473Y-97646202D01*
X168057685Y-97742245D01*
X168114152Y-97916031D01*
X168197109Y-98078844D01*
X168304515Y-98226676D01*
X168433724Y-98355885D01*
X168581556Y-98463291D01*
X168744369Y-98546248D01*
X168918155Y-98602715D01*
X168985835Y-98613434D01*
X169098630Y-98631300D01*
X169098635Y-98631300D01*
X169281370Y-98631300D01*
X169381631Y-98615419D01*
X169461845Y-98602715D01*
X169635631Y-98546248D01*
X169798444Y-98463291D01*
X169946276Y-98355885D01*
X170075485Y-98226676D01*
X170182891Y-98078844D01*
X170265848Y-97916031D01*
X170322315Y-97742245D01*
X170337527Y-97646202D01*
X170367456Y-97583067D01*
X170426768Y-97546136D01*
X170496630Y-97547134D01*
X170554863Y-97585744D01*
X170582473Y-97646202D01*
X170597685Y-97742245D01*
X170654152Y-97916031D01*
X170737109Y-98078844D01*
X170844515Y-98226676D01*
X170973724Y-98355885D01*
X171121556Y-98463291D01*
X171284369Y-98546248D01*
X171458155Y-98602715D01*
X171525835Y-98613434D01*
X171638630Y-98631300D01*
X171638635Y-98631300D01*
X171821370Y-98631300D01*
X171921631Y-98615419D01*
X172001845Y-98602715D01*
X172175631Y-98546248D01*
X172338444Y-98463291D01*
X172486276Y-98355885D01*
X172615485Y-98226676D01*
X172722891Y-98078844D01*
X172805848Y-97916031D01*
X172862315Y-97742245D01*
X172877527Y-97646202D01*
X172907456Y-97583067D01*
X172966768Y-97546136D01*
X173036630Y-97547134D01*
X173094863Y-97585744D01*
X173122473Y-97646202D01*
X173137685Y-97742245D01*
X173194152Y-97916031D01*
X173277109Y-98078844D01*
X173384515Y-98226676D01*
X173513724Y-98355885D01*
X173661556Y-98463291D01*
X173824369Y-98546248D01*
X173998155Y-98602715D01*
X174065835Y-98613434D01*
X174178630Y-98631300D01*
X174178635Y-98631300D01*
X174361370Y-98631300D01*
X174461631Y-98615419D01*
X174541845Y-98602715D01*
X174715631Y-98546248D01*
X174878444Y-98463291D01*
X175026276Y-98355885D01*
X175155485Y-98226676D01*
X175262891Y-98078844D01*
X175345848Y-97916031D01*
X175402315Y-97742245D01*
X175417527Y-97646202D01*
X175447456Y-97583067D01*
X175506768Y-97546136D01*
X175576630Y-97547134D01*
X175634863Y-97585744D01*
X175662473Y-97646202D01*
X175677685Y-97742245D01*
X175734152Y-97916031D01*
X175817109Y-98078844D01*
X175924515Y-98226676D01*
X176053724Y-98355885D01*
X176201556Y-98463291D01*
X176364369Y-98546248D01*
X176538155Y-98602715D01*
X176605835Y-98613434D01*
X176718630Y-98631300D01*
X176718635Y-98631300D01*
X176901370Y-98631300D01*
X177001631Y-98615419D01*
X177081845Y-98602715D01*
X177255631Y-98546248D01*
X177418444Y-98463291D01*
X177566276Y-98355885D01*
X177695485Y-98226676D01*
X177802891Y-98078844D01*
X177885848Y-97916031D01*
X177942315Y-97742245D01*
X177957527Y-97646202D01*
X177970900Y-97561770D01*
X177970900Y-96058229D01*
X177951843Y-95937915D01*
X177942315Y-95877755D01*
X177885848Y-95703969D01*
X177802891Y-95541156D01*
X177695485Y-95393324D01*
X177566276Y-95264115D01*
X177418444Y-95156709D01*
X177255631Y-95073752D01*
X177081845Y-95017285D01*
X177081843Y-95017284D01*
X177081841Y-95017284D01*
X176901370Y-94988700D01*
X176901365Y-94988700D01*
X176718635Y-94988700D01*
X176718630Y-94988700D01*
X176538158Y-95017284D01*
X176364366Y-95073753D01*
X176201555Y-95156709D01*
X176053721Y-95264117D01*
X175924517Y-95393321D01*
X175817109Y-95541155D01*
X175734153Y-95703966D01*
X175734152Y-95703968D01*
X175734152Y-95703969D01*
X175725608Y-95730264D01*
X175677684Y-95877758D01*
X175662473Y-95973797D01*
X175632544Y-96036932D01*
X175573232Y-96073863D01*
X175503369Y-96072865D01*
X175445137Y-96034255D01*
X175417527Y-95973797D01*
X175409293Y-95921812D01*
X175402315Y-95877755D01*
X175345848Y-95703969D01*
X175262891Y-95541156D01*
X175155485Y-95393324D01*
X175122128Y-95359967D01*
X175088643Y-95298644D01*
X175093627Y-95228952D01*
X175122124Y-95184610D01*
X175600913Y-94705821D01*
X175600916Y-94705820D01*
X175712720Y-94594016D01*
X175762839Y-94507204D01*
X175791777Y-94457085D01*
X175832700Y-94304358D01*
X175832700Y-94146243D01*
X175832700Y-90814223D01*
X175852385Y-90747184D01*
X175905189Y-90701429D01*
X175974347Y-90691485D01*
X176037903Y-90720510D01*
X176044381Y-90726542D01*
X176053724Y-90735885D01*
X176201556Y-90843291D01*
X176364369Y-90926248D01*
X176538155Y-90982715D01*
X176605835Y-90993434D01*
X176718630Y-91011300D01*
X176718635Y-91011300D01*
X176901370Y-91011300D01*
X177001631Y-90995419D01*
X177081845Y-90982715D01*
X177255631Y-90926248D01*
X177418444Y-90843291D01*
X177566276Y-90735885D01*
X177695485Y-90606676D01*
X177802891Y-90458844D01*
X177885848Y-90296031D01*
X177942315Y-90122245D01*
X177965217Y-89977648D01*
X177970900Y-89941770D01*
X177970900Y-88438229D01*
X177942315Y-88257758D01*
X177942315Y-88257755D01*
X177885848Y-88083969D01*
X177802891Y-87921156D01*
X177695485Y-87773324D01*
X177566276Y-87644115D01*
X177418444Y-87536709D01*
X177255631Y-87453752D01*
X177081845Y-87397285D01*
X177081843Y-87397284D01*
X177081841Y-87397284D01*
X176901370Y-87368700D01*
X176901365Y-87368700D01*
X176718635Y-87368700D01*
X176718630Y-87368700D01*
X176538158Y-87397284D01*
X176364366Y-87453753D01*
X176201555Y-87536709D01*
X176053721Y-87644117D01*
X176044381Y-87653458D01*
X175983058Y-87686943D01*
X175913366Y-87681959D01*
X175857433Y-87640087D01*
X175833016Y-87574623D01*
X175832700Y-87565777D01*
X175832700Y-80175466D01*
X180962500Y-80175466D01*
X180962500Y-80424533D01*
X180995008Y-80671463D01*
X181059473Y-80912049D01*
X181154783Y-81142148D01*
X181154788Y-81142159D01*
X181279313Y-81357841D01*
X181279319Y-81357849D01*
X181353900Y-81455045D01*
X182035974Y-80772971D01*
X182124587Y-80905590D01*
X182256910Y-81037913D01*
X182389527Y-81126525D01*
X181707453Y-81808598D01*
X181804650Y-81883180D01*
X181804658Y-81883186D01*
X182020340Y-82007711D01*
X182020351Y-82007716D01*
X182250450Y-82103026D01*
X182491036Y-82167491D01*
X182737966Y-82200000D01*
X182987034Y-82200000D01*
X183233963Y-82167491D01*
X183474549Y-82103026D01*
X183704648Y-82007716D01*
X183704659Y-82007711D01*
X183920355Y-81883178D01*
X184017545Y-81808600D01*
X184017545Y-81808597D01*
X183335472Y-81126525D01*
X183468090Y-81037913D01*
X183600413Y-80905590D01*
X183689024Y-80772972D01*
X184371097Y-81455045D01*
X184371100Y-81455045D01*
X184445678Y-81357855D01*
X184570211Y-81142159D01*
X184570216Y-81142148D01*
X184665526Y-80912049D01*
X184729991Y-80671463D01*
X184762500Y-80424533D01*
X184762500Y-80175466D01*
X184729991Y-79928536D01*
X184665526Y-79687950D01*
X184570216Y-79457851D01*
X184570211Y-79457840D01*
X184445686Y-79242158D01*
X184445680Y-79242150D01*
X184371098Y-79144953D01*
X183689024Y-79827026D01*
X183600413Y-79694410D01*
X183468090Y-79562087D01*
X183335471Y-79473473D01*
X184017545Y-78791400D01*
X183920349Y-78716819D01*
X183920341Y-78716813D01*
X183704659Y-78592288D01*
X183704648Y-78592283D01*
X183474549Y-78496973D01*
X183233963Y-78432508D01*
X182987034Y-78400000D01*
X182737966Y-78400000D01*
X182491036Y-78432508D01*
X182250450Y-78496973D01*
X182020351Y-78592283D01*
X182020347Y-78592285D01*
X181804643Y-78716823D01*
X181707453Y-78791399D01*
X181707453Y-78791400D01*
X182389527Y-79473474D01*
X182256910Y-79562087D01*
X182124587Y-79694410D01*
X182035974Y-79827027D01*
X181353900Y-79144953D01*
X181353899Y-79144953D01*
X181279323Y-79242143D01*
X181154785Y-79457847D01*
X181154783Y-79457851D01*
X181059473Y-79687950D01*
X180995008Y-79928536D01*
X180962500Y-80175466D01*
X175832700Y-80175466D01*
X175832700Y-79395059D01*
X175832701Y-79395046D01*
X175832701Y-79226945D01*
X175832701Y-79226943D01*
X175791777Y-79074215D01*
X175762839Y-79024095D01*
X175712720Y-78937284D01*
X175600916Y-78825480D01*
X175600915Y-78825479D01*
X175596585Y-78821149D01*
X175596574Y-78821139D01*
X174743408Y-77967973D01*
X174709923Y-77906650D01*
X174714907Y-77836958D01*
X174756779Y-77781025D01*
X174822243Y-77756608D01*
X174850480Y-77757818D01*
X174962116Y-77775500D01*
X174962117Y-77775500D01*
X175162883Y-77775500D01*
X175162884Y-77775500D01*
X175361180Y-77744093D01*
X175552122Y-77682052D01*
X175731008Y-77590905D01*
X175893432Y-77472897D01*
X176035397Y-77330932D01*
X176153405Y-77168508D01*
X176244552Y-76989622D01*
X176306593Y-76798680D01*
X176338000Y-76600384D01*
X176338000Y-76399616D01*
X176306593Y-76201320D01*
X176244552Y-76010378D01*
X176244550Y-76010375D01*
X176244550Y-76010373D01*
X176185497Y-75894477D01*
X176153405Y-75831492D01*
X176035397Y-75669068D01*
X175893432Y-75527103D01*
X175731008Y-75409095D01*
X175552126Y-75317949D01*
X175361180Y-75255907D01*
X175291773Y-75244914D01*
X175162884Y-75224500D01*
X174962116Y-75224500D01*
X174946837Y-75226920D01*
X174763818Y-75255907D01*
X174748115Y-75261009D01*
X174678274Y-75263002D01*
X174618442Y-75226920D01*
X174587616Y-75164219D01*
X174585800Y-75143077D01*
X174585800Y-72575466D01*
X180962500Y-72575466D01*
X180962500Y-72824533D01*
X180995008Y-73071463D01*
X181059473Y-73312049D01*
X181154783Y-73542148D01*
X181154788Y-73542159D01*
X181279313Y-73757841D01*
X181279319Y-73757849D01*
X181353900Y-73855045D01*
X182035974Y-73172971D01*
X182124587Y-73305590D01*
X182256910Y-73437913D01*
X182389527Y-73526525D01*
X181707453Y-74208598D01*
X181804650Y-74283180D01*
X181804658Y-74283186D01*
X182020340Y-74407711D01*
X182020351Y-74407716D01*
X182250450Y-74503026D01*
X182491036Y-74567491D01*
X182737966Y-74600000D01*
X182987034Y-74600000D01*
X183233963Y-74567491D01*
X183474549Y-74503026D01*
X183704648Y-74407716D01*
X183704659Y-74407711D01*
X183920355Y-74283178D01*
X184017545Y-74208600D01*
X184017545Y-74208597D01*
X183335472Y-73526525D01*
X183468090Y-73437913D01*
X183600413Y-73305590D01*
X183689024Y-73172972D01*
X184371097Y-73855045D01*
X184371100Y-73855045D01*
X184445678Y-73757855D01*
X184570211Y-73542159D01*
X184570216Y-73542148D01*
X184665526Y-73312049D01*
X184729991Y-73071463D01*
X184762500Y-72824533D01*
X184762500Y-72575466D01*
X184729991Y-72328536D01*
X184665526Y-72087950D01*
X184570216Y-71857851D01*
X184570211Y-71857840D01*
X184445686Y-71642158D01*
X184445680Y-71642150D01*
X184371098Y-71544953D01*
X183689024Y-72227026D01*
X183600413Y-72094410D01*
X183468090Y-71962087D01*
X183335471Y-71873473D01*
X184017545Y-71191400D01*
X183920349Y-71116819D01*
X183920341Y-71116813D01*
X183704659Y-70992288D01*
X183704648Y-70992283D01*
X183474549Y-70896973D01*
X183233963Y-70832508D01*
X182987034Y-70800000D01*
X182737966Y-70800000D01*
X182491036Y-70832508D01*
X182250450Y-70896973D01*
X182020351Y-70992283D01*
X182020347Y-70992285D01*
X181804643Y-71116823D01*
X181707453Y-71191399D01*
X181707453Y-71191400D01*
X182389527Y-71873474D01*
X182256910Y-71962087D01*
X182124587Y-72094410D01*
X182035974Y-72227027D01*
X181353900Y-71544953D01*
X181353899Y-71544953D01*
X181279323Y-71642143D01*
X181154785Y-71857847D01*
X181154783Y-71857851D01*
X181059473Y-72087950D01*
X180995008Y-72328536D01*
X180962500Y-72575466D01*
X174585800Y-72575466D01*
X174585800Y-70211396D01*
X174605485Y-70144357D01*
X174622114Y-70123720D01*
X176153406Y-68592427D01*
X176153411Y-68592424D01*
X176163614Y-68582220D01*
X176163616Y-68582220D01*
X176275420Y-68470416D01*
X176328025Y-68379300D01*
X176337728Y-68362493D01*
X176388297Y-68314281D01*
X176445112Y-68300499D01*
X176642771Y-68300499D01*
X176642772Y-68300499D01*
X176702383Y-68294091D01*
X176837231Y-68243796D01*
X176952446Y-68157546D01*
X177038696Y-68042331D01*
X177088991Y-67907483D01*
X177095400Y-67847873D01*
X177095399Y-67835612D01*
X177098975Y-67821052D01*
X177109242Y-67803380D01*
X177114967Y-67783760D01*
X177126439Y-67773783D01*
X177134077Y-67760640D01*
X177152267Y-67751325D01*
X177167692Y-67737913D01*
X177184180Y-67734984D01*
X177196267Y-67728795D01*
X177210918Y-67730234D01*
X177211154Y-67730192D01*
X177894900Y-67046446D01*
X177894900Y-67052661D01*
X177922159Y-67154394D01*
X177974820Y-67245606D01*
X178049294Y-67320080D01*
X178140506Y-67372741D01*
X178242239Y-67400000D01*
X178248453Y-67400000D01*
X177568976Y-68079474D01*
X177613550Y-68111859D01*
X177795868Y-68204755D01*
X177990482Y-68267990D01*
X178192583Y-68300000D01*
X178397217Y-68300000D01*
X178599317Y-68267990D01*
X178793931Y-68204755D01*
X178976249Y-68111859D01*
X179020821Y-68079474D01*
X178341347Y-67400000D01*
X178347561Y-67400000D01*
X178449294Y-67372741D01*
X178540506Y-67320080D01*
X178614980Y-67245606D01*
X178667641Y-67154394D01*
X178694900Y-67052661D01*
X178694900Y-67046447D01*
X179374374Y-67725921D01*
X179406759Y-67681349D01*
X179499655Y-67499031D01*
X179562890Y-67304417D01*
X179594900Y-67102317D01*
X179594900Y-66897682D01*
X179562890Y-66695582D01*
X179499655Y-66500968D01*
X179406759Y-66318650D01*
X179374374Y-66274077D01*
X179374374Y-66274076D01*
X178694900Y-66953551D01*
X178694900Y-66947339D01*
X178667641Y-66845606D01*
X178614980Y-66754394D01*
X178540506Y-66679920D01*
X178449294Y-66627259D01*
X178347561Y-66600000D01*
X178341346Y-66600000D01*
X179020822Y-65920524D01*
X179020821Y-65920523D01*
X178976259Y-65888147D01*
X178976250Y-65888141D01*
X178793931Y-65795244D01*
X178599317Y-65732009D01*
X178397217Y-65700000D01*
X178192583Y-65700000D01*
X177990482Y-65732009D01*
X177795868Y-65795244D01*
X177613544Y-65888143D01*
X177568977Y-65920523D01*
X177568977Y-65920524D01*
X178248454Y-66600000D01*
X178242239Y-66600000D01*
X178140506Y-66627259D01*
X178049294Y-66679920D01*
X177974820Y-66754394D01*
X177922159Y-66845606D01*
X177894900Y-66947339D01*
X177894900Y-66953553D01*
X177210413Y-66269066D01*
X177160749Y-66258633D01*
X177110993Y-66209581D01*
X177098976Y-66178947D01*
X177095399Y-66164378D01*
X177095399Y-66152128D01*
X177088991Y-66092517D01*
X177056112Y-66004365D01*
X177056111Y-66004359D01*
X177038697Y-65957671D01*
X177038693Y-65957664D01*
X176952447Y-65842455D01*
X176952444Y-65842452D01*
X176837235Y-65756206D01*
X176837228Y-65756202D01*
X176702382Y-65705908D01*
X176702383Y-65705908D01*
X176642783Y-65699501D01*
X176642781Y-65699500D01*
X176642773Y-65699500D01*
X176642764Y-65699500D01*
X174947029Y-65699500D01*
X174947023Y-65699501D01*
X174887416Y-65705908D01*
X174752571Y-65756202D01*
X174752564Y-65756206D01*
X174637355Y-65842452D01*
X174637352Y-65842455D01*
X174551106Y-65957664D01*
X174551102Y-65957671D01*
X174500808Y-66092517D01*
X174494401Y-66152116D01*
X174494400Y-66152135D01*
X174494400Y-67847870D01*
X174494401Y-67847876D01*
X174500808Y-67907483D01*
X174551102Y-68042328D01*
X174551106Y-68042335D01*
X174637352Y-68157544D01*
X174637353Y-68157544D01*
X174637354Y-68157546D01*
X174657605Y-68172706D01*
X174667176Y-68179871D01*
X174709047Y-68235806D01*
X174714030Y-68305497D01*
X174680545Y-68366818D01*
X173616586Y-69430778D01*
X173504781Y-69542582D01*
X173504775Y-69542590D01*
X173458654Y-69622476D01*
X173458654Y-69622477D01*
X173425723Y-69679515D01*
X173384799Y-69832243D01*
X173384799Y-69832245D01*
X173384799Y-70000346D01*
X173384800Y-70000359D01*
X173384800Y-77972430D01*
X173384799Y-77972448D01*
X173384799Y-78138154D01*
X173384798Y-78138154D01*
X173399838Y-78194285D01*
X173425723Y-78290885D01*
X173442750Y-78320376D01*
X173445646Y-78325392D01*
X173504779Y-78427814D01*
X173504781Y-78427817D01*
X173623649Y-78546685D01*
X173623655Y-78546690D01*
X174595381Y-79518416D01*
X174628866Y-79579739D01*
X174631700Y-79606097D01*
X174631700Y-81804303D01*
X174612015Y-81871342D01*
X174559211Y-81917097D01*
X174490053Y-81927041D01*
X174426497Y-81898016D01*
X174420019Y-81891984D01*
X171136819Y-78608784D01*
X171103334Y-78547461D01*
X171100500Y-78521103D01*
X171100500Y-74478301D01*
X171120185Y-74411262D01*
X171168206Y-74367816D01*
X171181610Y-74360987D01*
X171347219Y-74240666D01*
X171491966Y-74095919D01*
X171491968Y-74095915D01*
X171491971Y-74095913D01*
X171547292Y-74019768D01*
X171612287Y-73930310D01*
X171705220Y-73747919D01*
X171768477Y-73553234D01*
X171800500Y-73351052D01*
X171800500Y-73146348D01*
X171788551Y-73070905D01*
X171768477Y-72944165D01*
X171705218Y-72749476D01*
X171649994Y-72641095D01*
X171612287Y-72567090D01*
X171567903Y-72506000D01*
X171491971Y-72401486D01*
X171347213Y-72256728D01*
X171181613Y-72136415D01*
X171181612Y-72136414D01*
X171181610Y-72136413D01*
X171099175Y-72094410D01*
X170999223Y-72043481D01*
X170804534Y-71980222D01*
X170629995Y-71952578D01*
X170602352Y-71948200D01*
X170397648Y-71948200D01*
X170373329Y-71952051D01*
X170195465Y-71980222D01*
X170000776Y-72043481D01*
X169818386Y-72136415D01*
X169652786Y-72256728D01*
X169508028Y-72401486D01*
X169387715Y-72567086D01*
X169294781Y-72749476D01*
X169231522Y-72944165D01*
X169199500Y-73146348D01*
X169199500Y-73351051D01*
X169231522Y-73553234D01*
X169294781Y-73747923D01*
X169387715Y-73930313D01*
X169508028Y-74095913D01*
X169508034Y-74095919D01*
X169652781Y-74240666D01*
X169818390Y-74360987D01*
X169831793Y-74367816D01*
X169882589Y-74415788D01*
X169899500Y-74478301D01*
X169899500Y-78734530D01*
X169899499Y-78734548D01*
X169899499Y-78900254D01*
X169899498Y-78900254D01*
X169916794Y-78964802D01*
X169940423Y-79052985D01*
X169940424Y-79052986D01*
X169952680Y-79074216D01*
X169952681Y-79074217D01*
X170019475Y-79189909D01*
X170019481Y-79189917D01*
X170138349Y-79308785D01*
X170138355Y-79308790D01*
X173633181Y-82803616D01*
X173666666Y-82864939D01*
X173669500Y-82891297D01*
X173669500Y-87467756D01*
X173649815Y-87534795D01*
X173618386Y-87568074D01*
X173513721Y-87644117D01*
X173384517Y-87773321D01*
X173277109Y-87921155D01*
X173194153Y-88083966D01*
X173137684Y-88257758D01*
X173122473Y-88353797D01*
X173092544Y-88416932D01*
X173033232Y-88453863D01*
X172963369Y-88452865D01*
X172905137Y-88414255D01*
X172877527Y-88353797D01*
X172862315Y-88257758D01*
X172862315Y-88257755D01*
X172805848Y-88083969D01*
X172722891Y-87921156D01*
X172615485Y-87773324D01*
X172486276Y-87644115D01*
X172338444Y-87536709D01*
X172175631Y-87453752D01*
X172001845Y-87397285D01*
X172001843Y-87397284D01*
X172001841Y-87397284D01*
X171821370Y-87368700D01*
X171821365Y-87368700D01*
X171638635Y-87368700D01*
X171638630Y-87368700D01*
X171458158Y-87397284D01*
X171284363Y-87453754D01*
X171280785Y-87455577D01*
X171212115Y-87468467D01*
X171147376Y-87442185D01*
X171107125Y-87385075D01*
X171100500Y-87345087D01*
X171100500Y-84638301D01*
X171120185Y-84571262D01*
X171168206Y-84527816D01*
X171181610Y-84520987D01*
X171347219Y-84400666D01*
X171491966Y-84255919D01*
X171491968Y-84255915D01*
X171491971Y-84255913D01*
X171599278Y-84108215D01*
X171612287Y-84090310D01*
X171705220Y-83907919D01*
X171768477Y-83713234D01*
X171800500Y-83511052D01*
X171800500Y-83306348D01*
X171768477Y-83104166D01*
X171705220Y-82909481D01*
X171705218Y-82909478D01*
X171705218Y-82909476D01*
X171649691Y-82800500D01*
X171612287Y-82727090D01*
X171596059Y-82704754D01*
X171491971Y-82561486D01*
X171347213Y-82416728D01*
X171181613Y-82296415D01*
X171181612Y-82296414D01*
X171181610Y-82296413D01*
X171124653Y-82267391D01*
X170999223Y-82203481D01*
X170804534Y-82140222D01*
X170629995Y-82112578D01*
X170602352Y-82108200D01*
X170397648Y-82108200D01*
X170373329Y-82112051D01*
X170195465Y-82140222D01*
X170000776Y-82203481D01*
X169818386Y-82296415D01*
X169652786Y-82416728D01*
X169508028Y-82561486D01*
X169387715Y-82727086D01*
X169294781Y-82909476D01*
X169231522Y-83104165D01*
X169199500Y-83306348D01*
X169199500Y-83511051D01*
X169231522Y-83713234D01*
X169294781Y-83907923D01*
X169387715Y-84090313D01*
X169508028Y-84255913D01*
X169508034Y-84255919D01*
X169652781Y-84400666D01*
X169818390Y-84520987D01*
X169831793Y-84527816D01*
X169882589Y-84575788D01*
X169899500Y-84638301D01*
X169899500Y-87132614D01*
X169879815Y-87199653D01*
X169827011Y-87245408D01*
X169757853Y-87255352D01*
X169694297Y-87226327D01*
X169686468Y-87218923D01*
X169675784Y-87207902D01*
X169670520Y-87198784D01*
X169558716Y-87086980D01*
X169558713Y-87086978D01*
X168636819Y-86165084D01*
X168603334Y-86103761D01*
X168600500Y-86077403D01*
X168600500Y-68424499D01*
X168620185Y-68357460D01*
X168672989Y-68311705D01*
X168724500Y-68300499D01*
X168847871Y-68300499D01*
X168847872Y-68300499D01*
X168907483Y-68294091D01*
X169042331Y-68243796D01*
X169157546Y-68157546D01*
X169243796Y-68042331D01*
X169294091Y-67907483D01*
X169300500Y-67847873D01*
X169300499Y-67835612D01*
X169304075Y-67821052D01*
X169314342Y-67803380D01*
X169320067Y-67783760D01*
X169331539Y-67773783D01*
X169339177Y-67760640D01*
X169357367Y-67751325D01*
X169372792Y-67737913D01*
X169389280Y-67734984D01*
X169401367Y-67728795D01*
X169416018Y-67730234D01*
X169416254Y-67730192D01*
X170100000Y-67046446D01*
X170100000Y-67052661D01*
X170127259Y-67154394D01*
X170179920Y-67245606D01*
X170254394Y-67320080D01*
X170345606Y-67372741D01*
X170447339Y-67400000D01*
X170453553Y-67400000D01*
X169774076Y-68079474D01*
X169818650Y-68111859D01*
X170000968Y-68204755D01*
X170195582Y-68267990D01*
X170397683Y-68300000D01*
X170602317Y-68300000D01*
X170804417Y-68267990D01*
X170999031Y-68204755D01*
X171181349Y-68111859D01*
X171225921Y-68079474D01*
X170546447Y-67400000D01*
X170552661Y-67400000D01*
X170654394Y-67372741D01*
X170745606Y-67320080D01*
X170820080Y-67245606D01*
X170872741Y-67154394D01*
X170900000Y-67052661D01*
X170900000Y-67046448D01*
X171579474Y-67725922D01*
X171579474Y-67725921D01*
X171611859Y-67681349D01*
X171704755Y-67499031D01*
X171767990Y-67304417D01*
X171800000Y-67102317D01*
X171800000Y-66897682D01*
X171767990Y-66695582D01*
X171704755Y-66500968D01*
X171611859Y-66318650D01*
X171579474Y-66274077D01*
X171579474Y-66274076D01*
X170900000Y-66953551D01*
X170900000Y-66947339D01*
X170872741Y-66845606D01*
X170820080Y-66754394D01*
X170745606Y-66679920D01*
X170654394Y-66627259D01*
X170552661Y-66600000D01*
X170546446Y-66600000D01*
X171225922Y-65920524D01*
X171225921Y-65920523D01*
X171181359Y-65888147D01*
X171181350Y-65888141D01*
X170999031Y-65795244D01*
X170804417Y-65732009D01*
X170602317Y-65700000D01*
X170397683Y-65700000D01*
X170195582Y-65732009D01*
X170000968Y-65795244D01*
X169818644Y-65888143D01*
X169774077Y-65920523D01*
X169774077Y-65920524D01*
X170453554Y-66600000D01*
X170447339Y-66600000D01*
X170345606Y-66627259D01*
X170254394Y-66679920D01*
X170179920Y-66754394D01*
X170127259Y-66845606D01*
X170100000Y-66947339D01*
X170100000Y-66953553D01*
X169415513Y-66269066D01*
X169365849Y-66258633D01*
X169316093Y-66209581D01*
X169304076Y-66178947D01*
X169300499Y-66164378D01*
X169300499Y-66152128D01*
X169294091Y-66092517D01*
X169261212Y-66004365D01*
X169261211Y-66004359D01*
X169243797Y-65957671D01*
X169243793Y-65957664D01*
X169157547Y-65842455D01*
X169157544Y-65842452D01*
X169042335Y-65756206D01*
X169042328Y-65756202D01*
X168907482Y-65705908D01*
X168907483Y-65705908D01*
X168847883Y-65699501D01*
X168847881Y-65699500D01*
X168847873Y-65699500D01*
X168847864Y-65699500D01*
X167152129Y-65699500D01*
X167152123Y-65699501D01*
X167092516Y-65705908D01*
X166957671Y-65756202D01*
X166957664Y-65756206D01*
X166842455Y-65842452D01*
X166842452Y-65842455D01*
X166756206Y-65957664D01*
X166756202Y-65957671D01*
X166705908Y-66092517D01*
X166699501Y-66152116D01*
X166699500Y-66152135D01*
X163703266Y-66152135D01*
X163794277Y-66061125D01*
X163816161Y-66039240D01*
X163942452Y-65865416D01*
X164039996Y-65673975D01*
X164106388Y-65469642D01*
X164106388Y-65469639D01*
X164140000Y-65257427D01*
X164140000Y-65250000D01*
X163219560Y-65250000D01*
X163250245Y-65196853D01*
X163285000Y-65067143D01*
X163285000Y-64932857D01*
X163275566Y-64897648D01*
X182199500Y-64897648D01*
X182199500Y-65102351D01*
X182231522Y-65304534D01*
X182294781Y-65499223D01*
X182358691Y-65624653D01*
X182383922Y-65674170D01*
X182387715Y-65681613D01*
X182508028Y-65847213D01*
X182652786Y-65991971D01*
X182790928Y-66092335D01*
X182818390Y-66112287D01*
X182934607Y-66171503D01*
X183000776Y-66205218D01*
X183000778Y-66205218D01*
X183000781Y-66205220D01*
X183105137Y-66239127D01*
X183195465Y-66268477D01*
X183230822Y-66274077D01*
X183397648Y-66300500D01*
X183397649Y-66300500D01*
X183602351Y-66300500D01*
X183602352Y-66300500D01*
X183804534Y-66268477D01*
X183999219Y-66205220D01*
X184181610Y-66112287D01*
X184295251Y-66029723D01*
X184347213Y-65991971D01*
X184347215Y-65991968D01*
X184347219Y-65991966D01*
X184491966Y-65847219D01*
X184491968Y-65847215D01*
X184491971Y-65847213D01*
X184575670Y-65732009D01*
X184612287Y-65681610D01*
X184705220Y-65499219D01*
X184768477Y-65304534D01*
X184800500Y-65102352D01*
X184800500Y-64897648D01*
X184785532Y-64803147D01*
X184768477Y-64695465D01*
X184714793Y-64530245D01*
X184705220Y-64500781D01*
X184705218Y-64500778D01*
X184705218Y-64500776D01*
X184671503Y-64434607D01*
X184612287Y-64318390D01*
X184593435Y-64292442D01*
X184491971Y-64152786D01*
X184347213Y-64008028D01*
X184181613Y-63887715D01*
X184181612Y-63887714D01*
X184181610Y-63887713D01*
X184098525Y-63845379D01*
X183999223Y-63794781D01*
X183804534Y-63731522D01*
X183629995Y-63703878D01*
X183602352Y-63699500D01*
X183397648Y-63699500D01*
X183373329Y-63703351D01*
X183195465Y-63731522D01*
X183000776Y-63794781D01*
X182818386Y-63887715D01*
X182652786Y-64008028D01*
X182508028Y-64152786D01*
X182387715Y-64318386D01*
X182294781Y-64500776D01*
X182231522Y-64695465D01*
X182199500Y-64897648D01*
X163275566Y-64897648D01*
X163250245Y-64803147D01*
X163219560Y-64750000D01*
X164140000Y-64750000D01*
X164140000Y-64742572D01*
X164106388Y-64530360D01*
X164106388Y-64530357D01*
X164039996Y-64326024D01*
X163942452Y-64134583D01*
X163816161Y-63960759D01*
X163664240Y-63808838D01*
X163490416Y-63682547D01*
X163298975Y-63585003D01*
X163094635Y-63518610D01*
X163094636Y-63518610D01*
X163025000Y-63507581D01*
X163025000Y-64555439D01*
X162971853Y-64524755D01*
X162842143Y-64490000D01*
X162707857Y-64490000D01*
X162578147Y-64524755D01*
X162525000Y-64555439D01*
X162525000Y-63507581D01*
X162455364Y-63518610D01*
X162251024Y-63585003D01*
X162059583Y-63682547D01*
X161885759Y-63808838D01*
X161733838Y-63960759D01*
X161733838Y-63960760D01*
X161605626Y-64137227D01*
X161550296Y-64179892D01*
X161480682Y-64185871D01*
X161418887Y-64153265D01*
X161404990Y-64137226D01*
X161283693Y-63970276D01*
X161276545Y-63960437D01*
X161124563Y-63808455D01*
X160950678Y-63682120D01*
X160899234Y-63655908D01*
X160759170Y-63584541D01*
X160759167Y-63584540D01*
X160554757Y-63518124D01*
X160413229Y-63495708D01*
X160342467Y-63484500D01*
X160127533Y-63484500D01*
X160056770Y-63495708D01*
X159915243Y-63518124D01*
X159915240Y-63518124D01*
X159710832Y-63584540D01*
X159710829Y-63584541D01*
X159519321Y-63682120D01*
X159345438Y-63808454D01*
X159250910Y-63902982D01*
X159189586Y-63936466D01*
X159119895Y-63931482D01*
X159063962Y-63889610D01*
X159047047Y-63858632D01*
X159003798Y-63742673D01*
X159003793Y-63742664D01*
X158917547Y-63627455D01*
X158917544Y-63627452D01*
X158802335Y-63541206D01*
X158802328Y-63541202D01*
X158667482Y-63490908D01*
X158667483Y-63490908D01*
X158607883Y-63484501D01*
X158607881Y-63484500D01*
X158607873Y-63484500D01*
X158607864Y-63484500D01*
X156782129Y-63484500D01*
X156782123Y-63484501D01*
X156722516Y-63490908D01*
X156587671Y-63541202D01*
X156587664Y-63541206D01*
X156472455Y-63627452D01*
X156472452Y-63627455D01*
X156386206Y-63742664D01*
X156386202Y-63742671D01*
X156335908Y-63877517D01*
X156329501Y-63937116D01*
X156329500Y-63937135D01*
X156329500Y-66062870D01*
X156329501Y-66062876D01*
X156335908Y-66122483D01*
X156386202Y-66257328D01*
X156386206Y-66257335D01*
X156432107Y-66318650D01*
X156472454Y-66372546D01*
X156539449Y-66422698D01*
X156581319Y-66478631D01*
X156586303Y-66548323D01*
X156552818Y-66609645D01*
X156373786Y-66788678D01*
X156261981Y-66900482D01*
X156261979Y-66900485D01*
X156211861Y-66987294D01*
X156211859Y-66987296D01*
X156182925Y-67037409D01*
X156182924Y-67037410D01*
X156182923Y-67037415D01*
X156141999Y-67190143D01*
X156141999Y-67190145D01*
X156141999Y-67358246D01*
X156142000Y-67358259D01*
X156142000Y-71736134D01*
X156122315Y-71803173D01*
X156121102Y-71805025D01*
X156033109Y-71936714D01*
X156033102Y-71936727D01*
X155972764Y-72082398D01*
X155972761Y-72082410D01*
X155942000Y-72237053D01*
X155942000Y-72394746D01*
X155972761Y-72549389D01*
X155972764Y-72549401D01*
X156007761Y-72633891D01*
X156017200Y-72681343D01*
X156017200Y-94091634D01*
X155997515Y-94158673D01*
X155996302Y-94160525D01*
X155908309Y-94292214D01*
X155908302Y-94292227D01*
X155847964Y-94437898D01*
X155847961Y-94437910D01*
X155817200Y-94592553D01*
X133287000Y-94592553D01*
X133287000Y-92421153D01*
X142699500Y-92421153D01*
X142699500Y-92578846D01*
X142730261Y-92733489D01*
X142730264Y-92733501D01*
X142790602Y-92879172D01*
X142790609Y-92879185D01*
X142878210Y-93010288D01*
X142878213Y-93010292D01*
X142989707Y-93121786D01*
X142989711Y-93121789D01*
X143120814Y-93209390D01*
X143120827Y-93209397D01*
X143266498Y-93269735D01*
X143266503Y-93269737D01*
X143421153Y-93300499D01*
X143421156Y-93300500D01*
X143421158Y-93300500D01*
X143578844Y-93300500D01*
X143578845Y-93300499D01*
X143733497Y-93269737D01*
X143879179Y-93209394D01*
X143879185Y-93209390D01*
X144010875Y-93121398D01*
X144077553Y-93100520D01*
X144079766Y-93100500D01*
X151420234Y-93100500D01*
X151487273Y-93120185D01*
X151489125Y-93121398D01*
X151620814Y-93209390D01*
X151620827Y-93209397D01*
X151766498Y-93269735D01*
X151766503Y-93269737D01*
X151921153Y-93300499D01*
X151921156Y-93300500D01*
X151921158Y-93300500D01*
X152078844Y-93300500D01*
X152078845Y-93300499D01*
X152233497Y-93269737D01*
X152379179Y-93209394D01*
X152510289Y-93121789D01*
X152621789Y-93010289D01*
X152709394Y-92879179D01*
X152769737Y-92733497D01*
X152800500Y-92578842D01*
X152800500Y-92421158D01*
X152800500Y-92421155D01*
X152800499Y-92421153D01*
X152769738Y-92266510D01*
X152769737Y-92266503D01*
X152769735Y-92266498D01*
X152709397Y-92120827D01*
X152709390Y-92120814D01*
X152621789Y-91989711D01*
X152621786Y-91989707D01*
X152510292Y-91878213D01*
X152510288Y-91878210D01*
X152379185Y-91790609D01*
X152379172Y-91790602D01*
X152233501Y-91730264D01*
X152233489Y-91730261D01*
X152078845Y-91699500D01*
X152078842Y-91699500D01*
X151921158Y-91699500D01*
X151921155Y-91699500D01*
X151766510Y-91730261D01*
X151766498Y-91730264D01*
X151620827Y-91790602D01*
X151620814Y-91790609D01*
X151489125Y-91878602D01*
X151422447Y-91899480D01*
X151420234Y-91899500D01*
X144079766Y-91899500D01*
X144012727Y-91879815D01*
X144010875Y-91878602D01*
X143879185Y-91790609D01*
X143879172Y-91790602D01*
X143733501Y-91730264D01*
X143733489Y-91730261D01*
X143578845Y-91699500D01*
X143578842Y-91699500D01*
X143421158Y-91699500D01*
X143421155Y-91699500D01*
X143266510Y-91730261D01*
X143266498Y-91730264D01*
X143120827Y-91790602D01*
X143120814Y-91790609D01*
X142989711Y-91878210D01*
X142989707Y-91878213D01*
X142878213Y-91989707D01*
X142878210Y-91989711D01*
X142790609Y-92120814D01*
X142790602Y-92120827D01*
X142730264Y-92266498D01*
X142730261Y-92266510D01*
X142699500Y-92421153D01*
X133287000Y-92421153D01*
X133287000Y-90855560D01*
X133287001Y-90855547D01*
X133287001Y-90687444D01*
X133269147Y-90620814D01*
X133246077Y-90534716D01*
X133246076Y-90534715D01*
X133243973Y-90526865D01*
X133247162Y-90526010D01*
X133241305Y-90471879D01*
X133245417Y-90455501D01*
X133268477Y-90384534D01*
X133300500Y-90182352D01*
X133300500Y-89977648D01*
X133268477Y-89775466D01*
X133205220Y-89580781D01*
X133205218Y-89580778D01*
X133205218Y-89580776D01*
X133159966Y-89491966D01*
X133112287Y-89398390D01*
X133084233Y-89359777D01*
X132991971Y-89232786D01*
X132847213Y-89088028D01*
X132681613Y-88967715D01*
X132681612Y-88967714D01*
X132681610Y-88967713D01*
X132589819Y-88920943D01*
X132499223Y-88874781D01*
X132399659Y-88842431D01*
X132341984Y-88802993D01*
X132314786Y-88738634D01*
X132326701Y-88669788D01*
X132373945Y-88618312D01*
X132437978Y-88600500D01*
X133199903Y-88600500D01*
X133266942Y-88620185D01*
X133287584Y-88636819D01*
X135665425Y-91014660D01*
X135698910Y-91075983D01*
X135699361Y-91078149D01*
X135730261Y-91233491D01*
X135730264Y-91233501D01*
X135790602Y-91379172D01*
X135790609Y-91379185D01*
X135878210Y-91510288D01*
X135878213Y-91510292D01*
X135989707Y-91621786D01*
X135989711Y-91621789D01*
X136120814Y-91709390D01*
X136120827Y-91709397D01*
X136266498Y-91769735D01*
X136266503Y-91769737D01*
X136421153Y-91800499D01*
X136421156Y-91800500D01*
X136421158Y-91800500D01*
X136578844Y-91800500D01*
X136578845Y-91800499D01*
X136733497Y-91769737D01*
X136879179Y-91709394D01*
X137010289Y-91621789D01*
X137121789Y-91510289D01*
X137209394Y-91379179D01*
X137269737Y-91233497D01*
X137300500Y-91078842D01*
X137300500Y-90921158D01*
X137300500Y-90921155D01*
X137300499Y-90921153D01*
X137290477Y-90870769D01*
X137269737Y-90766503D01*
X137257055Y-90735885D01*
X137209397Y-90620827D01*
X137209390Y-90620814D01*
X137121789Y-90489711D01*
X137121786Y-90489707D01*
X137010292Y-90378213D01*
X137010288Y-90378210D01*
X136879185Y-90290609D01*
X136879172Y-90290602D01*
X136733501Y-90230264D01*
X136733491Y-90230261D01*
X136578151Y-90199362D01*
X136516241Y-90166977D01*
X136514662Y-90165426D01*
X136226356Y-89877120D01*
X136192871Y-89815797D01*
X136197855Y-89746105D01*
X136239727Y-89690172D01*
X136305191Y-89665755D01*
X136370332Y-89678954D01*
X136420968Y-89704755D01*
X136615582Y-89767990D01*
X136817683Y-89800000D01*
X137022317Y-89800000D01*
X137224417Y-89767990D01*
X137419031Y-89704755D01*
X137601349Y-89611859D01*
X137645921Y-89579474D01*
X136966446Y-88900000D01*
X136972661Y-88900000D01*
X137074394Y-88872741D01*
X137165606Y-88820080D01*
X137240080Y-88745606D01*
X137292741Y-88654394D01*
X137320000Y-88552661D01*
X137320000Y-88546448D01*
X137999474Y-89225922D01*
X137999474Y-89225921D01*
X138031859Y-89181349D01*
X138124755Y-88999031D01*
X138187990Y-88804417D01*
X138220000Y-88602317D01*
X138220000Y-88397682D01*
X138187990Y-88195582D01*
X138124755Y-88000968D01*
X138031859Y-87818650D01*
X137999474Y-87774077D01*
X137999474Y-87774076D01*
X137320000Y-88453551D01*
X137320000Y-88447339D01*
X137292741Y-88345606D01*
X137240080Y-88254394D01*
X137165606Y-88179920D01*
X137074394Y-88127259D01*
X136972661Y-88100000D01*
X136966446Y-88100000D01*
X137645922Y-87420524D01*
X137645921Y-87420523D01*
X137601359Y-87388147D01*
X137601350Y-87388141D01*
X137419031Y-87295244D01*
X137224417Y-87232009D01*
X137022317Y-87200000D01*
X136817683Y-87200000D01*
X136615582Y-87232009D01*
X136420968Y-87295244D01*
X136238644Y-87388143D01*
X136194077Y-87420523D01*
X136194077Y-87420524D01*
X136873554Y-88100000D01*
X136867339Y-88100000D01*
X136765606Y-88127259D01*
X136674394Y-88179920D01*
X136599920Y-88254394D01*
X136547259Y-88345606D01*
X136520000Y-88447339D01*
X136520000Y-88453553D01*
X135840524Y-87774077D01*
X135840523Y-87774077D01*
X135808143Y-87818644D01*
X135715244Y-88000968D01*
X135652009Y-88195582D01*
X135620000Y-88397682D01*
X135620000Y-88602317D01*
X135652009Y-88804417D01*
X135715245Y-88999034D01*
X135741045Y-89049669D01*
X135753941Y-89118339D01*
X135727664Y-89183079D01*
X135670557Y-89223335D01*
X135600751Y-89226327D01*
X135542880Y-89193644D01*
X133980521Y-87631286D01*
X133980520Y-87631284D01*
X133868716Y-87519480D01*
X133868714Y-87519479D01*
X133868709Y-87519475D01*
X133754872Y-87453752D01*
X133754871Y-87453751D01*
X133738644Y-87444383D01*
X133731785Y-87440423D01*
X133579057Y-87399499D01*
X133420943Y-87399499D01*
X133413347Y-87399499D01*
X133413331Y-87399500D01*
X131586670Y-87399500D01*
X131586654Y-87399499D01*
X131579058Y-87399499D01*
X131420943Y-87399499D01*
X131344579Y-87419961D01*
X131268214Y-87440423D01*
X131268209Y-87440426D01*
X131131290Y-87519475D01*
X131131282Y-87519481D01*
X130019479Y-88631284D01*
X130016284Y-88636819D01*
X129999821Y-88665335D01*
X129940423Y-88768215D01*
X129899499Y-88920943D01*
X129899499Y-88920945D01*
X129899499Y-89089046D01*
X129899500Y-89089059D01*
X129899500Y-94684114D01*
X129879815Y-94751153D01*
X129848387Y-94784431D01*
X129783072Y-94831885D01*
X129660588Y-94954369D01*
X129660588Y-94954370D01*
X129660586Y-94954372D01*
X129659610Y-94955716D01*
X129558768Y-95094511D01*
X129480128Y-95248852D01*
X129426597Y-95413602D01*
X129406395Y-95541155D01*
X129399500Y-95584689D01*
X129399500Y-95757911D01*
X129402651Y-95777803D01*
X129418553Y-95878211D01*
X129426598Y-95929001D01*
X129480127Y-96093745D01*
X129558768Y-96248088D01*
X129660586Y-96388228D01*
X129783072Y-96510714D01*
X129923212Y-96612532D01*
X130077555Y-96691173D01*
X130176644Y-96723369D01*
X130234320Y-96762807D01*
X130261518Y-96827165D01*
X130249603Y-96896012D01*
X130202359Y-96947487D01*
X130176645Y-96959230D01*
X130077555Y-96991427D01*
X130077552Y-96991428D01*
X129923211Y-97070068D01*
X129852024Y-97121789D01*
X129783072Y-97171886D01*
X129783070Y-97171888D01*
X129783069Y-97171888D01*
X129683278Y-97271680D01*
X129621955Y-97305165D01*
X129552263Y-97300181D01*
X129507916Y-97271680D01*
X128767119Y-96530883D01*
X128733634Y-96469560D01*
X128730800Y-96443202D01*
X128730800Y-81250000D01*
X135612191Y-81250000D01*
X136573114Y-81250000D01*
X136568720Y-81254394D01*
X136516059Y-81345606D01*
X136488800Y-81447339D01*
X136488800Y-81552661D01*
X136516059Y-81654394D01*
X136568720Y-81745606D01*
X136573114Y-81750000D01*
X135612191Y-81750000D01*
X135620809Y-81804413D01*
X135684044Y-81999029D01*
X135776940Y-82181349D01*
X135897217Y-82346894D01*
X135897217Y-82346895D01*
X136041904Y-82491582D01*
X136207450Y-82611859D01*
X136389768Y-82704754D01*
X136584378Y-82767988D01*
X136638800Y-82776607D01*
X136638800Y-81815686D01*
X136643194Y-81820080D01*
X136734406Y-81872741D01*
X136836139Y-81900000D01*
X136941461Y-81900000D01*
X137043194Y-81872741D01*
X137134406Y-81820080D01*
X137138800Y-81815686D01*
X137138800Y-82776606D01*
X137193221Y-82767988D01*
X137387831Y-82704754D01*
X137570149Y-82611859D01*
X137735694Y-82491582D01*
X137735695Y-82491582D01*
X137880382Y-82346895D01*
X137880382Y-82346894D01*
X138000659Y-82181349D01*
X138093555Y-81999029D01*
X138156790Y-81804413D01*
X138165409Y-81750000D01*
X137204486Y-81750000D01*
X137208880Y-81745606D01*
X137261541Y-81654394D01*
X137288800Y-81552661D01*
X137288800Y-81447339D01*
X137261541Y-81345606D01*
X137208880Y-81254394D01*
X137204486Y-81250000D01*
X138165409Y-81250000D01*
X138156790Y-81195586D01*
X138093555Y-81000970D01*
X138000659Y-80818650D01*
X137880382Y-80653105D01*
X137880382Y-80653104D01*
X137735695Y-80508417D01*
X137570149Y-80388140D01*
X137387829Y-80295244D01*
X137193213Y-80232009D01*
X137138800Y-80223390D01*
X137138800Y-81184314D01*
X137134406Y-81179920D01*
X137043194Y-81127259D01*
X136941461Y-81100000D01*
X136836139Y-81100000D01*
X136734406Y-81127259D01*
X136643194Y-81179920D01*
X136638800Y-81184314D01*
X136638800Y-80223390D01*
X136584386Y-80232009D01*
X136389770Y-80295244D01*
X136207450Y-80388140D01*
X136041905Y-80508417D01*
X136041904Y-80508417D01*
X135897217Y-80653104D01*
X135897217Y-80653105D01*
X135776940Y-80818650D01*
X135684044Y-81000970D01*
X135620809Y-81195586D01*
X135612191Y-81250000D01*
X128730800Y-81250000D01*
X128730800Y-79670000D01*
X130723391Y-79670000D01*
X131684314Y-79670000D01*
X131679920Y-79674394D01*
X131627259Y-79765606D01*
X131600000Y-79867339D01*
X131600000Y-79972661D01*
X131627259Y-80074394D01*
X131679920Y-80165606D01*
X131684314Y-80170000D01*
X130723391Y-80170000D01*
X130732009Y-80224413D01*
X130795244Y-80419029D01*
X130888140Y-80601349D01*
X131008417Y-80766894D01*
X131008417Y-80766895D01*
X131153104Y-80911582D01*
X131318650Y-81031859D01*
X131500968Y-81124754D01*
X131695578Y-81187988D01*
X131750000Y-81196607D01*
X131750000Y-80235686D01*
X131754394Y-80240080D01*
X131845606Y-80292741D01*
X131947339Y-80320000D01*
X132052661Y-80320000D01*
X132154394Y-80292741D01*
X132245606Y-80240080D01*
X132250000Y-80235686D01*
X132250000Y-81196606D01*
X132304421Y-81187988D01*
X132362455Y-81169132D01*
X132499031Y-81124754D01*
X132681349Y-81031859D01*
X132846894Y-80911582D01*
X132846895Y-80911582D01*
X132991582Y-80766895D01*
X132991582Y-80766894D01*
X133111859Y-80601349D01*
X133204755Y-80419029D01*
X133267990Y-80224413D01*
X133276609Y-80170000D01*
X132315686Y-80170000D01*
X132320080Y-80165606D01*
X132372741Y-80074394D01*
X132400000Y-79972661D01*
X132400000Y-79867339D01*
X132372741Y-79765606D01*
X132320080Y-79674394D01*
X132315686Y-79670000D01*
X133276609Y-79670000D01*
X133267990Y-79615586D01*
X133204755Y-79420970D01*
X133111859Y-79238650D01*
X132991582Y-79073105D01*
X132991582Y-79073104D01*
X132846895Y-78928417D01*
X132681349Y-78808140D01*
X132499029Y-78715244D01*
X132304413Y-78652009D01*
X132250000Y-78643390D01*
X132250000Y-79604314D01*
X132245606Y-79599920D01*
X132154394Y-79547259D01*
X132052661Y-79520000D01*
X131947339Y-79520000D01*
X131845606Y-79547259D01*
X131754394Y-79599920D01*
X131750000Y-79604314D01*
X131750000Y-78643390D01*
X131695586Y-78652009D01*
X131500970Y-78715244D01*
X131318650Y-78808140D01*
X131153105Y-78928417D01*
X131153104Y-78928417D01*
X131008417Y-79073104D01*
X131008417Y-79073105D01*
X130888140Y-79238650D01*
X130795244Y-79420970D01*
X130732009Y-79615586D01*
X130723391Y-79670000D01*
X128730800Y-79670000D01*
X128730800Y-75545253D01*
X145019500Y-75545253D01*
X145019500Y-75702946D01*
X145050261Y-75857589D01*
X145050264Y-75857601D01*
X145110602Y-76003272D01*
X145110609Y-76003285D01*
X145198210Y-76134388D01*
X145198213Y-76134392D01*
X145309707Y-76245886D01*
X145309711Y-76245889D01*
X145440814Y-76333490D01*
X145440827Y-76333497D01*
X145586498Y-76393835D01*
X145586503Y-76393837D01*
X145723829Y-76421153D01*
X145741153Y-76424599D01*
X145741156Y-76424600D01*
X145741158Y-76424600D01*
X145898844Y-76424600D01*
X145898845Y-76424599D01*
X146053497Y-76393837D01*
X146199179Y-76333494D01*
X146199184Y-76333490D01*
X146199187Y-76333489D01*
X146255408Y-76295923D01*
X146322085Y-76275044D01*
X146389466Y-76293528D01*
X146436156Y-76345506D01*
X146448300Y-76399024D01*
X146448300Y-80270397D01*
X146428615Y-80337436D01*
X146380600Y-80380879D01*
X146367189Y-80387712D01*
X146201586Y-80508028D01*
X146056828Y-80652786D01*
X145936515Y-80818386D01*
X145843581Y-81000776D01*
X145780322Y-81195465D01*
X145748300Y-81397648D01*
X145748300Y-81602351D01*
X145780322Y-81804534D01*
X145843581Y-81999223D01*
X145936515Y-82181613D01*
X146056828Y-82347213D01*
X146201586Y-82491971D01*
X146333800Y-82588028D01*
X146367190Y-82612287D01*
X146483407Y-82671503D01*
X146549576Y-82705218D01*
X146549578Y-82705218D01*
X146549581Y-82705220D01*
X146653937Y-82739127D01*
X146744265Y-82768477D01*
X146845357Y-82784488D01*
X146946448Y-82800500D01*
X146946449Y-82800500D01*
X147151151Y-82800500D01*
X147151152Y-82800500D01*
X147353334Y-82768477D01*
X147527155Y-82711998D01*
X147596992Y-82710004D01*
X147656825Y-82746083D01*
X147687654Y-82808784D01*
X147679690Y-82878198D01*
X147653151Y-82917611D01*
X146711286Y-83859478D01*
X146599481Y-83971282D01*
X146599479Y-83971285D01*
X146549361Y-84058094D01*
X146549359Y-84058096D01*
X146520425Y-84108209D01*
X146520424Y-84108210D01*
X146520423Y-84108215D01*
X146479499Y-84260943D01*
X146479499Y-84260945D01*
X146479499Y-84429046D01*
X146479500Y-84429059D01*
X146479500Y-87270397D01*
X146459815Y-87337436D01*
X146411800Y-87380879D01*
X146398389Y-87387712D01*
X146232786Y-87508028D01*
X146088028Y-87652786D01*
X145967715Y-87818386D01*
X145874781Y-88000776D01*
X145811522Y-88195465D01*
X145779500Y-88397648D01*
X145779500Y-88602351D01*
X145811522Y-88804534D01*
X145874781Y-88999223D01*
X145967715Y-89181613D01*
X146088028Y-89347213D01*
X146232786Y-89491971D01*
X146353226Y-89579474D01*
X146398390Y-89612287D01*
X146503327Y-89665755D01*
X146580776Y-89705218D01*
X146580778Y-89705218D01*
X146580781Y-89705220D01*
X146685137Y-89739127D01*
X146775465Y-89768477D01*
X146819592Y-89775466D01*
X146977648Y-89800500D01*
X146977649Y-89800500D01*
X147182351Y-89800500D01*
X147182352Y-89800500D01*
X147384534Y-89768477D01*
X147579219Y-89705220D01*
X147761610Y-89612287D01*
X147854590Y-89544732D01*
X147927213Y-89491971D01*
X147927215Y-89491968D01*
X147927219Y-89491966D01*
X148071966Y-89347219D01*
X148071968Y-89347215D01*
X148071971Y-89347213D01*
X148124732Y-89274590D01*
X148192287Y-89181610D01*
X148285220Y-88999219D01*
X148342069Y-88824256D01*
X148381507Y-88766581D01*
X148445866Y-88739383D01*
X148514712Y-88751298D01*
X148566188Y-88798542D01*
X148577931Y-88824256D01*
X148634781Y-88999223D01*
X148727715Y-89181613D01*
X148848028Y-89347213D01*
X148992786Y-89491971D01*
X149113226Y-89579474D01*
X149158390Y-89612287D01*
X149263327Y-89665755D01*
X149340776Y-89705218D01*
X149340778Y-89705218D01*
X149340781Y-89705220D01*
X149445137Y-89739127D01*
X149535465Y-89768477D01*
X149579592Y-89775466D01*
X149737648Y-89800500D01*
X149737649Y-89800500D01*
X149942351Y-89800500D01*
X149942352Y-89800500D01*
X150144534Y-89768477D01*
X150339219Y-89705220D01*
X150521610Y-89612287D01*
X150614590Y-89544732D01*
X150687213Y-89491971D01*
X150687215Y-89491968D01*
X150687219Y-89491966D01*
X150831966Y-89347219D01*
X150831968Y-89347215D01*
X150831971Y-89347213D01*
X150884732Y-89274590D01*
X150952287Y-89181610D01*
X151045220Y-88999219D01*
X151108477Y-88804534D01*
X151140500Y-88602352D01*
X151140500Y-88397648D01*
X151118343Y-88257755D01*
X151108477Y-88195465D01*
X151052242Y-88022392D01*
X151045220Y-88000781D01*
X151045218Y-88000778D01*
X151045218Y-88000776D01*
X151004648Y-87921155D01*
X150952287Y-87818390D01*
X150920092Y-87774077D01*
X150831971Y-87652786D01*
X150687213Y-87508028D01*
X150521613Y-87387715D01*
X150521612Y-87387714D01*
X150521610Y-87387713D01*
X150464653Y-87358691D01*
X150339223Y-87294781D01*
X150144534Y-87231522D01*
X149969995Y-87203878D01*
X149942352Y-87199500D01*
X149737648Y-87199500D01*
X149713329Y-87203351D01*
X149535465Y-87231522D01*
X149340776Y-87294781D01*
X149158386Y-87387715D01*
X148992786Y-87508028D01*
X148848028Y-87652786D01*
X148727715Y-87818386D01*
X148634781Y-88000776D01*
X148577931Y-88175743D01*
X148538493Y-88233418D01*
X148474134Y-88260616D01*
X148405288Y-88248701D01*
X148353812Y-88201457D01*
X148342069Y-88175743D01*
X148292242Y-88022392D01*
X148285220Y-88000781D01*
X148285218Y-88000778D01*
X148285218Y-88000776D01*
X148244648Y-87921155D01*
X148192287Y-87818390D01*
X148160092Y-87774077D01*
X148071971Y-87652786D01*
X147927213Y-87508028D01*
X147761610Y-87387712D01*
X147748200Y-87380879D01*
X147697406Y-87332903D01*
X147680500Y-87270397D01*
X147680500Y-84640097D01*
X147700185Y-84573058D01*
X147716819Y-84552416D01*
X148586884Y-83682351D01*
X149475159Y-82794075D01*
X149536480Y-82760592D01*
X149601154Y-82763826D01*
X149615466Y-82768477D01*
X149817648Y-82800500D01*
X149817649Y-82800500D01*
X150022351Y-82800500D01*
X150022352Y-82800500D01*
X150224534Y-82768477D01*
X150419219Y-82705220D01*
X150601610Y-82612287D01*
X150694590Y-82544732D01*
X150767213Y-82491971D01*
X150767215Y-82491968D01*
X150767219Y-82491966D01*
X150911966Y-82347219D01*
X150911968Y-82347215D01*
X150911971Y-82347213D01*
X150964732Y-82274590D01*
X151032287Y-82181610D01*
X151125220Y-81999219D01*
X151188477Y-81804534D01*
X151220500Y-81602352D01*
X151220500Y-81397648D01*
X151212257Y-81345606D01*
X151188477Y-81195465D01*
X151125218Y-81000776D01*
X151079771Y-80911582D01*
X151032287Y-80818390D01*
X150994874Y-80766895D01*
X150911971Y-80652786D01*
X150767213Y-80508028D01*
X150601613Y-80387715D01*
X150601612Y-80387714D01*
X150601610Y-80387713D01*
X150544653Y-80358691D01*
X150419223Y-80294781D01*
X150224534Y-80231522D01*
X150049995Y-80203878D01*
X150022352Y-80199500D01*
X149817648Y-80199500D01*
X149793329Y-80203351D01*
X149615465Y-80231522D01*
X149420776Y-80294781D01*
X149238386Y-80387715D01*
X149072786Y-80508028D01*
X148928028Y-80652786D01*
X148807715Y-80818386D01*
X148714781Y-81000776D01*
X148651522Y-81195465D01*
X148619500Y-81397648D01*
X148619500Y-81602351D01*
X148651523Y-81804535D01*
X148656172Y-81818845D01*
X148656606Y-81834056D01*
X148661924Y-81848314D01*
X148657582Y-81868271D01*
X148658165Y-81888687D01*
X148650077Y-81902772D01*
X148647072Y-81916587D01*
X148625921Y-81944841D01*
X148466411Y-82104351D01*
X148405088Y-82137836D01*
X148335396Y-82132852D01*
X148279463Y-82090980D01*
X148255046Y-82025516D01*
X148260798Y-81978358D01*
X148317277Y-81804534D01*
X148349300Y-81602352D01*
X148349300Y-81397648D01*
X148341057Y-81345606D01*
X148317277Y-81195465D01*
X148254018Y-81000776D01*
X148208571Y-80911582D01*
X148161087Y-80818390D01*
X148123674Y-80766895D01*
X148040771Y-80652786D01*
X147896013Y-80508028D01*
X147730410Y-80387712D01*
X147717000Y-80380879D01*
X147666206Y-80332903D01*
X147649300Y-80270397D01*
X147649300Y-73397518D01*
X147655235Y-73377305D01*
X147656363Y-73356264D01*
X147664882Y-73344449D01*
X147668985Y-73330479D01*
X147684905Y-73316684D01*
X147697230Y-73299593D01*
X147710783Y-73294260D01*
X147721789Y-73284724D01*
X147742640Y-73281725D01*
X147762248Y-73274011D01*
X147787046Y-73275340D01*
X147790947Y-73274780D01*
X147797487Y-73275900D01*
X147826770Y-73281725D01*
X147921850Y-73300638D01*
X147983761Y-73333023D01*
X147985339Y-73334574D01*
X151515139Y-76864374D01*
X151515149Y-76864385D01*
X151519479Y-76868715D01*
X151519480Y-76868716D01*
X151631284Y-76980520D01*
X151631286Y-76980521D01*
X151631287Y-76980522D01*
X151645494Y-76988724D01*
X151690313Y-77014600D01*
X151768215Y-77059577D01*
X151920942Y-77100500D01*
X151920943Y-77100500D01*
X152420234Y-77100500D01*
X152487273Y-77120185D01*
X152489125Y-77121398D01*
X152620814Y-77209390D01*
X152620827Y-77209397D01*
X152766498Y-77269735D01*
X152766503Y-77269737D01*
X152921153Y-77300499D01*
X152921156Y-77300500D01*
X152921158Y-77300500D01*
X153078844Y-77300500D01*
X153078845Y-77300499D01*
X153233497Y-77269737D01*
X153379179Y-77209394D01*
X153510289Y-77121789D01*
X153621789Y-77010289D01*
X153709394Y-76879179D01*
X153769737Y-76733497D01*
X153800500Y-76578842D01*
X153800500Y-76421158D01*
X153800500Y-76421155D01*
X153800499Y-76421153D01*
X153783062Y-76333494D01*
X153769737Y-76266503D01*
X153769735Y-76266498D01*
X153709397Y-76120827D01*
X153709390Y-76120814D01*
X153621789Y-75989711D01*
X153621786Y-75989707D01*
X153510292Y-75878213D01*
X153510288Y-75878210D01*
X153379185Y-75790609D01*
X153379172Y-75790602D01*
X153233501Y-75730264D01*
X153233489Y-75730261D01*
X153078845Y-75699500D01*
X153078842Y-75699500D01*
X152921158Y-75699500D01*
X152921155Y-75699500D01*
X152766510Y-75730261D01*
X152766498Y-75730264D01*
X152620827Y-75790602D01*
X152620814Y-75790609D01*
X152489125Y-75878602D01*
X152471078Y-75884252D01*
X152455169Y-75894477D01*
X152424207Y-75898928D01*
X152422447Y-75899480D01*
X152420234Y-75899500D01*
X152300097Y-75899500D01*
X152233058Y-75879815D01*
X152212416Y-75863181D01*
X148834574Y-72485339D01*
X148801089Y-72424016D01*
X148800638Y-72421849D01*
X148782076Y-72328536D01*
X148769737Y-72266503D01*
X148736599Y-72186500D01*
X148709397Y-72120827D01*
X148709390Y-72120814D01*
X148621789Y-71989711D01*
X148621786Y-71989707D01*
X148510292Y-71878213D01*
X148510288Y-71878210D01*
X148379185Y-71790609D01*
X148379172Y-71790602D01*
X148233501Y-71730264D01*
X148233489Y-71730261D01*
X148078845Y-71699500D01*
X148078842Y-71699500D01*
X147921158Y-71699500D01*
X147921153Y-71699500D01*
X147797491Y-71724098D01*
X147727899Y-71717871D01*
X147672722Y-71675008D01*
X147649478Y-71609118D01*
X147649300Y-71602481D01*
X147649300Y-69362997D01*
X147668985Y-69295958D01*
X147685619Y-69275316D01*
X148965294Y-67995641D01*
X150440520Y-66520416D01*
X150502825Y-66412498D01*
X150553391Y-66364284D01*
X150610212Y-66350499D01*
X150857871Y-66350499D01*
X150857872Y-66350499D01*
X150917483Y-66344091D01*
X151052331Y-66293796D01*
X151167546Y-66207546D01*
X151253796Y-66092331D01*
X151264784Y-66062872D01*
X151303002Y-65960402D01*
X151344872Y-65904468D01*
X151410337Y-65880050D01*
X151478610Y-65894901D01*
X151506865Y-65916053D01*
X151620535Y-66029723D01*
X151620540Y-66029727D01*
X151792442Y-66154620D01*
X151981782Y-66251095D01*
X152183871Y-66316757D01*
X152250000Y-66327231D01*
X152250000Y-65433012D01*
X152307007Y-65465925D01*
X152434174Y-65500000D01*
X152565826Y-65500000D01*
X152692993Y-65465925D01*
X152750000Y-65433012D01*
X152750000Y-66327230D01*
X152816126Y-66316757D01*
X152816129Y-66316757D01*
X153018217Y-66251095D01*
X153207557Y-66154620D01*
X153379459Y-66029727D01*
X153379464Y-66029723D01*
X153529723Y-65879464D01*
X153529727Y-65879459D01*
X153654620Y-65707557D01*
X153751095Y-65518217D01*
X153816757Y-65316129D01*
X153816757Y-65316126D01*
X153827231Y-65250000D01*
X152933012Y-65250000D01*
X152965925Y-65192993D01*
X153000000Y-65065826D01*
X153000000Y-64934174D01*
X152965925Y-64807007D01*
X152933012Y-64750000D01*
X153827231Y-64750000D01*
X153816757Y-64683873D01*
X153816757Y-64683870D01*
X153751095Y-64481782D01*
X153654620Y-64292442D01*
X153529727Y-64120540D01*
X153529723Y-64120535D01*
X153379464Y-63970276D01*
X153379459Y-63970272D01*
X153207557Y-63845379D01*
X153018215Y-63748903D01*
X152816124Y-63683241D01*
X152750000Y-63672768D01*
X152750000Y-64566988D01*
X152692993Y-64534075D01*
X152565826Y-64500000D01*
X152434174Y-64500000D01*
X152307007Y-64534075D01*
X152250000Y-64566988D01*
X152250000Y-63672768D01*
X152249999Y-63672768D01*
X152183875Y-63683241D01*
X151981784Y-63748903D01*
X151792442Y-63845379D01*
X151620541Y-63970271D01*
X151506865Y-64083947D01*
X151445542Y-64117431D01*
X151375850Y-64112447D01*
X151319917Y-64070575D01*
X151303002Y-64039598D01*
X151253797Y-63907671D01*
X151253793Y-63907664D01*
X151167547Y-63792455D01*
X151167544Y-63792452D01*
X151052335Y-63706206D01*
X151052328Y-63706202D01*
X150917482Y-63655908D01*
X150917483Y-63655908D01*
X150857883Y-63649501D01*
X150857881Y-63649500D01*
X150857873Y-63649500D01*
X150857864Y-63649500D01*
X149062129Y-63649500D01*
X149062123Y-63649501D01*
X149002516Y-63655908D01*
X148867671Y-63706202D01*
X148867664Y-63706206D01*
X148752455Y-63792452D01*
X148752452Y-63792455D01*
X148666206Y-63907664D01*
X148666202Y-63907671D01*
X148615908Y-64042517D01*
X148609501Y-64102116D01*
X148609500Y-64102135D01*
X148609500Y-65897870D01*
X148609501Y-65897876D01*
X148615908Y-65957483D01*
X148666202Y-66092328D01*
X148666206Y-66092335D01*
X148731045Y-66178947D01*
X148752454Y-66207546D01*
X148810869Y-66251276D01*
X148852740Y-66307209D01*
X148857724Y-66376901D01*
X148824239Y-66438223D01*
X147764985Y-67497478D01*
X147703662Y-67530963D01*
X147633970Y-67525979D01*
X147578037Y-67484107D01*
X147574202Y-67478687D01*
X147517492Y-67393815D01*
X147517486Y-67393807D01*
X147405992Y-67282313D01*
X147405988Y-67282310D01*
X147274885Y-67194709D01*
X147274872Y-67194702D01*
X147129201Y-67134364D01*
X147129189Y-67134361D01*
X146974545Y-67103600D01*
X146974542Y-67103600D01*
X146816858Y-67103600D01*
X146816855Y-67103600D01*
X146662210Y-67134361D01*
X146662198Y-67134364D01*
X146516527Y-67194702D01*
X146516514Y-67194709D01*
X146385411Y-67282310D01*
X146385407Y-67282313D01*
X146273913Y-67393807D01*
X146273910Y-67393811D01*
X146186309Y-67524914D01*
X146186302Y-67524927D01*
X146125964Y-67670598D01*
X146125961Y-67670608D01*
X146095062Y-67825948D01*
X146062677Y-67887859D01*
X146061126Y-67889437D01*
X145451286Y-68499278D01*
X145339481Y-68611082D01*
X145339479Y-68611084D01*
X145314013Y-68655193D01*
X145303250Y-68673837D01*
X145260423Y-68748015D01*
X145219499Y-68900743D01*
X145219499Y-68900745D01*
X145219499Y-69068846D01*
X145219500Y-69068859D01*
X145219500Y-75044334D01*
X145199815Y-75111373D01*
X145198602Y-75113225D01*
X145110609Y-75244914D01*
X145110602Y-75244927D01*
X145050264Y-75390598D01*
X145050261Y-75390610D01*
X145019500Y-75545253D01*
X128730800Y-75545253D01*
X128730800Y-74065084D01*
X128734451Y-74052648D01*
X128733420Y-74039730D01*
X128744106Y-74019768D01*
X128750485Y-73998045D01*
X128760278Y-73989558D01*
X128766396Y-73978132D01*
X128786178Y-73967115D01*
X128803289Y-73952290D01*
X128817526Y-73949660D01*
X128827440Y-73944140D01*
X128851710Y-73943346D01*
X128862622Y-73941331D01*
X129098622Y-73956247D01*
X129127928Y-73966902D01*
X129157839Y-73975685D01*
X129160485Y-73978739D01*
X129164286Y-73980121D01*
X129183182Y-74004933D01*
X129203594Y-74028489D01*
X129204582Y-74033031D01*
X129206619Y-74035706D01*
X129207462Y-74046272D01*
X129214800Y-74080000D01*
X129214800Y-74212611D01*
X129222977Y-74264239D01*
X129238300Y-74360988D01*
X129241898Y-74383701D01*
X129295427Y-74548445D01*
X129374068Y-74702788D01*
X129475886Y-74842928D01*
X129598372Y-74965414D01*
X129738512Y-75067232D01*
X129892855Y-75145873D01*
X130057599Y-75199402D01*
X130228689Y-75226500D01*
X130228690Y-75226500D01*
X130401910Y-75226500D01*
X130401911Y-75226500D01*
X130573001Y-75199402D01*
X130737745Y-75145873D01*
X130892088Y-75067232D01*
X131032228Y-74965414D01*
X131154714Y-74842928D01*
X131256532Y-74702788D01*
X131335173Y-74548445D01*
X131388702Y-74383701D01*
X131415800Y-74212611D01*
X131415800Y-74039389D01*
X131388702Y-73868299D01*
X131335173Y-73703555D01*
X131256532Y-73549212D01*
X131154714Y-73409072D01*
X131032228Y-73286586D01*
X130892088Y-73184768D01*
X130737745Y-73106127D01*
X130638653Y-73073929D01*
X130580979Y-73034494D01*
X130553781Y-72970135D01*
X130565696Y-72901289D01*
X130612940Y-72849813D01*
X130638650Y-72838070D01*
X130737745Y-72805873D01*
X130892088Y-72727232D01*
X131032228Y-72625414D01*
X131154714Y-72502928D01*
X131256532Y-72362788D01*
X131335173Y-72208445D01*
X131388702Y-72043701D01*
X131415800Y-71872611D01*
X131415800Y-71299389D01*
X131388702Y-71128299D01*
X131335173Y-70963555D01*
X131256532Y-70809212D01*
X131154714Y-70669072D01*
X131032228Y-70546586D01*
X130892088Y-70444768D01*
X130737745Y-70366127D01*
X130573001Y-70312598D01*
X130572999Y-70312597D01*
X130572998Y-70312597D01*
X130441571Y-70291781D01*
X130401911Y-70285500D01*
X130228689Y-70285500D01*
X130189028Y-70291781D01*
X130057602Y-70312597D01*
X129892852Y-70366128D01*
X129738511Y-70444768D01*
X129658556Y-70502859D01*
X129598372Y-70546586D01*
X129598370Y-70546588D01*
X129598369Y-70546588D01*
X129475888Y-70669069D01*
X129475888Y-70669070D01*
X129475886Y-70669072D01*
X129445296Y-70711174D01*
X129374066Y-70809213D01*
X129318743Y-70917794D01*
X129270769Y-70968591D01*
X129208258Y-70985500D01*
X128952940Y-70985500D01*
X128912019Y-70996464D01*
X128912019Y-70996465D01*
X128874751Y-71006451D01*
X128800214Y-71026423D01*
X128800209Y-71026426D01*
X128663290Y-71105475D01*
X128663282Y-71105481D01*
X127649781Y-72118982D01*
X127649777Y-72118987D01*
X127634428Y-72145575D01*
X127634427Y-72145577D01*
X127594472Y-72214781D01*
X127574135Y-72250006D01*
X127570723Y-72255915D01*
X127529799Y-72408643D01*
X127529799Y-72566757D01*
X127529799Y-72566759D01*
X127529800Y-72576753D01*
X127529800Y-96656630D01*
X127529799Y-96656648D01*
X127529799Y-96822354D01*
X127529798Y-96822354D01*
X122500500Y-96822354D01*
X122500500Y-64897648D01*
X124199500Y-64897648D01*
X124199500Y-65102351D01*
X124231522Y-65304534D01*
X124294781Y-65499223D01*
X124358691Y-65624653D01*
X124383922Y-65674170D01*
X124387715Y-65681613D01*
X124508028Y-65847213D01*
X124652786Y-65991971D01*
X124790928Y-66092335D01*
X124818390Y-66112287D01*
X124934607Y-66171503D01*
X125000776Y-66205218D01*
X125000778Y-66205218D01*
X125000781Y-66205220D01*
X125105137Y-66239127D01*
X125195465Y-66268477D01*
X125230822Y-66274077D01*
X125397648Y-66300500D01*
X125397649Y-66300500D01*
X125602351Y-66300500D01*
X125602352Y-66300500D01*
X125804534Y-66268477D01*
X125999219Y-66205220D01*
X126181610Y-66112287D01*
X126295251Y-66029723D01*
X126347213Y-65991971D01*
X126347215Y-65991968D01*
X126347219Y-65991966D01*
X126491966Y-65847219D01*
X126491968Y-65847215D01*
X126491971Y-65847213D01*
X126575670Y-65732009D01*
X126612287Y-65681610D01*
X126705220Y-65499219D01*
X126768477Y-65304534D01*
X126800500Y-65102352D01*
X126800500Y-64897648D01*
X126785532Y-64803147D01*
X126768477Y-64695465D01*
X126714793Y-64530245D01*
X126705220Y-64500781D01*
X126705218Y-64500778D01*
X126705218Y-64500776D01*
X126671503Y-64434607D01*
X126612287Y-64318390D01*
X126593435Y-64292442D01*
X126491971Y-64152786D01*
X126347213Y-64008028D01*
X126181613Y-63887715D01*
X126181612Y-63887714D01*
X126181610Y-63887713D01*
X126098525Y-63845379D01*
X125999223Y-63794781D01*
X125804534Y-63731522D01*
X125629995Y-63703878D01*
X125602352Y-63699500D01*
X125397648Y-63699500D01*
X125373329Y-63703351D01*
X125195465Y-63731522D01*
X125000776Y-63794781D01*
X124818386Y-63887715D01*
X124652786Y-64008028D01*
X124508028Y-64152786D01*
X124387715Y-64318386D01*
X124294781Y-64500776D01*
X124231522Y-64695465D01*
X124199500Y-64897648D01*
X122500500Y-64897648D01*
X122500500Y-62124500D01*
X122520185Y-62057461D01*
X122572989Y-62011706D01*
X122624500Y-62000500D01*
X186375500Y-62000500D01*
X186442539Y-62020185D01*
G37*
%TD.AperFunction*%
%TD*%
M02*
