%TF.GenerationSoftware,KiCad,Pcbnew,8.0.8*%
%TF.CreationDate,2025-02-27T22:51:06-05:00*%
%TF.ProjectId,Balanced Polarimeter,42616c61-6e63-4656-9420-506f6c617269,rev?*%
%TF.SameCoordinates,Original*%
%TF.FileFunction,Copper,L1,Top*%
%TF.FilePolarity,Positive*%
%FSLAX46Y46*%
G04 Gerber Fmt 4.6, Leading zero omitted, Abs format (unit mm)*
G04 Created by KiCad (PCBNEW 8.0.8) date 2025-02-27 22:51:06*
%MOMM*%
%LPD*%
G01*
G04 APERTURE LIST*
G04 Aperture macros list*
%AMRoundRect*
0 Rectangle with rounded corners*
0 $1 Rounding radius*
0 $2 $3 $4 $5 $6 $7 $8 $9 X,Y pos of 4 corners*
0 Add a 4 corners polygon primitive as box body*
4,1,4,$2,$3,$4,$5,$6,$7,$8,$9,$2,$3,0*
0 Add four circle primitives for the rounded corners*
1,1,$1+$1,$2,$3*
1,1,$1+$1,$4,$5*
1,1,$1+$1,$6,$7*
1,1,$1+$1,$8,$9*
0 Add four rect primitives between the rounded corners*
20,1,$1+$1,$2,$3,$4,$5,0*
20,1,$1+$1,$4,$5,$6,$7,0*
20,1,$1+$1,$6,$7,$8,$9,0*
20,1,$1+$1,$8,$9,$2,$3,0*%
G04 Aperture macros list end*
%TA.AperFunction,ComponentPad*%
%ADD10C,1.600000*%
%TD*%
%TA.AperFunction,ComponentPad*%
%ADD11O,1.600000X1.600000*%
%TD*%
%TA.AperFunction,SMDPad,CuDef*%
%ADD12RoundRect,0.150000X-0.825000X-0.150000X0.825000X-0.150000X0.825000X0.150000X-0.825000X0.150000X0*%
%TD*%
%TA.AperFunction,HeatsinkPad*%
%ADD13R,2.290000X3.000000*%
%TD*%
%TA.AperFunction,ComponentPad*%
%ADD14R,1.700000X1.700000*%
%TD*%
%TA.AperFunction,ComponentPad*%
%ADD15O,1.700000X1.700000*%
%TD*%
%TA.AperFunction,ComponentPad*%
%ADD16C,2.800000*%
%TD*%
%TA.AperFunction,ComponentPad*%
%ADD17C,1.550000*%
%TD*%
%TA.AperFunction,ComponentPad*%
%ADD18O,1.200000X1.600000*%
%TD*%
%TA.AperFunction,ComponentPad*%
%ADD19C,1.200000*%
%TD*%
%TA.AperFunction,SMDPad,CuDef*%
%ADD20R,1.550000X0.650000*%
%TD*%
%TA.AperFunction,ComponentPad*%
%ADD21O,1.320800X2.641600*%
%TD*%
%TA.AperFunction,ComponentPad*%
%ADD22R,1.730000X2.030000*%
%TD*%
%TA.AperFunction,ComponentPad*%
%ADD23O,1.730000X2.030000*%
%TD*%
%TA.AperFunction,ViaPad*%
%ADD24C,0.600000*%
%TD*%
%TA.AperFunction,Conductor*%
%ADD25C,0.200000*%
%TD*%
G04 APERTURE END LIST*
D10*
%TO.P,R8,1*%
%TO.N,V_out*%
X170500000Y-83408700D03*
D11*
%TO.P,R8,2*%
%TO.N,Net-(IC1-Pad2)*%
X170500000Y-73248700D03*
%TD*%
D10*
%TO.P,R3,1*%
%TO.N,Net-(R3-Pad1)*%
X163500000Y-83580000D03*
D11*
%TO.P,R3,2*%
%TO.N,Net-(Q1-COLLECTOR_#3_1)*%
X163500000Y-73420000D03*
%TD*%
D10*
%TO.P,R7,1*%
%TO.N,Net-(R4-Pad1)*%
X163500000Y-88091300D03*
D11*
%TO.P,R7,2*%
%TO.N,Net-(IC1-Pad2)*%
X163500000Y-98251300D03*
%TD*%
D12*
%TO.P,U1,1*%
%TO.N,N/C*%
X150095000Y-71345000D03*
%TO.P,U1,2,-*%
%TO.N,Net-(Q1-COLLECTOR_#3_1)*%
X150095000Y-72615000D03*
%TO.P,U1,3,+*%
%TO.N,GND*%
X150095000Y-73885000D03*
%TO.P,U1,4,V-*%
%TO.N,-5V*%
X150095000Y-75155000D03*
%TO.P,U1,5*%
%TO.N,N/C*%
X155045000Y-75155000D03*
%TO.P,U1,6*%
%TO.N,Net-(R3-Pad1)*%
X155045000Y-73885000D03*
%TO.P,U1,7,V+*%
%TO.N,+5V*%
X155045000Y-72615000D03*
%TO.P,U1,8,~{PD}*%
%TO.N,unconnected-(U1-~{PD}-Pad8)*%
X155045000Y-71345000D03*
D13*
%TO.P,U1,9,EP*%
%TO.N,unconnected-(U1-EP-Pad9)*%
X152570000Y-73250000D03*
%TD*%
D10*
%TO.P,R2,1*%
%TO.N,Net-(J3-Pin_1)*%
X132000000Y-90080000D03*
D11*
%TO.P,R2,2*%
%TO.N,GND*%
X132000000Y-79920000D03*
%TD*%
D10*
%TO.P,R5,1*%
%TO.N,Net-(IC1-Pad3)*%
X149920000Y-81500000D03*
D11*
%TO.P,R5,2*%
%TO.N,Net-(R3-Pad1)*%
X160080000Y-81500000D03*
%TD*%
D14*
%TO.P,J3,1,Pin_1*%
%TO.N,Net-(J3-Pin_1)*%
X151226600Y-104292400D03*
D15*
%TO.P,J3,2,Pin_2*%
%TO.N,GND*%
X153766600Y-104292400D03*
%TD*%
D16*
%TO.P,J1,1,1*%
%TO.N,GND*%
X182862500Y-80300000D03*
%TO.P,J1,2,2*%
X182862500Y-72700000D03*
D17*
%TO.P,J1,3,3*%
%TO.N,V_out*%
X175062500Y-76500000D03*
%TD*%
D18*
%TO.P,D1,1,K*%
%TO.N,-5V*%
X130500000Y-98211300D03*
D19*
%TO.P,D1,2,C*%
%TO.N,GND*%
X131770000Y-96941300D03*
%TO.P,D1,3,A*%
%TO.N,Net-(D1-A)*%
X130500000Y-95671300D03*
%TD*%
D20*
%TO.P,Q1,1,COLLECTOR_DYE_#1*%
%TO.N,Net-(D2-A)*%
X138500000Y-66631300D03*
%TO.P,Q1,2,COLLECTOR_#1*%
X138500000Y-67901300D03*
%TO.P,Q1,3,COLLECTOR_#2_1*%
%TO.N,+5V*%
X138500000Y-69171300D03*
%TO.P,Q1,4,COLLECTOR_#2_2*%
X138500000Y-70441300D03*
%TO.P,Q1,5,COLLECTOR_#3_1*%
%TO.N,Net-(Q1-COLLECTOR_#3_1)*%
X138500000Y-71711300D03*
%TO.P,Q1,6,COLLECTOR_#3_2*%
X138500000Y-72981300D03*
%TO.P,Q1,7,COLLECTOR_#4_1*%
%TO.N,Net-(J5-Pin_1)*%
X138500000Y-74251300D03*
%TO.P,Q1,8,COLLECTOR_#4_2*%
X138500000Y-75521300D03*
%TO.P,Q1,9,BASE_#4*%
%TO.N,Net-(Q1-BASE_#1)*%
X143950000Y-75521300D03*
%TO.P,Q1,10,EMITTER_#4*%
%TO.N,-5V*%
X143950000Y-74251300D03*
%TO.P,Q1,11,BASE_#3*%
%TO.N,Net-(Q1-BASE_#1)*%
X143950000Y-72981300D03*
%TO.P,Q1,12,EMITTER_#3*%
%TO.N,-5V*%
X143950000Y-71711300D03*
%TO.P,Q1,13,BASE_#2*%
%TO.N,Net-(D2-A)*%
X143950000Y-70441300D03*
%TO.P,Q1,14,EMITTER_#2*%
%TO.N,Net-(Q1-BASE_#1)*%
X143950000Y-69171300D03*
%TO.P,Q1,15,BASE_#1*%
X143950000Y-67901300D03*
%TO.P,Q1,16,EMITTER_#1*%
%TO.N,-5V*%
X143950000Y-66631300D03*
%TD*%
%TO.P,Q2,1,COLLECTOR_DYE_#1*%
%TO.N,Net-(D1-A)*%
X138550000Y-94226300D03*
%TO.P,Q2,2,COLLECTOR_#1*%
X138550000Y-95496300D03*
%TO.P,Q2,3,COLLECTOR_#2_1*%
%TO.N,+5V*%
X138550000Y-96766300D03*
%TO.P,Q2,4,COLLECTOR_#2_2*%
X138550000Y-98036300D03*
%TO.P,Q2,5,COLLECTOR_#3_1*%
%TO.N,Net-(Q2-COLLECTOR_#3_1)*%
X138550000Y-99306300D03*
%TO.P,Q2,6,COLLECTOR_#3_2*%
X138550000Y-100576300D03*
%TO.P,Q2,7,COLLECTOR_#4_1*%
%TO.N,Net-(J3-Pin_1)*%
X138550000Y-101846300D03*
%TO.P,Q2,8,COLLECTOR_#4_2*%
X138550000Y-103116300D03*
%TO.P,Q2,9,BASE_#4*%
%TO.N,Net-(Q2-BASE_#1)*%
X144000000Y-103116300D03*
%TO.P,Q2,10,EMITTER_#4*%
%TO.N,-5V*%
X144000000Y-101846300D03*
%TO.P,Q2,11,BASE_#3*%
%TO.N,Net-(Q2-BASE_#1)*%
X144000000Y-100576300D03*
%TO.P,Q2,12,EMITTER_#3*%
%TO.N,-5V*%
X144000000Y-99306300D03*
%TO.P,Q2,13,BASE_#2*%
%TO.N,Net-(D1-A)*%
X144000000Y-98036300D03*
%TO.P,Q2,14,EMITTER_#2*%
%TO.N,Net-(Q2-BASE_#1)*%
X144000000Y-96766300D03*
%TO.P,Q2,15,BASE_#1*%
X144000000Y-95496300D03*
%TO.P,Q2,16,EMITTER_#1*%
%TO.N,-5V*%
X144000000Y-94226300D03*
%TD*%
D21*
%TO.P,IC1,1*%
%TO.N,unconnected-(IC1-Pad1)*%
X176810000Y-89190000D03*
%TO.P,IC1,2*%
%TO.N,Net-(IC1-Pad2)*%
X174270000Y-89190000D03*
%TO.P,IC1,3*%
%TO.N,Net-(IC1-Pad3)*%
X171730000Y-89190000D03*
%TO.P,IC1,4*%
%TO.N,-5V*%
X169190000Y-89190000D03*
%TO.P,IC1,5*%
%TO.N,unconnected-(IC1-Pad5)*%
X169190000Y-96810000D03*
%TO.P,IC1,6*%
%TO.N,V_out*%
X171730000Y-96810000D03*
%TO.P,IC1,7*%
%TO.N,+5V*%
X174270000Y-96810000D03*
%TO.P,IC1,8*%
%TO.N,N/C*%
X176810000Y-96810000D03*
%TD*%
D18*
%TO.P,D2,1,K*%
%TO.N,-5V*%
X130315300Y-71586000D03*
D19*
%TO.P,D2,2,C*%
%TO.N,GND*%
X129045300Y-72856000D03*
%TO.P,D2,3,A*%
%TO.N,Net-(D2-A)*%
X130315300Y-74126000D03*
%TD*%
D10*
%TO.P,R4,1*%
%TO.N,Net-(R4-Pad1)*%
X160000000Y-88500000D03*
D11*
%TO.P,R4,2*%
%TO.N,Net-(Q2-COLLECTOR_#3_1)*%
X149840000Y-88500000D03*
%TD*%
D10*
%TO.P,R6,1*%
%TO.N,GND*%
X136920000Y-88500000D03*
D11*
%TO.P,R6,2*%
%TO.N,Net-(IC1-Pad3)*%
X147080000Y-88500000D03*
%TD*%
D14*
%TO.P,J5,1,Pin_1*%
%TO.N,Net-(J5-Pin_1)*%
X151225000Y-65000000D03*
D15*
%TO.P,J5,2,Pin_2*%
%TO.N,GND*%
X153765000Y-65000000D03*
%TD*%
D12*
%TO.P,U2,1*%
%TO.N,N/C*%
X150095000Y-94095000D03*
%TO.P,U2,2,-*%
%TO.N,Net-(Q2-COLLECTOR_#3_1)*%
X150095000Y-95365000D03*
%TO.P,U2,3,+*%
%TO.N,GND*%
X150095000Y-96635000D03*
%TO.P,U2,4,V-*%
%TO.N,-5V*%
X150095000Y-97905000D03*
%TO.P,U2,5*%
%TO.N,N/C*%
X155045000Y-97905000D03*
%TO.P,U2,6*%
%TO.N,Net-(R4-Pad1)*%
X155045000Y-96635000D03*
%TO.P,U2,7,V+*%
%TO.N,+5V*%
X155045000Y-95365000D03*
%TO.P,U2,8,~{PD}*%
%TO.N,unconnected-(U2-~{PD}-Pad8)*%
X155045000Y-94095000D03*
D13*
%TO.P,U2,9,EP*%
%TO.N,unconnected-(U2-EP-Pad9)*%
X152570000Y-96000000D03*
%TD*%
D22*
%TO.P,J2,1,Pin_1*%
%TO.N,+5V*%
X163960000Y-65000000D03*
D23*
%TO.P,J2,2,Pin_2*%
%TO.N,-5V*%
X166500000Y-65000000D03*
%TO.P,J2,3,Pin_3*%
%TO.N,GND*%
X169040000Y-65000000D03*
%TD*%
D10*
%TO.P,R1,1*%
%TO.N,Net-(J5-Pin_1)*%
X147048800Y-81500000D03*
D11*
%TO.P,R1,2*%
%TO.N,GND*%
X136888800Y-81500000D03*
%TD*%
D24*
%TO.N,+5V*%
X163280200Y-71387800D03*
X167823200Y-92032400D03*
%TO.N,-5V*%
X132335100Y-74533800D03*
%TO.N,Net-(Q1-BASE_#1)*%
X146904800Y-68509500D03*
X145480200Y-75624100D03*
%TO.N,Net-(Q1-COLLECTOR_#3_1)*%
X158407800Y-77815100D03*
%TO.N,Net-(J3-Pin_1)*%
X132510000Y-98358200D03*
%TO.N,Net-(Q2-BASE_#1)*%
X141663900Y-95564500D03*
X141714700Y-101064100D03*
%TO.N,Net-(Q2-COLLECTOR_#3_1)*%
X148317800Y-94505800D03*
%TD*%
D25*
%TO.N,Net-(J3-Pin_1)*%
X149879700Y-104292400D02*
X149330300Y-103743000D01*
X151226600Y-104292400D02*
X149879700Y-104292400D01*
%TO.N,+5V*%
X137474800Y-96766300D02*
X137473700Y-96766300D01*
X137473700Y-96766300D02*
X137473300Y-96765900D01*
X145839200Y-65997200D02*
X142956700Y-65997200D01*
X145993700Y-66151700D02*
X145839200Y-65997200D01*
X137473300Y-96765900D02*
X137473300Y-94989900D01*
X139473800Y-69480100D02*
X139576700Y-69583100D01*
X156348800Y-93492500D02*
X156348800Y-94475500D01*
X146403400Y-93492500D02*
X156348800Y-93492500D01*
X137601900Y-94861300D02*
X145034600Y-94861300D01*
X163280200Y-71387800D02*
X162053000Y-72615000D01*
X138500000Y-70441300D02*
X139576700Y-70441300D01*
X145034600Y-94861300D02*
X146403400Y-93492500D01*
X156348800Y-93492500D02*
X166363100Y-93492500D01*
X162793300Y-65000000D02*
X161641600Y-66151700D01*
X166363100Y-93492500D02*
X167823200Y-92032400D01*
X139576700Y-69583100D02*
X139576700Y-70441300D01*
X162053000Y-72615000D02*
X155045000Y-72615000D01*
X137473700Y-96766300D02*
X137473300Y-96766300D01*
X163960000Y-65000000D02*
X162793300Y-65000000D01*
X156348800Y-94475500D02*
X155459300Y-95365000D01*
X138500000Y-69171300D02*
X139164900Y-69171300D01*
X138550000Y-98036300D02*
X137473300Y-98036300D01*
X137574200Y-96766300D02*
X137474800Y-96766300D01*
X155459300Y-95365000D02*
X155045000Y-95365000D01*
X142956700Y-65997200D02*
X139473800Y-69480100D01*
X137473300Y-94989900D02*
X137601900Y-94861300D01*
X138550000Y-96766300D02*
X137574200Y-96766300D01*
X161641600Y-66151700D02*
X145993700Y-66151700D01*
X139164900Y-69171300D02*
X139473800Y-69480100D01*
X137473300Y-98036300D02*
X137473300Y-96766300D01*
%TO.N,Net-(D1-A)*%
X138550000Y-94226300D02*
X131945000Y-94226300D01*
X134483300Y-95671300D02*
X137475000Y-98663000D01*
X140383300Y-95496300D02*
X138550000Y-95496300D01*
X139534800Y-98663000D02*
X140161500Y-98036300D01*
X130500000Y-95671300D02*
X134483300Y-95671300D01*
X144000000Y-98036300D02*
X142923300Y-98036300D01*
X142923300Y-98036300D02*
X140383300Y-95496300D01*
X140161500Y-98036300D02*
X142923300Y-98036300D01*
X131945000Y-94226300D02*
X130500000Y-95671300D01*
X137475000Y-98663000D02*
X139534800Y-98663000D01*
%TO.N,Net-(D2-A)*%
X135921300Y-69439600D02*
X137423300Y-67937600D01*
X138500000Y-66631300D02*
X137423300Y-66631300D01*
X142873300Y-70441300D02*
X142248100Y-71066500D01*
X137524200Y-67901300D02*
X137423300Y-67901300D01*
X128137800Y-72164500D02*
X129834900Y-70467400D01*
X137423300Y-67901300D02*
X137423300Y-66631300D01*
X142248100Y-71066500D02*
X142182000Y-71066500D01*
X137549600Y-71068000D02*
X135921300Y-69439600D01*
X130315300Y-74126000D02*
X129011100Y-74126000D01*
X129011100Y-74126000D02*
X128137800Y-73252700D01*
X138500000Y-67901300D02*
X137524200Y-67901300D01*
X142180500Y-71068000D02*
X137549600Y-71068000D01*
X134893500Y-70467400D02*
X135921300Y-69439600D01*
X143950000Y-70441300D02*
X142873300Y-70441300D01*
X142182000Y-71066500D02*
X142180500Y-71068000D01*
X129834900Y-70467400D02*
X134893500Y-70467400D01*
X137423300Y-67937600D02*
X137423300Y-67901300D01*
X128137800Y-73252700D02*
X128137800Y-72164500D01*
%TO.N,Net-(IC1-Pad2)*%
X174270000Y-89190000D02*
X174270000Y-90812500D01*
X172040500Y-90812500D02*
X174270000Y-90812500D01*
X164601700Y-98251300D02*
X172040500Y-90812500D01*
X163500000Y-98251300D02*
X164601700Y-98251300D01*
%TO.N,-5V*%
X145259500Y-75022400D02*
X144488400Y-74251300D01*
X129598300Y-95223700D02*
X129598300Y-98211300D01*
X150095000Y-75155000D02*
X149962400Y-75022400D01*
X144000000Y-101846300D02*
X145076700Y-101846300D01*
X144219200Y-74251300D02*
X144488400Y-74251300D01*
X136557800Y-101203000D02*
X140224000Y-101203000D01*
X144219200Y-74251300D02*
X143950000Y-74251300D01*
X165333300Y-65947900D02*
X164649900Y-66631300D01*
X169190000Y-92148100D02*
X164245000Y-97093100D01*
X133069800Y-97715000D02*
X136557800Y-101203000D01*
X145039300Y-71993000D02*
X144757600Y-71711300D01*
X142246600Y-72338000D02*
X142873300Y-71711300D01*
X165333300Y-65000000D02*
X165333300Y-65947900D01*
X140224000Y-101203000D02*
X142120700Y-99306300D01*
X169190000Y-89190000D02*
X169190000Y-92148100D01*
X134530900Y-72338000D02*
X142246600Y-72338000D01*
X142923300Y-94226300D02*
X142296500Y-93599500D01*
X145076700Y-101846300D02*
X145076700Y-99307800D01*
X131775300Y-98211300D02*
X132271600Y-97715000D01*
X144488400Y-71711300D02*
X143950000Y-71711300D01*
X143950000Y-71711300D02*
X142873300Y-71711300D01*
X164245000Y-97093100D02*
X160699600Y-97093100D01*
X145076700Y-99306300D02*
X146478000Y-97905000D01*
X144000000Y-94226300D02*
X142923300Y-94226300D01*
X159204300Y-98588400D02*
X150778400Y-98588400D01*
X146478000Y-97905000D02*
X150095000Y-97905000D01*
X160699600Y-97093100D02*
X159204300Y-98588400D01*
X131222500Y-93599500D02*
X129598300Y-95223700D01*
X144488400Y-71711300D02*
X144757600Y-71711300D01*
X132271600Y-97715000D02*
X133069800Y-97715000D01*
X145039300Y-73700400D02*
X145039300Y-71993000D01*
X142296500Y-93599500D02*
X131222500Y-93599500D01*
X132335100Y-74533800D02*
X134530900Y-72338000D01*
X145076700Y-99307800D02*
X145075200Y-99306300D01*
X144488400Y-74251300D02*
X145039300Y-73700400D01*
X145075200Y-99306300D02*
X145076700Y-99306300D01*
X142120700Y-99306300D02*
X144000000Y-99306300D01*
X144000000Y-99306300D02*
X145075200Y-99306300D01*
X149962400Y-75022400D02*
X145259500Y-75022400D01*
X130500000Y-98211300D02*
X129598300Y-98211300D01*
X166500000Y-65000000D02*
X165333300Y-65000000D01*
X130500000Y-98211300D02*
X131775300Y-98211300D01*
X150778400Y-98588400D02*
X150095000Y-97905000D01*
X164649900Y-66631300D02*
X143950000Y-66631300D01*
%TO.N,Net-(IC1-Pad3)*%
X171102500Y-86940000D02*
X149741700Y-86940000D01*
X171730000Y-89190000D02*
X171730000Y-87567500D01*
X149741700Y-86940000D02*
X148181700Y-88500000D01*
X171730000Y-87567500D02*
X171102500Y-86940000D01*
X147080000Y-88500000D02*
X148181700Y-88500000D01*
%TO.N,Net-(Q1-BASE_#1)*%
X143950000Y-72981300D02*
X142873300Y-72981300D01*
X143950000Y-69171300D02*
X146243000Y-69171300D01*
X142874800Y-69171300D02*
X142873300Y-69171300D01*
X142873300Y-67901300D02*
X142873300Y-69171300D01*
X143950000Y-75521300D02*
X142873300Y-75521300D01*
X145129500Y-75624100D02*
X145026700Y-75521300D01*
X142974200Y-69171300D02*
X142874800Y-69171300D01*
X143950000Y-67901300D02*
X142873300Y-67901300D01*
X145480200Y-75624100D02*
X145129500Y-75624100D01*
X143905300Y-69171300D02*
X142974200Y-69171300D01*
X143950000Y-75521300D02*
X145026700Y-75521300D01*
X143905300Y-69171300D02*
X143950000Y-69171300D01*
X146243000Y-69171300D02*
X146904800Y-68509500D01*
X142873300Y-75521300D02*
X142873300Y-72981300D01*
%TO.N,Net-(Q1-COLLECTOR_#3_1)*%
X148784000Y-71084600D02*
X148784000Y-71040500D01*
X163929200Y-71148100D02*
X163929200Y-71889100D01*
X163500000Y-73420000D02*
X163500000Y-72318300D01*
X149690100Y-72615000D02*
X148784000Y-71708900D01*
X144568100Y-77815100D02*
X139734300Y-72981300D01*
X138500000Y-71711300D02*
X142299100Y-71711300D01*
X142925800Y-71084600D02*
X148784000Y-71084600D01*
X163929200Y-71889100D02*
X163500000Y-72318300D01*
X139734300Y-72981300D02*
X138500000Y-72981300D01*
X163487300Y-70706200D02*
X163929200Y-71148100D01*
X142299100Y-71711300D02*
X142925800Y-71084600D01*
X158407800Y-77815100D02*
X144568100Y-77815100D01*
X150095000Y-72615000D02*
X149690100Y-72615000D01*
X148784000Y-71040500D02*
X149118300Y-70706200D01*
X149118300Y-70706200D02*
X163487300Y-70706200D01*
X148784000Y-71708900D02*
X148784000Y-71084600D01*
%TO.N,Net-(J3-Pin_1)*%
X138550000Y-103116300D02*
X138011700Y-103116300D01*
X135998100Y-101846300D02*
X132510000Y-98358200D01*
X137473300Y-102577900D02*
X137473300Y-101846300D01*
X138638400Y-103743000D02*
X149330300Y-103743000D01*
X138011700Y-103116300D02*
X137473300Y-102577900D01*
X138011700Y-103116300D02*
X138638400Y-103743000D01*
X138550000Y-101846300D02*
X137473300Y-101846300D01*
X137473300Y-101846300D02*
X135998100Y-101846300D01*
%TO.N,Net-(Q2-BASE_#1)*%
X144000000Y-95496300D02*
X142923300Y-95496300D01*
X142923300Y-95564500D02*
X142923300Y-96766300D01*
X143562500Y-96766300D02*
X144000000Y-96766300D01*
X142923300Y-95496300D02*
X142923300Y-95564500D01*
X144000000Y-103116300D02*
X142923300Y-103116300D01*
X142923300Y-103116300D02*
X142923300Y-100576300D01*
X142923300Y-95564500D02*
X141663900Y-95564500D01*
X141714700Y-101064100D02*
X142435500Y-101064100D01*
X143562500Y-96766300D02*
X143024200Y-96766300D01*
X143024200Y-96766300D02*
X142924800Y-96766300D01*
X142435500Y-101064100D02*
X142923300Y-100576300D01*
X144000000Y-100576300D02*
X142923300Y-100576300D01*
X142924800Y-96766300D02*
X142923300Y-96766300D01*
%TO.N,Net-(Q2-COLLECTOR_#3_1)*%
X137483500Y-99548000D02*
X137473300Y-99537800D01*
X138011700Y-99306300D02*
X137632500Y-99306300D01*
X139626700Y-99558300D02*
X139616300Y-99547900D01*
X137632500Y-99306300D02*
X137473300Y-99306300D01*
X138550000Y-100576300D02*
X139626700Y-100576300D01*
X139626700Y-100576300D02*
X139626700Y-99558300D01*
X145011500Y-98671300D02*
X148317800Y-95365000D01*
X139616300Y-99547900D02*
X137483700Y-99547900D01*
X148317800Y-95365000D02*
X148317800Y-94505800D01*
X137483600Y-99548000D02*
X137483500Y-99548000D01*
X137483700Y-99547900D02*
X137483600Y-99548000D01*
X137473300Y-99537800D02*
X137473300Y-99306300D01*
X139626700Y-99558300D02*
X140513700Y-98671300D01*
X140513700Y-98671300D02*
X145011500Y-98671300D01*
X138550000Y-99306300D02*
X138011700Y-99306300D01*
X148317800Y-95365000D02*
X150095000Y-95365000D01*
%TO.N,Net-(R3-Pad1)*%
X155401500Y-73885000D02*
X160080000Y-78563500D01*
X160080000Y-78563500D02*
X160080000Y-81500000D01*
X163261700Y-83580000D02*
X161181700Y-81500000D01*
X163500000Y-83580000D02*
X163261700Y-83580000D01*
X160080000Y-81500000D02*
X161181700Y-81500000D01*
X155045000Y-73885000D02*
X155401500Y-73885000D01*
%TO.N,Net-(R4-Pad1)*%
X163500000Y-88091300D02*
X164766300Y-88091300D01*
X164766300Y-88091300D02*
X168447900Y-91772900D01*
X163091300Y-88500000D02*
X163500000Y-88091300D01*
X168447900Y-91772900D02*
X168447900Y-92312000D01*
X168447900Y-92312000D02*
X164124900Y-96635000D01*
X164124900Y-96635000D02*
X155045000Y-96635000D01*
X160000000Y-88500000D02*
X163091300Y-88500000D01*
%TO.N,Net-(J5-Pin_1)*%
X138500000Y-75521300D02*
X138230900Y-75521300D01*
X137961700Y-75521300D02*
X143940400Y-81500000D01*
X138500000Y-74251300D02*
X137423300Y-74251300D01*
X137423300Y-74713700D02*
X137423300Y-74251300D01*
X138230900Y-75521300D02*
X137423300Y-74713700D01*
X143940400Y-81500000D02*
X147048800Y-81500000D01*
X138230900Y-75521300D02*
X137961700Y-75521300D01*
%TD*%
%TA.AperFunction,Conductor*%
%TO.N,GND*%
G36*
X148628869Y-96005679D02*
G01*
X148684802Y-96047551D01*
X148709219Y-96113015D01*
X148694367Y-96181288D01*
X148692268Y-96184981D01*
X148668718Y-96224802D01*
X148622899Y-96382513D01*
X148622704Y-96384998D01*
X148622705Y-96385000D01*
X149971000Y-96385000D01*
X150038039Y-96404685D01*
X150083794Y-96457489D01*
X150095000Y-96509000D01*
X150095000Y-96761000D01*
X150075315Y-96828039D01*
X150022511Y-96873794D01*
X149971000Y-96885000D01*
X148622705Y-96885000D01*
X148622704Y-96885001D01*
X148622899Y-96887486D01*
X148668718Y-97045198D01*
X148711406Y-97117379D01*
X148728589Y-97185103D01*
X148706429Y-97251365D01*
X148651963Y-97295129D01*
X148604674Y-97304500D01*
X147526897Y-97304500D01*
X147459858Y-97284815D01*
X147414103Y-97232011D01*
X147404159Y-97162853D01*
X147433184Y-97099297D01*
X147439216Y-97092819D01*
X147945470Y-96586565D01*
X148497856Y-96034178D01*
X148559177Y-96000695D01*
X148628869Y-96005679D01*
G37*
%TD.AperFunction*%
%TA.AperFunction,Conductor*%
G36*
X148128252Y-71704785D02*
G01*
X148174007Y-71757589D01*
X148180539Y-71780335D01*
X148181396Y-71780106D01*
X148183499Y-71787954D01*
X148183499Y-71787957D01*
X148206183Y-71872612D01*
X148224424Y-71940689D01*
X148224425Y-71940690D01*
X148240283Y-71968156D01*
X148240284Y-71968157D01*
X148303477Y-72077612D01*
X148303481Y-72077617D01*
X148422349Y-72196485D01*
X148422355Y-72196490D01*
X148583181Y-72357316D01*
X148616666Y-72418639D01*
X148619500Y-72444997D01*
X148619500Y-72830701D01*
X148622401Y-72867567D01*
X148622402Y-72867573D01*
X148668254Y-73025393D01*
X148668255Y-73025396D01*
X148668256Y-73025398D01*
X148694769Y-73070229D01*
X148751917Y-73166862D01*
X148756702Y-73173031D01*
X148754369Y-73174840D01*
X148781210Y-73223995D01*
X148776226Y-73293687D01*
X148755470Y-73326021D01*
X148757097Y-73327283D01*
X148752313Y-73333449D01*
X148668718Y-73474801D01*
X148622899Y-73632513D01*
X148622704Y-73634998D01*
X148622705Y-73635000D01*
X149971000Y-73635000D01*
X150038039Y-73654685D01*
X150083794Y-73707489D01*
X150095000Y-73759000D01*
X150095000Y-74011000D01*
X150075315Y-74078039D01*
X150022511Y-74123794D01*
X149971000Y-74135000D01*
X148622705Y-74135000D01*
X148622704Y-74135001D01*
X148622899Y-74137488D01*
X148622900Y-74137494D01*
X148659452Y-74263305D01*
X148659253Y-74333175D01*
X148621311Y-74391845D01*
X148557672Y-74420688D01*
X148540376Y-74421900D01*
X145559597Y-74421900D01*
X145492558Y-74402215D01*
X145471916Y-74385581D01*
X145425316Y-74338981D01*
X145391831Y-74277658D01*
X145396815Y-74207966D01*
X145425312Y-74163623D01*
X145519820Y-74069116D01*
X145589651Y-73948164D01*
X145598877Y-73932185D01*
X145639800Y-73779458D01*
X145639800Y-73621343D01*
X145639800Y-72082059D01*
X145639801Y-72082046D01*
X145639801Y-71913945D01*
X145639801Y-71913943D01*
X145620307Y-71841191D01*
X145621970Y-71771344D01*
X145661132Y-71713481D01*
X145725360Y-71685977D01*
X145740082Y-71685100D01*
X148061213Y-71685100D01*
X148128252Y-71704785D01*
G37*
%TD.AperFunction*%
%TA.AperFunction,Conductor*%
G36*
X186442539Y-62020185D02*
G01*
X186488294Y-62072989D01*
X186499500Y-62124500D01*
X186499500Y-107375500D01*
X186479815Y-107442539D01*
X186427011Y-107488294D01*
X186375500Y-107499500D01*
X122624500Y-107499500D01*
X122557461Y-107479815D01*
X122511706Y-107427011D01*
X122500500Y-107375500D01*
X122500500Y-104397648D01*
X124199500Y-104397648D01*
X124199500Y-104602352D01*
X124213778Y-104692499D01*
X124231523Y-104804534D01*
X124231522Y-104804534D01*
X124294781Y-104999223D01*
X124358691Y-105124653D01*
X124378476Y-105163482D01*
X124387715Y-105181613D01*
X124508028Y-105347213D01*
X124652786Y-105491971D01*
X124782480Y-105586197D01*
X124818390Y-105612287D01*
X124934607Y-105671503D01*
X125000776Y-105705218D01*
X125000778Y-105705218D01*
X125000781Y-105705220D01*
X125105137Y-105739127D01*
X125195465Y-105768477D01*
X125296557Y-105784488D01*
X125397648Y-105800500D01*
X125397649Y-105800500D01*
X125602351Y-105800500D01*
X125602352Y-105800500D01*
X125804534Y-105768477D01*
X125999219Y-105705220D01*
X126181610Y-105612287D01*
X126274590Y-105544732D01*
X126347213Y-105491971D01*
X126347215Y-105491968D01*
X126347219Y-105491966D01*
X126491966Y-105347219D01*
X126491968Y-105347215D01*
X126491971Y-105347213D01*
X126562684Y-105249883D01*
X126612287Y-105181610D01*
X126705220Y-104999219D01*
X126768477Y-104804534D01*
X126800500Y-104602352D01*
X126800500Y-104397648D01*
X126772921Y-104223524D01*
X126768477Y-104195465D01*
X126718743Y-104042400D01*
X126705220Y-104000781D01*
X126705218Y-104000778D01*
X126705218Y-104000776D01*
X126671503Y-103934607D01*
X126612287Y-103818390D01*
X126593404Y-103792400D01*
X126491971Y-103652786D01*
X126347213Y-103508028D01*
X126181613Y-103387715D01*
X126181612Y-103387714D01*
X126181610Y-103387713D01*
X126124653Y-103358691D01*
X125999223Y-103294781D01*
X125804534Y-103231522D01*
X125629995Y-103203878D01*
X125602352Y-103199500D01*
X125397648Y-103199500D01*
X125373329Y-103203351D01*
X125195465Y-103231522D01*
X125000776Y-103294781D01*
X124818386Y-103387715D01*
X124652786Y-103508028D01*
X124508028Y-103652786D01*
X124387715Y-103818386D01*
X124294781Y-104000776D01*
X124231522Y-104195465D01*
X124208076Y-104343500D01*
X124199500Y-104397648D01*
X122500500Y-104397648D01*
X122500500Y-95144643D01*
X128997799Y-95144643D01*
X128997799Y-95144645D01*
X128997799Y-95312746D01*
X128997800Y-95312759D01*
X128997800Y-98132243D01*
X128997800Y-98290357D01*
X129015358Y-98355882D01*
X129038723Y-98443083D01*
X129038726Y-98443090D01*
X129117775Y-98580009D01*
X129117779Y-98580014D01*
X129117780Y-98580016D01*
X129229584Y-98691820D01*
X129229586Y-98691821D01*
X129229590Y-98691824D01*
X129366509Y-98770874D01*
X129366512Y-98770875D01*
X129366516Y-98770877D01*
X129407666Y-98781903D01*
X129467325Y-98818267D01*
X129486056Y-98845382D01*
X129537782Y-98946901D01*
X129558768Y-98988088D01*
X129660586Y-99128228D01*
X129783072Y-99250714D01*
X129923212Y-99352532D01*
X130077555Y-99431173D01*
X130242299Y-99484702D01*
X130413389Y-99511800D01*
X130413390Y-99511800D01*
X130586610Y-99511800D01*
X130586611Y-99511800D01*
X130757701Y-99484702D01*
X130922445Y-99431173D01*
X131076788Y-99352532D01*
X131216928Y-99250714D01*
X131339414Y-99128228D01*
X131441232Y-98988088D01*
X131462218Y-98946901D01*
X131496557Y-98879506D01*
X131544531Y-98828709D01*
X131607042Y-98811800D01*
X131688631Y-98811800D01*
X131688647Y-98811801D01*
X131696243Y-98811801D01*
X131781663Y-98811801D01*
X131848702Y-98831486D01*
X131878608Y-98858486D01*
X131880183Y-98860461D01*
X131880184Y-98860462D01*
X132007738Y-98988016D01*
X132160478Y-99083989D01*
X132330745Y-99143568D01*
X132417669Y-99153361D01*
X132482080Y-99180426D01*
X132491465Y-99188900D01*
X135513239Y-102210674D01*
X135513249Y-102210685D01*
X135517579Y-102215015D01*
X135517580Y-102215016D01*
X135629384Y-102326820D01*
X135629386Y-102326821D01*
X135629390Y-102326824D01*
X135766309Y-102405873D01*
X135766316Y-102405877D01*
X135870355Y-102433754D01*
X135919042Y-102446800D01*
X135919043Y-102446800D01*
X136748799Y-102446800D01*
X136815838Y-102466485D01*
X136861593Y-102519289D01*
X136872799Y-102570800D01*
X136872799Y-102656954D01*
X136872798Y-102656954D01*
X136913723Y-102809685D01*
X136942658Y-102859800D01*
X136942659Y-102859804D01*
X136942660Y-102859804D01*
X136992779Y-102946614D01*
X136992781Y-102946617D01*
X137238181Y-103192017D01*
X137271666Y-103253340D01*
X137274500Y-103279697D01*
X137274500Y-103489169D01*
X137274501Y-103489176D01*
X137280908Y-103548783D01*
X137331202Y-103683628D01*
X137331206Y-103683635D01*
X137417452Y-103798844D01*
X137417455Y-103798847D01*
X137532664Y-103885093D01*
X137532671Y-103885097D01*
X137577618Y-103901861D01*
X137667517Y-103935391D01*
X137727127Y-103941800D01*
X137936601Y-103941799D01*
X138003641Y-103961483D01*
X138024282Y-103978117D01*
X138269684Y-104223520D01*
X138269686Y-104223521D01*
X138269690Y-104223524D01*
X138406609Y-104302573D01*
X138406616Y-104302577D01*
X138559343Y-104343501D01*
X138559345Y-104343501D01*
X138725054Y-104343501D01*
X138725070Y-104343500D01*
X149030203Y-104343500D01*
X149097242Y-104363185D01*
X149117884Y-104379819D01*
X149394839Y-104656774D01*
X149394849Y-104656785D01*
X149399179Y-104661115D01*
X149399180Y-104661116D01*
X149510984Y-104772920D01*
X149510986Y-104772921D01*
X149565742Y-104804534D01*
X149565741Y-104804534D01*
X149565744Y-104804535D01*
X149647909Y-104851974D01*
X149647910Y-104851975D01*
X149647912Y-104851975D01*
X149647915Y-104851977D01*
X149784197Y-104888494D01*
X149843855Y-104924858D01*
X149874384Y-104987705D01*
X149876101Y-105008268D01*
X149876101Y-105190276D01*
X149882508Y-105249883D01*
X149932802Y-105384728D01*
X149932806Y-105384735D01*
X150019052Y-105499944D01*
X150019055Y-105499947D01*
X150134264Y-105586193D01*
X150134271Y-105586197D01*
X150269117Y-105636491D01*
X150269116Y-105636491D01*
X150276044Y-105637235D01*
X150328727Y-105642900D01*
X152124472Y-105642899D01*
X152184083Y-105636491D01*
X152318931Y-105586196D01*
X152434146Y-105499946D01*
X152520396Y-105384731D01*
X152569602Y-105252801D01*
X152611472Y-105196868D01*
X152676937Y-105172450D01*
X152745210Y-105187301D01*
X152773465Y-105208453D01*
X152895517Y-105330505D01*
X153089021Y-105466000D01*
X153303107Y-105565829D01*
X153303116Y-105565833D01*
X153516600Y-105623034D01*
X153516600Y-104725412D01*
X153573607Y-104758325D01*
X153700774Y-104792400D01*
X153832426Y-104792400D01*
X153959593Y-104758325D01*
X154016600Y-104725412D01*
X154016600Y-105623033D01*
X154230083Y-105565833D01*
X154230092Y-105565829D01*
X154444178Y-105466000D01*
X154637682Y-105330505D01*
X154804705Y-105163482D01*
X154940200Y-104969978D01*
X155040029Y-104755892D01*
X155040032Y-104755886D01*
X155097236Y-104542400D01*
X154199612Y-104542400D01*
X154232525Y-104485393D01*
X154256037Y-104397648D01*
X182199500Y-104397648D01*
X182199500Y-104602352D01*
X182213778Y-104692499D01*
X182231523Y-104804534D01*
X182231522Y-104804534D01*
X182294781Y-104999223D01*
X182358691Y-105124653D01*
X182378476Y-105163482D01*
X182387715Y-105181613D01*
X182508028Y-105347213D01*
X182652786Y-105491971D01*
X182782480Y-105586197D01*
X182818390Y-105612287D01*
X182934607Y-105671503D01*
X183000776Y-105705218D01*
X183000778Y-105705218D01*
X183000781Y-105705220D01*
X183105137Y-105739127D01*
X183195465Y-105768477D01*
X183296557Y-105784488D01*
X183397648Y-105800500D01*
X183397649Y-105800500D01*
X183602351Y-105800500D01*
X183602352Y-105800500D01*
X183804534Y-105768477D01*
X183999219Y-105705220D01*
X184181610Y-105612287D01*
X184274590Y-105544732D01*
X184347213Y-105491971D01*
X184347215Y-105491968D01*
X184347219Y-105491966D01*
X184491966Y-105347219D01*
X184491968Y-105347215D01*
X184491971Y-105347213D01*
X184562684Y-105249883D01*
X184612287Y-105181610D01*
X184705220Y-104999219D01*
X184768477Y-104804534D01*
X184800500Y-104602352D01*
X184800500Y-104397648D01*
X184772921Y-104223524D01*
X184768477Y-104195465D01*
X184718743Y-104042400D01*
X184705220Y-104000781D01*
X184705218Y-104000778D01*
X184705218Y-104000776D01*
X184671503Y-103934607D01*
X184612287Y-103818390D01*
X184593404Y-103792400D01*
X184491971Y-103652786D01*
X184347213Y-103508028D01*
X184181613Y-103387715D01*
X184181612Y-103387714D01*
X184181610Y-103387713D01*
X184124653Y-103358691D01*
X183999223Y-103294781D01*
X183804534Y-103231522D01*
X183629995Y-103203878D01*
X183602352Y-103199500D01*
X183397648Y-103199500D01*
X183373329Y-103203351D01*
X183195465Y-103231522D01*
X183000776Y-103294781D01*
X182818386Y-103387715D01*
X182652786Y-103508028D01*
X182508028Y-103652786D01*
X182387715Y-103818386D01*
X182294781Y-104000776D01*
X182231522Y-104195465D01*
X182208076Y-104343500D01*
X182199500Y-104397648D01*
X154256037Y-104397648D01*
X154266600Y-104358226D01*
X154266600Y-104226574D01*
X154232525Y-104099407D01*
X154199612Y-104042400D01*
X155097236Y-104042400D01*
X155097235Y-104042399D01*
X155040032Y-103828913D01*
X155040029Y-103828907D01*
X154940200Y-103614822D01*
X154940199Y-103614820D01*
X154804713Y-103421326D01*
X154804708Y-103421320D01*
X154637682Y-103254294D01*
X154444178Y-103118799D01*
X154230092Y-103018970D01*
X154230086Y-103018967D01*
X154016600Y-102961764D01*
X154016600Y-103859388D01*
X153959593Y-103826475D01*
X153832426Y-103792400D01*
X153700774Y-103792400D01*
X153573607Y-103826475D01*
X153516600Y-103859388D01*
X153516600Y-102961764D01*
X153516599Y-102961764D01*
X153303113Y-103018967D01*
X153303107Y-103018970D01*
X153089022Y-103118799D01*
X153089020Y-103118800D01*
X152895526Y-103254286D01*
X152773465Y-103376347D01*
X152712142Y-103409831D01*
X152642450Y-103404847D01*
X152586517Y-103362975D01*
X152569602Y-103331998D01*
X152520397Y-103200070D01*
X152520393Y-103200064D01*
X152434147Y-103084855D01*
X152434144Y-103084852D01*
X152318935Y-102998606D01*
X152318928Y-102998602D01*
X152184082Y-102948308D01*
X152184083Y-102948308D01*
X152124483Y-102941901D01*
X152124481Y-102941900D01*
X152124473Y-102941900D01*
X152124464Y-102941900D01*
X150328729Y-102941900D01*
X150328723Y-102941901D01*
X150269116Y-102948308D01*
X150134271Y-102998602D01*
X150134264Y-102998606D01*
X150019055Y-103084852D01*
X150019052Y-103084855D01*
X149932806Y-103200064D01*
X149932803Y-103200070D01*
X149919766Y-103235022D01*
X149877894Y-103290955D01*
X149812430Y-103315371D01*
X149744157Y-103300519D01*
X149715904Y-103279368D01*
X149699017Y-103262481D01*
X149699016Y-103262480D01*
X149590917Y-103200069D01*
X149590917Y-103200068D01*
X149590914Y-103200068D01*
X149562085Y-103183423D01*
X149409357Y-103142499D01*
X149251243Y-103142499D01*
X149243647Y-103142499D01*
X149243631Y-103142500D01*
X145399500Y-103142500D01*
X145332461Y-103122815D01*
X145286706Y-103070011D01*
X145275500Y-103018500D01*
X145275499Y-102743430D01*
X145275498Y-102743423D01*
X145269091Y-102683816D01*
X145226092Y-102568529D01*
X145221108Y-102498837D01*
X145254593Y-102437514D01*
X145301563Y-102410401D01*
X145300977Y-102408986D01*
X145308473Y-102405879D01*
X145308484Y-102405877D01*
X145445416Y-102326820D01*
X145557220Y-102215016D01*
X145636277Y-102078084D01*
X145677200Y-101925357D01*
X145677200Y-99606397D01*
X145696885Y-99539358D01*
X145713519Y-99518716D01*
X146690416Y-98541819D01*
X146751739Y-98508334D01*
X146778097Y-98505500D01*
X148749192Y-98505500D01*
X148816231Y-98525185D01*
X148836874Y-98541820D01*
X148868129Y-98573076D01*
X148868133Y-98573079D01*
X148868135Y-98573081D01*
X149009602Y-98656744D01*
X149051224Y-98668836D01*
X149167426Y-98702597D01*
X149167429Y-98702597D01*
X149167431Y-98702598D01*
X149204306Y-98705500D01*
X149994902Y-98705500D01*
X150061941Y-98725185D01*
X150082583Y-98741819D01*
X150409684Y-99068920D01*
X150409686Y-99068921D01*
X150409690Y-99068924D01*
X150538979Y-99143568D01*
X150546616Y-99147977D01*
X150699343Y-99188901D01*
X150699345Y-99188901D01*
X150865054Y-99188901D01*
X150865070Y-99188900D01*
X159117631Y-99188900D01*
X159117647Y-99188901D01*
X159125243Y-99188901D01*
X159283354Y-99188901D01*
X159283357Y-99188901D01*
X159436085Y-99147977D01*
X159489402Y-99117194D01*
X159573016Y-99068920D01*
X159684820Y-98957116D01*
X159684820Y-98957114D01*
X159695024Y-98946911D01*
X159695027Y-98946906D01*
X160912017Y-97729919D01*
X160973340Y-97696434D01*
X160999698Y-97693600D01*
X162141458Y-97693600D01*
X162208497Y-97713285D01*
X162254252Y-97766089D01*
X162264196Y-97835247D01*
X162261233Y-97849693D01*
X162214366Y-98024602D01*
X162214364Y-98024613D01*
X162194532Y-98251298D01*
X162194532Y-98251301D01*
X162214364Y-98477986D01*
X162214366Y-98477997D01*
X162273258Y-98697788D01*
X162273261Y-98697797D01*
X162369431Y-98904032D01*
X162369432Y-98904034D01*
X162499954Y-99090441D01*
X162660858Y-99251345D01*
X162660861Y-99251347D01*
X162847266Y-99381868D01*
X163053504Y-99478039D01*
X163273308Y-99536935D01*
X163435230Y-99551101D01*
X163499998Y-99556768D01*
X163500000Y-99556768D01*
X163500002Y-99556768D01*
X163556673Y-99551809D01*
X163726692Y-99536935D01*
X163946496Y-99478039D01*
X164152734Y-99381868D01*
X164339139Y-99251347D01*
X164500047Y-99090439D01*
X164630568Y-98904034D01*
X164630576Y-98904016D01*
X164631372Y-98902639D01*
X164631890Y-98902144D01*
X164633673Y-98899599D01*
X164634184Y-98899957D01*
X164681935Y-98854420D01*
X164706660Y-98844860D01*
X164833485Y-98810877D01*
X164883604Y-98781939D01*
X164970416Y-98731820D01*
X165082220Y-98620016D01*
X165082220Y-98620014D01*
X165092428Y-98609807D01*
X165092430Y-98609804D01*
X167831719Y-95870514D01*
X167893040Y-95837031D01*
X167962732Y-95842015D01*
X168018665Y-95883887D01*
X168043082Y-95949351D01*
X168041871Y-95977595D01*
X168029100Y-96058229D01*
X168029100Y-97561770D01*
X168057684Y-97742241D01*
X168057685Y-97742245D01*
X168114152Y-97916031D01*
X168197109Y-98078844D01*
X168304515Y-98226676D01*
X168433724Y-98355885D01*
X168581556Y-98463291D01*
X168744369Y-98546248D01*
X168918155Y-98602715D01*
X168985835Y-98613434D01*
X169098630Y-98631300D01*
X169098635Y-98631300D01*
X169281370Y-98631300D01*
X169381631Y-98615419D01*
X169461845Y-98602715D01*
X169635631Y-98546248D01*
X169798444Y-98463291D01*
X169946276Y-98355885D01*
X170075485Y-98226676D01*
X170182891Y-98078844D01*
X170265848Y-97916031D01*
X170322315Y-97742245D01*
X170337527Y-97646202D01*
X170367456Y-97583067D01*
X170426768Y-97546136D01*
X170496630Y-97547134D01*
X170554863Y-97585744D01*
X170582473Y-97646202D01*
X170597684Y-97742241D01*
X170597685Y-97742245D01*
X170654152Y-97916031D01*
X170737109Y-98078844D01*
X170844515Y-98226676D01*
X170973724Y-98355885D01*
X171121556Y-98463291D01*
X171284369Y-98546248D01*
X171458155Y-98602715D01*
X171525835Y-98613434D01*
X171638630Y-98631300D01*
X171638635Y-98631300D01*
X171821370Y-98631300D01*
X171921631Y-98615419D01*
X172001845Y-98602715D01*
X172175631Y-98546248D01*
X172338444Y-98463291D01*
X172486276Y-98355885D01*
X172615485Y-98226676D01*
X172722891Y-98078844D01*
X172805848Y-97916031D01*
X172862315Y-97742245D01*
X172877527Y-97646202D01*
X172907456Y-97583067D01*
X172966768Y-97546136D01*
X173036630Y-97547134D01*
X173094863Y-97585744D01*
X173122473Y-97646202D01*
X173137684Y-97742241D01*
X173137685Y-97742245D01*
X173194152Y-97916031D01*
X173277109Y-98078844D01*
X173384515Y-98226676D01*
X173513724Y-98355885D01*
X173661556Y-98463291D01*
X173824369Y-98546248D01*
X173998155Y-98602715D01*
X174065835Y-98613434D01*
X174178630Y-98631300D01*
X174178635Y-98631300D01*
X174361370Y-98631300D01*
X174461631Y-98615419D01*
X174541845Y-98602715D01*
X174715631Y-98546248D01*
X174878444Y-98463291D01*
X175026276Y-98355885D01*
X175155485Y-98226676D01*
X175262891Y-98078844D01*
X175345848Y-97916031D01*
X175402315Y-97742245D01*
X175417527Y-97646202D01*
X175447456Y-97583067D01*
X175506768Y-97546136D01*
X175576630Y-97547134D01*
X175634863Y-97585744D01*
X175662473Y-97646202D01*
X175677684Y-97742241D01*
X175677685Y-97742245D01*
X175734152Y-97916031D01*
X175817109Y-98078844D01*
X175924515Y-98226676D01*
X176053724Y-98355885D01*
X176201556Y-98463291D01*
X176364369Y-98546248D01*
X176538155Y-98602715D01*
X176605835Y-98613434D01*
X176718630Y-98631300D01*
X176718635Y-98631300D01*
X176901370Y-98631300D01*
X177001631Y-98615419D01*
X177081845Y-98602715D01*
X177255631Y-98546248D01*
X177418444Y-98463291D01*
X177566276Y-98355885D01*
X177695485Y-98226676D01*
X177802891Y-98078844D01*
X177885848Y-97916031D01*
X177942315Y-97742245D01*
X177957527Y-97646202D01*
X177970900Y-97561770D01*
X177970900Y-96058229D01*
X177942315Y-95877758D01*
X177942315Y-95877755D01*
X177885848Y-95703969D01*
X177802891Y-95541156D01*
X177695485Y-95393324D01*
X177566276Y-95264115D01*
X177418444Y-95156709D01*
X177255631Y-95073752D01*
X177081845Y-95017285D01*
X177081843Y-95017284D01*
X177081841Y-95017284D01*
X176901370Y-94988700D01*
X176901365Y-94988700D01*
X176718635Y-94988700D01*
X176718630Y-94988700D01*
X176538158Y-95017284D01*
X176364366Y-95073753D01*
X176201555Y-95156709D01*
X176053721Y-95264117D01*
X175924517Y-95393321D01*
X175817109Y-95541155D01*
X175734153Y-95703966D01*
X175677684Y-95877758D01*
X175662473Y-95973797D01*
X175632544Y-96036932D01*
X175573232Y-96073863D01*
X175503369Y-96072865D01*
X175445137Y-96034255D01*
X175417527Y-95973797D01*
X175402315Y-95877758D01*
X175402315Y-95877755D01*
X175345848Y-95703969D01*
X175262891Y-95541156D01*
X175155485Y-95393324D01*
X175026276Y-95264115D01*
X174878444Y-95156709D01*
X174715631Y-95073752D01*
X174541845Y-95017285D01*
X174541843Y-95017284D01*
X174541841Y-95017284D01*
X174361370Y-94988700D01*
X174361365Y-94988700D01*
X174178635Y-94988700D01*
X174178630Y-94988700D01*
X173998158Y-95017284D01*
X173824366Y-95073753D01*
X173661555Y-95156709D01*
X173513721Y-95264117D01*
X173384517Y-95393321D01*
X173277109Y-95541155D01*
X173194153Y-95703966D01*
X173137684Y-95877758D01*
X173122473Y-95973797D01*
X173092544Y-96036932D01*
X173033232Y-96073863D01*
X172963369Y-96072865D01*
X172905137Y-96034255D01*
X172877527Y-95973797D01*
X172862315Y-95877758D01*
X172862315Y-95877755D01*
X172805848Y-95703969D01*
X172722891Y-95541156D01*
X172615485Y-95393324D01*
X172486276Y-95264115D01*
X172338444Y-95156709D01*
X172175631Y-95073752D01*
X172001845Y-95017285D01*
X172001843Y-95017284D01*
X172001841Y-95017284D01*
X171821370Y-94988700D01*
X171821365Y-94988700D01*
X171638635Y-94988700D01*
X171638630Y-94988700D01*
X171458158Y-95017284D01*
X171284366Y-95073753D01*
X171121555Y-95156709D01*
X170973721Y-95264117D01*
X170844517Y-95393321D01*
X170737109Y-95541155D01*
X170654153Y-95703966D01*
X170597684Y-95877758D01*
X170582473Y-95973797D01*
X170552544Y-96036932D01*
X170493232Y-96073863D01*
X170423369Y-96072865D01*
X170365137Y-96034255D01*
X170337527Y-95973797D01*
X170322315Y-95877758D01*
X170322315Y-95877755D01*
X170265848Y-95703969D01*
X170182891Y-95541156D01*
X170075485Y-95393324D01*
X169946276Y-95264115D01*
X169798444Y-95156709D01*
X169635631Y-95073752D01*
X169461845Y-95017285D01*
X169461843Y-95017284D01*
X169461841Y-95017284D01*
X169281370Y-94988700D01*
X169281365Y-94988700D01*
X169098635Y-94988700D01*
X169098630Y-94988700D01*
X169017995Y-95001471D01*
X168948701Y-94992516D01*
X168895249Y-94947520D01*
X168874610Y-94880768D01*
X168893335Y-94813455D01*
X168910911Y-94791322D01*
X172252916Y-91449319D01*
X172314239Y-91415834D01*
X172340597Y-91413000D01*
X174349055Y-91413000D01*
X174349057Y-91413000D01*
X174501784Y-91372077D01*
X174638716Y-91293020D01*
X174750520Y-91181216D01*
X174829577Y-91044284D01*
X174870500Y-90891557D01*
X174870500Y-90891555D01*
X174872603Y-90883707D01*
X174875449Y-90884469D01*
X174897987Y-90833504D01*
X174919786Y-90813254D01*
X175026276Y-90735885D01*
X175155485Y-90606676D01*
X175262891Y-90458844D01*
X175345848Y-90296031D01*
X175402315Y-90122245D01*
X175417527Y-90026202D01*
X175447456Y-89963067D01*
X175506768Y-89926136D01*
X175576630Y-89927134D01*
X175634863Y-89965744D01*
X175662473Y-90026202D01*
X175677684Y-90122241D01*
X175677684Y-90122243D01*
X175677685Y-90122245D01*
X175734152Y-90296031D01*
X175817109Y-90458844D01*
X175924515Y-90606676D01*
X176053724Y-90735885D01*
X176201556Y-90843291D01*
X176364369Y-90926248D01*
X176538155Y-90982715D01*
X176605835Y-90993434D01*
X176718630Y-91011300D01*
X176718635Y-91011300D01*
X176901370Y-91011300D01*
X177001631Y-90995419D01*
X177081845Y-90982715D01*
X177255631Y-90926248D01*
X177418444Y-90843291D01*
X177566276Y-90735885D01*
X177695485Y-90606676D01*
X177802891Y-90458844D01*
X177885848Y-90296031D01*
X177942315Y-90122245D01*
X177957527Y-90026202D01*
X177970900Y-89941770D01*
X177970900Y-88438229D01*
X177942315Y-88257758D01*
X177942315Y-88257755D01*
X177885848Y-88083969D01*
X177802891Y-87921156D01*
X177695485Y-87773324D01*
X177566276Y-87644115D01*
X177418444Y-87536709D01*
X177255631Y-87453752D01*
X177081845Y-87397285D01*
X177081843Y-87397284D01*
X177081841Y-87397284D01*
X176901370Y-87368700D01*
X176901365Y-87368700D01*
X176718635Y-87368700D01*
X176718630Y-87368700D01*
X176538158Y-87397284D01*
X176364366Y-87453753D01*
X176201555Y-87536709D01*
X176053721Y-87644117D01*
X175924517Y-87773321D01*
X175817109Y-87921155D01*
X175734153Y-88083966D01*
X175677684Y-88257758D01*
X175662473Y-88353797D01*
X175632544Y-88416932D01*
X175573232Y-88453863D01*
X175503369Y-88452865D01*
X175445137Y-88414255D01*
X175417527Y-88353797D01*
X175402315Y-88257758D01*
X175402315Y-88257755D01*
X175345848Y-88083969D01*
X175262891Y-87921156D01*
X175155485Y-87773324D01*
X175026276Y-87644115D01*
X174878444Y-87536709D01*
X174715631Y-87453752D01*
X174541845Y-87397285D01*
X174541843Y-87397284D01*
X174541841Y-87397284D01*
X174361370Y-87368700D01*
X174361365Y-87368700D01*
X174178635Y-87368700D01*
X174178630Y-87368700D01*
X173998158Y-87397284D01*
X173824366Y-87453753D01*
X173661555Y-87536709D01*
X173513721Y-87644117D01*
X173384517Y-87773321D01*
X173277109Y-87921155D01*
X173194153Y-88083966D01*
X173137684Y-88257758D01*
X173122473Y-88353797D01*
X173092544Y-88416932D01*
X173033232Y-88453863D01*
X172963369Y-88452865D01*
X172905137Y-88414255D01*
X172877527Y-88353797D01*
X172862315Y-88257758D01*
X172862315Y-88257755D01*
X172805848Y-88083969D01*
X172722891Y-87921156D01*
X172615485Y-87773324D01*
X172486276Y-87644115D01*
X172486272Y-87644112D01*
X172379787Y-87566746D01*
X172337121Y-87511416D01*
X172333202Y-87496133D01*
X172332604Y-87496294D01*
X172330501Y-87488445D01*
X172330501Y-87488443D01*
X172289577Y-87335715D01*
X172241337Y-87252161D01*
X172210520Y-87198784D01*
X172098716Y-87086980D01*
X172098715Y-87086979D01*
X172094385Y-87082649D01*
X172094374Y-87082639D01*
X171590090Y-86578355D01*
X171590088Y-86578352D01*
X171471217Y-86459481D01*
X171471216Y-86459480D01*
X171384404Y-86409360D01*
X171384404Y-86409359D01*
X171384400Y-86409358D01*
X171334285Y-86380423D01*
X171181557Y-86339499D01*
X171023443Y-86339499D01*
X171015847Y-86339499D01*
X171015831Y-86339500D01*
X149820757Y-86339500D01*
X149662643Y-86339500D01*
X149509915Y-86380423D01*
X149509914Y-86380423D01*
X149509912Y-86380424D01*
X149509909Y-86380425D01*
X149459796Y-86409359D01*
X149459795Y-86409360D01*
X149416389Y-86434420D01*
X149372985Y-86459479D01*
X149372982Y-86459481D01*
X149261178Y-86571286D01*
X148213506Y-87618957D01*
X148152183Y-87652442D01*
X148082491Y-87647458D01*
X148038144Y-87618957D01*
X147919141Y-87499954D01*
X147732734Y-87369432D01*
X147732732Y-87369431D01*
X147526497Y-87273261D01*
X147526488Y-87273258D01*
X147306697Y-87214366D01*
X147306693Y-87214365D01*
X147306692Y-87214365D01*
X147306691Y-87214364D01*
X147306686Y-87214364D01*
X147080002Y-87194532D01*
X147079998Y-87194532D01*
X146853313Y-87214364D01*
X146853302Y-87214366D01*
X146633511Y-87273258D01*
X146633502Y-87273261D01*
X146427267Y-87369431D01*
X146427265Y-87369432D01*
X146240858Y-87499954D01*
X146079954Y-87660858D01*
X145949432Y-87847265D01*
X145949431Y-87847267D01*
X145853261Y-88053502D01*
X145853258Y-88053511D01*
X145794366Y-88273302D01*
X145794364Y-88273313D01*
X145774532Y-88499998D01*
X145774532Y-88500001D01*
X145794364Y-88726686D01*
X145794366Y-88726697D01*
X145853258Y-88946488D01*
X145853261Y-88946497D01*
X145949431Y-89152732D01*
X145949432Y-89152734D01*
X146079954Y-89339141D01*
X146240858Y-89500045D01*
X146240861Y-89500047D01*
X146427266Y-89630568D01*
X146633504Y-89726739D01*
X146853308Y-89785635D01*
X147015230Y-89799801D01*
X147079998Y-89805468D01*
X147080000Y-89805468D01*
X147080002Y-89805468D01*
X147136673Y-89800509D01*
X147306692Y-89785635D01*
X147526496Y-89726739D01*
X147732734Y-89630568D01*
X147919139Y-89500047D01*
X148080047Y-89339139D01*
X148210568Y-89152734D01*
X148210576Y-89152716D01*
X148211372Y-89151339D01*
X148211890Y-89150844D01*
X148213673Y-89148299D01*
X148214184Y-89148657D01*
X148261935Y-89103120D01*
X148286660Y-89093560D01*
X148413485Y-89059577D01*
X148463604Y-89030639D01*
X148495240Y-89012374D01*
X148563138Y-88995902D01*
X148629165Y-89018755D01*
X148669619Y-89067356D01*
X148689389Y-89109752D01*
X148709431Y-89152732D01*
X148709432Y-89152734D01*
X148839954Y-89339141D01*
X149000858Y-89500045D01*
X149000861Y-89500047D01*
X149187266Y-89630568D01*
X149393504Y-89726739D01*
X149613308Y-89785635D01*
X149775230Y-89799801D01*
X149839998Y-89805468D01*
X149840000Y-89805468D01*
X149840002Y-89805468D01*
X149896673Y-89800509D01*
X150066692Y-89785635D01*
X150286496Y-89726739D01*
X150492734Y-89630568D01*
X150679139Y-89500047D01*
X150840047Y-89339139D01*
X150970568Y-89152734D01*
X151066739Y-88946496D01*
X151125635Y-88726692D01*
X151145468Y-88500000D01*
X151125635Y-88273308D01*
X151066739Y-88053504D01*
X150970568Y-87847266D01*
X150903989Y-87752181D01*
X150892395Y-87735622D01*
X150870068Y-87669416D01*
X150887080Y-87601649D01*
X150938028Y-87553837D01*
X150993971Y-87540500D01*
X158846029Y-87540500D01*
X158913068Y-87560185D01*
X158958823Y-87612989D01*
X158968767Y-87682147D01*
X158947605Y-87735622D01*
X158869431Y-87847267D01*
X158773261Y-88053502D01*
X158773258Y-88053511D01*
X158714366Y-88273302D01*
X158714364Y-88273313D01*
X158694532Y-88499998D01*
X158694532Y-88500001D01*
X158714364Y-88726686D01*
X158714366Y-88726697D01*
X158773258Y-88946488D01*
X158773261Y-88946497D01*
X158869431Y-89152732D01*
X158869432Y-89152734D01*
X158999954Y-89339141D01*
X159160858Y-89500045D01*
X159160861Y-89500047D01*
X159347266Y-89630568D01*
X159553504Y-89726739D01*
X159773308Y-89785635D01*
X159935230Y-89799801D01*
X159999998Y-89805468D01*
X160000000Y-89805468D01*
X160000002Y-89805468D01*
X160056673Y-89800509D01*
X160226692Y-89785635D01*
X160446496Y-89726739D01*
X160652734Y-89630568D01*
X160839139Y-89500047D01*
X161000047Y-89339139D01*
X161130118Y-89153375D01*
X161184693Y-89109752D01*
X161231692Y-89100500D01*
X162634837Y-89100500D01*
X162701876Y-89120185D01*
X162705948Y-89122917D01*
X162847266Y-89221868D01*
X163053504Y-89318039D01*
X163273308Y-89376935D01*
X163435230Y-89391101D01*
X163499998Y-89396768D01*
X163500000Y-89396768D01*
X163500002Y-89396768D01*
X163556673Y-89391809D01*
X163726692Y-89376935D01*
X163946496Y-89318039D01*
X164152734Y-89221868D01*
X164339139Y-89091347D01*
X164500047Y-88930439D01*
X164520779Y-88900829D01*
X164575356Y-88857204D01*
X164644854Y-88850010D01*
X164707209Y-88881532D01*
X164710036Y-88884271D01*
X167187130Y-91361365D01*
X167220615Y-91422688D01*
X167215631Y-91492380D01*
X167196406Y-91526347D01*
X167193386Y-91530133D01*
X167097410Y-91682878D01*
X167037830Y-91853150D01*
X167028037Y-91940068D01*
X167000970Y-92004482D01*
X166992498Y-92013865D01*
X166150684Y-92855681D01*
X166089361Y-92889166D01*
X166063003Y-92892000D01*
X146490070Y-92892000D01*
X146490054Y-92891999D01*
X146482458Y-92891999D01*
X146324343Y-92891999D01*
X146247979Y-92912461D01*
X146171614Y-92932923D01*
X146171609Y-92932926D01*
X146034690Y-93011975D01*
X146034682Y-93011981D01*
X145392292Y-93654371D01*
X145330969Y-93687856D01*
X145261277Y-93682872D01*
X145205346Y-93641002D01*
X145132546Y-93543754D01*
X145132544Y-93543752D01*
X145132543Y-93543751D01*
X145017335Y-93457506D01*
X145017328Y-93457502D01*
X144882482Y-93407208D01*
X144882483Y-93407208D01*
X144822883Y-93400801D01*
X144822881Y-93400800D01*
X144822873Y-93400800D01*
X144822864Y-93400800D01*
X143177129Y-93400800D01*
X143177123Y-93400801D01*
X143117516Y-93407208D01*
X143072677Y-93423932D01*
X143002985Y-93428915D01*
X142941665Y-93395430D01*
X142784090Y-93237855D01*
X142784088Y-93237852D01*
X142665217Y-93118981D01*
X142665216Y-93118980D01*
X142578404Y-93068860D01*
X142578404Y-93068859D01*
X142578400Y-93068858D01*
X142528285Y-93039923D01*
X142375557Y-92998999D01*
X142217443Y-92998999D01*
X142209847Y-92998999D01*
X142209831Y-92999000D01*
X131309170Y-92999000D01*
X131309154Y-92998999D01*
X131301558Y-92998999D01*
X131143443Y-92998999D01*
X131094995Y-93011981D01*
X130990714Y-93039923D01*
X130990709Y-93039926D01*
X130853790Y-93118975D01*
X130853782Y-93118981D01*
X129117781Y-94854982D01*
X129117775Y-94854990D01*
X129081631Y-94917595D01*
X129081631Y-94917597D01*
X129038723Y-94991914D01*
X129031925Y-95017284D01*
X128997799Y-95144643D01*
X122500500Y-95144643D01*
X122500500Y-90079998D01*
X130694532Y-90079998D01*
X130694532Y-90080001D01*
X130714364Y-90306686D01*
X130714366Y-90306697D01*
X130773258Y-90526488D01*
X130773261Y-90526497D01*
X130869431Y-90732732D01*
X130869432Y-90732734D01*
X130999954Y-90919141D01*
X131160858Y-91080045D01*
X131160861Y-91080047D01*
X131347266Y-91210568D01*
X131553504Y-91306739D01*
X131773308Y-91365635D01*
X131935230Y-91379801D01*
X131999998Y-91385468D01*
X132000000Y-91385468D01*
X132000002Y-91385468D01*
X132056673Y-91380509D01*
X132226692Y-91365635D01*
X132446496Y-91306739D01*
X132652734Y-91210568D01*
X132839139Y-91080047D01*
X133000047Y-90919139D01*
X133130568Y-90732734D01*
X133226739Y-90526496D01*
X133285635Y-90306692D01*
X133305468Y-90080000D01*
X133285635Y-89853308D01*
X133226739Y-89633504D01*
X133130568Y-89427266D01*
X133000047Y-89240861D01*
X133000045Y-89240858D01*
X132839141Y-89079954D01*
X132652734Y-88949432D01*
X132652732Y-88949431D01*
X132446497Y-88853261D01*
X132446488Y-88853258D01*
X132226697Y-88794366D01*
X132226693Y-88794365D01*
X132226692Y-88794365D01*
X132226691Y-88794364D01*
X132226686Y-88794364D01*
X132000002Y-88774532D01*
X131999998Y-88774532D01*
X131773313Y-88794364D01*
X131773302Y-88794366D01*
X131553511Y-88853258D01*
X131553502Y-88853261D01*
X131347267Y-88949431D01*
X131347265Y-88949432D01*
X131160858Y-89079954D01*
X130999954Y-89240858D01*
X130869432Y-89427265D01*
X130869431Y-89427267D01*
X130773261Y-89633502D01*
X130773258Y-89633511D01*
X130714366Y-89853302D01*
X130714364Y-89853313D01*
X130694532Y-90079998D01*
X122500500Y-90079998D01*
X122500500Y-88499997D01*
X135615034Y-88499997D01*
X135615034Y-88500002D01*
X135634858Y-88726599D01*
X135634860Y-88726610D01*
X135693730Y-88946317D01*
X135693734Y-88946327D01*
X135789863Y-89152478D01*
X135840974Y-89225472D01*
X136520000Y-88546446D01*
X136520000Y-88552661D01*
X136547259Y-88654394D01*
X136599920Y-88745606D01*
X136674394Y-88820080D01*
X136765606Y-88872741D01*
X136867339Y-88900000D01*
X136873553Y-88900000D01*
X136194526Y-89579025D01*
X136267513Y-89630132D01*
X136267521Y-89630136D01*
X136473668Y-89726264D01*
X136473682Y-89726269D01*
X136693389Y-89785139D01*
X136693400Y-89785141D01*
X136919998Y-89804966D01*
X136920002Y-89804966D01*
X137146599Y-89785141D01*
X137146610Y-89785139D01*
X137366317Y-89726269D01*
X137366331Y-89726264D01*
X137572478Y-89630136D01*
X137645471Y-89579024D01*
X136966447Y-88900000D01*
X136972661Y-88900000D01*
X137074394Y-88872741D01*
X137165606Y-88820080D01*
X137240080Y-88745606D01*
X137292741Y-88654394D01*
X137320000Y-88552661D01*
X137320000Y-88546447D01*
X137999024Y-89225471D01*
X138050136Y-89152478D01*
X138146266Y-88946327D01*
X138146269Y-88946317D01*
X138205139Y-88726610D01*
X138205141Y-88726599D01*
X138224966Y-88500002D01*
X138224966Y-88499997D01*
X138205141Y-88273400D01*
X138205139Y-88273389D01*
X138146269Y-88053682D01*
X138146264Y-88053668D01*
X138050136Y-87847521D01*
X138050132Y-87847513D01*
X137999025Y-87774526D01*
X137320000Y-88453551D01*
X137320000Y-88447339D01*
X137292741Y-88345606D01*
X137240080Y-88254394D01*
X137165606Y-88179920D01*
X137074394Y-88127259D01*
X136972661Y-88100000D01*
X136966445Y-88100000D01*
X137645472Y-87420974D01*
X137572478Y-87369863D01*
X137366331Y-87273735D01*
X137366317Y-87273730D01*
X137146610Y-87214860D01*
X137146599Y-87214858D01*
X136920002Y-87195034D01*
X136919998Y-87195034D01*
X136693400Y-87214858D01*
X136693389Y-87214860D01*
X136473682Y-87273730D01*
X136473673Y-87273734D01*
X136267516Y-87369866D01*
X136267512Y-87369868D01*
X136194526Y-87420973D01*
X136194526Y-87420974D01*
X136873553Y-88100000D01*
X136867339Y-88100000D01*
X136765606Y-88127259D01*
X136674394Y-88179920D01*
X136599920Y-88254394D01*
X136547259Y-88345606D01*
X136520000Y-88447339D01*
X136520000Y-88453552D01*
X135840974Y-87774526D01*
X135840973Y-87774526D01*
X135789868Y-87847512D01*
X135789866Y-87847516D01*
X135693734Y-88053673D01*
X135693730Y-88053682D01*
X135634860Y-88273389D01*
X135634858Y-88273400D01*
X135615034Y-88499997D01*
X122500500Y-88499997D01*
X122500500Y-81249999D01*
X135609927Y-81249999D01*
X135609928Y-81250000D01*
X136573114Y-81250000D01*
X136568720Y-81254394D01*
X136516059Y-81345606D01*
X136488800Y-81447339D01*
X136488800Y-81552661D01*
X136516059Y-81654394D01*
X136568720Y-81745606D01*
X136573114Y-81750000D01*
X135609928Y-81750000D01*
X135662530Y-81946317D01*
X135662534Y-81946326D01*
X135758665Y-82152482D01*
X135889142Y-82338820D01*
X136049979Y-82499657D01*
X136236317Y-82630134D01*
X136442473Y-82726265D01*
X136442482Y-82726269D01*
X136638799Y-82778872D01*
X136638800Y-82778871D01*
X136638800Y-81815686D01*
X136643194Y-81820080D01*
X136734406Y-81872741D01*
X136836139Y-81900000D01*
X136941461Y-81900000D01*
X137043194Y-81872741D01*
X137134406Y-81820080D01*
X137138800Y-81815686D01*
X137138800Y-82778872D01*
X137335117Y-82726269D01*
X137335126Y-82726265D01*
X137541282Y-82630134D01*
X137727620Y-82499657D01*
X137888457Y-82338820D01*
X138018934Y-82152482D01*
X138115065Y-81946326D01*
X138115069Y-81946317D01*
X138167672Y-81750000D01*
X137204486Y-81750000D01*
X137208880Y-81745606D01*
X137261541Y-81654394D01*
X137288800Y-81552661D01*
X137288800Y-81447339D01*
X137261541Y-81345606D01*
X137208880Y-81254394D01*
X137204486Y-81250000D01*
X138167672Y-81250000D01*
X138167672Y-81249999D01*
X138115069Y-81053682D01*
X138115065Y-81053673D01*
X138018934Y-80847517D01*
X137888457Y-80661179D01*
X137727620Y-80500342D01*
X137541282Y-80369865D01*
X137335128Y-80273734D01*
X137138800Y-80221127D01*
X137138800Y-81184314D01*
X137134406Y-81179920D01*
X137043194Y-81127259D01*
X136941461Y-81100000D01*
X136836139Y-81100000D01*
X136734406Y-81127259D01*
X136643194Y-81179920D01*
X136638800Y-81184314D01*
X136638800Y-80221127D01*
X136442471Y-80273734D01*
X136236317Y-80369865D01*
X136049979Y-80500342D01*
X135889142Y-80661179D01*
X135758665Y-80847517D01*
X135662534Y-81053673D01*
X135662530Y-81053682D01*
X135609927Y-81249999D01*
X122500500Y-81249999D01*
X122500500Y-79669999D01*
X130721127Y-79669999D01*
X130721128Y-79670000D01*
X131684314Y-79670000D01*
X131679920Y-79674394D01*
X131627259Y-79765606D01*
X131600000Y-79867339D01*
X131600000Y-79972661D01*
X131627259Y-80074394D01*
X131679920Y-80165606D01*
X131684314Y-80170000D01*
X130721128Y-80170000D01*
X130773730Y-80366317D01*
X130773734Y-80366326D01*
X130869865Y-80572482D01*
X131000342Y-80758820D01*
X131161179Y-80919657D01*
X131347517Y-81050134D01*
X131553673Y-81146265D01*
X131553682Y-81146269D01*
X131749999Y-81198872D01*
X131750000Y-81198871D01*
X131750000Y-80235686D01*
X131754394Y-80240080D01*
X131845606Y-80292741D01*
X131947339Y-80320000D01*
X132052661Y-80320000D01*
X132154394Y-80292741D01*
X132245606Y-80240080D01*
X132250000Y-80235686D01*
X132250000Y-81198872D01*
X132446317Y-81146269D01*
X132446326Y-81146265D01*
X132652482Y-81050134D01*
X132838820Y-80919657D01*
X132999657Y-80758820D01*
X133130134Y-80572482D01*
X133226265Y-80366326D01*
X133226269Y-80366317D01*
X133278872Y-80170000D01*
X132315686Y-80170000D01*
X132320080Y-80165606D01*
X132372741Y-80074394D01*
X132400000Y-79972661D01*
X132400000Y-79867339D01*
X132372741Y-79765606D01*
X132320080Y-79674394D01*
X132315686Y-79670000D01*
X133278872Y-79670000D01*
X133278872Y-79669999D01*
X133226269Y-79473682D01*
X133226265Y-79473673D01*
X133130134Y-79267517D01*
X132999657Y-79081179D01*
X132838820Y-78920342D01*
X132652482Y-78789865D01*
X132446328Y-78693734D01*
X132250000Y-78641127D01*
X132250000Y-79604314D01*
X132245606Y-79599920D01*
X132154394Y-79547259D01*
X132052661Y-79520000D01*
X131947339Y-79520000D01*
X131845606Y-79547259D01*
X131754394Y-79599920D01*
X131750000Y-79604314D01*
X131750000Y-78641127D01*
X131553671Y-78693734D01*
X131347517Y-78789865D01*
X131161179Y-78920342D01*
X131000342Y-79081179D01*
X130869865Y-79267517D01*
X130773734Y-79473673D01*
X130773730Y-79473682D01*
X130721127Y-79669999D01*
X122500500Y-79669999D01*
X122500500Y-73331754D01*
X127537298Y-73331754D01*
X127537299Y-73331757D01*
X127578223Y-73484485D01*
X127601903Y-73525500D01*
X127657277Y-73621412D01*
X127657281Y-73621417D01*
X127776149Y-73740285D01*
X127776154Y-73740289D01*
X128642384Y-74606520D01*
X128642386Y-74606521D01*
X128642390Y-74606524D01*
X128712049Y-74646741D01*
X128779316Y-74685577D01*
X128932043Y-74726501D01*
X128932045Y-74726501D01*
X129097754Y-74726501D01*
X129097770Y-74726500D01*
X129327988Y-74726500D01*
X129395027Y-74746185D01*
X129426942Y-74775773D01*
X129498537Y-74870581D01*
X129649258Y-75007980D01*
X129649260Y-75007982D01*
X129694611Y-75036062D01*
X129822663Y-75115348D01*
X130012844Y-75189024D01*
X130213324Y-75226500D01*
X130213326Y-75226500D01*
X130417274Y-75226500D01*
X130417276Y-75226500D01*
X130617756Y-75189024D01*
X130807937Y-75115348D01*
X130981341Y-75007981D01*
X131114819Y-74886300D01*
X131132062Y-74870581D01*
X131132064Y-74870579D01*
X131254973Y-74707821D01*
X131307663Y-74602003D01*
X131355164Y-74550769D01*
X131422827Y-74533347D01*
X131489167Y-74555272D01*
X131533123Y-74609583D01*
X131541882Y-74643393D01*
X131549730Y-74713050D01*
X131549731Y-74713054D01*
X131609311Y-74883323D01*
X131687640Y-75007982D01*
X131705284Y-75036062D01*
X131832838Y-75163616D01*
X131923180Y-75220382D01*
X131952936Y-75239079D01*
X131985578Y-75259589D01*
X132015857Y-75270184D01*
X132155845Y-75319168D01*
X132155850Y-75319169D01*
X132335096Y-75339365D01*
X132335100Y-75339365D01*
X132335104Y-75339365D01*
X132514349Y-75319169D01*
X132514352Y-75319168D01*
X132514355Y-75319168D01*
X132684622Y-75259589D01*
X132837362Y-75163616D01*
X132964916Y-75036062D01*
X133060889Y-74883322D01*
X133120468Y-74713055D01*
X133130261Y-74626129D01*
X133157326Y-74561718D01*
X133165790Y-74552343D01*
X134743316Y-72974819D01*
X134804639Y-72941334D01*
X134830997Y-72938500D01*
X137100500Y-72938500D01*
X137167539Y-72958185D01*
X137213294Y-73010989D01*
X137224500Y-73062500D01*
X137224500Y-73354169D01*
X137224501Y-73354176D01*
X137230909Y-73413784D01*
X137273907Y-73529070D01*
X137278891Y-73598761D01*
X137245405Y-73660084D01*
X137198441Y-73687203D01*
X137199025Y-73688613D01*
X137191509Y-73691726D01*
X137054590Y-73770775D01*
X137054582Y-73770781D01*
X136942781Y-73882582D01*
X136942775Y-73882590D01*
X136863726Y-74019509D01*
X136863723Y-74019516D01*
X136822800Y-74172243D01*
X136822800Y-74627030D01*
X136822799Y-74627048D01*
X136822799Y-74792754D01*
X136822798Y-74792754D01*
X136843651Y-74870579D01*
X136863723Y-74945485D01*
X136881629Y-74976499D01*
X136881630Y-74976501D01*
X136881631Y-74976501D01*
X136899806Y-75007982D01*
X136942779Y-75082414D01*
X136942781Y-75082417D01*
X137061649Y-75201285D01*
X137061655Y-75201290D01*
X137188181Y-75327816D01*
X137221666Y-75389139D01*
X137224500Y-75415497D01*
X137224500Y-75894170D01*
X137224501Y-75894176D01*
X137230908Y-75953783D01*
X137281202Y-76088628D01*
X137281206Y-76088635D01*
X137367452Y-76203844D01*
X137367455Y-76203847D01*
X137482664Y-76290093D01*
X137482671Y-76290097D01*
X137483934Y-76290568D01*
X137617517Y-76340391D01*
X137677127Y-76346800D01*
X137886601Y-76346799D01*
X137953641Y-76366483D01*
X137974282Y-76383117D01*
X143571684Y-81980520D01*
X143571686Y-81980521D01*
X143571690Y-81980524D01*
X143662084Y-82032712D01*
X143708616Y-82059577D01*
X143861343Y-82100501D01*
X143861345Y-82100501D01*
X144027054Y-82100501D01*
X144027070Y-82100500D01*
X145817108Y-82100500D01*
X145884147Y-82120185D01*
X145918680Y-82153374D01*
X145941149Y-82185463D01*
X146048754Y-82339141D01*
X146209658Y-82500045D01*
X146209661Y-82500047D01*
X146396066Y-82630568D01*
X146602304Y-82726739D01*
X146822108Y-82785635D01*
X146984030Y-82799801D01*
X147048798Y-82805468D01*
X147048800Y-82805468D01*
X147048802Y-82805468D01*
X147105473Y-82800509D01*
X147275492Y-82785635D01*
X147495296Y-82726739D01*
X147701534Y-82630568D01*
X147887939Y-82500047D01*
X148048847Y-82339139D01*
X148179368Y-82152734D01*
X148275539Y-81946496D01*
X148334435Y-81726692D01*
X148354268Y-81500000D01*
X148354268Y-81499998D01*
X148614532Y-81499998D01*
X148614532Y-81500001D01*
X148634364Y-81726686D01*
X148634366Y-81726697D01*
X148693258Y-81946488D01*
X148693261Y-81946497D01*
X148789431Y-82152732D01*
X148789432Y-82152734D01*
X148919954Y-82339141D01*
X149080858Y-82500045D01*
X149080861Y-82500047D01*
X149267266Y-82630568D01*
X149473504Y-82726739D01*
X149693308Y-82785635D01*
X149855230Y-82799801D01*
X149919998Y-82805468D01*
X149920000Y-82805468D01*
X149920002Y-82805468D01*
X149976673Y-82800509D01*
X150146692Y-82785635D01*
X150366496Y-82726739D01*
X150572734Y-82630568D01*
X150759139Y-82500047D01*
X150920047Y-82339139D01*
X151050568Y-82152734D01*
X151146739Y-81946496D01*
X151205635Y-81726692D01*
X151225468Y-81500000D01*
X151205635Y-81273308D01*
X151146739Y-81053504D01*
X151050568Y-80847266D01*
X150920047Y-80660861D01*
X150920045Y-80660858D01*
X150759141Y-80499954D01*
X150572734Y-80369432D01*
X150572732Y-80369431D01*
X150366497Y-80273261D01*
X150366488Y-80273258D01*
X150146697Y-80214366D01*
X150146693Y-80214365D01*
X150146692Y-80214365D01*
X150146691Y-80214364D01*
X150146686Y-80214364D01*
X149920002Y-80194532D01*
X149919998Y-80194532D01*
X149693313Y-80214364D01*
X149693302Y-80214366D01*
X149473511Y-80273258D01*
X149473502Y-80273261D01*
X149267267Y-80369431D01*
X149267265Y-80369432D01*
X149080858Y-80499954D01*
X148919954Y-80660858D01*
X148789432Y-80847265D01*
X148789431Y-80847267D01*
X148693261Y-81053502D01*
X148693258Y-81053511D01*
X148634366Y-81273302D01*
X148634364Y-81273313D01*
X148614532Y-81499998D01*
X148354268Y-81499998D01*
X148334435Y-81273308D01*
X148275539Y-81053504D01*
X148179368Y-80847266D01*
X148048847Y-80660861D01*
X148048845Y-80660858D01*
X147887941Y-80499954D01*
X147701534Y-80369432D01*
X147701532Y-80369431D01*
X147495297Y-80273261D01*
X147495288Y-80273258D01*
X147275497Y-80214366D01*
X147275493Y-80214365D01*
X147275492Y-80214365D01*
X147275491Y-80214364D01*
X147275486Y-80214364D01*
X147048802Y-80194532D01*
X147048798Y-80194532D01*
X146822113Y-80214364D01*
X146822102Y-80214366D01*
X146602311Y-80273258D01*
X146602302Y-80273261D01*
X146396067Y-80369431D01*
X146396065Y-80369432D01*
X146209658Y-80499954D01*
X146048754Y-80660858D01*
X145986342Y-80749994D01*
X145918681Y-80846624D01*
X145864107Y-80890248D01*
X145817108Y-80899500D01*
X144240498Y-80899500D01*
X144173459Y-80879815D01*
X144152817Y-80863181D01*
X141910301Y-78620665D01*
X139648986Y-76359351D01*
X139615502Y-76298029D01*
X139620486Y-76228337D01*
X139637402Y-76197360D01*
X139718793Y-76088635D01*
X139718792Y-76088635D01*
X139718796Y-76088631D01*
X139769091Y-75953783D01*
X139775500Y-75894173D01*
X139775499Y-75148428D01*
X139769091Y-75088817D01*
X139738942Y-75007982D01*
X139718797Y-74953970D01*
X139714547Y-74946188D01*
X139717757Y-74944434D01*
X139699361Y-74895301D01*
X139714127Y-74827009D01*
X139714752Y-74826036D01*
X139718797Y-74818629D01*
X139734781Y-74775773D01*
X139769091Y-74683783D01*
X139775500Y-74624173D01*
X139775499Y-74171094D01*
X139795183Y-74104057D01*
X139847987Y-74058302D01*
X139917146Y-74048358D01*
X139980702Y-74077383D01*
X139987179Y-74083414D01*
X144199384Y-78295620D01*
X144199386Y-78295621D01*
X144199390Y-78295624D01*
X144282932Y-78343856D01*
X144336316Y-78374677D01*
X144489043Y-78415601D01*
X144489045Y-78415601D01*
X144654754Y-78415601D01*
X144654770Y-78415600D01*
X157825388Y-78415600D01*
X157892427Y-78435285D01*
X157902703Y-78442655D01*
X157905536Y-78444914D01*
X157905538Y-78444916D01*
X158058278Y-78540889D01*
X158228545Y-78600468D01*
X158228550Y-78600469D01*
X158407796Y-78620665D01*
X158407800Y-78620665D01*
X158407804Y-78620665D01*
X158587049Y-78600469D01*
X158587052Y-78600468D01*
X158587055Y-78600468D01*
X158757322Y-78540889D01*
X158910062Y-78444916D01*
X158923436Y-78431540D01*
X158984756Y-78398053D01*
X159054448Y-78403034D01*
X159098802Y-78431537D01*
X159443181Y-78775916D01*
X159476666Y-78837239D01*
X159479500Y-78863597D01*
X159479500Y-80268306D01*
X159459815Y-80335345D01*
X159426623Y-80369881D01*
X159240859Y-80499953D01*
X159079954Y-80660858D01*
X158949432Y-80847265D01*
X158949431Y-80847267D01*
X158853261Y-81053502D01*
X158853258Y-81053511D01*
X158794366Y-81273302D01*
X158794364Y-81273313D01*
X158774532Y-81499998D01*
X158774532Y-81500001D01*
X158794364Y-81726686D01*
X158794366Y-81726697D01*
X158853258Y-81946488D01*
X158853261Y-81946497D01*
X158949431Y-82152732D01*
X158949432Y-82152734D01*
X159079954Y-82339141D01*
X159240858Y-82500045D01*
X159240861Y-82500047D01*
X159427266Y-82630568D01*
X159633504Y-82726739D01*
X159853308Y-82785635D01*
X160015230Y-82799801D01*
X160079998Y-82805468D01*
X160080000Y-82805468D01*
X160080002Y-82805468D01*
X160136673Y-82800509D01*
X160306692Y-82785635D01*
X160526496Y-82726739D01*
X160732734Y-82630568D01*
X160919139Y-82500047D01*
X160969755Y-82449431D01*
X161038145Y-82381042D01*
X161099468Y-82347557D01*
X161169160Y-82352541D01*
X161213507Y-82381042D01*
X162171177Y-83338712D01*
X162204662Y-83400035D01*
X162207024Y-83437199D01*
X162194532Y-83579996D01*
X162194532Y-83580001D01*
X162214364Y-83806686D01*
X162214366Y-83806697D01*
X162273258Y-84026488D01*
X162273261Y-84026497D01*
X162369431Y-84232732D01*
X162369432Y-84232734D01*
X162499954Y-84419141D01*
X162660858Y-84580045D01*
X162660861Y-84580047D01*
X162847266Y-84710568D01*
X163053504Y-84806739D01*
X163273308Y-84865635D01*
X163435230Y-84879801D01*
X163499998Y-84885468D01*
X163500000Y-84885468D01*
X163500002Y-84885468D01*
X163556673Y-84880509D01*
X163726692Y-84865635D01*
X163946496Y-84806739D01*
X164152734Y-84710568D01*
X164339139Y-84580047D01*
X164500047Y-84419139D01*
X164630568Y-84232734D01*
X164726739Y-84026496D01*
X164785635Y-83806692D01*
X164805468Y-83580000D01*
X164790481Y-83408698D01*
X169194532Y-83408698D01*
X169194532Y-83408701D01*
X169214364Y-83635386D01*
X169214366Y-83635397D01*
X169273258Y-83855188D01*
X169273261Y-83855197D01*
X169369431Y-84061432D01*
X169369432Y-84061434D01*
X169499954Y-84247841D01*
X169660858Y-84408745D01*
X169660861Y-84408747D01*
X169847266Y-84539268D01*
X170053504Y-84635439D01*
X170273308Y-84694335D01*
X170435230Y-84708501D01*
X170499998Y-84714168D01*
X170500000Y-84714168D01*
X170500002Y-84714168D01*
X170556673Y-84709209D01*
X170726692Y-84694335D01*
X170946496Y-84635439D01*
X171152734Y-84539268D01*
X171339139Y-84408747D01*
X171500047Y-84247839D01*
X171630568Y-84061434D01*
X171726739Y-83855196D01*
X171785635Y-83635392D01*
X171805468Y-83408700D01*
X171785635Y-83182008D01*
X171726739Y-82962204D01*
X171630568Y-82755966D01*
X171507324Y-82579954D01*
X171500045Y-82569558D01*
X171339141Y-82408654D01*
X171152734Y-82278132D01*
X171152732Y-82278131D01*
X170946497Y-82181961D01*
X170946488Y-82181958D01*
X170726697Y-82123066D01*
X170726693Y-82123065D01*
X170726692Y-82123065D01*
X170726691Y-82123064D01*
X170726686Y-82123064D01*
X170500002Y-82103232D01*
X170499998Y-82103232D01*
X170273313Y-82123064D01*
X170273302Y-82123066D01*
X170053511Y-82181958D01*
X170053502Y-82181961D01*
X169847267Y-82278131D01*
X169847265Y-82278132D01*
X169660858Y-82408654D01*
X169499954Y-82569558D01*
X169369432Y-82755965D01*
X169369431Y-82755967D01*
X169273261Y-82962202D01*
X169273258Y-82962211D01*
X169214366Y-83182002D01*
X169214364Y-83182013D01*
X169194532Y-83408698D01*
X164790481Y-83408698D01*
X164785635Y-83353308D01*
X164726739Y-83133504D01*
X164630568Y-82927266D01*
X164500047Y-82740861D01*
X164500045Y-82740858D01*
X164339141Y-82579954D01*
X164152734Y-82449432D01*
X164152732Y-82449431D01*
X163946497Y-82353261D01*
X163946488Y-82353258D01*
X163726697Y-82294366D01*
X163726693Y-82294365D01*
X163726692Y-82294365D01*
X163726691Y-82294364D01*
X163726686Y-82294364D01*
X163500002Y-82274532D01*
X163499998Y-82274532D01*
X163273313Y-82294364D01*
X163273302Y-82294366D01*
X163053506Y-82353260D01*
X163016726Y-82370410D01*
X162947649Y-82380901D01*
X162883865Y-82352379D01*
X162876643Y-82345708D01*
X161669290Y-81138355D01*
X161669288Y-81138352D01*
X161550417Y-81019481D01*
X161550416Y-81019480D01*
X161463604Y-80969360D01*
X161463604Y-80969359D01*
X161463600Y-80969358D01*
X161413485Y-80940423D01*
X161286668Y-80906442D01*
X161227010Y-80870078D01*
X161211376Y-80848667D01*
X161210575Y-80847281D01*
X161210568Y-80847266D01*
X161080047Y-80660861D01*
X161080045Y-80660858D01*
X160919140Y-80499953D01*
X160733377Y-80369881D01*
X160689752Y-80315304D01*
X160686739Y-80299998D01*
X180957647Y-80299998D01*
X180957647Y-80300001D01*
X180977036Y-80571090D01*
X180977037Y-80571097D01*
X181034805Y-80836654D01*
X181129785Y-81091306D01*
X181129787Y-81091310D01*
X181260032Y-81329835D01*
X181260037Y-81329843D01*
X181353821Y-81455123D01*
X181353822Y-81455124D01*
X182035974Y-80772972D01*
X182124587Y-80905590D01*
X182256910Y-81037913D01*
X182389526Y-81126524D01*
X181707374Y-81808676D01*
X181832663Y-81902466D01*
X181832664Y-81902467D01*
X182071189Y-82032712D01*
X182071193Y-82032714D01*
X182325845Y-82127694D01*
X182591402Y-82185462D01*
X182591409Y-82185463D01*
X182862499Y-82204853D01*
X182862501Y-82204853D01*
X183133590Y-82185463D01*
X183133597Y-82185462D01*
X183399154Y-82127694D01*
X183653806Y-82032714D01*
X183653810Y-82032712D01*
X183892344Y-81902462D01*
X184017623Y-81808677D01*
X184017624Y-81808676D01*
X183335472Y-81126525D01*
X183468090Y-81037913D01*
X183600413Y-80905590D01*
X183689024Y-80772972D01*
X184371176Y-81455124D01*
X184371177Y-81455123D01*
X184464962Y-81329844D01*
X184595212Y-81091310D01*
X184595214Y-81091306D01*
X184690194Y-80836654D01*
X184747962Y-80571097D01*
X184747963Y-80571090D01*
X184767353Y-80300001D01*
X184767353Y-80299998D01*
X184747963Y-80028909D01*
X184747962Y-80028902D01*
X184690194Y-79763345D01*
X184595214Y-79508693D01*
X184595212Y-79508689D01*
X184464967Y-79270164D01*
X184464966Y-79270163D01*
X184371176Y-79144874D01*
X183689024Y-79827026D01*
X183600413Y-79694410D01*
X183468090Y-79562087D01*
X183335471Y-79473474D01*
X184017624Y-78791322D01*
X184017623Y-78791321D01*
X183892343Y-78697537D01*
X183892335Y-78697532D01*
X183653810Y-78567287D01*
X183653806Y-78567285D01*
X183399154Y-78472305D01*
X183133597Y-78414537D01*
X183133590Y-78414536D01*
X182862501Y-78395147D01*
X182862499Y-78395147D01*
X182591409Y-78414536D01*
X182591402Y-78414537D01*
X182325845Y-78472305D01*
X182071193Y-78567285D01*
X182071189Y-78567287D01*
X181832664Y-78697532D01*
X181832656Y-78697537D01*
X181707375Y-78791321D01*
X181707374Y-78791322D01*
X182389527Y-79473474D01*
X182256910Y-79562087D01*
X182124587Y-79694410D01*
X182035974Y-79827027D01*
X181353822Y-79144874D01*
X181353821Y-79144875D01*
X181260037Y-79270156D01*
X181260032Y-79270164D01*
X181129787Y-79508689D01*
X181129785Y-79508693D01*
X181034805Y-79763345D01*
X180977037Y-80028902D01*
X180977036Y-80028909D01*
X180957647Y-80299998D01*
X160686739Y-80299998D01*
X160680500Y-80268306D01*
X160680500Y-78484445D01*
X160680499Y-78484441D01*
X160677247Y-78472305D01*
X160662054Y-78415600D01*
X160639577Y-78331715D01*
X160592185Y-78249630D01*
X160560520Y-78194784D01*
X160448716Y-78082980D01*
X160448715Y-78082979D01*
X160444385Y-78078649D01*
X160444374Y-78078639D01*
X158865734Y-76499999D01*
X173782128Y-76499999D01*
X173782128Y-76500000D01*
X173801579Y-76722329D01*
X173801581Y-76722339D01*
X173859341Y-76937905D01*
X173859343Y-76937909D01*
X173859344Y-76937913D01*
X173953665Y-77140186D01*
X174081678Y-77323007D01*
X174239493Y-77480822D01*
X174422314Y-77608835D01*
X174624587Y-77703156D01*
X174840166Y-77760920D01*
X175018033Y-77776481D01*
X175062499Y-77780372D01*
X175062500Y-77780372D01*
X175062501Y-77780372D01*
X175099555Y-77777130D01*
X175284834Y-77760920D01*
X175500413Y-77703156D01*
X175702686Y-77608835D01*
X175885507Y-77480822D01*
X176043322Y-77323007D01*
X176171335Y-77140186D01*
X176265656Y-76937913D01*
X176323420Y-76722334D01*
X176342872Y-76500000D01*
X176323420Y-76277666D01*
X176279560Y-76113980D01*
X176265658Y-76062094D01*
X176265657Y-76062093D01*
X176265656Y-76062087D01*
X176171335Y-75859814D01*
X176043322Y-75676993D01*
X175885507Y-75519178D01*
X175702686Y-75391165D01*
X175500413Y-75296844D01*
X175500409Y-75296843D01*
X175500405Y-75296841D01*
X175284839Y-75239081D01*
X175284829Y-75239079D01*
X175062501Y-75219628D01*
X175062499Y-75219628D01*
X174840170Y-75239079D01*
X174840160Y-75239081D01*
X174624594Y-75296841D01*
X174624587Y-75296843D01*
X174624587Y-75296844D01*
X174422314Y-75391165D01*
X174239493Y-75519178D01*
X174239491Y-75519179D01*
X174239488Y-75519182D01*
X174081682Y-75676988D01*
X174081679Y-75676991D01*
X174081678Y-75676993D01*
X174017929Y-75768036D01*
X173953665Y-75859814D01*
X173859345Y-76062085D01*
X173859341Y-76062094D01*
X173801581Y-76277660D01*
X173801579Y-76277670D01*
X173782128Y-76499999D01*
X158865734Y-76499999D01*
X156556808Y-74191073D01*
X156523323Y-74129750D01*
X156521022Y-74103129D01*
X156520500Y-74103129D01*
X156520500Y-73669313D01*
X156520499Y-73669298D01*
X156518980Y-73650000D01*
X156517598Y-73632431D01*
X156514398Y-73621417D01*
X156476597Y-73491306D01*
X156471744Y-73474602D01*
X156462871Y-73459598D01*
X156429175Y-73402620D01*
X156411992Y-73334896D01*
X156434152Y-73268634D01*
X156488619Y-73224871D01*
X156535907Y-73215500D01*
X161966331Y-73215500D01*
X161966347Y-73215501D01*
X162077101Y-73215501D01*
X162144140Y-73235186D01*
X162189895Y-73287990D01*
X162200629Y-73350308D01*
X162194532Y-73419997D01*
X162194532Y-73420001D01*
X162214364Y-73646686D01*
X162214366Y-73646697D01*
X162273258Y-73866488D01*
X162273261Y-73866497D01*
X162369431Y-74072732D01*
X162369432Y-74072734D01*
X162499954Y-74259141D01*
X162660858Y-74420045D01*
X162686845Y-74438241D01*
X162847266Y-74550568D01*
X163053504Y-74646739D01*
X163273308Y-74705635D01*
X163435230Y-74719801D01*
X163499998Y-74725468D01*
X163500000Y-74725468D01*
X163500002Y-74725468D01*
X163556673Y-74720509D01*
X163726692Y-74705635D01*
X163946496Y-74646739D01*
X164152734Y-74550568D01*
X164339139Y-74420047D01*
X164500047Y-74259139D01*
X164630568Y-74072734D01*
X164726739Y-73866496D01*
X164785635Y-73646692D01*
X164805468Y-73420000D01*
X164804820Y-73412598D01*
X164794417Y-73293687D01*
X164790481Y-73248698D01*
X169194532Y-73248698D01*
X169194532Y-73248701D01*
X169214364Y-73475386D01*
X169214366Y-73475397D01*
X169273258Y-73695188D01*
X169273261Y-73695197D01*
X169369431Y-73901432D01*
X169369432Y-73901434D01*
X169499954Y-74087841D01*
X169660858Y-74248745D01*
X169660861Y-74248747D01*
X169847266Y-74379268D01*
X170053504Y-74475439D01*
X170273308Y-74534335D01*
X170435230Y-74548501D01*
X170499998Y-74554168D01*
X170500000Y-74554168D01*
X170500002Y-74554168D01*
X170556673Y-74549209D01*
X170726692Y-74534335D01*
X170946496Y-74475439D01*
X171152734Y-74379268D01*
X171339139Y-74248747D01*
X171500047Y-74087839D01*
X171630568Y-73901434D01*
X171726739Y-73695196D01*
X171785635Y-73475392D01*
X171805468Y-73248700D01*
X171805058Y-73244019D01*
X171795614Y-73136070D01*
X171785635Y-73022008D01*
X171726739Y-72802204D01*
X171679079Y-72699998D01*
X180957647Y-72699998D01*
X180957647Y-72700001D01*
X180977036Y-72971090D01*
X180977037Y-72971097D01*
X181034805Y-73236654D01*
X181129785Y-73491306D01*
X181129787Y-73491310D01*
X181260032Y-73729835D01*
X181260037Y-73729843D01*
X181353821Y-73855123D01*
X181353822Y-73855124D01*
X182035974Y-73172972D01*
X182124587Y-73305590D01*
X182256910Y-73437913D01*
X182389526Y-73526524D01*
X181707374Y-74208676D01*
X181832663Y-74302466D01*
X181832664Y-74302467D01*
X182071189Y-74432712D01*
X182071193Y-74432714D01*
X182325845Y-74527694D01*
X182591402Y-74585462D01*
X182591409Y-74585463D01*
X182862499Y-74604853D01*
X182862501Y-74604853D01*
X183133590Y-74585463D01*
X183133597Y-74585462D01*
X183399154Y-74527694D01*
X183653806Y-74432714D01*
X183653810Y-74432712D01*
X183892344Y-74302462D01*
X184017623Y-74208677D01*
X184017624Y-74208676D01*
X183335472Y-73526525D01*
X183468090Y-73437913D01*
X183600413Y-73305590D01*
X183689024Y-73172972D01*
X184371176Y-73855124D01*
X184371177Y-73855123D01*
X184464962Y-73729844D01*
X184595212Y-73491310D01*
X184595214Y-73491306D01*
X184690194Y-73236654D01*
X184747962Y-72971097D01*
X184747963Y-72971090D01*
X184767353Y-72700001D01*
X184767353Y-72699998D01*
X184747963Y-72428909D01*
X184747962Y-72428902D01*
X184690194Y-72163345D01*
X184595214Y-71908693D01*
X184595212Y-71908689D01*
X184464967Y-71670164D01*
X184464966Y-71670163D01*
X184371176Y-71544874D01*
X183689024Y-72227026D01*
X183600413Y-72094410D01*
X183468090Y-71962087D01*
X183335471Y-71873474D01*
X184017624Y-71191322D01*
X184017623Y-71191321D01*
X183892343Y-71097537D01*
X183892335Y-71097532D01*
X183653810Y-70967287D01*
X183653806Y-70967285D01*
X183399154Y-70872305D01*
X183133597Y-70814537D01*
X183133590Y-70814536D01*
X182862501Y-70795147D01*
X182862499Y-70795147D01*
X182591409Y-70814536D01*
X182591402Y-70814537D01*
X182325845Y-70872305D01*
X182071193Y-70967285D01*
X182071189Y-70967287D01*
X181832664Y-71097532D01*
X181832656Y-71097537D01*
X181707375Y-71191321D01*
X181707374Y-71191322D01*
X182389527Y-71873474D01*
X182256910Y-71962087D01*
X182124587Y-72094410D01*
X182035974Y-72227027D01*
X181353822Y-71544874D01*
X181353821Y-71544875D01*
X181260037Y-71670156D01*
X181260032Y-71670164D01*
X181129787Y-71908689D01*
X181129785Y-71908693D01*
X181034805Y-72163345D01*
X180977037Y-72428902D01*
X180977036Y-72428909D01*
X180957647Y-72699998D01*
X171679079Y-72699998D01*
X171630568Y-72595966D01*
X171524859Y-72444997D01*
X171500045Y-72409558D01*
X171339141Y-72248654D01*
X171152734Y-72118132D01*
X171152732Y-72118131D01*
X170946497Y-72021961D01*
X170946488Y-72021958D01*
X170726697Y-71963066D01*
X170726693Y-71963065D01*
X170726692Y-71963065D01*
X170726691Y-71963064D01*
X170726686Y-71963064D01*
X170500002Y-71943232D01*
X170499998Y-71943232D01*
X170273313Y-71963064D01*
X170273302Y-71963066D01*
X170053511Y-72021958D01*
X170053502Y-72021961D01*
X169847267Y-72118131D01*
X169847265Y-72118132D01*
X169660858Y-72248654D01*
X169499954Y-72409558D01*
X169369432Y-72595965D01*
X169369431Y-72595967D01*
X169273261Y-72802202D01*
X169273258Y-72802211D01*
X169214366Y-73022002D01*
X169214364Y-73022013D01*
X169194532Y-73248698D01*
X164790481Y-73248698D01*
X164785635Y-73193308D01*
X164734901Y-73003964D01*
X164726741Y-72973511D01*
X164726738Y-72973502D01*
X164725613Y-72971090D01*
X164630568Y-72767266D01*
X164500047Y-72580861D01*
X164500045Y-72580858D01*
X164381042Y-72461855D01*
X164347557Y-72400532D01*
X164352541Y-72330840D01*
X164381039Y-72286496D01*
X164409720Y-72257816D01*
X164488777Y-72120884D01*
X164529700Y-71968157D01*
X164529700Y-71237159D01*
X164529701Y-71237146D01*
X164529701Y-71069045D01*
X164529701Y-71069043D01*
X164488777Y-70916315D01*
X164459839Y-70866195D01*
X164409720Y-70779384D01*
X164297916Y-70667580D01*
X164297915Y-70667579D01*
X164293585Y-70663249D01*
X164293574Y-70663239D01*
X163974890Y-70344555D01*
X163974888Y-70344552D01*
X163856017Y-70225681D01*
X163856016Y-70225680D01*
X163769204Y-70175560D01*
X163769204Y-70175559D01*
X163769200Y-70175558D01*
X163719085Y-70146623D01*
X163566357Y-70105699D01*
X163408243Y-70105699D01*
X163400647Y-70105699D01*
X163400631Y-70105700D01*
X149204970Y-70105700D01*
X149204954Y-70105699D01*
X149197358Y-70105699D01*
X149039243Y-70105699D01*
X148962879Y-70126161D01*
X148886514Y-70146623D01*
X148886509Y-70146626D01*
X148749590Y-70225675D01*
X148749582Y-70225681D01*
X148527484Y-70447781D01*
X148466161Y-70481266D01*
X148439803Y-70484100D01*
X145349500Y-70484100D01*
X145282461Y-70464415D01*
X145236706Y-70411611D01*
X145225500Y-70360100D01*
X145225499Y-70068430D01*
X145225498Y-70068423D01*
X145219091Y-70008816D01*
X145193101Y-69939133D01*
X145188117Y-69869441D01*
X145221602Y-69808118D01*
X145282926Y-69774634D01*
X145309283Y-69771800D01*
X146156331Y-69771800D01*
X146156347Y-69771801D01*
X146163943Y-69771801D01*
X146322054Y-69771801D01*
X146322057Y-69771801D01*
X146474785Y-69730877D01*
X146524904Y-69701939D01*
X146611716Y-69651820D01*
X146723520Y-69540016D01*
X146723520Y-69540014D01*
X146733728Y-69529807D01*
X146733730Y-69529804D01*
X146923335Y-69340198D01*
X146984656Y-69306715D01*
X146997111Y-69304663D01*
X147084055Y-69294868D01*
X147254322Y-69235289D01*
X147407062Y-69139316D01*
X147534616Y-69011762D01*
X147630589Y-68859022D01*
X147690168Y-68688755D01*
X147690169Y-68688749D01*
X147710365Y-68509503D01*
X147710365Y-68509496D01*
X147690169Y-68330250D01*
X147690168Y-68330245D01*
X147630589Y-68159978D01*
X147534616Y-68007238D01*
X147407062Y-67879684D01*
X147327507Y-67829696D01*
X147254323Y-67783711D01*
X147084054Y-67724131D01*
X147084049Y-67724130D01*
X146904804Y-67703935D01*
X146904796Y-67703935D01*
X146725550Y-67724130D01*
X146725545Y-67724131D01*
X146555276Y-67783711D01*
X146402537Y-67879684D01*
X146274984Y-68007237D01*
X146179010Y-68159978D01*
X146119430Y-68330250D01*
X146109637Y-68417167D01*
X146082570Y-68481581D01*
X146074100Y-68490962D01*
X146030585Y-68534479D01*
X145969263Y-68567966D01*
X145942902Y-68570800D01*
X145309283Y-68570800D01*
X145242244Y-68551115D01*
X145196489Y-68498311D01*
X145186545Y-68429153D01*
X145193101Y-68403467D01*
X145201552Y-68380806D01*
X145219091Y-68333783D01*
X145225500Y-68274173D01*
X145225499Y-67528428D01*
X145219091Y-67468817D01*
X145219091Y-67468816D01*
X145193101Y-67399133D01*
X145188117Y-67329441D01*
X145221602Y-67268118D01*
X145282926Y-67234634D01*
X145309283Y-67231800D01*
X164563231Y-67231800D01*
X164563247Y-67231801D01*
X164570843Y-67231801D01*
X164728954Y-67231801D01*
X164728957Y-67231801D01*
X164881685Y-67190877D01*
X164931804Y-67161939D01*
X165018616Y-67111820D01*
X165130420Y-67000016D01*
X165130420Y-67000014D01*
X165140628Y-66989807D01*
X165140629Y-66989804D01*
X165739321Y-66391112D01*
X165800643Y-66357629D01*
X165870335Y-66362613D01*
X165883297Y-66368310D01*
X165975830Y-66415458D01*
X165975832Y-66415459D01*
X166166494Y-66477408D01*
X166180245Y-66481876D01*
X166392533Y-66515500D01*
X166392534Y-66515500D01*
X166607466Y-66515500D01*
X166607467Y-66515500D01*
X166819755Y-66481876D01*
X166819758Y-66481875D01*
X166819759Y-66481875D01*
X167024167Y-66415459D01*
X167024170Y-66415458D01*
X167055458Y-66399516D01*
X167215678Y-66317880D01*
X167389563Y-66191545D01*
X167541545Y-66039563D01*
X167667880Y-65865678D01*
X167667881Y-65865675D01*
X167669990Y-65862773D01*
X167725320Y-65820107D01*
X167794933Y-65814128D01*
X167856728Y-65846734D01*
X167870626Y-65862772D01*
X167998838Y-66039239D01*
X167998838Y-66039240D01*
X168150759Y-66191161D01*
X168324583Y-66317452D01*
X168516024Y-66414996D01*
X168720359Y-66481388D01*
X168789999Y-66492418D01*
X168790000Y-66492418D01*
X168790000Y-65444560D01*
X168843147Y-65475245D01*
X168972857Y-65510000D01*
X169107143Y-65510000D01*
X169236853Y-65475245D01*
X169290000Y-65444560D01*
X169290000Y-66492418D01*
X169359638Y-66481388D01*
X169359641Y-66481388D01*
X169563975Y-66414996D01*
X169755416Y-66317452D01*
X169929240Y-66191161D01*
X170081161Y-66039240D01*
X170207452Y-65865416D01*
X170304996Y-65673975D01*
X170371388Y-65469642D01*
X170371388Y-65469639D01*
X170405000Y-65257427D01*
X170405000Y-65250000D01*
X169484560Y-65250000D01*
X169515245Y-65196853D01*
X169550000Y-65067143D01*
X169550000Y-64932857D01*
X169540566Y-64897648D01*
X182199500Y-64897648D01*
X182199500Y-65102351D01*
X182231522Y-65304534D01*
X182294781Y-65499223D01*
X182358691Y-65624653D01*
X182383922Y-65674170D01*
X182387715Y-65681613D01*
X182508028Y-65847213D01*
X182652786Y-65991971D01*
X182762562Y-66071726D01*
X182818390Y-66112287D01*
X182893927Y-66150775D01*
X183000776Y-66205218D01*
X183000778Y-66205218D01*
X183000781Y-66205220D01*
X183105137Y-66239127D01*
X183195465Y-66268477D01*
X183296557Y-66284488D01*
X183397648Y-66300500D01*
X183397649Y-66300500D01*
X183602351Y-66300500D01*
X183602352Y-66300500D01*
X183804534Y-66268477D01*
X183999219Y-66205220D01*
X184181610Y-66112287D01*
X184282153Y-66039239D01*
X184347213Y-65991971D01*
X184347215Y-65991968D01*
X184347219Y-65991966D01*
X184491966Y-65847219D01*
X184491968Y-65847215D01*
X184491971Y-65847213D01*
X184544732Y-65774590D01*
X184612287Y-65681610D01*
X184705220Y-65499219D01*
X184768477Y-65304534D01*
X184800500Y-65102352D01*
X184800500Y-64897648D01*
X184785532Y-64803147D01*
X184768477Y-64695465D01*
X184714793Y-64530245D01*
X184705220Y-64500781D01*
X184705218Y-64500778D01*
X184705218Y-64500776D01*
X184662443Y-64416826D01*
X184612287Y-64318390D01*
X184604556Y-64307749D01*
X184491971Y-64152786D01*
X184347213Y-64008028D01*
X184181613Y-63887715D01*
X184181612Y-63887714D01*
X184181610Y-63887713D01*
X184124535Y-63858632D01*
X183999223Y-63794781D01*
X183804534Y-63731522D01*
X183629995Y-63703878D01*
X183602352Y-63699500D01*
X183397648Y-63699500D01*
X183373329Y-63703351D01*
X183195465Y-63731522D01*
X183000776Y-63794781D01*
X182818386Y-63887715D01*
X182652786Y-64008028D01*
X182508028Y-64152786D01*
X182387715Y-64318386D01*
X182294781Y-64500776D01*
X182231522Y-64695465D01*
X182199500Y-64897648D01*
X169540566Y-64897648D01*
X169515245Y-64803147D01*
X169484560Y-64750000D01*
X170405000Y-64750000D01*
X170405000Y-64742572D01*
X170371388Y-64530360D01*
X170371388Y-64530357D01*
X170304996Y-64326024D01*
X170207452Y-64134583D01*
X170081161Y-63960759D01*
X169929240Y-63808838D01*
X169755416Y-63682547D01*
X169563975Y-63585003D01*
X169359635Y-63518610D01*
X169359636Y-63518610D01*
X169290000Y-63507581D01*
X169290000Y-64555439D01*
X169236853Y-64524755D01*
X169107143Y-64490000D01*
X168972857Y-64490000D01*
X168843147Y-64524755D01*
X168790000Y-64555439D01*
X168790000Y-63507581D01*
X168720364Y-63518610D01*
X168516024Y-63585003D01*
X168324583Y-63682547D01*
X168150759Y-63808838D01*
X167998838Y-63960759D01*
X167998838Y-63960760D01*
X167870626Y-64137227D01*
X167815296Y-64179892D01*
X167745682Y-64185871D01*
X167683887Y-64153265D01*
X167669990Y-64137226D01*
X167576122Y-64008028D01*
X167541545Y-63960437D01*
X167389563Y-63808455D01*
X167215678Y-63682120D01*
X167164234Y-63655908D01*
X167024170Y-63584541D01*
X167024167Y-63584540D01*
X166819757Y-63518124D01*
X166678229Y-63495708D01*
X166607467Y-63484500D01*
X166392533Y-63484500D01*
X166321770Y-63495708D01*
X166180243Y-63518124D01*
X166180240Y-63518124D01*
X165975832Y-63584540D01*
X165975829Y-63584541D01*
X165784321Y-63682120D01*
X165610438Y-63808454D01*
X165515910Y-63902982D01*
X165454586Y-63936466D01*
X165384895Y-63931482D01*
X165328962Y-63889610D01*
X165312047Y-63858632D01*
X165300025Y-63826400D01*
X165293332Y-63808454D01*
X165268798Y-63742673D01*
X165268793Y-63742664D01*
X165182547Y-63627455D01*
X165182544Y-63627452D01*
X165067335Y-63541206D01*
X165067328Y-63541202D01*
X164932482Y-63490908D01*
X164932483Y-63490908D01*
X164872883Y-63484501D01*
X164872881Y-63484500D01*
X164872873Y-63484500D01*
X164872864Y-63484500D01*
X163047129Y-63484500D01*
X163047123Y-63484501D01*
X162987516Y-63490908D01*
X162852671Y-63541202D01*
X162852664Y-63541206D01*
X162737455Y-63627452D01*
X162737452Y-63627455D01*
X162651206Y-63742664D01*
X162651202Y-63742671D01*
X162600908Y-63877517D01*
X162594501Y-63937116D01*
X162594500Y-63937135D01*
X162594500Y-64349787D01*
X162574815Y-64416826D01*
X162532500Y-64457174D01*
X162424587Y-64519477D01*
X162424582Y-64519481D01*
X161429184Y-65514881D01*
X161367861Y-65548366D01*
X161341503Y-65551200D01*
X155176530Y-65551200D01*
X155109491Y-65531515D01*
X155063736Y-65478711D01*
X155053792Y-65409553D01*
X155056755Y-65395106D01*
X155095636Y-65250000D01*
X154198012Y-65250000D01*
X154230925Y-65192993D01*
X154265000Y-65065826D01*
X154265000Y-64934174D01*
X154230925Y-64807007D01*
X154198012Y-64750000D01*
X155095636Y-64750000D01*
X155095635Y-64749999D01*
X155038432Y-64536513D01*
X155038429Y-64536507D01*
X154938600Y-64322422D01*
X154938599Y-64322420D01*
X154803113Y-64128926D01*
X154803108Y-64128920D01*
X154636082Y-63961894D01*
X154442578Y-63826399D01*
X154228492Y-63726570D01*
X154228486Y-63726567D01*
X154015000Y-63669364D01*
X154015000Y-64566988D01*
X153957993Y-64534075D01*
X153830826Y-64500000D01*
X153699174Y-64500000D01*
X153572007Y-64534075D01*
X153515000Y-64566988D01*
X153515000Y-63669364D01*
X153514999Y-63669364D01*
X153301513Y-63726567D01*
X153301507Y-63726570D01*
X153087422Y-63826399D01*
X153087420Y-63826400D01*
X152893926Y-63961886D01*
X152771865Y-64083947D01*
X152710542Y-64117431D01*
X152640850Y-64112447D01*
X152584917Y-64070575D01*
X152568002Y-64039598D01*
X152518797Y-63907671D01*
X152518793Y-63907664D01*
X152432547Y-63792455D01*
X152432544Y-63792452D01*
X152317335Y-63706206D01*
X152317328Y-63706202D01*
X152182482Y-63655908D01*
X152182483Y-63655908D01*
X152122883Y-63649501D01*
X152122881Y-63649500D01*
X152122873Y-63649500D01*
X152122864Y-63649500D01*
X150327129Y-63649500D01*
X150327123Y-63649501D01*
X150267516Y-63655908D01*
X150132671Y-63706202D01*
X150132664Y-63706206D01*
X150017455Y-63792452D01*
X150017452Y-63792455D01*
X149931206Y-63907664D01*
X149931202Y-63907671D01*
X149880908Y-64042517D01*
X149874501Y-64102116D01*
X149874500Y-64102127D01*
X149874500Y-64807007D01*
X149874501Y-65427200D01*
X149854816Y-65494239D01*
X149802013Y-65539994D01*
X149750501Y-65551200D01*
X146293798Y-65551200D01*
X146226759Y-65531515D01*
X146214409Y-65521563D01*
X146214361Y-65521626D01*
X146207917Y-65516681D01*
X146207916Y-65516680D01*
X146121104Y-65466560D01*
X146121104Y-65466559D01*
X146121100Y-65466558D01*
X146070985Y-65437623D01*
X145918257Y-65396699D01*
X145760143Y-65396699D01*
X145752547Y-65396699D01*
X145752531Y-65396700D01*
X142877640Y-65396700D01*
X142836719Y-65407664D01*
X142836719Y-65407665D01*
X142799451Y-65417651D01*
X142724914Y-65437623D01*
X142724909Y-65437626D01*
X142587990Y-65516675D01*
X142587982Y-65516681D01*
X142476178Y-65628486D01*
X139987180Y-68117483D01*
X139925857Y-68150968D01*
X139856165Y-68145984D01*
X139800232Y-68104112D01*
X139775815Y-68038648D01*
X139775499Y-68029820D01*
X139775499Y-67528428D01*
X139769091Y-67468817D01*
X139769091Y-67468816D01*
X139718797Y-67333970D01*
X139714547Y-67326188D01*
X139717757Y-67324434D01*
X139699361Y-67275301D01*
X139714127Y-67207009D01*
X139714752Y-67206036D01*
X139718797Y-67198629D01*
X139751174Y-67111820D01*
X139769091Y-67063783D01*
X139775500Y-67004173D01*
X139775499Y-66258428D01*
X139769091Y-66198817D01*
X139766235Y-66191161D01*
X139718797Y-66063971D01*
X139718793Y-66063964D01*
X139632547Y-65948755D01*
X139632544Y-65948752D01*
X139517335Y-65862506D01*
X139517328Y-65862502D01*
X139382482Y-65812208D01*
X139382483Y-65812208D01*
X139322883Y-65805801D01*
X139322881Y-65805800D01*
X139322873Y-65805800D01*
X139322864Y-65805800D01*
X137677129Y-65805800D01*
X137677123Y-65805801D01*
X137617516Y-65812208D01*
X137482671Y-65862502D01*
X137482664Y-65862506D01*
X137367457Y-65948751D01*
X137367450Y-65948757D01*
X137322165Y-66009250D01*
X137266230Y-66051121D01*
X137254995Y-66054712D01*
X137191521Y-66071721D01*
X137191509Y-66071726D01*
X137054590Y-66150775D01*
X137054582Y-66150781D01*
X136942781Y-66262582D01*
X136942775Y-66262590D01*
X136863726Y-66399509D01*
X136863723Y-66399516D01*
X136822800Y-66552243D01*
X136822800Y-67637502D01*
X136803115Y-67704541D01*
X136786481Y-67725183D01*
X135552586Y-68959078D01*
X135552583Y-68959079D01*
X135552584Y-68959080D01*
X135489592Y-69022071D01*
X135489591Y-69022071D01*
X135437183Y-69074477D01*
X135437159Y-69074503D01*
X134681084Y-69830581D01*
X134619761Y-69864066D01*
X134593403Y-69866900D01*
X129921569Y-69866900D01*
X129921553Y-69866899D01*
X129913957Y-69866899D01*
X129755843Y-69866899D01*
X129648487Y-69895665D01*
X129603110Y-69907824D01*
X129603109Y-69907825D01*
X129552996Y-69936759D01*
X129552995Y-69936760D01*
X129548885Y-69939133D01*
X129466185Y-69986879D01*
X129466182Y-69986881D01*
X127657281Y-71795782D01*
X127657277Y-71795787D01*
X127621660Y-71857479D01*
X127612924Y-71872611D01*
X127578223Y-71932715D01*
X127537299Y-72085443D01*
X127537299Y-72085445D01*
X127537299Y-72253546D01*
X127537300Y-72253559D01*
X127537300Y-73166030D01*
X127537299Y-73166048D01*
X127537299Y-73331754D01*
X127537298Y-73331754D01*
X122500500Y-73331754D01*
X122500500Y-64897648D01*
X124199500Y-64897648D01*
X124199500Y-65102351D01*
X124231522Y-65304534D01*
X124294781Y-65499223D01*
X124358691Y-65624653D01*
X124383922Y-65674170D01*
X124387715Y-65681613D01*
X124508028Y-65847213D01*
X124652786Y-65991971D01*
X124762562Y-66071726D01*
X124818390Y-66112287D01*
X124893927Y-66150775D01*
X125000776Y-66205218D01*
X125000778Y-66205218D01*
X125000781Y-66205220D01*
X125105137Y-66239127D01*
X125195465Y-66268477D01*
X125296557Y-66284488D01*
X125397648Y-66300500D01*
X125397649Y-66300500D01*
X125602351Y-66300500D01*
X125602352Y-66300500D01*
X125804534Y-66268477D01*
X125999219Y-66205220D01*
X126181610Y-66112287D01*
X126282153Y-66039239D01*
X126347213Y-65991971D01*
X126347215Y-65991968D01*
X126347219Y-65991966D01*
X126491966Y-65847219D01*
X126491968Y-65847215D01*
X126491971Y-65847213D01*
X126544732Y-65774590D01*
X126612287Y-65681610D01*
X126705220Y-65499219D01*
X126768477Y-65304534D01*
X126800500Y-65102352D01*
X126800500Y-64897648D01*
X126785532Y-64803147D01*
X126768477Y-64695465D01*
X126714793Y-64530245D01*
X126705220Y-64500781D01*
X126705218Y-64500778D01*
X126705218Y-64500776D01*
X126662443Y-64416826D01*
X126612287Y-64318390D01*
X126604556Y-64307749D01*
X126491971Y-64152786D01*
X126347213Y-64008028D01*
X126181613Y-63887715D01*
X126181612Y-63887714D01*
X126181610Y-63887713D01*
X126124535Y-63858632D01*
X125999223Y-63794781D01*
X125804534Y-63731522D01*
X125629995Y-63703878D01*
X125602352Y-63699500D01*
X125397648Y-63699500D01*
X125373329Y-63703351D01*
X125195465Y-63731522D01*
X125000776Y-63794781D01*
X124818386Y-63887715D01*
X124652786Y-64008028D01*
X124508028Y-64152786D01*
X124387715Y-64318386D01*
X124294781Y-64500776D01*
X124231522Y-64695465D01*
X124199500Y-64897648D01*
X122500500Y-64897648D01*
X122500500Y-62124500D01*
X122520185Y-62057461D01*
X122572989Y-62011706D01*
X122624500Y-62000500D01*
X186375500Y-62000500D01*
X186442539Y-62020185D01*
G37*
%TD.AperFunction*%
%TD*%
M02*
