M48
; DRILL file {KiCad 8.0.8} date 2025-02-27T22:51:01-0500
; FORMAT={-:-/ absolute / inch / decimal}
; #@! TF.CreationDate,2025-02-27T22:51:01-05:00
; #@! TF.GenerationSoftware,Kicad,Pcbnew,8.0.8
; #@! TF.FileFunction,Plated,1,2,PTH
FMAT,2
INCH
; #@! TA.AperFunction,Plated,PTH,ViaDrill
T1C0.0118
; #@! TA.AperFunction,Plated,PTH,ComponentDrill
T2C0.0276
; #@! TA.AperFunction,Plated,PTH,ComponentDrill
T3C0.0315
; #@! TA.AperFunction,Plated,PTH,ComponentDrill
T4C0.0320
; #@! TA.AperFunction,Plated,PTH,ComponentDrill
T5C0.0394
; #@! TA.AperFunction,Plated,PTH,ComponentDrill
T6C0.0402
; #@! TA.AperFunction,Plated,PTH,ComponentDrill
T7C0.0748
%
G90
G05
T1
X5.21Y-2.9344
X5.2169Y-3.8724
X5.5773Y-3.7624
X5.5793Y-3.9789
X5.7276Y-2.9773
X5.7837Y-2.6972
X5.8393Y-3.7207
X6.2365Y-3.0636
X6.4284Y-2.8105
X6.6072Y-3.6233
T2
X5.0805Y-2.8683
X5.1305Y-2.8183
X5.1305Y-2.9183
X5.1378Y-3.7666
X5.1378Y-3.8666
X5.1878Y-3.8166
T3
X5.1969Y-3.1465
X5.1969Y-3.5465
X5.3893Y-3.2087
X5.3906Y-3.4843
X5.7893Y-3.2087
X5.7906Y-3.4843
X5.8992Y-3.4843
X5.9024Y-3.2087
X6.2992Y-3.4843
X6.3024Y-3.2087
X6.437Y-2.8906
X6.437Y-3.2906
X6.437Y-3.4682
X6.437Y-3.8682
X6.7126Y-2.8838
X6.7126Y-3.2838
T4
X6.661Y-3.5114
X6.661Y-3.8114
X6.761Y-3.5114
X6.761Y-3.8114
X6.861Y-3.5114
X6.861Y-3.8114
X6.961Y-3.5114
X6.961Y-3.8114
T5
X5.9537Y-2.5591
X5.9538Y-4.106
X6.0537Y-2.5591
X6.0538Y-4.106
T6
X6.4551Y-2.5591
X6.5551Y-2.5591
X6.6551Y-2.5591
X6.8922Y-3.0118
T7
X7.1993Y-2.8622
X7.1993Y-3.1614
M30
