%TF.GenerationSoftware,KiCad,Pcbnew,9.0.0-1.fc41*%
%TF.CreationDate,2025-03-24T11:14:24-04:00*%
%TF.ProjectId,Balanced Polarimeter,42616c61-6e63-4656-9420-506f6c617269,rev?*%
%TF.SameCoordinates,Original*%
%TF.FileFunction,Legend,Top*%
%TF.FilePolarity,Positive*%
%FSLAX46Y46*%
G04 Gerber Fmt 4.6, Leading zero omitted, Abs format (unit mm)*
G04 Created by KiCad (PCBNEW 9.0.0-1.fc41) date 2025-03-24 11:14:24*
%MOMM*%
%LPD*%
G01*
G04 APERTURE LIST*
%ADD10C,0.150000*%
%ADD11C,0.200000*%
%ADD12C,0.254000*%
%ADD13C,0.120000*%
%ADD14C,0.152400*%
G04 APERTURE END LIST*
D10*
X154854048Y-65073866D02*
X155615953Y-65073866D01*
X162350638Y-68986304D02*
X162303019Y-69081542D01*
X162303019Y-69081542D02*
X162303019Y-69224399D01*
X162303019Y-69224399D02*
X162350638Y-69367256D01*
X162350638Y-69367256D02*
X162445876Y-69462494D01*
X162445876Y-69462494D02*
X162541114Y-69510113D01*
X162541114Y-69510113D02*
X162731590Y-69557732D01*
X162731590Y-69557732D02*
X162874447Y-69557732D01*
X162874447Y-69557732D02*
X163064923Y-69510113D01*
X163064923Y-69510113D02*
X163160161Y-69462494D01*
X163160161Y-69462494D02*
X163255400Y-69367256D01*
X163255400Y-69367256D02*
X163303019Y-69224399D01*
X163303019Y-69224399D02*
X163303019Y-69129161D01*
X163303019Y-69129161D02*
X163255400Y-68986304D01*
X163255400Y-68986304D02*
X163207780Y-68938685D01*
X163207780Y-68938685D02*
X162874447Y-68938685D01*
X162874447Y-68938685D02*
X162874447Y-69129161D01*
X163303019Y-68510113D02*
X162303019Y-68510113D01*
X162303019Y-68510113D02*
X163303019Y-67938685D01*
X163303019Y-67938685D02*
X162303019Y-67938685D01*
X163303019Y-67462494D02*
X162303019Y-67462494D01*
X162303019Y-67462494D02*
X162303019Y-67224399D01*
X162303019Y-67224399D02*
X162350638Y-67081542D01*
X162350638Y-67081542D02*
X162445876Y-66986304D01*
X162445876Y-66986304D02*
X162541114Y-66938685D01*
X162541114Y-66938685D02*
X162731590Y-66891066D01*
X162731590Y-66891066D02*
X162874447Y-66891066D01*
X162874447Y-66891066D02*
X163064923Y-66938685D01*
X163064923Y-66938685D02*
X163160161Y-66986304D01*
X163160161Y-66986304D02*
X163255400Y-67081542D01*
X163255400Y-67081542D02*
X163303019Y-67224399D01*
X163303019Y-67224399D02*
X163303019Y-67462494D01*
D11*
X160627134Y-101832365D02*
X160877134Y-101915699D01*
X160877134Y-101915699D02*
X160960467Y-101999032D01*
X160960467Y-101999032D02*
X161043800Y-102165699D01*
X161043800Y-102165699D02*
X161043800Y-102415699D01*
X161043800Y-102415699D02*
X160960467Y-102582365D01*
X160960467Y-102582365D02*
X160877134Y-102665699D01*
X160877134Y-102665699D02*
X160710467Y-102749032D01*
X160710467Y-102749032D02*
X160043800Y-102749032D01*
X160043800Y-102749032D02*
X160043800Y-100999032D01*
X160043800Y-100999032D02*
X160627134Y-100999032D01*
X160627134Y-100999032D02*
X160793800Y-101082365D01*
X160793800Y-101082365D02*
X160877134Y-101165699D01*
X160877134Y-101165699D02*
X160960467Y-101332365D01*
X160960467Y-101332365D02*
X160960467Y-101499032D01*
X160960467Y-101499032D02*
X160877134Y-101665699D01*
X160877134Y-101665699D02*
X160793800Y-101749032D01*
X160793800Y-101749032D02*
X160627134Y-101832365D01*
X160627134Y-101832365D02*
X160043800Y-101832365D01*
X162543800Y-102749032D02*
X162543800Y-101832365D01*
X162543800Y-101832365D02*
X162460467Y-101665699D01*
X162460467Y-101665699D02*
X162293800Y-101582365D01*
X162293800Y-101582365D02*
X161960467Y-101582365D01*
X161960467Y-101582365D02*
X161793800Y-101665699D01*
X162543800Y-102665699D02*
X162377134Y-102749032D01*
X162377134Y-102749032D02*
X161960467Y-102749032D01*
X161960467Y-102749032D02*
X161793800Y-102665699D01*
X161793800Y-102665699D02*
X161710467Y-102499032D01*
X161710467Y-102499032D02*
X161710467Y-102332365D01*
X161710467Y-102332365D02*
X161793800Y-102165699D01*
X161793800Y-102165699D02*
X161960467Y-102082365D01*
X161960467Y-102082365D02*
X162377134Y-102082365D01*
X162377134Y-102082365D02*
X162543800Y-101999032D01*
X163627133Y-102749032D02*
X163460467Y-102665699D01*
X163460467Y-102665699D02*
X163377133Y-102499032D01*
X163377133Y-102499032D02*
X163377133Y-100999032D01*
X165043800Y-102749032D02*
X165043800Y-101832365D01*
X165043800Y-101832365D02*
X164960467Y-101665699D01*
X164960467Y-101665699D02*
X164793800Y-101582365D01*
X164793800Y-101582365D02*
X164460467Y-101582365D01*
X164460467Y-101582365D02*
X164293800Y-101665699D01*
X165043800Y-102665699D02*
X164877134Y-102749032D01*
X164877134Y-102749032D02*
X164460467Y-102749032D01*
X164460467Y-102749032D02*
X164293800Y-102665699D01*
X164293800Y-102665699D02*
X164210467Y-102499032D01*
X164210467Y-102499032D02*
X164210467Y-102332365D01*
X164210467Y-102332365D02*
X164293800Y-102165699D01*
X164293800Y-102165699D02*
X164460467Y-102082365D01*
X164460467Y-102082365D02*
X164877134Y-102082365D01*
X164877134Y-102082365D02*
X165043800Y-101999032D01*
X165877133Y-101582365D02*
X165877133Y-102749032D01*
X165877133Y-101749032D02*
X165960467Y-101665699D01*
X165960467Y-101665699D02*
X166127133Y-101582365D01*
X166127133Y-101582365D02*
X166377133Y-101582365D01*
X166377133Y-101582365D02*
X166543800Y-101665699D01*
X166543800Y-101665699D02*
X166627133Y-101832365D01*
X166627133Y-101832365D02*
X166627133Y-102749032D01*
X168210466Y-102665699D02*
X168043800Y-102749032D01*
X168043800Y-102749032D02*
X167710466Y-102749032D01*
X167710466Y-102749032D02*
X167543800Y-102665699D01*
X167543800Y-102665699D02*
X167460466Y-102582365D01*
X167460466Y-102582365D02*
X167377133Y-102415699D01*
X167377133Y-102415699D02*
X167377133Y-101915699D01*
X167377133Y-101915699D02*
X167460466Y-101749032D01*
X167460466Y-101749032D02*
X167543800Y-101665699D01*
X167543800Y-101665699D02*
X167710466Y-101582365D01*
X167710466Y-101582365D02*
X168043800Y-101582365D01*
X168043800Y-101582365D02*
X168210466Y-101665699D01*
X169627133Y-102665699D02*
X169460466Y-102749032D01*
X169460466Y-102749032D02*
X169127133Y-102749032D01*
X169127133Y-102749032D02*
X168960466Y-102665699D01*
X168960466Y-102665699D02*
X168877133Y-102499032D01*
X168877133Y-102499032D02*
X168877133Y-101832365D01*
X168877133Y-101832365D02*
X168960466Y-101665699D01*
X168960466Y-101665699D02*
X169127133Y-101582365D01*
X169127133Y-101582365D02*
X169460466Y-101582365D01*
X169460466Y-101582365D02*
X169627133Y-101665699D01*
X169627133Y-101665699D02*
X169710466Y-101832365D01*
X169710466Y-101832365D02*
X169710466Y-101999032D01*
X169710466Y-101999032D02*
X168877133Y-102165699D01*
X171210466Y-102749032D02*
X171210466Y-100999032D01*
X171210466Y-102665699D02*
X171043800Y-102749032D01*
X171043800Y-102749032D02*
X170710466Y-102749032D01*
X170710466Y-102749032D02*
X170543800Y-102665699D01*
X170543800Y-102665699D02*
X170460466Y-102582365D01*
X170460466Y-102582365D02*
X170377133Y-102415699D01*
X170377133Y-102415699D02*
X170377133Y-101915699D01*
X170377133Y-101915699D02*
X170460466Y-101749032D01*
X170460466Y-101749032D02*
X170543800Y-101665699D01*
X170543800Y-101665699D02*
X170710466Y-101582365D01*
X170710466Y-101582365D02*
X171043800Y-101582365D01*
X171043800Y-101582365D02*
X171210466Y-101665699D01*
X159127134Y-105566434D02*
X159127134Y-103816434D01*
X159127134Y-103816434D02*
X159793801Y-103816434D01*
X159793801Y-103816434D02*
X159960468Y-103899767D01*
X159960468Y-103899767D02*
X160043801Y-103983101D01*
X160043801Y-103983101D02*
X160127134Y-104149767D01*
X160127134Y-104149767D02*
X160127134Y-104399767D01*
X160127134Y-104399767D02*
X160043801Y-104566434D01*
X160043801Y-104566434D02*
X159960468Y-104649767D01*
X159960468Y-104649767D02*
X159793801Y-104733101D01*
X159793801Y-104733101D02*
X159127134Y-104733101D01*
X161127134Y-105566434D02*
X160960468Y-105483101D01*
X160960468Y-105483101D02*
X160877134Y-105399767D01*
X160877134Y-105399767D02*
X160793801Y-105233101D01*
X160793801Y-105233101D02*
X160793801Y-104733101D01*
X160793801Y-104733101D02*
X160877134Y-104566434D01*
X160877134Y-104566434D02*
X160960468Y-104483101D01*
X160960468Y-104483101D02*
X161127134Y-104399767D01*
X161127134Y-104399767D02*
X161377134Y-104399767D01*
X161377134Y-104399767D02*
X161543801Y-104483101D01*
X161543801Y-104483101D02*
X161627134Y-104566434D01*
X161627134Y-104566434D02*
X161710468Y-104733101D01*
X161710468Y-104733101D02*
X161710468Y-105233101D01*
X161710468Y-105233101D02*
X161627134Y-105399767D01*
X161627134Y-105399767D02*
X161543801Y-105483101D01*
X161543801Y-105483101D02*
X161377134Y-105566434D01*
X161377134Y-105566434D02*
X161127134Y-105566434D01*
X162710467Y-105566434D02*
X162543801Y-105483101D01*
X162543801Y-105483101D02*
X162460467Y-105316434D01*
X162460467Y-105316434D02*
X162460467Y-103816434D01*
X164127134Y-105566434D02*
X164127134Y-104649767D01*
X164127134Y-104649767D02*
X164043801Y-104483101D01*
X164043801Y-104483101D02*
X163877134Y-104399767D01*
X163877134Y-104399767D02*
X163543801Y-104399767D01*
X163543801Y-104399767D02*
X163377134Y-104483101D01*
X164127134Y-105483101D02*
X163960468Y-105566434D01*
X163960468Y-105566434D02*
X163543801Y-105566434D01*
X163543801Y-105566434D02*
X163377134Y-105483101D01*
X163377134Y-105483101D02*
X163293801Y-105316434D01*
X163293801Y-105316434D02*
X163293801Y-105149767D01*
X163293801Y-105149767D02*
X163377134Y-104983101D01*
X163377134Y-104983101D02*
X163543801Y-104899767D01*
X163543801Y-104899767D02*
X163960468Y-104899767D01*
X163960468Y-104899767D02*
X164127134Y-104816434D01*
X164960467Y-105566434D02*
X164960467Y-104399767D01*
X164960467Y-104733101D02*
X165043801Y-104566434D01*
X165043801Y-104566434D02*
X165127134Y-104483101D01*
X165127134Y-104483101D02*
X165293801Y-104399767D01*
X165293801Y-104399767D02*
X165460467Y-104399767D01*
X166043800Y-105566434D02*
X166043800Y-104399767D01*
X166043800Y-103816434D02*
X165960467Y-103899767D01*
X165960467Y-103899767D02*
X166043800Y-103983101D01*
X166043800Y-103983101D02*
X166127134Y-103899767D01*
X166127134Y-103899767D02*
X166043800Y-103816434D01*
X166043800Y-103816434D02*
X166043800Y-103983101D01*
X166877133Y-105566434D02*
X166877133Y-104399767D01*
X166877133Y-104566434D02*
X166960467Y-104483101D01*
X166960467Y-104483101D02*
X167127133Y-104399767D01*
X167127133Y-104399767D02*
X167377133Y-104399767D01*
X167377133Y-104399767D02*
X167543800Y-104483101D01*
X167543800Y-104483101D02*
X167627133Y-104649767D01*
X167627133Y-104649767D02*
X167627133Y-105566434D01*
X167627133Y-104649767D02*
X167710467Y-104483101D01*
X167710467Y-104483101D02*
X167877133Y-104399767D01*
X167877133Y-104399767D02*
X168127133Y-104399767D01*
X168127133Y-104399767D02*
X168293800Y-104483101D01*
X168293800Y-104483101D02*
X168377133Y-104649767D01*
X168377133Y-104649767D02*
X168377133Y-105566434D01*
X169877133Y-105483101D02*
X169710466Y-105566434D01*
X169710466Y-105566434D02*
X169377133Y-105566434D01*
X169377133Y-105566434D02*
X169210466Y-105483101D01*
X169210466Y-105483101D02*
X169127133Y-105316434D01*
X169127133Y-105316434D02*
X169127133Y-104649767D01*
X169127133Y-104649767D02*
X169210466Y-104483101D01*
X169210466Y-104483101D02*
X169377133Y-104399767D01*
X169377133Y-104399767D02*
X169710466Y-104399767D01*
X169710466Y-104399767D02*
X169877133Y-104483101D01*
X169877133Y-104483101D02*
X169960466Y-104649767D01*
X169960466Y-104649767D02*
X169960466Y-104816434D01*
X169960466Y-104816434D02*
X169127133Y-104983101D01*
X170460466Y-104399767D02*
X171127133Y-104399767D01*
X170710466Y-103816434D02*
X170710466Y-105316434D01*
X170710466Y-105316434D02*
X170793800Y-105483101D01*
X170793800Y-105483101D02*
X170960466Y-105566434D01*
X170960466Y-105566434D02*
X171127133Y-105566434D01*
X172377133Y-105483101D02*
X172210466Y-105566434D01*
X172210466Y-105566434D02*
X171877133Y-105566434D01*
X171877133Y-105566434D02*
X171710466Y-105483101D01*
X171710466Y-105483101D02*
X171627133Y-105316434D01*
X171627133Y-105316434D02*
X171627133Y-104649767D01*
X171627133Y-104649767D02*
X171710466Y-104483101D01*
X171710466Y-104483101D02*
X171877133Y-104399767D01*
X171877133Y-104399767D02*
X172210466Y-104399767D01*
X172210466Y-104399767D02*
X172377133Y-104483101D01*
X172377133Y-104483101D02*
X172460466Y-104649767D01*
X172460466Y-104649767D02*
X172460466Y-104816434D01*
X172460466Y-104816434D02*
X171627133Y-104983101D01*
X173210466Y-105566434D02*
X173210466Y-104399767D01*
X173210466Y-104733101D02*
X173293800Y-104566434D01*
X173293800Y-104566434D02*
X173377133Y-104483101D01*
X173377133Y-104483101D02*
X173543800Y-104399767D01*
X173543800Y-104399767D02*
X173710466Y-104399767D01*
D10*
X160382066Y-69611713D02*
X160382066Y-68849809D01*
X159763019Y-67897428D02*
X159763019Y-68373618D01*
X159763019Y-68373618D02*
X160239209Y-68421237D01*
X160239209Y-68421237D02*
X160191590Y-68373618D01*
X160191590Y-68373618D02*
X160143971Y-68278380D01*
X160143971Y-68278380D02*
X160143971Y-68040285D01*
X160143971Y-68040285D02*
X160191590Y-67945047D01*
X160191590Y-67945047D02*
X160239209Y-67897428D01*
X160239209Y-67897428D02*
X160334447Y-67849809D01*
X160334447Y-67849809D02*
X160572542Y-67849809D01*
X160572542Y-67849809D02*
X160667780Y-67897428D01*
X160667780Y-67897428D02*
X160715400Y-67945047D01*
X160715400Y-67945047D02*
X160763019Y-68040285D01*
X160763019Y-68040285D02*
X160763019Y-68278380D01*
X160763019Y-68278380D02*
X160715400Y-68373618D01*
X160715400Y-68373618D02*
X160667780Y-68421237D01*
X159763019Y-67564094D02*
X160763019Y-67230761D01*
X160763019Y-67230761D02*
X159763019Y-66897428D01*
X148183648Y-104340866D02*
X148945553Y-104340866D01*
X148564600Y-104721819D02*
X148564600Y-103959914D01*
X157791266Y-69637113D02*
X157791266Y-68875209D01*
X158172219Y-69256161D02*
X157410314Y-69256161D01*
X157172219Y-67922828D02*
X157172219Y-68399018D01*
X157172219Y-68399018D02*
X157648409Y-68446637D01*
X157648409Y-68446637D02*
X157600790Y-68399018D01*
X157600790Y-68399018D02*
X157553171Y-68303780D01*
X157553171Y-68303780D02*
X157553171Y-68065685D01*
X157553171Y-68065685D02*
X157600790Y-67970447D01*
X157600790Y-67970447D02*
X157648409Y-67922828D01*
X157648409Y-67922828D02*
X157743647Y-67875209D01*
X157743647Y-67875209D02*
X157981742Y-67875209D01*
X157981742Y-67875209D02*
X158076980Y-67922828D01*
X158076980Y-67922828D02*
X158124600Y-67970447D01*
X158124600Y-67970447D02*
X158172219Y-68065685D01*
X158172219Y-68065685D02*
X158172219Y-68303780D01*
X158172219Y-68303780D02*
X158124600Y-68399018D01*
X158124600Y-68399018D02*
X158076980Y-68446637D01*
X157172219Y-67589494D02*
X158172219Y-67256161D01*
X158172219Y-67256161D02*
X157172219Y-66922828D01*
X156159248Y-104290066D02*
X156921153Y-104290066D01*
X146854048Y-65073866D02*
X147615953Y-65073866D01*
X147235000Y-65454819D02*
X147235000Y-64692914D01*
X169083333Y-63609580D02*
X169035714Y-63657200D01*
X169035714Y-63657200D02*
X168892857Y-63704819D01*
X168892857Y-63704819D02*
X168797619Y-63704819D01*
X168797619Y-63704819D02*
X168654762Y-63657200D01*
X168654762Y-63657200D02*
X168559524Y-63561961D01*
X168559524Y-63561961D02*
X168511905Y-63466723D01*
X168511905Y-63466723D02*
X168464286Y-63276247D01*
X168464286Y-63276247D02*
X168464286Y-63133390D01*
X168464286Y-63133390D02*
X168511905Y-62942914D01*
X168511905Y-62942914D02*
X168559524Y-62847676D01*
X168559524Y-62847676D02*
X168654762Y-62752438D01*
X168654762Y-62752438D02*
X168797619Y-62704819D01*
X168797619Y-62704819D02*
X168892857Y-62704819D01*
X168892857Y-62704819D02*
X169035714Y-62752438D01*
X169035714Y-62752438D02*
X169083333Y-62800057D01*
X170035714Y-63704819D02*
X169464286Y-63704819D01*
X169750000Y-63704819D02*
X169750000Y-62704819D01*
X169750000Y-62704819D02*
X169654762Y-62847676D01*
X169654762Y-62847676D02*
X169559524Y-62942914D01*
X169559524Y-62942914D02*
X169464286Y-62990533D01*
X168584819Y-78495366D02*
X168108628Y-78828699D01*
X168584819Y-79066794D02*
X167584819Y-79066794D01*
X167584819Y-79066794D02*
X167584819Y-78685842D01*
X167584819Y-78685842D02*
X167632438Y-78590604D01*
X167632438Y-78590604D02*
X167680057Y-78542985D01*
X167680057Y-78542985D02*
X167775295Y-78495366D01*
X167775295Y-78495366D02*
X167918152Y-78495366D01*
X167918152Y-78495366D02*
X168013390Y-78542985D01*
X168013390Y-78542985D02*
X168061009Y-78590604D01*
X168061009Y-78590604D02*
X168108628Y-78685842D01*
X168108628Y-78685842D02*
X168108628Y-79066794D01*
X168013390Y-77923937D02*
X167965771Y-78019175D01*
X167965771Y-78019175D02*
X167918152Y-78066794D01*
X167918152Y-78066794D02*
X167822914Y-78114413D01*
X167822914Y-78114413D02*
X167775295Y-78114413D01*
X167775295Y-78114413D02*
X167680057Y-78066794D01*
X167680057Y-78066794D02*
X167632438Y-78019175D01*
X167632438Y-78019175D02*
X167584819Y-77923937D01*
X167584819Y-77923937D02*
X167584819Y-77733461D01*
X167584819Y-77733461D02*
X167632438Y-77638223D01*
X167632438Y-77638223D02*
X167680057Y-77590604D01*
X167680057Y-77590604D02*
X167775295Y-77542985D01*
X167775295Y-77542985D02*
X167822914Y-77542985D01*
X167822914Y-77542985D02*
X167918152Y-77590604D01*
X167918152Y-77590604D02*
X167965771Y-77638223D01*
X167965771Y-77638223D02*
X168013390Y-77733461D01*
X168013390Y-77733461D02*
X168013390Y-77923937D01*
X168013390Y-77923937D02*
X168061009Y-78019175D01*
X168061009Y-78019175D02*
X168108628Y-78066794D01*
X168108628Y-78066794D02*
X168203866Y-78114413D01*
X168203866Y-78114413D02*
X168394342Y-78114413D01*
X168394342Y-78114413D02*
X168489580Y-78066794D01*
X168489580Y-78066794D02*
X168537200Y-78019175D01*
X168537200Y-78019175D02*
X168584819Y-77923937D01*
X168584819Y-77923937D02*
X168584819Y-77733461D01*
X168584819Y-77733461D02*
X168537200Y-77638223D01*
X168537200Y-77638223D02*
X168489580Y-77590604D01*
X168489580Y-77590604D02*
X168394342Y-77542985D01*
X168394342Y-77542985D02*
X168203866Y-77542985D01*
X168203866Y-77542985D02*
X168108628Y-77590604D01*
X168108628Y-77590604D02*
X168061009Y-77638223D01*
X168061009Y-77638223D02*
X168013390Y-77733461D01*
X161584819Y-78666666D02*
X161108628Y-78999999D01*
X161584819Y-79238094D02*
X160584819Y-79238094D01*
X160584819Y-79238094D02*
X160584819Y-78857142D01*
X160584819Y-78857142D02*
X160632438Y-78761904D01*
X160632438Y-78761904D02*
X160680057Y-78714285D01*
X160680057Y-78714285D02*
X160775295Y-78666666D01*
X160775295Y-78666666D02*
X160918152Y-78666666D01*
X160918152Y-78666666D02*
X161013390Y-78714285D01*
X161013390Y-78714285D02*
X161061009Y-78761904D01*
X161061009Y-78761904D02*
X161108628Y-78857142D01*
X161108628Y-78857142D02*
X161108628Y-79238094D01*
X160584819Y-78333332D02*
X160584819Y-77714285D01*
X160584819Y-77714285D02*
X160965771Y-78047618D01*
X160965771Y-78047618D02*
X160965771Y-77904761D01*
X160965771Y-77904761D02*
X161013390Y-77809523D01*
X161013390Y-77809523D02*
X161061009Y-77761904D01*
X161061009Y-77761904D02*
X161156247Y-77714285D01*
X161156247Y-77714285D02*
X161394342Y-77714285D01*
X161394342Y-77714285D02*
X161489580Y-77761904D01*
X161489580Y-77761904D02*
X161537200Y-77809523D01*
X161537200Y-77809523D02*
X161584819Y-77904761D01*
X161584819Y-77904761D02*
X161584819Y-78190475D01*
X161584819Y-78190475D02*
X161537200Y-78285713D01*
X161537200Y-78285713D02*
X161489580Y-78333332D01*
X166324819Y-93337966D02*
X165848628Y-93671299D01*
X166324819Y-93909394D02*
X165324819Y-93909394D01*
X165324819Y-93909394D02*
X165324819Y-93528442D01*
X165324819Y-93528442D02*
X165372438Y-93433204D01*
X165372438Y-93433204D02*
X165420057Y-93385585D01*
X165420057Y-93385585D02*
X165515295Y-93337966D01*
X165515295Y-93337966D02*
X165658152Y-93337966D01*
X165658152Y-93337966D02*
X165753390Y-93385585D01*
X165753390Y-93385585D02*
X165801009Y-93433204D01*
X165801009Y-93433204D02*
X165848628Y-93528442D01*
X165848628Y-93528442D02*
X165848628Y-93909394D01*
X165324819Y-93004632D02*
X165324819Y-92337966D01*
X165324819Y-92337966D02*
X166324819Y-92766537D01*
X152543095Y-69304819D02*
X152543095Y-70114342D01*
X152543095Y-70114342D02*
X152590714Y-70209580D01*
X152590714Y-70209580D02*
X152638333Y-70257200D01*
X152638333Y-70257200D02*
X152733571Y-70304819D01*
X152733571Y-70304819D02*
X152924047Y-70304819D01*
X152924047Y-70304819D02*
X153019285Y-70257200D01*
X153019285Y-70257200D02*
X153066904Y-70209580D01*
X153066904Y-70209580D02*
X153114523Y-70114342D01*
X153114523Y-70114342D02*
X153114523Y-69304819D01*
X154114523Y-70304819D02*
X153543095Y-70304819D01*
X153828809Y-70304819D02*
X153828809Y-69304819D01*
X153828809Y-69304819D02*
X153733571Y-69447676D01*
X153733571Y-69447676D02*
X153638333Y-69542914D01*
X153638333Y-69542914D02*
X153543095Y-69590533D01*
X130084819Y-85166666D02*
X129608628Y-85499999D01*
X130084819Y-85738094D02*
X129084819Y-85738094D01*
X129084819Y-85738094D02*
X129084819Y-85357142D01*
X129084819Y-85357142D02*
X129132438Y-85261904D01*
X129132438Y-85261904D02*
X129180057Y-85214285D01*
X129180057Y-85214285D02*
X129275295Y-85166666D01*
X129275295Y-85166666D02*
X129418152Y-85166666D01*
X129418152Y-85166666D02*
X129513390Y-85214285D01*
X129513390Y-85214285D02*
X129561009Y-85261904D01*
X129561009Y-85261904D02*
X129608628Y-85357142D01*
X129608628Y-85357142D02*
X129608628Y-85738094D01*
X129180057Y-84785713D02*
X129132438Y-84738094D01*
X129132438Y-84738094D02*
X129084819Y-84642856D01*
X129084819Y-84642856D02*
X129084819Y-84404761D01*
X129084819Y-84404761D02*
X129132438Y-84309523D01*
X129132438Y-84309523D02*
X129180057Y-84261904D01*
X129180057Y-84261904D02*
X129275295Y-84214285D01*
X129275295Y-84214285D02*
X129370533Y-84214285D01*
X129370533Y-84214285D02*
X129513390Y-84261904D01*
X129513390Y-84261904D02*
X130084819Y-84833332D01*
X130084819Y-84833332D02*
X130084819Y-84214285D01*
X154833333Y-79584819D02*
X154500000Y-79108628D01*
X154261905Y-79584819D02*
X154261905Y-78584819D01*
X154261905Y-78584819D02*
X154642857Y-78584819D01*
X154642857Y-78584819D02*
X154738095Y-78632438D01*
X154738095Y-78632438D02*
X154785714Y-78680057D01*
X154785714Y-78680057D02*
X154833333Y-78775295D01*
X154833333Y-78775295D02*
X154833333Y-78918152D01*
X154833333Y-78918152D02*
X154785714Y-79013390D01*
X154785714Y-79013390D02*
X154738095Y-79061009D01*
X154738095Y-79061009D02*
X154642857Y-79108628D01*
X154642857Y-79108628D02*
X154261905Y-79108628D01*
X155738095Y-78584819D02*
X155261905Y-78584819D01*
X155261905Y-78584819D02*
X155214286Y-79061009D01*
X155214286Y-79061009D02*
X155261905Y-79013390D01*
X155261905Y-79013390D02*
X155357143Y-78965771D01*
X155357143Y-78965771D02*
X155595238Y-78965771D01*
X155595238Y-78965771D02*
X155690476Y-79013390D01*
X155690476Y-79013390D02*
X155738095Y-79061009D01*
X155738095Y-79061009D02*
X155785714Y-79156247D01*
X155785714Y-79156247D02*
X155785714Y-79394342D01*
X155785714Y-79394342D02*
X155738095Y-79489580D01*
X155738095Y-79489580D02*
X155690476Y-79537200D01*
X155690476Y-79537200D02*
X155595238Y-79584819D01*
X155595238Y-79584819D02*
X155357143Y-79584819D01*
X155357143Y-79584819D02*
X155261905Y-79537200D01*
X155261905Y-79537200D02*
X155214286Y-79489580D01*
D12*
X189387258Y-77469552D02*
X190294401Y-77469552D01*
X190294401Y-77469552D02*
X190475829Y-77530029D01*
X190475829Y-77530029D02*
X190596782Y-77650981D01*
X190596782Y-77650981D02*
X190657258Y-77832410D01*
X190657258Y-77832410D02*
X190657258Y-77953362D01*
X190657258Y-76199552D02*
X190657258Y-76925267D01*
X190657258Y-76562410D02*
X189387258Y-76562410D01*
X189387258Y-76562410D02*
X189568686Y-76683362D01*
X189568686Y-76683362D02*
X189689639Y-76804314D01*
X189689639Y-76804314D02*
X189750115Y-76925267D01*
D10*
X126934819Y-97679394D02*
X125934819Y-97679394D01*
X125934819Y-97679394D02*
X125934819Y-97441299D01*
X125934819Y-97441299D02*
X125982438Y-97298442D01*
X125982438Y-97298442D02*
X126077676Y-97203204D01*
X126077676Y-97203204D02*
X126172914Y-97155585D01*
X126172914Y-97155585D02*
X126363390Y-97107966D01*
X126363390Y-97107966D02*
X126506247Y-97107966D01*
X126506247Y-97107966D02*
X126696723Y-97155585D01*
X126696723Y-97155585D02*
X126791961Y-97203204D01*
X126791961Y-97203204D02*
X126887200Y-97298442D01*
X126887200Y-97298442D02*
X126934819Y-97441299D01*
X126934819Y-97441299D02*
X126934819Y-97679394D01*
X126934819Y-96155585D02*
X126934819Y-96727013D01*
X126934819Y-96441299D02*
X125934819Y-96441299D01*
X125934819Y-96441299D02*
X126077676Y-96536537D01*
X126077676Y-96536537D02*
X126172914Y-96631775D01*
X126172914Y-96631775D02*
X126220533Y-96727013D01*
X134927200Y-99131775D02*
X134974819Y-98988918D01*
X134974819Y-98988918D02*
X134974819Y-98750823D01*
X134974819Y-98750823D02*
X134927200Y-98655585D01*
X134927200Y-98655585D02*
X134879580Y-98607966D01*
X134879580Y-98607966D02*
X134784342Y-98560347D01*
X134784342Y-98560347D02*
X134689104Y-98560347D01*
X134689104Y-98560347D02*
X134593866Y-98607966D01*
X134593866Y-98607966D02*
X134546247Y-98655585D01*
X134546247Y-98655585D02*
X134498628Y-98750823D01*
X134498628Y-98750823D02*
X134451009Y-98941299D01*
X134451009Y-98941299D02*
X134403390Y-99036537D01*
X134403390Y-99036537D02*
X134355771Y-99084156D01*
X134355771Y-99084156D02*
X134260533Y-99131775D01*
X134260533Y-99131775D02*
X134165295Y-99131775D01*
X134165295Y-99131775D02*
X134070057Y-99084156D01*
X134070057Y-99084156D02*
X134022438Y-99036537D01*
X134022438Y-99036537D02*
X133974819Y-98941299D01*
X133974819Y-98941299D02*
X133974819Y-98703204D01*
X133974819Y-98703204D02*
X134022438Y-98560347D01*
X133974819Y-97655585D02*
X133974819Y-98131775D01*
X133974819Y-98131775D02*
X134451009Y-98179394D01*
X134451009Y-98179394D02*
X134403390Y-98131775D01*
X134403390Y-98131775D02*
X134355771Y-98036537D01*
X134355771Y-98036537D02*
X134355771Y-97798442D01*
X134355771Y-97798442D02*
X134403390Y-97703204D01*
X134403390Y-97703204D02*
X134451009Y-97655585D01*
X134451009Y-97655585D02*
X134546247Y-97607966D01*
X134546247Y-97607966D02*
X134784342Y-97607966D01*
X134784342Y-97607966D02*
X134879580Y-97655585D01*
X134879580Y-97655585D02*
X134927200Y-97703204D01*
X134927200Y-97703204D02*
X134974819Y-97798442D01*
X134974819Y-97798442D02*
X134974819Y-98036537D01*
X134974819Y-98036537D02*
X134927200Y-98131775D01*
X134927200Y-98131775D02*
X134879580Y-98179394D01*
X134974819Y-97131775D02*
X134974819Y-96941299D01*
X134974819Y-96941299D02*
X134927200Y-96846061D01*
X134927200Y-96846061D02*
X134879580Y-96798442D01*
X134879580Y-96798442D02*
X134736723Y-96703204D01*
X134736723Y-96703204D02*
X134546247Y-96655585D01*
X134546247Y-96655585D02*
X134165295Y-96655585D01*
X134165295Y-96655585D02*
X134070057Y-96703204D01*
X134070057Y-96703204D02*
X134022438Y-96750823D01*
X134022438Y-96750823D02*
X133974819Y-96846061D01*
X133974819Y-96846061D02*
X133974819Y-97036537D01*
X133974819Y-97036537D02*
X134022438Y-97131775D01*
X134022438Y-97131775D02*
X134070057Y-97179394D01*
X134070057Y-97179394D02*
X134165295Y-97227013D01*
X134165295Y-97227013D02*
X134403390Y-97227013D01*
X134403390Y-97227013D02*
X134498628Y-97179394D01*
X134498628Y-97179394D02*
X134546247Y-97131775D01*
X134546247Y-97131775D02*
X134593866Y-97036537D01*
X134593866Y-97036537D02*
X134593866Y-96846061D01*
X134593866Y-96846061D02*
X134546247Y-96750823D01*
X134546247Y-96750823D02*
X134498628Y-96703204D01*
X134498628Y-96703204D02*
X134403390Y-96655585D01*
X133974819Y-96322251D02*
X133974819Y-95655585D01*
X133974819Y-95655585D02*
X134974819Y-96084156D01*
X134974819Y-94750823D02*
X134974819Y-95322251D01*
X134974819Y-95036537D02*
X133974819Y-95036537D01*
X133974819Y-95036537D02*
X134117676Y-95131775D01*
X134117676Y-95131775D02*
X134212914Y-95227013D01*
X134212914Y-95227013D02*
X134260533Y-95322251D01*
X126934819Y-97679394D02*
X125934819Y-97679394D01*
X125934819Y-97679394D02*
X125934819Y-97441299D01*
X125934819Y-97441299D02*
X125982438Y-97298442D01*
X125982438Y-97298442D02*
X126077676Y-97203204D01*
X126077676Y-97203204D02*
X126172914Y-97155585D01*
X126172914Y-97155585D02*
X126363390Y-97107966D01*
X126363390Y-97107966D02*
X126506247Y-97107966D01*
X126506247Y-97107966D02*
X126696723Y-97155585D01*
X126696723Y-97155585D02*
X126791961Y-97203204D01*
X126791961Y-97203204D02*
X126887200Y-97298442D01*
X126887200Y-97298442D02*
X126934819Y-97441299D01*
X126934819Y-97441299D02*
X126934819Y-97679394D01*
X126934819Y-96155585D02*
X126934819Y-96727013D01*
X126934819Y-96441299D02*
X125934819Y-96441299D01*
X125934819Y-96441299D02*
X126077676Y-96536537D01*
X126077676Y-96536537D02*
X126172914Y-96631775D01*
X126172914Y-96631775D02*
X126220533Y-96727013D01*
D12*
X141154047Y-99366570D02*
X141033095Y-99306094D01*
X141033095Y-99306094D02*
X140912142Y-99185142D01*
X140912142Y-99185142D02*
X140730714Y-99003713D01*
X140730714Y-99003713D02*
X140609761Y-98943237D01*
X140609761Y-98943237D02*
X140488809Y-98943237D01*
X140549285Y-99245618D02*
X140428333Y-99185142D01*
X140428333Y-99185142D02*
X140307380Y-99064189D01*
X140307380Y-99064189D02*
X140246904Y-98822284D01*
X140246904Y-98822284D02*
X140246904Y-98398951D01*
X140246904Y-98398951D02*
X140307380Y-98157046D01*
X140307380Y-98157046D02*
X140428333Y-98036094D01*
X140428333Y-98036094D02*
X140549285Y-97975618D01*
X140549285Y-97975618D02*
X140791190Y-97975618D01*
X140791190Y-97975618D02*
X140912142Y-98036094D01*
X140912142Y-98036094D02*
X141033095Y-98157046D01*
X141033095Y-98157046D02*
X141093571Y-98398951D01*
X141093571Y-98398951D02*
X141093571Y-98822284D01*
X141093571Y-98822284D02*
X141033095Y-99064189D01*
X141033095Y-99064189D02*
X140912142Y-99185142D01*
X140912142Y-99185142D02*
X140791190Y-99245618D01*
X140791190Y-99245618D02*
X140549285Y-99245618D01*
X141577380Y-98096570D02*
X141637856Y-98036094D01*
X141637856Y-98036094D02*
X141758809Y-97975618D01*
X141758809Y-97975618D02*
X142061190Y-97975618D01*
X142061190Y-97975618D02*
X142182142Y-98036094D01*
X142182142Y-98036094D02*
X142242618Y-98096570D01*
X142242618Y-98096570D02*
X142303095Y-98217522D01*
X142303095Y-98217522D02*
X142303095Y-98338475D01*
X142303095Y-98338475D02*
X142242618Y-98519903D01*
X142242618Y-98519903D02*
X141516904Y-99245618D01*
X141516904Y-99245618D02*
X142303095Y-99245618D01*
X141154047Y-99366570D02*
X141033095Y-99306094D01*
X141033095Y-99306094D02*
X140912142Y-99185142D01*
X140912142Y-99185142D02*
X140730714Y-99003713D01*
X140730714Y-99003713D02*
X140609761Y-98943237D01*
X140609761Y-98943237D02*
X140488809Y-98943237D01*
X140549285Y-99245618D02*
X140428333Y-99185142D01*
X140428333Y-99185142D02*
X140307380Y-99064189D01*
X140307380Y-99064189D02*
X140246904Y-98822284D01*
X140246904Y-98822284D02*
X140246904Y-98398951D01*
X140246904Y-98398951D02*
X140307380Y-98157046D01*
X140307380Y-98157046D02*
X140428333Y-98036094D01*
X140428333Y-98036094D02*
X140549285Y-97975618D01*
X140549285Y-97975618D02*
X140791190Y-97975618D01*
X140791190Y-97975618D02*
X140912142Y-98036094D01*
X140912142Y-98036094D02*
X141033095Y-98157046D01*
X141033095Y-98157046D02*
X141093571Y-98398951D01*
X141093571Y-98398951D02*
X141093571Y-98822284D01*
X141093571Y-98822284D02*
X141033095Y-99064189D01*
X141033095Y-99064189D02*
X140912142Y-99185142D01*
X140912142Y-99185142D02*
X140791190Y-99245618D01*
X140791190Y-99245618D02*
X140549285Y-99245618D01*
X141577380Y-98096570D02*
X141637856Y-98036094D01*
X141637856Y-98036094D02*
X141758809Y-97975618D01*
X141758809Y-97975618D02*
X142061190Y-97975618D01*
X142061190Y-97975618D02*
X142182142Y-98036094D01*
X142182142Y-98036094D02*
X142242618Y-98096570D01*
X142242618Y-98096570D02*
X142303095Y-98217522D01*
X142303095Y-98217522D02*
X142303095Y-98338475D01*
X142303095Y-98338475D02*
X142242618Y-98519903D01*
X142242618Y-98519903D02*
X141516904Y-99245618D01*
X141516904Y-99245618D02*
X142303095Y-99245618D01*
D10*
X177992810Y-93708819D02*
X177992810Y-92708819D01*
X179040428Y-93613580D02*
X178992809Y-93661200D01*
X178992809Y-93661200D02*
X178849952Y-93708819D01*
X178849952Y-93708819D02*
X178754714Y-93708819D01*
X178754714Y-93708819D02*
X178611857Y-93661200D01*
X178611857Y-93661200D02*
X178516619Y-93565961D01*
X178516619Y-93565961D02*
X178469000Y-93470723D01*
X178469000Y-93470723D02*
X178421381Y-93280247D01*
X178421381Y-93280247D02*
X178421381Y-93137390D01*
X178421381Y-93137390D02*
X178469000Y-92946914D01*
X178469000Y-92946914D02*
X178516619Y-92851676D01*
X178516619Y-92851676D02*
X178611857Y-92756438D01*
X178611857Y-92756438D02*
X178754714Y-92708819D01*
X178754714Y-92708819D02*
X178849952Y-92708819D01*
X178849952Y-92708819D02*
X178992809Y-92756438D01*
X178992809Y-92756438D02*
X179040428Y-92804057D01*
X179992809Y-93708819D02*
X179421381Y-93708819D01*
X179707095Y-93708819D02*
X179707095Y-92708819D01*
X179707095Y-92708819D02*
X179611857Y-92851676D01*
X179611857Y-92851676D02*
X179516619Y-92946914D01*
X179516619Y-92946914D02*
X179421381Y-92994533D01*
X171833381Y-92454819D02*
X172023857Y-92454819D01*
X172023857Y-92454819D02*
X172119095Y-92502438D01*
X172119095Y-92502438D02*
X172214333Y-92597676D01*
X172214333Y-92597676D02*
X172261952Y-92788152D01*
X172261952Y-92788152D02*
X172261952Y-93121485D01*
X172261952Y-93121485D02*
X172214333Y-93311961D01*
X172214333Y-93311961D02*
X172119095Y-93407200D01*
X172119095Y-93407200D02*
X172023857Y-93454819D01*
X172023857Y-93454819D02*
X171833381Y-93454819D01*
X171833381Y-93454819D02*
X171738143Y-93407200D01*
X171738143Y-93407200D02*
X171642905Y-93311961D01*
X171642905Y-93311961D02*
X171595286Y-93121485D01*
X171595286Y-93121485D02*
X171595286Y-92788152D01*
X171595286Y-92788152D02*
X171642905Y-92597676D01*
X171642905Y-92597676D02*
X171738143Y-92502438D01*
X171738143Y-92502438D02*
X171833381Y-92454819D01*
X172690524Y-93454819D02*
X172690524Y-92454819D01*
X172690524Y-92454819D02*
X173071476Y-92454819D01*
X173071476Y-92454819D02*
X173166714Y-92502438D01*
X173166714Y-92502438D02*
X173214333Y-92550057D01*
X173214333Y-92550057D02*
X173261952Y-92645295D01*
X173261952Y-92645295D02*
X173261952Y-92788152D01*
X173261952Y-92788152D02*
X173214333Y-92883390D01*
X173214333Y-92883390D02*
X173166714Y-92931009D01*
X173166714Y-92931009D02*
X173071476Y-92978628D01*
X173071476Y-92978628D02*
X172690524Y-92978628D01*
X173642905Y-92550057D02*
X173690524Y-92502438D01*
X173690524Y-92502438D02*
X173785762Y-92454819D01*
X173785762Y-92454819D02*
X174023857Y-92454819D01*
X174023857Y-92454819D02*
X174119095Y-92502438D01*
X174119095Y-92502438D02*
X174166714Y-92550057D01*
X174166714Y-92550057D02*
X174214333Y-92645295D01*
X174214333Y-92645295D02*
X174214333Y-92740533D01*
X174214333Y-92740533D02*
X174166714Y-92883390D01*
X174166714Y-92883390D02*
X173595286Y-93454819D01*
X173595286Y-93454819D02*
X174214333Y-93454819D01*
X174547667Y-92454819D02*
X175214333Y-92454819D01*
X175214333Y-92454819D02*
X174785762Y-93454819D01*
X134790119Y-73594094D02*
X133790119Y-73594094D01*
X133790119Y-73594094D02*
X133790119Y-73355999D01*
X133790119Y-73355999D02*
X133837738Y-73213142D01*
X133837738Y-73213142D02*
X133932976Y-73117904D01*
X133932976Y-73117904D02*
X134028214Y-73070285D01*
X134028214Y-73070285D02*
X134218690Y-73022666D01*
X134218690Y-73022666D02*
X134361547Y-73022666D01*
X134361547Y-73022666D02*
X134552023Y-73070285D01*
X134552023Y-73070285D02*
X134647261Y-73117904D01*
X134647261Y-73117904D02*
X134742500Y-73213142D01*
X134742500Y-73213142D02*
X134790119Y-73355999D01*
X134790119Y-73355999D02*
X134790119Y-73594094D01*
X133885357Y-72641713D02*
X133837738Y-72594094D01*
X133837738Y-72594094D02*
X133790119Y-72498856D01*
X133790119Y-72498856D02*
X133790119Y-72260761D01*
X133790119Y-72260761D02*
X133837738Y-72165523D01*
X133837738Y-72165523D02*
X133885357Y-72117904D01*
X133885357Y-72117904D02*
X133980595Y-72070285D01*
X133980595Y-72070285D02*
X134075833Y-72070285D01*
X134075833Y-72070285D02*
X134218690Y-72117904D01*
X134218690Y-72117904D02*
X134790119Y-72689332D01*
X134790119Y-72689332D02*
X134790119Y-72070285D01*
X126702500Y-75046475D02*
X126750119Y-74903618D01*
X126750119Y-74903618D02*
X126750119Y-74665523D01*
X126750119Y-74665523D02*
X126702500Y-74570285D01*
X126702500Y-74570285D02*
X126654880Y-74522666D01*
X126654880Y-74522666D02*
X126559642Y-74475047D01*
X126559642Y-74475047D02*
X126464404Y-74475047D01*
X126464404Y-74475047D02*
X126369166Y-74522666D01*
X126369166Y-74522666D02*
X126321547Y-74570285D01*
X126321547Y-74570285D02*
X126273928Y-74665523D01*
X126273928Y-74665523D02*
X126226309Y-74855999D01*
X126226309Y-74855999D02*
X126178690Y-74951237D01*
X126178690Y-74951237D02*
X126131071Y-74998856D01*
X126131071Y-74998856D02*
X126035833Y-75046475D01*
X126035833Y-75046475D02*
X125940595Y-75046475D01*
X125940595Y-75046475D02*
X125845357Y-74998856D01*
X125845357Y-74998856D02*
X125797738Y-74951237D01*
X125797738Y-74951237D02*
X125750119Y-74855999D01*
X125750119Y-74855999D02*
X125750119Y-74617904D01*
X125750119Y-74617904D02*
X125797738Y-74475047D01*
X125750119Y-73570285D02*
X125750119Y-74046475D01*
X125750119Y-74046475D02*
X126226309Y-74094094D01*
X126226309Y-74094094D02*
X126178690Y-74046475D01*
X126178690Y-74046475D02*
X126131071Y-73951237D01*
X126131071Y-73951237D02*
X126131071Y-73713142D01*
X126131071Y-73713142D02*
X126178690Y-73617904D01*
X126178690Y-73617904D02*
X126226309Y-73570285D01*
X126226309Y-73570285D02*
X126321547Y-73522666D01*
X126321547Y-73522666D02*
X126559642Y-73522666D01*
X126559642Y-73522666D02*
X126654880Y-73570285D01*
X126654880Y-73570285D02*
X126702500Y-73617904D01*
X126702500Y-73617904D02*
X126750119Y-73713142D01*
X126750119Y-73713142D02*
X126750119Y-73951237D01*
X126750119Y-73951237D02*
X126702500Y-74046475D01*
X126702500Y-74046475D02*
X126654880Y-74094094D01*
X126750119Y-73046475D02*
X126750119Y-72855999D01*
X126750119Y-72855999D02*
X126702500Y-72760761D01*
X126702500Y-72760761D02*
X126654880Y-72713142D01*
X126654880Y-72713142D02*
X126512023Y-72617904D01*
X126512023Y-72617904D02*
X126321547Y-72570285D01*
X126321547Y-72570285D02*
X125940595Y-72570285D01*
X125940595Y-72570285D02*
X125845357Y-72617904D01*
X125845357Y-72617904D02*
X125797738Y-72665523D01*
X125797738Y-72665523D02*
X125750119Y-72760761D01*
X125750119Y-72760761D02*
X125750119Y-72951237D01*
X125750119Y-72951237D02*
X125797738Y-73046475D01*
X125797738Y-73046475D02*
X125845357Y-73094094D01*
X125845357Y-73094094D02*
X125940595Y-73141713D01*
X125940595Y-73141713D02*
X126178690Y-73141713D01*
X126178690Y-73141713D02*
X126273928Y-73094094D01*
X126273928Y-73094094D02*
X126321547Y-73046475D01*
X126321547Y-73046475D02*
X126369166Y-72951237D01*
X126369166Y-72951237D02*
X126369166Y-72760761D01*
X126369166Y-72760761D02*
X126321547Y-72665523D01*
X126321547Y-72665523D02*
X126273928Y-72617904D01*
X126273928Y-72617904D02*
X126178690Y-72570285D01*
X125750119Y-72236951D02*
X125750119Y-71570285D01*
X125750119Y-71570285D02*
X126750119Y-71998856D01*
X126750119Y-70665523D02*
X126750119Y-71236951D01*
X126750119Y-70951237D02*
X125750119Y-70951237D01*
X125750119Y-70951237D02*
X125892976Y-71046475D01*
X125892976Y-71046475D02*
X125988214Y-71141713D01*
X125988214Y-71141713D02*
X126035833Y-71236951D01*
X134790119Y-73594094D02*
X133790119Y-73594094D01*
X133790119Y-73594094D02*
X133790119Y-73355999D01*
X133790119Y-73355999D02*
X133837738Y-73213142D01*
X133837738Y-73213142D02*
X133932976Y-73117904D01*
X133932976Y-73117904D02*
X134028214Y-73070285D01*
X134028214Y-73070285D02*
X134218690Y-73022666D01*
X134218690Y-73022666D02*
X134361547Y-73022666D01*
X134361547Y-73022666D02*
X134552023Y-73070285D01*
X134552023Y-73070285D02*
X134647261Y-73117904D01*
X134647261Y-73117904D02*
X134742500Y-73213142D01*
X134742500Y-73213142D02*
X134790119Y-73355999D01*
X134790119Y-73355999D02*
X134790119Y-73594094D01*
X133885357Y-72641713D02*
X133837738Y-72594094D01*
X133837738Y-72594094D02*
X133790119Y-72498856D01*
X133790119Y-72498856D02*
X133790119Y-72260761D01*
X133790119Y-72260761D02*
X133837738Y-72165523D01*
X133837738Y-72165523D02*
X133885357Y-72117904D01*
X133885357Y-72117904D02*
X133980595Y-72070285D01*
X133980595Y-72070285D02*
X134075833Y-72070285D01*
X134075833Y-72070285D02*
X134218690Y-72117904D01*
X134218690Y-72117904D02*
X134790119Y-72689332D01*
X134790119Y-72689332D02*
X134790119Y-72070285D01*
X154753333Y-91324819D02*
X154420000Y-90848628D01*
X154181905Y-91324819D02*
X154181905Y-90324819D01*
X154181905Y-90324819D02*
X154562857Y-90324819D01*
X154562857Y-90324819D02*
X154658095Y-90372438D01*
X154658095Y-90372438D02*
X154705714Y-90420057D01*
X154705714Y-90420057D02*
X154753333Y-90515295D01*
X154753333Y-90515295D02*
X154753333Y-90658152D01*
X154753333Y-90658152D02*
X154705714Y-90753390D01*
X154705714Y-90753390D02*
X154658095Y-90801009D01*
X154658095Y-90801009D02*
X154562857Y-90848628D01*
X154562857Y-90848628D02*
X154181905Y-90848628D01*
X155610476Y-90658152D02*
X155610476Y-91324819D01*
X155372381Y-90277200D02*
X155134286Y-90991485D01*
X155134286Y-90991485D02*
X155753333Y-90991485D01*
X141833333Y-86584819D02*
X141500000Y-86108628D01*
X141261905Y-86584819D02*
X141261905Y-85584819D01*
X141261905Y-85584819D02*
X141642857Y-85584819D01*
X141642857Y-85584819D02*
X141738095Y-85632438D01*
X141738095Y-85632438D02*
X141785714Y-85680057D01*
X141785714Y-85680057D02*
X141833333Y-85775295D01*
X141833333Y-85775295D02*
X141833333Y-85918152D01*
X141833333Y-85918152D02*
X141785714Y-86013390D01*
X141785714Y-86013390D02*
X141738095Y-86061009D01*
X141738095Y-86061009D02*
X141642857Y-86108628D01*
X141642857Y-86108628D02*
X141261905Y-86108628D01*
X142690476Y-85584819D02*
X142500000Y-85584819D01*
X142500000Y-85584819D02*
X142404762Y-85632438D01*
X142404762Y-85632438D02*
X142357143Y-85680057D01*
X142357143Y-85680057D02*
X142261905Y-85822914D01*
X142261905Y-85822914D02*
X142214286Y-86013390D01*
X142214286Y-86013390D02*
X142214286Y-86394342D01*
X142214286Y-86394342D02*
X142261905Y-86489580D01*
X142261905Y-86489580D02*
X142309524Y-86537200D01*
X142309524Y-86537200D02*
X142404762Y-86584819D01*
X142404762Y-86584819D02*
X142595238Y-86584819D01*
X142595238Y-86584819D02*
X142690476Y-86537200D01*
X142690476Y-86537200D02*
X142738095Y-86489580D01*
X142738095Y-86489580D02*
X142785714Y-86394342D01*
X142785714Y-86394342D02*
X142785714Y-86156247D01*
X142785714Y-86156247D02*
X142738095Y-86061009D01*
X142738095Y-86061009D02*
X142690476Y-86013390D01*
X142690476Y-86013390D02*
X142595238Y-85965771D01*
X142595238Y-85965771D02*
X142404762Y-85965771D01*
X142404762Y-85965771D02*
X142309524Y-86013390D01*
X142309524Y-86013390D02*
X142261905Y-86061009D01*
X142261905Y-86061009D02*
X142214286Y-86156247D01*
X176878233Y-63609580D02*
X176830614Y-63657200D01*
X176830614Y-63657200D02*
X176687757Y-63704819D01*
X176687757Y-63704819D02*
X176592519Y-63704819D01*
X176592519Y-63704819D02*
X176449662Y-63657200D01*
X176449662Y-63657200D02*
X176354424Y-63561961D01*
X176354424Y-63561961D02*
X176306805Y-63466723D01*
X176306805Y-63466723D02*
X176259186Y-63276247D01*
X176259186Y-63276247D02*
X176259186Y-63133390D01*
X176259186Y-63133390D02*
X176306805Y-62942914D01*
X176306805Y-62942914D02*
X176354424Y-62847676D01*
X176354424Y-62847676D02*
X176449662Y-62752438D01*
X176449662Y-62752438D02*
X176592519Y-62704819D01*
X176592519Y-62704819D02*
X176687757Y-62704819D01*
X176687757Y-62704819D02*
X176830614Y-62752438D01*
X176830614Y-62752438D02*
X176878233Y-62800057D01*
X177259186Y-62800057D02*
X177306805Y-62752438D01*
X177306805Y-62752438D02*
X177402043Y-62704819D01*
X177402043Y-62704819D02*
X177640138Y-62704819D01*
X177640138Y-62704819D02*
X177735376Y-62752438D01*
X177735376Y-62752438D02*
X177782995Y-62800057D01*
X177782995Y-62800057D02*
X177830614Y-62895295D01*
X177830614Y-62895295D02*
X177830614Y-62990533D01*
X177830614Y-62990533D02*
X177782995Y-63133390D01*
X177782995Y-63133390D02*
X177211567Y-63704819D01*
X177211567Y-63704819D02*
X177830614Y-63704819D01*
X151808095Y-92054819D02*
X151808095Y-92864342D01*
X151808095Y-92864342D02*
X151855714Y-92959580D01*
X151855714Y-92959580D02*
X151903333Y-93007200D01*
X151903333Y-93007200D02*
X151998571Y-93054819D01*
X151998571Y-93054819D02*
X152189047Y-93054819D01*
X152189047Y-93054819D02*
X152284285Y-93007200D01*
X152284285Y-93007200D02*
X152331904Y-92959580D01*
X152331904Y-92959580D02*
X152379523Y-92864342D01*
X152379523Y-92864342D02*
X152379523Y-92054819D01*
X152808095Y-92150057D02*
X152855714Y-92102438D01*
X152855714Y-92102438D02*
X152950952Y-92054819D01*
X152950952Y-92054819D02*
X153189047Y-92054819D01*
X153189047Y-92054819D02*
X153284285Y-92102438D01*
X153284285Y-92102438D02*
X153331904Y-92150057D01*
X153331904Y-92150057D02*
X153379523Y-92245295D01*
X153379523Y-92245295D02*
X153379523Y-92340533D01*
X153379523Y-92340533D02*
X153331904Y-92483390D01*
X153331904Y-92483390D02*
X152760476Y-93054819D01*
X152760476Y-93054819D02*
X153379523Y-93054819D01*
X141819333Y-82014219D02*
X141486000Y-81538028D01*
X141247905Y-82014219D02*
X141247905Y-81014219D01*
X141247905Y-81014219D02*
X141628857Y-81014219D01*
X141628857Y-81014219D02*
X141724095Y-81061838D01*
X141724095Y-81061838D02*
X141771714Y-81109457D01*
X141771714Y-81109457D02*
X141819333Y-81204695D01*
X141819333Y-81204695D02*
X141819333Y-81347552D01*
X141819333Y-81347552D02*
X141771714Y-81442790D01*
X141771714Y-81442790D02*
X141724095Y-81490409D01*
X141724095Y-81490409D02*
X141628857Y-81538028D01*
X141628857Y-81538028D02*
X141247905Y-81538028D01*
X142771714Y-82014219D02*
X142200286Y-82014219D01*
X142486000Y-82014219D02*
X142486000Y-81014219D01*
X142486000Y-81014219D02*
X142390762Y-81157076D01*
X142390762Y-81157076D02*
X142295524Y-81252314D01*
X142295524Y-81252314D02*
X142200286Y-81299933D01*
D12*
X141104047Y-71771570D02*
X140983095Y-71711094D01*
X140983095Y-71711094D02*
X140862142Y-71590142D01*
X140862142Y-71590142D02*
X140680714Y-71408713D01*
X140680714Y-71408713D02*
X140559761Y-71348237D01*
X140559761Y-71348237D02*
X140438809Y-71348237D01*
X140499285Y-71650618D02*
X140378333Y-71590142D01*
X140378333Y-71590142D02*
X140257380Y-71469189D01*
X140257380Y-71469189D02*
X140196904Y-71227284D01*
X140196904Y-71227284D02*
X140196904Y-70803951D01*
X140196904Y-70803951D02*
X140257380Y-70562046D01*
X140257380Y-70562046D02*
X140378333Y-70441094D01*
X140378333Y-70441094D02*
X140499285Y-70380618D01*
X140499285Y-70380618D02*
X140741190Y-70380618D01*
X140741190Y-70380618D02*
X140862142Y-70441094D01*
X140862142Y-70441094D02*
X140983095Y-70562046D01*
X140983095Y-70562046D02*
X141043571Y-70803951D01*
X141043571Y-70803951D02*
X141043571Y-71227284D01*
X141043571Y-71227284D02*
X140983095Y-71469189D01*
X140983095Y-71469189D02*
X140862142Y-71590142D01*
X140862142Y-71590142D02*
X140741190Y-71650618D01*
X140741190Y-71650618D02*
X140499285Y-71650618D01*
X142253095Y-71650618D02*
X141527380Y-71650618D01*
X141890237Y-71650618D02*
X141890237Y-70380618D01*
X141890237Y-70380618D02*
X141769285Y-70562046D01*
X141769285Y-70562046D02*
X141648333Y-70682999D01*
X141648333Y-70682999D02*
X141527380Y-70743475D01*
X141104047Y-71771570D02*
X140983095Y-71711094D01*
X140983095Y-71711094D02*
X140862142Y-71590142D01*
X140862142Y-71590142D02*
X140680714Y-71408713D01*
X140680714Y-71408713D02*
X140559761Y-71348237D01*
X140559761Y-71348237D02*
X140438809Y-71348237D01*
X140499285Y-71650618D02*
X140378333Y-71590142D01*
X140378333Y-71590142D02*
X140257380Y-71469189D01*
X140257380Y-71469189D02*
X140196904Y-71227284D01*
X140196904Y-71227284D02*
X140196904Y-70803951D01*
X140196904Y-70803951D02*
X140257380Y-70562046D01*
X140257380Y-70562046D02*
X140378333Y-70441094D01*
X140378333Y-70441094D02*
X140499285Y-70380618D01*
X140499285Y-70380618D02*
X140741190Y-70380618D01*
X140741190Y-70380618D02*
X140862142Y-70441094D01*
X140862142Y-70441094D02*
X140983095Y-70562046D01*
X140983095Y-70562046D02*
X141043571Y-70803951D01*
X141043571Y-70803951D02*
X141043571Y-71227284D01*
X141043571Y-71227284D02*
X140983095Y-71469189D01*
X140983095Y-71469189D02*
X140862142Y-71590142D01*
X140862142Y-71590142D02*
X140741190Y-71650618D01*
X140741190Y-71650618D02*
X140499285Y-71650618D01*
X142253095Y-71650618D02*
X141527380Y-71650618D01*
X141890237Y-71650618D02*
X141890237Y-70380618D01*
X141890237Y-70380618D02*
X141769285Y-70562046D01*
X141769285Y-70562046D02*
X141648333Y-70682999D01*
X141648333Y-70682999D02*
X141527380Y-70743475D01*
D13*
%TO.C,C1*%
X166445225Y-65525000D02*
X166945225Y-65525000D01*
X166695225Y-65275000D02*
X166695225Y-65775000D01*
X169250000Y-64420000D02*
X169250000Y-69580000D01*
X169290000Y-64420000D02*
X169290000Y-69580000D01*
X169330000Y-64421000D02*
X169330000Y-69579000D01*
X169370000Y-64422000D02*
X169370000Y-69578000D01*
X169410000Y-64424000D02*
X169410000Y-69576000D01*
X169450000Y-64427000D02*
X169450000Y-69573000D01*
X169490000Y-64431000D02*
X169490000Y-65960000D01*
X169490000Y-68040000D02*
X169490000Y-69569000D01*
X169530000Y-64435000D02*
X169530000Y-65960000D01*
X169530000Y-68040000D02*
X169530000Y-69565000D01*
X169570000Y-64439000D02*
X169570000Y-65960000D01*
X169570000Y-68040000D02*
X169570000Y-69561000D01*
X169610000Y-64444000D02*
X169610000Y-65960000D01*
X169610000Y-68040000D02*
X169610000Y-69556000D01*
X169650000Y-64450000D02*
X169650000Y-65960000D01*
X169650000Y-68040000D02*
X169650000Y-69550000D01*
X169690000Y-64457000D02*
X169690000Y-65960000D01*
X169690000Y-68040000D02*
X169690000Y-69543000D01*
X169730000Y-64464000D02*
X169730000Y-65960000D01*
X169730000Y-68040000D02*
X169730000Y-69536000D01*
X169770000Y-64472000D02*
X169770000Y-65960000D01*
X169770000Y-68040000D02*
X169770000Y-69528000D01*
X169810000Y-64480000D02*
X169810000Y-65960000D01*
X169810000Y-68040000D02*
X169810000Y-69520000D01*
X169850000Y-64489000D02*
X169850000Y-65960000D01*
X169850000Y-68040000D02*
X169850000Y-69511000D01*
X169890000Y-64499000D02*
X169890000Y-65960000D01*
X169890000Y-68040000D02*
X169890000Y-69501000D01*
X169930000Y-64509000D02*
X169930000Y-65960000D01*
X169930000Y-68040000D02*
X169930000Y-69491000D01*
X169971000Y-64520000D02*
X169971000Y-65960000D01*
X169971000Y-68040000D02*
X169971000Y-69480000D01*
X170011000Y-64532000D02*
X170011000Y-65960000D01*
X170011000Y-68040000D02*
X170011000Y-69468000D01*
X170051000Y-64545000D02*
X170051000Y-65960000D01*
X170051000Y-68040000D02*
X170051000Y-69455000D01*
X170091000Y-64558000D02*
X170091000Y-65960000D01*
X170091000Y-68040000D02*
X170091000Y-69442000D01*
X170131000Y-64572000D02*
X170131000Y-65960000D01*
X170131000Y-68040000D02*
X170131000Y-69428000D01*
X170171000Y-64586000D02*
X170171000Y-65960000D01*
X170171000Y-68040000D02*
X170171000Y-69414000D01*
X170211000Y-64602000D02*
X170211000Y-65960000D01*
X170211000Y-68040000D02*
X170211000Y-69398000D01*
X170251000Y-64618000D02*
X170251000Y-65960000D01*
X170251000Y-68040000D02*
X170251000Y-69382000D01*
X170291000Y-64635000D02*
X170291000Y-65960000D01*
X170291000Y-68040000D02*
X170291000Y-69365000D01*
X170331000Y-64652000D02*
X170331000Y-65960000D01*
X170331000Y-68040000D02*
X170331000Y-69348000D01*
X170371000Y-64671000D02*
X170371000Y-65960000D01*
X170371000Y-68040000D02*
X170371000Y-69329000D01*
X170411000Y-64690000D02*
X170411000Y-65960000D01*
X170411000Y-68040000D02*
X170411000Y-69310000D01*
X170451000Y-64710000D02*
X170451000Y-65960000D01*
X170451000Y-68040000D02*
X170451000Y-69290000D01*
X170491000Y-64732000D02*
X170491000Y-65960000D01*
X170491000Y-68040000D02*
X170491000Y-69268000D01*
X170531000Y-64753000D02*
X170531000Y-65960000D01*
X170531000Y-68040000D02*
X170531000Y-69247000D01*
X170571000Y-64776000D02*
X170571000Y-65960000D01*
X170571000Y-68040000D02*
X170571000Y-69224000D01*
X170611000Y-64800000D02*
X170611000Y-65960000D01*
X170611000Y-68040000D02*
X170611000Y-69200000D01*
X170651000Y-64825000D02*
X170651000Y-65960000D01*
X170651000Y-68040000D02*
X170651000Y-69175000D01*
X170691000Y-64851000D02*
X170691000Y-65960000D01*
X170691000Y-68040000D02*
X170691000Y-69149000D01*
X170731000Y-64878000D02*
X170731000Y-65960000D01*
X170731000Y-68040000D02*
X170731000Y-69122000D01*
X170771000Y-64905000D02*
X170771000Y-65960000D01*
X170771000Y-68040000D02*
X170771000Y-69095000D01*
X170811000Y-64935000D02*
X170811000Y-65960000D01*
X170811000Y-68040000D02*
X170811000Y-69065000D01*
X170851000Y-64965000D02*
X170851000Y-65960000D01*
X170851000Y-68040000D02*
X170851000Y-69035000D01*
X170891000Y-64996000D02*
X170891000Y-65960000D01*
X170891000Y-68040000D02*
X170891000Y-69004000D01*
X170931000Y-65029000D02*
X170931000Y-65960000D01*
X170931000Y-68040000D02*
X170931000Y-68971000D01*
X170971000Y-65063000D02*
X170971000Y-65960000D01*
X170971000Y-68040000D02*
X170971000Y-68937000D01*
X171011000Y-65099000D02*
X171011000Y-65960000D01*
X171011000Y-68040000D02*
X171011000Y-68901000D01*
X171051000Y-65136000D02*
X171051000Y-65960000D01*
X171051000Y-68040000D02*
X171051000Y-68864000D01*
X171091000Y-65174000D02*
X171091000Y-65960000D01*
X171091000Y-68040000D02*
X171091000Y-68826000D01*
X171131000Y-65215000D02*
X171131000Y-65960000D01*
X171131000Y-68040000D02*
X171131000Y-68785000D01*
X171171000Y-65257000D02*
X171171000Y-65960000D01*
X171171000Y-68040000D02*
X171171000Y-68743000D01*
X171211000Y-65301000D02*
X171211000Y-65960000D01*
X171211000Y-68040000D02*
X171211000Y-68699000D01*
X171251000Y-65347000D02*
X171251000Y-65960000D01*
X171251000Y-68040000D02*
X171251000Y-68653000D01*
X171291000Y-65395000D02*
X171291000Y-65960000D01*
X171291000Y-68040000D02*
X171291000Y-68605000D01*
X171331000Y-65446000D02*
X171331000Y-65960000D01*
X171331000Y-68040000D02*
X171331000Y-68554000D01*
X171371000Y-65500000D02*
X171371000Y-65960000D01*
X171371000Y-68040000D02*
X171371000Y-68500000D01*
X171411000Y-65557000D02*
X171411000Y-65960000D01*
X171411000Y-68040000D02*
X171411000Y-68443000D01*
X171451000Y-65617000D02*
X171451000Y-65960000D01*
X171451000Y-68040000D02*
X171451000Y-68383000D01*
X171491000Y-65681000D02*
X171491000Y-65960000D01*
X171491000Y-68040000D02*
X171491000Y-68319000D01*
X171531000Y-65749000D02*
X171531000Y-65960000D01*
X171531000Y-68040000D02*
X171531000Y-68251000D01*
X171571000Y-65822000D02*
X171571000Y-68178000D01*
X171611000Y-65902000D02*
X171611000Y-68098000D01*
X171651000Y-65989000D02*
X171651000Y-68011000D01*
X171691000Y-66085000D02*
X171691000Y-67915000D01*
X171731000Y-66195000D02*
X171731000Y-67805000D01*
X171771000Y-66323000D02*
X171771000Y-67677000D01*
X171811000Y-66482000D02*
X171811000Y-67518000D01*
X171851000Y-66716000D02*
X171851000Y-67284000D01*
X171870000Y-67000000D02*
G75*
G02*
X166630000Y-67000000I-2620000J0D01*
G01*
X166630000Y-67000000D02*
G75*
G02*
X171870000Y-67000000I2620000J0D01*
G01*
%TO.C,R8*%
X169130000Y-75058700D02*
X169130000Y-81598700D01*
X169130000Y-81598700D02*
X171870000Y-81598700D01*
X170500000Y-74288700D02*
X170500000Y-75058700D01*
X170500000Y-82368700D02*
X170500000Y-81598700D01*
X171870000Y-75058700D02*
X169130000Y-75058700D01*
X171870000Y-81598700D02*
X171870000Y-75058700D01*
%TO.C,R3*%
X162130000Y-75230000D02*
X162130000Y-81770000D01*
X162130000Y-81770000D02*
X164870000Y-81770000D01*
X163500000Y-74460000D02*
X163500000Y-75230000D01*
X163500000Y-82540000D02*
X163500000Y-81770000D01*
X164870000Y-75230000D02*
X162130000Y-75230000D01*
X164870000Y-81770000D02*
X164870000Y-75230000D01*
%TO.C,R7*%
X162130000Y-89901300D02*
X162130000Y-96441300D01*
X162130000Y-96441300D02*
X164870000Y-96441300D01*
X163500000Y-89131300D02*
X163500000Y-89901300D01*
X163500000Y-97211300D02*
X163500000Y-96441300D01*
X164870000Y-89901300D02*
X162130000Y-89901300D01*
X164870000Y-96441300D02*
X164870000Y-89901300D01*
%TO.C,U1*%
X152570000Y-70690000D02*
X150620000Y-70690000D01*
X152570000Y-70690000D02*
X154520000Y-70690000D01*
X152570000Y-75810000D02*
X150620000Y-75810000D01*
X152570000Y-75810000D02*
X154520000Y-75810000D01*
X149870000Y-70785000D02*
X149630000Y-70455000D01*
X150110000Y-70455000D01*
X149870000Y-70785000D01*
G36*
X149870000Y-70785000D02*
G01*
X149630000Y-70455000D01*
X150110000Y-70455000D01*
X149870000Y-70785000D01*
G37*
%TO.C,R2*%
X130630000Y-81730000D02*
X130630000Y-88270000D01*
X130630000Y-88270000D02*
X133370000Y-88270000D01*
X132000000Y-80960000D02*
X132000000Y-81730000D01*
X132000000Y-89040000D02*
X132000000Y-88270000D01*
X133370000Y-81730000D02*
X130630000Y-81730000D01*
X133370000Y-88270000D02*
X133370000Y-81730000D01*
%TO.C,R5*%
X150960000Y-81500000D02*
X151730000Y-81500000D01*
X151730000Y-80130000D02*
X151730000Y-82870000D01*
X151730000Y-82870000D02*
X158270000Y-82870000D01*
X158270000Y-80130000D02*
X151730000Y-80130000D01*
X158270000Y-82870000D02*
X158270000Y-80130000D01*
X159040000Y-81500000D02*
X158270000Y-81500000D01*
%TO.C,J3*%
X149896600Y-105622400D02*
X149896600Y-104292400D01*
X151226600Y-105622400D02*
X149896600Y-105622400D01*
X152496600Y-102962400D02*
X155096600Y-102962400D01*
X152496600Y-105622400D02*
X152496600Y-102962400D01*
X152496600Y-105622400D02*
X155096600Y-105622400D01*
X155096600Y-105622400D02*
X155096600Y-102962400D01*
D12*
%TO.C,J1*%
X178662500Y-81325000D02*
X178662500Y-71675000D01*
X200462500Y-71675000D02*
X184712500Y-71675000D01*
X200462500Y-81325000D02*
X184712500Y-81325000D01*
X200462500Y-81325000D02*
X200462500Y-71675000D01*
D13*
%TO.C,D1*%
X127015552Y-99435799D02*
X128005501Y-100425748D01*
X127927719Y-98523631D02*
X127015552Y-99435799D01*
X128005501Y-100425748D02*
X128917669Y-99513581D01*
X127927719Y-98523631D02*
G75*
G02*
X128917669Y-99513581I2572281J1582331D01*
G01*
D11*
%TO.C,Q2*%
X137775000Y-93551300D02*
X139325000Y-93551300D01*
X139675000Y-93721300D02*
X142875000Y-93721300D01*
X139675000Y-103621300D02*
X139675000Y-93721300D01*
X142875000Y-93721300D02*
X142875000Y-103621300D01*
X142875000Y-103621300D02*
X139675000Y-103621300D01*
D14*
%TO.C,IC1*%
X167920000Y-95921000D02*
X167920000Y-90079000D01*
X167920000Y-95921000D02*
X178080000Y-95921000D01*
X178080000Y-90079000D02*
X167920000Y-90079000D01*
X178080000Y-90079000D02*
X178080000Y-91984000D01*
X178080000Y-95921000D02*
X178080000Y-94016000D01*
X178080000Y-94016000D02*
G75*
G02*
X178080000Y-91984000I0J1016000D01*
G01*
D13*
%TO.C,D2*%
X132809799Y-69371552D02*
X131897631Y-70283719D01*
X132887581Y-71273669D02*
X133799748Y-70361501D01*
X133799748Y-70361501D02*
X132809799Y-69371552D01*
X132887581Y-71273669D02*
G75*
G02*
X131897631Y-70283719I-2572281J-1582331D01*
G01*
%TO.C,R4*%
X150880000Y-88500000D02*
X151650000Y-88500000D01*
X151650000Y-87130000D02*
X151650000Y-89870000D01*
X151650000Y-89870000D02*
X158190000Y-89870000D01*
X158190000Y-87130000D02*
X151650000Y-87130000D01*
X158190000Y-89870000D02*
X158190000Y-87130000D01*
X158960000Y-88500000D02*
X158190000Y-88500000D01*
%TO.C,R6*%
X137960000Y-88500000D02*
X138730000Y-88500000D01*
X138730000Y-87130000D02*
X138730000Y-89870000D01*
X138730000Y-89870000D02*
X145270000Y-89870000D01*
X145270000Y-87130000D02*
X138730000Y-87130000D01*
X145270000Y-89870000D02*
X145270000Y-87130000D01*
X146040000Y-88500000D02*
X145270000Y-88500000D01*
%TO.C,J5*%
X148630000Y-66330000D02*
X148630000Y-65000000D01*
X149960000Y-66330000D02*
X148630000Y-66330000D01*
X151230000Y-63670000D02*
X153830000Y-63670000D01*
X151230000Y-66330000D02*
X151230000Y-63670000D01*
X151230000Y-66330000D02*
X153830000Y-66330000D01*
X153830000Y-66330000D02*
X153830000Y-63670000D01*
%TO.C,C2*%
X174240125Y-65525000D02*
X174740125Y-65525000D01*
X174490125Y-65275000D02*
X174490125Y-65775000D01*
X177044900Y-64420000D02*
X177044900Y-69580000D01*
X177084900Y-64420000D02*
X177084900Y-69580000D01*
X177124900Y-64421000D02*
X177124900Y-69579000D01*
X177164900Y-64422000D02*
X177164900Y-69578000D01*
X177204900Y-64424000D02*
X177204900Y-69576000D01*
X177244900Y-64427000D02*
X177244900Y-69573000D01*
X177284900Y-64431000D02*
X177284900Y-65960000D01*
X177284900Y-68040000D02*
X177284900Y-69569000D01*
X177324900Y-64435000D02*
X177324900Y-65960000D01*
X177324900Y-68040000D02*
X177324900Y-69565000D01*
X177364900Y-64439000D02*
X177364900Y-65960000D01*
X177364900Y-68040000D02*
X177364900Y-69561000D01*
X177404900Y-64444000D02*
X177404900Y-65960000D01*
X177404900Y-68040000D02*
X177404900Y-69556000D01*
X177444900Y-64450000D02*
X177444900Y-65960000D01*
X177444900Y-68040000D02*
X177444900Y-69550000D01*
X177484900Y-64457000D02*
X177484900Y-65960000D01*
X177484900Y-68040000D02*
X177484900Y-69543000D01*
X177524900Y-64464000D02*
X177524900Y-65960000D01*
X177524900Y-68040000D02*
X177524900Y-69536000D01*
X177564900Y-64472000D02*
X177564900Y-65960000D01*
X177564900Y-68040000D02*
X177564900Y-69528000D01*
X177604900Y-64480000D02*
X177604900Y-65960000D01*
X177604900Y-68040000D02*
X177604900Y-69520000D01*
X177644900Y-64489000D02*
X177644900Y-65960000D01*
X177644900Y-68040000D02*
X177644900Y-69511000D01*
X177684900Y-64499000D02*
X177684900Y-65960000D01*
X177684900Y-68040000D02*
X177684900Y-69501000D01*
X177724900Y-64509000D02*
X177724900Y-65960000D01*
X177724900Y-68040000D02*
X177724900Y-69491000D01*
X177765900Y-64520000D02*
X177765900Y-65960000D01*
X177765900Y-68040000D02*
X177765900Y-69480000D01*
X177805900Y-64532000D02*
X177805900Y-65960000D01*
X177805900Y-68040000D02*
X177805900Y-69468000D01*
X177845900Y-64545000D02*
X177845900Y-65960000D01*
X177845900Y-68040000D02*
X177845900Y-69455000D01*
X177885900Y-64558000D02*
X177885900Y-65960000D01*
X177885900Y-68040000D02*
X177885900Y-69442000D01*
X177925900Y-64572000D02*
X177925900Y-65960000D01*
X177925900Y-68040000D02*
X177925900Y-69428000D01*
X177965900Y-64586000D02*
X177965900Y-65960000D01*
X177965900Y-68040000D02*
X177965900Y-69414000D01*
X178005900Y-64602000D02*
X178005900Y-65960000D01*
X178005900Y-68040000D02*
X178005900Y-69398000D01*
X178045900Y-64618000D02*
X178045900Y-65960000D01*
X178045900Y-68040000D02*
X178045900Y-69382000D01*
X178085900Y-64635000D02*
X178085900Y-65960000D01*
X178085900Y-68040000D02*
X178085900Y-69365000D01*
X178125900Y-64652000D02*
X178125900Y-65960000D01*
X178125900Y-68040000D02*
X178125900Y-69348000D01*
X178165900Y-64671000D02*
X178165900Y-65960000D01*
X178165900Y-68040000D02*
X178165900Y-69329000D01*
X178205900Y-64690000D02*
X178205900Y-65960000D01*
X178205900Y-68040000D02*
X178205900Y-69310000D01*
X178245900Y-64710000D02*
X178245900Y-65960000D01*
X178245900Y-68040000D02*
X178245900Y-69290000D01*
X178285900Y-64732000D02*
X178285900Y-65960000D01*
X178285900Y-68040000D02*
X178285900Y-69268000D01*
X178325900Y-64753000D02*
X178325900Y-65960000D01*
X178325900Y-68040000D02*
X178325900Y-69247000D01*
X178365900Y-64776000D02*
X178365900Y-65960000D01*
X178365900Y-68040000D02*
X178365900Y-69224000D01*
X178405900Y-64800000D02*
X178405900Y-65960000D01*
X178405900Y-68040000D02*
X178405900Y-69200000D01*
X178445900Y-64825000D02*
X178445900Y-65960000D01*
X178445900Y-68040000D02*
X178445900Y-69175000D01*
X178485900Y-64851000D02*
X178485900Y-65960000D01*
X178485900Y-68040000D02*
X178485900Y-69149000D01*
X178525900Y-64878000D02*
X178525900Y-65960000D01*
X178525900Y-68040000D02*
X178525900Y-69122000D01*
X178565900Y-64905000D02*
X178565900Y-65960000D01*
X178565900Y-68040000D02*
X178565900Y-69095000D01*
X178605900Y-64935000D02*
X178605900Y-65960000D01*
X178605900Y-68040000D02*
X178605900Y-69065000D01*
X178645900Y-64965000D02*
X178645900Y-65960000D01*
X178645900Y-68040000D02*
X178645900Y-69035000D01*
X178685900Y-64996000D02*
X178685900Y-65960000D01*
X178685900Y-68040000D02*
X178685900Y-69004000D01*
X178725900Y-65029000D02*
X178725900Y-65960000D01*
X178725900Y-68040000D02*
X178725900Y-68971000D01*
X178765900Y-65063000D02*
X178765900Y-65960000D01*
X178765900Y-68040000D02*
X178765900Y-68937000D01*
X178805900Y-65099000D02*
X178805900Y-65960000D01*
X178805900Y-68040000D02*
X178805900Y-68901000D01*
X178845900Y-65136000D02*
X178845900Y-65960000D01*
X178845900Y-68040000D02*
X178845900Y-68864000D01*
X178885900Y-65174000D02*
X178885900Y-65960000D01*
X178885900Y-68040000D02*
X178885900Y-68826000D01*
X178925900Y-65215000D02*
X178925900Y-65960000D01*
X178925900Y-68040000D02*
X178925900Y-68785000D01*
X178965900Y-65257000D02*
X178965900Y-65960000D01*
X178965900Y-68040000D02*
X178965900Y-68743000D01*
X179005900Y-65301000D02*
X179005900Y-65960000D01*
X179005900Y-68040000D02*
X179005900Y-68699000D01*
X179045900Y-65347000D02*
X179045900Y-65960000D01*
X179045900Y-68040000D02*
X179045900Y-68653000D01*
X179085900Y-65395000D02*
X179085900Y-65960000D01*
X179085900Y-68040000D02*
X179085900Y-68605000D01*
X179125900Y-65446000D02*
X179125900Y-65960000D01*
X179125900Y-68040000D02*
X179125900Y-68554000D01*
X179165900Y-65500000D02*
X179165900Y-65960000D01*
X179165900Y-68040000D02*
X179165900Y-68500000D01*
X179205900Y-65557000D02*
X179205900Y-65960000D01*
X179205900Y-68040000D02*
X179205900Y-68443000D01*
X179245900Y-65617000D02*
X179245900Y-65960000D01*
X179245900Y-68040000D02*
X179245900Y-68383000D01*
X179285900Y-65681000D02*
X179285900Y-65960000D01*
X179285900Y-68040000D02*
X179285900Y-68319000D01*
X179325900Y-65749000D02*
X179325900Y-65960000D01*
X179325900Y-68040000D02*
X179325900Y-68251000D01*
X179365900Y-65822000D02*
X179365900Y-68178000D01*
X179405900Y-65902000D02*
X179405900Y-68098000D01*
X179445900Y-65989000D02*
X179445900Y-68011000D01*
X179485900Y-66085000D02*
X179485900Y-67915000D01*
X179525900Y-66195000D02*
X179525900Y-67805000D01*
X179565900Y-66323000D02*
X179565900Y-67677000D01*
X179605900Y-66482000D02*
X179605900Y-67518000D01*
X179645900Y-66716000D02*
X179645900Y-67284000D01*
X179664900Y-67000000D02*
G75*
G02*
X174424900Y-67000000I-2620000J0D01*
G01*
X174424900Y-67000000D02*
G75*
G02*
X179664900Y-67000000I2620000J0D01*
G01*
%TO.C,U2*%
X152570000Y-93440000D02*
X150620000Y-93440000D01*
X152570000Y-93440000D02*
X154520000Y-93440000D01*
X152570000Y-98560000D02*
X150620000Y-98560000D01*
X152570000Y-98560000D02*
X154520000Y-98560000D01*
X149870000Y-93535000D02*
X149630000Y-93205000D01*
X150110000Y-93205000D01*
X149870000Y-93535000D01*
G36*
X149870000Y-93535000D02*
G01*
X149630000Y-93205000D01*
X150110000Y-93205000D01*
X149870000Y-93535000D01*
G37*
%TO.C,R1*%
X137928800Y-81500000D02*
X138698800Y-81500000D01*
X138698800Y-80130000D02*
X138698800Y-82870000D01*
X138698800Y-82870000D02*
X145238800Y-82870000D01*
X145238800Y-80130000D02*
X138698800Y-80130000D01*
X145238800Y-82870000D02*
X145238800Y-80130000D01*
X146008800Y-81500000D02*
X145238800Y-81500000D01*
D11*
%TO.C,Q1*%
X137725000Y-65956300D02*
X139275000Y-65956300D01*
X139625000Y-66126300D02*
X142825000Y-66126300D01*
X139625000Y-76026300D02*
X139625000Y-66126300D01*
X142825000Y-66126300D02*
X142825000Y-76026300D01*
X142825000Y-76026300D02*
X139625000Y-76026300D01*
%TD*%
M02*
