%TF.GenerationSoftware,KiCad,Pcbnew,8.0.8*%
%TF.CreationDate,2025-02-03T10:15:12-05:00*%
%TF.ProjectId,Balanced Polarimeter,42616c61-6e63-4656-9420-506f6c617269,rev?*%
%TF.SameCoordinates,Original*%
%TF.FileFunction,Copper,L1,Top*%
%TF.FilePolarity,Positive*%
%FSLAX46Y46*%
G04 Gerber Fmt 4.6, Leading zero omitted, Abs format (unit mm)*
G04 Created by KiCad (PCBNEW 8.0.8) date 2025-02-03 10:15:12*
%MOMM*%
%LPD*%
G01*
G04 APERTURE LIST*
G04 Aperture macros list*
%AMRoundRect*
0 Rectangle with rounded corners*
0 $1 Rounding radius*
0 $2 $3 $4 $5 $6 $7 $8 $9 X,Y pos of 4 corners*
0 Add a 4 corners polygon primitive as box body*
4,1,4,$2,$3,$4,$5,$6,$7,$8,$9,$2,$3,0*
0 Add four circle primitives for the rounded corners*
1,1,$1+$1,$2,$3*
1,1,$1+$1,$4,$5*
1,1,$1+$1,$6,$7*
1,1,$1+$1,$8,$9*
0 Add four rect primitives between the rounded corners*
20,1,$1+$1,$2,$3,$4,$5,0*
20,1,$1+$1,$4,$5,$6,$7,0*
20,1,$1+$1,$6,$7,$8,$9,0*
20,1,$1+$1,$8,$9,$2,$3,0*%
G04 Aperture macros list end*
%TA.AperFunction,ComponentPad*%
%ADD10C,1.600000*%
%TD*%
%TA.AperFunction,ComponentPad*%
%ADD11O,1.600000X1.600000*%
%TD*%
%TA.AperFunction,SMDPad,CuDef*%
%ADD12RoundRect,0.150000X-0.825000X-0.150000X0.825000X-0.150000X0.825000X0.150000X-0.825000X0.150000X0*%
%TD*%
%TA.AperFunction,HeatsinkPad*%
%ADD13R,2.290000X3.000000*%
%TD*%
%TA.AperFunction,ComponentPad*%
%ADD14R,0.850000X0.850000*%
%TD*%
%TA.AperFunction,ComponentPad*%
%ADD15O,0.850000X0.850000*%
%TD*%
%TA.AperFunction,ComponentPad*%
%ADD16C,2.800000*%
%TD*%
%TA.AperFunction,ComponentPad*%
%ADD17C,1.550000*%
%TD*%
%TA.AperFunction,ComponentPad*%
%ADD18O,1.200000X1.600000*%
%TD*%
%TA.AperFunction,ComponentPad*%
%ADD19C,1.200000*%
%TD*%
%TA.AperFunction,SMDPad,CuDef*%
%ADD20R,1.550000X0.650000*%
%TD*%
%TA.AperFunction,ComponentPad*%
%ADD21O,1.320800X2.641600*%
%TD*%
%TA.AperFunction,ViaPad*%
%ADD22C,0.600000*%
%TD*%
%TA.AperFunction,Conductor*%
%ADD23C,0.200000*%
%TD*%
G04 APERTURE END LIST*
D10*
%TO.P,R8,1*%
%TO.N,V_out*%
X170500000Y-81580000D03*
D11*
%TO.P,R8,2*%
%TO.N,Net-(IC1-Pad2)*%
X170500000Y-71420000D03*
%TD*%
D10*
%TO.P,R3,1*%
%TO.N,Net-(R3-Pad1)*%
X163500000Y-81751300D03*
D11*
%TO.P,R3,2*%
%TO.N,Net-(U1--)*%
X163500000Y-71591300D03*
%TD*%
D10*
%TO.P,R7,1*%
%TO.N,Net-(R4-Pad1)*%
X163500000Y-88091300D03*
D11*
%TO.P,R7,2*%
%TO.N,Net-(IC1-Pad2)*%
X163500000Y-98251300D03*
%TD*%
D12*
%TO.P,U1,1*%
%TO.N,N/C*%
X150455000Y-71016300D03*
%TO.P,U1,2,-*%
%TO.N,Net-(U1--)*%
X150455000Y-72286300D03*
%TO.P,U1,3,+*%
%TO.N,Net-(Q1-COLLECTOR_#3_1)*%
X150455000Y-73556300D03*
%TO.P,U1,4,V-*%
%TO.N,-5V*%
X150455000Y-74826300D03*
%TO.P,U1,5*%
%TO.N,N/C*%
X155405000Y-74826300D03*
%TO.P,U1,6*%
%TO.N,Net-(R3-Pad1)*%
X155405000Y-73556300D03*
%TO.P,U1,7,V+*%
%TO.N,+5V*%
X155405000Y-72286300D03*
%TO.P,U1,8,~{PD}*%
%TO.N,unconnected-(U1-~{PD}-Pad8)*%
X155405000Y-71016300D03*
D13*
%TO.P,U1,9,EP*%
%TO.N,unconnected-(U1-EP-Pad9)*%
X152930000Y-72921300D03*
%TD*%
D10*
%TO.P,R2,1*%
%TO.N,Net-(Q2-COLLECTOR_#4_1)*%
X132000000Y-90080000D03*
D11*
%TO.P,R2,2*%
%TO.N,GND*%
X132000000Y-79920000D03*
%TD*%
D10*
%TO.P,R5,1*%
%TO.N,Net-(IC1-Pad3)*%
X149920000Y-81500000D03*
D11*
%TO.P,R5,2*%
%TO.N,Net-(R3-Pad1)*%
X160080000Y-81500000D03*
%TD*%
D14*
%TO.P,J2,1,Pin_1*%
%TO.N,+5V*%
X173000100Y-86000000D03*
D15*
%TO.P,J2,2,Pin_2*%
%TO.N,-5V*%
X173000100Y-87000000D03*
%TD*%
D16*
%TO.P,J1,1,1*%
%TO.N,unconnected-(J1-Pad1)*%
X182862500Y-80300000D03*
%TO.P,J1,2,2*%
%TO.N,unconnected-(J1-Pad2)*%
X182862500Y-72700000D03*
D17*
%TO.P,J1,3,3*%
%TO.N,V_out*%
X175062500Y-76500000D03*
%TD*%
D18*
%TO.P,D1,1,K*%
%TO.N,Net-(D1-K)*%
X130500000Y-98211300D03*
D19*
%TO.P,D1,2,C*%
%TO.N,GND*%
X131770000Y-96941300D03*
%TO.P,D1,3,A*%
%TO.N,+5V*%
X130500000Y-95671300D03*
%TD*%
D20*
%TO.P,Q1,1,COLLECTOR_DYE_#1*%
%TO.N,Net-(Q1-BASE_#2)*%
X138500000Y-66631300D03*
%TO.P,Q1,2,COLLECTOR_#1*%
X138500000Y-67901300D03*
%TO.P,Q1,3,COLLECTOR_#2_1*%
%TO.N,Net-(D2-K)*%
X138500000Y-69171300D03*
%TO.P,Q1,4,COLLECTOR_#2_2*%
X138500000Y-70441300D03*
%TO.P,Q1,5,COLLECTOR_#3_1*%
%TO.N,Net-(Q1-COLLECTOR_#3_1)*%
X138500000Y-71711300D03*
%TO.P,Q1,6,COLLECTOR_#3_2*%
X138500000Y-72981300D03*
%TO.P,Q1,7,COLLECTOR_#4_1*%
%TO.N,Net-(Q1-COLLECTOR_#4_1)*%
X138500000Y-74251300D03*
%TO.P,Q1,8,COLLECTOR_#4_2*%
X138500000Y-75521300D03*
%TO.P,Q1,9,BASE_#4*%
%TO.N,Net-(Q1-BASE_#1)*%
X143950000Y-75521300D03*
%TO.P,Q1,10,EMITTER_#4*%
%TO.N,-5V*%
X143950000Y-74251300D03*
%TO.P,Q1,11,BASE_#3*%
%TO.N,Net-(Q1-BASE_#1)*%
X143950000Y-72981300D03*
%TO.P,Q1,12,EMITTER_#3*%
%TO.N,-5V*%
X143950000Y-71711300D03*
%TO.P,Q1,13,BASE_#2*%
%TO.N,Net-(Q1-BASE_#2)*%
X143950000Y-70441300D03*
%TO.P,Q1,14,EMITTER_#2*%
%TO.N,Net-(Q1-BASE_#1)*%
X143950000Y-69171300D03*
%TO.P,Q1,15,BASE_#1*%
X143950000Y-67901300D03*
%TO.P,Q1,16,EMITTER_#1*%
%TO.N,-5V*%
X143950000Y-66631300D03*
%TD*%
%TO.P,Q2,1,COLLECTOR_DYE_#1*%
%TO.N,Net-(Q2-BASE_#2)*%
X138550000Y-94226300D03*
%TO.P,Q2,2,COLLECTOR_#1*%
X138550000Y-95496300D03*
%TO.P,Q2,3,COLLECTOR_#2_1*%
%TO.N,Net-(D1-K)*%
X138550000Y-96766300D03*
%TO.P,Q2,4,COLLECTOR_#2_2*%
X138550000Y-98036300D03*
%TO.P,Q2,5,COLLECTOR_#3_1*%
%TO.N,Net-(Q2-COLLECTOR_#3_1)*%
X138550000Y-99306300D03*
%TO.P,Q2,6,COLLECTOR_#3_2*%
X138550000Y-100576300D03*
%TO.P,Q2,7,COLLECTOR_#4_1*%
%TO.N,Net-(Q2-COLLECTOR_#4_1)*%
X138550000Y-101846300D03*
%TO.P,Q2,8,COLLECTOR_#4_2*%
X138550000Y-103116300D03*
%TO.P,Q2,9,BASE_#4*%
%TO.N,Net-(Q2-BASE_#1)*%
X144000000Y-103116300D03*
%TO.P,Q2,10,EMITTER_#4*%
%TO.N,-5V*%
X144000000Y-101846300D03*
%TO.P,Q2,11,BASE_#3*%
%TO.N,Net-(Q2-BASE_#1)*%
X144000000Y-100576300D03*
%TO.P,Q2,12,EMITTER_#3*%
%TO.N,-5V*%
X144000000Y-99306300D03*
%TO.P,Q2,13,BASE_#2*%
%TO.N,Net-(Q2-BASE_#2)*%
X144000000Y-98036300D03*
%TO.P,Q2,14,EMITTER_#2*%
%TO.N,Net-(Q2-BASE_#1)*%
X144000000Y-96766300D03*
%TO.P,Q2,15,BASE_#1*%
X144000000Y-95496300D03*
%TO.P,Q2,16,EMITTER_#1*%
%TO.N,-5V*%
X144000000Y-94226300D03*
%TD*%
D21*
%TO.P,IC1,1*%
%TO.N,unconnected-(IC1-Pad1)*%
X176946800Y-91690000D03*
%TO.P,IC1,2*%
%TO.N,Net-(IC1-Pad2)*%
X174406800Y-91690000D03*
%TO.P,IC1,3*%
%TO.N,Net-(IC1-Pad3)*%
X171866800Y-91690000D03*
%TO.P,IC1,4*%
%TO.N,-5V*%
X169326800Y-91690000D03*
%TO.P,IC1,5*%
%TO.N,unconnected-(IC1-Pad5)*%
X169326800Y-99310000D03*
%TO.P,IC1,6*%
%TO.N,V_out*%
X171866800Y-99310000D03*
%TO.P,IC1,7*%
%TO.N,+5V*%
X174406800Y-99310000D03*
%TO.P,IC1,8*%
%TO.N,N/C*%
X176946800Y-99310000D03*
%TD*%
D18*
%TO.P,D2,1,K*%
%TO.N,Net-(D2-K)*%
X130315300Y-71586000D03*
D19*
%TO.P,D2,2,C*%
%TO.N,GND*%
X129045300Y-72856000D03*
%TO.P,D2,3,A*%
%TO.N,+5V*%
X130315300Y-74126000D03*
%TD*%
D10*
%TO.P,R4,1*%
%TO.N,Net-(R4-Pad1)*%
X160000000Y-88500000D03*
D11*
%TO.P,R4,2*%
%TO.N,Net-(U2--)*%
X149840000Y-88500000D03*
%TD*%
D10*
%TO.P,R6,1*%
%TO.N,GND*%
X136920000Y-88500000D03*
D11*
%TO.P,R6,2*%
%TO.N,Net-(IC1-Pad3)*%
X147080000Y-88500000D03*
%TD*%
D12*
%TO.P,U2,1*%
%TO.N,N/C*%
X150525000Y-96016300D03*
%TO.P,U2,2,-*%
%TO.N,Net-(U2--)*%
X150525000Y-97286300D03*
%TO.P,U2,3,+*%
%TO.N,Net-(Q2-COLLECTOR_#3_1)*%
X150525000Y-98556300D03*
%TO.P,U2,4,V-*%
%TO.N,-5V*%
X150525000Y-99826300D03*
%TO.P,U2,5*%
%TO.N,N/C*%
X155475000Y-99826300D03*
%TO.P,U2,6*%
%TO.N,Net-(R4-Pad1)*%
X155475000Y-98556300D03*
%TO.P,U2,7,V+*%
%TO.N,+5V*%
X155475000Y-97286300D03*
%TO.P,U2,8,~{PD}*%
%TO.N,unconnected-(U2-~{PD}-Pad8)*%
X155475000Y-96016300D03*
D13*
%TO.P,U2,9,EP*%
%TO.N,unconnected-(U2-EP-Pad9)*%
X153000000Y-97921300D03*
%TD*%
D10*
%TO.P,R1,1*%
%TO.N,Net-(Q1-COLLECTOR_#4_1)*%
X147048800Y-81500000D03*
D11*
%TO.P,R1,2*%
%TO.N,GND*%
X136888800Y-81500000D03*
%TD*%
D22*
%TO.N,+5V*%
X155982600Y-94610800D03*
X156922500Y-72195600D03*
X155982600Y-90377300D03*
%TO.N,-5V*%
X169859600Y-88817900D03*
%TO.N,Net-(Q1-COLLECTOR_#3_1)*%
X143722000Y-80700100D03*
X147091500Y-71615000D03*
%TO.N,Net-(Q2-BASE_#1)*%
X144127800Y-92046600D03*
X141164100Y-100803000D03*
%TO.N,Net-(Q2-COLLECTOR_#4_1)*%
X135236700Y-100803000D03*
%TO.N,Net-(Q2-COLLECTOR_#3_1)*%
X142621300Y-100023300D03*
X147260900Y-97791600D03*
%TO.N,Net-(R4-Pad1)*%
X158946300Y-98281300D03*
%TO.N,Net-(U2--)*%
X153018200Y-95691300D03*
%TD*%
D23*
%TO.N,+5V*%
X156763700Y-97119000D02*
X155642300Y-97119000D01*
X174406800Y-97687500D02*
X173838300Y-97119000D01*
X155642300Y-97119000D02*
X155475000Y-97286300D01*
X174406800Y-99310000D02*
X174406800Y-97687500D01*
X135794000Y-90377300D02*
X155982600Y-90377300D01*
X156763700Y-95391900D02*
X156763700Y-97119000D01*
X130500000Y-95671300D02*
X135794000Y-90377300D01*
X173838300Y-97119000D02*
X156763700Y-97119000D01*
X155495700Y-72195600D02*
X155405000Y-72286300D01*
X155982600Y-94610800D02*
X156763700Y-95391900D01*
X156922500Y-72195600D02*
X155495700Y-72195600D01*
%TO.N,Net-(D1-K)*%
X138550000Y-96766300D02*
X137473300Y-96766300D01*
X130500000Y-98211300D02*
X131401700Y-98211300D01*
X131576700Y-98036300D02*
X131401700Y-98211300D01*
X137473300Y-98036300D02*
X137473300Y-96766300D01*
X137574200Y-98036300D02*
X137473300Y-98036300D01*
X138550000Y-98036300D02*
X137574200Y-98036300D01*
X137473300Y-98036300D02*
X131576700Y-98036300D01*
%TO.N,Net-(D2-K)*%
X137423300Y-70441300D02*
X138500000Y-70441300D01*
X132361700Y-70441300D02*
X137423300Y-70441300D01*
X138500000Y-69171300D02*
X137423300Y-69171300D01*
X130315300Y-71586000D02*
X131217000Y-71586000D01*
X131217000Y-71586000D02*
X132361700Y-70441300D01*
X137423300Y-70441300D02*
X137423300Y-69171300D01*
%TO.N,-5V*%
X143950000Y-71711300D02*
X144925900Y-71711300D01*
X145026700Y-74251300D02*
X143950000Y-74251300D01*
X145026700Y-74251300D02*
X149880000Y-74251300D01*
X173000100Y-87000000D02*
X172374300Y-87000000D01*
X145026700Y-74251300D02*
X145026700Y-71711300D01*
X145026700Y-71709800D02*
X145026700Y-66631300D01*
X144000000Y-94226300D02*
X144975900Y-94226300D01*
X144791500Y-99553300D02*
X145076700Y-99838500D01*
X145025200Y-71711300D02*
X145026700Y-71709800D01*
X145076700Y-94226300D02*
X148324000Y-90979000D01*
X168800300Y-83516500D02*
X159145200Y-83516500D01*
X148324000Y-90979000D02*
X169226500Y-90979000D01*
X144791500Y-99306300D02*
X144791500Y-99553300D01*
X169326800Y-91690000D02*
X169326800Y-90878700D01*
X169226500Y-90979000D02*
X169326800Y-90878700D01*
X172283800Y-87000000D02*
X168800300Y-83516500D01*
X149880000Y-74251300D02*
X150455000Y-74826300D01*
X169859600Y-88817900D02*
X170455500Y-88817900D01*
X144000000Y-101846300D02*
X145076700Y-101846300D01*
X144791500Y-99306300D02*
X144000000Y-99306300D01*
X145721900Y-98702500D02*
X145076700Y-98702500D01*
X145076700Y-94226300D02*
X145076700Y-98702500D01*
X145076700Y-99838500D02*
X145076700Y-101846300D01*
X172374300Y-87000000D02*
X172283800Y-87000000D01*
X150525000Y-99826300D02*
X146845700Y-99826300D01*
X143950000Y-66631300D02*
X145026700Y-66631300D01*
X144791500Y-98987700D02*
X144791500Y-99306300D01*
X144975900Y-94226300D02*
X145075200Y-94226300D01*
X145076700Y-98702500D02*
X144791500Y-98987700D01*
X145025200Y-71711300D02*
X145026700Y-71711300D01*
X144925900Y-71711300D02*
X145025200Y-71711300D01*
X145075200Y-94226300D02*
X145076700Y-94226300D01*
X172283800Y-87000000D02*
X172273400Y-87000000D01*
X159145200Y-83516500D02*
X150455000Y-74826300D01*
X146845700Y-99826300D02*
X145721900Y-98702500D01*
X170455500Y-88817900D02*
X172273400Y-87000000D01*
%TO.N,V_out*%
X170500000Y-81062500D02*
X170500000Y-81580000D01*
X175062500Y-76500000D02*
X170500000Y-81062500D01*
%TO.N,Net-(IC1-Pad3)*%
X147080000Y-88500000D02*
X148181700Y-88500000D01*
X149457300Y-89775600D02*
X148181700Y-88500000D01*
X171574900Y-89775600D02*
X149457300Y-89775600D01*
X171866800Y-90067500D02*
X171574900Y-89775600D01*
X171866800Y-91690000D02*
X171866800Y-90067500D01*
%TO.N,Net-(Q1-BASE_#2)*%
X138500000Y-66631300D02*
X139576700Y-66631300D01*
X143950000Y-70441300D02*
X142873300Y-70441300D01*
X142873300Y-70441300D02*
X140333300Y-67901300D01*
X139576700Y-67901300D02*
X138500000Y-67901300D01*
X140333300Y-67901300D02*
X139576700Y-67901300D01*
X139576700Y-67901300D02*
X139576700Y-66631300D01*
%TO.N,Net-(Q1-BASE_#1)*%
X143512500Y-69171300D02*
X143950000Y-69171300D01*
X142874800Y-69171300D02*
X142873300Y-69171300D01*
X142874800Y-67901300D02*
X142874100Y-67901300D01*
X142874100Y-67901300D02*
X142873300Y-67901300D01*
X143950000Y-75521300D02*
X142873300Y-75521300D01*
X137553300Y-68544600D02*
X137365500Y-68356800D01*
X142873300Y-67901300D02*
X142873300Y-69171300D01*
X137590000Y-65970100D02*
X140942900Y-65970100D01*
X143950000Y-72981300D02*
X142873300Y-72981300D01*
X142873300Y-72981300D02*
X142873300Y-71915300D01*
X143512500Y-69171300D02*
X142974200Y-69171300D01*
X143950000Y-67901300D02*
X142974200Y-67901300D01*
X137365500Y-68356800D02*
X137365500Y-66194600D01*
X139502600Y-68544600D02*
X137553300Y-68544600D01*
X142873300Y-71915300D02*
X139502600Y-68544600D01*
X142974200Y-69171300D02*
X142874800Y-69171300D01*
X142974200Y-67901300D02*
X142874800Y-67901300D01*
X140942900Y-65970100D02*
X142874100Y-67901300D01*
X142873300Y-75521300D02*
X142873300Y-72981300D01*
X137365500Y-66194600D02*
X137590000Y-65970100D01*
%TO.N,Net-(Q1-COLLECTOR_#3_1)*%
X139410400Y-71711300D02*
X139576700Y-71877600D01*
X149032800Y-73556300D02*
X150455000Y-73556300D01*
X139576700Y-71877600D02*
X139576700Y-72981300D01*
X137423300Y-72981300D02*
X137423300Y-76018100D01*
X138500000Y-72981300D02*
X137423300Y-72981300D01*
X137423300Y-76018100D02*
X142105300Y-80700100D01*
X138500000Y-72981300D02*
X139576700Y-72981300D01*
X147091500Y-71615000D02*
X149032800Y-73556300D01*
X142105300Y-80700100D02*
X143722000Y-80700100D01*
X138500000Y-71711300D02*
X139410400Y-71711300D01*
%TO.N,Net-(Q1-COLLECTOR_#4_1)*%
X138500000Y-75521300D02*
X139038400Y-75521300D01*
X139038400Y-75521300D02*
X139576700Y-75521300D01*
X139576700Y-74983000D02*
X139576700Y-74251300D01*
X147048800Y-81500000D02*
X145555400Y-81500000D01*
X139038400Y-75521300D02*
X139576700Y-74983000D01*
X145555400Y-81500000D02*
X139576700Y-75521300D01*
X138500000Y-74251300D02*
X139576700Y-74251300D01*
%TO.N,Net-(Q2-BASE_#1)*%
X142696600Y-102889600D02*
X142923300Y-103116300D01*
X143562500Y-96766300D02*
X142923300Y-96766300D01*
X142923300Y-95496300D02*
X142923300Y-93251100D01*
X142923300Y-96766300D02*
X142923300Y-95496300D01*
X142696600Y-100803000D02*
X142923300Y-100576300D01*
X144000000Y-100576300D02*
X142923300Y-100576300D01*
X144000000Y-103116300D02*
X142923300Y-103116300D01*
X142696600Y-100803000D02*
X142696600Y-102889600D01*
X144000000Y-95496300D02*
X142923300Y-95496300D01*
X142923300Y-93251100D02*
X144127800Y-92046600D01*
X143562500Y-96766300D02*
X144000000Y-96766300D01*
X141164100Y-100803000D02*
X142696600Y-100803000D01*
%TO.N,Net-(Q2-BASE_#2)*%
X138550000Y-94226300D02*
X139626700Y-94226300D01*
X138550000Y-95496300D02*
X138917800Y-95496300D01*
X138917800Y-95496300D02*
X139626700Y-94787400D01*
X144000000Y-98036300D02*
X141457800Y-98036300D01*
X139626700Y-94787400D02*
X139626700Y-94226300D01*
X141457800Y-98036300D02*
X138917800Y-95496300D01*
%TO.N,Net-(Q2-COLLECTOR_#4_1)*%
X135236700Y-100803000D02*
X136280000Y-101846300D01*
X137473300Y-103116300D02*
X137473300Y-101846300D01*
X138550000Y-101846300D02*
X137473300Y-101846300D01*
X136280000Y-101846300D02*
X137473300Y-101846300D01*
X138550000Y-103116300D02*
X137473300Y-103116300D01*
%TO.N,Net-(Q2-COLLECTOR_#3_1)*%
X139626700Y-100576300D02*
X140179700Y-100023300D01*
X148025600Y-98556300D02*
X147260900Y-97791600D01*
X140179700Y-100023300D02*
X142621300Y-100023300D01*
X150525000Y-98556300D02*
X148025600Y-98556300D01*
X138550000Y-99306300D02*
X137473300Y-99306300D01*
X138550000Y-100576300D02*
X139626700Y-100576300D01*
X137473300Y-100576300D02*
X137473300Y-99306300D01*
X138011700Y-100576300D02*
X138550000Y-100576300D01*
X138011700Y-100576300D02*
X137473300Y-100576300D01*
%TO.N,Net-(R3-Pad1)*%
X163248700Y-81500000D02*
X163500000Y-81751300D01*
X160080000Y-77857500D02*
X160080000Y-81500000D01*
X155778800Y-73556300D02*
X160080000Y-77857500D01*
X155405000Y-73556300D02*
X155778800Y-73556300D01*
X160080000Y-81500000D02*
X163248700Y-81500000D01*
%TO.N,Net-(U1--)*%
X161178300Y-70371300D02*
X162398300Y-71591300D01*
X149120000Y-71349900D02*
X149120000Y-70731100D01*
X150455000Y-72286300D02*
X150056400Y-72286300D01*
X149120000Y-70731100D02*
X149479800Y-70371300D01*
X149479800Y-70371300D02*
X161178300Y-70371300D01*
X163500000Y-71591300D02*
X162398300Y-71591300D01*
X150056400Y-72286300D02*
X149120000Y-71349900D01*
%TO.N,Net-(R4-Pad1)*%
X160000000Y-88500000D02*
X163091300Y-88500000D01*
X163091300Y-88500000D02*
X163500000Y-88091300D01*
X155475000Y-98556300D02*
X158671300Y-98556300D01*
X158671300Y-98556300D02*
X158946300Y-98281300D01*
%TO.N,Net-(U2--)*%
X152740900Y-95414000D02*
X153018200Y-95691300D01*
X149450900Y-95414000D02*
X152740900Y-95414000D01*
X149247700Y-95617200D02*
X149450900Y-95414000D01*
X150126300Y-97286300D02*
X149247700Y-96407700D01*
X150525000Y-97286300D02*
X150126300Y-97286300D01*
X149247700Y-96407700D02*
X149247700Y-95617200D01*
%TD*%
%TA.AperFunction,Conductor*%
%TO.N,GND*%
G36*
X147243641Y-90997485D02*
G01*
X147289396Y-91050289D01*
X147299340Y-91119447D01*
X147270315Y-91183003D01*
X147264283Y-91189481D01*
X145058333Y-93395430D01*
X144997010Y-93428915D01*
X144927320Y-93423931D01*
X144882485Y-93407209D01*
X144882483Y-93407208D01*
X144822883Y-93400801D01*
X144822881Y-93400800D01*
X144822873Y-93400800D01*
X144822865Y-93400800D01*
X143922196Y-93400800D01*
X143855157Y-93381115D01*
X143809402Y-93328311D01*
X143799458Y-93259153D01*
X143828483Y-93195597D01*
X143834515Y-93189119D01*
X143916958Y-93106676D01*
X144146335Y-92877298D01*
X144207656Y-92843815D01*
X144220111Y-92841763D01*
X144307055Y-92831968D01*
X144477322Y-92772389D01*
X144630062Y-92676416D01*
X144757616Y-92548862D01*
X144853589Y-92396122D01*
X144913168Y-92225855D01*
X144933365Y-92046600D01*
X144930219Y-92018682D01*
X144913169Y-91867350D01*
X144913168Y-91867345D01*
X144853588Y-91697076D01*
X144814382Y-91634680D01*
X144757616Y-91544338D01*
X144630062Y-91416784D01*
X144548656Y-91365633D01*
X144477323Y-91320811D01*
X144307054Y-91261231D01*
X144307049Y-91261230D01*
X144127804Y-91241035D01*
X144127796Y-91241035D01*
X143948550Y-91261230D01*
X143948545Y-91261231D01*
X143778276Y-91320811D01*
X143625537Y-91416784D01*
X143497984Y-91544337D01*
X143402010Y-91697078D01*
X143342430Y-91867350D01*
X143332637Y-91954268D01*
X143305570Y-92018682D01*
X143297098Y-92028065D01*
X142554586Y-92770578D01*
X142442781Y-92882382D01*
X142442775Y-92882390D01*
X142398636Y-92958843D01*
X142398636Y-92958844D01*
X142363723Y-93019315D01*
X142322799Y-93172043D01*
X142322799Y-93172045D01*
X142322799Y-93340146D01*
X142322800Y-93340159D01*
X142322800Y-95417243D01*
X142322800Y-96845357D01*
X142361940Y-96991427D01*
X142363723Y-96998083D01*
X142363726Y-96998090D01*
X142442775Y-97135009D01*
X142442781Y-97135017D01*
X142531883Y-97224119D01*
X142565368Y-97285442D01*
X142560384Y-97355134D01*
X142518512Y-97411067D01*
X142453048Y-97435484D01*
X142444202Y-97435800D01*
X141757897Y-97435800D01*
X141690858Y-97416115D01*
X141670216Y-97399481D01*
X139861818Y-95591083D01*
X139828333Y-95529760D01*
X139825499Y-95503402D01*
X139825499Y-95489197D01*
X139845184Y-95422158D01*
X139861812Y-95401521D01*
X139985209Y-95278124D01*
X139985214Y-95278121D01*
X139995414Y-95267920D01*
X139995416Y-95267920D01*
X140107220Y-95156116D01*
X140161855Y-95061484D01*
X140186277Y-95019185D01*
X140227201Y-94866457D01*
X140227201Y-94708343D01*
X140227201Y-94700748D01*
X140227200Y-94700730D01*
X140227200Y-94147245D01*
X140227200Y-94147243D01*
X140186277Y-93994516D01*
X140123055Y-93885011D01*
X140107224Y-93857590D01*
X140107218Y-93857582D01*
X139995417Y-93745781D01*
X139995409Y-93745775D01*
X139858490Y-93666726D01*
X139858486Y-93666724D01*
X139858484Y-93666723D01*
X139858482Y-93666722D01*
X139858481Y-93666722D01*
X139795003Y-93649712D01*
X139735343Y-93613346D01*
X139727832Y-93604249D01*
X139682546Y-93543754D01*
X139601009Y-93482715D01*
X139567335Y-93457506D01*
X139567328Y-93457502D01*
X139432482Y-93407208D01*
X139432483Y-93407208D01*
X139372883Y-93400801D01*
X139372881Y-93400800D01*
X139372873Y-93400800D01*
X139372864Y-93400800D01*
X137727129Y-93400800D01*
X137727123Y-93400801D01*
X137667516Y-93407208D01*
X137532671Y-93457502D01*
X137532664Y-93457506D01*
X137417455Y-93543752D01*
X137417452Y-93543755D01*
X137331206Y-93658964D01*
X137331202Y-93658971D01*
X137280910Y-93793813D01*
X137280909Y-93793817D01*
X137274500Y-93853427D01*
X137274500Y-93853434D01*
X137274500Y-93853435D01*
X137274500Y-94599170D01*
X137274501Y-94599176D01*
X137280908Y-94658783D01*
X137331202Y-94793628D01*
X137335454Y-94801414D01*
X137332280Y-94803146D01*
X137350659Y-94852602D01*
X137335725Y-94920857D01*
X137335117Y-94921802D01*
X137331202Y-94928971D01*
X137281781Y-95061479D01*
X137280909Y-95063817D01*
X137274500Y-95123427D01*
X137274500Y-95123434D01*
X137274500Y-95123435D01*
X137274500Y-95869170D01*
X137274501Y-95869176D01*
X137280909Y-95928784D01*
X137323907Y-96044070D01*
X137328891Y-96113761D01*
X137295405Y-96175084D01*
X137248441Y-96202203D01*
X137249025Y-96203613D01*
X137241509Y-96206726D01*
X137104590Y-96285775D01*
X137104582Y-96285781D01*
X136992781Y-96397582D01*
X136992775Y-96397590D01*
X136913726Y-96534509D01*
X136913723Y-96534516D01*
X136872800Y-96687243D01*
X136872800Y-97311800D01*
X136853115Y-97378839D01*
X136800311Y-97424594D01*
X136748800Y-97435800D01*
X132937164Y-97435800D01*
X132870125Y-97416115D01*
X132824370Y-97363311D01*
X132814426Y-97294153D01*
X132817898Y-97277866D01*
X132855902Y-97144292D01*
X132855903Y-97144289D01*
X132874713Y-96941300D01*
X132874713Y-96941299D01*
X132855903Y-96738310D01*
X132855902Y-96738307D01*
X132800116Y-96542236D01*
X132800113Y-96542230D01*
X132709249Y-96359749D01*
X132709247Y-96359747D01*
X132707465Y-96357387D01*
X132120000Y-96944852D01*
X132120000Y-96895222D01*
X132096148Y-96806205D01*
X132050070Y-96726395D01*
X131984905Y-96661230D01*
X131905095Y-96615152D01*
X131816078Y-96591300D01*
X131766446Y-96591300D01*
X132350687Y-96007058D01*
X132262413Y-95952401D01*
X132262411Y-95952400D01*
X132072321Y-95878760D01*
X131871928Y-95841300D01*
X131725484Y-95841300D01*
X131658445Y-95821615D01*
X131612690Y-95768811D01*
X131602013Y-95705860D01*
X131605215Y-95671302D01*
X131605215Y-95671300D01*
X131599777Y-95612617D01*
X131588877Y-95494986D01*
X131602292Y-95426419D01*
X131624664Y-95395869D01*
X136006417Y-91014119D01*
X136067740Y-90980634D01*
X136094098Y-90977800D01*
X147176602Y-90977800D01*
X147243641Y-90997485D01*
G37*
%TD.AperFunction*%
%TA.AperFunction,Conductor*%
G36*
X186442539Y-62020185D02*
G01*
X186488294Y-62072989D01*
X186499500Y-62124500D01*
X186499500Y-107375500D01*
X186479815Y-107442539D01*
X186427011Y-107488294D01*
X186375500Y-107499500D01*
X122624500Y-107499500D01*
X122557461Y-107479815D01*
X122511706Y-107427011D01*
X122500500Y-107375500D01*
X122500500Y-104397648D01*
X124199500Y-104397648D01*
X124199500Y-104602351D01*
X124231522Y-104804534D01*
X124294781Y-104999223D01*
X124387715Y-105181613D01*
X124508028Y-105347213D01*
X124652786Y-105491971D01*
X124807749Y-105604556D01*
X124818390Y-105612287D01*
X124934607Y-105671503D01*
X125000776Y-105705218D01*
X125000778Y-105705218D01*
X125000781Y-105705220D01*
X125105137Y-105739127D01*
X125195465Y-105768477D01*
X125296557Y-105784488D01*
X125397648Y-105800500D01*
X125397649Y-105800500D01*
X125602351Y-105800500D01*
X125602352Y-105800500D01*
X125804534Y-105768477D01*
X125999219Y-105705220D01*
X126181610Y-105612287D01*
X126274590Y-105544732D01*
X126347213Y-105491971D01*
X126347215Y-105491968D01*
X126347219Y-105491966D01*
X126491966Y-105347219D01*
X126491968Y-105347215D01*
X126491971Y-105347213D01*
X126544732Y-105274590D01*
X126612287Y-105181610D01*
X126705220Y-104999219D01*
X126768477Y-104804534D01*
X126800500Y-104602352D01*
X126800500Y-104397648D01*
X182699500Y-104397648D01*
X182699500Y-104602351D01*
X182731522Y-104804534D01*
X182794781Y-104999223D01*
X182887715Y-105181613D01*
X183008028Y-105347213D01*
X183152786Y-105491971D01*
X183307749Y-105604556D01*
X183318390Y-105612287D01*
X183434607Y-105671503D01*
X183500776Y-105705218D01*
X183500778Y-105705218D01*
X183500781Y-105705220D01*
X183605137Y-105739127D01*
X183695465Y-105768477D01*
X183796557Y-105784488D01*
X183897648Y-105800500D01*
X183897649Y-105800500D01*
X184102351Y-105800500D01*
X184102352Y-105800500D01*
X184304534Y-105768477D01*
X184499219Y-105705220D01*
X184681610Y-105612287D01*
X184774590Y-105544732D01*
X184847213Y-105491971D01*
X184847215Y-105491968D01*
X184847219Y-105491966D01*
X184991966Y-105347219D01*
X184991968Y-105347215D01*
X184991971Y-105347213D01*
X185044732Y-105274590D01*
X185112287Y-105181610D01*
X185205220Y-104999219D01*
X185268477Y-104804534D01*
X185300500Y-104602352D01*
X185300500Y-104397648D01*
X185268477Y-104195466D01*
X185205220Y-104000781D01*
X185205218Y-104000778D01*
X185205218Y-104000776D01*
X185146274Y-103885093D01*
X185112287Y-103818390D01*
X185047524Y-103729250D01*
X184991971Y-103652786D01*
X184847213Y-103508028D01*
X184681613Y-103387715D01*
X184681612Y-103387714D01*
X184681610Y-103387713D01*
X184603832Y-103348083D01*
X184499223Y-103294781D01*
X184304534Y-103231522D01*
X184129995Y-103203878D01*
X184102352Y-103199500D01*
X183897648Y-103199500D01*
X183873329Y-103203351D01*
X183695465Y-103231522D01*
X183500776Y-103294781D01*
X183318386Y-103387715D01*
X183152786Y-103508028D01*
X183008028Y-103652786D01*
X182887715Y-103818386D01*
X182794781Y-104000776D01*
X182731522Y-104195465D01*
X182699500Y-104397648D01*
X126800500Y-104397648D01*
X126768477Y-104195466D01*
X126705220Y-104000781D01*
X126705218Y-104000778D01*
X126705218Y-104000776D01*
X126646274Y-103885093D01*
X126612287Y-103818390D01*
X126547524Y-103729250D01*
X126491971Y-103652786D01*
X126347213Y-103508028D01*
X126181613Y-103387715D01*
X126181612Y-103387714D01*
X126181610Y-103387713D01*
X126103832Y-103348083D01*
X125999223Y-103294781D01*
X125804534Y-103231522D01*
X125629995Y-103203878D01*
X125602352Y-103199500D01*
X125397648Y-103199500D01*
X125373329Y-103203351D01*
X125195465Y-103231522D01*
X125000776Y-103294781D01*
X124818386Y-103387715D01*
X124652786Y-103508028D01*
X124508028Y-103652786D01*
X124387715Y-103818386D01*
X124294781Y-104000776D01*
X124231522Y-104195465D01*
X124199500Y-104397648D01*
X122500500Y-104397648D01*
X122500500Y-90079998D01*
X130694532Y-90079998D01*
X130694532Y-90080001D01*
X130714364Y-90306686D01*
X130714366Y-90306697D01*
X130773258Y-90526488D01*
X130773261Y-90526497D01*
X130869431Y-90732732D01*
X130869432Y-90732734D01*
X130999954Y-90919141D01*
X131160858Y-91080045D01*
X131160861Y-91080047D01*
X131347266Y-91210568D01*
X131553504Y-91306739D01*
X131773308Y-91365635D01*
X131935230Y-91379801D01*
X131999998Y-91385468D01*
X132000000Y-91385468D01*
X132000002Y-91385468D01*
X132056673Y-91380509D01*
X132226692Y-91365635D01*
X132446496Y-91306739D01*
X132652734Y-91210568D01*
X132839139Y-91080047D01*
X133000047Y-90919139D01*
X133130568Y-90732734D01*
X133226739Y-90526496D01*
X133285635Y-90306692D01*
X133305468Y-90080000D01*
X133304308Y-90066746D01*
X133289438Y-89896775D01*
X133285635Y-89853308D01*
X133226739Y-89633504D01*
X133130568Y-89427266D01*
X133000047Y-89240861D01*
X133000045Y-89240858D01*
X132839141Y-89079954D01*
X132652734Y-88949432D01*
X132652732Y-88949431D01*
X132446497Y-88853261D01*
X132446488Y-88853258D01*
X132226697Y-88794366D01*
X132226693Y-88794365D01*
X132226692Y-88794365D01*
X132226691Y-88794364D01*
X132226686Y-88794364D01*
X132000002Y-88774532D01*
X131999998Y-88774532D01*
X131773313Y-88794364D01*
X131773302Y-88794366D01*
X131553511Y-88853258D01*
X131553502Y-88853261D01*
X131347267Y-88949431D01*
X131347265Y-88949432D01*
X131160858Y-89079954D01*
X130999954Y-89240858D01*
X130869432Y-89427265D01*
X130869431Y-89427267D01*
X130773261Y-89633502D01*
X130773258Y-89633511D01*
X130714366Y-89853302D01*
X130714364Y-89853313D01*
X130694532Y-90079998D01*
X122500500Y-90079998D01*
X122500500Y-81249999D01*
X135609927Y-81249999D01*
X135609928Y-81250000D01*
X136573114Y-81250000D01*
X136568720Y-81254394D01*
X136516059Y-81345606D01*
X136488800Y-81447339D01*
X136488800Y-81552661D01*
X136516059Y-81654394D01*
X136568720Y-81745606D01*
X136573114Y-81750000D01*
X135609928Y-81750000D01*
X135662530Y-81946317D01*
X135662534Y-81946326D01*
X135758665Y-82152482D01*
X135889142Y-82338820D01*
X136049979Y-82499657D01*
X136236317Y-82630134D01*
X136442473Y-82726265D01*
X136442482Y-82726269D01*
X136638799Y-82778872D01*
X136638800Y-82778871D01*
X136638800Y-81815686D01*
X136643194Y-81820080D01*
X136734406Y-81872741D01*
X136836139Y-81900000D01*
X136941461Y-81900000D01*
X137043194Y-81872741D01*
X137134406Y-81820080D01*
X137138800Y-81815686D01*
X137138800Y-82778872D01*
X137335117Y-82726269D01*
X137335126Y-82726265D01*
X137541282Y-82630134D01*
X137727620Y-82499657D01*
X137888457Y-82338820D01*
X138018934Y-82152482D01*
X138115065Y-81946326D01*
X138115069Y-81946317D01*
X138167672Y-81750000D01*
X137204486Y-81750000D01*
X137208880Y-81745606D01*
X137261541Y-81654394D01*
X137288800Y-81552661D01*
X137288800Y-81447339D01*
X137261541Y-81345606D01*
X137208880Y-81254394D01*
X137204486Y-81250000D01*
X138167672Y-81250000D01*
X138167672Y-81249999D01*
X138115069Y-81053682D01*
X138115065Y-81053673D01*
X138018934Y-80847517D01*
X137888457Y-80661179D01*
X137727620Y-80500342D01*
X137541282Y-80369865D01*
X137335128Y-80273734D01*
X137138800Y-80221127D01*
X137138800Y-81184314D01*
X137134406Y-81179920D01*
X137043194Y-81127259D01*
X136941461Y-81100000D01*
X136836139Y-81100000D01*
X136734406Y-81127259D01*
X136643194Y-81179920D01*
X136638800Y-81184314D01*
X136638800Y-80221127D01*
X136442471Y-80273734D01*
X136236317Y-80369865D01*
X136049979Y-80500342D01*
X135889142Y-80661179D01*
X135758665Y-80847517D01*
X135662534Y-81053673D01*
X135662530Y-81053682D01*
X135609927Y-81249999D01*
X122500500Y-81249999D01*
X122500500Y-79669999D01*
X130721127Y-79669999D01*
X130721128Y-79670000D01*
X131684314Y-79670000D01*
X131679920Y-79674394D01*
X131627259Y-79765606D01*
X131600000Y-79867339D01*
X131600000Y-79972661D01*
X131627259Y-80074394D01*
X131679920Y-80165606D01*
X131684314Y-80170000D01*
X130721128Y-80170000D01*
X130773730Y-80366317D01*
X130773734Y-80366326D01*
X130869865Y-80572482D01*
X131000342Y-80758820D01*
X131161179Y-80919657D01*
X131347517Y-81050134D01*
X131553673Y-81146265D01*
X131553682Y-81146269D01*
X131749999Y-81198872D01*
X131750000Y-81198871D01*
X131750000Y-80235686D01*
X131754394Y-80240080D01*
X131845606Y-80292741D01*
X131947339Y-80320000D01*
X132052661Y-80320000D01*
X132154394Y-80292741D01*
X132245606Y-80240080D01*
X132250000Y-80235686D01*
X132250000Y-81198872D01*
X132446317Y-81146269D01*
X132446326Y-81146265D01*
X132652482Y-81050134D01*
X132838820Y-80919657D01*
X132999657Y-80758820D01*
X133130134Y-80572482D01*
X133226265Y-80366326D01*
X133226269Y-80366317D01*
X133278872Y-80170000D01*
X132315686Y-80170000D01*
X132320080Y-80165606D01*
X132372741Y-80074394D01*
X132400000Y-79972661D01*
X132400000Y-79867339D01*
X132372741Y-79765606D01*
X132320080Y-79674394D01*
X132315686Y-79670000D01*
X133278872Y-79670000D01*
X133278872Y-79669999D01*
X133226269Y-79473682D01*
X133226265Y-79473673D01*
X133130134Y-79267517D01*
X132999657Y-79081179D01*
X132838820Y-78920342D01*
X132652482Y-78789865D01*
X132446328Y-78693734D01*
X132250000Y-78641127D01*
X132250000Y-79604314D01*
X132245606Y-79599920D01*
X132154394Y-79547259D01*
X132052661Y-79520000D01*
X131947339Y-79520000D01*
X131845606Y-79547259D01*
X131754394Y-79599920D01*
X131750000Y-79604314D01*
X131750000Y-78641127D01*
X131553671Y-78693734D01*
X131347517Y-78789865D01*
X131161179Y-78920342D01*
X131000342Y-79081179D01*
X130869865Y-79267517D01*
X130773734Y-79473673D01*
X130773730Y-79473682D01*
X130721127Y-79669999D01*
X122500500Y-79669999D01*
X122500500Y-72855999D01*
X127940587Y-72855999D01*
X127940587Y-72856000D01*
X127959396Y-73058989D01*
X127959397Y-73058992D01*
X128015183Y-73255063D01*
X128015186Y-73255069D01*
X128106051Y-73437551D01*
X128107833Y-73439911D01*
X128691746Y-72856000D01*
X128107833Y-72272087D01*
X128106055Y-72274442D01*
X128106054Y-72274443D01*
X128015186Y-72456930D01*
X128015183Y-72456936D01*
X127959397Y-72653007D01*
X127959396Y-72653010D01*
X127940587Y-72855999D01*
X122500500Y-72855999D01*
X122500500Y-71921758D01*
X128464611Y-71921758D01*
X129048853Y-72506000D01*
X128999222Y-72506000D01*
X128910205Y-72529852D01*
X128830395Y-72575930D01*
X128765230Y-72641095D01*
X128719152Y-72720905D01*
X128695300Y-72809922D01*
X128695300Y-72902078D01*
X128719152Y-72991095D01*
X128765230Y-73070905D01*
X128830395Y-73136070D01*
X128910205Y-73182148D01*
X128999222Y-73206000D01*
X129048852Y-73206000D01*
X128464611Y-73790240D01*
X128552885Y-73844897D01*
X128742978Y-73918539D01*
X128943372Y-73956000D01*
X129089816Y-73956000D01*
X129156855Y-73975685D01*
X129202610Y-74028489D01*
X129213287Y-74091440D01*
X129210085Y-74125997D01*
X129210085Y-74126000D01*
X129228902Y-74329082D01*
X129284717Y-74525247D01*
X129284722Y-74525260D01*
X129375627Y-74707821D01*
X129498537Y-74870581D01*
X129649258Y-75007980D01*
X129649260Y-75007982D01*
X129704192Y-75041994D01*
X129822663Y-75115348D01*
X130012844Y-75189024D01*
X130213324Y-75226500D01*
X130213326Y-75226500D01*
X130417274Y-75226500D01*
X130417276Y-75226500D01*
X130617756Y-75189024D01*
X130807937Y-75115348D01*
X130981341Y-75007981D01*
X131132064Y-74870579D01*
X131254973Y-74707821D01*
X131345882Y-74525250D01*
X131401697Y-74329083D01*
X131420515Y-74126000D01*
X131411479Y-74028489D01*
X131401697Y-73922917D01*
X131390221Y-73882584D01*
X131345882Y-73726750D01*
X131344357Y-73723688D01*
X131285016Y-73604514D01*
X131254973Y-73544179D01*
X131176234Y-73439911D01*
X131132062Y-73381418D01*
X130981341Y-73244019D01*
X130981339Y-73244017D01*
X130807942Y-73136655D01*
X130807935Y-73136651D01*
X130636479Y-73070229D01*
X130581077Y-73027656D01*
X130557487Y-72961889D01*
X130573198Y-72893809D01*
X130623222Y-72845030D01*
X130642945Y-72836675D01*
X130737745Y-72805873D01*
X130892088Y-72727232D01*
X131032228Y-72625414D01*
X131154714Y-72502928D01*
X131256532Y-72362788D01*
X131329244Y-72220080D01*
X131377215Y-72169287D01*
X131407630Y-72156604D01*
X131448785Y-72145577D01*
X131511471Y-72109385D01*
X131585716Y-72066520D01*
X131697520Y-71954716D01*
X131697520Y-71954714D01*
X131707724Y-71944511D01*
X131707727Y-71944506D01*
X132574116Y-71078119D01*
X132635439Y-71044634D01*
X132661797Y-71041800D01*
X137140717Y-71041800D01*
X137207756Y-71061485D01*
X137253511Y-71114289D01*
X137263455Y-71183447D01*
X137256899Y-71209133D01*
X137233885Y-71270839D01*
X137230909Y-71278817D01*
X137224500Y-71338427D01*
X137224500Y-71338434D01*
X137224500Y-71338435D01*
X137224500Y-72084170D01*
X137224501Y-72084176D01*
X137230909Y-72143784D01*
X137273907Y-72259070D01*
X137278891Y-72328761D01*
X137245405Y-72390084D01*
X137198441Y-72417203D01*
X137199025Y-72418613D01*
X137191509Y-72421726D01*
X137054590Y-72500775D01*
X137054582Y-72500781D01*
X136942781Y-72612582D01*
X136942775Y-72612590D01*
X136863726Y-72749509D01*
X136863723Y-72749516D01*
X136822800Y-72902243D01*
X136822800Y-75931430D01*
X136822799Y-75931448D01*
X136822799Y-76097154D01*
X136822798Y-76097154D01*
X136863723Y-76249887D01*
X136874306Y-76268215D01*
X136874307Y-76268216D01*
X136922776Y-76352168D01*
X136942779Y-76386814D01*
X136942781Y-76386817D01*
X137061649Y-76505685D01*
X137061655Y-76505690D01*
X141620439Y-81064474D01*
X141620449Y-81064485D01*
X141624779Y-81068815D01*
X141624780Y-81068816D01*
X141736584Y-81180620D01*
X141819002Y-81228203D01*
X141823395Y-81230739D01*
X141823397Y-81230741D01*
X141861451Y-81252711D01*
X141873515Y-81259677D01*
X142026243Y-81300601D01*
X142026246Y-81300601D01*
X142191953Y-81300601D01*
X142191969Y-81300600D01*
X143139588Y-81300600D01*
X143206627Y-81320285D01*
X143216903Y-81327655D01*
X143219736Y-81329914D01*
X143219738Y-81329916D01*
X143372478Y-81425889D01*
X143433779Y-81447339D01*
X143542745Y-81485468D01*
X143542750Y-81485469D01*
X143721996Y-81505665D01*
X143722000Y-81505665D01*
X143722004Y-81505665D01*
X143901249Y-81485469D01*
X143901252Y-81485468D01*
X143901255Y-81485468D01*
X144071522Y-81425889D01*
X144224262Y-81329916D01*
X144292490Y-81261688D01*
X144353813Y-81228203D01*
X144423505Y-81233187D01*
X144467852Y-81261688D01*
X145186684Y-81980520D01*
X145186686Y-81980521D01*
X145186690Y-81980524D01*
X145323609Y-82059573D01*
X145323616Y-82059577D01*
X145476343Y-82100501D01*
X145476345Y-82100501D01*
X145642054Y-82100501D01*
X145642070Y-82100500D01*
X145817108Y-82100500D01*
X145884147Y-82120185D01*
X145918680Y-82153374D01*
X145974247Y-82232732D01*
X146048754Y-82339141D01*
X146209658Y-82500045D01*
X146209661Y-82500047D01*
X146396066Y-82630568D01*
X146602304Y-82726739D01*
X146822108Y-82785635D01*
X146984030Y-82799801D01*
X147048798Y-82805468D01*
X147048800Y-82805468D01*
X147048802Y-82805468D01*
X147105473Y-82800509D01*
X147275492Y-82785635D01*
X147495296Y-82726739D01*
X147701534Y-82630568D01*
X147887939Y-82500047D01*
X148048847Y-82339139D01*
X148179368Y-82152734D01*
X148275539Y-81946496D01*
X148334435Y-81726692D01*
X148354268Y-81500000D01*
X148354268Y-81499998D01*
X148614532Y-81499998D01*
X148614532Y-81500001D01*
X148634364Y-81726686D01*
X148634366Y-81726697D01*
X148693258Y-81946488D01*
X148693261Y-81946497D01*
X148789431Y-82152732D01*
X148789432Y-82152734D01*
X148919954Y-82339141D01*
X149080858Y-82500045D01*
X149080861Y-82500047D01*
X149267266Y-82630568D01*
X149473504Y-82726739D01*
X149693308Y-82785635D01*
X149855230Y-82799801D01*
X149919998Y-82805468D01*
X149920000Y-82805468D01*
X149920002Y-82805468D01*
X149976673Y-82800509D01*
X150146692Y-82785635D01*
X150366496Y-82726739D01*
X150572734Y-82630568D01*
X150759139Y-82500047D01*
X150920047Y-82339139D01*
X151050568Y-82152734D01*
X151146739Y-81946496D01*
X151205635Y-81726692D01*
X151225468Y-81500000D01*
X151205635Y-81273308D01*
X151146739Y-81053504D01*
X151050568Y-80847266D01*
X150920047Y-80660861D01*
X150920045Y-80660858D01*
X150759141Y-80499954D01*
X150572734Y-80369432D01*
X150572732Y-80369431D01*
X150366497Y-80273261D01*
X150366488Y-80273258D01*
X150146697Y-80214366D01*
X150146693Y-80214365D01*
X150146692Y-80214365D01*
X150146691Y-80214364D01*
X150146686Y-80214364D01*
X149920002Y-80194532D01*
X149919998Y-80194532D01*
X149693313Y-80214364D01*
X149693302Y-80214366D01*
X149473511Y-80273258D01*
X149473502Y-80273261D01*
X149267267Y-80369431D01*
X149267265Y-80369432D01*
X149080858Y-80499954D01*
X148919954Y-80660858D01*
X148789432Y-80847265D01*
X148789431Y-80847267D01*
X148693261Y-81053502D01*
X148693258Y-81053511D01*
X148634366Y-81273302D01*
X148634364Y-81273313D01*
X148614532Y-81499998D01*
X148354268Y-81499998D01*
X148334435Y-81273308D01*
X148275539Y-81053504D01*
X148179368Y-80847266D01*
X148048847Y-80660861D01*
X148048845Y-80660858D01*
X147887941Y-80499954D01*
X147701534Y-80369432D01*
X147701532Y-80369431D01*
X147495297Y-80273261D01*
X147495288Y-80273258D01*
X147275497Y-80214366D01*
X147275493Y-80214365D01*
X147275492Y-80214365D01*
X147275491Y-80214364D01*
X147275486Y-80214364D01*
X147048802Y-80194532D01*
X147048798Y-80194532D01*
X146822113Y-80214364D01*
X146822102Y-80214366D01*
X146602311Y-80273258D01*
X146602302Y-80273261D01*
X146396067Y-80369431D01*
X146396065Y-80369432D01*
X146209658Y-80499954D01*
X146048754Y-80660858D01*
X145934493Y-80824043D01*
X145879917Y-80867668D01*
X145810418Y-80874862D01*
X145748063Y-80843340D01*
X145745237Y-80840601D01*
X140183337Y-75278702D01*
X140149852Y-75217379D01*
X140151242Y-75158931D01*
X140177200Y-75062057D01*
X140177200Y-74903943D01*
X140177200Y-74172243D01*
X140136277Y-74019516D01*
X140136273Y-74019509D01*
X140057224Y-73882590D01*
X140057218Y-73882582D01*
X139945417Y-73770781D01*
X139945416Y-73770780D01*
X139863848Y-73723687D01*
X139815633Y-73673121D01*
X139802409Y-73604514D01*
X139828377Y-73539649D01*
X139863847Y-73508912D01*
X139945416Y-73461820D01*
X140057220Y-73350016D01*
X140136277Y-73213084D01*
X140177200Y-73060357D01*
X140177200Y-71966660D01*
X140177201Y-71966647D01*
X140177201Y-71798544D01*
X140176052Y-71794255D01*
X140136277Y-71645816D01*
X140118483Y-71614996D01*
X140057224Y-71508890D01*
X140057218Y-71508882D01*
X139890920Y-71342584D01*
X139779116Y-71230780D01*
X139779115Y-71230779D01*
X139779112Y-71230776D01*
X139772671Y-71225834D01*
X139774042Y-71224046D01*
X139733898Y-71181950D01*
X139727930Y-71168460D01*
X139718796Y-71143969D01*
X139718793Y-71143966D01*
X139714547Y-71136188D01*
X139717757Y-71134434D01*
X139699361Y-71085301D01*
X139714127Y-71017009D01*
X139714752Y-71016036D01*
X139718797Y-71008629D01*
X139731895Y-70973511D01*
X139769091Y-70873783D01*
X139775500Y-70814173D01*
X139775499Y-70068428D01*
X139769091Y-70008817D01*
X139760992Y-69987104D01*
X139756009Y-69917414D01*
X139789494Y-69856091D01*
X139850817Y-69822606D01*
X139920508Y-69827590D01*
X139964856Y-69856091D01*
X142236481Y-72127716D01*
X142269966Y-72189039D01*
X142272800Y-72215397D01*
X142272800Y-72902243D01*
X142272800Y-75600357D01*
X142279886Y-75626800D01*
X142313723Y-75753083D01*
X142313726Y-75753090D01*
X142392775Y-75890009D01*
X142392779Y-75890014D01*
X142392780Y-75890016D01*
X142504584Y-76001820D01*
X142504586Y-76001821D01*
X142504590Y-76001824D01*
X142641509Y-76080873D01*
X142641516Y-76080877D01*
X142704994Y-76097885D01*
X142764653Y-76134250D01*
X142772165Y-76143348D01*
X142817455Y-76203847D01*
X142932664Y-76290093D01*
X142932671Y-76290097D01*
X143067517Y-76340391D01*
X143067516Y-76340391D01*
X143074444Y-76341135D01*
X143127127Y-76346800D01*
X144772872Y-76346799D01*
X144832483Y-76340391D01*
X144967331Y-76290096D01*
X145082546Y-76203846D01*
X145168796Y-76088631D01*
X145219091Y-75953783D01*
X145225500Y-75894173D01*
X145225499Y-75148428D01*
X145219091Y-75088817D01*
X145219091Y-75088816D01*
X145193101Y-75019133D01*
X145188117Y-74949441D01*
X145221602Y-74888118D01*
X145282926Y-74854634D01*
X145309283Y-74851800D01*
X148855500Y-74851800D01*
X148922539Y-74871485D01*
X148968294Y-74924289D01*
X148979500Y-74975800D01*
X148979500Y-75042001D01*
X148982401Y-75078867D01*
X148982402Y-75078873D01*
X149028254Y-75236693D01*
X149028255Y-75236696D01*
X149111917Y-75378162D01*
X149111923Y-75378170D01*
X149228129Y-75494376D01*
X149228133Y-75494379D01*
X149228135Y-75494381D01*
X149369602Y-75578044D01*
X149411224Y-75590136D01*
X149527426Y-75623897D01*
X149527429Y-75623897D01*
X149527431Y-75623898D01*
X149564306Y-75626800D01*
X150354903Y-75626800D01*
X150421942Y-75646485D01*
X150442583Y-75663118D01*
X158776484Y-83997020D01*
X158776486Y-83997021D01*
X158776490Y-83997024D01*
X158913409Y-84076073D01*
X158913416Y-84076077D01*
X159066143Y-84117001D01*
X159066145Y-84117001D01*
X159231854Y-84117001D01*
X159231870Y-84117000D01*
X168500203Y-84117000D01*
X168567242Y-84136685D01*
X168587884Y-84153319D01*
X171341683Y-86907118D01*
X171375168Y-86968441D01*
X171370184Y-87038133D01*
X171341683Y-87082480D01*
X170354308Y-88069855D01*
X170292985Y-88103340D01*
X170223293Y-88098356D01*
X170212827Y-88093895D01*
X170209118Y-88092109D01*
X170038862Y-88032533D01*
X170038849Y-88032530D01*
X169859604Y-88012335D01*
X169859596Y-88012335D01*
X169680350Y-88032530D01*
X169680345Y-88032531D01*
X169510076Y-88092111D01*
X169357337Y-88188084D01*
X169229784Y-88315637D01*
X169133811Y-88468376D01*
X169074231Y-88638645D01*
X169074230Y-88638650D01*
X169054035Y-88817896D01*
X169054035Y-88817903D01*
X169074230Y-88997149D01*
X169074233Y-88997161D01*
X169078777Y-89010147D01*
X169082338Y-89079926D01*
X169047608Y-89140553D01*
X168985614Y-89172779D01*
X168961735Y-89175100D01*
X164554749Y-89175100D01*
X164487710Y-89155415D01*
X164441955Y-89102611D01*
X164432011Y-89033453D01*
X164461036Y-88969897D01*
X164467068Y-88963419D01*
X164500045Y-88930441D01*
X164500047Y-88930439D01*
X164630568Y-88744034D01*
X164726739Y-88537796D01*
X164785635Y-88317992D01*
X164805468Y-88091300D01*
X164785635Y-87864608D01*
X164739268Y-87691564D01*
X164726741Y-87644811D01*
X164726738Y-87644802D01*
X164630568Y-87438567D01*
X164630567Y-87438565D01*
X164582465Y-87369868D01*
X164500047Y-87252161D01*
X164500045Y-87252158D01*
X164339141Y-87091254D01*
X164152734Y-86960732D01*
X164152732Y-86960731D01*
X163946497Y-86864561D01*
X163946488Y-86864558D01*
X163726697Y-86805666D01*
X163726693Y-86805665D01*
X163726692Y-86805665D01*
X163726691Y-86805664D01*
X163726686Y-86805664D01*
X163500002Y-86785832D01*
X163499998Y-86785832D01*
X163273313Y-86805664D01*
X163273302Y-86805666D01*
X163053511Y-86864558D01*
X163053502Y-86864561D01*
X162847267Y-86960731D01*
X162847265Y-86960732D01*
X162660858Y-87091254D01*
X162499954Y-87252158D01*
X162369432Y-87438565D01*
X162369431Y-87438567D01*
X162273261Y-87644802D01*
X162273258Y-87644811D01*
X162229642Y-87807593D01*
X162193277Y-87867254D01*
X162130430Y-87897783D01*
X162109867Y-87899500D01*
X161231692Y-87899500D01*
X161164653Y-87879815D01*
X161130119Y-87846625D01*
X161000047Y-87660861D01*
X161000045Y-87660858D01*
X160839141Y-87499954D01*
X160652734Y-87369432D01*
X160652732Y-87369431D01*
X160446497Y-87273261D01*
X160446488Y-87273258D01*
X160226697Y-87214366D01*
X160226693Y-87214365D01*
X160226692Y-87214365D01*
X160226691Y-87214364D01*
X160226686Y-87214364D01*
X160000002Y-87194532D01*
X159999998Y-87194532D01*
X159773313Y-87214364D01*
X159773302Y-87214366D01*
X159553511Y-87273258D01*
X159553502Y-87273261D01*
X159347267Y-87369431D01*
X159347265Y-87369432D01*
X159160858Y-87499954D01*
X158999954Y-87660858D01*
X158869432Y-87847265D01*
X158869431Y-87847267D01*
X158773261Y-88053502D01*
X158773258Y-88053511D01*
X158714366Y-88273302D01*
X158714364Y-88273313D01*
X158694532Y-88499998D01*
X158694532Y-88500001D01*
X158714364Y-88726686D01*
X158714366Y-88726697D01*
X158773258Y-88946488D01*
X158773260Y-88946492D01*
X158773261Y-88946496D01*
X158784173Y-88969897D01*
X158797602Y-88998695D01*
X158808094Y-89067773D01*
X158779574Y-89131557D01*
X158721098Y-89169796D01*
X158685220Y-89175100D01*
X151154780Y-89175100D01*
X151087741Y-89155415D01*
X151041986Y-89102611D01*
X151032042Y-89033453D01*
X151042398Y-88998695D01*
X151043119Y-88997149D01*
X151066739Y-88946496D01*
X151125635Y-88726692D01*
X151145468Y-88500000D01*
X151142701Y-88468378D01*
X151131960Y-88345606D01*
X151125635Y-88273308D01*
X151076866Y-88091298D01*
X151066741Y-88053511D01*
X151066738Y-88053502D01*
X151056960Y-88032533D01*
X150970568Y-87847266D01*
X150840047Y-87660861D01*
X150840045Y-87660858D01*
X150679141Y-87499954D01*
X150492734Y-87369432D01*
X150492732Y-87369431D01*
X150286497Y-87273261D01*
X150286488Y-87273258D01*
X150066697Y-87214366D01*
X150066693Y-87214365D01*
X150066692Y-87214365D01*
X150066691Y-87214364D01*
X150066686Y-87214364D01*
X149840002Y-87194532D01*
X149839998Y-87194532D01*
X149613313Y-87214364D01*
X149613302Y-87214366D01*
X149393511Y-87273258D01*
X149393502Y-87273261D01*
X149187267Y-87369431D01*
X149187265Y-87369432D01*
X149000858Y-87499954D01*
X148839954Y-87660858D01*
X148709433Y-87847264D01*
X148669620Y-87932642D01*
X148623447Y-87985081D01*
X148556253Y-88004232D01*
X148495239Y-87987624D01*
X148463604Y-87969360D01*
X148463604Y-87969359D01*
X148463600Y-87969358D01*
X148413485Y-87940423D01*
X148286668Y-87906442D01*
X148227010Y-87870078D01*
X148211376Y-87848667D01*
X148210575Y-87847281D01*
X148210568Y-87847266D01*
X148080047Y-87660861D01*
X148080045Y-87660858D01*
X147919141Y-87499954D01*
X147732734Y-87369432D01*
X147732732Y-87369431D01*
X147526497Y-87273261D01*
X147526488Y-87273258D01*
X147306697Y-87214366D01*
X147306693Y-87214365D01*
X147306692Y-87214365D01*
X147306691Y-87214364D01*
X147306686Y-87214364D01*
X147080002Y-87194532D01*
X147079998Y-87194532D01*
X146853313Y-87214364D01*
X146853302Y-87214366D01*
X146633511Y-87273258D01*
X146633502Y-87273261D01*
X146427267Y-87369431D01*
X146427265Y-87369432D01*
X146240858Y-87499954D01*
X146079954Y-87660858D01*
X145949432Y-87847265D01*
X145949431Y-87847267D01*
X145853261Y-88053502D01*
X145853258Y-88053511D01*
X145794366Y-88273302D01*
X145794364Y-88273313D01*
X145774532Y-88499998D01*
X145774532Y-88500001D01*
X145794364Y-88726686D01*
X145794366Y-88726697D01*
X145853258Y-88946488D01*
X145853261Y-88946497D01*
X145949431Y-89152732D01*
X145949432Y-89152734D01*
X146079954Y-89339141D01*
X146240858Y-89500045D01*
X146313951Y-89551225D01*
X146357576Y-89605801D01*
X146364770Y-89675300D01*
X146333247Y-89737655D01*
X146273018Y-89773069D01*
X146242828Y-89776800D01*
X137756296Y-89776800D01*
X137689257Y-89757115D01*
X137643502Y-89704311D01*
X137633558Y-89635153D01*
X137642221Y-89616182D01*
X137645472Y-89579025D01*
X136966447Y-88900000D01*
X136972661Y-88900000D01*
X137074394Y-88872741D01*
X137165606Y-88820080D01*
X137240080Y-88745606D01*
X137292741Y-88654394D01*
X137320000Y-88552661D01*
X137320000Y-88546447D01*
X137999024Y-89225471D01*
X138050136Y-89152478D01*
X138146266Y-88946327D01*
X138146269Y-88946317D01*
X138205139Y-88726610D01*
X138205141Y-88726599D01*
X138224966Y-88500002D01*
X138224966Y-88499997D01*
X138205141Y-88273400D01*
X138205139Y-88273389D01*
X138146269Y-88053682D01*
X138146264Y-88053668D01*
X138050136Y-87847521D01*
X138050132Y-87847513D01*
X137999025Y-87774526D01*
X137320000Y-88453551D01*
X137320000Y-88447339D01*
X137292741Y-88345606D01*
X137240080Y-88254394D01*
X137165606Y-88179920D01*
X137074394Y-88127259D01*
X136972661Y-88100000D01*
X136966445Y-88100000D01*
X137645472Y-87420974D01*
X137572478Y-87369863D01*
X137366331Y-87273735D01*
X137366317Y-87273730D01*
X137146610Y-87214860D01*
X137146599Y-87214858D01*
X136920002Y-87195034D01*
X136919998Y-87195034D01*
X136693400Y-87214858D01*
X136693389Y-87214860D01*
X136473682Y-87273730D01*
X136473673Y-87273734D01*
X136267516Y-87369866D01*
X136267512Y-87369868D01*
X136194526Y-87420973D01*
X136194526Y-87420974D01*
X136873553Y-88100000D01*
X136867339Y-88100000D01*
X136765606Y-88127259D01*
X136674394Y-88179920D01*
X136599920Y-88254394D01*
X136547259Y-88345606D01*
X136520000Y-88447339D01*
X136520000Y-88453552D01*
X135840974Y-87774526D01*
X135840973Y-87774526D01*
X135789868Y-87847512D01*
X135789866Y-87847516D01*
X135693734Y-88053673D01*
X135693730Y-88053682D01*
X135634860Y-88273389D01*
X135634858Y-88273400D01*
X135615034Y-88499997D01*
X135615034Y-88500002D01*
X135634858Y-88726599D01*
X135634860Y-88726610D01*
X135693730Y-88946317D01*
X135693734Y-88946327D01*
X135789863Y-89152478D01*
X135840974Y-89225472D01*
X136520000Y-88546446D01*
X136520000Y-88552661D01*
X136547259Y-88654394D01*
X136599920Y-88745606D01*
X136674394Y-88820080D01*
X136765606Y-88872741D01*
X136867339Y-88900000D01*
X136873553Y-88900000D01*
X136194526Y-89579025D01*
X136196675Y-89603583D01*
X136198451Y-89605805D01*
X136205642Y-89675304D01*
X136174118Y-89737658D01*
X136113887Y-89773070D01*
X136083701Y-89776800D01*
X135880670Y-89776800D01*
X135880654Y-89776799D01*
X135873058Y-89776799D01*
X135714943Y-89776799D01*
X135638579Y-89797261D01*
X135562214Y-89817723D01*
X135562209Y-89817726D01*
X135425290Y-89896775D01*
X135425282Y-89896781D01*
X130773970Y-94548093D01*
X130712647Y-94581578D01*
X130663506Y-94582301D01*
X130601977Y-94570800D01*
X130601976Y-94570800D01*
X130398024Y-94570800D01*
X130197544Y-94608276D01*
X130197541Y-94608276D01*
X130197541Y-94608277D01*
X130007364Y-94681951D01*
X130007357Y-94681955D01*
X129833960Y-94789317D01*
X129833958Y-94789319D01*
X129683237Y-94926718D01*
X129560327Y-95089478D01*
X129469422Y-95272039D01*
X129469417Y-95272052D01*
X129413602Y-95468217D01*
X129394785Y-95671299D01*
X129394785Y-95671300D01*
X129413602Y-95874382D01*
X129469417Y-96070547D01*
X129469422Y-96070560D01*
X129560327Y-96253121D01*
X129683237Y-96415881D01*
X129833958Y-96553280D01*
X129833960Y-96553282D01*
X129895362Y-96591300D01*
X130007363Y-96660648D01*
X130178820Y-96727070D01*
X130234221Y-96769643D01*
X130257812Y-96835410D01*
X130242101Y-96903490D01*
X130192077Y-96952269D01*
X130172348Y-96960626D01*
X130077555Y-96991427D01*
X130077552Y-96991428D01*
X130077550Y-96991429D01*
X129923211Y-97070068D01*
X129868117Y-97110097D01*
X129783072Y-97171886D01*
X129783070Y-97171888D01*
X129783069Y-97171888D01*
X129660588Y-97294369D01*
X129660588Y-97294370D01*
X129660586Y-97294372D01*
X129637696Y-97325877D01*
X129558768Y-97434511D01*
X129480128Y-97588852D01*
X129426597Y-97753602D01*
X129399500Y-97924689D01*
X129399500Y-98497910D01*
X129424615Y-98656485D01*
X129426598Y-98669001D01*
X129480127Y-98833745D01*
X129558768Y-98988088D01*
X129660586Y-99128228D01*
X129783072Y-99250714D01*
X129923212Y-99352532D01*
X130077555Y-99431173D01*
X130242299Y-99484702D01*
X130413389Y-99511800D01*
X130413390Y-99511800D01*
X130586610Y-99511800D01*
X130586611Y-99511800D01*
X130757701Y-99484702D01*
X130922445Y-99431173D01*
X131076788Y-99352532D01*
X131216928Y-99250714D01*
X131339414Y-99128228D01*
X131441232Y-98988088D01*
X131513944Y-98845380D01*
X131561915Y-98794587D01*
X131592330Y-98781904D01*
X131633485Y-98770877D01*
X131688751Y-98738969D01*
X131770416Y-98691820D01*
X131789117Y-98673119D01*
X131850440Y-98639634D01*
X131876798Y-98636800D01*
X136994202Y-98636800D01*
X137061241Y-98656485D01*
X137106996Y-98709289D01*
X137116940Y-98778447D01*
X137087915Y-98842003D01*
X137081883Y-98848481D01*
X136992781Y-98937582D01*
X136992775Y-98937590D01*
X136913726Y-99074509D01*
X136913723Y-99074516D01*
X136872800Y-99227243D01*
X136872800Y-100497243D01*
X136872800Y-100655357D01*
X136907395Y-100784465D01*
X136913723Y-100808083D01*
X136913726Y-100808090D01*
X136992775Y-100945009D01*
X136992781Y-100945017D01*
X137081883Y-101034119D01*
X137115368Y-101095442D01*
X137110384Y-101165134D01*
X137068512Y-101221067D01*
X137003048Y-101245484D01*
X136994202Y-101245800D01*
X136580097Y-101245800D01*
X136513058Y-101226115D01*
X136492416Y-101209481D01*
X136067400Y-100784465D01*
X136033915Y-100723142D01*
X136031863Y-100710686D01*
X136022068Y-100623745D01*
X135962489Y-100453478D01*
X135866516Y-100300738D01*
X135738962Y-100173184D01*
X135586223Y-100077211D01*
X135415954Y-100017631D01*
X135415949Y-100017630D01*
X135236704Y-99997435D01*
X135236696Y-99997435D01*
X135057450Y-100017630D01*
X135057445Y-100017631D01*
X134887176Y-100077211D01*
X134734437Y-100173184D01*
X134606884Y-100300737D01*
X134510911Y-100453476D01*
X134451331Y-100623745D01*
X134451330Y-100623750D01*
X134431135Y-100802996D01*
X134431135Y-100803003D01*
X134451330Y-100982249D01*
X134451331Y-100982254D01*
X134510911Y-101152523D01*
X134590363Y-101278969D01*
X134606884Y-101305262D01*
X134734438Y-101432816D01*
X134887178Y-101528789D01*
X135057445Y-101588368D01*
X135144369Y-101598161D01*
X135208780Y-101625226D01*
X135218165Y-101633700D01*
X135795139Y-102210674D01*
X135795149Y-102210685D01*
X135799479Y-102215015D01*
X135799480Y-102215016D01*
X135911284Y-102326820D01*
X135998095Y-102376939D01*
X135998097Y-102376941D01*
X136036151Y-102398911D01*
X136048215Y-102405877D01*
X136200943Y-102446801D01*
X136200946Y-102446801D01*
X136366653Y-102446801D01*
X136366669Y-102446800D01*
X136748800Y-102446800D01*
X136815839Y-102466485D01*
X136861594Y-102519289D01*
X136872800Y-102570800D01*
X136872800Y-103037242D01*
X136872800Y-103037243D01*
X136872800Y-103195357D01*
X136899441Y-103294780D01*
X136913723Y-103348083D01*
X136913726Y-103348090D01*
X136992775Y-103485009D01*
X136992778Y-103485013D01*
X136992780Y-103485016D01*
X137104584Y-103596820D01*
X137104586Y-103596821D01*
X137104590Y-103596824D01*
X137191393Y-103646939D01*
X137241516Y-103675877D01*
X137304994Y-103692885D01*
X137364653Y-103729250D01*
X137372165Y-103738348D01*
X137417455Y-103798847D01*
X137532664Y-103885093D01*
X137532671Y-103885097D01*
X137667517Y-103935391D01*
X137667516Y-103935391D01*
X137674444Y-103936135D01*
X137727127Y-103941800D01*
X139372872Y-103941799D01*
X139432483Y-103935391D01*
X139567331Y-103885096D01*
X139682546Y-103798846D01*
X139768796Y-103683631D01*
X139819091Y-103548783D01*
X139825500Y-103489173D01*
X139825499Y-102743428D01*
X139819091Y-102683817D01*
X139819091Y-102683816D01*
X139768797Y-102548970D01*
X139764547Y-102541188D01*
X139767757Y-102539434D01*
X139749361Y-102490301D01*
X139764127Y-102422009D01*
X139764752Y-102421036D01*
X139768797Y-102413629D01*
X139782481Y-102376939D01*
X139819091Y-102278783D01*
X139825500Y-102219173D01*
X139825499Y-101473428D01*
X139819091Y-101413817D01*
X139776092Y-101298530D01*
X139771108Y-101228838D01*
X139804593Y-101167515D01*
X139851565Y-101140396D01*
X139850981Y-101138985D01*
X139858482Y-101135877D01*
X139858485Y-101135877D01*
X139915923Y-101102715D01*
X139995416Y-101056820D01*
X140107220Y-100945016D01*
X140107220Y-100945014D01*
X140117424Y-100934811D01*
X140117428Y-100934806D01*
X140165396Y-100886837D01*
X140226717Y-100853354D01*
X140296409Y-100858338D01*
X140352342Y-100900210D01*
X140376295Y-100960634D01*
X140378731Y-100982251D01*
X140378731Y-100982254D01*
X140438311Y-101152523D01*
X140517763Y-101278969D01*
X140534284Y-101305262D01*
X140661838Y-101432816D01*
X140752180Y-101489582D01*
X140812526Y-101527500D01*
X140814578Y-101528789D01*
X140984842Y-101588367D01*
X140984845Y-101588368D01*
X140984850Y-101588369D01*
X141164096Y-101608565D01*
X141164100Y-101608565D01*
X141164104Y-101608565D01*
X141343349Y-101588369D01*
X141343352Y-101588368D01*
X141343355Y-101588368D01*
X141513622Y-101528789D01*
X141666362Y-101432816D01*
X141666367Y-101432810D01*
X141669197Y-101430555D01*
X141671375Y-101429665D01*
X141672258Y-101429111D01*
X141672355Y-101429265D01*
X141733883Y-101404145D01*
X141746512Y-101403500D01*
X141972100Y-101403500D01*
X142039139Y-101423185D01*
X142084894Y-101475989D01*
X142096100Y-101527500D01*
X142096100Y-102802930D01*
X142096099Y-102802948D01*
X142096099Y-102968654D01*
X142096098Y-102968654D01*
X142137023Y-103121385D01*
X142165958Y-103171500D01*
X142165959Y-103171504D01*
X142165960Y-103171504D01*
X142216079Y-103258314D01*
X142216081Y-103258317D01*
X142334949Y-103377185D01*
X142334955Y-103377190D01*
X142438439Y-103480674D01*
X142438449Y-103480685D01*
X142442779Y-103485015D01*
X142442780Y-103485016D01*
X142554584Y-103596820D01*
X142641395Y-103646939D01*
X142641397Y-103646941D01*
X142679451Y-103668911D01*
X142691515Y-103675877D01*
X142754993Y-103692885D01*
X142814653Y-103729250D01*
X142822165Y-103738348D01*
X142867455Y-103798847D01*
X142982664Y-103885093D01*
X142982671Y-103885097D01*
X143117517Y-103935391D01*
X143117516Y-103935391D01*
X143124444Y-103936135D01*
X143177127Y-103941800D01*
X144822872Y-103941799D01*
X144882483Y-103935391D01*
X145017331Y-103885096D01*
X145132546Y-103798846D01*
X145218796Y-103683631D01*
X145269091Y-103548783D01*
X145275500Y-103489173D01*
X145275499Y-102743428D01*
X145269091Y-102683817D01*
X145269091Y-102683816D01*
X145226092Y-102568529D01*
X145221108Y-102498837D01*
X145254593Y-102437514D01*
X145301563Y-102410401D01*
X145300977Y-102408986D01*
X145308473Y-102405879D01*
X145308484Y-102405877D01*
X145445416Y-102326820D01*
X145557220Y-102215016D01*
X145636277Y-102078084D01*
X145677200Y-101925357D01*
X145677200Y-99927560D01*
X145677201Y-99927547D01*
X145677201Y-99806398D01*
X145696886Y-99739359D01*
X145749690Y-99693604D01*
X145818848Y-99683660D01*
X145882404Y-99712685D01*
X145888882Y-99718717D01*
X146360839Y-100190674D01*
X146360849Y-100190685D01*
X146365179Y-100195015D01*
X146365180Y-100195016D01*
X146476984Y-100306820D01*
X146542276Y-100344516D01*
X146613915Y-100385877D01*
X146766642Y-100426800D01*
X146766643Y-100426800D01*
X149179192Y-100426800D01*
X149246231Y-100446485D01*
X149266874Y-100463120D01*
X149298129Y-100494376D01*
X149298133Y-100494379D01*
X149298135Y-100494381D01*
X149439602Y-100578044D01*
X149442356Y-100578844D01*
X149597426Y-100623897D01*
X149597429Y-100623897D01*
X149597431Y-100623898D01*
X149634306Y-100626800D01*
X149634314Y-100626800D01*
X151415686Y-100626800D01*
X151415694Y-100626800D01*
X151452569Y-100623898D01*
X151452571Y-100623897D01*
X151452573Y-100623897D01*
X151494191Y-100611805D01*
X151610398Y-100578044D01*
X151751865Y-100494381D01*
X151868081Y-100378165D01*
X151951744Y-100236698D01*
X151995601Y-100085744D01*
X151997597Y-100078873D01*
X151997598Y-100078867D01*
X151997728Y-100077211D01*
X152000500Y-100041994D01*
X152000500Y-100041972D01*
X152000541Y-100040943D01*
X152000595Y-100040781D01*
X152000691Y-100039567D01*
X152000996Y-100039591D01*
X152022836Y-99974726D01*
X152077391Y-99931074D01*
X152124446Y-99921799D01*
X153875554Y-99921799D01*
X153942593Y-99941484D01*
X153988348Y-99994288D01*
X153999134Y-100039580D01*
X153999309Y-100039567D01*
X153999396Y-100040681D01*
X153999459Y-100040943D01*
X153999500Y-100041998D01*
X154002401Y-100078867D01*
X154002402Y-100078873D01*
X154048254Y-100236693D01*
X154048255Y-100236696D01*
X154048256Y-100236698D01*
X154085681Y-100299981D01*
X154131917Y-100378162D01*
X154131923Y-100378170D01*
X154248129Y-100494376D01*
X154248133Y-100494379D01*
X154248135Y-100494381D01*
X154389602Y-100578044D01*
X154392356Y-100578844D01*
X154547426Y-100623897D01*
X154547429Y-100623897D01*
X154547431Y-100623898D01*
X154584306Y-100626800D01*
X154584314Y-100626800D01*
X156365686Y-100626800D01*
X156365694Y-100626800D01*
X156402569Y-100623898D01*
X156402571Y-100623897D01*
X156402573Y-100623897D01*
X156444191Y-100611805D01*
X156560398Y-100578044D01*
X156701865Y-100494381D01*
X156818081Y-100378165D01*
X156901744Y-100236698D01*
X156945601Y-100085744D01*
X156947597Y-100078873D01*
X156947598Y-100078867D01*
X156947728Y-100077211D01*
X156950500Y-100041994D01*
X156950500Y-99610606D01*
X156947598Y-99573731D01*
X156921732Y-99484702D01*
X156901745Y-99415906D01*
X156901744Y-99415902D01*
X156888486Y-99393484D01*
X156859175Y-99343920D01*
X156841992Y-99276196D01*
X156864152Y-99209934D01*
X156918619Y-99166171D01*
X156965907Y-99156800D01*
X158584631Y-99156800D01*
X158584647Y-99156801D01*
X158592243Y-99156801D01*
X158750354Y-99156801D01*
X158750357Y-99156801D01*
X158903085Y-99115877D01*
X158932634Y-99098816D01*
X158980750Y-99082983D01*
X159083525Y-99071403D01*
X159125549Y-99066669D01*
X159125552Y-99066668D01*
X159125555Y-99066668D01*
X159295822Y-99007089D01*
X159448562Y-98911116D01*
X159576116Y-98783562D01*
X159672089Y-98630822D01*
X159731668Y-98460555D01*
X159736078Y-98421415D01*
X159751865Y-98281303D01*
X159751865Y-98281296D01*
X159731669Y-98102050D01*
X159731668Y-98102045D01*
X159672088Y-97931775D01*
X159658074Y-97909473D01*
X159639073Y-97842237D01*
X159659440Y-97775401D01*
X159712707Y-97730187D01*
X159763067Y-97719500D01*
X162134518Y-97719500D01*
X162201557Y-97739185D01*
X162247312Y-97791989D01*
X162257256Y-97861147D01*
X162254293Y-97875593D01*
X162214366Y-98024602D01*
X162214364Y-98024613D01*
X162194532Y-98251298D01*
X162194532Y-98251301D01*
X162214364Y-98477986D01*
X162214366Y-98477997D01*
X162273258Y-98697788D01*
X162273261Y-98697797D01*
X162369431Y-98904032D01*
X162369432Y-98904034D01*
X162499954Y-99090441D01*
X162660858Y-99251345D01*
X162660861Y-99251347D01*
X162847266Y-99381868D01*
X163053504Y-99478039D01*
X163273308Y-99536935D01*
X163435230Y-99551101D01*
X163499998Y-99556768D01*
X163500000Y-99556768D01*
X163500002Y-99556768D01*
X163556673Y-99551809D01*
X163726692Y-99536935D01*
X163946496Y-99478039D01*
X164152734Y-99381868D01*
X164339139Y-99251347D01*
X164500047Y-99090439D01*
X164630568Y-98904034D01*
X164726739Y-98697796D01*
X164785635Y-98477992D01*
X164805468Y-98251300D01*
X164785635Y-98024608D01*
X164757954Y-97921300D01*
X164745707Y-97875593D01*
X164747370Y-97805743D01*
X164786533Y-97747881D01*
X164850761Y-97720377D01*
X164865482Y-97719500D01*
X168324242Y-97719500D01*
X168391281Y-97739185D01*
X168437036Y-97791989D01*
X168446980Y-97861147D01*
X168424560Y-97916384D01*
X168418527Y-97924689D01*
X168333909Y-98041155D01*
X168250953Y-98203966D01*
X168250952Y-98203968D01*
X168250952Y-98203969D01*
X168235574Y-98251298D01*
X168194484Y-98377758D01*
X168165900Y-98558229D01*
X168165900Y-100061770D01*
X168193606Y-100236696D01*
X168194485Y-100242245D01*
X168250952Y-100416031D01*
X168333909Y-100578844D01*
X168441315Y-100726676D01*
X168570524Y-100855885D01*
X168718356Y-100963291D01*
X168881169Y-101046248D01*
X169054955Y-101102715D01*
X169122635Y-101113434D01*
X169235430Y-101131300D01*
X169235435Y-101131300D01*
X169418170Y-101131300D01*
X169518431Y-101115419D01*
X169598645Y-101102715D01*
X169772431Y-101046248D01*
X169935244Y-100963291D01*
X170083076Y-100855885D01*
X170212285Y-100726676D01*
X170319691Y-100578844D01*
X170402648Y-100416031D01*
X170459115Y-100242245D01*
X170474327Y-100146202D01*
X170504256Y-100083067D01*
X170563568Y-100046136D01*
X170633430Y-100047134D01*
X170691663Y-100085744D01*
X170719273Y-100146202D01*
X170733606Y-100236696D01*
X170734485Y-100242245D01*
X170790952Y-100416031D01*
X170873909Y-100578844D01*
X170981315Y-100726676D01*
X171110524Y-100855885D01*
X171258356Y-100963291D01*
X171421169Y-101046248D01*
X171594955Y-101102715D01*
X171662635Y-101113434D01*
X171775430Y-101131300D01*
X171775435Y-101131300D01*
X171958170Y-101131300D01*
X172058431Y-101115419D01*
X172138645Y-101102715D01*
X172312431Y-101046248D01*
X172475244Y-100963291D01*
X172623076Y-100855885D01*
X172752285Y-100726676D01*
X172859691Y-100578844D01*
X172942648Y-100416031D01*
X172999115Y-100242245D01*
X173014327Y-100146202D01*
X173044256Y-100083067D01*
X173103568Y-100046136D01*
X173173430Y-100047134D01*
X173231663Y-100085744D01*
X173259273Y-100146202D01*
X173273606Y-100236696D01*
X173274485Y-100242245D01*
X173330952Y-100416031D01*
X173413909Y-100578844D01*
X173521315Y-100726676D01*
X173650524Y-100855885D01*
X173798356Y-100963291D01*
X173961169Y-101046248D01*
X174134955Y-101102715D01*
X174202635Y-101113434D01*
X174315430Y-101131300D01*
X174315435Y-101131300D01*
X174498170Y-101131300D01*
X174598431Y-101115419D01*
X174678645Y-101102715D01*
X174852431Y-101046248D01*
X175015244Y-100963291D01*
X175163076Y-100855885D01*
X175292285Y-100726676D01*
X175399691Y-100578844D01*
X175482648Y-100416031D01*
X175539115Y-100242245D01*
X175554327Y-100146202D01*
X175584256Y-100083067D01*
X175643568Y-100046136D01*
X175713430Y-100047134D01*
X175771663Y-100085744D01*
X175799273Y-100146202D01*
X175813606Y-100236696D01*
X175814485Y-100242245D01*
X175870952Y-100416031D01*
X175953909Y-100578844D01*
X176061315Y-100726676D01*
X176190524Y-100855885D01*
X176338356Y-100963291D01*
X176501169Y-101046248D01*
X176674955Y-101102715D01*
X176742635Y-101113434D01*
X176855430Y-101131300D01*
X176855435Y-101131300D01*
X177038170Y-101131300D01*
X177138431Y-101115419D01*
X177218645Y-101102715D01*
X177392431Y-101046248D01*
X177555244Y-100963291D01*
X177703076Y-100855885D01*
X177832285Y-100726676D01*
X177939691Y-100578844D01*
X178022648Y-100416031D01*
X178079115Y-100242245D01*
X178094327Y-100146202D01*
X178107700Y-100061770D01*
X178107700Y-98558229D01*
X178084091Y-98409173D01*
X178079115Y-98377755D01*
X178022648Y-98203969D01*
X177939691Y-98041156D01*
X177832285Y-97893324D01*
X177703076Y-97764115D01*
X177555244Y-97656709D01*
X177392431Y-97573752D01*
X177218645Y-97517285D01*
X177218643Y-97517284D01*
X177218641Y-97517284D01*
X177038170Y-97488700D01*
X177038165Y-97488700D01*
X176855435Y-97488700D01*
X176855430Y-97488700D01*
X176674958Y-97517284D01*
X176501166Y-97573753D01*
X176338355Y-97656709D01*
X176190521Y-97764117D01*
X176061317Y-97893321D01*
X175953909Y-98041155D01*
X175870953Y-98203966D01*
X175870952Y-98203968D01*
X175870952Y-98203969D01*
X175855574Y-98251298D01*
X175814484Y-98377758D01*
X175799273Y-98473797D01*
X175769344Y-98536932D01*
X175710032Y-98573863D01*
X175640169Y-98572865D01*
X175581937Y-98534255D01*
X175554327Y-98473797D01*
X175543432Y-98405013D01*
X175539115Y-98377755D01*
X175482648Y-98203969D01*
X175399691Y-98041156D01*
X175292285Y-97893324D01*
X175163076Y-97764115D01*
X175056584Y-97686744D01*
X175013920Y-97631415D01*
X175010002Y-97616135D01*
X175009405Y-97616296D01*
X175006060Y-97603817D01*
X175006057Y-97603805D01*
X174987647Y-97535097D01*
X174987647Y-97535096D01*
X174966377Y-97455716D01*
X174954135Y-97434512D01*
X174887324Y-97318790D01*
X174887321Y-97318786D01*
X174887320Y-97318784D01*
X174775516Y-97206980D01*
X174775515Y-97206979D01*
X174771185Y-97202649D01*
X174771174Y-97202639D01*
X174325890Y-96757355D01*
X174325888Y-96757352D01*
X174207017Y-96638481D01*
X174207009Y-96638475D01*
X174085227Y-96568165D01*
X174085224Y-96568164D01*
X174070085Y-96559423D01*
X173917357Y-96518499D01*
X173759243Y-96518499D01*
X173751647Y-96518499D01*
X173751631Y-96518500D01*
X157488200Y-96518500D01*
X157421161Y-96498815D01*
X157375406Y-96446011D01*
X157364200Y-96394500D01*
X157364200Y-95312843D01*
X157364199Y-95312840D01*
X157352302Y-95268437D01*
X157323277Y-95160115D01*
X157260741Y-95051800D01*
X157256979Y-95045284D01*
X157244222Y-95023187D01*
X157244221Y-95023186D01*
X157244220Y-95023184D01*
X157132416Y-94911380D01*
X157132415Y-94911379D01*
X157128085Y-94907049D01*
X157128074Y-94907039D01*
X156813300Y-94592265D01*
X156779815Y-94530942D01*
X156777763Y-94518486D01*
X156767968Y-94431545D01*
X156708389Y-94261278D01*
X156612416Y-94108538D01*
X156484862Y-93980984D01*
X156332123Y-93885011D01*
X156161854Y-93825431D01*
X156161849Y-93825430D01*
X155982604Y-93805235D01*
X155982596Y-93805235D01*
X155803350Y-93825430D01*
X155803345Y-93825431D01*
X155633076Y-93885011D01*
X155480337Y-93980984D01*
X155352784Y-94108537D01*
X155256811Y-94261276D01*
X155197231Y-94431545D01*
X155197230Y-94431550D01*
X155177035Y-94610796D01*
X155177035Y-94610803D01*
X155197230Y-94790049D01*
X155197231Y-94790054D01*
X155256811Y-94960323D01*
X155297971Y-95025828D01*
X155316971Y-95093065D01*
X155296603Y-95159900D01*
X155243335Y-95205114D01*
X155192977Y-95215800D01*
X154584298Y-95215800D01*
X154547432Y-95218701D01*
X154547426Y-95218702D01*
X154389606Y-95264554D01*
X154389603Y-95264555D01*
X154248137Y-95348217D01*
X154248129Y-95348223D01*
X154131923Y-95464429D01*
X154131917Y-95464437D01*
X154048255Y-95605903D01*
X154047398Y-95607884D01*
X154046313Y-95609187D01*
X154044285Y-95612617D01*
X154043731Y-95612289D01*
X154002702Y-95661587D01*
X153936067Y-95682601D01*
X153868650Y-95664254D01*
X153821853Y-95612371D01*
X153810381Y-95572509D01*
X153803569Y-95512050D01*
X153803568Y-95512045D01*
X153786909Y-95464437D01*
X153743989Y-95341778D01*
X153648016Y-95189038D01*
X153520462Y-95061484D01*
X153453144Y-95019185D01*
X153367721Y-94965510D01*
X153200647Y-94907049D01*
X153197455Y-94905932D01*
X153197454Y-94905931D01*
X153197449Y-94905930D01*
X153054740Y-94889851D01*
X153006624Y-94874018D01*
X152993528Y-94866457D01*
X152993526Y-94866455D01*
X152979632Y-94858434D01*
X152972685Y-94854423D01*
X152819957Y-94813499D01*
X152661843Y-94813499D01*
X152654247Y-94813499D01*
X152654231Y-94813500D01*
X149371842Y-94813500D01*
X149219114Y-94854423D01*
X149219113Y-94854423D01*
X149198270Y-94866456D01*
X149198271Y-94866457D01*
X149082187Y-94933477D01*
X149082182Y-94933481D01*
X148767179Y-95248484D01*
X148753574Y-95272050D01*
X148735946Y-95302584D01*
X148730025Y-95312840D01*
X148688123Y-95385414D01*
X148678278Y-95422158D01*
X148647199Y-95538143D01*
X148647199Y-95538145D01*
X148647199Y-95706246D01*
X148647200Y-95706259D01*
X148647200Y-96321030D01*
X148647199Y-96321048D01*
X148647199Y-96486754D01*
X148647198Y-96486754D01*
X148688123Y-96639485D01*
X148700342Y-96660648D01*
X148700343Y-96660651D01*
X148767175Y-96776409D01*
X148767181Y-96776417D01*
X148886049Y-96895285D01*
X148886055Y-96895290D01*
X149013181Y-97022416D01*
X149046666Y-97083739D01*
X149049500Y-97110097D01*
X149049500Y-97502001D01*
X149052401Y-97538867D01*
X149052402Y-97538873D01*
X149098254Y-97696693D01*
X149098257Y-97696700D01*
X149140825Y-97768680D01*
X149158008Y-97836404D01*
X149135848Y-97902666D01*
X149081381Y-97946429D01*
X149034093Y-97955800D01*
X148325697Y-97955800D01*
X148258658Y-97936115D01*
X148238016Y-97919481D01*
X148091600Y-97773065D01*
X148058115Y-97711742D01*
X148056063Y-97699286D01*
X148046268Y-97612345D01*
X147986689Y-97442078D01*
X147890716Y-97289338D01*
X147763162Y-97161784D01*
X147680903Y-97110097D01*
X147610423Y-97065811D01*
X147440154Y-97006231D01*
X147440149Y-97006230D01*
X147260904Y-96986035D01*
X147260896Y-96986035D01*
X147081650Y-97006230D01*
X147081645Y-97006231D01*
X146911376Y-97065811D01*
X146758637Y-97161784D01*
X146631084Y-97289337D01*
X146535111Y-97442076D01*
X146475531Y-97612345D01*
X146475530Y-97612350D01*
X146455335Y-97791596D01*
X146455335Y-97791603D01*
X146475530Y-97970849D01*
X146475531Y-97970854D01*
X146535111Y-98141123D01*
X146585918Y-98221981D01*
X146631084Y-98293862D01*
X146758638Y-98421416D01*
X146911378Y-98517389D01*
X147081645Y-98576968D01*
X147168569Y-98586761D01*
X147232980Y-98613826D01*
X147242365Y-98622300D01*
X147540739Y-98920674D01*
X147540749Y-98920685D01*
X147545079Y-98925015D01*
X147545080Y-98925016D01*
X147634184Y-99014120D01*
X147667668Y-99075441D01*
X147662684Y-99145133D01*
X147620813Y-99201067D01*
X147555349Y-99225484D01*
X147546502Y-99225800D01*
X147145797Y-99225800D01*
X147078758Y-99206115D01*
X147058116Y-99189481D01*
X146209490Y-98340855D01*
X146209488Y-98340852D01*
X146090617Y-98221981D01*
X146090616Y-98221980D01*
X145997152Y-98168019D01*
X145953685Y-98142923D01*
X145946964Y-98141122D01*
X145800954Y-98101998D01*
X145792897Y-98100938D01*
X145793071Y-98099612D01*
X145734161Y-98082314D01*
X145688406Y-98029510D01*
X145677200Y-97977999D01*
X145677200Y-94526397D01*
X145696885Y-94459358D01*
X145713519Y-94438716D01*
X148536417Y-91615819D01*
X148597740Y-91582334D01*
X148624098Y-91579500D01*
X168041900Y-91579500D01*
X168108939Y-91599185D01*
X168154694Y-91651989D01*
X168165900Y-91703500D01*
X168165900Y-92441770D01*
X168179273Y-92526202D01*
X168194485Y-92622245D01*
X168250952Y-92796031D01*
X168333909Y-92958844D01*
X168441315Y-93106676D01*
X168570524Y-93235885D01*
X168718356Y-93343291D01*
X168881169Y-93426248D01*
X169054955Y-93482715D01*
X169122635Y-93493434D01*
X169235430Y-93511300D01*
X169235435Y-93511300D01*
X169418170Y-93511300D01*
X169518431Y-93495419D01*
X169598645Y-93482715D01*
X169772431Y-93426248D01*
X169935244Y-93343291D01*
X170083076Y-93235885D01*
X170212285Y-93106676D01*
X170319691Y-92958844D01*
X170402648Y-92796031D01*
X170459115Y-92622245D01*
X170474327Y-92526202D01*
X170504256Y-92463067D01*
X170563568Y-92426136D01*
X170633430Y-92427134D01*
X170691663Y-92465744D01*
X170719273Y-92526202D01*
X170734485Y-92622245D01*
X170790952Y-92796031D01*
X170873909Y-92958844D01*
X170981315Y-93106676D01*
X171110524Y-93235885D01*
X171258356Y-93343291D01*
X171421169Y-93426248D01*
X171594955Y-93482715D01*
X171662635Y-93493434D01*
X171775430Y-93511300D01*
X171775435Y-93511300D01*
X171958170Y-93511300D01*
X172058431Y-93495419D01*
X172138645Y-93482715D01*
X172312431Y-93426248D01*
X172475244Y-93343291D01*
X172623076Y-93235885D01*
X172752285Y-93106676D01*
X172859691Y-92958844D01*
X172942648Y-92796031D01*
X172999115Y-92622245D01*
X173014327Y-92526202D01*
X173044256Y-92463067D01*
X173103568Y-92426136D01*
X173173430Y-92427134D01*
X173231663Y-92465744D01*
X173259273Y-92526202D01*
X173274485Y-92622245D01*
X173330952Y-92796031D01*
X173413909Y-92958844D01*
X173521315Y-93106676D01*
X173650524Y-93235885D01*
X173798356Y-93343291D01*
X173961169Y-93426248D01*
X174134955Y-93482715D01*
X174202635Y-93493434D01*
X174315430Y-93511300D01*
X174315435Y-93511300D01*
X174498170Y-93511300D01*
X174598431Y-93495419D01*
X174678645Y-93482715D01*
X174852431Y-93426248D01*
X175015244Y-93343291D01*
X175163076Y-93235885D01*
X175292285Y-93106676D01*
X175399691Y-92958844D01*
X175482648Y-92796031D01*
X175539115Y-92622245D01*
X175554327Y-92526202D01*
X175584256Y-92463067D01*
X175643568Y-92426136D01*
X175713430Y-92427134D01*
X175771663Y-92465744D01*
X175799273Y-92526202D01*
X175814485Y-92622245D01*
X175870952Y-92796031D01*
X175953909Y-92958844D01*
X176061315Y-93106676D01*
X176190524Y-93235885D01*
X176338356Y-93343291D01*
X176501169Y-93426248D01*
X176674955Y-93482715D01*
X176742635Y-93493434D01*
X176855430Y-93511300D01*
X176855435Y-93511300D01*
X177038170Y-93511300D01*
X177138431Y-93495419D01*
X177218645Y-93482715D01*
X177392431Y-93426248D01*
X177555244Y-93343291D01*
X177703076Y-93235885D01*
X177832285Y-93106676D01*
X177939691Y-92958844D01*
X178022648Y-92796031D01*
X178079115Y-92622245D01*
X178094327Y-92526202D01*
X178107700Y-92441770D01*
X178107700Y-90938229D01*
X178079115Y-90757758D01*
X178079115Y-90757755D01*
X178022648Y-90583969D01*
X177939691Y-90421156D01*
X177832285Y-90273324D01*
X177703076Y-90144115D01*
X177555244Y-90036709D01*
X177392431Y-89953752D01*
X177218645Y-89897285D01*
X177218643Y-89897284D01*
X177218641Y-89897284D01*
X177038170Y-89868700D01*
X177038165Y-89868700D01*
X176855435Y-89868700D01*
X176855430Y-89868700D01*
X176674958Y-89897284D01*
X176501166Y-89953753D01*
X176338355Y-90036709D01*
X176190521Y-90144117D01*
X176061317Y-90273321D01*
X175953909Y-90421155D01*
X175870953Y-90583966D01*
X175814484Y-90757758D01*
X175799273Y-90853797D01*
X175769344Y-90916932D01*
X175710032Y-90953863D01*
X175640169Y-90952865D01*
X175581937Y-90914255D01*
X175554327Y-90853797D01*
X175539115Y-90757758D01*
X175539115Y-90757755D01*
X175482648Y-90583969D01*
X175399691Y-90421156D01*
X175292285Y-90273324D01*
X175163076Y-90144115D01*
X175015244Y-90036709D01*
X174852431Y-89953752D01*
X174678645Y-89897285D01*
X174678643Y-89897284D01*
X174678641Y-89897284D01*
X174498170Y-89868700D01*
X174498165Y-89868700D01*
X174315435Y-89868700D01*
X174315430Y-89868700D01*
X174134958Y-89897284D01*
X173961166Y-89953753D01*
X173798355Y-90036709D01*
X173650521Y-90144117D01*
X173521317Y-90273321D01*
X173413909Y-90421155D01*
X173330953Y-90583966D01*
X173274484Y-90757758D01*
X173259273Y-90853797D01*
X173229344Y-90916932D01*
X173170032Y-90953863D01*
X173100169Y-90952865D01*
X173041937Y-90914255D01*
X173014327Y-90853797D01*
X172999115Y-90757758D01*
X172999115Y-90757755D01*
X172942648Y-90583969D01*
X172859691Y-90421156D01*
X172752285Y-90273324D01*
X172623076Y-90144115D01*
X172623072Y-90144112D01*
X172516587Y-90066746D01*
X172473921Y-90011416D01*
X172470002Y-89996133D01*
X172469404Y-89996294D01*
X172467301Y-89988445D01*
X172467301Y-89988443D01*
X172426377Y-89835715D01*
X172392362Y-89776800D01*
X172347320Y-89698784D01*
X172235516Y-89586980D01*
X172235515Y-89586979D01*
X172231185Y-89582649D01*
X172231174Y-89582639D01*
X172062490Y-89413955D01*
X172062488Y-89413952D01*
X171943617Y-89295081D01*
X171943616Y-89295080D01*
X171849705Y-89240861D01*
X171806685Y-89216023D01*
X171653957Y-89175099D01*
X171495843Y-89175099D01*
X171488247Y-89175099D01*
X171488231Y-89175100D01*
X171246897Y-89175100D01*
X171179858Y-89155415D01*
X171134103Y-89102611D01*
X171124159Y-89033453D01*
X171153184Y-88969897D01*
X171159216Y-88963419D01*
X171396036Y-88726599D01*
X172333600Y-87789033D01*
X172394921Y-87755550D01*
X172464612Y-87760534D01*
X172494164Y-87776398D01*
X172534799Y-87805921D01*
X172534800Y-87805922D01*
X172594043Y-87832298D01*
X172712529Y-87885051D01*
X172902826Y-87925500D01*
X173097374Y-87925500D01*
X173287671Y-87885051D01*
X173465399Y-87805922D01*
X173622792Y-87691569D01*
X173752970Y-87546992D01*
X173850244Y-87378508D01*
X173910362Y-87193482D01*
X173930698Y-87000000D01*
X173910362Y-86806518D01*
X173880250Y-86713844D01*
X173878256Y-86644006D01*
X173881995Y-86632210D01*
X173919191Y-86532483D01*
X173925600Y-86472873D01*
X173925599Y-85527128D01*
X173919191Y-85467517D01*
X173868896Y-85332669D01*
X173868895Y-85332668D01*
X173868893Y-85332664D01*
X173782647Y-85217455D01*
X173782644Y-85217452D01*
X173667435Y-85131206D01*
X173667428Y-85131202D01*
X173532582Y-85080908D01*
X173532583Y-85080908D01*
X173472983Y-85074501D01*
X173472981Y-85074500D01*
X173472973Y-85074500D01*
X173472964Y-85074500D01*
X172527229Y-85074500D01*
X172527223Y-85074501D01*
X172467616Y-85080908D01*
X172332771Y-85131202D01*
X172332764Y-85131206D01*
X172217555Y-85217452D01*
X172217552Y-85217455D01*
X172131306Y-85332664D01*
X172131302Y-85332671D01*
X172081008Y-85467517D01*
X172074601Y-85527116D01*
X172074601Y-85527123D01*
X172074600Y-85527135D01*
X172074600Y-85642203D01*
X172054915Y-85709242D01*
X172002111Y-85754997D01*
X171932953Y-85764941D01*
X171869397Y-85735916D01*
X171862919Y-85729884D01*
X169287890Y-83154855D01*
X169287888Y-83154852D01*
X169169017Y-83035981D01*
X169169016Y-83035980D01*
X169082204Y-82985860D01*
X169082204Y-82985859D01*
X169082200Y-82985858D01*
X169032085Y-82956923D01*
X168879357Y-82915999D01*
X168721243Y-82915999D01*
X168713647Y-82915999D01*
X168713631Y-82916000D01*
X164473849Y-82916000D01*
X164406810Y-82896315D01*
X164361055Y-82843511D01*
X164351111Y-82774353D01*
X164380136Y-82710797D01*
X164386168Y-82704319D01*
X164500045Y-82590441D01*
X164500047Y-82590439D01*
X164630568Y-82404034D01*
X164726739Y-82197796D01*
X164785635Y-81977992D01*
X164805468Y-81751300D01*
X164790481Y-81579998D01*
X169194532Y-81579998D01*
X169194532Y-81580001D01*
X169214364Y-81806686D01*
X169214366Y-81806697D01*
X169273258Y-82026488D01*
X169273261Y-82026497D01*
X169369431Y-82232732D01*
X169369432Y-82232734D01*
X169499954Y-82419141D01*
X169660858Y-82580045D01*
X169660861Y-82580047D01*
X169847266Y-82710568D01*
X170053504Y-82806739D01*
X170273308Y-82865635D01*
X170435230Y-82879801D01*
X170499998Y-82885468D01*
X170500000Y-82885468D01*
X170500002Y-82885468D01*
X170556673Y-82880509D01*
X170726692Y-82865635D01*
X170946496Y-82806739D01*
X171152734Y-82710568D01*
X171339139Y-82580047D01*
X171500047Y-82419139D01*
X171630568Y-82232734D01*
X171726739Y-82026496D01*
X171785635Y-81806692D01*
X171805468Y-81580000D01*
X171785635Y-81353308D01*
X171726739Y-81133504D01*
X171630568Y-80927266D01*
X171630080Y-80926569D01*
X171629960Y-80926214D01*
X171627862Y-80922580D01*
X171628592Y-80922158D01*
X171607750Y-80860367D01*
X171624757Y-80792599D01*
X171643967Y-80767766D01*
X172111735Y-80299998D01*
X180957145Y-80299998D01*
X180957145Y-80300001D01*
X180976539Y-80571160D01*
X180976540Y-80571167D01*
X181034323Y-80836793D01*
X181034325Y-80836801D01*
X181068068Y-80927269D01*
X181129330Y-81091519D01*
X181259609Y-81330107D01*
X181259610Y-81330108D01*
X181259613Y-81330113D01*
X181422529Y-81547742D01*
X181422533Y-81547746D01*
X181422538Y-81547752D01*
X181614747Y-81739961D01*
X181614753Y-81739966D01*
X181614758Y-81739971D01*
X181832387Y-81902887D01*
X181832391Y-81902889D01*
X181832392Y-81902890D01*
X182070981Y-82033169D01*
X182070980Y-82033169D01*
X182070984Y-82033170D01*
X182070987Y-82033172D01*
X182325699Y-82128175D01*
X182591340Y-82185961D01*
X182843105Y-82203967D01*
X182862499Y-82205355D01*
X182862500Y-82205355D01*
X182862501Y-82205355D01*
X182880600Y-82204060D01*
X183133660Y-82185961D01*
X183399301Y-82128175D01*
X183654013Y-82033172D01*
X183654017Y-82033169D01*
X183654019Y-82033169D01*
X183813060Y-81946326D01*
X183892613Y-81902887D01*
X184110242Y-81739971D01*
X184302471Y-81547742D01*
X184465387Y-81330113D01*
X184565775Y-81146265D01*
X184595669Y-81091519D01*
X184595669Y-81091517D01*
X184595672Y-81091513D01*
X184690675Y-80836801D01*
X184748461Y-80571160D01*
X184767855Y-80300000D01*
X184748461Y-80028840D01*
X184690675Y-79763199D01*
X184595672Y-79508487D01*
X184595670Y-79508484D01*
X184595669Y-79508480D01*
X184465390Y-79269892D01*
X184465389Y-79269891D01*
X184465387Y-79269887D01*
X184302471Y-79052258D01*
X184302466Y-79052253D01*
X184302461Y-79052247D01*
X184110252Y-78860038D01*
X184110246Y-78860033D01*
X184110242Y-78860029D01*
X183892613Y-78697113D01*
X183892608Y-78697110D01*
X183892607Y-78697109D01*
X183654018Y-78566830D01*
X183654019Y-78566830D01*
X183604420Y-78548330D01*
X183399301Y-78471825D01*
X183399294Y-78471823D01*
X183399293Y-78471823D01*
X183133667Y-78414040D01*
X183133660Y-78414039D01*
X182862501Y-78394645D01*
X182862499Y-78394645D01*
X182591339Y-78414039D01*
X182591332Y-78414040D01*
X182325706Y-78471823D01*
X182325702Y-78471824D01*
X182325699Y-78471825D01*
X182198343Y-78519326D01*
X182070980Y-78566830D01*
X181832392Y-78697109D01*
X181832391Y-78697110D01*
X181614759Y-78860028D01*
X181614747Y-78860038D01*
X181422538Y-79052247D01*
X181422528Y-79052259D01*
X181259610Y-79269891D01*
X181259609Y-79269892D01*
X181129330Y-79508480D01*
X181095225Y-79599920D01*
X181034325Y-79763199D01*
X181034324Y-79763202D01*
X181034323Y-79763206D01*
X180976540Y-80028832D01*
X180976539Y-80028839D01*
X180957145Y-80299998D01*
X172111735Y-80299998D01*
X174640207Y-77771526D01*
X174701528Y-77738043D01*
X174759979Y-77739434D01*
X174785922Y-77746385D01*
X174840166Y-77760920D01*
X175018033Y-77776481D01*
X175062499Y-77780372D01*
X175062500Y-77780372D01*
X175062501Y-77780372D01*
X175099555Y-77777130D01*
X175284834Y-77760920D01*
X175500413Y-77703156D01*
X175702686Y-77608835D01*
X175885507Y-77480822D01*
X176043322Y-77323007D01*
X176171335Y-77140186D01*
X176265656Y-76937913D01*
X176323420Y-76722334D01*
X176342872Y-76500000D01*
X176323420Y-76277666D01*
X176275052Y-76097154D01*
X176265658Y-76062094D01*
X176265657Y-76062093D01*
X176265656Y-76062087D01*
X176171335Y-75859814D01*
X176043322Y-75676993D01*
X175885507Y-75519178D01*
X175702686Y-75391165D01*
X175500413Y-75296844D01*
X175500409Y-75296843D01*
X175500405Y-75296841D01*
X175284839Y-75239081D01*
X175284829Y-75239079D01*
X175062501Y-75219628D01*
X175062499Y-75219628D01*
X174840170Y-75239079D01*
X174840160Y-75239081D01*
X174624594Y-75296841D01*
X174624587Y-75296843D01*
X174624587Y-75296844D01*
X174422314Y-75391165D01*
X174239493Y-75519178D01*
X174239491Y-75519179D01*
X174239488Y-75519182D01*
X174081682Y-75676988D01*
X174081679Y-75676991D01*
X174081678Y-75676993D01*
X174028394Y-75753090D01*
X173953665Y-75859814D01*
X173859345Y-76062085D01*
X173859341Y-76062094D01*
X173801581Y-76277660D01*
X173801579Y-76277670D01*
X173782128Y-76499999D01*
X173782128Y-76500000D01*
X173801579Y-76722329D01*
X173801581Y-76722339D01*
X173823065Y-76802518D01*
X173821402Y-76872368D01*
X173790971Y-76922292D01*
X170464771Y-80248492D01*
X170403448Y-80281977D01*
X170387898Y-80284339D01*
X170273312Y-80294364D01*
X170273302Y-80294366D01*
X170053511Y-80353258D01*
X170053502Y-80353261D01*
X169847267Y-80449431D01*
X169847265Y-80449432D01*
X169660858Y-80579954D01*
X169499954Y-80740858D01*
X169369432Y-80927265D01*
X169369431Y-80927267D01*
X169273261Y-81133502D01*
X169273258Y-81133511D01*
X169214366Y-81353302D01*
X169214364Y-81353313D01*
X169194532Y-81579998D01*
X164790481Y-81579998D01*
X164785635Y-81524608D01*
X164737672Y-81345606D01*
X164726741Y-81304811D01*
X164726738Y-81304802D01*
X164712049Y-81273302D01*
X164630568Y-81098566D01*
X164500047Y-80912161D01*
X164500045Y-80912158D01*
X164339141Y-80751254D01*
X164152734Y-80620732D01*
X164152732Y-80620731D01*
X163946497Y-80524561D01*
X163946488Y-80524558D01*
X163726697Y-80465666D01*
X163726693Y-80465665D01*
X163726692Y-80465665D01*
X163726691Y-80465664D01*
X163726686Y-80465664D01*
X163500002Y-80445832D01*
X163499998Y-80445832D01*
X163273313Y-80465664D01*
X163273302Y-80465666D01*
X163053511Y-80524558D01*
X163053502Y-80524561D01*
X162847267Y-80620731D01*
X162847265Y-80620732D01*
X162660862Y-80751251D01*
X162619515Y-80792599D01*
X162548931Y-80863182D01*
X162487611Y-80896666D01*
X162461252Y-80899500D01*
X161311692Y-80899500D01*
X161244653Y-80879815D01*
X161210119Y-80846625D01*
X161080047Y-80660861D01*
X161080045Y-80660858D01*
X160919140Y-80499953D01*
X160733377Y-80369881D01*
X160689752Y-80315304D01*
X160680500Y-80268306D01*
X160680500Y-77778445D01*
X160680500Y-77778443D01*
X160639577Y-77625716D01*
X160629830Y-77608834D01*
X160560524Y-77488790D01*
X160560521Y-77488786D01*
X160560520Y-77488784D01*
X160448716Y-77376980D01*
X160448715Y-77376979D01*
X160444385Y-77372649D01*
X160444374Y-77372639D01*
X156916819Y-73845084D01*
X156883334Y-73783761D01*
X156880500Y-73757403D01*
X156880500Y-73340613D01*
X156880499Y-73340598D01*
X156877598Y-73303732D01*
X156877597Y-73303726D01*
X156834966Y-73156990D01*
X156835165Y-73087121D01*
X156873107Y-73028451D01*
X156936745Y-72999607D01*
X156940135Y-72999177D01*
X157011875Y-72991095D01*
X157101750Y-72980969D01*
X157101753Y-72980968D01*
X157101755Y-72980968D01*
X157272022Y-72921389D01*
X157424762Y-72825416D01*
X157552316Y-72697862D01*
X157648289Y-72545122D01*
X157707868Y-72374855D01*
X157709228Y-72362786D01*
X157728065Y-72195603D01*
X157728065Y-72195596D01*
X157707869Y-72016350D01*
X157707868Y-72016345D01*
X157682729Y-71944501D01*
X157648289Y-71846078D01*
X157638450Y-71830420D01*
X157568199Y-71718616D01*
X157552316Y-71693338D01*
X157424762Y-71565784D01*
X157375996Y-71535142D01*
X157272023Y-71469811D01*
X157101754Y-71410231D01*
X157101750Y-71410230D01*
X156987681Y-71397378D01*
X156923267Y-71370311D01*
X156883712Y-71312716D01*
X156877947Y-71264428D01*
X156878040Y-71263248D01*
X156880500Y-71231994D01*
X156880500Y-71095800D01*
X156900185Y-71028761D01*
X156952989Y-70983006D01*
X157004500Y-70971800D01*
X160878203Y-70971800D01*
X160945242Y-70991485D01*
X160965883Y-71008118D01*
X162029584Y-72071820D01*
X162029586Y-72071821D01*
X162029590Y-72071824D01*
X162154229Y-72143783D01*
X162166516Y-72150877D01*
X162293332Y-72184858D01*
X162352989Y-72221221D01*
X162368619Y-72242626D01*
X162369430Y-72244030D01*
X162369432Y-72244034D01*
X162393657Y-72278631D01*
X162499954Y-72430441D01*
X162660858Y-72591345D01*
X162660861Y-72591347D01*
X162847266Y-72721868D01*
X163053504Y-72818039D01*
X163273308Y-72876935D01*
X163435230Y-72891101D01*
X163499998Y-72896768D01*
X163500000Y-72896768D01*
X163500002Y-72896768D01*
X163556673Y-72891809D01*
X163726692Y-72876935D01*
X163946496Y-72818039D01*
X164152734Y-72721868D01*
X164339139Y-72591347D01*
X164500047Y-72430439D01*
X164630568Y-72244034D01*
X164726739Y-72037796D01*
X164785635Y-71817992D01*
X164805468Y-71591300D01*
X164790481Y-71419998D01*
X169194532Y-71419998D01*
X169194532Y-71420001D01*
X169214364Y-71646686D01*
X169214366Y-71646697D01*
X169273258Y-71866488D01*
X169273261Y-71866497D01*
X169369431Y-72072732D01*
X169369432Y-72072734D01*
X169499954Y-72259141D01*
X169660858Y-72420045D01*
X169663259Y-72421726D01*
X169847266Y-72550568D01*
X170053504Y-72646739D01*
X170053509Y-72646740D01*
X170053511Y-72646741D01*
X170076908Y-72653010D01*
X170273308Y-72705635D01*
X170435230Y-72719801D01*
X170499998Y-72725468D01*
X170500000Y-72725468D01*
X170500002Y-72725468D01*
X170556673Y-72720509D01*
X170726692Y-72705635D01*
X170747730Y-72699998D01*
X180957145Y-72699998D01*
X180957145Y-72700001D01*
X180976539Y-72971160D01*
X180976540Y-72971167D01*
X181029167Y-73213090D01*
X181034325Y-73236801D01*
X181076553Y-73350017D01*
X181129330Y-73491519D01*
X181259609Y-73730107D01*
X181259610Y-73730108D01*
X181259613Y-73730113D01*
X181422529Y-73947742D01*
X181422533Y-73947746D01*
X181422538Y-73947752D01*
X181614747Y-74139961D01*
X181614753Y-74139966D01*
X181614758Y-74139971D01*
X181832387Y-74302887D01*
X181832391Y-74302889D01*
X181832392Y-74302890D01*
X182070981Y-74433169D01*
X182070980Y-74433169D01*
X182070984Y-74433170D01*
X182070987Y-74433172D01*
X182325699Y-74528175D01*
X182591340Y-74585961D01*
X182843105Y-74603967D01*
X182862499Y-74605355D01*
X182862500Y-74605355D01*
X182862501Y-74605355D01*
X182880600Y-74604060D01*
X183133660Y-74585961D01*
X183399301Y-74528175D01*
X183654013Y-74433172D01*
X183654017Y-74433169D01*
X183654019Y-74433169D01*
X183844640Y-74329082D01*
X183892613Y-74302887D01*
X184110242Y-74139971D01*
X184302471Y-73947742D01*
X184465387Y-73730113D01*
X184576404Y-73526800D01*
X184595669Y-73491519D01*
X184595669Y-73491517D01*
X184595672Y-73491513D01*
X184690675Y-73236801D01*
X184748461Y-72971160D01*
X184767855Y-72700000D01*
X184748461Y-72428840D01*
X184690675Y-72163199D01*
X184595672Y-71908487D01*
X184595670Y-71908484D01*
X184595669Y-71908480D01*
X184465390Y-71669892D01*
X184465389Y-71669891D01*
X184465387Y-71669887D01*
X184302471Y-71452258D01*
X184302466Y-71452253D01*
X184302461Y-71452247D01*
X184110252Y-71260038D01*
X184110246Y-71260033D01*
X184110242Y-71260029D01*
X183892613Y-71097113D01*
X183892608Y-71097110D01*
X183892607Y-71097109D01*
X183654018Y-70966830D01*
X183654019Y-70966830D01*
X183604420Y-70948330D01*
X183399301Y-70871825D01*
X183399294Y-70871823D01*
X183399293Y-70871823D01*
X183133667Y-70814040D01*
X183133660Y-70814039D01*
X182862501Y-70794645D01*
X182862499Y-70794645D01*
X182591339Y-70814039D01*
X182591332Y-70814040D01*
X182325706Y-70871823D01*
X182325702Y-70871824D01*
X182325699Y-70871825D01*
X182198343Y-70919326D01*
X182070980Y-70966830D01*
X181832392Y-71097109D01*
X181832391Y-71097110D01*
X181614759Y-71260028D01*
X181614747Y-71260038D01*
X181422538Y-71452247D01*
X181422528Y-71452259D01*
X181259610Y-71669891D01*
X181259609Y-71669892D01*
X181129330Y-71908480D01*
X181089099Y-72016345D01*
X181034325Y-72163199D01*
X181034324Y-72163202D01*
X181034323Y-72163206D01*
X180976540Y-72428832D01*
X180976539Y-72428839D01*
X180957145Y-72699998D01*
X170747730Y-72699998D01*
X170946496Y-72646739D01*
X171152734Y-72550568D01*
X171339139Y-72420047D01*
X171500047Y-72259139D01*
X171630568Y-72072734D01*
X171726739Y-71866496D01*
X171785635Y-71646692D01*
X171804090Y-71435750D01*
X171805468Y-71420001D01*
X171805468Y-71419998D01*
X171789020Y-71231997D01*
X171785635Y-71193308D01*
X171726739Y-70973504D01*
X171630568Y-70767266D01*
X171507324Y-70591254D01*
X171500045Y-70580858D01*
X171339141Y-70419954D01*
X171152734Y-70289432D01*
X171152732Y-70289431D01*
X170946497Y-70193261D01*
X170946488Y-70193258D01*
X170726697Y-70134366D01*
X170726693Y-70134365D01*
X170726692Y-70134365D01*
X170726691Y-70134364D01*
X170726686Y-70134364D01*
X170500002Y-70114532D01*
X170499998Y-70114532D01*
X170273313Y-70134364D01*
X170273302Y-70134366D01*
X170053511Y-70193258D01*
X170053502Y-70193261D01*
X169847267Y-70289431D01*
X169847265Y-70289432D01*
X169660858Y-70419954D01*
X169499954Y-70580858D01*
X169369432Y-70767265D01*
X169369431Y-70767267D01*
X169273261Y-70973502D01*
X169273258Y-70973511D01*
X169214366Y-71193302D01*
X169214364Y-71193313D01*
X169194532Y-71419998D01*
X164790481Y-71419998D01*
X164785635Y-71364608D01*
X164726739Y-71144804D01*
X164630568Y-70938566D01*
X164500047Y-70752161D01*
X164500045Y-70752158D01*
X164339141Y-70591254D01*
X164152734Y-70460732D01*
X164152732Y-70460731D01*
X163946497Y-70364561D01*
X163946488Y-70364558D01*
X163726697Y-70305666D01*
X163726693Y-70305665D01*
X163726692Y-70305665D01*
X163726691Y-70305664D01*
X163726686Y-70305664D01*
X163500002Y-70285832D01*
X163499998Y-70285832D01*
X163273313Y-70305664D01*
X163273302Y-70305666D01*
X163053511Y-70364558D01*
X163053502Y-70364561D01*
X162847267Y-70460731D01*
X162847265Y-70460732D01*
X162660858Y-70591254D01*
X162541855Y-70710258D01*
X162480532Y-70743743D01*
X162410840Y-70738759D01*
X162366493Y-70710258D01*
X161665890Y-70009655D01*
X161665888Y-70009652D01*
X161547017Y-69890781D01*
X161547016Y-69890780D01*
X161460204Y-69840660D01*
X161460204Y-69840659D01*
X161460200Y-69840658D01*
X161410085Y-69811723D01*
X161257357Y-69770799D01*
X161099243Y-69770799D01*
X161091647Y-69770799D01*
X161091631Y-69770800D01*
X149566469Y-69770800D01*
X149566453Y-69770799D01*
X149558857Y-69770799D01*
X149400743Y-69770799D01*
X149293387Y-69799565D01*
X149248010Y-69811724D01*
X149248009Y-69811725D01*
X149197896Y-69840659D01*
X149197895Y-69840660D01*
X149197653Y-69840800D01*
X149111085Y-69890779D01*
X149111082Y-69890781D01*
X148639479Y-70362384D01*
X148637318Y-70366128D01*
X148606243Y-70419953D01*
X148560423Y-70499315D01*
X148519499Y-70652043D01*
X148519499Y-70652045D01*
X148519499Y-70820146D01*
X148519500Y-70820159D01*
X148519500Y-71263230D01*
X148519499Y-71263248D01*
X148519499Y-71270843D01*
X148519499Y-71428957D01*
X148560423Y-71581685D01*
X148579658Y-71615000D01*
X148611347Y-71669887D01*
X148639479Y-71718615D01*
X148758349Y-71837485D01*
X148758355Y-71837490D01*
X148943181Y-72022316D01*
X148976666Y-72083639D01*
X148979500Y-72109997D01*
X148979500Y-72354403D01*
X148959815Y-72421442D01*
X148907011Y-72467197D01*
X148837853Y-72477141D01*
X148774297Y-72448116D01*
X148767819Y-72442084D01*
X147922200Y-71596465D01*
X147888715Y-71535142D01*
X147886663Y-71522686D01*
X147876868Y-71435745D01*
X147817289Y-71265478D01*
X147721316Y-71112738D01*
X147593762Y-70985184D01*
X147575185Y-70973511D01*
X147441023Y-70889211D01*
X147270754Y-70829631D01*
X147270749Y-70829630D01*
X147091504Y-70809435D01*
X147091496Y-70809435D01*
X146912250Y-70829630D01*
X146912245Y-70829631D01*
X146741976Y-70889211D01*
X146589237Y-70985184D01*
X146461684Y-71112737D01*
X146365711Y-71265476D01*
X146306131Y-71435745D01*
X146306130Y-71435750D01*
X146285935Y-71614996D01*
X146285935Y-71615002D01*
X146306130Y-71794249D01*
X146306131Y-71794254D01*
X146365711Y-71964523D01*
X146433131Y-72071820D01*
X146461684Y-72117262D01*
X146589238Y-72244816D01*
X146741978Y-72340789D01*
X146912245Y-72400368D01*
X146999169Y-72410161D01*
X147063580Y-72437226D01*
X147072965Y-72445700D01*
X148066383Y-73439119D01*
X148099868Y-73500442D01*
X148094884Y-73570134D01*
X148053012Y-73626067D01*
X147987548Y-73650484D01*
X147978702Y-73650800D01*
X145751200Y-73650800D01*
X145684161Y-73631115D01*
X145638406Y-73578311D01*
X145627200Y-73526800D01*
X145627200Y-66552245D01*
X145627200Y-66552243D01*
X145586277Y-66399516D01*
X145513613Y-66273657D01*
X145507224Y-66262590D01*
X145507218Y-66262582D01*
X145395417Y-66150781D01*
X145395409Y-66150775D01*
X145258490Y-66071726D01*
X145258486Y-66071724D01*
X145258484Y-66071723D01*
X145258482Y-66071722D01*
X145258481Y-66071722D01*
X145195003Y-66054712D01*
X145135343Y-66018346D01*
X145127832Y-66009249D01*
X145082546Y-65948754D01*
X145059709Y-65931658D01*
X144967335Y-65862506D01*
X144967328Y-65862502D01*
X144832482Y-65812208D01*
X144832483Y-65812208D01*
X144772883Y-65805801D01*
X144772881Y-65805800D01*
X144772873Y-65805800D01*
X144772864Y-65805800D01*
X143127129Y-65805800D01*
X143127123Y-65805801D01*
X143067516Y-65812208D01*
X142932671Y-65862502D01*
X142932664Y-65862506D01*
X142817455Y-65948752D01*
X142817452Y-65948755D01*
X142731206Y-66063964D01*
X142731202Y-66063971D01*
X142680908Y-66198817D01*
X142674501Y-66258416D01*
X142674500Y-66258435D01*
X142674500Y-66553103D01*
X142654815Y-66620142D01*
X142602011Y-66665897D01*
X142532853Y-66675841D01*
X142469297Y-66646816D01*
X142462819Y-66640784D01*
X141430490Y-65608455D01*
X141430488Y-65608452D01*
X141311617Y-65489581D01*
X141311616Y-65489580D01*
X141224804Y-65439460D01*
X141224804Y-65439459D01*
X141224800Y-65439458D01*
X141174685Y-65410523D01*
X141021957Y-65369599D01*
X140863843Y-65369599D01*
X140856247Y-65369599D01*
X140856231Y-65369600D01*
X137676669Y-65369600D01*
X137676653Y-65369599D01*
X137669057Y-65369599D01*
X137510943Y-65369599D01*
X137403587Y-65398365D01*
X137358210Y-65410524D01*
X137358209Y-65410525D01*
X137308096Y-65439459D01*
X137308095Y-65439460D01*
X137264689Y-65464520D01*
X137221285Y-65489579D01*
X137221282Y-65489581D01*
X136884981Y-65825882D01*
X136884977Y-65825887D01*
X136863839Y-65862502D01*
X136863838Y-65862504D01*
X136805923Y-65962815D01*
X136764999Y-66115543D01*
X136764999Y-66115545D01*
X136764999Y-66283646D01*
X136765000Y-66283659D01*
X136765000Y-68270130D01*
X136764999Y-68270148D01*
X136764999Y-68435854D01*
X136764998Y-68435854D01*
X136805924Y-68588587D01*
X136814804Y-68603967D01*
X136814805Y-68603969D01*
X136884977Y-68725512D01*
X136889926Y-68731961D01*
X136888143Y-68733328D01*
X136916037Y-68784411D01*
X136911053Y-68854103D01*
X136902259Y-68872768D01*
X136863723Y-68939515D01*
X136863723Y-68939516D01*
X136822800Y-69092243D01*
X136822800Y-69716800D01*
X136803115Y-69783839D01*
X136750311Y-69829594D01*
X136698800Y-69840800D01*
X132440757Y-69840800D01*
X132282642Y-69840800D01*
X132129915Y-69881723D01*
X132129914Y-69881723D01*
X132129912Y-69881724D01*
X132129909Y-69881725D01*
X132079796Y-69910659D01*
X132079795Y-69910660D01*
X132068097Y-69917414D01*
X131992985Y-69960779D01*
X131992982Y-69960781D01*
X131307384Y-70646380D01*
X131246061Y-70679865D01*
X131176369Y-70674881D01*
X131132022Y-70646380D01*
X131032230Y-70546588D01*
X131032228Y-70546586D01*
X130892088Y-70444768D01*
X130737745Y-70366127D01*
X130573001Y-70312598D01*
X130572999Y-70312597D01*
X130572998Y-70312597D01*
X130441571Y-70291781D01*
X130401911Y-70285500D01*
X130228689Y-70285500D01*
X130189028Y-70291781D01*
X130057602Y-70312597D01*
X129892852Y-70366128D01*
X129738511Y-70444768D01*
X129663437Y-70499313D01*
X129598372Y-70546586D01*
X129598370Y-70546588D01*
X129598369Y-70546588D01*
X129475888Y-70669069D01*
X129475888Y-70669070D01*
X129475886Y-70669072D01*
X129445963Y-70710258D01*
X129374068Y-70809211D01*
X129295428Y-70963552D01*
X129241897Y-71128302D01*
X129214800Y-71299389D01*
X129214800Y-71632000D01*
X129195115Y-71699039D01*
X129142311Y-71744794D01*
X129090800Y-71756000D01*
X128943372Y-71756000D01*
X128742978Y-71793460D01*
X128552888Y-71867100D01*
X128552881Y-71867104D01*
X128464612Y-71921757D01*
X128464611Y-71921758D01*
X122500500Y-71921758D01*
X122500500Y-64897648D01*
X124199500Y-64897648D01*
X124199500Y-65102351D01*
X124231522Y-65304534D01*
X124294781Y-65499223D01*
X124387715Y-65681613D01*
X124508028Y-65847213D01*
X124652786Y-65991971D01*
X124762562Y-66071726D01*
X124818390Y-66112287D01*
X124893927Y-66150775D01*
X125000776Y-66205218D01*
X125000778Y-66205218D01*
X125000781Y-66205220D01*
X125105137Y-66239127D01*
X125195465Y-66268477D01*
X125291238Y-66283646D01*
X125397648Y-66300500D01*
X125397649Y-66300500D01*
X125602351Y-66300500D01*
X125602352Y-66300500D01*
X125804534Y-66268477D01*
X125999219Y-66205220D01*
X126181610Y-66112287D01*
X126323431Y-66009249D01*
X126347213Y-65991971D01*
X126347215Y-65991968D01*
X126347219Y-65991966D01*
X126491966Y-65847219D01*
X126491968Y-65847215D01*
X126491971Y-65847213D01*
X126588696Y-65714080D01*
X126612287Y-65681610D01*
X126705220Y-65499219D01*
X126768477Y-65304534D01*
X126800500Y-65102352D01*
X126800500Y-64897648D01*
X126768477Y-64695466D01*
X126705220Y-64500781D01*
X126705218Y-64500778D01*
X126705218Y-64500776D01*
X126652671Y-64397648D01*
X182699500Y-64397648D01*
X182699500Y-64602351D01*
X182731522Y-64804534D01*
X182794781Y-64999223D01*
X182887715Y-65181613D01*
X183008028Y-65347213D01*
X183152786Y-65491971D01*
X183303383Y-65601384D01*
X183318390Y-65612287D01*
X183434607Y-65671503D01*
X183500776Y-65705218D01*
X183500778Y-65705218D01*
X183500781Y-65705220D01*
X183605137Y-65739127D01*
X183695465Y-65768477D01*
X183796557Y-65784488D01*
X183897648Y-65800500D01*
X183897649Y-65800500D01*
X184102351Y-65800500D01*
X184102352Y-65800500D01*
X184304534Y-65768477D01*
X184499219Y-65705220D01*
X184681610Y-65612287D01*
X184837231Y-65499223D01*
X184847213Y-65491971D01*
X184847215Y-65491968D01*
X184847219Y-65491966D01*
X184991966Y-65347219D01*
X184991968Y-65347215D01*
X184991971Y-65347213D01*
X185044732Y-65274590D01*
X185112287Y-65181610D01*
X185205220Y-64999219D01*
X185268477Y-64804534D01*
X185300500Y-64602352D01*
X185300500Y-64397648D01*
X185268477Y-64195466D01*
X185254609Y-64152786D01*
X185239127Y-64105137D01*
X185205220Y-64000781D01*
X185205218Y-64000778D01*
X185205218Y-64000776D01*
X185147610Y-63887715D01*
X185112287Y-63818390D01*
X185095134Y-63794781D01*
X184991971Y-63652786D01*
X184847213Y-63508028D01*
X184681613Y-63387715D01*
X184681612Y-63387714D01*
X184681610Y-63387713D01*
X184624653Y-63358691D01*
X184499223Y-63294781D01*
X184304534Y-63231522D01*
X184129995Y-63203878D01*
X184102352Y-63199500D01*
X183897648Y-63199500D01*
X183873329Y-63203351D01*
X183695465Y-63231522D01*
X183500776Y-63294781D01*
X183318386Y-63387715D01*
X183152786Y-63508028D01*
X183008028Y-63652786D01*
X182887715Y-63818386D01*
X182794781Y-64000776D01*
X182731522Y-64195465D01*
X182699500Y-64397648D01*
X126652671Y-64397648D01*
X126612287Y-64318390D01*
X126604556Y-64307749D01*
X126491971Y-64152786D01*
X126347213Y-64008028D01*
X126181613Y-63887715D01*
X126181612Y-63887714D01*
X126181610Y-63887713D01*
X126124653Y-63858691D01*
X125999223Y-63794781D01*
X125804534Y-63731522D01*
X125629995Y-63703878D01*
X125602352Y-63699500D01*
X125397648Y-63699500D01*
X125373329Y-63703351D01*
X125195465Y-63731522D01*
X125000776Y-63794781D01*
X124818386Y-63887715D01*
X124652786Y-64008028D01*
X124508028Y-64152786D01*
X124387715Y-64318386D01*
X124294781Y-64500776D01*
X124231522Y-64695465D01*
X124199500Y-64897648D01*
X122500500Y-64897648D01*
X122500500Y-62124500D01*
X122520185Y-62057461D01*
X122572989Y-62011706D01*
X122624500Y-62000500D01*
X186375500Y-62000500D01*
X186442539Y-62020185D01*
G37*
%TD.AperFunction*%
%TD*%
M02*
