%TF.GenerationSoftware,KiCad,Pcbnew,8.0.8*%
%TF.CreationDate,2025-02-27T22:51:06-05:00*%
%TF.ProjectId,Balanced Polarimeter,42616c61-6e63-4656-9420-506f6c617269,rev?*%
%TF.SameCoordinates,Original*%
%TF.FileFunction,Legend,Top*%
%TF.FilePolarity,Positive*%
%FSLAX46Y46*%
G04 Gerber Fmt 4.6, Leading zero omitted, Abs format (unit mm)*
G04 Created by KiCad (PCBNEW 8.0.8) date 2025-02-27 22:51:06*
%MOMM*%
%LPD*%
G01*
G04 APERTURE LIST*
%ADD10C,0.150000*%
%ADD11C,0.200000*%
%ADD12C,0.254000*%
%ADD13C,0.120000*%
%ADD14C,0.152400*%
G04 APERTURE END LIST*
D10*
X156119048Y-65073866D02*
X156880953Y-65073866D01*
X168615638Y-68986304D02*
X168568019Y-69081542D01*
X168568019Y-69081542D02*
X168568019Y-69224399D01*
X168568019Y-69224399D02*
X168615638Y-69367256D01*
X168615638Y-69367256D02*
X168710876Y-69462494D01*
X168710876Y-69462494D02*
X168806114Y-69510113D01*
X168806114Y-69510113D02*
X168996590Y-69557732D01*
X168996590Y-69557732D02*
X169139447Y-69557732D01*
X169139447Y-69557732D02*
X169329923Y-69510113D01*
X169329923Y-69510113D02*
X169425161Y-69462494D01*
X169425161Y-69462494D02*
X169520400Y-69367256D01*
X169520400Y-69367256D02*
X169568019Y-69224399D01*
X169568019Y-69224399D02*
X169568019Y-69129161D01*
X169568019Y-69129161D02*
X169520400Y-68986304D01*
X169520400Y-68986304D02*
X169472780Y-68938685D01*
X169472780Y-68938685D02*
X169139447Y-68938685D01*
X169139447Y-68938685D02*
X169139447Y-69129161D01*
X169568019Y-68510113D02*
X168568019Y-68510113D01*
X168568019Y-68510113D02*
X169568019Y-67938685D01*
X169568019Y-67938685D02*
X168568019Y-67938685D01*
X169568019Y-67462494D02*
X168568019Y-67462494D01*
X168568019Y-67462494D02*
X168568019Y-67224399D01*
X168568019Y-67224399D02*
X168615638Y-67081542D01*
X168615638Y-67081542D02*
X168710876Y-66986304D01*
X168710876Y-66986304D02*
X168806114Y-66938685D01*
X168806114Y-66938685D02*
X168996590Y-66891066D01*
X168996590Y-66891066D02*
X169139447Y-66891066D01*
X169139447Y-66891066D02*
X169329923Y-66938685D01*
X169329923Y-66938685D02*
X169425161Y-66986304D01*
X169425161Y-66986304D02*
X169520400Y-67081542D01*
X169520400Y-67081542D02*
X169568019Y-67224399D01*
X169568019Y-67224399D02*
X169568019Y-67462494D01*
D11*
X160627134Y-101832365D02*
X160877134Y-101915699D01*
X160877134Y-101915699D02*
X160960467Y-101999032D01*
X160960467Y-101999032D02*
X161043800Y-102165699D01*
X161043800Y-102165699D02*
X161043800Y-102415699D01*
X161043800Y-102415699D02*
X160960467Y-102582365D01*
X160960467Y-102582365D02*
X160877134Y-102665699D01*
X160877134Y-102665699D02*
X160710467Y-102749032D01*
X160710467Y-102749032D02*
X160043800Y-102749032D01*
X160043800Y-102749032D02*
X160043800Y-100999032D01*
X160043800Y-100999032D02*
X160627134Y-100999032D01*
X160627134Y-100999032D02*
X160793800Y-101082365D01*
X160793800Y-101082365D02*
X160877134Y-101165699D01*
X160877134Y-101165699D02*
X160960467Y-101332365D01*
X160960467Y-101332365D02*
X160960467Y-101499032D01*
X160960467Y-101499032D02*
X160877134Y-101665699D01*
X160877134Y-101665699D02*
X160793800Y-101749032D01*
X160793800Y-101749032D02*
X160627134Y-101832365D01*
X160627134Y-101832365D02*
X160043800Y-101832365D01*
X162543800Y-102749032D02*
X162543800Y-101832365D01*
X162543800Y-101832365D02*
X162460467Y-101665699D01*
X162460467Y-101665699D02*
X162293800Y-101582365D01*
X162293800Y-101582365D02*
X161960467Y-101582365D01*
X161960467Y-101582365D02*
X161793800Y-101665699D01*
X162543800Y-102665699D02*
X162377134Y-102749032D01*
X162377134Y-102749032D02*
X161960467Y-102749032D01*
X161960467Y-102749032D02*
X161793800Y-102665699D01*
X161793800Y-102665699D02*
X161710467Y-102499032D01*
X161710467Y-102499032D02*
X161710467Y-102332365D01*
X161710467Y-102332365D02*
X161793800Y-102165699D01*
X161793800Y-102165699D02*
X161960467Y-102082365D01*
X161960467Y-102082365D02*
X162377134Y-102082365D01*
X162377134Y-102082365D02*
X162543800Y-101999032D01*
X163627133Y-102749032D02*
X163460467Y-102665699D01*
X163460467Y-102665699D02*
X163377133Y-102499032D01*
X163377133Y-102499032D02*
X163377133Y-100999032D01*
X165043800Y-102749032D02*
X165043800Y-101832365D01*
X165043800Y-101832365D02*
X164960467Y-101665699D01*
X164960467Y-101665699D02*
X164793800Y-101582365D01*
X164793800Y-101582365D02*
X164460467Y-101582365D01*
X164460467Y-101582365D02*
X164293800Y-101665699D01*
X165043800Y-102665699D02*
X164877134Y-102749032D01*
X164877134Y-102749032D02*
X164460467Y-102749032D01*
X164460467Y-102749032D02*
X164293800Y-102665699D01*
X164293800Y-102665699D02*
X164210467Y-102499032D01*
X164210467Y-102499032D02*
X164210467Y-102332365D01*
X164210467Y-102332365D02*
X164293800Y-102165699D01*
X164293800Y-102165699D02*
X164460467Y-102082365D01*
X164460467Y-102082365D02*
X164877134Y-102082365D01*
X164877134Y-102082365D02*
X165043800Y-101999032D01*
X165877133Y-101582365D02*
X165877133Y-102749032D01*
X165877133Y-101749032D02*
X165960467Y-101665699D01*
X165960467Y-101665699D02*
X166127133Y-101582365D01*
X166127133Y-101582365D02*
X166377133Y-101582365D01*
X166377133Y-101582365D02*
X166543800Y-101665699D01*
X166543800Y-101665699D02*
X166627133Y-101832365D01*
X166627133Y-101832365D02*
X166627133Y-102749032D01*
X168210466Y-102665699D02*
X168043800Y-102749032D01*
X168043800Y-102749032D02*
X167710466Y-102749032D01*
X167710466Y-102749032D02*
X167543800Y-102665699D01*
X167543800Y-102665699D02*
X167460466Y-102582365D01*
X167460466Y-102582365D02*
X167377133Y-102415699D01*
X167377133Y-102415699D02*
X167377133Y-101915699D01*
X167377133Y-101915699D02*
X167460466Y-101749032D01*
X167460466Y-101749032D02*
X167543800Y-101665699D01*
X167543800Y-101665699D02*
X167710466Y-101582365D01*
X167710466Y-101582365D02*
X168043800Y-101582365D01*
X168043800Y-101582365D02*
X168210466Y-101665699D01*
X169627133Y-102665699D02*
X169460466Y-102749032D01*
X169460466Y-102749032D02*
X169127133Y-102749032D01*
X169127133Y-102749032D02*
X168960466Y-102665699D01*
X168960466Y-102665699D02*
X168877133Y-102499032D01*
X168877133Y-102499032D02*
X168877133Y-101832365D01*
X168877133Y-101832365D02*
X168960466Y-101665699D01*
X168960466Y-101665699D02*
X169127133Y-101582365D01*
X169127133Y-101582365D02*
X169460466Y-101582365D01*
X169460466Y-101582365D02*
X169627133Y-101665699D01*
X169627133Y-101665699D02*
X169710466Y-101832365D01*
X169710466Y-101832365D02*
X169710466Y-101999032D01*
X169710466Y-101999032D02*
X168877133Y-102165699D01*
X171210466Y-102749032D02*
X171210466Y-100999032D01*
X171210466Y-102665699D02*
X171043800Y-102749032D01*
X171043800Y-102749032D02*
X170710466Y-102749032D01*
X170710466Y-102749032D02*
X170543800Y-102665699D01*
X170543800Y-102665699D02*
X170460466Y-102582365D01*
X170460466Y-102582365D02*
X170377133Y-102415699D01*
X170377133Y-102415699D02*
X170377133Y-101915699D01*
X170377133Y-101915699D02*
X170460466Y-101749032D01*
X170460466Y-101749032D02*
X170543800Y-101665699D01*
X170543800Y-101665699D02*
X170710466Y-101582365D01*
X170710466Y-101582365D02*
X171043800Y-101582365D01*
X171043800Y-101582365D02*
X171210466Y-101665699D01*
X159127134Y-105566434D02*
X159127134Y-103816434D01*
X159127134Y-103816434D02*
X159793801Y-103816434D01*
X159793801Y-103816434D02*
X159960468Y-103899767D01*
X159960468Y-103899767D02*
X160043801Y-103983101D01*
X160043801Y-103983101D02*
X160127134Y-104149767D01*
X160127134Y-104149767D02*
X160127134Y-104399767D01*
X160127134Y-104399767D02*
X160043801Y-104566434D01*
X160043801Y-104566434D02*
X159960468Y-104649767D01*
X159960468Y-104649767D02*
X159793801Y-104733101D01*
X159793801Y-104733101D02*
X159127134Y-104733101D01*
X161127134Y-105566434D02*
X160960468Y-105483101D01*
X160960468Y-105483101D02*
X160877134Y-105399767D01*
X160877134Y-105399767D02*
X160793801Y-105233101D01*
X160793801Y-105233101D02*
X160793801Y-104733101D01*
X160793801Y-104733101D02*
X160877134Y-104566434D01*
X160877134Y-104566434D02*
X160960468Y-104483101D01*
X160960468Y-104483101D02*
X161127134Y-104399767D01*
X161127134Y-104399767D02*
X161377134Y-104399767D01*
X161377134Y-104399767D02*
X161543801Y-104483101D01*
X161543801Y-104483101D02*
X161627134Y-104566434D01*
X161627134Y-104566434D02*
X161710468Y-104733101D01*
X161710468Y-104733101D02*
X161710468Y-105233101D01*
X161710468Y-105233101D02*
X161627134Y-105399767D01*
X161627134Y-105399767D02*
X161543801Y-105483101D01*
X161543801Y-105483101D02*
X161377134Y-105566434D01*
X161377134Y-105566434D02*
X161127134Y-105566434D01*
X162710467Y-105566434D02*
X162543801Y-105483101D01*
X162543801Y-105483101D02*
X162460467Y-105316434D01*
X162460467Y-105316434D02*
X162460467Y-103816434D01*
X164127134Y-105566434D02*
X164127134Y-104649767D01*
X164127134Y-104649767D02*
X164043801Y-104483101D01*
X164043801Y-104483101D02*
X163877134Y-104399767D01*
X163877134Y-104399767D02*
X163543801Y-104399767D01*
X163543801Y-104399767D02*
X163377134Y-104483101D01*
X164127134Y-105483101D02*
X163960468Y-105566434D01*
X163960468Y-105566434D02*
X163543801Y-105566434D01*
X163543801Y-105566434D02*
X163377134Y-105483101D01*
X163377134Y-105483101D02*
X163293801Y-105316434D01*
X163293801Y-105316434D02*
X163293801Y-105149767D01*
X163293801Y-105149767D02*
X163377134Y-104983101D01*
X163377134Y-104983101D02*
X163543801Y-104899767D01*
X163543801Y-104899767D02*
X163960468Y-104899767D01*
X163960468Y-104899767D02*
X164127134Y-104816434D01*
X164960467Y-105566434D02*
X164960467Y-104399767D01*
X164960467Y-104733101D02*
X165043801Y-104566434D01*
X165043801Y-104566434D02*
X165127134Y-104483101D01*
X165127134Y-104483101D02*
X165293801Y-104399767D01*
X165293801Y-104399767D02*
X165460467Y-104399767D01*
X166043800Y-105566434D02*
X166043800Y-104399767D01*
X166043800Y-103816434D02*
X165960467Y-103899767D01*
X165960467Y-103899767D02*
X166043800Y-103983101D01*
X166043800Y-103983101D02*
X166127134Y-103899767D01*
X166127134Y-103899767D02*
X166043800Y-103816434D01*
X166043800Y-103816434D02*
X166043800Y-103983101D01*
X166877133Y-105566434D02*
X166877133Y-104399767D01*
X166877133Y-104566434D02*
X166960467Y-104483101D01*
X166960467Y-104483101D02*
X167127133Y-104399767D01*
X167127133Y-104399767D02*
X167377133Y-104399767D01*
X167377133Y-104399767D02*
X167543800Y-104483101D01*
X167543800Y-104483101D02*
X167627133Y-104649767D01*
X167627133Y-104649767D02*
X167627133Y-105566434D01*
X167627133Y-104649767D02*
X167710467Y-104483101D01*
X167710467Y-104483101D02*
X167877133Y-104399767D01*
X167877133Y-104399767D02*
X168127133Y-104399767D01*
X168127133Y-104399767D02*
X168293800Y-104483101D01*
X168293800Y-104483101D02*
X168377133Y-104649767D01*
X168377133Y-104649767D02*
X168377133Y-105566434D01*
X169877133Y-105483101D02*
X169710466Y-105566434D01*
X169710466Y-105566434D02*
X169377133Y-105566434D01*
X169377133Y-105566434D02*
X169210466Y-105483101D01*
X169210466Y-105483101D02*
X169127133Y-105316434D01*
X169127133Y-105316434D02*
X169127133Y-104649767D01*
X169127133Y-104649767D02*
X169210466Y-104483101D01*
X169210466Y-104483101D02*
X169377133Y-104399767D01*
X169377133Y-104399767D02*
X169710466Y-104399767D01*
X169710466Y-104399767D02*
X169877133Y-104483101D01*
X169877133Y-104483101D02*
X169960466Y-104649767D01*
X169960466Y-104649767D02*
X169960466Y-104816434D01*
X169960466Y-104816434D02*
X169127133Y-104983101D01*
X170460466Y-104399767D02*
X171127133Y-104399767D01*
X170710466Y-103816434D02*
X170710466Y-105316434D01*
X170710466Y-105316434D02*
X170793800Y-105483101D01*
X170793800Y-105483101D02*
X170960466Y-105566434D01*
X170960466Y-105566434D02*
X171127133Y-105566434D01*
X172377133Y-105483101D02*
X172210466Y-105566434D01*
X172210466Y-105566434D02*
X171877133Y-105566434D01*
X171877133Y-105566434D02*
X171710466Y-105483101D01*
X171710466Y-105483101D02*
X171627133Y-105316434D01*
X171627133Y-105316434D02*
X171627133Y-104649767D01*
X171627133Y-104649767D02*
X171710466Y-104483101D01*
X171710466Y-104483101D02*
X171877133Y-104399767D01*
X171877133Y-104399767D02*
X172210466Y-104399767D01*
X172210466Y-104399767D02*
X172377133Y-104483101D01*
X172377133Y-104483101D02*
X172460466Y-104649767D01*
X172460466Y-104649767D02*
X172460466Y-104816434D01*
X172460466Y-104816434D02*
X171627133Y-104983101D01*
X173210466Y-105566434D02*
X173210466Y-104399767D01*
X173210466Y-104733101D02*
X173293800Y-104566434D01*
X173293800Y-104566434D02*
X173377133Y-104483101D01*
X173377133Y-104483101D02*
X173543800Y-104399767D01*
X173543800Y-104399767D02*
X173710466Y-104399767D01*
D10*
X166647066Y-69611713D02*
X166647066Y-68849809D01*
X166028019Y-67897428D02*
X166028019Y-68373618D01*
X166028019Y-68373618D02*
X166504209Y-68421237D01*
X166504209Y-68421237D02*
X166456590Y-68373618D01*
X166456590Y-68373618D02*
X166408971Y-68278380D01*
X166408971Y-68278380D02*
X166408971Y-68040285D01*
X166408971Y-68040285D02*
X166456590Y-67945047D01*
X166456590Y-67945047D02*
X166504209Y-67897428D01*
X166504209Y-67897428D02*
X166599447Y-67849809D01*
X166599447Y-67849809D02*
X166837542Y-67849809D01*
X166837542Y-67849809D02*
X166932780Y-67897428D01*
X166932780Y-67897428D02*
X166980400Y-67945047D01*
X166980400Y-67945047D02*
X167028019Y-68040285D01*
X167028019Y-68040285D02*
X167028019Y-68278380D01*
X167028019Y-68278380D02*
X166980400Y-68373618D01*
X166980400Y-68373618D02*
X166932780Y-68421237D01*
X166028019Y-67564094D02*
X167028019Y-67230761D01*
X167028019Y-67230761D02*
X166028019Y-66897428D01*
X148183648Y-104340866D02*
X148945553Y-104340866D01*
X148564600Y-104721819D02*
X148564600Y-103959914D01*
X164056266Y-69637113D02*
X164056266Y-68875209D01*
X164437219Y-69256161D02*
X163675314Y-69256161D01*
X163437219Y-67922828D02*
X163437219Y-68399018D01*
X163437219Y-68399018D02*
X163913409Y-68446637D01*
X163913409Y-68446637D02*
X163865790Y-68399018D01*
X163865790Y-68399018D02*
X163818171Y-68303780D01*
X163818171Y-68303780D02*
X163818171Y-68065685D01*
X163818171Y-68065685D02*
X163865790Y-67970447D01*
X163865790Y-67970447D02*
X163913409Y-67922828D01*
X163913409Y-67922828D02*
X164008647Y-67875209D01*
X164008647Y-67875209D02*
X164246742Y-67875209D01*
X164246742Y-67875209D02*
X164341980Y-67922828D01*
X164341980Y-67922828D02*
X164389600Y-67970447D01*
X164389600Y-67970447D02*
X164437219Y-68065685D01*
X164437219Y-68065685D02*
X164437219Y-68303780D01*
X164437219Y-68303780D02*
X164389600Y-68399018D01*
X164389600Y-68399018D02*
X164341980Y-68446637D01*
X163437219Y-67589494D02*
X164437219Y-67256161D01*
X164437219Y-67256161D02*
X163437219Y-66922828D01*
X156159248Y-104290066D02*
X156921153Y-104290066D01*
X148119048Y-65073866D02*
X148880953Y-65073866D01*
X148500000Y-65454819D02*
X148500000Y-64692914D01*
X170965019Y-78500266D02*
X170488828Y-78833599D01*
X170965019Y-79071694D02*
X169965019Y-79071694D01*
X169965019Y-79071694D02*
X169965019Y-78690742D01*
X169965019Y-78690742D02*
X170012638Y-78595504D01*
X170012638Y-78595504D02*
X170060257Y-78547885D01*
X170060257Y-78547885D02*
X170155495Y-78500266D01*
X170155495Y-78500266D02*
X170298352Y-78500266D01*
X170298352Y-78500266D02*
X170393590Y-78547885D01*
X170393590Y-78547885D02*
X170441209Y-78595504D01*
X170441209Y-78595504D02*
X170488828Y-78690742D01*
X170488828Y-78690742D02*
X170488828Y-79071694D01*
X170393590Y-77928837D02*
X170345971Y-78024075D01*
X170345971Y-78024075D02*
X170298352Y-78071694D01*
X170298352Y-78071694D02*
X170203114Y-78119313D01*
X170203114Y-78119313D02*
X170155495Y-78119313D01*
X170155495Y-78119313D02*
X170060257Y-78071694D01*
X170060257Y-78071694D02*
X170012638Y-78024075D01*
X170012638Y-78024075D02*
X169965019Y-77928837D01*
X169965019Y-77928837D02*
X169965019Y-77738361D01*
X169965019Y-77738361D02*
X170012638Y-77643123D01*
X170012638Y-77643123D02*
X170060257Y-77595504D01*
X170060257Y-77595504D02*
X170155495Y-77547885D01*
X170155495Y-77547885D02*
X170203114Y-77547885D01*
X170203114Y-77547885D02*
X170298352Y-77595504D01*
X170298352Y-77595504D02*
X170345971Y-77643123D01*
X170345971Y-77643123D02*
X170393590Y-77738361D01*
X170393590Y-77738361D02*
X170393590Y-77928837D01*
X170393590Y-77928837D02*
X170441209Y-78024075D01*
X170441209Y-78024075D02*
X170488828Y-78071694D01*
X170488828Y-78071694D02*
X170584066Y-78119313D01*
X170584066Y-78119313D02*
X170774542Y-78119313D01*
X170774542Y-78119313D02*
X170869780Y-78071694D01*
X170869780Y-78071694D02*
X170917400Y-78024075D01*
X170917400Y-78024075D02*
X170965019Y-77928837D01*
X170965019Y-77928837D02*
X170965019Y-77738361D01*
X170965019Y-77738361D02*
X170917400Y-77643123D01*
X170917400Y-77643123D02*
X170869780Y-77595504D01*
X170869780Y-77595504D02*
X170774542Y-77547885D01*
X170774542Y-77547885D02*
X170584066Y-77547885D01*
X170584066Y-77547885D02*
X170488828Y-77595504D01*
X170488828Y-77595504D02*
X170441209Y-77643123D01*
X170441209Y-77643123D02*
X170393590Y-77738361D01*
X163954619Y-78678066D02*
X163478428Y-79011399D01*
X163954619Y-79249494D02*
X162954619Y-79249494D01*
X162954619Y-79249494D02*
X162954619Y-78868542D01*
X162954619Y-78868542D02*
X163002238Y-78773304D01*
X163002238Y-78773304D02*
X163049857Y-78725685D01*
X163049857Y-78725685D02*
X163145095Y-78678066D01*
X163145095Y-78678066D02*
X163287952Y-78678066D01*
X163287952Y-78678066D02*
X163383190Y-78725685D01*
X163383190Y-78725685D02*
X163430809Y-78773304D01*
X163430809Y-78773304D02*
X163478428Y-78868542D01*
X163478428Y-78868542D02*
X163478428Y-79249494D01*
X162954619Y-78344732D02*
X162954619Y-77725685D01*
X162954619Y-77725685D02*
X163335571Y-78059018D01*
X163335571Y-78059018D02*
X163335571Y-77916161D01*
X163335571Y-77916161D02*
X163383190Y-77820923D01*
X163383190Y-77820923D02*
X163430809Y-77773304D01*
X163430809Y-77773304D02*
X163526047Y-77725685D01*
X163526047Y-77725685D02*
X163764142Y-77725685D01*
X163764142Y-77725685D02*
X163859380Y-77773304D01*
X163859380Y-77773304D02*
X163907000Y-77820923D01*
X163907000Y-77820923D02*
X163954619Y-77916161D01*
X163954619Y-77916161D02*
X163954619Y-78201875D01*
X163954619Y-78201875D02*
X163907000Y-78297113D01*
X163907000Y-78297113D02*
X163859380Y-78344732D01*
X164005419Y-93337966D02*
X163529228Y-93671299D01*
X164005419Y-93909394D02*
X163005419Y-93909394D01*
X163005419Y-93909394D02*
X163005419Y-93528442D01*
X163005419Y-93528442D02*
X163053038Y-93433204D01*
X163053038Y-93433204D02*
X163100657Y-93385585D01*
X163100657Y-93385585D02*
X163195895Y-93337966D01*
X163195895Y-93337966D02*
X163338752Y-93337966D01*
X163338752Y-93337966D02*
X163433990Y-93385585D01*
X163433990Y-93385585D02*
X163481609Y-93433204D01*
X163481609Y-93433204D02*
X163529228Y-93528442D01*
X163529228Y-93528442D02*
X163529228Y-93909394D01*
X163005419Y-93004632D02*
X163005419Y-92337966D01*
X163005419Y-92337966D02*
X164005419Y-92766537D01*
X151808095Y-69304819D02*
X151808095Y-70114342D01*
X151808095Y-70114342D02*
X151855714Y-70209580D01*
X151855714Y-70209580D02*
X151903333Y-70257200D01*
X151903333Y-70257200D02*
X151998571Y-70304819D01*
X151998571Y-70304819D02*
X152189047Y-70304819D01*
X152189047Y-70304819D02*
X152284285Y-70257200D01*
X152284285Y-70257200D02*
X152331904Y-70209580D01*
X152331904Y-70209580D02*
X152379523Y-70114342D01*
X152379523Y-70114342D02*
X152379523Y-69304819D01*
X153379523Y-70304819D02*
X152808095Y-70304819D01*
X153093809Y-70304819D02*
X153093809Y-69304819D01*
X153093809Y-69304819D02*
X152998571Y-69447676D01*
X152998571Y-69447676D02*
X152903333Y-69542914D01*
X152903333Y-69542914D02*
X152808095Y-69590533D01*
X132433219Y-85231266D02*
X131957028Y-85564599D01*
X132433219Y-85802694D02*
X131433219Y-85802694D01*
X131433219Y-85802694D02*
X131433219Y-85421742D01*
X131433219Y-85421742D02*
X131480838Y-85326504D01*
X131480838Y-85326504D02*
X131528457Y-85278885D01*
X131528457Y-85278885D02*
X131623695Y-85231266D01*
X131623695Y-85231266D02*
X131766552Y-85231266D01*
X131766552Y-85231266D02*
X131861790Y-85278885D01*
X131861790Y-85278885D02*
X131909409Y-85326504D01*
X131909409Y-85326504D02*
X131957028Y-85421742D01*
X131957028Y-85421742D02*
X131957028Y-85802694D01*
X131528457Y-84850313D02*
X131480838Y-84802694D01*
X131480838Y-84802694D02*
X131433219Y-84707456D01*
X131433219Y-84707456D02*
X131433219Y-84469361D01*
X131433219Y-84469361D02*
X131480838Y-84374123D01*
X131480838Y-84374123D02*
X131528457Y-84326504D01*
X131528457Y-84326504D02*
X131623695Y-84278885D01*
X131623695Y-84278885D02*
X131718933Y-84278885D01*
X131718933Y-84278885D02*
X131861790Y-84326504D01*
X131861790Y-84326504D02*
X132433219Y-84897932D01*
X132433219Y-84897932D02*
X132433219Y-84278885D01*
X154849533Y-81963419D02*
X154516200Y-81487228D01*
X154278105Y-81963419D02*
X154278105Y-80963419D01*
X154278105Y-80963419D02*
X154659057Y-80963419D01*
X154659057Y-80963419D02*
X154754295Y-81011038D01*
X154754295Y-81011038D02*
X154801914Y-81058657D01*
X154801914Y-81058657D02*
X154849533Y-81153895D01*
X154849533Y-81153895D02*
X154849533Y-81296752D01*
X154849533Y-81296752D02*
X154801914Y-81391990D01*
X154801914Y-81391990D02*
X154754295Y-81439609D01*
X154754295Y-81439609D02*
X154659057Y-81487228D01*
X154659057Y-81487228D02*
X154278105Y-81487228D01*
X155754295Y-80963419D02*
X155278105Y-80963419D01*
X155278105Y-80963419D02*
X155230486Y-81439609D01*
X155230486Y-81439609D02*
X155278105Y-81391990D01*
X155278105Y-81391990D02*
X155373343Y-81344371D01*
X155373343Y-81344371D02*
X155611438Y-81344371D01*
X155611438Y-81344371D02*
X155706676Y-81391990D01*
X155706676Y-81391990D02*
X155754295Y-81439609D01*
X155754295Y-81439609D02*
X155801914Y-81534847D01*
X155801914Y-81534847D02*
X155801914Y-81772942D01*
X155801914Y-81772942D02*
X155754295Y-81868180D01*
X155754295Y-81868180D02*
X155706676Y-81915800D01*
X155706676Y-81915800D02*
X155611438Y-81963419D01*
X155611438Y-81963419D02*
X155373343Y-81963419D01*
X155373343Y-81963419D02*
X155278105Y-81915800D01*
X155278105Y-81915800D02*
X155230486Y-81868180D01*
D12*
X189387258Y-77469552D02*
X190294401Y-77469552D01*
X190294401Y-77469552D02*
X190475829Y-77530029D01*
X190475829Y-77530029D02*
X190596782Y-77650981D01*
X190596782Y-77650981D02*
X190657258Y-77832410D01*
X190657258Y-77832410D02*
X190657258Y-77953362D01*
X190657258Y-76199552D02*
X190657258Y-76925267D01*
X190657258Y-76562410D02*
X189387258Y-76562410D01*
X189387258Y-76562410D02*
X189568686Y-76683362D01*
X189568686Y-76683362D02*
X189689639Y-76804314D01*
X189689639Y-76804314D02*
X189750115Y-76925267D01*
D10*
X126934819Y-97679394D02*
X125934819Y-97679394D01*
X125934819Y-97679394D02*
X125934819Y-97441299D01*
X125934819Y-97441299D02*
X125982438Y-97298442D01*
X125982438Y-97298442D02*
X126077676Y-97203204D01*
X126077676Y-97203204D02*
X126172914Y-97155585D01*
X126172914Y-97155585D02*
X126363390Y-97107966D01*
X126363390Y-97107966D02*
X126506247Y-97107966D01*
X126506247Y-97107966D02*
X126696723Y-97155585D01*
X126696723Y-97155585D02*
X126791961Y-97203204D01*
X126791961Y-97203204D02*
X126887200Y-97298442D01*
X126887200Y-97298442D02*
X126934819Y-97441299D01*
X126934819Y-97441299D02*
X126934819Y-97679394D01*
X126934819Y-96155585D02*
X126934819Y-96727013D01*
X126934819Y-96441299D02*
X125934819Y-96441299D01*
X125934819Y-96441299D02*
X126077676Y-96536537D01*
X126077676Y-96536537D02*
X126172914Y-96631775D01*
X126172914Y-96631775D02*
X126220533Y-96727013D01*
X134927200Y-99131775D02*
X134974819Y-98988918D01*
X134974819Y-98988918D02*
X134974819Y-98750823D01*
X134974819Y-98750823D02*
X134927200Y-98655585D01*
X134927200Y-98655585D02*
X134879580Y-98607966D01*
X134879580Y-98607966D02*
X134784342Y-98560347D01*
X134784342Y-98560347D02*
X134689104Y-98560347D01*
X134689104Y-98560347D02*
X134593866Y-98607966D01*
X134593866Y-98607966D02*
X134546247Y-98655585D01*
X134546247Y-98655585D02*
X134498628Y-98750823D01*
X134498628Y-98750823D02*
X134451009Y-98941299D01*
X134451009Y-98941299D02*
X134403390Y-99036537D01*
X134403390Y-99036537D02*
X134355771Y-99084156D01*
X134355771Y-99084156D02*
X134260533Y-99131775D01*
X134260533Y-99131775D02*
X134165295Y-99131775D01*
X134165295Y-99131775D02*
X134070057Y-99084156D01*
X134070057Y-99084156D02*
X134022438Y-99036537D01*
X134022438Y-99036537D02*
X133974819Y-98941299D01*
X133974819Y-98941299D02*
X133974819Y-98703204D01*
X133974819Y-98703204D02*
X134022438Y-98560347D01*
X133974819Y-97655585D02*
X133974819Y-98131775D01*
X133974819Y-98131775D02*
X134451009Y-98179394D01*
X134451009Y-98179394D02*
X134403390Y-98131775D01*
X134403390Y-98131775D02*
X134355771Y-98036537D01*
X134355771Y-98036537D02*
X134355771Y-97798442D01*
X134355771Y-97798442D02*
X134403390Y-97703204D01*
X134403390Y-97703204D02*
X134451009Y-97655585D01*
X134451009Y-97655585D02*
X134546247Y-97607966D01*
X134546247Y-97607966D02*
X134784342Y-97607966D01*
X134784342Y-97607966D02*
X134879580Y-97655585D01*
X134879580Y-97655585D02*
X134927200Y-97703204D01*
X134927200Y-97703204D02*
X134974819Y-97798442D01*
X134974819Y-97798442D02*
X134974819Y-98036537D01*
X134974819Y-98036537D02*
X134927200Y-98131775D01*
X134927200Y-98131775D02*
X134879580Y-98179394D01*
X134974819Y-97131775D02*
X134974819Y-96941299D01*
X134974819Y-96941299D02*
X134927200Y-96846061D01*
X134927200Y-96846061D02*
X134879580Y-96798442D01*
X134879580Y-96798442D02*
X134736723Y-96703204D01*
X134736723Y-96703204D02*
X134546247Y-96655585D01*
X134546247Y-96655585D02*
X134165295Y-96655585D01*
X134165295Y-96655585D02*
X134070057Y-96703204D01*
X134070057Y-96703204D02*
X134022438Y-96750823D01*
X134022438Y-96750823D02*
X133974819Y-96846061D01*
X133974819Y-96846061D02*
X133974819Y-97036537D01*
X133974819Y-97036537D02*
X134022438Y-97131775D01*
X134022438Y-97131775D02*
X134070057Y-97179394D01*
X134070057Y-97179394D02*
X134165295Y-97227013D01*
X134165295Y-97227013D02*
X134403390Y-97227013D01*
X134403390Y-97227013D02*
X134498628Y-97179394D01*
X134498628Y-97179394D02*
X134546247Y-97131775D01*
X134546247Y-97131775D02*
X134593866Y-97036537D01*
X134593866Y-97036537D02*
X134593866Y-96846061D01*
X134593866Y-96846061D02*
X134546247Y-96750823D01*
X134546247Y-96750823D02*
X134498628Y-96703204D01*
X134498628Y-96703204D02*
X134403390Y-96655585D01*
X133974819Y-96322251D02*
X133974819Y-95655585D01*
X133974819Y-95655585D02*
X134974819Y-96084156D01*
X134974819Y-94750823D02*
X134974819Y-95322251D01*
X134974819Y-95036537D02*
X133974819Y-95036537D01*
X133974819Y-95036537D02*
X134117676Y-95131775D01*
X134117676Y-95131775D02*
X134212914Y-95227013D01*
X134212914Y-95227013D02*
X134260533Y-95322251D01*
X126934819Y-97679394D02*
X125934819Y-97679394D01*
X125934819Y-97679394D02*
X125934819Y-97441299D01*
X125934819Y-97441299D02*
X125982438Y-97298442D01*
X125982438Y-97298442D02*
X126077676Y-97203204D01*
X126077676Y-97203204D02*
X126172914Y-97155585D01*
X126172914Y-97155585D02*
X126363390Y-97107966D01*
X126363390Y-97107966D02*
X126506247Y-97107966D01*
X126506247Y-97107966D02*
X126696723Y-97155585D01*
X126696723Y-97155585D02*
X126791961Y-97203204D01*
X126791961Y-97203204D02*
X126887200Y-97298442D01*
X126887200Y-97298442D02*
X126934819Y-97441299D01*
X126934819Y-97441299D02*
X126934819Y-97679394D01*
X126934819Y-96155585D02*
X126934819Y-96727013D01*
X126934819Y-96441299D02*
X125934819Y-96441299D01*
X125934819Y-96441299D02*
X126077676Y-96536537D01*
X126077676Y-96536537D02*
X126172914Y-96631775D01*
X126172914Y-96631775D02*
X126220533Y-96727013D01*
D12*
X141104047Y-71771570D02*
X140983095Y-71711094D01*
X140983095Y-71711094D02*
X140862142Y-71590142D01*
X140862142Y-71590142D02*
X140680714Y-71408713D01*
X140680714Y-71408713D02*
X140559761Y-71348237D01*
X140559761Y-71348237D02*
X140438809Y-71348237D01*
X140499285Y-71650618D02*
X140378333Y-71590142D01*
X140378333Y-71590142D02*
X140257380Y-71469189D01*
X140257380Y-71469189D02*
X140196904Y-71227284D01*
X140196904Y-71227284D02*
X140196904Y-70803951D01*
X140196904Y-70803951D02*
X140257380Y-70562046D01*
X140257380Y-70562046D02*
X140378333Y-70441094D01*
X140378333Y-70441094D02*
X140499285Y-70380618D01*
X140499285Y-70380618D02*
X140741190Y-70380618D01*
X140741190Y-70380618D02*
X140862142Y-70441094D01*
X140862142Y-70441094D02*
X140983095Y-70562046D01*
X140983095Y-70562046D02*
X141043571Y-70803951D01*
X141043571Y-70803951D02*
X141043571Y-71227284D01*
X141043571Y-71227284D02*
X140983095Y-71469189D01*
X140983095Y-71469189D02*
X140862142Y-71590142D01*
X140862142Y-71590142D02*
X140741190Y-71650618D01*
X140741190Y-71650618D02*
X140499285Y-71650618D01*
X142253095Y-71650618D02*
X141527380Y-71650618D01*
X141890237Y-71650618D02*
X141890237Y-70380618D01*
X141890237Y-70380618D02*
X141769285Y-70562046D01*
X141769285Y-70562046D02*
X141648333Y-70682999D01*
X141648333Y-70682999D02*
X141527380Y-70743475D01*
X141104047Y-71771570D02*
X140983095Y-71711094D01*
X140983095Y-71711094D02*
X140862142Y-71590142D01*
X140862142Y-71590142D02*
X140680714Y-71408713D01*
X140680714Y-71408713D02*
X140559761Y-71348237D01*
X140559761Y-71348237D02*
X140438809Y-71348237D01*
X140499285Y-71650618D02*
X140378333Y-71590142D01*
X140378333Y-71590142D02*
X140257380Y-71469189D01*
X140257380Y-71469189D02*
X140196904Y-71227284D01*
X140196904Y-71227284D02*
X140196904Y-70803951D01*
X140196904Y-70803951D02*
X140257380Y-70562046D01*
X140257380Y-70562046D02*
X140378333Y-70441094D01*
X140378333Y-70441094D02*
X140499285Y-70380618D01*
X140499285Y-70380618D02*
X140741190Y-70380618D01*
X140741190Y-70380618D02*
X140862142Y-70441094D01*
X140862142Y-70441094D02*
X140983095Y-70562046D01*
X140983095Y-70562046D02*
X141043571Y-70803951D01*
X141043571Y-70803951D02*
X141043571Y-71227284D01*
X141043571Y-71227284D02*
X140983095Y-71469189D01*
X140983095Y-71469189D02*
X140862142Y-71590142D01*
X140862142Y-71590142D02*
X140741190Y-71650618D01*
X140741190Y-71650618D02*
X140499285Y-71650618D01*
X142253095Y-71650618D02*
X141527380Y-71650618D01*
X141890237Y-71650618D02*
X141890237Y-70380618D01*
X141890237Y-70380618D02*
X141769285Y-70562046D01*
X141769285Y-70562046D02*
X141648333Y-70682999D01*
X141648333Y-70682999D02*
X141527380Y-70743475D01*
X141154047Y-99366570D02*
X141033095Y-99306094D01*
X141033095Y-99306094D02*
X140912142Y-99185142D01*
X140912142Y-99185142D02*
X140730714Y-99003713D01*
X140730714Y-99003713D02*
X140609761Y-98943237D01*
X140609761Y-98943237D02*
X140488809Y-98943237D01*
X140549285Y-99245618D02*
X140428333Y-99185142D01*
X140428333Y-99185142D02*
X140307380Y-99064189D01*
X140307380Y-99064189D02*
X140246904Y-98822284D01*
X140246904Y-98822284D02*
X140246904Y-98398951D01*
X140246904Y-98398951D02*
X140307380Y-98157046D01*
X140307380Y-98157046D02*
X140428333Y-98036094D01*
X140428333Y-98036094D02*
X140549285Y-97975618D01*
X140549285Y-97975618D02*
X140791190Y-97975618D01*
X140791190Y-97975618D02*
X140912142Y-98036094D01*
X140912142Y-98036094D02*
X141033095Y-98157046D01*
X141033095Y-98157046D02*
X141093571Y-98398951D01*
X141093571Y-98398951D02*
X141093571Y-98822284D01*
X141093571Y-98822284D02*
X141033095Y-99064189D01*
X141033095Y-99064189D02*
X140912142Y-99185142D01*
X140912142Y-99185142D02*
X140791190Y-99245618D01*
X140791190Y-99245618D02*
X140549285Y-99245618D01*
X141577380Y-98096570D02*
X141637856Y-98036094D01*
X141637856Y-98036094D02*
X141758809Y-97975618D01*
X141758809Y-97975618D02*
X142061190Y-97975618D01*
X142061190Y-97975618D02*
X142182142Y-98036094D01*
X142182142Y-98036094D02*
X142242618Y-98096570D01*
X142242618Y-98096570D02*
X142303095Y-98217522D01*
X142303095Y-98217522D02*
X142303095Y-98338475D01*
X142303095Y-98338475D02*
X142242618Y-98519903D01*
X142242618Y-98519903D02*
X141516904Y-99245618D01*
X141516904Y-99245618D02*
X142303095Y-99245618D01*
X141154047Y-99366570D02*
X141033095Y-99306094D01*
X141033095Y-99306094D02*
X140912142Y-99185142D01*
X140912142Y-99185142D02*
X140730714Y-99003713D01*
X140730714Y-99003713D02*
X140609761Y-98943237D01*
X140609761Y-98943237D02*
X140488809Y-98943237D01*
X140549285Y-99245618D02*
X140428333Y-99185142D01*
X140428333Y-99185142D02*
X140307380Y-99064189D01*
X140307380Y-99064189D02*
X140246904Y-98822284D01*
X140246904Y-98822284D02*
X140246904Y-98398951D01*
X140246904Y-98398951D02*
X140307380Y-98157046D01*
X140307380Y-98157046D02*
X140428333Y-98036094D01*
X140428333Y-98036094D02*
X140549285Y-97975618D01*
X140549285Y-97975618D02*
X140791190Y-97975618D01*
X140791190Y-97975618D02*
X140912142Y-98036094D01*
X140912142Y-98036094D02*
X141033095Y-98157046D01*
X141033095Y-98157046D02*
X141093571Y-98398951D01*
X141093571Y-98398951D02*
X141093571Y-98822284D01*
X141093571Y-98822284D02*
X141033095Y-99064189D01*
X141033095Y-99064189D02*
X140912142Y-99185142D01*
X140912142Y-99185142D02*
X140791190Y-99245618D01*
X140791190Y-99245618D02*
X140549285Y-99245618D01*
X141577380Y-98096570D02*
X141637856Y-98036094D01*
X141637856Y-98036094D02*
X141758809Y-97975618D01*
X141758809Y-97975618D02*
X142061190Y-97975618D01*
X142061190Y-97975618D02*
X142182142Y-98036094D01*
X142182142Y-98036094D02*
X142242618Y-98096570D01*
X142242618Y-98096570D02*
X142303095Y-98217522D01*
X142303095Y-98217522D02*
X142303095Y-98338475D01*
X142303095Y-98338475D02*
X142242618Y-98519903D01*
X142242618Y-98519903D02*
X141516904Y-99245618D01*
X141516904Y-99245618D02*
X142303095Y-99245618D01*
D10*
X177992810Y-93708819D02*
X177992810Y-92708819D01*
X179040428Y-93613580D02*
X178992809Y-93661200D01*
X178992809Y-93661200D02*
X178849952Y-93708819D01*
X178849952Y-93708819D02*
X178754714Y-93708819D01*
X178754714Y-93708819D02*
X178611857Y-93661200D01*
X178611857Y-93661200D02*
X178516619Y-93565961D01*
X178516619Y-93565961D02*
X178469000Y-93470723D01*
X178469000Y-93470723D02*
X178421381Y-93280247D01*
X178421381Y-93280247D02*
X178421381Y-93137390D01*
X178421381Y-93137390D02*
X178469000Y-92946914D01*
X178469000Y-92946914D02*
X178516619Y-92851676D01*
X178516619Y-92851676D02*
X178611857Y-92756438D01*
X178611857Y-92756438D02*
X178754714Y-92708819D01*
X178754714Y-92708819D02*
X178849952Y-92708819D01*
X178849952Y-92708819D02*
X178992809Y-92756438D01*
X178992809Y-92756438D02*
X179040428Y-92804057D01*
X179992809Y-93708819D02*
X179421381Y-93708819D01*
X179707095Y-93708819D02*
X179707095Y-92708819D01*
X179707095Y-92708819D02*
X179611857Y-92851676D01*
X179611857Y-92851676D02*
X179516619Y-92946914D01*
X179516619Y-92946914D02*
X179421381Y-92994533D01*
X171833381Y-92454819D02*
X172023857Y-92454819D01*
X172023857Y-92454819D02*
X172119095Y-92502438D01*
X172119095Y-92502438D02*
X172214333Y-92597676D01*
X172214333Y-92597676D02*
X172261952Y-92788152D01*
X172261952Y-92788152D02*
X172261952Y-93121485D01*
X172261952Y-93121485D02*
X172214333Y-93311961D01*
X172214333Y-93311961D02*
X172119095Y-93407200D01*
X172119095Y-93407200D02*
X172023857Y-93454819D01*
X172023857Y-93454819D02*
X171833381Y-93454819D01*
X171833381Y-93454819D02*
X171738143Y-93407200D01*
X171738143Y-93407200D02*
X171642905Y-93311961D01*
X171642905Y-93311961D02*
X171595286Y-93121485D01*
X171595286Y-93121485D02*
X171595286Y-92788152D01*
X171595286Y-92788152D02*
X171642905Y-92597676D01*
X171642905Y-92597676D02*
X171738143Y-92502438D01*
X171738143Y-92502438D02*
X171833381Y-92454819D01*
X172690524Y-93454819D02*
X172690524Y-92454819D01*
X172690524Y-92454819D02*
X173071476Y-92454819D01*
X173071476Y-92454819D02*
X173166714Y-92502438D01*
X173166714Y-92502438D02*
X173214333Y-92550057D01*
X173214333Y-92550057D02*
X173261952Y-92645295D01*
X173261952Y-92645295D02*
X173261952Y-92788152D01*
X173261952Y-92788152D02*
X173214333Y-92883390D01*
X173214333Y-92883390D02*
X173166714Y-92931009D01*
X173166714Y-92931009D02*
X173071476Y-92978628D01*
X173071476Y-92978628D02*
X172690524Y-92978628D01*
X173642905Y-92550057D02*
X173690524Y-92502438D01*
X173690524Y-92502438D02*
X173785762Y-92454819D01*
X173785762Y-92454819D02*
X174023857Y-92454819D01*
X174023857Y-92454819D02*
X174119095Y-92502438D01*
X174119095Y-92502438D02*
X174166714Y-92550057D01*
X174166714Y-92550057D02*
X174214333Y-92645295D01*
X174214333Y-92645295D02*
X174214333Y-92740533D01*
X174214333Y-92740533D02*
X174166714Y-92883390D01*
X174166714Y-92883390D02*
X173595286Y-93454819D01*
X173595286Y-93454819D02*
X174214333Y-93454819D01*
X174547667Y-92454819D02*
X175214333Y-92454819D01*
X175214333Y-92454819D02*
X174785762Y-93454819D01*
X134790119Y-73594094D02*
X133790119Y-73594094D01*
X133790119Y-73594094D02*
X133790119Y-73355999D01*
X133790119Y-73355999D02*
X133837738Y-73213142D01*
X133837738Y-73213142D02*
X133932976Y-73117904D01*
X133932976Y-73117904D02*
X134028214Y-73070285D01*
X134028214Y-73070285D02*
X134218690Y-73022666D01*
X134218690Y-73022666D02*
X134361547Y-73022666D01*
X134361547Y-73022666D02*
X134552023Y-73070285D01*
X134552023Y-73070285D02*
X134647261Y-73117904D01*
X134647261Y-73117904D02*
X134742500Y-73213142D01*
X134742500Y-73213142D02*
X134790119Y-73355999D01*
X134790119Y-73355999D02*
X134790119Y-73594094D01*
X133885357Y-72641713D02*
X133837738Y-72594094D01*
X133837738Y-72594094D02*
X133790119Y-72498856D01*
X133790119Y-72498856D02*
X133790119Y-72260761D01*
X133790119Y-72260761D02*
X133837738Y-72165523D01*
X133837738Y-72165523D02*
X133885357Y-72117904D01*
X133885357Y-72117904D02*
X133980595Y-72070285D01*
X133980595Y-72070285D02*
X134075833Y-72070285D01*
X134075833Y-72070285D02*
X134218690Y-72117904D01*
X134218690Y-72117904D02*
X134790119Y-72689332D01*
X134790119Y-72689332D02*
X134790119Y-72070285D01*
X126702500Y-75046475D02*
X126750119Y-74903618D01*
X126750119Y-74903618D02*
X126750119Y-74665523D01*
X126750119Y-74665523D02*
X126702500Y-74570285D01*
X126702500Y-74570285D02*
X126654880Y-74522666D01*
X126654880Y-74522666D02*
X126559642Y-74475047D01*
X126559642Y-74475047D02*
X126464404Y-74475047D01*
X126464404Y-74475047D02*
X126369166Y-74522666D01*
X126369166Y-74522666D02*
X126321547Y-74570285D01*
X126321547Y-74570285D02*
X126273928Y-74665523D01*
X126273928Y-74665523D02*
X126226309Y-74855999D01*
X126226309Y-74855999D02*
X126178690Y-74951237D01*
X126178690Y-74951237D02*
X126131071Y-74998856D01*
X126131071Y-74998856D02*
X126035833Y-75046475D01*
X126035833Y-75046475D02*
X125940595Y-75046475D01*
X125940595Y-75046475D02*
X125845357Y-74998856D01*
X125845357Y-74998856D02*
X125797738Y-74951237D01*
X125797738Y-74951237D02*
X125750119Y-74855999D01*
X125750119Y-74855999D02*
X125750119Y-74617904D01*
X125750119Y-74617904D02*
X125797738Y-74475047D01*
X125750119Y-73570285D02*
X125750119Y-74046475D01*
X125750119Y-74046475D02*
X126226309Y-74094094D01*
X126226309Y-74094094D02*
X126178690Y-74046475D01*
X126178690Y-74046475D02*
X126131071Y-73951237D01*
X126131071Y-73951237D02*
X126131071Y-73713142D01*
X126131071Y-73713142D02*
X126178690Y-73617904D01*
X126178690Y-73617904D02*
X126226309Y-73570285D01*
X126226309Y-73570285D02*
X126321547Y-73522666D01*
X126321547Y-73522666D02*
X126559642Y-73522666D01*
X126559642Y-73522666D02*
X126654880Y-73570285D01*
X126654880Y-73570285D02*
X126702500Y-73617904D01*
X126702500Y-73617904D02*
X126750119Y-73713142D01*
X126750119Y-73713142D02*
X126750119Y-73951237D01*
X126750119Y-73951237D02*
X126702500Y-74046475D01*
X126702500Y-74046475D02*
X126654880Y-74094094D01*
X126750119Y-73046475D02*
X126750119Y-72855999D01*
X126750119Y-72855999D02*
X126702500Y-72760761D01*
X126702500Y-72760761D02*
X126654880Y-72713142D01*
X126654880Y-72713142D02*
X126512023Y-72617904D01*
X126512023Y-72617904D02*
X126321547Y-72570285D01*
X126321547Y-72570285D02*
X125940595Y-72570285D01*
X125940595Y-72570285D02*
X125845357Y-72617904D01*
X125845357Y-72617904D02*
X125797738Y-72665523D01*
X125797738Y-72665523D02*
X125750119Y-72760761D01*
X125750119Y-72760761D02*
X125750119Y-72951237D01*
X125750119Y-72951237D02*
X125797738Y-73046475D01*
X125797738Y-73046475D02*
X125845357Y-73094094D01*
X125845357Y-73094094D02*
X125940595Y-73141713D01*
X125940595Y-73141713D02*
X126178690Y-73141713D01*
X126178690Y-73141713D02*
X126273928Y-73094094D01*
X126273928Y-73094094D02*
X126321547Y-73046475D01*
X126321547Y-73046475D02*
X126369166Y-72951237D01*
X126369166Y-72951237D02*
X126369166Y-72760761D01*
X126369166Y-72760761D02*
X126321547Y-72665523D01*
X126321547Y-72665523D02*
X126273928Y-72617904D01*
X126273928Y-72617904D02*
X126178690Y-72570285D01*
X125750119Y-72236951D02*
X125750119Y-71570285D01*
X125750119Y-71570285D02*
X126750119Y-71998856D01*
X126750119Y-70665523D02*
X126750119Y-71236951D01*
X126750119Y-70951237D02*
X125750119Y-70951237D01*
X125750119Y-70951237D02*
X125892976Y-71046475D01*
X125892976Y-71046475D02*
X125988214Y-71141713D01*
X125988214Y-71141713D02*
X126035833Y-71236951D01*
X134790119Y-73594094D02*
X133790119Y-73594094D01*
X133790119Y-73594094D02*
X133790119Y-73355999D01*
X133790119Y-73355999D02*
X133837738Y-73213142D01*
X133837738Y-73213142D02*
X133932976Y-73117904D01*
X133932976Y-73117904D02*
X134028214Y-73070285D01*
X134028214Y-73070285D02*
X134218690Y-73022666D01*
X134218690Y-73022666D02*
X134361547Y-73022666D01*
X134361547Y-73022666D02*
X134552023Y-73070285D01*
X134552023Y-73070285D02*
X134647261Y-73117904D01*
X134647261Y-73117904D02*
X134742500Y-73213142D01*
X134742500Y-73213142D02*
X134790119Y-73355999D01*
X134790119Y-73355999D02*
X134790119Y-73594094D01*
X133885357Y-72641713D02*
X133837738Y-72594094D01*
X133837738Y-72594094D02*
X133790119Y-72498856D01*
X133790119Y-72498856D02*
X133790119Y-72260761D01*
X133790119Y-72260761D02*
X133837738Y-72165523D01*
X133837738Y-72165523D02*
X133885357Y-72117904D01*
X133885357Y-72117904D02*
X133980595Y-72070285D01*
X133980595Y-72070285D02*
X134075833Y-72070285D01*
X134075833Y-72070285D02*
X134218690Y-72117904D01*
X134218690Y-72117904D02*
X134790119Y-72689332D01*
X134790119Y-72689332D02*
X134790119Y-72070285D01*
X154620933Y-88973819D02*
X154287600Y-88497628D01*
X154049505Y-88973819D02*
X154049505Y-87973819D01*
X154049505Y-87973819D02*
X154430457Y-87973819D01*
X154430457Y-87973819D02*
X154525695Y-88021438D01*
X154525695Y-88021438D02*
X154573314Y-88069057D01*
X154573314Y-88069057D02*
X154620933Y-88164295D01*
X154620933Y-88164295D02*
X154620933Y-88307152D01*
X154620933Y-88307152D02*
X154573314Y-88402390D01*
X154573314Y-88402390D02*
X154525695Y-88450009D01*
X154525695Y-88450009D02*
X154430457Y-88497628D01*
X154430457Y-88497628D02*
X154049505Y-88497628D01*
X155478076Y-88307152D02*
X155478076Y-88973819D01*
X155239981Y-87926200D02*
X155001886Y-88640485D01*
X155001886Y-88640485D02*
X155620933Y-88640485D01*
X141819333Y-88948419D02*
X141486000Y-88472228D01*
X141247905Y-88948419D02*
X141247905Y-87948419D01*
X141247905Y-87948419D02*
X141628857Y-87948419D01*
X141628857Y-87948419D02*
X141724095Y-87996038D01*
X141724095Y-87996038D02*
X141771714Y-88043657D01*
X141771714Y-88043657D02*
X141819333Y-88138895D01*
X141819333Y-88138895D02*
X141819333Y-88281752D01*
X141819333Y-88281752D02*
X141771714Y-88376990D01*
X141771714Y-88376990D02*
X141724095Y-88424609D01*
X141724095Y-88424609D02*
X141628857Y-88472228D01*
X141628857Y-88472228D02*
X141247905Y-88472228D01*
X142676476Y-87948419D02*
X142486000Y-87948419D01*
X142486000Y-87948419D02*
X142390762Y-87996038D01*
X142390762Y-87996038D02*
X142343143Y-88043657D01*
X142343143Y-88043657D02*
X142247905Y-88186514D01*
X142247905Y-88186514D02*
X142200286Y-88376990D01*
X142200286Y-88376990D02*
X142200286Y-88757942D01*
X142200286Y-88757942D02*
X142247905Y-88853180D01*
X142247905Y-88853180D02*
X142295524Y-88900800D01*
X142295524Y-88900800D02*
X142390762Y-88948419D01*
X142390762Y-88948419D02*
X142581238Y-88948419D01*
X142581238Y-88948419D02*
X142676476Y-88900800D01*
X142676476Y-88900800D02*
X142724095Y-88853180D01*
X142724095Y-88853180D02*
X142771714Y-88757942D01*
X142771714Y-88757942D02*
X142771714Y-88519847D01*
X142771714Y-88519847D02*
X142724095Y-88424609D01*
X142724095Y-88424609D02*
X142676476Y-88376990D01*
X142676476Y-88376990D02*
X142581238Y-88329371D01*
X142581238Y-88329371D02*
X142390762Y-88329371D01*
X142390762Y-88329371D02*
X142295524Y-88376990D01*
X142295524Y-88376990D02*
X142247905Y-88424609D01*
X142247905Y-88424609D02*
X142200286Y-88519847D01*
X151808095Y-92054819D02*
X151808095Y-92864342D01*
X151808095Y-92864342D02*
X151855714Y-92959580D01*
X151855714Y-92959580D02*
X151903333Y-93007200D01*
X151903333Y-93007200D02*
X151998571Y-93054819D01*
X151998571Y-93054819D02*
X152189047Y-93054819D01*
X152189047Y-93054819D02*
X152284285Y-93007200D01*
X152284285Y-93007200D02*
X152331904Y-92959580D01*
X152331904Y-92959580D02*
X152379523Y-92864342D01*
X152379523Y-92864342D02*
X152379523Y-92054819D01*
X152808095Y-92150057D02*
X152855714Y-92102438D01*
X152855714Y-92102438D02*
X152950952Y-92054819D01*
X152950952Y-92054819D02*
X153189047Y-92054819D01*
X153189047Y-92054819D02*
X153284285Y-92102438D01*
X153284285Y-92102438D02*
X153331904Y-92150057D01*
X153331904Y-92150057D02*
X153379523Y-92245295D01*
X153379523Y-92245295D02*
X153379523Y-92340533D01*
X153379523Y-92340533D02*
X153331904Y-92483390D01*
X153331904Y-92483390D02*
X152760476Y-93054819D01*
X152760476Y-93054819D02*
X153379523Y-93054819D01*
X141819333Y-82014219D02*
X141486000Y-81538028D01*
X141247905Y-82014219D02*
X141247905Y-81014219D01*
X141247905Y-81014219D02*
X141628857Y-81014219D01*
X141628857Y-81014219D02*
X141724095Y-81061838D01*
X141724095Y-81061838D02*
X141771714Y-81109457D01*
X141771714Y-81109457D02*
X141819333Y-81204695D01*
X141819333Y-81204695D02*
X141819333Y-81347552D01*
X141819333Y-81347552D02*
X141771714Y-81442790D01*
X141771714Y-81442790D02*
X141724095Y-81490409D01*
X141724095Y-81490409D02*
X141628857Y-81538028D01*
X141628857Y-81538028D02*
X141247905Y-81538028D01*
X142771714Y-82014219D02*
X142200286Y-82014219D01*
X142486000Y-82014219D02*
X142486000Y-81014219D01*
X142486000Y-81014219D02*
X142390762Y-81157076D01*
X142390762Y-81157076D02*
X142295524Y-81252314D01*
X142295524Y-81252314D02*
X142200286Y-81299933D01*
D13*
%TO.C,R8*%
X169130000Y-75058700D02*
X169130000Y-81598700D01*
X169130000Y-81598700D02*
X171870000Y-81598700D01*
X170500000Y-74288700D02*
X170500000Y-75058700D01*
X170500000Y-82368700D02*
X170500000Y-81598700D01*
X171870000Y-75058700D02*
X169130000Y-75058700D01*
X171870000Y-81598700D02*
X171870000Y-75058700D01*
%TO.C,R3*%
X162130000Y-75230000D02*
X162130000Y-81770000D01*
X162130000Y-81770000D02*
X164870000Y-81770000D01*
X163500000Y-74460000D02*
X163500000Y-75230000D01*
X163500000Y-82540000D02*
X163500000Y-81770000D01*
X164870000Y-75230000D02*
X162130000Y-75230000D01*
X164870000Y-81770000D02*
X164870000Y-75230000D01*
%TO.C,R7*%
X162130000Y-89901300D02*
X162130000Y-96441300D01*
X162130000Y-96441300D02*
X164870000Y-96441300D01*
X163500000Y-89131300D02*
X163500000Y-89901300D01*
X163500000Y-97211300D02*
X163500000Y-96441300D01*
X164870000Y-89901300D02*
X162130000Y-89901300D01*
X164870000Y-96441300D02*
X164870000Y-89901300D01*
%TO.C,U1*%
X152570000Y-70690000D02*
X150620000Y-70690000D01*
X152570000Y-70690000D02*
X154520000Y-70690000D01*
X152570000Y-75810000D02*
X150620000Y-75810000D01*
X152570000Y-75810000D02*
X154520000Y-75810000D01*
X149870000Y-70785000D02*
X149630000Y-70455000D01*
X150110000Y-70455000D01*
X149870000Y-70785000D01*
G36*
X149870000Y-70785000D02*
G01*
X149630000Y-70455000D01*
X150110000Y-70455000D01*
X149870000Y-70785000D01*
G37*
%TO.C,R2*%
X130630000Y-81730000D02*
X130630000Y-88270000D01*
X130630000Y-88270000D02*
X133370000Y-88270000D01*
X132000000Y-80960000D02*
X132000000Y-81730000D01*
X132000000Y-89040000D02*
X132000000Y-88270000D01*
X133370000Y-81730000D02*
X130630000Y-81730000D01*
X133370000Y-88270000D02*
X133370000Y-81730000D01*
%TO.C,R5*%
X150960000Y-81500000D02*
X151730000Y-81500000D01*
X151730000Y-80130000D02*
X151730000Y-82870000D01*
X151730000Y-82870000D02*
X158270000Y-82870000D01*
X158270000Y-80130000D02*
X151730000Y-80130000D01*
X158270000Y-82870000D02*
X158270000Y-80130000D01*
X159040000Y-81500000D02*
X158270000Y-81500000D01*
%TO.C,J3*%
X149896600Y-105622400D02*
X149896600Y-104292400D01*
X151226600Y-105622400D02*
X149896600Y-105622400D01*
X152496600Y-102962400D02*
X155096600Y-102962400D01*
X152496600Y-105622400D02*
X152496600Y-102962400D01*
X152496600Y-105622400D02*
X155096600Y-105622400D01*
X155096600Y-105622400D02*
X155096600Y-102962400D01*
D12*
%TO.C,J1*%
X178662500Y-81325000D02*
X178662500Y-71675000D01*
X200462500Y-71675000D02*
X184712500Y-71675000D01*
X200462500Y-81325000D02*
X184712500Y-81325000D01*
X200462500Y-81325000D02*
X200462500Y-71675000D01*
D13*
%TO.C,D1*%
X127015552Y-99435799D02*
X128005501Y-100425748D01*
X127927719Y-98523631D02*
X127015552Y-99435799D01*
X128005501Y-100425748D02*
X128917669Y-99513581D01*
X127927719Y-98523631D02*
G75*
G02*
X128917669Y-99513581I2572281J1582331D01*
G01*
D11*
%TO.C,Q1*%
X137725000Y-65956300D02*
X139275000Y-65956300D01*
X139625000Y-66126300D02*
X142825000Y-66126300D01*
X139625000Y-76026300D02*
X139625000Y-66126300D01*
X142825000Y-66126300D02*
X142825000Y-76026300D01*
X142825000Y-76026300D02*
X139625000Y-76026300D01*
%TO.C,Q2*%
X137775000Y-93551300D02*
X139325000Y-93551300D01*
X139675000Y-93721300D02*
X142875000Y-93721300D01*
X139675000Y-103621300D02*
X139675000Y-93721300D01*
X142875000Y-93721300D02*
X142875000Y-103621300D01*
X142875000Y-103621300D02*
X139675000Y-103621300D01*
D14*
%TO.C,IC1*%
X167920000Y-95921000D02*
X167920000Y-90079000D01*
X167920000Y-95921000D02*
X178080000Y-95921000D01*
X178080000Y-90079000D02*
X167920000Y-90079000D01*
X178080000Y-90079000D02*
X178080000Y-91984000D01*
X178080000Y-95921000D02*
X178080000Y-94016000D01*
X178080000Y-94016000D02*
G75*
G02*
X178080000Y-91984000I0J1016000D01*
G01*
D13*
%TO.C,D2*%
X132809799Y-69371552D02*
X131897631Y-70283719D01*
X132887581Y-71273669D02*
X133799748Y-70361501D01*
X133799748Y-70361501D02*
X132809799Y-69371552D01*
X132887581Y-71273669D02*
G75*
G02*
X131897631Y-70283719I-2572281J-1582331D01*
G01*
%TO.C,R4*%
X150880000Y-88500000D02*
X151650000Y-88500000D01*
X151650000Y-87130000D02*
X151650000Y-89870000D01*
X151650000Y-89870000D02*
X158190000Y-89870000D01*
X158190000Y-87130000D02*
X151650000Y-87130000D01*
X158190000Y-89870000D02*
X158190000Y-87130000D01*
X158960000Y-88500000D02*
X158190000Y-88500000D01*
%TO.C,R6*%
X137960000Y-88500000D02*
X138730000Y-88500000D01*
X138730000Y-87130000D02*
X138730000Y-89870000D01*
X138730000Y-89870000D02*
X145270000Y-89870000D01*
X145270000Y-87130000D02*
X138730000Y-87130000D01*
X145270000Y-89870000D02*
X145270000Y-87130000D01*
X146040000Y-88500000D02*
X145270000Y-88500000D01*
%TO.C,J5*%
X149895000Y-66330000D02*
X149895000Y-65000000D01*
X151225000Y-66330000D02*
X149895000Y-66330000D01*
X152495000Y-63670000D02*
X155095000Y-63670000D01*
X152495000Y-66330000D02*
X152495000Y-63670000D01*
X152495000Y-66330000D02*
X155095000Y-66330000D01*
X155095000Y-66330000D02*
X155095000Y-63670000D01*
%TO.C,U2*%
X152570000Y-93440000D02*
X150620000Y-93440000D01*
X152570000Y-93440000D02*
X154520000Y-93440000D01*
X152570000Y-98560000D02*
X150620000Y-98560000D01*
X152570000Y-98560000D02*
X154520000Y-98560000D01*
X149870000Y-93535000D02*
X149630000Y-93205000D01*
X150110000Y-93205000D01*
X149870000Y-93535000D01*
G36*
X149870000Y-93535000D02*
G01*
X149630000Y-93205000D01*
X150110000Y-93205000D01*
X149870000Y-93535000D01*
G37*
%TO.C,R1*%
X137928800Y-81500000D02*
X138698800Y-81500000D01*
X138698800Y-80130000D02*
X138698800Y-82870000D01*
X138698800Y-82870000D02*
X145238800Y-82870000D01*
X145238800Y-80130000D02*
X138698800Y-80130000D01*
X145238800Y-82870000D02*
X145238800Y-80130000D01*
X146008800Y-81500000D02*
X145238800Y-81500000D01*
%TD*%
M02*
