%TF.GenerationSoftware,KiCad,Pcbnew,8.0.8*%
%TF.CreationDate,2025-02-27T22:52:23-05:00*%
%TF.ProjectId,CurrentDriverBoard,43757272-656e-4744-9472-69766572426f,rev?*%
%TF.SameCoordinates,Original*%
%TF.FileFunction,Copper,L1,Top*%
%TF.FilePolarity,Positive*%
%FSLAX46Y46*%
G04 Gerber Fmt 4.6, Leading zero omitted, Abs format (unit mm)*
G04 Created by KiCad (PCBNEW 8.0.8) date 2025-02-27 22:52:23*
%MOMM*%
%LPD*%
G01*
G04 APERTURE LIST*
%TA.AperFunction,ComponentPad*%
%ADD10R,1.700000X1.700000*%
%TD*%
%TA.AperFunction,ComponentPad*%
%ADD11O,1.700000X1.700000*%
%TD*%
%TA.AperFunction,ComponentPad*%
%ADD12C,1.600000*%
%TD*%
%TA.AperFunction,ComponentPad*%
%ADD13O,1.600000X1.600000*%
%TD*%
%TA.AperFunction,ComponentPad*%
%ADD14R,1.130000X1.130000*%
%TD*%
%TA.AperFunction,ComponentPad*%
%ADD15C,1.130000*%
%TD*%
%TA.AperFunction,Conductor*%
%ADD16C,0.200000*%
%TD*%
G04 APERTURE END LIST*
D10*
%TO.P,J1,1,Pin_1*%
%TO.N,Net-(J1-Pin_1)*%
X156000000Y-84960000D03*
D11*
%TO.P,J1,2,Pin_2*%
%TO.N,Earth*%
X156000000Y-87500000D03*
%TO.P,J1,3,Pin_3*%
%TO.N,Net-(J1-Pin_3)*%
X156000000Y-90040000D03*
%TD*%
D12*
%TO.P,R1,1*%
%TO.N,Net-(J2-Pin_1)*%
X137871200Y-70383400D03*
D13*
%TO.P,R1,2*%
%TO.N,Net-(J3-Pin_2)*%
X148031200Y-70383400D03*
%TD*%
D12*
%TO.P,R2,1*%
%TO.N,Net-(J4-Pin_2)*%
X137920000Y-76000000D03*
D13*
%TO.P,R2,2*%
%TO.N,Earth*%
X148080000Y-76000000D03*
%TD*%
D10*
%TO.P,J4,1,Pin_1*%
%TO.N,Net-(J1-Pin_3)*%
X164084000Y-78465600D03*
D11*
%TO.P,J4,2,Pin_2*%
%TO.N,Net-(J4-Pin_2)*%
X164084000Y-75925600D03*
%TD*%
D10*
%TO.P,J2,1,Pin_1*%
%TO.N,Net-(J2-Pin_1)*%
X164058600Y-84937600D03*
D11*
%TO.P,J2,2,Pin_2*%
%TO.N,unconnected-(J2-Pin_2-Pad2)*%
X164058600Y-87477600D03*
%TO.P,J2,3,Pin_3*%
%TO.N,Earth*%
X164058600Y-90017600D03*
%TD*%
D10*
%TO.P,J3,1,Pin_1*%
%TO.N,Earth*%
X157383400Y-65506600D03*
D11*
%TO.P,J3,2,Pin_2*%
%TO.N,Net-(J3-Pin_2)*%
X154843400Y-65506600D03*
%TD*%
D14*
%TO.P,U1,1,NULL*%
%TO.N,unconnected-(U1-NULL-Pad1)*%
X138030000Y-83690000D03*
D15*
%TO.P,U1,2,-*%
%TO.N,Net-(J4-Pin_2)*%
X138030000Y-86230000D03*
%TO.P,U1,3,+*%
%TO.N,Net-(J3-Pin_2)*%
X138030000Y-88770000D03*
%TO.P,U1,4,V-*%
%TO.N,unconnected-(U1-V--Pad4)*%
X138030000Y-91310000D03*
%TO.P,U1,5,NULL*%
%TO.N,unconnected-(U1-NULL-Pad5)*%
X145970000Y-91310000D03*
%TO.P,U1,6*%
%TO.N,Net-(J1-Pin_1)*%
X145970000Y-88770000D03*
%TO.P,U1,7,V+*%
%TO.N,Net-(J2-Pin_1)*%
X145970000Y-86230000D03*
%TO.P,U1,8,NC*%
%TO.N,unconnected-(U1-NC-Pad8)*%
X145970000Y-83690000D03*
%TD*%
D16*
%TO.N,Net-(J1-Pin_1)*%
X145970000Y-88770000D02*
X149780000Y-84960000D01*
X149780000Y-84960000D02*
X156000000Y-84960000D01*
%TO.N,Net-(J2-Pin_1)*%
X148391700Y-83808300D02*
X162929300Y-83808300D01*
X145970000Y-86230000D02*
X148391700Y-83808300D01*
X162929300Y-83808300D02*
X164058600Y-84937600D01*
%TO.N,Net-(J4-Pin_2)*%
X162995660Y-74900000D02*
X163027030Y-74868630D01*
X139020000Y-74900000D02*
X162995660Y-74900000D01*
X137920000Y-76000000D02*
X139020000Y-74900000D01*
X163027030Y-74868630D02*
X164084000Y-75925600D01*
%TO.N,Net-(J3-Pin_2)*%
X154843400Y-65506600D02*
X152908000Y-65506600D01*
X152908000Y-65506600D02*
X148031200Y-70383400D01*
%TD*%
M02*
