%TF.GenerationSoftware,KiCad,Pcbnew,8.0.8*%
%TF.CreationDate,2025-02-27T22:52:23-05:00*%
%TF.ProjectId,CurrentDriverBoard,43757272-656e-4744-9472-69766572426f,rev?*%
%TF.SameCoordinates,Original*%
%TF.FileFunction,Legend,Top*%
%TF.FilePolarity,Positive*%
%FSLAX46Y46*%
G04 Gerber Fmt 4.6, Leading zero omitted, Abs format (unit mm)*
G04 Created by KiCad (PCBNEW 8.0.8) date 2025-02-27 22:52:23*
%MOMM*%
%LPD*%
G01*
G04 APERTURE LIST*
%ADD10C,0.100000*%
%ADD11C,0.150000*%
%ADD12C,0.254000*%
%ADD13C,0.120000*%
%ADD14C,0.200000*%
G04 APERTURE END LIST*
D10*
X153021312Y-68382580D02*
X152973693Y-68430200D01*
X152973693Y-68430200D02*
X152830836Y-68477819D01*
X152830836Y-68477819D02*
X152735598Y-68477819D01*
X152735598Y-68477819D02*
X152592741Y-68430200D01*
X152592741Y-68430200D02*
X152497503Y-68334961D01*
X152497503Y-68334961D02*
X152449884Y-68239723D01*
X152449884Y-68239723D02*
X152402265Y-68049247D01*
X152402265Y-68049247D02*
X152402265Y-67906390D01*
X152402265Y-67906390D02*
X152449884Y-67715914D01*
X152449884Y-67715914D02*
X152497503Y-67620676D01*
X152497503Y-67620676D02*
X152592741Y-67525438D01*
X152592741Y-67525438D02*
X152735598Y-67477819D01*
X152735598Y-67477819D02*
X152830836Y-67477819D01*
X152830836Y-67477819D02*
X152973693Y-67525438D01*
X152973693Y-67525438D02*
X153021312Y-67573057D01*
X153592741Y-68477819D02*
X153497503Y-68430200D01*
X153497503Y-68430200D02*
X153449884Y-68382580D01*
X153449884Y-68382580D02*
X153402265Y-68287342D01*
X153402265Y-68287342D02*
X153402265Y-68001628D01*
X153402265Y-68001628D02*
X153449884Y-67906390D01*
X153449884Y-67906390D02*
X153497503Y-67858771D01*
X153497503Y-67858771D02*
X153592741Y-67811152D01*
X153592741Y-67811152D02*
X153735598Y-67811152D01*
X153735598Y-67811152D02*
X153830836Y-67858771D01*
X153830836Y-67858771D02*
X153878455Y-67906390D01*
X153878455Y-67906390D02*
X153926074Y-68001628D01*
X153926074Y-68001628D02*
X153926074Y-68287342D01*
X153926074Y-68287342D02*
X153878455Y-68382580D01*
X153878455Y-68382580D02*
X153830836Y-68430200D01*
X153830836Y-68430200D02*
X153735598Y-68477819D01*
X153735598Y-68477819D02*
X153592741Y-68477819D01*
X154354646Y-67811152D02*
X154354646Y-68477819D01*
X154354646Y-67906390D02*
X154402265Y-67858771D01*
X154402265Y-67858771D02*
X154497503Y-67811152D01*
X154497503Y-67811152D02*
X154640360Y-67811152D01*
X154640360Y-67811152D02*
X154735598Y-67858771D01*
X154735598Y-67858771D02*
X154783217Y-67954009D01*
X154783217Y-67954009D02*
X154783217Y-68477819D01*
X155259408Y-67811152D02*
X155259408Y-68477819D01*
X155259408Y-67906390D02*
X155307027Y-67858771D01*
X155307027Y-67858771D02*
X155402265Y-67811152D01*
X155402265Y-67811152D02*
X155545122Y-67811152D01*
X155545122Y-67811152D02*
X155640360Y-67858771D01*
X155640360Y-67858771D02*
X155687979Y-67954009D01*
X155687979Y-67954009D02*
X155687979Y-68477819D01*
X156545122Y-68430200D02*
X156449884Y-68477819D01*
X156449884Y-68477819D02*
X156259408Y-68477819D01*
X156259408Y-68477819D02*
X156164170Y-68430200D01*
X156164170Y-68430200D02*
X156116551Y-68334961D01*
X156116551Y-68334961D02*
X156116551Y-67954009D01*
X156116551Y-67954009D02*
X156164170Y-67858771D01*
X156164170Y-67858771D02*
X156259408Y-67811152D01*
X156259408Y-67811152D02*
X156449884Y-67811152D01*
X156449884Y-67811152D02*
X156545122Y-67858771D01*
X156545122Y-67858771D02*
X156592741Y-67954009D01*
X156592741Y-67954009D02*
X156592741Y-68049247D01*
X156592741Y-68049247D02*
X156116551Y-68144485D01*
X157449884Y-68430200D02*
X157354646Y-68477819D01*
X157354646Y-68477819D02*
X157164170Y-68477819D01*
X157164170Y-68477819D02*
X157068932Y-68430200D01*
X157068932Y-68430200D02*
X157021313Y-68382580D01*
X157021313Y-68382580D02*
X156973694Y-68287342D01*
X156973694Y-68287342D02*
X156973694Y-68001628D01*
X156973694Y-68001628D02*
X157021313Y-67906390D01*
X157021313Y-67906390D02*
X157068932Y-67858771D01*
X157068932Y-67858771D02*
X157164170Y-67811152D01*
X157164170Y-67811152D02*
X157354646Y-67811152D01*
X157354646Y-67811152D02*
X157449884Y-67858771D01*
X157735599Y-67811152D02*
X158116551Y-67811152D01*
X157878456Y-67477819D02*
X157878456Y-68334961D01*
X157878456Y-68334961D02*
X157926075Y-68430200D01*
X157926075Y-68430200D02*
X158021313Y-68477819D01*
X158021313Y-68477819D02*
X158116551Y-68477819D01*
X158449885Y-68477819D02*
X158449885Y-67811152D01*
X158449885Y-67477819D02*
X158402266Y-67525438D01*
X158402266Y-67525438D02*
X158449885Y-67573057D01*
X158449885Y-67573057D02*
X158497504Y-67525438D01*
X158497504Y-67525438D02*
X158449885Y-67477819D01*
X158449885Y-67477819D02*
X158449885Y-67573057D01*
X159068932Y-68477819D02*
X158973694Y-68430200D01*
X158973694Y-68430200D02*
X158926075Y-68382580D01*
X158926075Y-68382580D02*
X158878456Y-68287342D01*
X158878456Y-68287342D02*
X158878456Y-68001628D01*
X158878456Y-68001628D02*
X158926075Y-67906390D01*
X158926075Y-67906390D02*
X158973694Y-67858771D01*
X158973694Y-67858771D02*
X159068932Y-67811152D01*
X159068932Y-67811152D02*
X159211789Y-67811152D01*
X159211789Y-67811152D02*
X159307027Y-67858771D01*
X159307027Y-67858771D02*
X159354646Y-67906390D01*
X159354646Y-67906390D02*
X159402265Y-68001628D01*
X159402265Y-68001628D02*
X159402265Y-68287342D01*
X159402265Y-68287342D02*
X159354646Y-68382580D01*
X159354646Y-68382580D02*
X159307027Y-68430200D01*
X159307027Y-68430200D02*
X159211789Y-68477819D01*
X159211789Y-68477819D02*
X159068932Y-68477819D01*
X159830837Y-67811152D02*
X159830837Y-68477819D01*
X159830837Y-67906390D02*
X159878456Y-67858771D01*
X159878456Y-67858771D02*
X159973694Y-67811152D01*
X159973694Y-67811152D02*
X160116551Y-67811152D01*
X160116551Y-67811152D02*
X160211789Y-67858771D01*
X160211789Y-67858771D02*
X160259408Y-67954009D01*
X160259408Y-67954009D02*
X160259408Y-68477819D01*
D11*
X152261904Y-93454819D02*
X151785714Y-93454819D01*
X151785714Y-93454819D02*
X151785714Y-92454819D01*
X153023809Y-93454819D02*
X153023809Y-92931009D01*
X153023809Y-92931009D02*
X152976190Y-92835771D01*
X152976190Y-92835771D02*
X152880952Y-92788152D01*
X152880952Y-92788152D02*
X152690476Y-92788152D01*
X152690476Y-92788152D02*
X152595238Y-92835771D01*
X153023809Y-93407200D02*
X152928571Y-93454819D01*
X152928571Y-93454819D02*
X152690476Y-93454819D01*
X152690476Y-93454819D02*
X152595238Y-93407200D01*
X152595238Y-93407200D02*
X152547619Y-93311961D01*
X152547619Y-93311961D02*
X152547619Y-93216723D01*
X152547619Y-93216723D02*
X152595238Y-93121485D01*
X152595238Y-93121485D02*
X152690476Y-93073866D01*
X152690476Y-93073866D02*
X152928571Y-93073866D01*
X152928571Y-93073866D02*
X153023809Y-93026247D01*
X153452381Y-93407200D02*
X153547619Y-93454819D01*
X153547619Y-93454819D02*
X153738095Y-93454819D01*
X153738095Y-93454819D02*
X153833333Y-93407200D01*
X153833333Y-93407200D02*
X153880952Y-93311961D01*
X153880952Y-93311961D02*
X153880952Y-93264342D01*
X153880952Y-93264342D02*
X153833333Y-93169104D01*
X153833333Y-93169104D02*
X153738095Y-93121485D01*
X153738095Y-93121485D02*
X153595238Y-93121485D01*
X153595238Y-93121485D02*
X153500000Y-93073866D01*
X153500000Y-93073866D02*
X153452381Y-92978628D01*
X153452381Y-92978628D02*
X153452381Y-92931009D01*
X153452381Y-92931009D02*
X153500000Y-92835771D01*
X153500000Y-92835771D02*
X153595238Y-92788152D01*
X153595238Y-92788152D02*
X153738095Y-92788152D01*
X153738095Y-92788152D02*
X153833333Y-92835771D01*
X154690476Y-93407200D02*
X154595238Y-93454819D01*
X154595238Y-93454819D02*
X154404762Y-93454819D01*
X154404762Y-93454819D02*
X154309524Y-93407200D01*
X154309524Y-93407200D02*
X154261905Y-93311961D01*
X154261905Y-93311961D02*
X154261905Y-92931009D01*
X154261905Y-92931009D02*
X154309524Y-92835771D01*
X154309524Y-92835771D02*
X154404762Y-92788152D01*
X154404762Y-92788152D02*
X154595238Y-92788152D01*
X154595238Y-92788152D02*
X154690476Y-92835771D01*
X154690476Y-92835771D02*
X154738095Y-92931009D01*
X154738095Y-92931009D02*
X154738095Y-93026247D01*
X154738095Y-93026247D02*
X154261905Y-93121485D01*
X155166667Y-93454819D02*
X155166667Y-92788152D01*
X155166667Y-92978628D02*
X155214286Y-92883390D01*
X155214286Y-92883390D02*
X155261905Y-92835771D01*
X155261905Y-92835771D02*
X155357143Y-92788152D01*
X155357143Y-92788152D02*
X155452381Y-92788152D01*
X156547620Y-93454819D02*
X156547620Y-92454819D01*
X156547620Y-92454819D02*
X156785715Y-92454819D01*
X156785715Y-92454819D02*
X156928572Y-92502438D01*
X156928572Y-92502438D02*
X157023810Y-92597676D01*
X157023810Y-92597676D02*
X157071429Y-92692914D01*
X157071429Y-92692914D02*
X157119048Y-92883390D01*
X157119048Y-92883390D02*
X157119048Y-93026247D01*
X157119048Y-93026247D02*
X157071429Y-93216723D01*
X157071429Y-93216723D02*
X157023810Y-93311961D01*
X157023810Y-93311961D02*
X156928572Y-93407200D01*
X156928572Y-93407200D02*
X156785715Y-93454819D01*
X156785715Y-93454819D02*
X156547620Y-93454819D01*
X157547620Y-93454819D02*
X157547620Y-92788152D01*
X157547620Y-92454819D02*
X157500001Y-92502438D01*
X157500001Y-92502438D02*
X157547620Y-92550057D01*
X157547620Y-92550057D02*
X157595239Y-92502438D01*
X157595239Y-92502438D02*
X157547620Y-92454819D01*
X157547620Y-92454819D02*
X157547620Y-92550057D01*
X158166667Y-93454819D02*
X158071429Y-93407200D01*
X158071429Y-93407200D02*
X158023810Y-93359580D01*
X158023810Y-93359580D02*
X157976191Y-93264342D01*
X157976191Y-93264342D02*
X157976191Y-92978628D01*
X157976191Y-92978628D02*
X158023810Y-92883390D01*
X158023810Y-92883390D02*
X158071429Y-92835771D01*
X158071429Y-92835771D02*
X158166667Y-92788152D01*
X158166667Y-92788152D02*
X158309524Y-92788152D01*
X158309524Y-92788152D02*
X158404762Y-92835771D01*
X158404762Y-92835771D02*
X158452381Y-92883390D01*
X158452381Y-92883390D02*
X158500000Y-92978628D01*
X158500000Y-92978628D02*
X158500000Y-93264342D01*
X158500000Y-93264342D02*
X158452381Y-93359580D01*
X158452381Y-93359580D02*
X158404762Y-93407200D01*
X158404762Y-93407200D02*
X158309524Y-93454819D01*
X158309524Y-93454819D02*
X158166667Y-93454819D01*
X159357143Y-93454819D02*
X159357143Y-92454819D01*
X159357143Y-93407200D02*
X159261905Y-93454819D01*
X159261905Y-93454819D02*
X159071429Y-93454819D01*
X159071429Y-93454819D02*
X158976191Y-93407200D01*
X158976191Y-93407200D02*
X158928572Y-93359580D01*
X158928572Y-93359580D02*
X158880953Y-93264342D01*
X158880953Y-93264342D02*
X158880953Y-92978628D01*
X158880953Y-92978628D02*
X158928572Y-92883390D01*
X158928572Y-92883390D02*
X158976191Y-92835771D01*
X158976191Y-92835771D02*
X159071429Y-92788152D01*
X159071429Y-92788152D02*
X159261905Y-92788152D01*
X159261905Y-92788152D02*
X159357143Y-92835771D01*
X160214286Y-93407200D02*
X160119048Y-93454819D01*
X160119048Y-93454819D02*
X159928572Y-93454819D01*
X159928572Y-93454819D02*
X159833334Y-93407200D01*
X159833334Y-93407200D02*
X159785715Y-93311961D01*
X159785715Y-93311961D02*
X159785715Y-92931009D01*
X159785715Y-92931009D02*
X159833334Y-92835771D01*
X159833334Y-92835771D02*
X159928572Y-92788152D01*
X159928572Y-92788152D02*
X160119048Y-92788152D01*
X160119048Y-92788152D02*
X160214286Y-92835771D01*
X160214286Y-92835771D02*
X160261905Y-92931009D01*
X160261905Y-92931009D02*
X160261905Y-93026247D01*
X160261905Y-93026247D02*
X159785715Y-93121485D01*
X142784533Y-70838219D02*
X142451200Y-70362028D01*
X142213105Y-70838219D02*
X142213105Y-69838219D01*
X142213105Y-69838219D02*
X142594057Y-69838219D01*
X142594057Y-69838219D02*
X142689295Y-69885838D01*
X142689295Y-69885838D02*
X142736914Y-69933457D01*
X142736914Y-69933457D02*
X142784533Y-70028695D01*
X142784533Y-70028695D02*
X142784533Y-70171552D01*
X142784533Y-70171552D02*
X142736914Y-70266790D01*
X142736914Y-70266790D02*
X142689295Y-70314409D01*
X142689295Y-70314409D02*
X142594057Y-70362028D01*
X142594057Y-70362028D02*
X142213105Y-70362028D01*
X143736914Y-70838219D02*
X143165486Y-70838219D01*
X143451200Y-70838219D02*
X143451200Y-69838219D01*
X143451200Y-69838219D02*
X143355962Y-69981076D01*
X143355962Y-69981076D02*
X143260724Y-70076314D01*
X143260724Y-70076314D02*
X143165486Y-70123933D01*
X142833333Y-76454819D02*
X142500000Y-75978628D01*
X142261905Y-76454819D02*
X142261905Y-75454819D01*
X142261905Y-75454819D02*
X142642857Y-75454819D01*
X142642857Y-75454819D02*
X142738095Y-75502438D01*
X142738095Y-75502438D02*
X142785714Y-75550057D01*
X142785714Y-75550057D02*
X142833333Y-75645295D01*
X142833333Y-75645295D02*
X142833333Y-75788152D01*
X142833333Y-75788152D02*
X142785714Y-75883390D01*
X142785714Y-75883390D02*
X142738095Y-75931009D01*
X142738095Y-75931009D02*
X142642857Y-75978628D01*
X142642857Y-75978628D02*
X142261905Y-75978628D01*
X143214286Y-75550057D02*
X143261905Y-75502438D01*
X143261905Y-75502438D02*
X143357143Y-75454819D01*
X143357143Y-75454819D02*
X143595238Y-75454819D01*
X143595238Y-75454819D02*
X143690476Y-75502438D01*
X143690476Y-75502438D02*
X143738095Y-75550057D01*
X143738095Y-75550057D02*
X143785714Y-75645295D01*
X143785714Y-75645295D02*
X143785714Y-75740533D01*
X143785714Y-75740533D02*
X143738095Y-75883390D01*
X143738095Y-75883390D02*
X143166667Y-76454819D01*
X143166667Y-76454819D02*
X143785714Y-76454819D01*
X160553876Y-81372904D02*
X161030066Y-81372904D01*
X160458638Y-81658619D02*
X160791971Y-80658619D01*
X160791971Y-80658619D02*
X161125304Y-81658619D01*
X161458638Y-81658619D02*
X161458638Y-80658619D01*
X161458638Y-80658619D02*
X161791971Y-81372904D01*
X161791971Y-81372904D02*
X162125304Y-80658619D01*
X162125304Y-80658619D02*
X162125304Y-81658619D01*
X162601495Y-81658619D02*
X162601495Y-80658619D01*
X162601495Y-80658619D02*
X162982447Y-80658619D01*
X162982447Y-80658619D02*
X163077685Y-80706238D01*
X163077685Y-80706238D02*
X163125304Y-80753857D01*
X163125304Y-80753857D02*
X163172923Y-80849095D01*
X163172923Y-80849095D02*
X163172923Y-80991952D01*
X163172923Y-80991952D02*
X163125304Y-81087190D01*
X163125304Y-81087190D02*
X163077685Y-81134809D01*
X163077685Y-81134809D02*
X162982447Y-81182428D01*
X162982447Y-81182428D02*
X162601495Y-81182428D01*
X164363400Y-81658619D02*
X164363400Y-80991952D01*
X164363400Y-81087190D02*
X164411019Y-81039571D01*
X164411019Y-81039571D02*
X164506257Y-80991952D01*
X164506257Y-80991952D02*
X164649114Y-80991952D01*
X164649114Y-80991952D02*
X164744352Y-81039571D01*
X164744352Y-81039571D02*
X164791971Y-81134809D01*
X164791971Y-81134809D02*
X164791971Y-81658619D01*
X164791971Y-81134809D02*
X164839590Y-81039571D01*
X164839590Y-81039571D02*
X164934828Y-80991952D01*
X164934828Y-80991952D02*
X165077685Y-80991952D01*
X165077685Y-80991952D02*
X165172924Y-81039571D01*
X165172924Y-81039571D02*
X165220543Y-81134809D01*
X165220543Y-81134809D02*
X165220543Y-81658619D01*
X166077685Y-81611000D02*
X165982447Y-81658619D01*
X165982447Y-81658619D02*
X165791971Y-81658619D01*
X165791971Y-81658619D02*
X165696733Y-81611000D01*
X165696733Y-81611000D02*
X165649114Y-81515761D01*
X165649114Y-81515761D02*
X165649114Y-81134809D01*
X165649114Y-81134809D02*
X165696733Y-81039571D01*
X165696733Y-81039571D02*
X165791971Y-80991952D01*
X165791971Y-80991952D02*
X165982447Y-80991952D01*
X165982447Y-80991952D02*
X166077685Y-81039571D01*
X166077685Y-81039571D02*
X166125304Y-81134809D01*
X166125304Y-81134809D02*
X166125304Y-81230047D01*
X166125304Y-81230047D02*
X165649114Y-81325285D01*
X166411019Y-80991952D02*
X166791971Y-80991952D01*
X166553876Y-80658619D02*
X166553876Y-81515761D01*
X166553876Y-81515761D02*
X166601495Y-81611000D01*
X166601495Y-81611000D02*
X166696733Y-81658619D01*
X166696733Y-81658619D02*
X166791971Y-81658619D01*
X167506257Y-81611000D02*
X167411019Y-81658619D01*
X167411019Y-81658619D02*
X167220543Y-81658619D01*
X167220543Y-81658619D02*
X167125305Y-81611000D01*
X167125305Y-81611000D02*
X167077686Y-81515761D01*
X167077686Y-81515761D02*
X167077686Y-81134809D01*
X167077686Y-81134809D02*
X167125305Y-81039571D01*
X167125305Y-81039571D02*
X167220543Y-80991952D01*
X167220543Y-80991952D02*
X167411019Y-80991952D01*
X167411019Y-80991952D02*
X167506257Y-81039571D01*
X167506257Y-81039571D02*
X167553876Y-81134809D01*
X167553876Y-81134809D02*
X167553876Y-81230047D01*
X167553876Y-81230047D02*
X167077686Y-81325285D01*
X167982448Y-81658619D02*
X167982448Y-80991952D01*
X167982448Y-81182428D02*
X168030067Y-81087190D01*
X168030067Y-81087190D02*
X168077686Y-81039571D01*
X168077686Y-81039571D02*
X168172924Y-80991952D01*
X168172924Y-80991952D02*
X168268162Y-80991952D01*
X162891933Y-93472419D02*
X162891933Y-92472419D01*
X162891933Y-92472419D02*
X163272885Y-92472419D01*
X163272885Y-92472419D02*
X163368123Y-92520038D01*
X163368123Y-92520038D02*
X163415742Y-92567657D01*
X163415742Y-92567657D02*
X163463361Y-92662895D01*
X163463361Y-92662895D02*
X163463361Y-92805752D01*
X163463361Y-92805752D02*
X163415742Y-92900990D01*
X163415742Y-92900990D02*
X163368123Y-92948609D01*
X163368123Y-92948609D02*
X163272885Y-92996228D01*
X163272885Y-92996228D02*
X162891933Y-92996228D01*
X164082409Y-92472419D02*
X164272885Y-92472419D01*
X164272885Y-92472419D02*
X164368123Y-92520038D01*
X164368123Y-92520038D02*
X164463361Y-92615276D01*
X164463361Y-92615276D02*
X164510980Y-92805752D01*
X164510980Y-92805752D02*
X164510980Y-93139085D01*
X164510980Y-93139085D02*
X164463361Y-93329561D01*
X164463361Y-93329561D02*
X164368123Y-93424800D01*
X164368123Y-93424800D02*
X164272885Y-93472419D01*
X164272885Y-93472419D02*
X164082409Y-93472419D01*
X164082409Y-93472419D02*
X163987171Y-93424800D01*
X163987171Y-93424800D02*
X163891933Y-93329561D01*
X163891933Y-93329561D02*
X163844314Y-93139085D01*
X163844314Y-93139085D02*
X163844314Y-92805752D01*
X163844314Y-92805752D02*
X163891933Y-92615276D01*
X163891933Y-92615276D02*
X163987171Y-92520038D01*
X163987171Y-92520038D02*
X164082409Y-92472419D01*
X164796695Y-92472419D02*
X165368123Y-92472419D01*
X165082409Y-93472419D02*
X165082409Y-92472419D01*
D12*
X141032380Y-86804318D02*
X141032380Y-87832413D01*
X141032380Y-87832413D02*
X141092857Y-87953365D01*
X141092857Y-87953365D02*
X141153333Y-88013842D01*
X141153333Y-88013842D02*
X141274285Y-88074318D01*
X141274285Y-88074318D02*
X141516190Y-88074318D01*
X141516190Y-88074318D02*
X141637142Y-88013842D01*
X141637142Y-88013842D02*
X141697619Y-87953365D01*
X141697619Y-87953365D02*
X141758095Y-87832413D01*
X141758095Y-87832413D02*
X141758095Y-86804318D01*
X143028095Y-88074318D02*
X142302380Y-88074318D01*
X142665237Y-88074318D02*
X142665237Y-86804318D01*
X142665237Y-86804318D02*
X142544285Y-86985746D01*
X142544285Y-86985746D02*
X142423333Y-87106699D01*
X142423333Y-87106699D02*
X142302380Y-87167175D01*
D13*
%TO.C,J1*%
X154670000Y-83630000D02*
X156000000Y-83630000D01*
X154670000Y-84960000D02*
X154670000Y-83630000D01*
X154670000Y-86230000D02*
X154670000Y-91370000D01*
X154670000Y-86230000D02*
X157330000Y-86230000D01*
X154670000Y-91370000D02*
X157330000Y-91370000D01*
X157330000Y-86230000D02*
X157330000Y-91370000D01*
%TO.C,R1*%
X138911200Y-70383400D02*
X139681200Y-70383400D01*
X139681200Y-69013400D02*
X139681200Y-71753400D01*
X139681200Y-71753400D02*
X146221200Y-71753400D01*
X146221200Y-69013400D02*
X139681200Y-69013400D01*
X146221200Y-71753400D02*
X146221200Y-69013400D01*
X146991200Y-70383400D02*
X146221200Y-70383400D01*
%TO.C,R2*%
X138960000Y-76000000D02*
X139730000Y-76000000D01*
X139730000Y-74630000D02*
X139730000Y-77370000D01*
X139730000Y-77370000D02*
X146270000Y-77370000D01*
X146270000Y-74630000D02*
X139730000Y-74630000D01*
X146270000Y-77370000D02*
X146270000Y-74630000D01*
X147040000Y-76000000D02*
X146270000Y-76000000D01*
%TO.C,J4*%
X162754000Y-77195600D02*
X162754000Y-74595600D01*
X165414000Y-74595600D02*
X162754000Y-74595600D01*
X165414000Y-77195600D02*
X162754000Y-77195600D01*
X165414000Y-77195600D02*
X165414000Y-74595600D01*
X165414000Y-78465600D02*
X165414000Y-79795600D01*
X165414000Y-79795600D02*
X164084000Y-79795600D01*
%TO.C,J2*%
X162728600Y-83607600D02*
X164058600Y-83607600D01*
X162728600Y-84937600D02*
X162728600Y-83607600D01*
X162728600Y-86207600D02*
X162728600Y-91347600D01*
X162728600Y-86207600D02*
X165388600Y-86207600D01*
X162728600Y-91347600D02*
X165388600Y-91347600D01*
X165388600Y-86207600D02*
X165388600Y-91347600D01*
%TO.C,J3*%
X153513400Y-64176600D02*
X153513400Y-66836600D01*
X156113400Y-64176600D02*
X153513400Y-64176600D01*
X156113400Y-64176600D02*
X156113400Y-66836600D01*
X156113400Y-66836600D02*
X153513400Y-66836600D01*
X157383400Y-64176600D02*
X158713400Y-64176600D01*
X158713400Y-64176600D02*
X158713400Y-65506600D01*
D14*
%TO.C,U1*%
X137465000Y-82420000D02*
X145300000Y-82420000D01*
X138700000Y-92580000D02*
X145300000Y-92580000D01*
%TD*%
M02*
