M48
; DRILL file {KiCad 8.0.8} date 2025-02-27T22:52:19-0500
; FORMAT={-:-/ absolute / inch / decimal}
; #@! TF.CreationDate,2025-02-27T22:52:19-05:00
; #@! TF.GenerationSoftware,Kicad,Pcbnew,8.0.8
; #@! TF.FileFunction,Plated,1,2,PTH
FMAT,2
INCH
; #@! TA.AperFunction,Plated,PTH,ComponentDrill
T1C0.0287
; #@! TA.AperFunction,Plated,PTH,ComponentDrill
T2C0.0315
; #@! TA.AperFunction,Plated,PTH,ComponentDrill
T3C0.0394
%
G90
G05
T1
X5.4343Y-3.2949
X5.4343Y-3.3949
X5.4343Y-3.4949
X5.4343Y-3.5949
X5.7469Y-3.2949
X5.7469Y-3.3949
X5.7469Y-3.4949
X5.7469Y-3.5949
T2
X5.428Y-2.771
X5.4299Y-2.9921
X5.828Y-2.771
X5.8299Y-2.9921
T3
X6.0962Y-2.579
X6.1417Y-3.3449
X6.1417Y-3.4449
X6.1417Y-3.5449
X6.1962Y-2.579
X6.459Y-3.344
X6.459Y-3.444
X6.459Y-3.544
X6.46Y-2.9892
X6.46Y-3.0892
M30
