%TF.GenerationSoftware,KiCad,Pcbnew,8.0.8*%
%TF.CreationDate,2025-02-27T22:52:23-05:00*%
%TF.ProjectId,CurrentDriverBoard,43757272-656e-4744-9472-69766572426f,rev?*%
%TF.SameCoordinates,Original*%
%TF.FileFunction,Copper,L2,Bot*%
%TF.FilePolarity,Positive*%
%FSLAX46Y46*%
G04 Gerber Fmt 4.6, Leading zero omitted, Abs format (unit mm)*
G04 Created by KiCad (PCBNEW 8.0.8) date 2025-02-27 22:52:23*
%MOMM*%
%LPD*%
G01*
G04 APERTURE LIST*
%TA.AperFunction,ComponentPad*%
%ADD10R,1.700000X1.700000*%
%TD*%
%TA.AperFunction,ComponentPad*%
%ADD11O,1.700000X1.700000*%
%TD*%
%TA.AperFunction,ComponentPad*%
%ADD12C,1.600000*%
%TD*%
%TA.AperFunction,ComponentPad*%
%ADD13O,1.600000X1.600000*%
%TD*%
%TA.AperFunction,ComponentPad*%
%ADD14R,1.130000X1.130000*%
%TD*%
%TA.AperFunction,ComponentPad*%
%ADD15C,1.130000*%
%TD*%
%TA.AperFunction,Conductor*%
%ADD16C,0.200000*%
%TD*%
G04 APERTURE END LIST*
D10*
%TO.P,J1,1,Pin_1*%
%TO.N,Net-(J1-Pin_1)*%
X156000000Y-84960000D03*
D11*
%TO.P,J1,2,Pin_2*%
%TO.N,Earth*%
X156000000Y-87500000D03*
%TO.P,J1,3,Pin_3*%
%TO.N,Net-(J1-Pin_3)*%
X156000000Y-90040000D03*
%TD*%
D12*
%TO.P,R1,1*%
%TO.N,Net-(J2-Pin_1)*%
X137871200Y-70383400D03*
D13*
%TO.P,R1,2*%
%TO.N,Net-(J3-Pin_2)*%
X148031200Y-70383400D03*
%TD*%
D12*
%TO.P,R2,1*%
%TO.N,Net-(J4-Pin_2)*%
X137920000Y-76000000D03*
D13*
%TO.P,R2,2*%
%TO.N,Earth*%
X148080000Y-76000000D03*
%TD*%
D10*
%TO.P,J4,1,Pin_1*%
%TO.N,Net-(J1-Pin_3)*%
X164084000Y-78465600D03*
D11*
%TO.P,J4,2,Pin_2*%
%TO.N,Net-(J4-Pin_2)*%
X164084000Y-75925600D03*
%TD*%
D10*
%TO.P,J2,1,Pin_1*%
%TO.N,Net-(J2-Pin_1)*%
X164058600Y-84937600D03*
D11*
%TO.P,J2,2,Pin_2*%
%TO.N,unconnected-(J2-Pin_2-Pad2)*%
X164058600Y-87477600D03*
%TO.P,J2,3,Pin_3*%
%TO.N,Earth*%
X164058600Y-90017600D03*
%TD*%
D10*
%TO.P,J3,1,Pin_1*%
%TO.N,Earth*%
X157383400Y-65506600D03*
D11*
%TO.P,J3,2,Pin_2*%
%TO.N,Net-(J3-Pin_2)*%
X154843400Y-65506600D03*
%TD*%
D14*
%TO.P,U1,1,NULL*%
%TO.N,unconnected-(U1-NULL-Pad1)*%
X138030000Y-83690000D03*
D15*
%TO.P,U1,2,-*%
%TO.N,Net-(J4-Pin_2)*%
X138030000Y-86230000D03*
%TO.P,U1,3,+*%
%TO.N,Net-(J3-Pin_2)*%
X138030000Y-88770000D03*
%TO.P,U1,4,V-*%
%TO.N,unconnected-(U1-V--Pad4)*%
X138030000Y-91310000D03*
%TO.P,U1,5,NULL*%
%TO.N,unconnected-(U1-NULL-Pad5)*%
X145970000Y-91310000D03*
%TO.P,U1,6*%
%TO.N,Net-(J1-Pin_1)*%
X145970000Y-88770000D03*
%TO.P,U1,7,V+*%
%TO.N,Net-(J2-Pin_1)*%
X145970000Y-86230000D03*
%TO.P,U1,8,NC*%
%TO.N,unconnected-(U1-NC-Pad8)*%
X145970000Y-83690000D03*
%TD*%
D16*
%TO.N,Net-(J1-Pin_3)*%
X164084000Y-78465600D02*
X162908600Y-79641000D01*
X162908600Y-79641000D02*
X162908600Y-83131400D01*
X162908600Y-83131400D02*
X156000000Y-90040000D01*
%TO.N,Net-(J2-Pin_1)*%
X136784900Y-71469700D02*
X136784900Y-88748195D01*
X137671705Y-89635000D02*
X142565000Y-89635000D01*
X137871200Y-70383400D02*
X136784900Y-71469700D01*
X142565000Y-89635000D02*
X145970000Y-86230000D01*
X142565000Y-89635000D02*
X142858900Y-89341100D01*
X136784900Y-88748195D02*
X137671705Y-89635000D01*
%TO.N,Net-(J4-Pin_2)*%
X137920000Y-76000000D02*
X138904700Y-76984700D01*
X138904700Y-85355300D02*
X138030000Y-86230000D01*
X138904700Y-76984700D02*
X138904700Y-85355300D01*
%TO.N,Net-(J3-Pin_2)*%
X142697200Y-84102800D02*
X142697200Y-75717400D01*
X138030000Y-88770000D02*
X142697200Y-84102800D01*
X142697200Y-75717400D02*
X148031200Y-70383400D01*
%TD*%
%TA.AperFunction,Conductor*%
%TO.N,Earth*%
G36*
X167942539Y-63520185D02*
G01*
X167988294Y-63572989D01*
X167999500Y-63624500D01*
X167999500Y-94375500D01*
X167979815Y-94442539D01*
X167927011Y-94488294D01*
X167875500Y-94499500D01*
X135624500Y-94499500D01*
X135557461Y-94479815D01*
X135511706Y-94427011D01*
X135500500Y-94375500D01*
X135500500Y-88827249D01*
X136184398Y-88827249D01*
X136225323Y-88979981D01*
X136225324Y-88979982D01*
X136249847Y-89022457D01*
X136304380Y-89116911D01*
X136304382Y-89116913D01*
X136423249Y-89235780D01*
X136423254Y-89235784D01*
X137302989Y-90115520D01*
X137439921Y-90194577D01*
X137439923Y-90194577D01*
X137446953Y-90198636D01*
X137495169Y-90249203D01*
X137508393Y-90317810D01*
X137482425Y-90382675D01*
X137443410Y-90415381D01*
X137435178Y-90419781D01*
X137435174Y-90419783D01*
X137272932Y-90552932D01*
X137139783Y-90715174D01*
X137139779Y-90715181D01*
X137040844Y-90900276D01*
X136979917Y-91101123D01*
X136959345Y-91310000D01*
X136979917Y-91518876D01*
X137040844Y-91719723D01*
X137139779Y-91904818D01*
X137139783Y-91904825D01*
X137272932Y-92067067D01*
X137435174Y-92200216D01*
X137435181Y-92200220D01*
X137620276Y-92299155D01*
X137620278Y-92299156D01*
X137821126Y-92360083D01*
X138030000Y-92380655D01*
X138238874Y-92360083D01*
X138439722Y-92299156D01*
X138624824Y-92200217D01*
X138787067Y-92067067D01*
X138920217Y-91904824D01*
X139019156Y-91719722D01*
X139080083Y-91518874D01*
X139100655Y-91310000D01*
X144899345Y-91310000D01*
X144919917Y-91518876D01*
X144980844Y-91719723D01*
X145079779Y-91904818D01*
X145079783Y-91904825D01*
X145212932Y-92067067D01*
X145375174Y-92200216D01*
X145375181Y-92200220D01*
X145560276Y-92299155D01*
X145560278Y-92299156D01*
X145761126Y-92360083D01*
X145970000Y-92380655D01*
X146178874Y-92360083D01*
X146379722Y-92299156D01*
X146564824Y-92200217D01*
X146727067Y-92067067D01*
X146860217Y-91904824D01*
X146959156Y-91719722D01*
X147020083Y-91518874D01*
X147040655Y-91310000D01*
X147020083Y-91101126D01*
X146959156Y-90900278D01*
X146860217Y-90715176D01*
X146860216Y-90715174D01*
X146727067Y-90552932D01*
X146564825Y-90419783D01*
X146564818Y-90419779D01*
X146379723Y-90320844D01*
X146178876Y-90259917D01*
X145970000Y-90239345D01*
X145761123Y-90259917D01*
X145560276Y-90320844D01*
X145375181Y-90419779D01*
X145375174Y-90419783D01*
X145212932Y-90552932D01*
X145079783Y-90715174D01*
X145079779Y-90715181D01*
X144980844Y-90900276D01*
X144919917Y-91101123D01*
X144899345Y-91310000D01*
X139100655Y-91310000D01*
X139080083Y-91101126D01*
X139019156Y-90900278D01*
X138920217Y-90715176D01*
X138920216Y-90715174D01*
X138787067Y-90552932D01*
X138668167Y-90455353D01*
X138628833Y-90397607D01*
X138626962Y-90327762D01*
X138663150Y-90267994D01*
X138725906Y-90237279D01*
X138746832Y-90235500D01*
X142478331Y-90235500D01*
X142478347Y-90235501D01*
X142485943Y-90235501D01*
X142644054Y-90235501D01*
X142644057Y-90235501D01*
X142796785Y-90194577D01*
X142846904Y-90165639D01*
X142933716Y-90115520D01*
X143009237Y-90039999D01*
X154644341Y-90039999D01*
X154644341Y-90040000D01*
X154664936Y-90275403D01*
X154664938Y-90275413D01*
X154726094Y-90503655D01*
X154726096Y-90503659D01*
X154726097Y-90503663D01*
X154732596Y-90517600D01*
X154825965Y-90717830D01*
X154825967Y-90717834D01*
X154934281Y-90872521D01*
X154961505Y-90911401D01*
X155128599Y-91078495D01*
X155225384Y-91146265D01*
X155322165Y-91214032D01*
X155322167Y-91214033D01*
X155322170Y-91214035D01*
X155536337Y-91313903D01*
X155764592Y-91375063D01*
X155952918Y-91391539D01*
X155999999Y-91395659D01*
X156000000Y-91395659D01*
X156000001Y-91395659D01*
X156039234Y-91392226D01*
X156235408Y-91375063D01*
X156463663Y-91313903D01*
X156677830Y-91214035D01*
X156871401Y-91078495D01*
X157038495Y-90911401D01*
X157174035Y-90717830D01*
X157273903Y-90503663D01*
X157335063Y-90275408D01*
X157355659Y-90040000D01*
X157352484Y-90003716D01*
X157335063Y-89804596D01*
X157335063Y-89804592D01*
X157300671Y-89676239D01*
X157302334Y-89606393D01*
X157332763Y-89556470D01*
X162496421Y-84392812D01*
X162557742Y-84359329D01*
X162627434Y-84364313D01*
X162683367Y-84406185D01*
X162707784Y-84471649D01*
X162708100Y-84480495D01*
X162708100Y-85835470D01*
X162708101Y-85835476D01*
X162714508Y-85895083D01*
X162764802Y-86029928D01*
X162764806Y-86029935D01*
X162851052Y-86145144D01*
X162851055Y-86145147D01*
X162966264Y-86231393D01*
X162966271Y-86231397D01*
X163097681Y-86280410D01*
X163153615Y-86322281D01*
X163178032Y-86387745D01*
X163163180Y-86456018D01*
X163142030Y-86484273D01*
X163020103Y-86606200D01*
X162884565Y-86799769D01*
X162884564Y-86799771D01*
X162784698Y-87013935D01*
X162784694Y-87013944D01*
X162723538Y-87242186D01*
X162723536Y-87242196D01*
X162702941Y-87477599D01*
X162702941Y-87477600D01*
X162723536Y-87713003D01*
X162723538Y-87713013D01*
X162784694Y-87941255D01*
X162784696Y-87941259D01*
X162784697Y-87941263D01*
X162884565Y-88155430D01*
X162884567Y-88155434D01*
X163020101Y-88348995D01*
X163020106Y-88349002D01*
X163187197Y-88516093D01*
X163187203Y-88516098D01*
X163373194Y-88646330D01*
X163416819Y-88700907D01*
X163424013Y-88770405D01*
X163392490Y-88832760D01*
X163373195Y-88849480D01*
X163187522Y-88979490D01*
X163187520Y-88979491D01*
X163020491Y-89146520D01*
X163020486Y-89146526D01*
X162885000Y-89340020D01*
X162884999Y-89340022D01*
X162785170Y-89554107D01*
X162785167Y-89554113D01*
X162727964Y-89767599D01*
X162727964Y-89767600D01*
X163625588Y-89767600D01*
X163592675Y-89824607D01*
X163558600Y-89951774D01*
X163558600Y-90083426D01*
X163592675Y-90210593D01*
X163625588Y-90267600D01*
X162727964Y-90267600D01*
X162785167Y-90481086D01*
X162785170Y-90481092D01*
X162884999Y-90695178D01*
X163020494Y-90888682D01*
X163187517Y-91055705D01*
X163381021Y-91191200D01*
X163595107Y-91291029D01*
X163595116Y-91291033D01*
X163808600Y-91348234D01*
X163808600Y-90450612D01*
X163865607Y-90483525D01*
X163992774Y-90517600D01*
X164124426Y-90517600D01*
X164251593Y-90483525D01*
X164308600Y-90450612D01*
X164308600Y-91348233D01*
X164522083Y-91291033D01*
X164522092Y-91291029D01*
X164736178Y-91191200D01*
X164929682Y-91055705D01*
X165096705Y-90888682D01*
X165232200Y-90695178D01*
X165332029Y-90481092D01*
X165332032Y-90481086D01*
X165389236Y-90267600D01*
X164491612Y-90267600D01*
X164524525Y-90210593D01*
X164558600Y-90083426D01*
X164558600Y-89951774D01*
X164524525Y-89824607D01*
X164491612Y-89767600D01*
X165389236Y-89767600D01*
X165389235Y-89767599D01*
X165332032Y-89554113D01*
X165332029Y-89554107D01*
X165232200Y-89340022D01*
X165232199Y-89340020D01*
X165096713Y-89146526D01*
X165096708Y-89146520D01*
X164929678Y-88979490D01*
X164744005Y-88849479D01*
X164700380Y-88794902D01*
X164693188Y-88725404D01*
X164724710Y-88663049D01*
X164744006Y-88646330D01*
X164898567Y-88538105D01*
X164930001Y-88516095D01*
X165097095Y-88349001D01*
X165232635Y-88155430D01*
X165332503Y-87941263D01*
X165393663Y-87713008D01*
X165414259Y-87477600D01*
X165393663Y-87242192D01*
X165332503Y-87013937D01*
X165232635Y-86799771D01*
X165192286Y-86742147D01*
X165097096Y-86606200D01*
X165075881Y-86584985D01*
X164975167Y-86484271D01*
X164941684Y-86422951D01*
X164946668Y-86353259D01*
X164988539Y-86297325D01*
X165019515Y-86280410D01*
X165150931Y-86231396D01*
X165266146Y-86145146D01*
X165352396Y-86029931D01*
X165402691Y-85895083D01*
X165409100Y-85835473D01*
X165409099Y-84039728D01*
X165402691Y-83980117D01*
X165372389Y-83898874D01*
X165352397Y-83845271D01*
X165352393Y-83845264D01*
X165266147Y-83730055D01*
X165266144Y-83730052D01*
X165150935Y-83643806D01*
X165150928Y-83643802D01*
X165016082Y-83593508D01*
X165016083Y-83593508D01*
X164956483Y-83587101D01*
X164956481Y-83587100D01*
X164956473Y-83587100D01*
X164956465Y-83587100D01*
X163553672Y-83587100D01*
X163486633Y-83567415D01*
X163440878Y-83514611D01*
X163430934Y-83445453D01*
X163446285Y-83401100D01*
X163468177Y-83363185D01*
X163509101Y-83210457D01*
X163509101Y-83052343D01*
X163509101Y-83044748D01*
X163509100Y-83044730D01*
X163509100Y-79941097D01*
X163528785Y-79874058D01*
X163545419Y-79853416D01*
X163546417Y-79852418D01*
X163607740Y-79818933D01*
X163634098Y-79816099D01*
X164981871Y-79816099D01*
X164981872Y-79816099D01*
X165041483Y-79809691D01*
X165176331Y-79759396D01*
X165291546Y-79673146D01*
X165377796Y-79557931D01*
X165428091Y-79423083D01*
X165434500Y-79363473D01*
X165434499Y-77567728D01*
X165428091Y-77508117D01*
X165377796Y-77373269D01*
X165377795Y-77373268D01*
X165377793Y-77373264D01*
X165291547Y-77258055D01*
X165291544Y-77258052D01*
X165176335Y-77171806D01*
X165176328Y-77171802D01*
X165044917Y-77122789D01*
X164988983Y-77080918D01*
X164964566Y-77015453D01*
X164979418Y-76947180D01*
X165000563Y-76918932D01*
X165122495Y-76797001D01*
X165258035Y-76603430D01*
X165357903Y-76389263D01*
X165419063Y-76161008D01*
X165439659Y-75925600D01*
X165419063Y-75690192D01*
X165357903Y-75461937D01*
X165258035Y-75247771D01*
X165197181Y-75160861D01*
X165122494Y-75054197D01*
X164955402Y-74887106D01*
X164955395Y-74887101D01*
X164761834Y-74751567D01*
X164761830Y-74751565D01*
X164761828Y-74751564D01*
X164547663Y-74651697D01*
X164547659Y-74651696D01*
X164547655Y-74651694D01*
X164319413Y-74590538D01*
X164319403Y-74590536D01*
X164084001Y-74569941D01*
X164083999Y-74569941D01*
X163848596Y-74590536D01*
X163848586Y-74590538D01*
X163620344Y-74651694D01*
X163620335Y-74651698D01*
X163406171Y-74751564D01*
X163406169Y-74751565D01*
X163212597Y-74887105D01*
X163045505Y-75054197D01*
X162909965Y-75247769D01*
X162909964Y-75247771D01*
X162810098Y-75461935D01*
X162810094Y-75461944D01*
X162748938Y-75690186D01*
X162748936Y-75690196D01*
X162728341Y-75925599D01*
X162728341Y-75925600D01*
X162748936Y-76161003D01*
X162748938Y-76161013D01*
X162810094Y-76389255D01*
X162810096Y-76389259D01*
X162810097Y-76389263D01*
X162863683Y-76504178D01*
X162909965Y-76603430D01*
X162909967Y-76603434D01*
X162944488Y-76652734D01*
X163045501Y-76796996D01*
X163045506Y-76797002D01*
X163167430Y-76918926D01*
X163200915Y-76980249D01*
X163195931Y-77049941D01*
X163154059Y-77105874D01*
X163123083Y-77122789D01*
X162991669Y-77171803D01*
X162991664Y-77171806D01*
X162876455Y-77258052D01*
X162876452Y-77258055D01*
X162790206Y-77373264D01*
X162790202Y-77373271D01*
X162739908Y-77508117D01*
X162733501Y-77567716D01*
X162733501Y-77567723D01*
X162733500Y-77567735D01*
X162733500Y-78915501D01*
X162713815Y-78982540D01*
X162697185Y-79003177D01*
X162539886Y-79160478D01*
X162428081Y-79272282D01*
X162428079Y-79272285D01*
X162377961Y-79359094D01*
X162377959Y-79359096D01*
X162349025Y-79409209D01*
X162349024Y-79409210D01*
X162349023Y-79409215D01*
X162308099Y-79561943D01*
X162308099Y-79561945D01*
X162308099Y-79730046D01*
X162308100Y-79730059D01*
X162308100Y-82831302D01*
X162288415Y-82898341D01*
X162271781Y-82918983D01*
X157477082Y-87713681D01*
X157415759Y-87747166D01*
X157389401Y-87750000D01*
X156433012Y-87750000D01*
X156465925Y-87692993D01*
X156500000Y-87565826D01*
X156500000Y-87434174D01*
X156465925Y-87307007D01*
X156433012Y-87250000D01*
X157330636Y-87250000D01*
X157330635Y-87249999D01*
X157273432Y-87036513D01*
X157273429Y-87036507D01*
X157173600Y-86822422D01*
X157173599Y-86822420D01*
X157038113Y-86628926D01*
X157038108Y-86628920D01*
X156916053Y-86506865D01*
X156882568Y-86445542D01*
X156887552Y-86375850D01*
X156929424Y-86319917D01*
X156960400Y-86303002D01*
X157092331Y-86253796D01*
X157207546Y-86167546D01*
X157293796Y-86052331D01*
X157344091Y-85917483D01*
X157350500Y-85857873D01*
X157350499Y-84062128D01*
X157344091Y-84002517D01*
X157335736Y-83980117D01*
X157293797Y-83867671D01*
X157293793Y-83867664D01*
X157207547Y-83752455D01*
X157207544Y-83752452D01*
X157092335Y-83666206D01*
X157092328Y-83666202D01*
X156957482Y-83615908D01*
X156957483Y-83615908D01*
X156897883Y-83609501D01*
X156897881Y-83609500D01*
X156897873Y-83609500D01*
X156897864Y-83609500D01*
X155102129Y-83609500D01*
X155102123Y-83609501D01*
X155042516Y-83615908D01*
X154907671Y-83666202D01*
X154907664Y-83666206D01*
X154792455Y-83752452D01*
X154792452Y-83752455D01*
X154706206Y-83867664D01*
X154706202Y-83867671D01*
X154655908Y-84002517D01*
X154651908Y-84039728D01*
X154649501Y-84062123D01*
X154649500Y-84062135D01*
X154649500Y-85857870D01*
X154649501Y-85857876D01*
X154655908Y-85917483D01*
X154706202Y-86052328D01*
X154706206Y-86052335D01*
X154792452Y-86167544D01*
X154792455Y-86167547D01*
X154907664Y-86253793D01*
X154907671Y-86253797D01*
X154907674Y-86253798D01*
X155039598Y-86303002D01*
X155095531Y-86344873D01*
X155119949Y-86410337D01*
X155105098Y-86478610D01*
X155083947Y-86506865D01*
X154961886Y-86628926D01*
X154826400Y-86822420D01*
X154826399Y-86822422D01*
X154726570Y-87036507D01*
X154726567Y-87036513D01*
X154669364Y-87249999D01*
X154669364Y-87250000D01*
X155566988Y-87250000D01*
X155534075Y-87307007D01*
X155500000Y-87434174D01*
X155500000Y-87565826D01*
X155534075Y-87692993D01*
X155566988Y-87750000D01*
X154669364Y-87750000D01*
X154726567Y-87963486D01*
X154726570Y-87963492D01*
X154826399Y-88177578D01*
X154961894Y-88371082D01*
X155128917Y-88538105D01*
X155314595Y-88668119D01*
X155358219Y-88722696D01*
X155365412Y-88792195D01*
X155333890Y-88854549D01*
X155314595Y-88871269D01*
X155128594Y-89001508D01*
X154961505Y-89168597D01*
X154825965Y-89362169D01*
X154825964Y-89362171D01*
X154726098Y-89576335D01*
X154726094Y-89576344D01*
X154664938Y-89804586D01*
X154664936Y-89804596D01*
X154644341Y-90039999D01*
X143009237Y-90039999D01*
X143045520Y-90003716D01*
X143045521Y-90003713D01*
X143339419Y-89709816D01*
X144757899Y-88291334D01*
X144819222Y-88257850D01*
X144888914Y-88262834D01*
X144944847Y-88304706D01*
X144969264Y-88370170D01*
X144964241Y-88415012D01*
X144919916Y-88561128D01*
X144899345Y-88770000D01*
X144919917Y-88978876D01*
X144980844Y-89179723D01*
X145079779Y-89364818D01*
X145079783Y-89364825D01*
X145212932Y-89527067D01*
X145375174Y-89660216D01*
X145375181Y-89660220D01*
X145467967Y-89709815D01*
X145560278Y-89759156D01*
X145761126Y-89820083D01*
X145970000Y-89840655D01*
X146178874Y-89820083D01*
X146379722Y-89759156D01*
X146564824Y-89660217D01*
X146727067Y-89527067D01*
X146860217Y-89364824D01*
X146959156Y-89179722D01*
X147020083Y-88978874D01*
X147040655Y-88770000D01*
X147020083Y-88561126D01*
X146959156Y-88360278D01*
X146860217Y-88175176D01*
X146860216Y-88175174D01*
X146727067Y-88012932D01*
X146564825Y-87879783D01*
X146564818Y-87879779D01*
X146379723Y-87780844D01*
X146178876Y-87719917D01*
X145970000Y-87699345D01*
X145761127Y-87719916D01*
X145615010Y-87764241D01*
X145545143Y-87764864D01*
X145486031Y-87727616D01*
X145456440Y-87664322D01*
X145465765Y-87595077D01*
X145491331Y-87557902D01*
X145726963Y-87322270D01*
X145788284Y-87288787D01*
X145826793Y-87286550D01*
X145970000Y-87300655D01*
X146178874Y-87280083D01*
X146379722Y-87219156D01*
X146564824Y-87120217D01*
X146727067Y-86987067D01*
X146860217Y-86824824D01*
X146959156Y-86639722D01*
X147020083Y-86438874D01*
X147040655Y-86230000D01*
X147020083Y-86021126D01*
X146959156Y-85820278D01*
X146860217Y-85635176D01*
X146860216Y-85635174D01*
X146727067Y-85472932D01*
X146564825Y-85339783D01*
X146564818Y-85339779D01*
X146379723Y-85240844D01*
X146178876Y-85179917D01*
X145970000Y-85159345D01*
X145761123Y-85179917D01*
X145560276Y-85240844D01*
X145375181Y-85339779D01*
X145375174Y-85339783D01*
X145212932Y-85472932D01*
X145079783Y-85635174D01*
X145079779Y-85635181D01*
X144980844Y-85820276D01*
X144919917Y-86021123D01*
X144899345Y-86230000D01*
X144913448Y-86373203D01*
X144900429Y-86441849D01*
X144877726Y-86473037D01*
X142490184Y-88860581D01*
X142352584Y-88998181D01*
X142291261Y-89031666D01*
X142264903Y-89034500D01*
X139211417Y-89034500D01*
X139144378Y-89014815D01*
X139098623Y-88962011D01*
X139088014Y-88898346D01*
X139091203Y-88865965D01*
X139100655Y-88770000D01*
X139086550Y-88626795D01*
X139099569Y-88558150D01*
X139122269Y-88526964D01*
X143177720Y-84471516D01*
X143256777Y-84334584D01*
X143297701Y-84181857D01*
X143297701Y-84023742D01*
X143297701Y-84016147D01*
X143297700Y-84016129D01*
X143297700Y-83690000D01*
X144899345Y-83690000D01*
X144919917Y-83898876D01*
X144980844Y-84099723D01*
X145079779Y-84284818D01*
X145079783Y-84284825D01*
X145212932Y-84447067D01*
X145375174Y-84580216D01*
X145375181Y-84580220D01*
X145560276Y-84679155D01*
X145560278Y-84679156D01*
X145761126Y-84740083D01*
X145970000Y-84760655D01*
X146178874Y-84740083D01*
X146379722Y-84679156D01*
X146564824Y-84580217D01*
X146727067Y-84447067D01*
X146860217Y-84284824D01*
X146959156Y-84099722D01*
X147020083Y-83898874D01*
X147040655Y-83690000D01*
X147020083Y-83481126D01*
X146959156Y-83280278D01*
X146860217Y-83095176D01*
X146860216Y-83095174D01*
X146727067Y-82932932D01*
X146564825Y-82799783D01*
X146564818Y-82799779D01*
X146379723Y-82700844D01*
X146178876Y-82639917D01*
X145970000Y-82619345D01*
X145761123Y-82639917D01*
X145560276Y-82700844D01*
X145375181Y-82799779D01*
X145375174Y-82799783D01*
X145212932Y-82932932D01*
X145079783Y-83095174D01*
X145079779Y-83095181D01*
X144980844Y-83280276D01*
X144919917Y-83481123D01*
X144899345Y-83690000D01*
X143297700Y-83690000D01*
X143297700Y-76017496D01*
X143317385Y-75950457D01*
X143334014Y-75929820D01*
X143513835Y-75749999D01*
X146801127Y-75749999D01*
X146801128Y-75750000D01*
X147764314Y-75750000D01*
X147759920Y-75754394D01*
X147707259Y-75845606D01*
X147680000Y-75947339D01*
X147680000Y-76052661D01*
X147707259Y-76154394D01*
X147759920Y-76245606D01*
X147764314Y-76250000D01*
X146801128Y-76250000D01*
X146853730Y-76446317D01*
X146853734Y-76446326D01*
X146949865Y-76652482D01*
X147080342Y-76838820D01*
X147241179Y-76999657D01*
X147427517Y-77130134D01*
X147633673Y-77226265D01*
X147633682Y-77226269D01*
X147829999Y-77278872D01*
X147830000Y-77278871D01*
X147830000Y-76315686D01*
X147834394Y-76320080D01*
X147925606Y-76372741D01*
X148027339Y-76400000D01*
X148132661Y-76400000D01*
X148234394Y-76372741D01*
X148325606Y-76320080D01*
X148330000Y-76315686D01*
X148330000Y-77278872D01*
X148526317Y-77226269D01*
X148526326Y-77226265D01*
X148732482Y-77130134D01*
X148918820Y-76999657D01*
X149079657Y-76838820D01*
X149210134Y-76652482D01*
X149306265Y-76446326D01*
X149306269Y-76446317D01*
X149358872Y-76250000D01*
X148395686Y-76250000D01*
X148400080Y-76245606D01*
X148452741Y-76154394D01*
X148480000Y-76052661D01*
X148480000Y-75947339D01*
X148452741Y-75845606D01*
X148400080Y-75754394D01*
X148395686Y-75750000D01*
X149358872Y-75750000D01*
X149358872Y-75749999D01*
X149306269Y-75553682D01*
X149306265Y-75553673D01*
X149210134Y-75347517D01*
X149079657Y-75161179D01*
X148918820Y-75000342D01*
X148732482Y-74869865D01*
X148526328Y-74773734D01*
X148330000Y-74721127D01*
X148330000Y-75684314D01*
X148325606Y-75679920D01*
X148234394Y-75627259D01*
X148132661Y-75600000D01*
X148027339Y-75600000D01*
X147925606Y-75627259D01*
X147834394Y-75679920D01*
X147830000Y-75684314D01*
X147830000Y-74721127D01*
X147633671Y-74773734D01*
X147427517Y-74869865D01*
X147241179Y-75000342D01*
X147080342Y-75161179D01*
X146949865Y-75347517D01*
X146853734Y-75553673D01*
X146853730Y-75553682D01*
X146801127Y-75749999D01*
X143513835Y-75749999D01*
X147588494Y-71675339D01*
X147649815Y-71641856D01*
X147708266Y-71643247D01*
X147727804Y-71648482D01*
X147804508Y-71669035D01*
X147966430Y-71683201D01*
X148031198Y-71688868D01*
X148031200Y-71688868D01*
X148031202Y-71688868D01*
X148087873Y-71683909D01*
X148257892Y-71669035D01*
X148477696Y-71610139D01*
X148683934Y-71513968D01*
X148870339Y-71383447D01*
X149031247Y-71222539D01*
X149161768Y-71036134D01*
X149257939Y-70829896D01*
X149316835Y-70610092D01*
X149336668Y-70383400D01*
X149316835Y-70156708D01*
X149257939Y-69936904D01*
X149161768Y-69730666D01*
X149031247Y-69544261D01*
X149031245Y-69544258D01*
X148870341Y-69383354D01*
X148683934Y-69252832D01*
X148683932Y-69252831D01*
X148477697Y-69156661D01*
X148477688Y-69156658D01*
X148257897Y-69097766D01*
X148257893Y-69097765D01*
X148257892Y-69097765D01*
X148257891Y-69097764D01*
X148257886Y-69097764D01*
X148031202Y-69077932D01*
X148031198Y-69077932D01*
X147804513Y-69097764D01*
X147804502Y-69097766D01*
X147584711Y-69156658D01*
X147584702Y-69156661D01*
X147378467Y-69252831D01*
X147378465Y-69252832D01*
X147192058Y-69383354D01*
X147031154Y-69544258D01*
X146900632Y-69730665D01*
X146900631Y-69730667D01*
X146804461Y-69936902D01*
X146804458Y-69936911D01*
X146745566Y-70156702D01*
X146745564Y-70156713D01*
X146725732Y-70383398D01*
X146725732Y-70383401D01*
X146745564Y-70610086D01*
X146745566Y-70610097D01*
X146771352Y-70706331D01*
X146769689Y-70776181D01*
X146739258Y-70826105D01*
X142328486Y-75236878D01*
X142216681Y-75348682D01*
X142216675Y-75348690D01*
X142172062Y-75425964D01*
X142172062Y-75425965D01*
X142137623Y-75485615D01*
X142096699Y-75638343D01*
X142096699Y-75638345D01*
X142096699Y-75806446D01*
X142096700Y-75806459D01*
X142096700Y-83802702D01*
X142077015Y-83869741D01*
X142060381Y-83890383D01*
X139242101Y-86708662D01*
X139180778Y-86742147D01*
X139111086Y-86737163D01*
X139055153Y-86695291D01*
X139030736Y-86629827D01*
X139035760Y-86584985D01*
X139080083Y-86438874D01*
X139100655Y-86230000D01*
X139086550Y-86086796D01*
X139099569Y-86018152D01*
X139122266Y-85986968D01*
X139385220Y-85724016D01*
X139464277Y-85587084D01*
X139505201Y-85434357D01*
X139505201Y-85276242D01*
X139505201Y-85268647D01*
X139505200Y-85268629D01*
X139505200Y-76905645D01*
X139505200Y-76905643D01*
X139464277Y-76752916D01*
X139464277Y-76752915D01*
X139406437Y-76652734D01*
X139385220Y-76615984D01*
X139273416Y-76504180D01*
X139273415Y-76504179D01*
X139269085Y-76499849D01*
X139269074Y-76499839D01*
X139211941Y-76442706D01*
X139178456Y-76381383D01*
X139179847Y-76322931D01*
X139180611Y-76320080D01*
X139205635Y-76226692D01*
X139225468Y-76000000D01*
X139205635Y-75773308D01*
X139146739Y-75553504D01*
X139050568Y-75347266D01*
X138920047Y-75160861D01*
X138920045Y-75160858D01*
X138759141Y-74999954D01*
X138572734Y-74869432D01*
X138572732Y-74869431D01*
X138366497Y-74773261D01*
X138366488Y-74773258D01*
X138146697Y-74714366D01*
X138146693Y-74714365D01*
X138146692Y-74714365D01*
X138146691Y-74714364D01*
X138146686Y-74714364D01*
X137920002Y-74694532D01*
X137919998Y-74694532D01*
X137693313Y-74714364D01*
X137693302Y-74714366D01*
X137541493Y-74755043D01*
X137471643Y-74753380D01*
X137413781Y-74714217D01*
X137386277Y-74649989D01*
X137385400Y-74635268D01*
X137385400Y-71769797D01*
X137405085Y-71702758D01*
X137421719Y-71682116D01*
X137428494Y-71675341D01*
X137489817Y-71641856D01*
X137548266Y-71643246D01*
X137644508Y-71669035D01*
X137806430Y-71683201D01*
X137871198Y-71688868D01*
X137871200Y-71688868D01*
X137871202Y-71688868D01*
X137927873Y-71683909D01*
X138097892Y-71669035D01*
X138317696Y-71610139D01*
X138523934Y-71513968D01*
X138710339Y-71383447D01*
X138871247Y-71222539D01*
X139001768Y-71036134D01*
X139097939Y-70829896D01*
X139156835Y-70610092D01*
X139176668Y-70383400D01*
X139156835Y-70156708D01*
X139097939Y-69936904D01*
X139001768Y-69730666D01*
X138871247Y-69544261D01*
X138871245Y-69544258D01*
X138710341Y-69383354D01*
X138523934Y-69252832D01*
X138523932Y-69252831D01*
X138317697Y-69156661D01*
X138317688Y-69156658D01*
X138097897Y-69097766D01*
X138097893Y-69097765D01*
X138097892Y-69097765D01*
X138097891Y-69097764D01*
X138097886Y-69097764D01*
X137871202Y-69077932D01*
X137871198Y-69077932D01*
X137644513Y-69097764D01*
X137644502Y-69097766D01*
X137424711Y-69156658D01*
X137424702Y-69156661D01*
X137218467Y-69252831D01*
X137218465Y-69252832D01*
X137032058Y-69383354D01*
X136871154Y-69544258D01*
X136740632Y-69730665D01*
X136740631Y-69730667D01*
X136644461Y-69936902D01*
X136644458Y-69936911D01*
X136585566Y-70156702D01*
X136585564Y-70156713D01*
X136565732Y-70383398D01*
X136565732Y-70383401D01*
X136585564Y-70610086D01*
X136585566Y-70610097D01*
X136611352Y-70706331D01*
X136609689Y-70776181D01*
X136579259Y-70826105D01*
X136416186Y-70989178D01*
X136304381Y-71100982D01*
X136304377Y-71100987D01*
X136257945Y-71181412D01*
X136257944Y-71181411D01*
X136225324Y-71237911D01*
X136225323Y-71237915D01*
X136184399Y-71390643D01*
X136184399Y-71390645D01*
X136184399Y-71558746D01*
X136184400Y-71558759D01*
X136184400Y-88661525D01*
X136184399Y-88661543D01*
X136184399Y-88827249D01*
X136184398Y-88827249D01*
X135500500Y-88827249D01*
X135500500Y-65506599D01*
X153487741Y-65506599D01*
X153487741Y-65506600D01*
X153508336Y-65742003D01*
X153508338Y-65742013D01*
X153569494Y-65970255D01*
X153569496Y-65970259D01*
X153569497Y-65970263D01*
X153669365Y-66184430D01*
X153669367Y-66184434D01*
X153777681Y-66339121D01*
X153804905Y-66378001D01*
X153971999Y-66545095D01*
X154048535Y-66598686D01*
X154165565Y-66680632D01*
X154165567Y-66680633D01*
X154165570Y-66680635D01*
X154379737Y-66780503D01*
X154607992Y-66841663D01*
X154778719Y-66856600D01*
X154843399Y-66862259D01*
X154843400Y-66862259D01*
X154843401Y-66862259D01*
X154908081Y-66856600D01*
X155078808Y-66841663D01*
X155307063Y-66780503D01*
X155521230Y-66680635D01*
X155714801Y-66545095D01*
X155837117Y-66422778D01*
X155898436Y-66389296D01*
X155968128Y-66394280D01*
X156024062Y-66436151D01*
X156040977Y-66467128D01*
X156090046Y-66598688D01*
X156090049Y-66598693D01*
X156176209Y-66713787D01*
X156176212Y-66713790D01*
X156291306Y-66799950D01*
X156291313Y-66799954D01*
X156426020Y-66850196D01*
X156426027Y-66850198D01*
X156485555Y-66856599D01*
X156485572Y-66856600D01*
X157133400Y-66856600D01*
X157133400Y-65939612D01*
X157190407Y-65972525D01*
X157317574Y-66006600D01*
X157449226Y-66006600D01*
X157576393Y-65972525D01*
X157633400Y-65939612D01*
X157633400Y-66856600D01*
X158281228Y-66856600D01*
X158281244Y-66856599D01*
X158340772Y-66850198D01*
X158340779Y-66850196D01*
X158475486Y-66799954D01*
X158475493Y-66799950D01*
X158590587Y-66713790D01*
X158590590Y-66713787D01*
X158676750Y-66598693D01*
X158676754Y-66598686D01*
X158726996Y-66463979D01*
X158726998Y-66463972D01*
X158733399Y-66404444D01*
X158733400Y-66404427D01*
X158733400Y-65756600D01*
X157816412Y-65756600D01*
X157849325Y-65699593D01*
X157883400Y-65572426D01*
X157883400Y-65440774D01*
X157849325Y-65313607D01*
X157816412Y-65256600D01*
X158733400Y-65256600D01*
X158733400Y-64608772D01*
X158733399Y-64608755D01*
X158726998Y-64549227D01*
X158726996Y-64549220D01*
X158676754Y-64414513D01*
X158676750Y-64414506D01*
X158590590Y-64299412D01*
X158590587Y-64299409D01*
X158475493Y-64213249D01*
X158475486Y-64213245D01*
X158340779Y-64163003D01*
X158340772Y-64163001D01*
X158281244Y-64156600D01*
X157633400Y-64156600D01*
X157633400Y-65073588D01*
X157576393Y-65040675D01*
X157449226Y-65006600D01*
X157317574Y-65006600D01*
X157190407Y-65040675D01*
X157133400Y-65073588D01*
X157133400Y-64156600D01*
X156485555Y-64156600D01*
X156426027Y-64163001D01*
X156426020Y-64163003D01*
X156291313Y-64213245D01*
X156291306Y-64213249D01*
X156176212Y-64299409D01*
X156176209Y-64299412D01*
X156090049Y-64414506D01*
X156090045Y-64414513D01*
X156040978Y-64546070D01*
X155999107Y-64602004D01*
X155933642Y-64626421D01*
X155865369Y-64611569D01*
X155837115Y-64590419D01*
X155792766Y-64546070D01*
X155714801Y-64468105D01*
X155714797Y-64468102D01*
X155714796Y-64468101D01*
X155521234Y-64332567D01*
X155521230Y-64332565D01*
X155450127Y-64299409D01*
X155307063Y-64232697D01*
X155307059Y-64232696D01*
X155307055Y-64232694D01*
X155078813Y-64171538D01*
X155078803Y-64171536D01*
X154843401Y-64150941D01*
X154843399Y-64150941D01*
X154607996Y-64171536D01*
X154607986Y-64171538D01*
X154379744Y-64232694D01*
X154379735Y-64232698D01*
X154165571Y-64332564D01*
X154165569Y-64332565D01*
X153971997Y-64468105D01*
X153804905Y-64635197D01*
X153669365Y-64828769D01*
X153669364Y-64828771D01*
X153569498Y-65042935D01*
X153569494Y-65042944D01*
X153508338Y-65271186D01*
X153508336Y-65271196D01*
X153487741Y-65506599D01*
X135500500Y-65506599D01*
X135500500Y-63624500D01*
X135520185Y-63557461D01*
X135572989Y-63511706D01*
X135624500Y-63500500D01*
X167875500Y-63500500D01*
X167942539Y-63520185D01*
G37*
%TD.AperFunction*%
%TD*%
M02*
